%TF.GenerationSoftware,KiCad,Pcbnew,(5.1.9-0-10_14)*%
%TF.CreationDate,2021-01-25T23:13:15-08:00*%
%TF.ProjectId,flight-computer-2,666c6967-6874-42d6-936f-6d7075746572,rev?*%
%TF.SameCoordinates,PX57bcf00PY58b1140*%
%TF.FileFunction,Soldermask,Top*%
%TF.FilePolarity,Negative*%
%FSLAX46Y46*%
G04 Gerber Fmt 4.6, Leading zero omitted, Abs format (unit mm)*
G04 Created by KiCad (PCBNEW (5.1.9-0-10_14)) date 2021-01-25 23:13:15*
%MOMM*%
%LPD*%
G01*
G04 APERTURE LIST*
%ADD10C,0.100000*%
%ADD11O,1.800000X1.800000*%
%ADD12C,1.800000*%
%ADD13C,1.600000*%
%ADD14O,1.100000X2.100000*%
%ADD15O,1.150000X2.200000*%
%ADD16C,0.750000*%
%ADD17C,4.500000*%
G04 APERTURE END LIST*
D10*
G36*
X24504899Y42554759D02*
G01*
X24505874Y42554663D01*
X24515511Y42552744D01*
X24516449Y42552459D01*
X24525469Y42548723D01*
X24526334Y42548261D01*
X24534465Y42542834D01*
X24535223Y42542213D01*
X24542213Y42535223D01*
X24542834Y42534465D01*
X24548261Y42526334D01*
X24548723Y42525469D01*
X24552459Y42516449D01*
X24552744Y42515511D01*
X24554663Y42505874D01*
X24554759Y42504899D01*
X24555000Y42500000D01*
X24555000Y41500000D01*
X24554759Y41495101D01*
X24554663Y41494126D01*
X24552744Y41484489D01*
X24552459Y41483551D01*
X24548723Y41474531D01*
X24548261Y41473666D01*
X24542834Y41465535D01*
X24542213Y41464777D01*
X24535223Y41457787D01*
X24534465Y41457166D01*
X24526334Y41451739D01*
X24525469Y41451277D01*
X24516449Y41447541D01*
X24515511Y41447256D01*
X24505874Y41445337D01*
X24504899Y41445241D01*
X24500000Y41445000D01*
X23500000Y41445000D01*
X23495101Y41445241D01*
X23494126Y41445337D01*
X23484489Y41447256D01*
X23483551Y41447541D01*
X23474531Y41451277D01*
X23473666Y41451739D01*
X23465535Y41457166D01*
X23464777Y41457787D01*
X23457787Y41464777D01*
X23457166Y41465535D01*
X23451739Y41473666D01*
X23451277Y41474531D01*
X23447541Y41483551D01*
X23447256Y41484489D01*
X23445337Y41494126D01*
X23445241Y41495101D01*
X23445000Y41500000D01*
X23445000Y41900000D01*
X23445241Y41904899D01*
X23445337Y41905874D01*
X23447256Y41915511D01*
X23447541Y41916449D01*
X23451277Y41925469D01*
X23451739Y41926334D01*
X23457166Y41934465D01*
X23457787Y41935223D01*
X23461109Y41938891D01*
X24061109Y42538891D01*
X24064777Y42542213D01*
X24065535Y42542834D01*
X24073666Y42548261D01*
X24074531Y42548723D01*
X24083551Y42552459D01*
X24084489Y42552744D01*
X24094126Y42554663D01*
X24095101Y42554759D01*
X24100000Y42555000D01*
X24500000Y42555000D01*
X24504899Y42554759D01*
G37*
G36*
G01*
X20000000Y45050000D02*
X19200000Y45050000D01*
G75*
G02*
X19150000Y45100000I0J50000D01*
G01*
X19150000Y45500000D01*
G75*
G02*
X19200000Y45550000I50000J0D01*
G01*
X20000000Y45550000D01*
G75*
G02*
X20050000Y45500000I0J-50000D01*
G01*
X20050000Y45100000D01*
G75*
G02*
X20000000Y45050000I-50000J0D01*
G01*
G37*
G36*
G01*
X20000000Y44250000D02*
X19200000Y44250000D01*
G75*
G02*
X19150000Y44300000I0J50000D01*
G01*
X19150000Y44700000D01*
G75*
G02*
X19200000Y44750000I50000J0D01*
G01*
X20000000Y44750000D01*
G75*
G02*
X20050000Y44700000I0J-50000D01*
G01*
X20050000Y44300000D01*
G75*
G02*
X20000000Y44250000I-50000J0D01*
G01*
G37*
G36*
G01*
X20000000Y43450000D02*
X19200000Y43450000D01*
G75*
G02*
X19150000Y43500000I0J50000D01*
G01*
X19150000Y43900000D01*
G75*
G02*
X19200000Y43950000I50000J0D01*
G01*
X20000000Y43950000D01*
G75*
G02*
X20050000Y43900000I0J-50000D01*
G01*
X20050000Y43500000D01*
G75*
G02*
X20000000Y43450000I-50000J0D01*
G01*
G37*
G36*
G01*
X20000000Y42650000D02*
X19200000Y42650000D01*
G75*
G02*
X19150000Y42700000I0J50000D01*
G01*
X19150000Y43100000D01*
G75*
G02*
X19200000Y43150000I50000J0D01*
G01*
X20000000Y43150000D01*
G75*
G02*
X20050000Y43100000I0J-50000D01*
G01*
X20050000Y42700000D01*
G75*
G02*
X20000000Y42650000I-50000J0D01*
G01*
G37*
G36*
G01*
X20000000Y41850000D02*
X19200000Y41850000D01*
G75*
G02*
X19150000Y41900000I0J50000D01*
G01*
X19150000Y42300000D01*
G75*
G02*
X19200000Y42350000I50000J0D01*
G01*
X20000000Y42350000D01*
G75*
G02*
X20050000Y42300000I0J-50000D01*
G01*
X20050000Y41900000D01*
G75*
G02*
X20000000Y41850000I-50000J0D01*
G01*
G37*
G36*
G01*
X20000000Y41050000D02*
X19200000Y41050000D01*
G75*
G02*
X19150000Y41100000I0J50000D01*
G01*
X19150000Y41500000D01*
G75*
G02*
X19200000Y41550000I50000J0D01*
G01*
X20000000Y41550000D01*
G75*
G02*
X20050000Y41500000I0J-50000D01*
G01*
X20050000Y41100000D01*
G75*
G02*
X20000000Y41050000I-50000J0D01*
G01*
G37*
G36*
G01*
X20000000Y40250000D02*
X19200000Y40250000D01*
G75*
G02*
X19150000Y40300000I0J50000D01*
G01*
X19150000Y40700000D01*
G75*
G02*
X19200000Y40750000I50000J0D01*
G01*
X20000000Y40750000D01*
G75*
G02*
X20050000Y40700000I0J-50000D01*
G01*
X20050000Y40300000D01*
G75*
G02*
X20000000Y40250000I-50000J0D01*
G01*
G37*
G36*
G01*
X20000000Y39450000D02*
X19200000Y39450000D01*
G75*
G02*
X19150000Y39500000I0J50000D01*
G01*
X19150000Y39900000D01*
G75*
G02*
X19200000Y39950000I50000J0D01*
G01*
X20000000Y39950000D01*
G75*
G02*
X20050000Y39900000I0J-50000D01*
G01*
X20050000Y39500000D01*
G75*
G02*
X20000000Y39450000I-50000J0D01*
G01*
G37*
G36*
G01*
X20000000Y38650000D02*
X19200000Y38650000D01*
G75*
G02*
X19150000Y38700000I0J50000D01*
G01*
X19150000Y39100000D01*
G75*
G02*
X19200000Y39150000I50000J0D01*
G01*
X20000000Y39150000D01*
G75*
G02*
X20050000Y39100000I0J-50000D01*
G01*
X20050000Y38700000D01*
G75*
G02*
X20000000Y38650000I-50000J0D01*
G01*
G37*
G36*
G01*
X20000000Y37850000D02*
X19200000Y37850000D01*
G75*
G02*
X19150000Y37900000I0J50000D01*
G01*
X19150000Y38300000D01*
G75*
G02*
X19200000Y38350000I50000J0D01*
G01*
X20000000Y38350000D01*
G75*
G02*
X20050000Y38300000I0J-50000D01*
G01*
X20050000Y37900000D01*
G75*
G02*
X20000000Y37850000I-50000J0D01*
G01*
G37*
G36*
G01*
X20000000Y37050000D02*
X19200000Y37050000D01*
G75*
G02*
X19150000Y37100000I0J50000D01*
G01*
X19150000Y37500000D01*
G75*
G02*
X19200000Y37550000I50000J0D01*
G01*
X20000000Y37550000D01*
G75*
G02*
X20050000Y37500000I0J-50000D01*
G01*
X20050000Y37100000D01*
G75*
G02*
X20000000Y37050000I-50000J0D01*
G01*
G37*
G36*
G01*
X20000000Y36250000D02*
X19200000Y36250000D01*
G75*
G02*
X19150000Y36300000I0J50000D01*
G01*
X19150000Y36700000D01*
G75*
G02*
X19200000Y36750000I50000J0D01*
G01*
X20000000Y36750000D01*
G75*
G02*
X20050000Y36700000I0J-50000D01*
G01*
X20050000Y36300000D01*
G75*
G02*
X20000000Y36250000I-50000J0D01*
G01*
G37*
G36*
G01*
X20000000Y35450000D02*
X19200000Y35450000D01*
G75*
G02*
X19150000Y35500000I0J50000D01*
G01*
X19150000Y35900000D01*
G75*
G02*
X19200000Y35950000I50000J0D01*
G01*
X20000000Y35950000D01*
G75*
G02*
X20050000Y35900000I0J-50000D01*
G01*
X20050000Y35500000D01*
G75*
G02*
X20000000Y35450000I-50000J0D01*
G01*
G37*
G36*
G01*
X20050000Y34050000D02*
X20050000Y34850000D01*
G75*
G02*
X20100000Y34900000I50000J0D01*
G01*
X20500000Y34900000D01*
G75*
G02*
X20550000Y34850000I0J-50000D01*
G01*
X20550000Y34050000D01*
G75*
G02*
X20500000Y34000000I-50000J0D01*
G01*
X20100000Y34000000D01*
G75*
G02*
X20050000Y34050000I0J50000D01*
G01*
G37*
G36*
G01*
X20850000Y34050000D02*
X20850000Y34850000D01*
G75*
G02*
X20900000Y34900000I50000J0D01*
G01*
X21300000Y34900000D01*
G75*
G02*
X21350000Y34850000I0J-50000D01*
G01*
X21350000Y34050000D01*
G75*
G02*
X21300000Y34000000I-50000J0D01*
G01*
X20900000Y34000000D01*
G75*
G02*
X20850000Y34050000I0J50000D01*
G01*
G37*
G36*
G01*
X21650000Y34050000D02*
X21650000Y34850000D01*
G75*
G02*
X21700000Y34900000I50000J0D01*
G01*
X22100000Y34900000D01*
G75*
G02*
X22150000Y34850000I0J-50000D01*
G01*
X22150000Y34050000D01*
G75*
G02*
X22100000Y34000000I-50000J0D01*
G01*
X21700000Y34000000D01*
G75*
G02*
X21650000Y34050000I0J50000D01*
G01*
G37*
G36*
G01*
X22450000Y34050000D02*
X22450000Y34850000D01*
G75*
G02*
X22500000Y34900000I50000J0D01*
G01*
X22900000Y34900000D01*
G75*
G02*
X22950000Y34850000I0J-50000D01*
G01*
X22950000Y34050000D01*
G75*
G02*
X22900000Y34000000I-50000J0D01*
G01*
X22500000Y34000000D01*
G75*
G02*
X22450000Y34050000I0J50000D01*
G01*
G37*
G36*
G01*
X23250000Y34050000D02*
X23250000Y34850000D01*
G75*
G02*
X23300000Y34900000I50000J0D01*
G01*
X23700000Y34900000D01*
G75*
G02*
X23750000Y34850000I0J-50000D01*
G01*
X23750000Y34050000D01*
G75*
G02*
X23700000Y34000000I-50000J0D01*
G01*
X23300000Y34000000D01*
G75*
G02*
X23250000Y34050000I0J50000D01*
G01*
G37*
G36*
G01*
X24050000Y34050000D02*
X24050000Y34850000D01*
G75*
G02*
X24100000Y34900000I50000J0D01*
G01*
X24500000Y34900000D01*
G75*
G02*
X24550000Y34850000I0J-50000D01*
G01*
X24550000Y34050000D01*
G75*
G02*
X24500000Y34000000I-50000J0D01*
G01*
X24100000Y34000000D01*
G75*
G02*
X24050000Y34050000I0J50000D01*
G01*
G37*
G36*
G01*
X24850000Y34050000D02*
X24850000Y34850000D01*
G75*
G02*
X24900000Y34900000I50000J0D01*
G01*
X25300000Y34900000D01*
G75*
G02*
X25350000Y34850000I0J-50000D01*
G01*
X25350000Y34050000D01*
G75*
G02*
X25300000Y34000000I-50000J0D01*
G01*
X24900000Y34000000D01*
G75*
G02*
X24850000Y34050000I0J50000D01*
G01*
G37*
G36*
G01*
X25650000Y34050000D02*
X25650000Y34850000D01*
G75*
G02*
X25700000Y34900000I50000J0D01*
G01*
X26100000Y34900000D01*
G75*
G02*
X26150000Y34850000I0J-50000D01*
G01*
X26150000Y34050000D01*
G75*
G02*
X26100000Y34000000I-50000J0D01*
G01*
X25700000Y34000000D01*
G75*
G02*
X25650000Y34050000I0J50000D01*
G01*
G37*
G36*
G01*
X26450000Y34050000D02*
X26450000Y34850000D01*
G75*
G02*
X26500000Y34900000I50000J0D01*
G01*
X26900000Y34900000D01*
G75*
G02*
X26950000Y34850000I0J-50000D01*
G01*
X26950000Y34050000D01*
G75*
G02*
X26900000Y34000000I-50000J0D01*
G01*
X26500000Y34000000D01*
G75*
G02*
X26450000Y34050000I0J50000D01*
G01*
G37*
G36*
G01*
X27250000Y34050000D02*
X27250000Y34850000D01*
G75*
G02*
X27300000Y34900000I50000J0D01*
G01*
X27700000Y34900000D01*
G75*
G02*
X27750000Y34850000I0J-50000D01*
G01*
X27750000Y34050000D01*
G75*
G02*
X27700000Y34000000I-50000J0D01*
G01*
X27300000Y34000000D01*
G75*
G02*
X27250000Y34050000I0J50000D01*
G01*
G37*
G36*
G01*
X28050000Y34050000D02*
X28050000Y34850000D01*
G75*
G02*
X28100000Y34900000I50000J0D01*
G01*
X28500000Y34900000D01*
G75*
G02*
X28550000Y34850000I0J-50000D01*
G01*
X28550000Y34050000D01*
G75*
G02*
X28500000Y34000000I-50000J0D01*
G01*
X28100000Y34000000D01*
G75*
G02*
X28050000Y34050000I0J50000D01*
G01*
G37*
G36*
G01*
X28850000Y34050000D02*
X28850000Y34850000D01*
G75*
G02*
X28900000Y34900000I50000J0D01*
G01*
X29300000Y34900000D01*
G75*
G02*
X29350000Y34850000I0J-50000D01*
G01*
X29350000Y34050000D01*
G75*
G02*
X29300000Y34000000I-50000J0D01*
G01*
X28900000Y34000000D01*
G75*
G02*
X28850000Y34050000I0J50000D01*
G01*
G37*
G36*
G01*
X29650000Y34050000D02*
X29650000Y34850000D01*
G75*
G02*
X29700000Y34900000I50000J0D01*
G01*
X30100000Y34900000D01*
G75*
G02*
X30150000Y34850000I0J-50000D01*
G01*
X30150000Y34050000D01*
G75*
G02*
X30100000Y34000000I-50000J0D01*
G01*
X29700000Y34000000D01*
G75*
G02*
X29650000Y34050000I0J50000D01*
G01*
G37*
G36*
G01*
X30450000Y34050000D02*
X30450000Y34850000D01*
G75*
G02*
X30500000Y34900000I50000J0D01*
G01*
X30900000Y34900000D01*
G75*
G02*
X30950000Y34850000I0J-50000D01*
G01*
X30950000Y34050000D01*
G75*
G02*
X30900000Y34000000I-50000J0D01*
G01*
X30500000Y34000000D01*
G75*
G02*
X30450000Y34050000I0J50000D01*
G01*
G37*
G36*
G01*
X31800000Y35450000D02*
X31000000Y35450000D01*
G75*
G02*
X30950000Y35500000I0J50000D01*
G01*
X30950000Y35900000D01*
G75*
G02*
X31000000Y35950000I50000J0D01*
G01*
X31800000Y35950000D01*
G75*
G02*
X31850000Y35900000I0J-50000D01*
G01*
X31850000Y35500000D01*
G75*
G02*
X31800000Y35450000I-50000J0D01*
G01*
G37*
G36*
G01*
X31800000Y36250000D02*
X31000000Y36250000D01*
G75*
G02*
X30950000Y36300000I0J50000D01*
G01*
X30950000Y36700000D01*
G75*
G02*
X31000000Y36750000I50000J0D01*
G01*
X31800000Y36750000D01*
G75*
G02*
X31850000Y36700000I0J-50000D01*
G01*
X31850000Y36300000D01*
G75*
G02*
X31800000Y36250000I-50000J0D01*
G01*
G37*
G36*
G01*
X31800000Y37050000D02*
X31000000Y37050000D01*
G75*
G02*
X30950000Y37100000I0J50000D01*
G01*
X30950000Y37500000D01*
G75*
G02*
X31000000Y37550000I50000J0D01*
G01*
X31800000Y37550000D01*
G75*
G02*
X31850000Y37500000I0J-50000D01*
G01*
X31850000Y37100000D01*
G75*
G02*
X31800000Y37050000I-50000J0D01*
G01*
G37*
G36*
G01*
X31800000Y37850000D02*
X31000000Y37850000D01*
G75*
G02*
X30950000Y37900000I0J50000D01*
G01*
X30950000Y38300000D01*
G75*
G02*
X31000000Y38350000I50000J0D01*
G01*
X31800000Y38350000D01*
G75*
G02*
X31850000Y38300000I0J-50000D01*
G01*
X31850000Y37900000D01*
G75*
G02*
X31800000Y37850000I-50000J0D01*
G01*
G37*
G36*
G01*
X31800000Y38650000D02*
X31000000Y38650000D01*
G75*
G02*
X30950000Y38700000I0J50000D01*
G01*
X30950000Y39100000D01*
G75*
G02*
X31000000Y39150000I50000J0D01*
G01*
X31800000Y39150000D01*
G75*
G02*
X31850000Y39100000I0J-50000D01*
G01*
X31850000Y38700000D01*
G75*
G02*
X31800000Y38650000I-50000J0D01*
G01*
G37*
G36*
G01*
X31800000Y39450000D02*
X31000000Y39450000D01*
G75*
G02*
X30950000Y39500000I0J50000D01*
G01*
X30950000Y39900000D01*
G75*
G02*
X31000000Y39950000I50000J0D01*
G01*
X31800000Y39950000D01*
G75*
G02*
X31850000Y39900000I0J-50000D01*
G01*
X31850000Y39500000D01*
G75*
G02*
X31800000Y39450000I-50000J0D01*
G01*
G37*
G36*
G01*
X31800000Y40250000D02*
X31000000Y40250000D01*
G75*
G02*
X30950000Y40300000I0J50000D01*
G01*
X30950000Y40700000D01*
G75*
G02*
X31000000Y40750000I50000J0D01*
G01*
X31800000Y40750000D01*
G75*
G02*
X31850000Y40700000I0J-50000D01*
G01*
X31850000Y40300000D01*
G75*
G02*
X31800000Y40250000I-50000J0D01*
G01*
G37*
G36*
G01*
X31800000Y41050000D02*
X31000000Y41050000D01*
G75*
G02*
X30950000Y41100000I0J50000D01*
G01*
X30950000Y41500000D01*
G75*
G02*
X31000000Y41550000I50000J0D01*
G01*
X31800000Y41550000D01*
G75*
G02*
X31850000Y41500000I0J-50000D01*
G01*
X31850000Y41100000D01*
G75*
G02*
X31800000Y41050000I-50000J0D01*
G01*
G37*
G36*
G01*
X31800000Y41850000D02*
X31000000Y41850000D01*
G75*
G02*
X30950000Y41900000I0J50000D01*
G01*
X30950000Y42300000D01*
G75*
G02*
X31000000Y42350000I50000J0D01*
G01*
X31800000Y42350000D01*
G75*
G02*
X31850000Y42300000I0J-50000D01*
G01*
X31850000Y41900000D01*
G75*
G02*
X31800000Y41850000I-50000J0D01*
G01*
G37*
G36*
G01*
X31800000Y42650000D02*
X31000000Y42650000D01*
G75*
G02*
X30950000Y42700000I0J50000D01*
G01*
X30950000Y43100000D01*
G75*
G02*
X31000000Y43150000I50000J0D01*
G01*
X31800000Y43150000D01*
G75*
G02*
X31850000Y43100000I0J-50000D01*
G01*
X31850000Y42700000D01*
G75*
G02*
X31800000Y42650000I-50000J0D01*
G01*
G37*
G36*
G01*
X31800000Y43450000D02*
X31000000Y43450000D01*
G75*
G02*
X30950000Y43500000I0J50000D01*
G01*
X30950000Y43900000D01*
G75*
G02*
X31000000Y43950000I50000J0D01*
G01*
X31800000Y43950000D01*
G75*
G02*
X31850000Y43900000I0J-50000D01*
G01*
X31850000Y43500000D01*
G75*
G02*
X31800000Y43450000I-50000J0D01*
G01*
G37*
G36*
G01*
X31800000Y44250000D02*
X31000000Y44250000D01*
G75*
G02*
X30950000Y44300000I0J50000D01*
G01*
X30950000Y44700000D01*
G75*
G02*
X31000000Y44750000I50000J0D01*
G01*
X31800000Y44750000D01*
G75*
G02*
X31850000Y44700000I0J-50000D01*
G01*
X31850000Y44300000D01*
G75*
G02*
X31800000Y44250000I-50000J0D01*
G01*
G37*
G36*
G01*
X31800000Y45050000D02*
X31000000Y45050000D01*
G75*
G02*
X30950000Y45100000I0J50000D01*
G01*
X30950000Y45500000D01*
G75*
G02*
X31000000Y45550000I50000J0D01*
G01*
X31800000Y45550000D01*
G75*
G02*
X31850000Y45500000I0J-50000D01*
G01*
X31850000Y45100000D01*
G75*
G02*
X31800000Y45050000I-50000J0D01*
G01*
G37*
G36*
G01*
X30950000Y46950000D02*
X30950000Y46150000D01*
G75*
G02*
X30900000Y46100000I-50000J0D01*
G01*
X30500000Y46100000D01*
G75*
G02*
X30450000Y46150000I0J50000D01*
G01*
X30450000Y46950000D01*
G75*
G02*
X30500000Y47000000I50000J0D01*
G01*
X30900000Y47000000D01*
G75*
G02*
X30950000Y46950000I0J-50000D01*
G01*
G37*
G36*
G01*
X30150000Y46950000D02*
X30150000Y46150000D01*
G75*
G02*
X30100000Y46100000I-50000J0D01*
G01*
X29700000Y46100000D01*
G75*
G02*
X29650000Y46150000I0J50000D01*
G01*
X29650000Y46950000D01*
G75*
G02*
X29700000Y47000000I50000J0D01*
G01*
X30100000Y47000000D01*
G75*
G02*
X30150000Y46950000I0J-50000D01*
G01*
G37*
G36*
G01*
X28850000Y46150000D02*
X28850000Y46950000D01*
G75*
G02*
X28900000Y47000000I50000J0D01*
G01*
X29300000Y47000000D01*
G75*
G02*
X29350000Y46950000I0J-50000D01*
G01*
X29350000Y46150000D01*
G75*
G02*
X29300000Y46100000I-50000J0D01*
G01*
X28900000Y46100000D01*
G75*
G02*
X28850000Y46150000I0J50000D01*
G01*
G37*
G36*
G01*
X28050000Y46150000D02*
X28050000Y46950000D01*
G75*
G02*
X28100000Y47000000I50000J0D01*
G01*
X28500000Y47000000D01*
G75*
G02*
X28550000Y46950000I0J-50000D01*
G01*
X28550000Y46150000D01*
G75*
G02*
X28500000Y46100000I-50000J0D01*
G01*
X28100000Y46100000D01*
G75*
G02*
X28050000Y46150000I0J50000D01*
G01*
G37*
G36*
G01*
X27250000Y46150000D02*
X27250000Y46950000D01*
G75*
G02*
X27300000Y47000000I50000J0D01*
G01*
X27700000Y47000000D01*
G75*
G02*
X27750000Y46950000I0J-50000D01*
G01*
X27750000Y46150000D01*
G75*
G02*
X27700000Y46100000I-50000J0D01*
G01*
X27300000Y46100000D01*
G75*
G02*
X27250000Y46150000I0J50000D01*
G01*
G37*
G36*
G01*
X26450000Y46150000D02*
X26450000Y46950000D01*
G75*
G02*
X26500000Y47000000I50000J0D01*
G01*
X26900000Y47000000D01*
G75*
G02*
X26950000Y46950000I0J-50000D01*
G01*
X26950000Y46150000D01*
G75*
G02*
X26900000Y46100000I-50000J0D01*
G01*
X26500000Y46100000D01*
G75*
G02*
X26450000Y46150000I0J50000D01*
G01*
G37*
G36*
G01*
X25650000Y46150000D02*
X25650000Y46950000D01*
G75*
G02*
X25700000Y47000000I50000J0D01*
G01*
X26100000Y47000000D01*
G75*
G02*
X26150000Y46950000I0J-50000D01*
G01*
X26150000Y46150000D01*
G75*
G02*
X26100000Y46100000I-50000J0D01*
G01*
X25700000Y46100000D01*
G75*
G02*
X25650000Y46150000I0J50000D01*
G01*
G37*
G36*
G01*
X24850000Y46150000D02*
X24850000Y46950000D01*
G75*
G02*
X24900000Y47000000I50000J0D01*
G01*
X25300000Y47000000D01*
G75*
G02*
X25350000Y46950000I0J-50000D01*
G01*
X25350000Y46150000D01*
G75*
G02*
X25300000Y46100000I-50000J0D01*
G01*
X24900000Y46100000D01*
G75*
G02*
X24850000Y46150000I0J50000D01*
G01*
G37*
G36*
G01*
X24050000Y46150000D02*
X24050000Y46950000D01*
G75*
G02*
X24100000Y47000000I50000J0D01*
G01*
X24500000Y47000000D01*
G75*
G02*
X24550000Y46950000I0J-50000D01*
G01*
X24550000Y46150000D01*
G75*
G02*
X24500000Y46100000I-50000J0D01*
G01*
X24100000Y46100000D01*
G75*
G02*
X24050000Y46150000I0J50000D01*
G01*
G37*
G36*
G01*
X23250000Y46150000D02*
X23250000Y46950000D01*
G75*
G02*
X23300000Y47000000I50000J0D01*
G01*
X23700000Y47000000D01*
G75*
G02*
X23750000Y46950000I0J-50000D01*
G01*
X23750000Y46150000D01*
G75*
G02*
X23700000Y46100000I-50000J0D01*
G01*
X23300000Y46100000D01*
G75*
G02*
X23250000Y46150000I0J50000D01*
G01*
G37*
G36*
G01*
X22450000Y46150000D02*
X22450000Y46950000D01*
G75*
G02*
X22500000Y47000000I50000J0D01*
G01*
X22900000Y47000000D01*
G75*
G02*
X22950000Y46950000I0J-50000D01*
G01*
X22950000Y46150000D01*
G75*
G02*
X22900000Y46100000I-50000J0D01*
G01*
X22500000Y46100000D01*
G75*
G02*
X22450000Y46150000I0J50000D01*
G01*
G37*
G36*
G01*
X21650000Y46150000D02*
X21650000Y46950000D01*
G75*
G02*
X21700000Y47000000I50000J0D01*
G01*
X22100000Y47000000D01*
G75*
G02*
X22150000Y46950000I0J-50000D01*
G01*
X22150000Y46150000D01*
G75*
G02*
X22100000Y46100000I-50000J0D01*
G01*
X21700000Y46100000D01*
G75*
G02*
X21650000Y46150000I0J50000D01*
G01*
G37*
G36*
G01*
X20850000Y46150000D02*
X20850000Y46950000D01*
G75*
G02*
X20900000Y47000000I50000J0D01*
G01*
X21300000Y47000000D01*
G75*
G02*
X21350000Y46950000I0J-50000D01*
G01*
X21350000Y46150000D01*
G75*
G02*
X21300000Y46100000I-50000J0D01*
G01*
X20900000Y46100000D01*
G75*
G02*
X20850000Y46150000I0J50000D01*
G01*
G37*
G36*
G01*
X20050000Y46150000D02*
X20050000Y46950000D01*
G75*
G02*
X20100000Y47000000I50000J0D01*
G01*
X20500000Y47000000D01*
G75*
G02*
X20550000Y46950000I0J-50000D01*
G01*
X20550000Y46150000D01*
G75*
G02*
X20500000Y46100000I-50000J0D01*
G01*
X20100000Y46100000D01*
G75*
G02*
X20050000Y46150000I0J50000D01*
G01*
G37*
G36*
G01*
X24950000Y40000000D02*
X24950000Y41000000D01*
G75*
G02*
X25000000Y41050000I50000J0D01*
G01*
X26000000Y41050000D01*
G75*
G02*
X26050000Y41000000I0J-50000D01*
G01*
X26050000Y40000000D01*
G75*
G02*
X26000000Y39950000I-50000J0D01*
G01*
X25000000Y39950000D01*
G75*
G02*
X24950000Y40000000I0J50000D01*
G01*
G37*
G36*
G01*
X23450000Y40000000D02*
X23450000Y41000000D01*
G75*
G02*
X23500000Y41050000I50000J0D01*
G01*
X24500000Y41050000D01*
G75*
G02*
X24550000Y41000000I0J-50000D01*
G01*
X24550000Y40000000D01*
G75*
G02*
X24500000Y39950000I-50000J0D01*
G01*
X23500000Y39950000D01*
G75*
G02*
X23450000Y40000000I0J50000D01*
G01*
G37*
G36*
G01*
X26450000Y40000000D02*
X26450000Y41000000D01*
G75*
G02*
X26500000Y41050000I50000J0D01*
G01*
X27500000Y41050000D01*
G75*
G02*
X27550000Y41000000I0J-50000D01*
G01*
X27550000Y40000000D01*
G75*
G02*
X27500000Y39950000I-50000J0D01*
G01*
X26500000Y39950000D01*
G75*
G02*
X26450000Y40000000I0J50000D01*
G01*
G37*
G36*
G01*
X26450000Y38500000D02*
X26450000Y39500000D01*
G75*
G02*
X26500000Y39550000I50000J0D01*
G01*
X27500000Y39550000D01*
G75*
G02*
X27550000Y39500000I0J-50000D01*
G01*
X27550000Y38500000D01*
G75*
G02*
X27500000Y38450000I-50000J0D01*
G01*
X26500000Y38450000D01*
G75*
G02*
X26450000Y38500000I0J50000D01*
G01*
G37*
G36*
G01*
X23450000Y38500000D02*
X23450000Y39500000D01*
G75*
G02*
X23500000Y39550000I50000J0D01*
G01*
X24500000Y39550000D01*
G75*
G02*
X24550000Y39500000I0J-50000D01*
G01*
X24550000Y38500000D01*
G75*
G02*
X24500000Y38450000I-50000J0D01*
G01*
X23500000Y38450000D01*
G75*
G02*
X23450000Y38500000I0J50000D01*
G01*
G37*
G36*
G01*
X24950000Y38500000D02*
X24950000Y39500000D01*
G75*
G02*
X25000000Y39550000I50000J0D01*
G01*
X26000000Y39550000D01*
G75*
G02*
X26050000Y39500000I0J-50000D01*
G01*
X26050000Y38500000D01*
G75*
G02*
X26000000Y38450000I-50000J0D01*
G01*
X25000000Y38450000D01*
G75*
G02*
X24950000Y38500000I0J50000D01*
G01*
G37*
G36*
G01*
X26450000Y41500000D02*
X26450000Y42500000D01*
G75*
G02*
X26500000Y42550000I50000J0D01*
G01*
X27500000Y42550000D01*
G75*
G02*
X27550000Y42500000I0J-50000D01*
G01*
X27550000Y41500000D01*
G75*
G02*
X27500000Y41450000I-50000J0D01*
G01*
X26500000Y41450000D01*
G75*
G02*
X26450000Y41500000I0J50000D01*
G01*
G37*
G36*
G01*
X24950000Y41500000D02*
X24950000Y42500000D01*
G75*
G02*
X25000000Y42550000I50000J0D01*
G01*
X26000000Y42550000D01*
G75*
G02*
X26050000Y42500000I0J-50000D01*
G01*
X26050000Y41500000D01*
G75*
G02*
X26000000Y41450000I-50000J0D01*
G01*
X25000000Y41450000D01*
G75*
G02*
X24950000Y41500000I0J50000D01*
G01*
G37*
G36*
G01*
X17250000Y22000000D02*
X19750000Y22000000D01*
G75*
G02*
X19800000Y21950000I0J-50000D01*
G01*
X19800000Y20450000D01*
G75*
G02*
X19750000Y20400000I-50000J0D01*
G01*
X17250000Y20400000D01*
G75*
G02*
X17200000Y20450000I0J50000D01*
G01*
X17200000Y21950000D01*
G75*
G02*
X17250000Y22000000I50000J0D01*
G01*
G37*
G36*
G01*
X17250000Y25700000D02*
X19750000Y25700000D01*
G75*
G02*
X19800000Y25650000I0J-50000D01*
G01*
X19800000Y24150000D01*
G75*
G02*
X19750000Y24100000I-50000J0D01*
G01*
X17250000Y24100000D01*
G75*
G02*
X17200000Y24150000I0J50000D01*
G01*
X17200000Y25650000D01*
G75*
G02*
X17250000Y25700000I50000J0D01*
G01*
G37*
G36*
G01*
X11700000Y40681250D02*
X11700000Y40118750D01*
G75*
G02*
X11456250Y39875000I-243750J0D01*
G01*
X10968750Y39875000D01*
G75*
G02*
X10725000Y40118750I0J243750D01*
G01*
X10725000Y40681250D01*
G75*
G02*
X10968750Y40925000I243750J0D01*
G01*
X11456250Y40925000D01*
G75*
G02*
X11700000Y40681250I0J-243750D01*
G01*
G37*
G36*
G01*
X13275000Y40681250D02*
X13275000Y40118750D01*
G75*
G02*
X13031250Y39875000I-243750J0D01*
G01*
X12543750Y39875000D01*
G75*
G02*
X12300000Y40118750I0J243750D01*
G01*
X12300000Y40681250D01*
G75*
G02*
X12543750Y40925000I243750J0D01*
G01*
X13031250Y40925000D01*
G75*
G02*
X13275000Y40681250I0J-243750D01*
G01*
G37*
G36*
G01*
X12300000Y38618750D02*
X12300000Y39181250D01*
G75*
G02*
X12543750Y39425000I243750J0D01*
G01*
X13031250Y39425000D01*
G75*
G02*
X13275000Y39181250I0J-243750D01*
G01*
X13275000Y38618750D01*
G75*
G02*
X13031250Y38375000I-243750J0D01*
G01*
X12543750Y38375000D01*
G75*
G02*
X12300000Y38618750I0J243750D01*
G01*
G37*
G36*
G01*
X10725000Y38618750D02*
X10725000Y39181250D01*
G75*
G02*
X10968750Y39425000I243750J0D01*
G01*
X11456250Y39425000D01*
G75*
G02*
X11700000Y39181250I0J-243750D01*
G01*
X11700000Y38618750D01*
G75*
G02*
X11456250Y38375000I-243750J0D01*
G01*
X10968750Y38375000D01*
G75*
G02*
X10725000Y38618750I0J243750D01*
G01*
G37*
D11*
X14500000Y9790000D03*
X14500000Y7250000D03*
G36*
G01*
X15400000Y5160000D02*
X15400000Y4260000D01*
G75*
G02*
X14950000Y3810000I-450000J0D01*
G01*
X14050000Y3810000D01*
G75*
G02*
X13600000Y4260000I0J450000D01*
G01*
X13600000Y5160000D01*
G75*
G02*
X14050000Y5610000I450000J0D01*
G01*
X14950000Y5610000D01*
G75*
G02*
X15400000Y5160000I0J-450000D01*
G01*
G37*
G36*
G01*
X44050000Y33093750D02*
X44050000Y33656250D01*
G75*
G02*
X44293750Y33900000I243750J0D01*
G01*
X44781250Y33900000D01*
G75*
G02*
X45025000Y33656250I0J-243750D01*
G01*
X45025000Y33093750D01*
G75*
G02*
X44781250Y32850000I-243750J0D01*
G01*
X44293750Y32850000D01*
G75*
G02*
X44050000Y33093750I0J243750D01*
G01*
G37*
G36*
G01*
X42475000Y33093750D02*
X42475000Y33656250D01*
G75*
G02*
X42718750Y33900000I243750J0D01*
G01*
X43206250Y33900000D01*
G75*
G02*
X43450000Y33656250I0J-243750D01*
G01*
X43450000Y33093750D01*
G75*
G02*
X43206250Y32850000I-243750J0D01*
G01*
X42718750Y32850000D01*
G75*
G02*
X42475000Y33093750I0J243750D01*
G01*
G37*
G36*
G01*
X16850000Y41700000D02*
X16850000Y42300000D01*
G75*
G02*
X17075000Y42525000I225000J0D01*
G01*
X17525000Y42525000D01*
G75*
G02*
X17750000Y42300000I0J-225000D01*
G01*
X17750000Y41700000D01*
G75*
G02*
X17525000Y41475000I-225000J0D01*
G01*
X17075000Y41475000D01*
G75*
G02*
X16850000Y41700000I0J225000D01*
G01*
G37*
G36*
G01*
X15200000Y41700000D02*
X15200000Y42300000D01*
G75*
G02*
X15425000Y42525000I225000J0D01*
G01*
X15875000Y42525000D01*
G75*
G02*
X16100000Y42300000I0J-225000D01*
G01*
X16100000Y41700000D01*
G75*
G02*
X15875000Y41475000I-225000J0D01*
G01*
X15425000Y41475000D01*
G75*
G02*
X15200000Y41700000I0J225000D01*
G01*
G37*
G36*
G01*
X16200000Y40800000D02*
X16200000Y40250000D01*
G75*
G02*
X15950000Y40000000I-250000J0D01*
G01*
X15450000Y40000000D01*
G75*
G02*
X15200000Y40250000I0J250000D01*
G01*
X15200000Y40800000D01*
G75*
G02*
X15450000Y41050000I250000J0D01*
G01*
X15950000Y41050000D01*
G75*
G02*
X16200000Y40800000I0J-250000D01*
G01*
G37*
G36*
G01*
X17750000Y40800000D02*
X17750000Y40250000D01*
G75*
G02*
X17500000Y40000000I-250000J0D01*
G01*
X17000000Y40000000D01*
G75*
G02*
X16750000Y40250000I0J250000D01*
G01*
X16750000Y40800000D01*
G75*
G02*
X17000000Y41050000I250000J0D01*
G01*
X17500000Y41050000D01*
G75*
G02*
X17750000Y40800000I0J-250000D01*
G01*
G37*
G36*
G01*
X27904163Y21964645D02*
X25535355Y19595837D01*
G75*
G02*
X25464645Y19595837I-35355J35355D01*
G01*
X23095837Y21964645D01*
G75*
G02*
X23095837Y22035355I35355J35355D01*
G01*
X25464645Y24404163D01*
G75*
G02*
X25535355Y24404163I35355J-35355D01*
G01*
X27904163Y22035355D01*
G75*
G02*
X27904163Y21964645I-35355J-35355D01*
G01*
G37*
G36*
G01*
X25208319Y19339510D02*
X24695667Y18826858D01*
G75*
G02*
X24571923Y18826858I-61872J61872D01*
G01*
X24448179Y18950602D01*
G75*
G02*
X24448179Y19074346I61872J61872D01*
G01*
X24960831Y19586998D01*
G75*
G02*
X25084575Y19586998I61872J-61872D01*
G01*
X25208319Y19463254D01*
G75*
G02*
X25208319Y19339510I-61872J-61872D01*
G01*
G37*
G36*
G01*
X24854765Y19693064D02*
X24342113Y19180412D01*
G75*
G02*
X24218369Y19180412I-61872J61872D01*
G01*
X24094625Y19304156D01*
G75*
G02*
X24094625Y19427900I61872J61872D01*
G01*
X24607277Y19940552D01*
G75*
G02*
X24731021Y19940552I61872J-61872D01*
G01*
X24854765Y19816808D01*
G75*
G02*
X24854765Y19693064I-61872J-61872D01*
G01*
G37*
G36*
G01*
X24501212Y20046617D02*
X23988560Y19533965D01*
G75*
G02*
X23864816Y19533965I-61872J61872D01*
G01*
X23741072Y19657709D01*
G75*
G02*
X23741072Y19781453I61872J61872D01*
G01*
X24253724Y20294105D01*
G75*
G02*
X24377468Y20294105I61872J-61872D01*
G01*
X24501212Y20170361D01*
G75*
G02*
X24501212Y20046617I-61872J-61872D01*
G01*
G37*
G36*
G01*
X24147658Y20400170D02*
X23635006Y19887518D01*
G75*
G02*
X23511262Y19887518I-61872J61872D01*
G01*
X23387518Y20011262D01*
G75*
G02*
X23387518Y20135006I61872J61872D01*
G01*
X23900170Y20647658D01*
G75*
G02*
X24023914Y20647658I61872J-61872D01*
G01*
X24147658Y20523914D01*
G75*
G02*
X24147658Y20400170I-61872J-61872D01*
G01*
G37*
G36*
G01*
X23794105Y20753724D02*
X23281453Y20241072D01*
G75*
G02*
X23157709Y20241072I-61872J61872D01*
G01*
X23033965Y20364816D01*
G75*
G02*
X23033965Y20488560I61872J61872D01*
G01*
X23546617Y21001212D01*
G75*
G02*
X23670361Y21001212I61872J-61872D01*
G01*
X23794105Y20877468D01*
G75*
G02*
X23794105Y20753724I-61872J-61872D01*
G01*
G37*
G36*
G01*
X23440552Y21107277D02*
X22927900Y20594625D01*
G75*
G02*
X22804156Y20594625I-61872J61872D01*
G01*
X22680412Y20718369D01*
G75*
G02*
X22680412Y20842113I61872J61872D01*
G01*
X23193064Y21354765D01*
G75*
G02*
X23316808Y21354765I61872J-61872D01*
G01*
X23440552Y21231021D01*
G75*
G02*
X23440552Y21107277I-61872J-61872D01*
G01*
G37*
G36*
G01*
X23086998Y21460831D02*
X22574346Y20948179D01*
G75*
G02*
X22450602Y20948179I-61872J61872D01*
G01*
X22326858Y21071923D01*
G75*
G02*
X22326858Y21195667I61872J61872D01*
G01*
X22839510Y21708319D01*
G75*
G02*
X22963254Y21708319I61872J-61872D01*
G01*
X23086998Y21584575D01*
G75*
G02*
X23086998Y21460831I-61872J-61872D01*
G01*
G37*
G36*
G01*
X23086998Y22415425D02*
X22963254Y22291681D01*
G75*
G02*
X22839510Y22291681I-61872J61872D01*
G01*
X22326858Y22804333D01*
G75*
G02*
X22326858Y22928077I61872J61872D01*
G01*
X22450602Y23051821D01*
G75*
G02*
X22574346Y23051821I61872J-61872D01*
G01*
X23086998Y22539169D01*
G75*
G02*
X23086998Y22415425I-61872J-61872D01*
G01*
G37*
G36*
G01*
X23440552Y22768979D02*
X23316808Y22645235D01*
G75*
G02*
X23193064Y22645235I-61872J61872D01*
G01*
X22680412Y23157887D01*
G75*
G02*
X22680412Y23281631I61872J61872D01*
G01*
X22804156Y23405375D01*
G75*
G02*
X22927900Y23405375I61872J-61872D01*
G01*
X23440552Y22892723D01*
G75*
G02*
X23440552Y22768979I-61872J-61872D01*
G01*
G37*
G36*
G01*
X23794105Y23122532D02*
X23670361Y22998788D01*
G75*
G02*
X23546617Y22998788I-61872J61872D01*
G01*
X23033965Y23511440D01*
G75*
G02*
X23033965Y23635184I61872J61872D01*
G01*
X23157709Y23758928D01*
G75*
G02*
X23281453Y23758928I61872J-61872D01*
G01*
X23794105Y23246276D01*
G75*
G02*
X23794105Y23122532I-61872J-61872D01*
G01*
G37*
G36*
G01*
X24147658Y23476086D02*
X24023914Y23352342D01*
G75*
G02*
X23900170Y23352342I-61872J61872D01*
G01*
X23387518Y23864994D01*
G75*
G02*
X23387518Y23988738I61872J61872D01*
G01*
X23511262Y24112482D01*
G75*
G02*
X23635006Y24112482I61872J-61872D01*
G01*
X24147658Y23599830D01*
G75*
G02*
X24147658Y23476086I-61872J-61872D01*
G01*
G37*
G36*
G01*
X24501212Y23829639D02*
X24377468Y23705895D01*
G75*
G02*
X24253724Y23705895I-61872J61872D01*
G01*
X23741072Y24218547D01*
G75*
G02*
X23741072Y24342291I61872J61872D01*
G01*
X23864816Y24466035D01*
G75*
G02*
X23988560Y24466035I61872J-61872D01*
G01*
X24501212Y23953383D01*
G75*
G02*
X24501212Y23829639I-61872J-61872D01*
G01*
G37*
G36*
G01*
X24854765Y24183192D02*
X24731021Y24059448D01*
G75*
G02*
X24607277Y24059448I-61872J61872D01*
G01*
X24094625Y24572100D01*
G75*
G02*
X24094625Y24695844I61872J61872D01*
G01*
X24218369Y24819588D01*
G75*
G02*
X24342113Y24819588I61872J-61872D01*
G01*
X24854765Y24306936D01*
G75*
G02*
X24854765Y24183192I-61872J-61872D01*
G01*
G37*
G36*
G01*
X25208319Y24536746D02*
X25084575Y24413002D01*
G75*
G02*
X24960831Y24413002I-61872J61872D01*
G01*
X24448179Y24925654D01*
G75*
G02*
X24448179Y25049398I61872J61872D01*
G01*
X24571923Y25173142D01*
G75*
G02*
X24695667Y25173142I61872J-61872D01*
G01*
X25208319Y24660490D01*
G75*
G02*
X25208319Y24536746I-61872J-61872D01*
G01*
G37*
G36*
G01*
X26551821Y24925654D02*
X26039169Y24413002D01*
G75*
G02*
X25915425Y24413002I-61872J61872D01*
G01*
X25791681Y24536746D01*
G75*
G02*
X25791681Y24660490I61872J61872D01*
G01*
X26304333Y25173142D01*
G75*
G02*
X26428077Y25173142I61872J-61872D01*
G01*
X26551821Y25049398D01*
G75*
G02*
X26551821Y24925654I-61872J-61872D01*
G01*
G37*
G36*
G01*
X26905375Y24572100D02*
X26392723Y24059448D01*
G75*
G02*
X26268979Y24059448I-61872J61872D01*
G01*
X26145235Y24183192D01*
G75*
G02*
X26145235Y24306936I61872J61872D01*
G01*
X26657887Y24819588D01*
G75*
G02*
X26781631Y24819588I61872J-61872D01*
G01*
X26905375Y24695844D01*
G75*
G02*
X26905375Y24572100I-61872J-61872D01*
G01*
G37*
G36*
G01*
X27258928Y24218547D02*
X26746276Y23705895D01*
G75*
G02*
X26622532Y23705895I-61872J61872D01*
G01*
X26498788Y23829639D01*
G75*
G02*
X26498788Y23953383I61872J61872D01*
G01*
X27011440Y24466035D01*
G75*
G02*
X27135184Y24466035I61872J-61872D01*
G01*
X27258928Y24342291D01*
G75*
G02*
X27258928Y24218547I-61872J-61872D01*
G01*
G37*
G36*
G01*
X27612482Y23864994D02*
X27099830Y23352342D01*
G75*
G02*
X26976086Y23352342I-61872J61872D01*
G01*
X26852342Y23476086D01*
G75*
G02*
X26852342Y23599830I61872J61872D01*
G01*
X27364994Y24112482D01*
G75*
G02*
X27488738Y24112482I61872J-61872D01*
G01*
X27612482Y23988738D01*
G75*
G02*
X27612482Y23864994I-61872J-61872D01*
G01*
G37*
G36*
G01*
X27966035Y23511440D02*
X27453383Y22998788D01*
G75*
G02*
X27329639Y22998788I-61872J61872D01*
G01*
X27205895Y23122532D01*
G75*
G02*
X27205895Y23246276I61872J61872D01*
G01*
X27718547Y23758928D01*
G75*
G02*
X27842291Y23758928I61872J-61872D01*
G01*
X27966035Y23635184D01*
G75*
G02*
X27966035Y23511440I-61872J-61872D01*
G01*
G37*
G36*
G01*
X28319588Y23157887D02*
X27806936Y22645235D01*
G75*
G02*
X27683192Y22645235I-61872J61872D01*
G01*
X27559448Y22768979D01*
G75*
G02*
X27559448Y22892723I61872J61872D01*
G01*
X28072100Y23405375D01*
G75*
G02*
X28195844Y23405375I61872J-61872D01*
G01*
X28319588Y23281631D01*
G75*
G02*
X28319588Y23157887I-61872J-61872D01*
G01*
G37*
G36*
G01*
X28673142Y22804333D02*
X28160490Y22291681D01*
G75*
G02*
X28036746Y22291681I-61872J61872D01*
G01*
X27913002Y22415425D01*
G75*
G02*
X27913002Y22539169I61872J61872D01*
G01*
X28425654Y23051821D01*
G75*
G02*
X28549398Y23051821I61872J-61872D01*
G01*
X28673142Y22928077D01*
G75*
G02*
X28673142Y22804333I-61872J-61872D01*
G01*
G37*
G36*
G01*
X28673142Y21071923D02*
X28549398Y20948179D01*
G75*
G02*
X28425654Y20948179I-61872J61872D01*
G01*
X27913002Y21460831D01*
G75*
G02*
X27913002Y21584575I61872J61872D01*
G01*
X28036746Y21708319D01*
G75*
G02*
X28160490Y21708319I61872J-61872D01*
G01*
X28673142Y21195667D01*
G75*
G02*
X28673142Y21071923I-61872J-61872D01*
G01*
G37*
G36*
G01*
X28319588Y20718369D02*
X28195844Y20594625D01*
G75*
G02*
X28072100Y20594625I-61872J61872D01*
G01*
X27559448Y21107277D01*
G75*
G02*
X27559448Y21231021I61872J61872D01*
G01*
X27683192Y21354765D01*
G75*
G02*
X27806936Y21354765I61872J-61872D01*
G01*
X28319588Y20842113D01*
G75*
G02*
X28319588Y20718369I-61872J-61872D01*
G01*
G37*
G36*
G01*
X27966035Y20364816D02*
X27842291Y20241072D01*
G75*
G02*
X27718547Y20241072I-61872J61872D01*
G01*
X27205895Y20753724D01*
G75*
G02*
X27205895Y20877468I61872J61872D01*
G01*
X27329639Y21001212D01*
G75*
G02*
X27453383Y21001212I61872J-61872D01*
G01*
X27966035Y20488560D01*
G75*
G02*
X27966035Y20364816I-61872J-61872D01*
G01*
G37*
G36*
G01*
X27612482Y20011262D02*
X27488738Y19887518D01*
G75*
G02*
X27364994Y19887518I-61872J61872D01*
G01*
X26852342Y20400170D01*
G75*
G02*
X26852342Y20523914I61872J61872D01*
G01*
X26976086Y20647658D01*
G75*
G02*
X27099830Y20647658I61872J-61872D01*
G01*
X27612482Y20135006D01*
G75*
G02*
X27612482Y20011262I-61872J-61872D01*
G01*
G37*
G36*
G01*
X27258928Y19657709D02*
X27135184Y19533965D01*
G75*
G02*
X27011440Y19533965I-61872J61872D01*
G01*
X26498788Y20046617D01*
G75*
G02*
X26498788Y20170361I61872J61872D01*
G01*
X26622532Y20294105D01*
G75*
G02*
X26746276Y20294105I61872J-61872D01*
G01*
X27258928Y19781453D01*
G75*
G02*
X27258928Y19657709I-61872J-61872D01*
G01*
G37*
G36*
G01*
X26905375Y19304156D02*
X26781631Y19180412D01*
G75*
G02*
X26657887Y19180412I-61872J61872D01*
G01*
X26145235Y19693064D01*
G75*
G02*
X26145235Y19816808I61872J61872D01*
G01*
X26268979Y19940552D01*
G75*
G02*
X26392723Y19940552I61872J-61872D01*
G01*
X26905375Y19427900D01*
G75*
G02*
X26905375Y19304156I-61872J-61872D01*
G01*
G37*
G36*
G01*
X26551821Y18950602D02*
X26428077Y18826858D01*
G75*
G02*
X26304333Y18826858I-61872J61872D01*
G01*
X25791681Y19339510D01*
G75*
G02*
X25791681Y19463254I61872J61872D01*
G01*
X25915425Y19586998D01*
G75*
G02*
X26039169Y19586998I61872J-61872D01*
G01*
X26551821Y19074346D01*
G75*
G02*
X26551821Y18950602I-61872J-61872D01*
G01*
G37*
G36*
G01*
X41525000Y27275000D02*
X40975000Y27275000D01*
G75*
G02*
X40725000Y27525000I0J250000D01*
G01*
X40725000Y28025000D01*
G75*
G02*
X40975000Y28275000I250000J0D01*
G01*
X41525000Y28275000D01*
G75*
G02*
X41775000Y28025000I0J-250000D01*
G01*
X41775000Y27525000D01*
G75*
G02*
X41525000Y27275000I-250000J0D01*
G01*
G37*
G36*
G01*
X41525000Y25725000D02*
X40975000Y25725000D01*
G75*
G02*
X40725000Y25975000I0J250000D01*
G01*
X40725000Y26475000D01*
G75*
G02*
X40975000Y26725000I250000J0D01*
G01*
X41525000Y26725000D01*
G75*
G02*
X41775000Y26475000I0J-250000D01*
G01*
X41775000Y25975000D01*
G75*
G02*
X41525000Y25725000I-250000J0D01*
G01*
G37*
G36*
G01*
X11760000Y21390000D02*
X13440000Y21390000D01*
G75*
G02*
X13490000Y21340000I0J-50000D01*
G01*
X13490000Y19660000D01*
G75*
G02*
X13440000Y19610000I-50000J0D01*
G01*
X11760000Y19610000D01*
G75*
G02*
X11710000Y19660000I0J50000D01*
G01*
X11710000Y21340000D01*
G75*
G02*
X11760000Y21390000I50000J0D01*
G01*
G37*
G36*
G01*
X13687500Y21425000D02*
X14437500Y21425000D01*
G75*
G02*
X14525000Y21337500I0J-87500D01*
G01*
X14525000Y21162500D01*
G75*
G02*
X14437500Y21075000I-87500J0D01*
G01*
X13687500Y21075000D01*
G75*
G02*
X13600000Y21162500I0J87500D01*
G01*
X13600000Y21337500D01*
G75*
G02*
X13687500Y21425000I87500J0D01*
G01*
G37*
G36*
G01*
X13687500Y20925000D02*
X14437500Y20925000D01*
G75*
G02*
X14525000Y20837500I0J-87500D01*
G01*
X14525000Y20662500D01*
G75*
G02*
X14437500Y20575000I-87500J0D01*
G01*
X13687500Y20575000D01*
G75*
G02*
X13600000Y20662500I0J87500D01*
G01*
X13600000Y20837500D01*
G75*
G02*
X13687500Y20925000I87500J0D01*
G01*
G37*
G36*
G01*
X13687500Y20425000D02*
X14437500Y20425000D01*
G75*
G02*
X14525000Y20337500I0J-87500D01*
G01*
X14525000Y20162500D01*
G75*
G02*
X14437500Y20075000I-87500J0D01*
G01*
X13687500Y20075000D01*
G75*
G02*
X13600000Y20162500I0J87500D01*
G01*
X13600000Y20337500D01*
G75*
G02*
X13687500Y20425000I87500J0D01*
G01*
G37*
G36*
G01*
X13687500Y19925000D02*
X14437500Y19925000D01*
G75*
G02*
X14525000Y19837500I0J-87500D01*
G01*
X14525000Y19662500D01*
G75*
G02*
X14437500Y19575000I-87500J0D01*
G01*
X13687500Y19575000D01*
G75*
G02*
X13600000Y19662500I0J87500D01*
G01*
X13600000Y19837500D01*
G75*
G02*
X13687500Y19925000I87500J0D01*
G01*
G37*
G36*
G01*
X13262500Y19500000D02*
X13437500Y19500000D01*
G75*
G02*
X13525000Y19412500I0J-87500D01*
G01*
X13525000Y18662500D01*
G75*
G02*
X13437500Y18575000I-87500J0D01*
G01*
X13262500Y18575000D01*
G75*
G02*
X13175000Y18662500I0J87500D01*
G01*
X13175000Y19412500D01*
G75*
G02*
X13262500Y19500000I87500J0D01*
G01*
G37*
G36*
G01*
X12762500Y19500000D02*
X12937500Y19500000D01*
G75*
G02*
X13025000Y19412500I0J-87500D01*
G01*
X13025000Y18662500D01*
G75*
G02*
X12937500Y18575000I-87500J0D01*
G01*
X12762500Y18575000D01*
G75*
G02*
X12675000Y18662500I0J87500D01*
G01*
X12675000Y19412500D01*
G75*
G02*
X12762500Y19500000I87500J0D01*
G01*
G37*
G36*
G01*
X12262500Y19500000D02*
X12437500Y19500000D01*
G75*
G02*
X12525000Y19412500I0J-87500D01*
G01*
X12525000Y18662500D01*
G75*
G02*
X12437500Y18575000I-87500J0D01*
G01*
X12262500Y18575000D01*
G75*
G02*
X12175000Y18662500I0J87500D01*
G01*
X12175000Y19412500D01*
G75*
G02*
X12262500Y19500000I87500J0D01*
G01*
G37*
G36*
G01*
X11762500Y19500000D02*
X11937500Y19500000D01*
G75*
G02*
X12025000Y19412500I0J-87500D01*
G01*
X12025000Y18662500D01*
G75*
G02*
X11937500Y18575000I-87500J0D01*
G01*
X11762500Y18575000D01*
G75*
G02*
X11675000Y18662500I0J87500D01*
G01*
X11675000Y19412500D01*
G75*
G02*
X11762500Y19500000I87500J0D01*
G01*
G37*
G36*
G01*
X10762500Y19925000D02*
X11512500Y19925000D01*
G75*
G02*
X11600000Y19837500I0J-87500D01*
G01*
X11600000Y19662500D01*
G75*
G02*
X11512500Y19575000I-87500J0D01*
G01*
X10762500Y19575000D01*
G75*
G02*
X10675000Y19662500I0J87500D01*
G01*
X10675000Y19837500D01*
G75*
G02*
X10762500Y19925000I87500J0D01*
G01*
G37*
G36*
G01*
X10762500Y20425000D02*
X11512500Y20425000D01*
G75*
G02*
X11600000Y20337500I0J-87500D01*
G01*
X11600000Y20162500D01*
G75*
G02*
X11512500Y20075000I-87500J0D01*
G01*
X10762500Y20075000D01*
G75*
G02*
X10675000Y20162500I0J87500D01*
G01*
X10675000Y20337500D01*
G75*
G02*
X10762500Y20425000I87500J0D01*
G01*
G37*
G36*
G01*
X10762500Y20925000D02*
X11512500Y20925000D01*
G75*
G02*
X11600000Y20837500I0J-87500D01*
G01*
X11600000Y20662500D01*
G75*
G02*
X11512500Y20575000I-87500J0D01*
G01*
X10762500Y20575000D01*
G75*
G02*
X10675000Y20662500I0J87500D01*
G01*
X10675000Y20837500D01*
G75*
G02*
X10762500Y20925000I87500J0D01*
G01*
G37*
G36*
G01*
X10762500Y21425000D02*
X11512500Y21425000D01*
G75*
G02*
X11600000Y21337500I0J-87500D01*
G01*
X11600000Y21162500D01*
G75*
G02*
X11512500Y21075000I-87500J0D01*
G01*
X10762500Y21075000D01*
G75*
G02*
X10675000Y21162500I0J87500D01*
G01*
X10675000Y21337500D01*
G75*
G02*
X10762500Y21425000I87500J0D01*
G01*
G37*
G36*
G01*
X11762500Y22425000D02*
X11937500Y22425000D01*
G75*
G02*
X12025000Y22337500I0J-87500D01*
G01*
X12025000Y21587500D01*
G75*
G02*
X11937500Y21500000I-87500J0D01*
G01*
X11762500Y21500000D01*
G75*
G02*
X11675000Y21587500I0J87500D01*
G01*
X11675000Y22337500D01*
G75*
G02*
X11762500Y22425000I87500J0D01*
G01*
G37*
G36*
G01*
X12262500Y22425000D02*
X12437500Y22425000D01*
G75*
G02*
X12525000Y22337500I0J-87500D01*
G01*
X12525000Y21587500D01*
G75*
G02*
X12437500Y21500000I-87500J0D01*
G01*
X12262500Y21500000D01*
G75*
G02*
X12175000Y21587500I0J87500D01*
G01*
X12175000Y22337500D01*
G75*
G02*
X12262500Y22425000I87500J0D01*
G01*
G37*
G36*
G01*
X12762500Y22425000D02*
X12937500Y22425000D01*
G75*
G02*
X13025000Y22337500I0J-87500D01*
G01*
X13025000Y21587500D01*
G75*
G02*
X12937500Y21500000I-87500J0D01*
G01*
X12762500Y21500000D01*
G75*
G02*
X12675000Y21587500I0J87500D01*
G01*
X12675000Y22337500D01*
G75*
G02*
X12762500Y22425000I87500J0D01*
G01*
G37*
G36*
G01*
X13262500Y22425000D02*
X13437500Y22425000D01*
G75*
G02*
X13525000Y22337500I0J-87500D01*
G01*
X13525000Y21587500D01*
G75*
G02*
X13437500Y21500000I-87500J0D01*
G01*
X13262500Y21500000D01*
G75*
G02*
X13175000Y21587500I0J87500D01*
G01*
X13175000Y22337500D01*
G75*
G02*
X13262500Y22425000I87500J0D01*
G01*
G37*
D12*
X5750000Y30580000D03*
D11*
X8290000Y30580000D03*
X5750000Y28040000D03*
X8290000Y28040000D03*
X5750000Y25500000D03*
X8290000Y25500000D03*
X5750000Y22960000D03*
X8290000Y22960000D03*
D12*
X5750000Y20420000D03*
G36*
G01*
X7390000Y19970000D02*
X7390000Y20870000D01*
G75*
G02*
X7840000Y21320000I450000J0D01*
G01*
X8740000Y21320000D01*
G75*
G02*
X9190000Y20870000I0J-450000D01*
G01*
X9190000Y19970000D01*
G75*
G02*
X8740000Y19520000I-450000J0D01*
G01*
X7840000Y19520000D01*
G75*
G02*
X7390000Y19970000I0J450000D01*
G01*
G37*
G36*
G01*
X39881250Y42250000D02*
X39318750Y42250000D01*
G75*
G02*
X39075000Y42493750I0J243750D01*
G01*
X39075000Y42981250D01*
G75*
G02*
X39318750Y43225000I243750J0D01*
G01*
X39881250Y43225000D01*
G75*
G02*
X40125000Y42981250I0J-243750D01*
G01*
X40125000Y42493750D01*
G75*
G02*
X39881250Y42250000I-243750J0D01*
G01*
G37*
G36*
G01*
X39881250Y40675000D02*
X39318750Y40675000D01*
G75*
G02*
X39075000Y40918750I0J243750D01*
G01*
X39075000Y41406250D01*
G75*
G02*
X39318750Y41650000I243750J0D01*
G01*
X39881250Y41650000D01*
G75*
G02*
X40125000Y41406250I0J-243750D01*
G01*
X40125000Y40918750D01*
G75*
G02*
X39881250Y40675000I-243750J0D01*
G01*
G37*
G36*
G01*
X38381250Y42250000D02*
X37818750Y42250000D01*
G75*
G02*
X37575000Y42493750I0J243750D01*
G01*
X37575000Y42981250D01*
G75*
G02*
X37818750Y43225000I243750J0D01*
G01*
X38381250Y43225000D01*
G75*
G02*
X38625000Y42981250I0J-243750D01*
G01*
X38625000Y42493750D01*
G75*
G02*
X38381250Y42250000I-243750J0D01*
G01*
G37*
G36*
G01*
X38381250Y40675000D02*
X37818750Y40675000D01*
G75*
G02*
X37575000Y40918750I0J243750D01*
G01*
X37575000Y41406250D01*
G75*
G02*
X37818750Y41650000I243750J0D01*
G01*
X38381250Y41650000D01*
G75*
G02*
X38625000Y41406250I0J-243750D01*
G01*
X38625000Y40918750D01*
G75*
G02*
X38381250Y40675000I-243750J0D01*
G01*
G37*
G36*
G01*
X36881250Y42250000D02*
X36318750Y42250000D01*
G75*
G02*
X36075000Y42493750I0J243750D01*
G01*
X36075000Y42981250D01*
G75*
G02*
X36318750Y43225000I243750J0D01*
G01*
X36881250Y43225000D01*
G75*
G02*
X37125000Y42981250I0J-243750D01*
G01*
X37125000Y42493750D01*
G75*
G02*
X36881250Y42250000I-243750J0D01*
G01*
G37*
G36*
G01*
X36881250Y40675000D02*
X36318750Y40675000D01*
G75*
G02*
X36075000Y40918750I0J243750D01*
G01*
X36075000Y41406250D01*
G75*
G02*
X36318750Y41650000I243750J0D01*
G01*
X36881250Y41650000D01*
G75*
G02*
X37125000Y41406250I0J-243750D01*
G01*
X37125000Y40918750D01*
G75*
G02*
X36881250Y40675000I-243750J0D01*
G01*
G37*
G36*
G01*
X28486741Y24911007D02*
X28088993Y24513259D01*
G75*
G02*
X27744279Y24513259I-172357J172357D01*
G01*
X27399565Y24857973D01*
G75*
G02*
X27399565Y25202687I172357J172357D01*
G01*
X27797313Y25600435D01*
G75*
G02*
X28142027Y25600435I172357J-172357D01*
G01*
X28486741Y25255721D01*
G75*
G02*
X28486741Y24911007I-172357J-172357D01*
G01*
G37*
G36*
G01*
X29600435Y23797313D02*
X29202687Y23399565D01*
G75*
G02*
X28857973Y23399565I-172357J172357D01*
G01*
X28513259Y23744279D01*
G75*
G02*
X28513259Y24088993I172357J172357D01*
G01*
X28911007Y24486741D01*
G75*
G02*
X29255721Y24486741I172357J-172357D01*
G01*
X29600435Y24142027D01*
G75*
G02*
X29600435Y23797313I-172357J-172357D01*
G01*
G37*
G36*
G01*
X35950000Y13825000D02*
X36350000Y13825000D01*
G75*
G02*
X36400000Y13775000I0J-50000D01*
G01*
X36400000Y13125000D01*
G75*
G02*
X36350000Y13075000I-50000J0D01*
G01*
X35950000Y13075000D01*
G75*
G02*
X35900000Y13125000I0J50000D01*
G01*
X35900000Y13775000D01*
G75*
G02*
X35950000Y13825000I50000J0D01*
G01*
G37*
G36*
G01*
X34650000Y13825000D02*
X35050000Y13825000D01*
G75*
G02*
X35100000Y13775000I0J-50000D01*
G01*
X35100000Y13125000D01*
G75*
G02*
X35050000Y13075000I-50000J0D01*
G01*
X34650000Y13075000D01*
G75*
G02*
X34600000Y13125000I0J50000D01*
G01*
X34600000Y13775000D01*
G75*
G02*
X34650000Y13825000I50000J0D01*
G01*
G37*
G36*
G01*
X35300000Y11925000D02*
X35700000Y11925000D01*
G75*
G02*
X35750000Y11875000I0J-50000D01*
G01*
X35750000Y11225000D01*
G75*
G02*
X35700000Y11175000I-50000J0D01*
G01*
X35300000Y11175000D01*
G75*
G02*
X35250000Y11225000I0J50000D01*
G01*
X35250000Y11875000D01*
G75*
G02*
X35300000Y11925000I50000J0D01*
G01*
G37*
G36*
G01*
X35300000Y13825000D02*
X35700000Y13825000D01*
G75*
G02*
X35750000Y13775000I0J-50000D01*
G01*
X35750000Y13125000D01*
G75*
G02*
X35700000Y13075000I-50000J0D01*
G01*
X35300000Y13075000D01*
G75*
G02*
X35250000Y13125000I0J50000D01*
G01*
X35250000Y13775000D01*
G75*
G02*
X35300000Y13825000I50000J0D01*
G01*
G37*
G36*
G01*
X34650000Y11925000D02*
X35050000Y11925000D01*
G75*
G02*
X35100000Y11875000I0J-50000D01*
G01*
X35100000Y11225000D01*
G75*
G02*
X35050000Y11175000I-50000J0D01*
G01*
X34650000Y11175000D01*
G75*
G02*
X34600000Y11225000I0J50000D01*
G01*
X34600000Y11875000D01*
G75*
G02*
X34650000Y11925000I50000J0D01*
G01*
G37*
G36*
G01*
X35950000Y11925000D02*
X36350000Y11925000D01*
G75*
G02*
X36400000Y11875000I0J-50000D01*
G01*
X36400000Y11225000D01*
G75*
G02*
X36350000Y11175000I-50000J0D01*
G01*
X35950000Y11175000D01*
G75*
G02*
X35900000Y11225000I0J50000D01*
G01*
X35900000Y11875000D01*
G75*
G02*
X35950000Y11925000I50000J0D01*
G01*
G37*
G36*
G01*
X32600000Y9500000D02*
X32600000Y10150000D01*
G75*
G02*
X32650000Y10200000I50000J0D01*
G01*
X33700000Y10200000D01*
G75*
G02*
X33750000Y10150000I0J-50000D01*
G01*
X33750000Y9500000D01*
G75*
G02*
X33700000Y9450000I-50000J0D01*
G01*
X32650000Y9450000D01*
G75*
G02*
X32600000Y9500000I0J50000D01*
G01*
G37*
G36*
G01*
X36750000Y9500000D02*
X36750000Y10150000D01*
G75*
G02*
X36800000Y10200000I50000J0D01*
G01*
X37850000Y10200000D01*
G75*
G02*
X37900000Y10150000I0J-50000D01*
G01*
X37900000Y9500000D01*
G75*
G02*
X37850000Y9450000I-50000J0D01*
G01*
X36800000Y9450000D01*
G75*
G02*
X36750000Y9500000I0J50000D01*
G01*
G37*
G36*
G01*
X32600000Y7350000D02*
X32600000Y8000000D01*
G75*
G02*
X32650000Y8050000I50000J0D01*
G01*
X33700000Y8050000D01*
G75*
G02*
X33750000Y8000000I0J-50000D01*
G01*
X33750000Y7350000D01*
G75*
G02*
X33700000Y7300000I-50000J0D01*
G01*
X32650000Y7300000D01*
G75*
G02*
X32600000Y7350000I0J50000D01*
G01*
G37*
G36*
G01*
X36750000Y7350000D02*
X36750000Y8000000D01*
G75*
G02*
X36800000Y8050000I50000J0D01*
G01*
X37850000Y8050000D01*
G75*
G02*
X37900000Y8000000I0J-50000D01*
G01*
X37900000Y7350000D01*
G75*
G02*
X37850000Y7300000I-50000J0D01*
G01*
X36800000Y7300000D01*
G75*
G02*
X36750000Y7350000I0J50000D01*
G01*
G37*
G36*
G01*
X36750000Y3350000D02*
X36750000Y4000000D01*
G75*
G02*
X36800000Y4050000I50000J0D01*
G01*
X37850000Y4050000D01*
G75*
G02*
X37900000Y4000000I0J-50000D01*
G01*
X37900000Y3350000D01*
G75*
G02*
X37850000Y3300000I-50000J0D01*
G01*
X36800000Y3300000D01*
G75*
G02*
X36750000Y3350000I0J50000D01*
G01*
G37*
G36*
G01*
X32600000Y3350000D02*
X32600000Y4000000D01*
G75*
G02*
X32650000Y4050000I50000J0D01*
G01*
X33700000Y4050000D01*
G75*
G02*
X33750000Y4000000I0J-50000D01*
G01*
X33750000Y3350000D01*
G75*
G02*
X33700000Y3300000I-50000J0D01*
G01*
X32650000Y3300000D01*
G75*
G02*
X32600000Y3350000I0J50000D01*
G01*
G37*
G36*
G01*
X36750000Y5500000D02*
X36750000Y6150000D01*
G75*
G02*
X36800000Y6200000I50000J0D01*
G01*
X37850000Y6200000D01*
G75*
G02*
X37900000Y6150000I0J-50000D01*
G01*
X37900000Y5500000D01*
G75*
G02*
X37850000Y5450000I-50000J0D01*
G01*
X36800000Y5450000D01*
G75*
G02*
X36750000Y5500000I0J50000D01*
G01*
G37*
G36*
G01*
X32600000Y5500000D02*
X32600000Y6150000D01*
G75*
G02*
X32650000Y6200000I50000J0D01*
G01*
X33700000Y6200000D01*
G75*
G02*
X33750000Y6150000I0J-50000D01*
G01*
X33750000Y5500000D01*
G75*
G02*
X33700000Y5450000I-50000J0D01*
G01*
X32650000Y5450000D01*
G75*
G02*
X32600000Y5500000I0J50000D01*
G01*
G37*
G36*
G01*
X30900000Y22311091D02*
X31288909Y22700000D01*
G75*
G02*
X31642463Y22700000I176777J-176777D01*
G01*
X31996016Y22346447D01*
G75*
G02*
X31996016Y21992893I-176777J-176777D01*
G01*
X31607107Y21603984D01*
G75*
G02*
X31253553Y21603984I-176777J176777D01*
G01*
X30900000Y21957537D01*
G75*
G02*
X30900000Y22311091I176777J176777D01*
G01*
G37*
G36*
G01*
X29803984Y23407107D02*
X30192893Y23796016D01*
G75*
G02*
X30546447Y23796016I176777J-176777D01*
G01*
X30900000Y23442463D01*
G75*
G02*
X30900000Y23088909I-176777J-176777D01*
G01*
X30511091Y22700000D01*
G75*
G02*
X30157537Y22700000I-176777J176777D01*
G01*
X29803984Y23053553D01*
G75*
G02*
X29803984Y23407107I176777J176777D01*
G01*
G37*
D13*
X32500000Y29925000D03*
X29975000Y29925000D03*
X32600000Y12500000D03*
X38400000Y12500000D03*
X17800000Y8450000D03*
X7000000Y14550000D03*
G36*
G01*
X12175000Y44750000D02*
X12175000Y45350000D01*
G75*
G02*
X12400000Y45575000I225000J0D01*
G01*
X12850000Y45575000D01*
G75*
G02*
X13075000Y45350000I0J-225000D01*
G01*
X13075000Y44750000D01*
G75*
G02*
X12850000Y44525000I-225000J0D01*
G01*
X12400000Y44525000D01*
G75*
G02*
X12175000Y44750000I0J225000D01*
G01*
G37*
G36*
G01*
X10525000Y44750000D02*
X10525000Y45350000D01*
G75*
G02*
X10750000Y45575000I225000J0D01*
G01*
X11200000Y45575000D01*
G75*
G02*
X11425000Y45350000I0J-225000D01*
G01*
X11425000Y44750000D01*
G75*
G02*
X11200000Y44525000I-225000J0D01*
G01*
X10750000Y44525000D01*
G75*
G02*
X10525000Y44750000I0J225000D01*
G01*
G37*
G36*
G01*
X7125000Y11850000D02*
X7125000Y11250000D01*
G75*
G02*
X6900000Y11025000I-225000J0D01*
G01*
X6450000Y11025000D01*
G75*
G02*
X6225000Y11250000I0J225000D01*
G01*
X6225000Y11850000D01*
G75*
G02*
X6450000Y12075000I225000J0D01*
G01*
X6900000Y12075000D01*
G75*
G02*
X7125000Y11850000I0J-225000D01*
G01*
G37*
G36*
G01*
X8775000Y11850000D02*
X8775000Y11250000D01*
G75*
G02*
X8550000Y11025000I-225000J0D01*
G01*
X8100000Y11025000D01*
G75*
G02*
X7875000Y11250000I0J225000D01*
G01*
X7875000Y11850000D01*
G75*
G02*
X8100000Y12075000I225000J0D01*
G01*
X8550000Y12075000D01*
G75*
G02*
X8775000Y11850000I0J-225000D01*
G01*
G37*
G36*
G01*
X10500000Y10900000D02*
X11300000Y10900000D01*
G75*
G02*
X11350000Y10850000I0J-50000D01*
G01*
X11350000Y9950000D01*
G75*
G02*
X11300000Y9900000I-50000J0D01*
G01*
X10500000Y9900000D01*
G75*
G02*
X10450000Y9950000I0J50000D01*
G01*
X10450000Y10850000D01*
G75*
G02*
X10500000Y10900000I50000J0D01*
G01*
G37*
G36*
G01*
X9550000Y12900000D02*
X10350000Y12900000D01*
G75*
G02*
X10400000Y12850000I0J-50000D01*
G01*
X10400000Y11950000D01*
G75*
G02*
X10350000Y11900000I-50000J0D01*
G01*
X9550000Y11900000D01*
G75*
G02*
X9500000Y11950000I0J50000D01*
G01*
X9500000Y12850000D01*
G75*
G02*
X9550000Y12900000I50000J0D01*
G01*
G37*
G36*
G01*
X11450000Y12900000D02*
X12250000Y12900000D01*
G75*
G02*
X12300000Y12850000I0J-50000D01*
G01*
X12300000Y11950000D01*
G75*
G02*
X12250000Y11900000I-50000J0D01*
G01*
X11450000Y11900000D01*
G75*
G02*
X11400000Y11950000I0J50000D01*
G01*
X11400000Y12850000D01*
G75*
G02*
X11450000Y12900000I50000J0D01*
G01*
G37*
G36*
G01*
X11500000Y46831250D02*
X11500000Y46268750D01*
G75*
G02*
X11256250Y46025000I-243750J0D01*
G01*
X10768750Y46025000D01*
G75*
G02*
X10525000Y46268750I0J243750D01*
G01*
X10525000Y46831250D01*
G75*
G02*
X10768750Y47075000I243750J0D01*
G01*
X11256250Y47075000D01*
G75*
G02*
X11500000Y46831250I0J-243750D01*
G01*
G37*
G36*
G01*
X13075000Y46831250D02*
X13075000Y46268750D01*
G75*
G02*
X12831250Y46025000I-243750J0D01*
G01*
X12343750Y46025000D01*
G75*
G02*
X12100000Y46268750I0J243750D01*
G01*
X12100000Y46831250D01*
G75*
G02*
X12343750Y47075000I243750J0D01*
G01*
X12831250Y47075000D01*
G75*
G02*
X13075000Y46831250I0J-243750D01*
G01*
G37*
G36*
G01*
X17500000Y44725000D02*
X16950000Y44725000D01*
G75*
G02*
X16700000Y44975000I0J250000D01*
G01*
X16700000Y45475000D01*
G75*
G02*
X16950000Y45725000I250000J0D01*
G01*
X17500000Y45725000D01*
G75*
G02*
X17750000Y45475000I0J-250000D01*
G01*
X17750000Y44975000D01*
G75*
G02*
X17500000Y44725000I-250000J0D01*
G01*
G37*
G36*
G01*
X17500000Y43175000D02*
X16950000Y43175000D01*
G75*
G02*
X16700000Y43425000I0J250000D01*
G01*
X16700000Y43925000D01*
G75*
G02*
X16950000Y44175000I250000J0D01*
G01*
X17500000Y44175000D01*
G75*
G02*
X17750000Y43925000I0J-250000D01*
G01*
X17750000Y43425000D01*
G75*
G02*
X17500000Y43175000I-250000J0D01*
G01*
G37*
G36*
G01*
X15803262Y46000000D02*
X14446738Y46000000D01*
G75*
G02*
X14175000Y46271738I0J271738D01*
G01*
X14175000Y46978262D01*
G75*
G02*
X14446738Y47250000I271738J0D01*
G01*
X15803262Y47250000D01*
G75*
G02*
X16075000Y46978262I0J-271738D01*
G01*
X16075000Y46271738D01*
G75*
G02*
X15803262Y46000000I-271738J0D01*
G01*
G37*
G36*
G01*
X15803262Y43050000D02*
X14446738Y43050000D01*
G75*
G02*
X14175000Y43321738I0J271738D01*
G01*
X14175000Y44028262D01*
G75*
G02*
X14446738Y44300000I271738J0D01*
G01*
X15803262Y44300000D01*
G75*
G02*
X16075000Y44028262I0J-271738D01*
G01*
X16075000Y43321738D01*
G75*
G02*
X15803262Y43050000I-271738J0D01*
G01*
G37*
G36*
G01*
X35400000Y17300000D02*
X36400000Y17300000D01*
G75*
G02*
X36675000Y17025000I0J-275000D01*
G01*
X36675000Y16475000D01*
G75*
G02*
X36400000Y16200000I-275000J0D01*
G01*
X35400000Y16200000D01*
G75*
G02*
X35125000Y16475000I0J275000D01*
G01*
X35125000Y17025000D01*
G75*
G02*
X35400000Y17300000I275000J0D01*
G01*
G37*
G36*
G01*
X35400000Y19200000D02*
X36400000Y19200000D01*
G75*
G02*
X36675000Y18925000I0J-275000D01*
G01*
X36675000Y18375000D01*
G75*
G02*
X36400000Y18100000I-275000J0D01*
G01*
X35400000Y18100000D01*
G75*
G02*
X35125000Y18375000I0J275000D01*
G01*
X35125000Y18925000D01*
G75*
G02*
X35400000Y19200000I275000J0D01*
G01*
G37*
G36*
G01*
X30461091Y19650000D02*
X30850000Y19261091D01*
G75*
G02*
X30850000Y18907537I-176777J-176777D01*
G01*
X30496447Y18553984D01*
G75*
G02*
X30142893Y18553984I-176777J176777D01*
G01*
X29753984Y18942893D01*
G75*
G02*
X29753984Y19296447I176777J176777D01*
G01*
X30107537Y19650000D01*
G75*
G02*
X30461091Y19650000I176777J-176777D01*
G01*
G37*
G36*
G01*
X31557107Y20746016D02*
X31946016Y20357107D01*
G75*
G02*
X31946016Y20003553I-176777J-176777D01*
G01*
X31592463Y19650000D01*
G75*
G02*
X31238909Y19650000I-176777J176777D01*
G01*
X30850000Y20038909D01*
G75*
G02*
X30850000Y20392463I176777J176777D01*
G01*
X31203553Y20746016D01*
G75*
G02*
X31557107Y20746016I176777J-176777D01*
G01*
G37*
G36*
G01*
X17700000Y19400000D02*
X17700000Y18400000D01*
G75*
G02*
X17425000Y18125000I-275000J0D01*
G01*
X16875000Y18125000D01*
G75*
G02*
X16600000Y18400000I0J275000D01*
G01*
X16600000Y19400000D01*
G75*
G02*
X16875000Y19675000I275000J0D01*
G01*
X17425000Y19675000D01*
G75*
G02*
X17700000Y19400000I0J-275000D01*
G01*
G37*
G36*
G01*
X19600000Y19400000D02*
X19600000Y18400000D01*
G75*
G02*
X19325000Y18125000I-275000J0D01*
G01*
X18775000Y18125000D01*
G75*
G02*
X18500000Y18400000I0J275000D01*
G01*
X18500000Y19400000D01*
G75*
G02*
X18775000Y19675000I275000J0D01*
G01*
X19325000Y19675000D01*
G75*
G02*
X19600000Y19400000I0J-275000D01*
G01*
G37*
G36*
G01*
X17700000Y17300000D02*
X17700000Y16300000D01*
G75*
G02*
X17425000Y16025000I-275000J0D01*
G01*
X16875000Y16025000D01*
G75*
G02*
X16600000Y16300000I0J275000D01*
G01*
X16600000Y17300000D01*
G75*
G02*
X16875000Y17575000I275000J0D01*
G01*
X17425000Y17575000D01*
G75*
G02*
X17700000Y17300000I0J-275000D01*
G01*
G37*
G36*
G01*
X19600000Y17300000D02*
X19600000Y16300000D01*
G75*
G02*
X19325000Y16025000I-275000J0D01*
G01*
X18775000Y16025000D01*
G75*
G02*
X18500000Y16300000I0J275000D01*
G01*
X18500000Y17300000D01*
G75*
G02*
X18775000Y17575000I275000J0D01*
G01*
X19325000Y17575000D01*
G75*
G02*
X19600000Y17300000I0J-275000D01*
G01*
G37*
G36*
G01*
X10775000Y16925000D02*
X10775000Y17475000D01*
G75*
G02*
X11025000Y17725000I250000J0D01*
G01*
X11525000Y17725000D01*
G75*
G02*
X11775000Y17475000I0J-250000D01*
G01*
X11775000Y16925000D01*
G75*
G02*
X11525000Y16675000I-250000J0D01*
G01*
X11025000Y16675000D01*
G75*
G02*
X10775000Y16925000I0J250000D01*
G01*
G37*
G36*
G01*
X9225000Y16925000D02*
X9225000Y17475000D01*
G75*
G02*
X9475000Y17725000I250000J0D01*
G01*
X9975000Y17725000D01*
G75*
G02*
X10225000Y17475000I0J-250000D01*
G01*
X10225000Y16925000D01*
G75*
G02*
X9975000Y16675000I-250000J0D01*
G01*
X9475000Y16675000D01*
G75*
G02*
X9225000Y16925000I0J250000D01*
G01*
G37*
G36*
G01*
X14900000Y14200000D02*
X14900000Y15200000D01*
G75*
G02*
X15175000Y15475000I275000J0D01*
G01*
X15725000Y15475000D01*
G75*
G02*
X16000000Y15200000I0J-275000D01*
G01*
X16000000Y14200000D01*
G75*
G02*
X15725000Y13925000I-275000J0D01*
G01*
X15175000Y13925000D01*
G75*
G02*
X14900000Y14200000I0J275000D01*
G01*
G37*
G36*
G01*
X13000000Y14200000D02*
X13000000Y15200000D01*
G75*
G02*
X13275000Y15475000I275000J0D01*
G01*
X13825000Y15475000D01*
G75*
G02*
X14100000Y15200000I0J-275000D01*
G01*
X14100000Y14200000D01*
G75*
G02*
X13825000Y13925000I-275000J0D01*
G01*
X13275000Y13925000D01*
G75*
G02*
X13000000Y14200000I0J275000D01*
G01*
G37*
G36*
G01*
X14900000Y16300000D02*
X14900000Y17300000D01*
G75*
G02*
X15175000Y17575000I275000J0D01*
G01*
X15725000Y17575000D01*
G75*
G02*
X16000000Y17300000I0J-275000D01*
G01*
X16000000Y16300000D01*
G75*
G02*
X15725000Y16025000I-275000J0D01*
G01*
X15175000Y16025000D01*
G75*
G02*
X14900000Y16300000I0J275000D01*
G01*
G37*
G36*
G01*
X13000000Y16300000D02*
X13000000Y17300000D01*
G75*
G02*
X13275000Y17575000I275000J0D01*
G01*
X13825000Y17575000D01*
G75*
G02*
X14100000Y17300000I0J-275000D01*
G01*
X14100000Y16300000D01*
G75*
G02*
X13825000Y16025000I-275000J0D01*
G01*
X13275000Y16025000D01*
G75*
G02*
X13000000Y16300000I0J275000D01*
G01*
G37*
G36*
G01*
X25825000Y14120000D02*
X25175000Y14120000D01*
G75*
G02*
X25125000Y14170000I0J50000D01*
G01*
X25125000Y15230000D01*
G75*
G02*
X25175000Y15280000I50000J0D01*
G01*
X25825000Y15280000D01*
G75*
G02*
X25875000Y15230000I0J-50000D01*
G01*
X25875000Y14170000D01*
G75*
G02*
X25825000Y14120000I-50000J0D01*
G01*
G37*
G36*
G01*
X24875000Y14120000D02*
X24225000Y14120000D01*
G75*
G02*
X24175000Y14170000I0J50000D01*
G01*
X24175000Y15230000D01*
G75*
G02*
X24225000Y15280000I50000J0D01*
G01*
X24875000Y15280000D01*
G75*
G02*
X24925000Y15230000I0J-50000D01*
G01*
X24925000Y14170000D01*
G75*
G02*
X24875000Y14120000I-50000J0D01*
G01*
G37*
G36*
G01*
X26775000Y14120000D02*
X26125000Y14120000D01*
G75*
G02*
X26075000Y14170000I0J50000D01*
G01*
X26075000Y15230000D01*
G75*
G02*
X26125000Y15280000I50000J0D01*
G01*
X26775000Y15280000D01*
G75*
G02*
X26825000Y15230000I0J-50000D01*
G01*
X26825000Y14170000D01*
G75*
G02*
X26775000Y14120000I-50000J0D01*
G01*
G37*
G36*
G01*
X26775000Y11920000D02*
X26125000Y11920000D01*
G75*
G02*
X26075000Y11970000I0J50000D01*
G01*
X26075000Y13030000D01*
G75*
G02*
X26125000Y13080000I50000J0D01*
G01*
X26775000Y13080000D01*
G75*
G02*
X26825000Y13030000I0J-50000D01*
G01*
X26825000Y11970000D01*
G75*
G02*
X26775000Y11920000I-50000J0D01*
G01*
G37*
G36*
G01*
X25825000Y11920000D02*
X25175000Y11920000D01*
G75*
G02*
X25125000Y11970000I0J50000D01*
G01*
X25125000Y13030000D01*
G75*
G02*
X25175000Y13080000I50000J0D01*
G01*
X25825000Y13080000D01*
G75*
G02*
X25875000Y13030000I0J-50000D01*
G01*
X25875000Y11970000D01*
G75*
G02*
X25825000Y11920000I-50000J0D01*
G01*
G37*
G36*
G01*
X24875000Y11920000D02*
X24225000Y11920000D01*
G75*
G02*
X24175000Y11970000I0J50000D01*
G01*
X24175000Y13030000D01*
G75*
G02*
X24225000Y13080000I50000J0D01*
G01*
X24875000Y13080000D01*
G75*
G02*
X24925000Y13030000I0J-50000D01*
G01*
X24925000Y11970000D01*
G75*
G02*
X24875000Y11920000I-50000J0D01*
G01*
G37*
G36*
G01*
X36525000Y32677000D02*
X37200000Y32677000D01*
G75*
G02*
X37250000Y32627000I0J-50000D01*
G01*
X37250000Y32373000D01*
G75*
G02*
X37200000Y32323000I-50000J0D01*
G01*
X36525000Y32323000D01*
G75*
G02*
X36475000Y32373000I0J50000D01*
G01*
X36475000Y32627000D01*
G75*
G02*
X36525000Y32677000I50000J0D01*
G01*
G37*
G36*
G01*
X41677000Y35250000D02*
X41677000Y34575000D01*
G75*
G02*
X41627000Y34525000I-50000J0D01*
G01*
X41373000Y34525000D01*
G75*
G02*
X41323000Y34575000I0J50000D01*
G01*
X41323000Y35250000D01*
G75*
G02*
X41373000Y35300000I50000J0D01*
G01*
X41627000Y35300000D01*
G75*
G02*
X41677000Y35250000I0J-50000D01*
G01*
G37*
G36*
G01*
X41300000Y32677000D02*
X41975000Y32677000D01*
G75*
G02*
X42025000Y32627000I0J-50000D01*
G01*
X42025000Y32373000D01*
G75*
G02*
X41975000Y32323000I-50000J0D01*
G01*
X41300000Y32323000D01*
G75*
G02*
X41250000Y32373000I0J50000D01*
G01*
X41250000Y32627000D01*
G75*
G02*
X41300000Y32677000I50000J0D01*
G01*
G37*
G36*
G01*
X41677000Y31925000D02*
X41677000Y31250000D01*
G75*
G02*
X41627000Y31200000I-50000J0D01*
G01*
X41373000Y31200000D01*
G75*
G02*
X41323000Y31250000I0J50000D01*
G01*
X41323000Y31925000D01*
G75*
G02*
X41373000Y31975000I50000J0D01*
G01*
X41627000Y31975000D01*
G75*
G02*
X41677000Y31925000I0J-50000D01*
G01*
G37*
G36*
G01*
X41300000Y33177000D02*
X41975000Y33177000D01*
G75*
G02*
X42025000Y33127000I0J-50000D01*
G01*
X42025000Y32873000D01*
G75*
G02*
X41975000Y32823000I-50000J0D01*
G01*
X41300000Y32823000D01*
G75*
G02*
X41250000Y32873000I0J50000D01*
G01*
X41250000Y33127000D01*
G75*
G02*
X41300000Y33177000I50000J0D01*
G01*
G37*
G36*
G01*
X41300000Y33677000D02*
X41975000Y33677000D01*
G75*
G02*
X42025000Y33627000I0J-50000D01*
G01*
X42025000Y33373000D01*
G75*
G02*
X41975000Y33323000I-50000J0D01*
G01*
X41300000Y33323000D01*
G75*
G02*
X41250000Y33373000I0J50000D01*
G01*
X41250000Y33627000D01*
G75*
G02*
X41300000Y33677000I50000J0D01*
G01*
G37*
G36*
G01*
X41300000Y34177000D02*
X41975000Y34177000D01*
G75*
G02*
X42025000Y34127000I0J-50000D01*
G01*
X42025000Y33873000D01*
G75*
G02*
X41975000Y33823000I-50000J0D01*
G01*
X41300000Y33823000D01*
G75*
G02*
X41250000Y33873000I0J50000D01*
G01*
X41250000Y34127000D01*
G75*
G02*
X41300000Y34177000I50000J0D01*
G01*
G37*
G36*
G01*
X41177000Y31925000D02*
X41177000Y31250000D01*
G75*
G02*
X41127000Y31200000I-50000J0D01*
G01*
X40873000Y31200000D01*
G75*
G02*
X40823000Y31250000I0J50000D01*
G01*
X40823000Y31925000D01*
G75*
G02*
X40873000Y31975000I50000J0D01*
G01*
X41127000Y31975000D01*
G75*
G02*
X41177000Y31925000I0J-50000D01*
G01*
G37*
G36*
G01*
X40677000Y31925000D02*
X40677000Y31250000D01*
G75*
G02*
X40627000Y31200000I-50000J0D01*
G01*
X40373000Y31200000D01*
G75*
G02*
X40323000Y31250000I0J50000D01*
G01*
X40323000Y31925000D01*
G75*
G02*
X40373000Y31975000I50000J0D01*
G01*
X40627000Y31975000D01*
G75*
G02*
X40677000Y31925000I0J-50000D01*
G01*
G37*
G36*
G01*
X40177000Y31925000D02*
X40177000Y31250000D01*
G75*
G02*
X40127000Y31200000I-50000J0D01*
G01*
X39873000Y31200000D01*
G75*
G02*
X39823000Y31250000I0J50000D01*
G01*
X39823000Y31925000D01*
G75*
G02*
X39873000Y31975000I50000J0D01*
G01*
X40127000Y31975000D01*
G75*
G02*
X40177000Y31925000I0J-50000D01*
G01*
G37*
G36*
G01*
X39677000Y31925000D02*
X39677000Y31250000D01*
G75*
G02*
X39627000Y31200000I-50000J0D01*
G01*
X39373000Y31200000D01*
G75*
G02*
X39323000Y31250000I0J50000D01*
G01*
X39323000Y31925000D01*
G75*
G02*
X39373000Y31975000I50000J0D01*
G01*
X39627000Y31975000D01*
G75*
G02*
X39677000Y31925000I0J-50000D01*
G01*
G37*
G36*
G01*
X39177000Y31925000D02*
X39177000Y31250000D01*
G75*
G02*
X39127000Y31200000I-50000J0D01*
G01*
X38873000Y31200000D01*
G75*
G02*
X38823000Y31250000I0J50000D01*
G01*
X38823000Y31925000D01*
G75*
G02*
X38873000Y31975000I50000J0D01*
G01*
X39127000Y31975000D01*
G75*
G02*
X39177000Y31925000I0J-50000D01*
G01*
G37*
G36*
G01*
X38677000Y31925000D02*
X38677000Y31250000D01*
G75*
G02*
X38627000Y31200000I-50000J0D01*
G01*
X38373000Y31200000D01*
G75*
G02*
X38323000Y31250000I0J50000D01*
G01*
X38323000Y31925000D01*
G75*
G02*
X38373000Y31975000I50000J0D01*
G01*
X38627000Y31975000D01*
G75*
G02*
X38677000Y31925000I0J-50000D01*
G01*
G37*
G36*
G01*
X38177000Y31925000D02*
X38177000Y31250000D01*
G75*
G02*
X38127000Y31200000I-50000J0D01*
G01*
X37873000Y31200000D01*
G75*
G02*
X37823000Y31250000I0J50000D01*
G01*
X37823000Y31925000D01*
G75*
G02*
X37873000Y31975000I50000J0D01*
G01*
X38127000Y31975000D01*
G75*
G02*
X38177000Y31925000I0J-50000D01*
G01*
G37*
G36*
G01*
X37677000Y31925000D02*
X37677000Y31250000D01*
G75*
G02*
X37627000Y31200000I-50000J0D01*
G01*
X37373000Y31200000D01*
G75*
G02*
X37323000Y31250000I0J50000D01*
G01*
X37323000Y31925000D01*
G75*
G02*
X37373000Y31975000I50000J0D01*
G01*
X37627000Y31975000D01*
G75*
G02*
X37677000Y31925000I0J-50000D01*
G01*
G37*
G36*
G01*
X37177000Y31925000D02*
X37177000Y31250000D01*
G75*
G02*
X37127000Y31200000I-50000J0D01*
G01*
X36873000Y31200000D01*
G75*
G02*
X36823000Y31250000I0J50000D01*
G01*
X36823000Y31925000D01*
G75*
G02*
X36873000Y31975000I50000J0D01*
G01*
X37127000Y31975000D01*
G75*
G02*
X37177000Y31925000I0J-50000D01*
G01*
G37*
G36*
G01*
X41177000Y35250000D02*
X41177000Y34575000D01*
G75*
G02*
X41127000Y34525000I-50000J0D01*
G01*
X40873000Y34525000D01*
G75*
G02*
X40823000Y34575000I0J50000D01*
G01*
X40823000Y35250000D01*
G75*
G02*
X40873000Y35300000I50000J0D01*
G01*
X41127000Y35300000D01*
G75*
G02*
X41177000Y35250000I0J-50000D01*
G01*
G37*
G36*
G01*
X40677000Y35250000D02*
X40677000Y34575000D01*
G75*
G02*
X40627000Y34525000I-50000J0D01*
G01*
X40373000Y34525000D01*
G75*
G02*
X40323000Y34575000I0J50000D01*
G01*
X40323000Y35250000D01*
G75*
G02*
X40373000Y35300000I50000J0D01*
G01*
X40627000Y35300000D01*
G75*
G02*
X40677000Y35250000I0J-50000D01*
G01*
G37*
G36*
G01*
X40177000Y35250000D02*
X40177000Y34575000D01*
G75*
G02*
X40127000Y34525000I-50000J0D01*
G01*
X39873000Y34525000D01*
G75*
G02*
X39823000Y34575000I0J50000D01*
G01*
X39823000Y35250000D01*
G75*
G02*
X39873000Y35300000I50000J0D01*
G01*
X40127000Y35300000D01*
G75*
G02*
X40177000Y35250000I0J-50000D01*
G01*
G37*
G36*
G01*
X39677000Y35250000D02*
X39677000Y34575000D01*
G75*
G02*
X39627000Y34525000I-50000J0D01*
G01*
X39373000Y34525000D01*
G75*
G02*
X39323000Y34575000I0J50000D01*
G01*
X39323000Y35250000D01*
G75*
G02*
X39373000Y35300000I50000J0D01*
G01*
X39627000Y35300000D01*
G75*
G02*
X39677000Y35250000I0J-50000D01*
G01*
G37*
G36*
G01*
X39177000Y35250000D02*
X39177000Y34575000D01*
G75*
G02*
X39127000Y34525000I-50000J0D01*
G01*
X38873000Y34525000D01*
G75*
G02*
X38823000Y34575000I0J50000D01*
G01*
X38823000Y35250000D01*
G75*
G02*
X38873000Y35300000I50000J0D01*
G01*
X39127000Y35300000D01*
G75*
G02*
X39177000Y35250000I0J-50000D01*
G01*
G37*
G36*
G01*
X38677000Y35250000D02*
X38677000Y34575000D01*
G75*
G02*
X38627000Y34525000I-50000J0D01*
G01*
X38373000Y34525000D01*
G75*
G02*
X38323000Y34575000I0J50000D01*
G01*
X38323000Y35250000D01*
G75*
G02*
X38373000Y35300000I50000J0D01*
G01*
X38627000Y35300000D01*
G75*
G02*
X38677000Y35250000I0J-50000D01*
G01*
G37*
G36*
G01*
X38177000Y35250000D02*
X38177000Y34575000D01*
G75*
G02*
X38127000Y34525000I-50000J0D01*
G01*
X37873000Y34525000D01*
G75*
G02*
X37823000Y34575000I0J50000D01*
G01*
X37823000Y35250000D01*
G75*
G02*
X37873000Y35300000I50000J0D01*
G01*
X38127000Y35300000D01*
G75*
G02*
X38177000Y35250000I0J-50000D01*
G01*
G37*
G36*
G01*
X37677000Y35250000D02*
X37677000Y34575000D01*
G75*
G02*
X37627000Y34525000I-50000J0D01*
G01*
X37373000Y34525000D01*
G75*
G02*
X37323000Y34575000I0J50000D01*
G01*
X37323000Y35250000D01*
G75*
G02*
X37373000Y35300000I50000J0D01*
G01*
X37627000Y35300000D01*
G75*
G02*
X37677000Y35250000I0J-50000D01*
G01*
G37*
G36*
G01*
X37177000Y35250000D02*
X37177000Y34575000D01*
G75*
G02*
X37127000Y34525000I-50000J0D01*
G01*
X36873000Y34525000D01*
G75*
G02*
X36823000Y34575000I0J50000D01*
G01*
X36823000Y35250000D01*
G75*
G02*
X36873000Y35300000I50000J0D01*
G01*
X37127000Y35300000D01*
G75*
G02*
X37177000Y35250000I0J-50000D01*
G01*
G37*
G36*
G01*
X36525000Y33177000D02*
X37200000Y33177000D01*
G75*
G02*
X37250000Y33127000I0J-50000D01*
G01*
X37250000Y32873000D01*
G75*
G02*
X37200000Y32823000I-50000J0D01*
G01*
X36525000Y32823000D01*
G75*
G02*
X36475000Y32873000I0J50000D01*
G01*
X36475000Y33127000D01*
G75*
G02*
X36525000Y33177000I50000J0D01*
G01*
G37*
G36*
G01*
X36525000Y33677000D02*
X37200000Y33677000D01*
G75*
G02*
X37250000Y33627000I0J-50000D01*
G01*
X37250000Y33373000D01*
G75*
G02*
X37200000Y33323000I-50000J0D01*
G01*
X36525000Y33323000D01*
G75*
G02*
X36475000Y33373000I0J50000D01*
G01*
X36475000Y33627000D01*
G75*
G02*
X36525000Y33677000I50000J0D01*
G01*
G37*
G36*
G01*
X36525000Y34177000D02*
X37200000Y34177000D01*
G75*
G02*
X37250000Y34127000I0J-50000D01*
G01*
X37250000Y33873000D01*
G75*
G02*
X37200000Y33823000I-50000J0D01*
G01*
X36525000Y33823000D01*
G75*
G02*
X36475000Y33873000I0J50000D01*
G01*
X36475000Y34127000D01*
G75*
G02*
X36525000Y34177000I50000J0D01*
G01*
G37*
G36*
G01*
X17850000Y14300000D02*
X18950000Y14300000D01*
G75*
G02*
X19000000Y14250000I0J-50000D01*
G01*
X19000000Y13150000D01*
G75*
G02*
X18950000Y13100000I-50000J0D01*
G01*
X17850000Y13100000D01*
G75*
G02*
X17800000Y13150000I0J50000D01*
G01*
X17800000Y14250000D01*
G75*
G02*
X17850000Y14300000I50000J0D01*
G01*
G37*
G36*
G01*
X17850000Y11500000D02*
X18950000Y11500000D01*
G75*
G02*
X19000000Y11450000I0J-50000D01*
G01*
X19000000Y10350000D01*
G75*
G02*
X18950000Y10300000I-50000J0D01*
G01*
X17850000Y10300000D01*
G75*
G02*
X17800000Y10350000I0J50000D01*
G01*
X17800000Y11450000D01*
G75*
G02*
X17850000Y11500000I50000J0D01*
G01*
G37*
G36*
G01*
X37600000Y46100000D02*
X37600000Y46900000D01*
G75*
G02*
X37650000Y46950000I50000J0D01*
G01*
X38650000Y46950000D01*
G75*
G02*
X38700000Y46900000I0J-50000D01*
G01*
X38700000Y46100000D01*
G75*
G02*
X38650000Y46050000I-50000J0D01*
G01*
X37650000Y46050000D01*
G75*
G02*
X37600000Y46100000I0J50000D01*
G01*
G37*
G36*
G01*
X39100000Y46100000D02*
X39100000Y46900000D01*
G75*
G02*
X39150000Y46950000I50000J0D01*
G01*
X40150000Y46950000D01*
G75*
G02*
X40200000Y46900000I0J-50000D01*
G01*
X40200000Y46100000D01*
G75*
G02*
X40150000Y46050000I-50000J0D01*
G01*
X39150000Y46050000D01*
G75*
G02*
X39100000Y46100000I0J50000D01*
G01*
G37*
G36*
G01*
X39100000Y45000000D02*
X39100000Y45800000D01*
G75*
G02*
X39150000Y45850000I50000J0D01*
G01*
X40150000Y45850000D01*
G75*
G02*
X40200000Y45800000I0J-50000D01*
G01*
X40200000Y45000000D01*
G75*
G02*
X40150000Y44950000I-50000J0D01*
G01*
X39150000Y44950000D01*
G75*
G02*
X39100000Y45000000I0J50000D01*
G01*
G37*
G36*
G01*
X37600000Y45000000D02*
X37600000Y45800000D01*
G75*
G02*
X37650000Y45850000I50000J0D01*
G01*
X38650000Y45850000D01*
G75*
G02*
X38700000Y45800000I0J-50000D01*
G01*
X38700000Y45000000D01*
G75*
G02*
X38650000Y44950000I-50000J0D01*
G01*
X37650000Y44950000D01*
G75*
G02*
X37600000Y45000000I0J50000D01*
G01*
G37*
G36*
G01*
X39800000Y19650001D02*
X39250000Y19650001D01*
G75*
G02*
X39200000Y19700001I0J50000D01*
G01*
X39200000Y20650001D01*
G75*
G02*
X39250000Y20700001I50000J0D01*
G01*
X39800000Y20700001D01*
G75*
G02*
X39850000Y20650001I0J-50000D01*
G01*
X39850000Y19700001D01*
G75*
G02*
X39800000Y19650001I-50000J0D01*
G01*
G37*
G36*
G01*
X36050000Y19650001D02*
X35500000Y19650001D01*
G75*
G02*
X35450000Y19700001I0J50000D01*
G01*
X35450000Y20650001D01*
G75*
G02*
X35500000Y20700001I50000J0D01*
G01*
X36050000Y20700001D01*
G75*
G02*
X36100000Y20650001I0J-50000D01*
G01*
X36100000Y19700001D01*
G75*
G02*
X36050000Y19650001I-50000J0D01*
G01*
G37*
G36*
G01*
X37300000Y19650001D02*
X36750000Y19650001D01*
G75*
G02*
X36700000Y19700001I0J50000D01*
G01*
X36700000Y20650001D01*
G75*
G02*
X36750000Y20700001I50000J0D01*
G01*
X37300000Y20700001D01*
G75*
G02*
X37350000Y20650001I0J-50000D01*
G01*
X37350000Y19700001D01*
G75*
G02*
X37300000Y19650001I-50000J0D01*
G01*
G37*
G36*
G01*
X38550000Y19650001D02*
X38000000Y19650001D01*
G75*
G02*
X37950000Y19700001I0J50000D01*
G01*
X37950000Y20650001D01*
G75*
G02*
X38000000Y20700001I50000J0D01*
G01*
X38550000Y20700001D01*
G75*
G02*
X38600000Y20650001I0J-50000D01*
G01*
X38600000Y19700001D01*
G75*
G02*
X38550000Y19650001I-50000J0D01*
G01*
G37*
G36*
G01*
X36050000Y21800001D02*
X35500000Y21800001D01*
G75*
G02*
X35450000Y21850001I0J50000D01*
G01*
X35450000Y22800001D01*
G75*
G02*
X35500000Y22850001I50000J0D01*
G01*
X36050000Y22850001D01*
G75*
G02*
X36100000Y22800001I0J-50000D01*
G01*
X36100000Y21850001D01*
G75*
G02*
X36050000Y21800001I-50000J0D01*
G01*
G37*
G36*
G01*
X37300000Y21800001D02*
X36750000Y21800001D01*
G75*
G02*
X36700000Y21850001I0J50000D01*
G01*
X36700000Y22800001D01*
G75*
G02*
X36750000Y22850001I50000J0D01*
G01*
X37300000Y22850001D01*
G75*
G02*
X37350000Y22800001I0J-50000D01*
G01*
X37350000Y21850001D01*
G75*
G02*
X37300000Y21800001I-50000J0D01*
G01*
G37*
G36*
G01*
X38550000Y21800001D02*
X38000000Y21800001D01*
G75*
G02*
X37950000Y21850001I0J50000D01*
G01*
X37950000Y22800001D01*
G75*
G02*
X38000000Y22850001I50000J0D01*
G01*
X38550000Y22850001D01*
G75*
G02*
X38600000Y22800001I0J-50000D01*
G01*
X38600000Y21850001D01*
G75*
G02*
X38550000Y21800001I-50000J0D01*
G01*
G37*
G36*
G01*
X39800000Y21800001D02*
X39250000Y21800001D01*
G75*
G02*
X39200000Y21850001I0J50000D01*
G01*
X39200000Y22800001D01*
G75*
G02*
X39250000Y22850001I50000J0D01*
G01*
X39800000Y22850001D01*
G75*
G02*
X39850000Y22800001I0J-50000D01*
G01*
X39850000Y21850001D01*
G75*
G02*
X39800000Y21800001I-50000J0D01*
G01*
G37*
G36*
G01*
X39507485Y30550000D02*
X39507485Y28650000D01*
G75*
G02*
X39457485Y28600000I-50000J0D01*
G01*
X38357485Y28600000D01*
G75*
G02*
X38307485Y28650000I0J50000D01*
G01*
X38307485Y30550000D01*
G75*
G02*
X38357485Y30600000I50000J0D01*
G01*
X39457485Y30600000D01*
G75*
G02*
X39507485Y30550000I0J-50000D01*
G01*
G37*
G36*
G01*
X42007485Y30550000D02*
X42007485Y28650000D01*
G75*
G02*
X41957485Y28600000I-50000J0D01*
G01*
X40857485Y28600000D01*
G75*
G02*
X40807485Y28650000I0J50000D01*
G01*
X40807485Y30550000D01*
G75*
G02*
X40857485Y30600000I50000J0D01*
G01*
X41957485Y30600000D01*
G75*
G02*
X42007485Y30550000I0J-50000D01*
G01*
G37*
G36*
G01*
X44050000Y31468750D02*
X44050000Y32031250D01*
G75*
G02*
X44293750Y32275000I243750J0D01*
G01*
X44781250Y32275000D01*
G75*
G02*
X45025000Y32031250I0J-243750D01*
G01*
X45025000Y31468750D01*
G75*
G02*
X44781250Y31225000I-243750J0D01*
G01*
X44293750Y31225000D01*
G75*
G02*
X44050000Y31468750I0J243750D01*
G01*
G37*
G36*
G01*
X42475000Y31468750D02*
X42475000Y32031250D01*
G75*
G02*
X42718750Y32275000I243750J0D01*
G01*
X43206250Y32275000D01*
G75*
G02*
X43450000Y32031250I0J-243750D01*
G01*
X43450000Y31468750D01*
G75*
G02*
X43206250Y31225000I-243750J0D01*
G01*
X42718750Y31225000D01*
G75*
G02*
X42475000Y31468750I0J243750D01*
G01*
G37*
G36*
G01*
X44050000Y29968750D02*
X44050000Y30531250D01*
G75*
G02*
X44293750Y30775000I243750J0D01*
G01*
X44781250Y30775000D01*
G75*
G02*
X45025000Y30531250I0J-243750D01*
G01*
X45025000Y29968750D01*
G75*
G02*
X44781250Y29725000I-243750J0D01*
G01*
X44293750Y29725000D01*
G75*
G02*
X44050000Y29968750I0J243750D01*
G01*
G37*
G36*
G01*
X42475000Y29968750D02*
X42475000Y30531250D01*
G75*
G02*
X42718750Y30775000I243750J0D01*
G01*
X43206250Y30775000D01*
G75*
G02*
X43450000Y30531250I0J-243750D01*
G01*
X43450000Y29968750D01*
G75*
G02*
X43206250Y29725000I-243750J0D01*
G01*
X42718750Y29725000D01*
G75*
G02*
X42475000Y29968750I0J243750D01*
G01*
G37*
G36*
G01*
X40781250Y37550000D02*
X40218750Y37550000D01*
G75*
G02*
X39975000Y37793750I0J243750D01*
G01*
X39975000Y38281250D01*
G75*
G02*
X40218750Y38525000I243750J0D01*
G01*
X40781250Y38525000D01*
G75*
G02*
X41025000Y38281250I0J-243750D01*
G01*
X41025000Y37793750D01*
G75*
G02*
X40781250Y37550000I-243750J0D01*
G01*
G37*
G36*
G01*
X40781250Y35975000D02*
X40218750Y35975000D01*
G75*
G02*
X39975000Y36218750I0J243750D01*
G01*
X39975000Y36706250D01*
G75*
G02*
X40218750Y36950000I243750J0D01*
G01*
X40781250Y36950000D01*
G75*
G02*
X41025000Y36706250I0J-243750D01*
G01*
X41025000Y36218750D01*
G75*
G02*
X40781250Y35975000I-243750J0D01*
G01*
G37*
G36*
G01*
X39281250Y27300000D02*
X38718750Y27300000D01*
G75*
G02*
X38475000Y27543750I0J243750D01*
G01*
X38475000Y28031250D01*
G75*
G02*
X38718750Y28275000I243750J0D01*
G01*
X39281250Y28275000D01*
G75*
G02*
X39525000Y28031250I0J-243750D01*
G01*
X39525000Y27543750D01*
G75*
G02*
X39281250Y27300000I-243750J0D01*
G01*
G37*
G36*
G01*
X39281250Y25725000D02*
X38718750Y25725000D01*
G75*
G02*
X38475000Y25968750I0J243750D01*
G01*
X38475000Y26456250D01*
G75*
G02*
X38718750Y26700000I243750J0D01*
G01*
X39281250Y26700000D01*
G75*
G02*
X39525000Y26456250I0J-243750D01*
G01*
X39525000Y25968750D01*
G75*
G02*
X39281250Y25725000I-243750J0D01*
G01*
G37*
G36*
G01*
X29338993Y20736741D02*
X29736741Y20338993D01*
G75*
G02*
X29736741Y19994279I-172357J-172357D01*
G01*
X29392027Y19649565D01*
G75*
G02*
X29047313Y19649565I-172357J172357D01*
G01*
X28649565Y20047313D01*
G75*
G02*
X28649565Y20392027I172357J172357D01*
G01*
X28994279Y20736741D01*
G75*
G02*
X29338993Y20736741I172357J-172357D01*
G01*
G37*
G36*
G01*
X30452687Y21850435D02*
X30850435Y21452687D01*
G75*
G02*
X30850435Y21107973I-172357J-172357D01*
G01*
X30505721Y20763259D01*
G75*
G02*
X30161007Y20763259I-172357J172357D01*
G01*
X29763259Y21161007D01*
G75*
G02*
X29763259Y21505721I172357J172357D01*
G01*
X30107973Y21850435D01*
G75*
G02*
X30452687Y21850435I172357J-172357D01*
G01*
G37*
G36*
G01*
X37368750Y17651903D02*
X37931250Y17651903D01*
G75*
G02*
X38175000Y17408153I0J-243750D01*
G01*
X38175000Y16920653D01*
G75*
G02*
X37931250Y16676903I-243750J0D01*
G01*
X37368750Y16676903D01*
G75*
G02*
X37125000Y16920653I0J243750D01*
G01*
X37125000Y17408153D01*
G75*
G02*
X37368750Y17651903I243750J0D01*
G01*
G37*
G36*
G01*
X37368750Y19226903D02*
X37931250Y19226903D01*
G75*
G02*
X38175000Y18983153I0J-243750D01*
G01*
X38175000Y18495653D01*
G75*
G02*
X37931250Y18251903I-243750J0D01*
G01*
X37368750Y18251903D01*
G75*
G02*
X37125000Y18495653I0J243750D01*
G01*
X37125000Y18983153D01*
G75*
G02*
X37368750Y19226903I243750J0D01*
G01*
G37*
G36*
G01*
X38868750Y17651903D02*
X39431250Y17651903D01*
G75*
G02*
X39675000Y17408153I0J-243750D01*
G01*
X39675000Y16920653D01*
G75*
G02*
X39431250Y16676903I-243750J0D01*
G01*
X38868750Y16676903D01*
G75*
G02*
X38625000Y16920653I0J243750D01*
G01*
X38625000Y17408153D01*
G75*
G02*
X38868750Y17651903I243750J0D01*
G01*
G37*
G36*
G01*
X38868750Y19226903D02*
X39431250Y19226903D01*
G75*
G02*
X39675000Y18983153I0J-243750D01*
G01*
X39675000Y18495653D01*
G75*
G02*
X39431250Y18251903I-243750J0D01*
G01*
X38868750Y18251903D01*
G75*
G02*
X38625000Y18495653I0J243750D01*
G01*
X38625000Y18983153D01*
G75*
G02*
X38868750Y19226903I243750J0D01*
G01*
G37*
G36*
G01*
X33868750Y20303554D02*
X34431250Y20303554D01*
G75*
G02*
X34675000Y20059804I0J-243750D01*
G01*
X34675000Y19572304D01*
G75*
G02*
X34431250Y19328554I-243750J0D01*
G01*
X33868750Y19328554D01*
G75*
G02*
X33625000Y19572304I0J243750D01*
G01*
X33625000Y20059804D01*
G75*
G02*
X33868750Y20303554I243750J0D01*
G01*
G37*
G36*
G01*
X33868750Y21878554D02*
X34431250Y21878554D01*
G75*
G02*
X34675000Y21634804I0J-243750D01*
G01*
X34675000Y21147304D01*
G75*
G02*
X34431250Y20903554I-243750J0D01*
G01*
X33868750Y20903554D01*
G75*
G02*
X33625000Y21147304I0J243750D01*
G01*
X33625000Y21634804D01*
G75*
G02*
X33868750Y21878554I243750J0D01*
G01*
G37*
G36*
G01*
X39281250Y5100000D02*
X38718750Y5100000D01*
G75*
G02*
X38475000Y5343750I0J243750D01*
G01*
X38475000Y5831250D01*
G75*
G02*
X38718750Y6075000I243750J0D01*
G01*
X39281250Y6075000D01*
G75*
G02*
X39525000Y5831250I0J-243750D01*
G01*
X39525000Y5343750D01*
G75*
G02*
X39281250Y5100000I-243750J0D01*
G01*
G37*
G36*
G01*
X39281250Y3525000D02*
X38718750Y3525000D01*
G75*
G02*
X38475000Y3768750I0J243750D01*
G01*
X38475000Y4256250D01*
G75*
G02*
X38718750Y4500000I243750J0D01*
G01*
X39281250Y4500000D01*
G75*
G02*
X39525000Y4256250I0J-243750D01*
G01*
X39525000Y3768750D01*
G75*
G02*
X39281250Y3525000I-243750J0D01*
G01*
G37*
G36*
G01*
X39281250Y9100000D02*
X38718750Y9100000D01*
G75*
G02*
X38475000Y9343750I0J243750D01*
G01*
X38475000Y9831250D01*
G75*
G02*
X38718750Y10075000I243750J0D01*
G01*
X39281250Y10075000D01*
G75*
G02*
X39525000Y9831250I0J-243750D01*
G01*
X39525000Y9343750D01*
G75*
G02*
X39281250Y9100000I-243750J0D01*
G01*
G37*
G36*
G01*
X39281250Y7525000D02*
X38718750Y7525000D01*
G75*
G02*
X38475000Y7768750I0J243750D01*
G01*
X38475000Y8256250D01*
G75*
G02*
X38718750Y8500000I243750J0D01*
G01*
X39281250Y8500000D01*
G75*
G02*
X39525000Y8256250I0J-243750D01*
G01*
X39525000Y7768750D01*
G75*
G02*
X39281250Y7525000I-243750J0D01*
G01*
G37*
G36*
G01*
X23281250Y12550000D02*
X22718750Y12550000D01*
G75*
G02*
X22475000Y12793750I0J243750D01*
G01*
X22475000Y13281250D01*
G75*
G02*
X22718750Y13525000I243750J0D01*
G01*
X23281250Y13525000D01*
G75*
G02*
X23525000Y13281250I0J-243750D01*
G01*
X23525000Y12793750D01*
G75*
G02*
X23281250Y12550000I-243750J0D01*
G01*
G37*
G36*
G01*
X23281250Y10975000D02*
X22718750Y10975000D01*
G75*
G02*
X22475000Y11218750I0J243750D01*
G01*
X22475000Y11706250D01*
G75*
G02*
X22718750Y11950000I243750J0D01*
G01*
X23281250Y11950000D01*
G75*
G02*
X23525000Y11706250I0J-243750D01*
G01*
X23525000Y11218750D01*
G75*
G02*
X23281250Y10975000I-243750J0D01*
G01*
G37*
G36*
G01*
X27718750Y11950000D02*
X28281250Y11950000D01*
G75*
G02*
X28525000Y11706250I0J-243750D01*
G01*
X28525000Y11218750D01*
G75*
G02*
X28281250Y10975000I-243750J0D01*
G01*
X27718750Y10975000D01*
G75*
G02*
X27475000Y11218750I0J243750D01*
G01*
X27475000Y11706250D01*
G75*
G02*
X27718750Y11950000I243750J0D01*
G01*
G37*
G36*
G01*
X27718750Y13525000D02*
X28281250Y13525000D01*
G75*
G02*
X28525000Y13281250I0J-243750D01*
G01*
X28525000Y12793750D01*
G75*
G02*
X28281250Y12550000I-243750J0D01*
G01*
X27718750Y12550000D01*
G75*
G02*
X27475000Y12793750I0J243750D01*
G01*
X27475000Y13281250D01*
G75*
G02*
X27718750Y13525000I243750J0D01*
G01*
G37*
G36*
G01*
X31218750Y7700000D02*
X31781250Y7700000D01*
G75*
G02*
X32025000Y7456250I0J-243750D01*
G01*
X32025000Y6968750D01*
G75*
G02*
X31781250Y6725000I-243750J0D01*
G01*
X31218750Y6725000D01*
G75*
G02*
X30975000Y6968750I0J243750D01*
G01*
X30975000Y7456250D01*
G75*
G02*
X31218750Y7700000I243750J0D01*
G01*
G37*
G36*
G01*
X31218750Y9275000D02*
X31781250Y9275000D01*
G75*
G02*
X32025000Y9031250I0J-243750D01*
G01*
X32025000Y8543750D01*
G75*
G02*
X31781250Y8300000I-243750J0D01*
G01*
X31218750Y8300000D01*
G75*
G02*
X30975000Y8543750I0J243750D01*
G01*
X30975000Y9031250D01*
G75*
G02*
X31218750Y9275000I243750J0D01*
G01*
G37*
G36*
G01*
X31100000Y17068750D02*
X31100000Y17631250D01*
G75*
G02*
X31343750Y17875000I243750J0D01*
G01*
X31831250Y17875000D01*
G75*
G02*
X32075000Y17631250I0J-243750D01*
G01*
X32075000Y17068750D01*
G75*
G02*
X31831250Y16825000I-243750J0D01*
G01*
X31343750Y16825000D01*
G75*
G02*
X31100000Y17068750I0J243750D01*
G01*
G37*
G36*
G01*
X29525000Y17068750D02*
X29525000Y17631250D01*
G75*
G02*
X29768750Y17875000I243750J0D01*
G01*
X30256250Y17875000D01*
G75*
G02*
X30500000Y17631250I0J-243750D01*
G01*
X30500000Y17068750D01*
G75*
G02*
X30256250Y16825000I-243750J0D01*
G01*
X29768750Y16825000D01*
G75*
G02*
X29525000Y17068750I0J243750D01*
G01*
G37*
G36*
G01*
X35531250Y34550000D02*
X34968750Y34550000D01*
G75*
G02*
X34725000Y34793750I0J243750D01*
G01*
X34725000Y35281250D01*
G75*
G02*
X34968750Y35525000I243750J0D01*
G01*
X35531250Y35525000D01*
G75*
G02*
X35775000Y35281250I0J-243750D01*
G01*
X35775000Y34793750D01*
G75*
G02*
X35531250Y34550000I-243750J0D01*
G01*
G37*
G36*
G01*
X35531250Y32975000D02*
X34968750Y32975000D01*
G75*
G02*
X34725000Y33218750I0J243750D01*
G01*
X34725000Y33706250D01*
G75*
G02*
X34968750Y33950000I243750J0D01*
G01*
X35531250Y33950000D01*
G75*
G02*
X35775000Y33706250I0J-243750D01*
G01*
X35775000Y33218750D01*
G75*
G02*
X35531250Y32975000I-243750J0D01*
G01*
G37*
G36*
G01*
X44050000Y36093750D02*
X44050000Y36656250D01*
G75*
G02*
X44293750Y36900000I243750J0D01*
G01*
X44781250Y36900000D01*
G75*
G02*
X45025000Y36656250I0J-243750D01*
G01*
X45025000Y36093750D01*
G75*
G02*
X44781250Y35850000I-243750J0D01*
G01*
X44293750Y35850000D01*
G75*
G02*
X44050000Y36093750I0J243750D01*
G01*
G37*
G36*
G01*
X42475000Y36093750D02*
X42475000Y36656250D01*
G75*
G02*
X42718750Y36900000I243750J0D01*
G01*
X43206250Y36900000D01*
G75*
G02*
X43450000Y36656250I0J-243750D01*
G01*
X43450000Y36093750D01*
G75*
G02*
X43206250Y35850000I-243750J0D01*
G01*
X42718750Y35850000D01*
G75*
G02*
X42475000Y36093750I0J243750D01*
G01*
G37*
G36*
G01*
X43450000Y35156250D02*
X43450000Y34593750D01*
G75*
G02*
X43206250Y34350000I-243750J0D01*
G01*
X42718750Y34350000D01*
G75*
G02*
X42475000Y34593750I0J243750D01*
G01*
X42475000Y35156250D01*
G75*
G02*
X42718750Y35400000I243750J0D01*
G01*
X43206250Y35400000D01*
G75*
G02*
X43450000Y35156250I0J-243750D01*
G01*
G37*
G36*
G01*
X45025000Y35156250D02*
X45025000Y34593750D01*
G75*
G02*
X44781250Y34350000I-243750J0D01*
G01*
X44293750Y34350000D01*
G75*
G02*
X44050000Y34593750I0J243750D01*
G01*
X44050000Y35156250D01*
G75*
G02*
X44293750Y35400000I243750J0D01*
G01*
X44781250Y35400000D01*
G75*
G02*
X45025000Y35156250I0J-243750D01*
G01*
G37*
G36*
G01*
X38718750Y36950000D02*
X39281250Y36950000D01*
G75*
G02*
X39525000Y36706250I0J-243750D01*
G01*
X39525000Y36218750D01*
G75*
G02*
X39281250Y35975000I-243750J0D01*
G01*
X38718750Y35975000D01*
G75*
G02*
X38475000Y36218750I0J243750D01*
G01*
X38475000Y36706250D01*
G75*
G02*
X38718750Y36950000I243750J0D01*
G01*
G37*
G36*
G01*
X38718750Y38525000D02*
X39281250Y38525000D01*
G75*
G02*
X39525000Y38281250I0J-243750D01*
G01*
X39525000Y37793750D01*
G75*
G02*
X39281250Y37550000I-243750J0D01*
G01*
X38718750Y37550000D01*
G75*
G02*
X38475000Y37793750I0J243750D01*
G01*
X38475000Y38281250D01*
G75*
G02*
X38718750Y38525000I243750J0D01*
G01*
G37*
G36*
G01*
X35718750Y36950000D02*
X36281250Y36950000D01*
G75*
G02*
X36525000Y36706250I0J-243750D01*
G01*
X36525000Y36218750D01*
G75*
G02*
X36281250Y35975000I-243750J0D01*
G01*
X35718750Y35975000D01*
G75*
G02*
X35475000Y36218750I0J243750D01*
G01*
X35475000Y36706250D01*
G75*
G02*
X35718750Y36950000I243750J0D01*
G01*
G37*
G36*
G01*
X35718750Y38525000D02*
X36281250Y38525000D01*
G75*
G02*
X36525000Y38281250I0J-243750D01*
G01*
X36525000Y37793750D01*
G75*
G02*
X36281250Y37550000I-243750J0D01*
G01*
X35718750Y37550000D01*
G75*
G02*
X35475000Y37793750I0J243750D01*
G01*
X35475000Y38281250D01*
G75*
G02*
X35718750Y38525000I243750J0D01*
G01*
G37*
G36*
G01*
X37218750Y36950000D02*
X37781250Y36950000D01*
G75*
G02*
X38025000Y36706250I0J-243750D01*
G01*
X38025000Y36218750D01*
G75*
G02*
X37781250Y35975000I-243750J0D01*
G01*
X37218750Y35975000D01*
G75*
G02*
X36975000Y36218750I0J243750D01*
G01*
X36975000Y36706250D01*
G75*
G02*
X37218750Y36950000I243750J0D01*
G01*
G37*
G36*
G01*
X37218750Y38525000D02*
X37781250Y38525000D01*
G75*
G02*
X38025000Y38281250I0J-243750D01*
G01*
X38025000Y37793750D01*
G75*
G02*
X37781250Y37550000I-243750J0D01*
G01*
X37218750Y37550000D01*
G75*
G02*
X36975000Y37793750I0J243750D01*
G01*
X36975000Y38281250D01*
G75*
G02*
X37218750Y38525000I243750J0D01*
G01*
G37*
G36*
G01*
X22918750Y16800000D02*
X23481250Y16800000D01*
G75*
G02*
X23725000Y16556250I0J-243750D01*
G01*
X23725000Y16068750D01*
G75*
G02*
X23481250Y15825000I-243750J0D01*
G01*
X22918750Y15825000D01*
G75*
G02*
X22675000Y16068750I0J243750D01*
G01*
X22675000Y16556250D01*
G75*
G02*
X22918750Y16800000I243750J0D01*
G01*
G37*
G36*
G01*
X22918750Y18375000D02*
X23481250Y18375000D01*
G75*
G02*
X23725000Y18131250I0J-243750D01*
G01*
X23725000Y17643750D01*
G75*
G02*
X23481250Y17400000I-243750J0D01*
G01*
X22918750Y17400000D01*
G75*
G02*
X22675000Y17643750I0J243750D01*
G01*
X22675000Y18131250D01*
G75*
G02*
X22918750Y18375000I243750J0D01*
G01*
G37*
G36*
G01*
X21881250Y17400000D02*
X21318750Y17400000D01*
G75*
G02*
X21075000Y17643750I0J243750D01*
G01*
X21075000Y18131250D01*
G75*
G02*
X21318750Y18375000I243750J0D01*
G01*
X21881250Y18375000D01*
G75*
G02*
X22125000Y18131250I0J-243750D01*
G01*
X22125000Y17643750D01*
G75*
G02*
X21881250Y17400000I-243750J0D01*
G01*
G37*
G36*
G01*
X21881250Y15825000D02*
X21318750Y15825000D01*
G75*
G02*
X21075000Y16068750I0J243750D01*
G01*
X21075000Y16556250D01*
G75*
G02*
X21318750Y16800000I243750J0D01*
G01*
X21881250Y16800000D01*
G75*
G02*
X22125000Y16556250I0J-243750D01*
G01*
X22125000Y16068750D01*
G75*
G02*
X21881250Y15825000I-243750J0D01*
G01*
G37*
G36*
G01*
X35381250Y42250000D02*
X34818750Y42250000D01*
G75*
G02*
X34575000Y42493750I0J243750D01*
G01*
X34575000Y42981250D01*
G75*
G02*
X34818750Y43225000I243750J0D01*
G01*
X35381250Y43225000D01*
G75*
G02*
X35625000Y42981250I0J-243750D01*
G01*
X35625000Y42493750D01*
G75*
G02*
X35381250Y42250000I-243750J0D01*
G01*
G37*
G36*
G01*
X35381250Y40675000D02*
X34818750Y40675000D01*
G75*
G02*
X34575000Y40918750I0J243750D01*
G01*
X34575000Y41406250D01*
G75*
G02*
X34818750Y41650000I243750J0D01*
G01*
X35381250Y41650000D01*
G75*
G02*
X35625000Y41406250I0J-243750D01*
G01*
X35625000Y40918750D01*
G75*
G02*
X35381250Y40675000I-243750J0D01*
G01*
G37*
G36*
G01*
X33881250Y42250000D02*
X33318750Y42250000D01*
G75*
G02*
X33075000Y42493750I0J243750D01*
G01*
X33075000Y42981250D01*
G75*
G02*
X33318750Y43225000I243750J0D01*
G01*
X33881250Y43225000D01*
G75*
G02*
X34125000Y42981250I0J-243750D01*
G01*
X34125000Y42493750D01*
G75*
G02*
X33881250Y42250000I-243750J0D01*
G01*
G37*
G36*
G01*
X33881250Y40675000D02*
X33318750Y40675000D01*
G75*
G02*
X33075000Y40918750I0J243750D01*
G01*
X33075000Y41406250D01*
G75*
G02*
X33318750Y41650000I243750J0D01*
G01*
X33881250Y41650000D01*
G75*
G02*
X34125000Y41406250I0J-243750D01*
G01*
X34125000Y40918750D01*
G75*
G02*
X33881250Y40675000I-243750J0D01*
G01*
G37*
G36*
G01*
X30500000Y16081250D02*
X30500000Y15518750D01*
G75*
G02*
X30256250Y15275000I-243750J0D01*
G01*
X29768750Y15275000D01*
G75*
G02*
X29525000Y15518750I0J243750D01*
G01*
X29525000Y16081250D01*
G75*
G02*
X29768750Y16325000I243750J0D01*
G01*
X30256250Y16325000D01*
G75*
G02*
X30500000Y16081250I0J-243750D01*
G01*
G37*
G36*
G01*
X32075000Y16081250D02*
X32075000Y15518750D01*
G75*
G02*
X31831250Y15275000I-243750J0D01*
G01*
X31343750Y15275000D01*
G75*
G02*
X31100000Y15518750I0J243750D01*
G01*
X31100000Y16081250D01*
G75*
G02*
X31343750Y16325000I243750J0D01*
G01*
X31831250Y16325000D01*
G75*
G02*
X32075000Y16081250I0J-243750D01*
G01*
G37*
G36*
G01*
X12405000Y3925000D02*
X11095000Y3925000D01*
G75*
G02*
X10825000Y4195000I0J270000D01*
G01*
X10825000Y5005000D01*
G75*
G02*
X11095000Y5275000I270000J0D01*
G01*
X12405000Y5275000D01*
G75*
G02*
X12675000Y5005000I0J-270000D01*
G01*
X12675000Y4195000D01*
G75*
G02*
X12405000Y3925000I-270000J0D01*
G01*
G37*
G36*
G01*
X12405000Y6725000D02*
X11095000Y6725000D01*
G75*
G02*
X10825000Y6995000I0J270000D01*
G01*
X10825000Y7805000D01*
G75*
G02*
X11095000Y8075000I270000J0D01*
G01*
X12405000Y8075000D01*
G75*
G02*
X12675000Y7805000I0J-270000D01*
G01*
X12675000Y6995000D01*
G75*
G02*
X12405000Y6725000I-270000J0D01*
G01*
G37*
D14*
X21180000Y5200000D03*
X29820000Y5200000D03*
D15*
X21180000Y9380000D03*
X29820000Y9380000D03*
D16*
X28390000Y8880000D03*
X22610000Y8880000D03*
G36*
G01*
X21950000Y9380000D02*
X21950000Y10530000D01*
G75*
G02*
X22000000Y10580000I50000J0D01*
G01*
X22600000Y10580000D01*
G75*
G02*
X22650000Y10530000I0J-50000D01*
G01*
X22650000Y9380000D01*
G75*
G02*
X22600000Y9330000I-50000J0D01*
G01*
X22000000Y9330000D01*
G75*
G02*
X21950000Y9380000I0J50000D01*
G01*
G37*
G36*
G01*
X28350000Y9380000D02*
X28350000Y10530000D01*
G75*
G02*
X28400000Y10580000I50000J0D01*
G01*
X29000000Y10580000D01*
G75*
G02*
X29050000Y10530000I0J-50000D01*
G01*
X29050000Y9380000D01*
G75*
G02*
X29000000Y9330000I-50000J0D01*
G01*
X28400000Y9330000D01*
G75*
G02*
X28350000Y9380000I0J50000D01*
G01*
G37*
G36*
G01*
X22750000Y9380000D02*
X22750000Y10530000D01*
G75*
G02*
X22800000Y10580000I50000J0D01*
G01*
X23400000Y10580000D01*
G75*
G02*
X23450000Y10530000I0J-50000D01*
G01*
X23450000Y9380000D01*
G75*
G02*
X23400000Y9330000I-50000J0D01*
G01*
X22800000Y9330000D01*
G75*
G02*
X22750000Y9380000I0J50000D01*
G01*
G37*
G36*
G01*
X27550000Y9380000D02*
X27550000Y10530000D01*
G75*
G02*
X27600000Y10580000I50000J0D01*
G01*
X28200000Y10580000D01*
G75*
G02*
X28250000Y10530000I0J-50000D01*
G01*
X28250000Y9380000D01*
G75*
G02*
X28200000Y9330000I-50000J0D01*
G01*
X27600000Y9330000D01*
G75*
G02*
X27550000Y9380000I0J50000D01*
G01*
G37*
G36*
G01*
X25550000Y9380000D02*
X25550000Y10530000D01*
G75*
G02*
X25600000Y10580000I50000J0D01*
G01*
X25900000Y10580000D01*
G75*
G02*
X25950000Y10530000I0J-50000D01*
G01*
X25950000Y9380000D01*
G75*
G02*
X25900000Y9330000I-50000J0D01*
G01*
X25600000Y9330000D01*
G75*
G02*
X25550000Y9380000I0J50000D01*
G01*
G37*
G36*
G01*
X25050000Y9380000D02*
X25050000Y10530000D01*
G75*
G02*
X25100000Y10580000I50000J0D01*
G01*
X25400000Y10580000D01*
G75*
G02*
X25450000Y10530000I0J-50000D01*
G01*
X25450000Y9380000D01*
G75*
G02*
X25400000Y9330000I-50000J0D01*
G01*
X25100000Y9330000D01*
G75*
G02*
X25050000Y9380000I0J50000D01*
G01*
G37*
G36*
G01*
X26050000Y9380000D02*
X26050000Y10530000D01*
G75*
G02*
X26100000Y10580000I50000J0D01*
G01*
X26400000Y10580000D01*
G75*
G02*
X26450000Y10530000I0J-50000D01*
G01*
X26450000Y9380000D01*
G75*
G02*
X26400000Y9330000I-50000J0D01*
G01*
X26100000Y9330000D01*
G75*
G02*
X26050000Y9380000I0J50000D01*
G01*
G37*
G36*
G01*
X26550000Y9380000D02*
X26550000Y10530000D01*
G75*
G02*
X26600000Y10580000I50000J0D01*
G01*
X26900000Y10580000D01*
G75*
G02*
X26950000Y10530000I0J-50000D01*
G01*
X26950000Y9380000D01*
G75*
G02*
X26900000Y9330000I-50000J0D01*
G01*
X26600000Y9330000D01*
G75*
G02*
X26550000Y9380000I0J50000D01*
G01*
G37*
G36*
G01*
X27050000Y9380000D02*
X27050000Y10530000D01*
G75*
G02*
X27100000Y10580000I50000J0D01*
G01*
X27400000Y10580000D01*
G75*
G02*
X27450000Y10530000I0J-50000D01*
G01*
X27450000Y9380000D01*
G75*
G02*
X27400000Y9330000I-50000J0D01*
G01*
X27100000Y9330000D01*
G75*
G02*
X27050000Y9380000I0J50000D01*
G01*
G37*
G36*
G01*
X24550000Y9380000D02*
X24550000Y10530000D01*
G75*
G02*
X24600000Y10580000I50000J0D01*
G01*
X24900000Y10580000D01*
G75*
G02*
X24950000Y10530000I0J-50000D01*
G01*
X24950000Y9380000D01*
G75*
G02*
X24900000Y9330000I-50000J0D01*
G01*
X24600000Y9330000D01*
G75*
G02*
X24550000Y9380000I0J50000D01*
G01*
G37*
G36*
G01*
X24050000Y9380000D02*
X24050000Y10530000D01*
G75*
G02*
X24100000Y10580000I50000J0D01*
G01*
X24400000Y10580000D01*
G75*
G02*
X24450000Y10530000I0J-50000D01*
G01*
X24450000Y9380000D01*
G75*
G02*
X24400000Y9330000I-50000J0D01*
G01*
X24100000Y9330000D01*
G75*
G02*
X24050000Y9380000I0J50000D01*
G01*
G37*
G36*
G01*
X23550000Y9380000D02*
X23550000Y10530000D01*
G75*
G02*
X23600000Y10580000I50000J0D01*
G01*
X23900000Y10580000D01*
G75*
G02*
X23950000Y10530000I0J-50000D01*
G01*
X23950000Y9380000D01*
G75*
G02*
X23900000Y9330000I-50000J0D01*
G01*
X23600000Y9330000D01*
G75*
G02*
X23550000Y9380000I0J50000D01*
G01*
G37*
D17*
X8000000Y43000000D03*
X43000000Y43000000D03*
X43000000Y8000000D03*
X8000000Y8000000D03*
G36*
G01*
X2840345Y6432447D02*
X2840345Y6432447D01*
G75*
G02*
X2840345Y5159655I-636396J-636396D01*
G01*
X2840345Y5159655D01*
G75*
G02*
X1567553Y5159655I-636396J636396D01*
G01*
X1567553Y5159655D01*
G75*
G02*
X1567553Y6432447I636396J636396D01*
G01*
X1567553Y6432447D01*
G75*
G02*
X2840345Y6432447I636396J-636396D01*
G01*
G37*
G36*
G01*
X4636396Y4636396D02*
X4636396Y4636396D01*
G75*
G02*
X4636396Y3363604I-636396J-636396D01*
G01*
X4636396Y3363604D01*
G75*
G02*
X3363604Y3363604I-636396J636396D01*
G01*
X3363604Y3363604D01*
G75*
G02*
X3363604Y4636396I636396J636396D01*
G01*
X3363604Y4636396D01*
G75*
G02*
X4636396Y4636396I636396J-636396D01*
G01*
G37*
G36*
G01*
X6114249Y3158543D02*
X6750645Y2522147D01*
G75*
G02*
X6750645Y1885751I-318198J-318198D01*
G01*
X6114249Y1249355D01*
G75*
G02*
X5477853Y1249355I-318198J318198D01*
G01*
X4841457Y1885751D01*
G75*
G02*
X4841457Y2522147I318198J318198D01*
G01*
X5477853Y3158543D01*
G75*
G02*
X6114249Y3158543I318198J-318198D01*
G01*
G37*
G36*
G01*
X44567553Y2840345D02*
X44567553Y2840345D01*
G75*
G02*
X45840345Y2840345I636396J-636396D01*
G01*
X45840345Y2840345D01*
G75*
G02*
X45840345Y1567553I-636396J-636396D01*
G01*
X45840345Y1567553D01*
G75*
G02*
X44567553Y1567553I-636396J636396D01*
G01*
X44567553Y1567553D01*
G75*
G02*
X44567553Y2840345I636396J636396D01*
G01*
G37*
G36*
G01*
X46363604Y4636396D02*
X46363604Y4636396D01*
G75*
G02*
X47636396Y4636396I636396J-636396D01*
G01*
X47636396Y4636396D01*
G75*
G02*
X47636396Y3363604I-636396J-636396D01*
G01*
X47636396Y3363604D01*
G75*
G02*
X46363604Y3363604I-636396J636396D01*
G01*
X46363604Y3363604D01*
G75*
G02*
X46363604Y4636396I636396J636396D01*
G01*
G37*
G36*
G01*
X47841457Y6114249D02*
X48477853Y6750645D01*
G75*
G02*
X49114249Y6750645I318198J-318198D01*
G01*
X49750645Y6114249D01*
G75*
G02*
X49750645Y5477853I-318198J-318198D01*
G01*
X49114249Y4841457D01*
G75*
G02*
X48477853Y4841457I-318198J318198D01*
G01*
X47841457Y5477853D01*
G75*
G02*
X47841457Y6114249I318198J318198D01*
G01*
G37*
G36*
G01*
X48159655Y44567553D02*
X48159655Y44567553D01*
G75*
G02*
X48159655Y45840345I636396J636396D01*
G01*
X48159655Y45840345D01*
G75*
G02*
X49432447Y45840345I636396J-636396D01*
G01*
X49432447Y45840345D01*
G75*
G02*
X49432447Y44567553I-636396J-636396D01*
G01*
X49432447Y44567553D01*
G75*
G02*
X48159655Y44567553I-636396J636396D01*
G01*
G37*
G36*
G01*
X46363604Y46363604D02*
X46363604Y46363604D01*
G75*
G02*
X46363604Y47636396I636396J636396D01*
G01*
X46363604Y47636396D01*
G75*
G02*
X47636396Y47636396I636396J-636396D01*
G01*
X47636396Y47636396D01*
G75*
G02*
X47636396Y46363604I-636396J-636396D01*
G01*
X47636396Y46363604D01*
G75*
G02*
X46363604Y46363604I-636396J636396D01*
G01*
G37*
G36*
G01*
X44885751Y47841457D02*
X44249355Y48477853D01*
G75*
G02*
X44249355Y49114249I318198J318198D01*
G01*
X44885751Y49750645D01*
G75*
G02*
X45522147Y49750645I318198J-318198D01*
G01*
X46158543Y49114249D01*
G75*
G02*
X46158543Y48477853I-318198J-318198D01*
G01*
X45522147Y47841457D01*
G75*
G02*
X44885751Y47841457I-318198J318198D01*
G01*
G37*
G36*
G01*
X6432447Y48159655D02*
X6432447Y48159655D01*
G75*
G02*
X5159655Y48159655I-636396J636396D01*
G01*
X5159655Y48159655D01*
G75*
G02*
X5159655Y49432447I636396J636396D01*
G01*
X5159655Y49432447D01*
G75*
G02*
X6432447Y49432447I636396J-636396D01*
G01*
X6432447Y49432447D01*
G75*
G02*
X6432447Y48159655I-636396J-636396D01*
G01*
G37*
G36*
G01*
X4636396Y46363604D02*
X4636396Y46363604D01*
G75*
G02*
X3363604Y46363604I-636396J636396D01*
G01*
X3363604Y46363604D01*
G75*
G02*
X3363604Y47636396I636396J636396D01*
G01*
X3363604Y47636396D01*
G75*
G02*
X4636396Y47636396I636396J-636396D01*
G01*
X4636396Y47636396D01*
G75*
G02*
X4636396Y46363604I-636396J-636396D01*
G01*
G37*
G36*
G01*
X3158543Y44885751D02*
X2522147Y44249355D01*
G75*
G02*
X1885751Y44249355I-318198J318198D01*
G01*
X1249355Y44885751D01*
G75*
G02*
X1249355Y45522147I318198J318198D01*
G01*
X1885751Y46158543D01*
G75*
G02*
X2522147Y46158543I318198J-318198D01*
G01*
X3158543Y45522147D01*
G75*
G02*
X3158543Y44885751I-318198J-318198D01*
G01*
G37*
M02*
