M48
INCH,TZ
T1C0.0118
T2C0.0236
T3C0.0394
T4C0.0866
T5C0.0256
%
G90
G05
T1
X37106Y-20472
X37106Y-32677
X38123Y-18976
X38268Y-20768
X38287Y-18602
X38287Y-34547
X38504Y-30000
X38740Y-34711
X38878Y-21969
X39449Y-30000
X39606Y-21102
X39961Y-20768
X40059Y-30807
X40059Y-31398
X40157Y-17421
X40157Y-34547
X40157Y-35728
X40315Y-27795
X40453Y-32579
X40650Y-29823
X40846Y-18110
X41043Y-25295
X41043Y-32579
X41102Y-27087
X41417Y-21969
X41496Y-31811
X41732Y-29331
X41732Y-29724
X41732Y-30118
X41732Y-30512
X41929Y-35433
X42224Y-31988
X42323Y-25689
X42408Y-20742
X42502Y-26838
X42520Y-25295
X42632Y-19868
X42717Y-18209
X42717Y-23327
X42717Y-24906
X42815Y-29823
X43307Y-26870
X43799Y-32579
X43996Y-34350
X43996Y-34941
X44094Y-21260
X44224Y-22876
X44409Y-20315
X44476Y-22721
X44488Y-18209
X44488Y-21425
X44587Y-22079
X44685Y-31693
X44783Y-18898
X44783Y-29429
X44783Y-32087
X44888Y-28537
X45374Y-18799
X45374Y-25689
X45388Y-29317
X45551Y-21240
X45551Y-21949
X45551Y-22657
X45662Y-20185
X45780Y-33256
X45906Y-30394
X45965Y-18799
X45965Y-29626
X46220Y-32047
X46260Y-21240
X46260Y-21949
X46260Y-22657
X46299Y-31260
X46535Y-29685
X46555Y-18799
X46585Y-20246
X46693Y-30408
X46949Y-26476
X46949Y-29232
X46969Y-21240
X46969Y-21949
X46969Y-22657
X47017Y-24182
X47244Y-30807
X47248Y-23725
X47402Y-29685
X47559Y-19291
X47630Y-29134
X47736Y-23524
X47736Y-25689
X47736Y-32087
X47933Y-20669
X47933Y-21358
X47933Y-21752
X47933Y-23228
X47933Y-27657
X47933Y-29035
X47953Y-19528
X47953Y-20079
X48228Y-23048
X48228Y-24016
X48268Y-31417
X48327Y-21358
X48327Y-22190
X48327Y-22508
X48504Y-27874
X48504Y-32677
X48583Y-19528
X48583Y-20079
X48720Y-32382
X48819Y-29823
X49016Y-26969
X49114Y-23720
X49213Y-19528
X49606Y-21496
X49606Y-29232
X49606Y-33169
X49627Y-23404
X49705Y-31102
X49843Y-18268
X49843Y-18898
X49843Y-19528
X49852Y-23967
X49902Y-22441
X50000Y-29331
X50098Y-25197
X50098Y-32874
X50098Y-34449
X50295Y-24047
X50394Y-30315
X50492Y-32382
X50591Y-34711
X50866Y-19370
X50984Y-21260
X50984Y-30315
X51083Y-23228
X51260Y-28248
X51476Y-23490
X51575Y-26870
X51575Y-30315
X51575Y-32382
X51575Y-33957
X51811Y-20315
X52067Y-23490
X52165Y-21161
X52362Y-17421
X52362Y-35728
X52461Y-26870
X53051Y-25098
X53051Y-29429
X53051Y-31693
X53543Y-21161
X53642Y-25886
X54134Y-23524
X54232Y-18602
X54232Y-22343
X54232Y-22933
X54232Y-24114
X54232Y-24705
X54232Y-34547
X54331Y-33957
X55413Y-20472
X55413Y-32677
T3
X54017Y-17403
X54724Y-18110
X55432Y-18817
X54017Y-35746
X54724Y-35039
X55432Y-34332
X38484Y-24575
X38484Y-25575
X38484Y-26575
X38484Y-27575
X38484Y-28575
X39484Y-24575
X39484Y-25575
X39484Y-26575
X39484Y-27575
X39484Y-28575
X37088Y-34332
X37795Y-35039
X38502Y-35746
X41929Y-32760
X41929Y-33760
X41929Y-34760
X37088Y-18817
X37795Y-18110
X38502Y-17403
T4
X53150Y-33465
X39370Y-19685
X39370Y-33465
X53150Y-19685
T5
X45122Y-33118
X47398Y-33118
T2
G00X44559Y-32705
M15
G01X44559Y-33138
M16
G05
G00X44559Y-34409
M15
G01X44559Y-34724
M16
G05
G00X47961Y-32705
M15
G01X47961Y-33138
M16
G05
G00X47961Y-34409
M15
G01X47961Y-34724
M16
G05
T0
M30
