%TF.GenerationSoftware,KiCad,Pcbnew,(5.1.9-0-10_14)*%
%TF.CreationDate,2021-01-25T23:13:15-08:00*%
%TF.ProjectId,flight-computer-2,666c6967-6874-42d6-936f-6d7075746572,rev?*%
%TF.SameCoordinates,PX57bcf00PY58b1140*%
%TF.FileFunction,Legend,Top*%
%TF.FilePolarity,Positive*%
%FSLAX46Y46*%
G04 Gerber Fmt 4.6, Leading zero omitted, Abs format (unit mm)*
G04 Created by KiCad (PCBNEW (5.1.9-0-10_14)) date 2021-01-25 23:13:15*
%MOMM*%
%LPD*%
G01*
G04 APERTURE LIST*
%ADD10C,0.180000*%
%ADD11C,0.300000*%
%ADD12C,0.240000*%
%ADD13C,0.220000*%
%ADD14C,0.177800*%
%ADD15C,0.254000*%
%ADD16C,0.330000*%
%ADD17C,0.010000*%
%ADD18C,0.120000*%
%ADD19C,0.127000*%
%ADD20C,0.200000*%
G04 APERTURE END LIST*
D10*
X39209523Y13907143D02*
X39476190Y13907143D01*
X39590476Y13488096D02*
X39209523Y13488096D01*
X39209523Y14288096D01*
X39590476Y14288096D01*
X39933333Y13488096D02*
X39933333Y14288096D01*
X40390476Y13488096D01*
X40390476Y14288096D01*
X29414285Y13857143D02*
X29528571Y13819048D01*
X29566666Y13780953D01*
X29604761Y13704762D01*
X29604761Y13590477D01*
X29566666Y13514286D01*
X29528571Y13476191D01*
X29452380Y13438096D01*
X29147619Y13438096D01*
X29147619Y14238096D01*
X29414285Y14238096D01*
X29490476Y14200000D01*
X29528571Y14161905D01*
X29566666Y14085715D01*
X29566666Y14009524D01*
X29528571Y13933334D01*
X29490476Y13895239D01*
X29414285Y13857143D01*
X29147619Y13857143D01*
X30100000Y14238096D02*
X30252380Y14238096D01*
X30328571Y14200000D01*
X30404761Y14123810D01*
X30442857Y13971429D01*
X30442857Y13704762D01*
X30404761Y13552381D01*
X30328571Y13476191D01*
X30252380Y13438096D01*
X30100000Y13438096D01*
X30023809Y13476191D01*
X29947619Y13552381D01*
X29909523Y13704762D01*
X29909523Y13971429D01*
X29947619Y14123810D01*
X30023809Y14200000D01*
X30100000Y14238096D01*
X30938095Y14238096D02*
X31090476Y14238096D01*
X31166666Y14200000D01*
X31242857Y14123810D01*
X31280952Y13971429D01*
X31280952Y13704762D01*
X31242857Y13552381D01*
X31166666Y13476191D01*
X31090476Y13438096D01*
X30938095Y13438096D01*
X30861904Y13476191D01*
X30785714Y13552381D01*
X30747619Y13704762D01*
X30747619Y13971429D01*
X30785714Y14123810D01*
X30861904Y14200000D01*
X30938095Y14238096D01*
X31509523Y14238096D02*
X31966666Y14238096D01*
X31738095Y13438096D02*
X31738095Y14238096D01*
X30164285Y31288096D02*
X30164285Y32088096D01*
X30430952Y31516667D01*
X30697619Y32088096D01*
X30697619Y31288096D01*
X31535714Y31364286D02*
X31497619Y31326191D01*
X31383333Y31288096D01*
X31307142Y31288096D01*
X31192857Y31326191D01*
X31116666Y31402381D01*
X31078571Y31478572D01*
X31040476Y31630953D01*
X31040476Y31745239D01*
X31078571Y31897620D01*
X31116666Y31973810D01*
X31192857Y32050000D01*
X31307142Y32088096D01*
X31383333Y32088096D01*
X31497619Y32050000D01*
X31535714Y32011905D01*
X31878571Y32088096D02*
X31878571Y31440477D01*
X31916666Y31364286D01*
X31954761Y31326191D01*
X32030952Y31288096D01*
X32183333Y31288096D01*
X32259523Y31326191D01*
X32297619Y31364286D01*
X32335714Y31440477D01*
X32335714Y32088096D01*
D11*
X7842857Y18314286D02*
X8757142Y18314286D01*
D12*
X16492857Y6802381D02*
X16859523Y5702381D01*
X17226190Y6802381D01*
X17435714Y6802381D02*
X18064285Y6802381D01*
X17750000Y5702381D02*
X17750000Y6802381D01*
X18640476Y6802381D02*
X18850000Y6802381D01*
X18954761Y6750000D01*
X19059523Y6645239D01*
X19111904Y6435715D01*
X19111904Y6069048D01*
X19059523Y5859524D01*
X18954761Y5754762D01*
X18850000Y5702381D01*
X18640476Y5702381D01*
X18535714Y5754762D01*
X18430952Y5859524D01*
X18378571Y6069048D01*
X18378571Y6435715D01*
X18430952Y6645239D01*
X18535714Y6750000D01*
X18640476Y6802381D01*
X20107142Y5702381D02*
X19583333Y5702381D01*
X19583333Y6802381D01*
X16414285Y4847620D02*
X16466666Y4900000D01*
X16571428Y4952381D01*
X16833333Y4952381D01*
X16938095Y4900000D01*
X16990476Y4847620D01*
X17042857Y4742858D01*
X17042857Y4638096D01*
X16990476Y4480953D01*
X16361904Y3852381D01*
X17042857Y3852381D01*
X17723809Y4952381D02*
X17828571Y4952381D01*
X17933333Y4900000D01*
X17985714Y4847620D01*
X18038095Y4742858D01*
X18090476Y4533334D01*
X18090476Y4271429D01*
X18038095Y4061905D01*
X17985714Y3957143D01*
X17933333Y3904762D01*
X17828571Y3852381D01*
X17723809Y3852381D01*
X17619047Y3904762D01*
X17566666Y3957143D01*
X17514285Y4061905D01*
X17461904Y4271429D01*
X17461904Y4533334D01*
X17514285Y4742858D01*
X17566666Y4847620D01*
X17619047Y4900000D01*
X17723809Y4952381D01*
X18509523Y4847620D02*
X18561904Y4900000D01*
X18666666Y4952381D01*
X18928571Y4952381D01*
X19033333Y4900000D01*
X19085714Y4847620D01*
X19138095Y4742858D01*
X19138095Y4638096D01*
X19085714Y4480953D01*
X18457142Y3852381D01*
X19138095Y3852381D01*
X20185714Y3852381D02*
X19557142Y3852381D01*
X19871428Y3852381D02*
X19871428Y4952381D01*
X19766666Y4795239D01*
X19661904Y4690477D01*
X19557142Y4638096D01*
D11*
X16492857Y9814286D02*
X17407142Y9814286D01*
X5242857Y45314286D02*
X6157142Y45314286D01*
X5700000Y44857143D02*
X5700000Y45771429D01*
X7292857Y47314286D02*
X8207142Y47314286D01*
D10*
X10452380Y3438096D02*
X10909523Y3438096D01*
X10680952Y2638096D02*
X10680952Y3438096D01*
X11176190Y2638096D02*
X11176190Y3438096D01*
X11176190Y3057143D02*
X11633333Y3057143D01*
X11633333Y2638096D02*
X11633333Y3438096D01*
X12471428Y2638096D02*
X12204761Y3019048D01*
X12014285Y2638096D02*
X12014285Y3438096D01*
X12319047Y3438096D01*
X12395238Y3400000D01*
X12433333Y3361905D01*
X12471428Y3285715D01*
X12471428Y3171429D01*
X12433333Y3095239D01*
X12395238Y3057143D01*
X12319047Y3019048D01*
X12014285Y3019048D01*
D13*
X3238095Y42345239D02*
X3380952Y42297620D01*
X3619047Y42297620D01*
X3714285Y42345239D01*
X3761904Y42392858D01*
X3809523Y42488096D01*
X3809523Y42583334D01*
X3761904Y42678572D01*
X3714285Y42726191D01*
X3619047Y42773810D01*
X3428571Y42821429D01*
X3333333Y42869048D01*
X3285714Y42916667D01*
X3238095Y43011905D01*
X3238095Y43107143D01*
X3285714Y43202381D01*
X3333333Y43250000D01*
X3428571Y43297620D01*
X3666666Y43297620D01*
X3809523Y43250000D01*
X4761904Y42297620D02*
X4190476Y42297620D01*
X4476190Y42297620D02*
X4476190Y43297620D01*
X4380952Y43154762D01*
X4285714Y43059524D01*
X4190476Y43011905D01*
X46238095Y42095239D02*
X46380952Y42047620D01*
X46619047Y42047620D01*
X46714285Y42095239D01*
X46761904Y42142858D01*
X46809523Y42238096D01*
X46809523Y42333334D01*
X46761904Y42428572D01*
X46714285Y42476191D01*
X46619047Y42523810D01*
X46428571Y42571429D01*
X46333333Y42619048D01*
X46285714Y42666667D01*
X46238095Y42761905D01*
X46238095Y42857143D01*
X46285714Y42952381D01*
X46333333Y43000000D01*
X46428571Y43047620D01*
X46666666Y43047620D01*
X46809523Y43000000D01*
X47190476Y42952381D02*
X47238095Y43000000D01*
X47333333Y43047620D01*
X47571428Y43047620D01*
X47666666Y43000000D01*
X47714285Y42952381D01*
X47761904Y42857143D01*
X47761904Y42761905D01*
X47714285Y42619048D01*
X47142857Y42047620D01*
X47761904Y42047620D01*
X46238095Y7845239D02*
X46380952Y7797620D01*
X46619047Y7797620D01*
X46714285Y7845239D01*
X46761904Y7892858D01*
X46809523Y7988096D01*
X46809523Y8083334D01*
X46761904Y8178572D01*
X46714285Y8226191D01*
X46619047Y8273810D01*
X46428571Y8321429D01*
X46333333Y8369048D01*
X46285714Y8416667D01*
X46238095Y8511905D01*
X46238095Y8607143D01*
X46285714Y8702381D01*
X46333333Y8750000D01*
X46428571Y8797620D01*
X46666666Y8797620D01*
X46809523Y8750000D01*
X47142857Y8797620D02*
X47761904Y8797620D01*
X47428571Y8416667D01*
X47571428Y8416667D01*
X47666666Y8369048D01*
X47714285Y8321429D01*
X47761904Y8226191D01*
X47761904Y7988096D01*
X47714285Y7892858D01*
X47666666Y7845239D01*
X47571428Y7797620D01*
X47285714Y7797620D01*
X47190476Y7845239D01*
X47142857Y7892858D01*
X3238095Y7845239D02*
X3380952Y7797620D01*
X3619047Y7797620D01*
X3714285Y7845239D01*
X3761904Y7892858D01*
X3809523Y7988096D01*
X3809523Y8083334D01*
X3761904Y8178572D01*
X3714285Y8226191D01*
X3619047Y8273810D01*
X3428571Y8321429D01*
X3333333Y8369048D01*
X3285714Y8416667D01*
X3238095Y8511905D01*
X3238095Y8607143D01*
X3285714Y8702381D01*
X3333333Y8750000D01*
X3428571Y8797620D01*
X3666666Y8797620D01*
X3809523Y8750000D01*
X4666666Y8464286D02*
X4666666Y7797620D01*
X4428571Y8845239D02*
X4190476Y8130953D01*
X4809523Y8130953D01*
D14*
X43294025Y12531582D02*
X43024616Y12621384D01*
X43204222Y12262172D02*
X43294025Y12531582D01*
X43294026Y12531582D02*
G75*
G02*
X42015000Y13885000I-595378J718418D01*
G01*
X43920000Y13641000D02*
X44174000Y13514000D01*
X43793000Y13386999D02*
X43920000Y13641000D01*
X43920000Y13641004D02*
G75*
G03*
X45190000Y13641000I635000J142873D01*
G01*
X44555000Y12370999D02*
X44174000Y12752000D01*
X44555000Y12370999D02*
X44936001Y12752000D01*
X44555000Y12370999D02*
X44555000Y14276000D01*
X43420000Y15409000D02*
X43293000Y15155000D01*
X43166000Y15535999D02*
X43420000Y15409000D01*
X43420002Y15409000D02*
G75*
G03*
X43420000Y14139000I142874J-635000D01*
G01*
X42150000Y14774001D02*
X42531000Y15155000D01*
X42150000Y14774001D02*
X42531000Y14393000D01*
X42150000Y14774001D02*
X44055000Y14774000D01*
X43173634Y13250000D02*
G75*
G03*
X43173634Y13250000I-523634J0D01*
G01*
D15*
X42777000Y13250000D02*
G75*
G03*
X42777000Y13250000I-127000J0D01*
G01*
D10*
X41001647Y12295962D02*
X41645114Y12295962D01*
X41001647Y11330762D01*
X41645114Y11330762D01*
X45369342Y11800381D02*
X45369342Y11340762D01*
X45047609Y12305962D02*
X45369342Y11800381D01*
X45691076Y12305962D01*
X42101647Y16570962D02*
X42745114Y15605762D01*
X42745114Y16570962D02*
X42101647Y15605762D01*
D16*
X40866666Y4766667D02*
X41333333Y3366667D01*
X41800000Y4766667D01*
X42200000Y4633334D02*
X42266666Y4700000D01*
X42400000Y4766667D01*
X42733333Y4766667D01*
X42866666Y4700000D01*
X42933333Y4633334D01*
X43000000Y4500000D01*
X43000000Y4366667D01*
X42933333Y4166667D01*
X42133333Y3366667D01*
X43000000Y3366667D01*
D10*
X31961904Y4161905D02*
X31580952Y3895239D01*
X31961904Y3704762D02*
X31161904Y3704762D01*
X31161904Y4009524D01*
X31200000Y4085715D01*
X31238095Y4123810D01*
X31314285Y4161905D01*
X31428571Y4161905D01*
X31504761Y4123810D01*
X31542857Y4085715D01*
X31580952Y4009524D01*
X31580952Y3704762D01*
X31923809Y4466667D02*
X31961904Y4580953D01*
X31961904Y4771429D01*
X31923809Y4847620D01*
X31885714Y4885715D01*
X31809523Y4923810D01*
X31733333Y4923810D01*
X31657142Y4885715D01*
X31619047Y4847620D01*
X31580952Y4771429D01*
X31542857Y4619048D01*
X31504761Y4542858D01*
X31466666Y4504762D01*
X31390476Y4466667D01*
X31314285Y4466667D01*
X31238095Y4504762D01*
X31200000Y4542858D01*
X31161904Y4619048D01*
X31161904Y4809524D01*
X31200000Y4923810D01*
X31161904Y5152381D02*
X31161904Y5609524D01*
X31961904Y5380953D02*
X31161904Y5380953D01*
D17*
G36*
X13617315Y28422878D02*
G01*
X13625691Y28422012D01*
X13658661Y28417730D01*
X13693062Y28412067D01*
X13726311Y28405588D01*
X13755825Y28398853D01*
X13779020Y28392426D01*
X13793312Y28386870D01*
X13796067Y28384901D01*
X13796221Y28377212D01*
X13793589Y28359194D01*
X13788573Y28332809D01*
X13781576Y28300023D01*
X13772999Y28262798D01*
X13763244Y28223098D01*
X13761785Y28217366D01*
X13757485Y28200556D01*
X13717755Y28213691D01*
X13699878Y28218930D01*
X13681291Y28222639D01*
X13659269Y28225079D01*
X13631089Y28226512D01*
X13594027Y28227200D01*
X13576123Y28227326D01*
X13474222Y28227825D01*
X13425808Y28203912D01*
X13378276Y28174406D01*
X13339126Y28136671D01*
X13307839Y28089978D01*
X13283896Y28033600D01*
X13270897Y27986525D01*
X13264238Y27945693D01*
X13260421Y27897304D01*
X13259406Y27845273D01*
X13261156Y27793515D01*
X13265632Y27745947D01*
X13272795Y27706482D01*
X13273682Y27703039D01*
X13296249Y27637649D01*
X13326314Y27582478D01*
X13363859Y27537546D01*
X13408864Y27502875D01*
X13461310Y27478484D01*
X13484350Y27471617D01*
X13527949Y27464532D01*
X13578003Y27462912D01*
X13629637Y27466478D01*
X13677980Y27474948D01*
X13709775Y27484589D01*
X13732738Y27493294D01*
X13751845Y27500405D01*
X13763297Y27504508D01*
X13763898Y27504706D01*
X13768439Y27503625D01*
X13773209Y27496359D01*
X13778788Y27481349D01*
X13785753Y27457035D01*
X13794683Y27421857D01*
X13794798Y27421391D01*
X13803122Y27387144D01*
X13808559Y27363113D01*
X13811316Y27347195D01*
X13811600Y27337290D01*
X13809617Y27331296D01*
X13805574Y27327111D01*
X13804174Y27326032D01*
X13788764Y27317479D01*
X13764566Y27307419D01*
X13735192Y27297086D01*
X13704257Y27287715D01*
X13675373Y27280541D01*
X13665325Y27278584D01*
X13633485Y27274374D01*
X13594633Y27271263D01*
X13552598Y27269358D01*
X13511213Y27268767D01*
X13474307Y27269598D01*
X13445712Y27271958D01*
X13443075Y27272340D01*
X13365130Y27289967D01*
X13294892Y27317494D01*
X13232596Y27354761D01*
X13178476Y27401607D01*
X13132769Y27457872D01*
X13106147Y27502315D01*
X13083732Y27548653D01*
X13066416Y27593729D01*
X13053560Y27640347D01*
X13044524Y27691313D01*
X13038668Y27749431D01*
X13035528Y27811957D01*
X13034685Y27884030D01*
X13037505Y27946557D01*
X13044336Y28002254D01*
X13055526Y28053835D01*
X13071421Y28104014D01*
X13073736Y28110270D01*
X13095182Y28161801D01*
X13118434Y28205007D01*
X13146252Y28244226D01*
X13181394Y28283797D01*
X13189153Y28291740D01*
X13217871Y28319366D01*
X13243248Y28340021D01*
X13269566Y28356892D01*
X13293928Y28369682D01*
X13368509Y28399892D01*
X13446627Y28418727D01*
X13529242Y28426338D01*
X13617315Y28422878D01*
G37*
X13617315Y28422878D02*
X13625691Y28422012D01*
X13658661Y28417730D01*
X13693062Y28412067D01*
X13726311Y28405588D01*
X13755825Y28398853D01*
X13779020Y28392426D01*
X13793312Y28386870D01*
X13796067Y28384901D01*
X13796221Y28377212D01*
X13793589Y28359194D01*
X13788573Y28332809D01*
X13781576Y28300023D01*
X13772999Y28262798D01*
X13763244Y28223098D01*
X13761785Y28217366D01*
X13757485Y28200556D01*
X13717755Y28213691D01*
X13699878Y28218930D01*
X13681291Y28222639D01*
X13659269Y28225079D01*
X13631089Y28226512D01*
X13594027Y28227200D01*
X13576123Y28227326D01*
X13474222Y28227825D01*
X13425808Y28203912D01*
X13378276Y28174406D01*
X13339126Y28136671D01*
X13307839Y28089978D01*
X13283896Y28033600D01*
X13270897Y27986525D01*
X13264238Y27945693D01*
X13260421Y27897304D01*
X13259406Y27845273D01*
X13261156Y27793515D01*
X13265632Y27745947D01*
X13272795Y27706482D01*
X13273682Y27703039D01*
X13296249Y27637649D01*
X13326314Y27582478D01*
X13363859Y27537546D01*
X13408864Y27502875D01*
X13461310Y27478484D01*
X13484350Y27471617D01*
X13527949Y27464532D01*
X13578003Y27462912D01*
X13629637Y27466478D01*
X13677980Y27474948D01*
X13709775Y27484589D01*
X13732738Y27493294D01*
X13751845Y27500405D01*
X13763297Y27504508D01*
X13763898Y27504706D01*
X13768439Y27503625D01*
X13773209Y27496359D01*
X13778788Y27481349D01*
X13785753Y27457035D01*
X13794683Y27421857D01*
X13794798Y27421391D01*
X13803122Y27387144D01*
X13808559Y27363113D01*
X13811316Y27347195D01*
X13811600Y27337290D01*
X13809617Y27331296D01*
X13805574Y27327111D01*
X13804174Y27326032D01*
X13788764Y27317479D01*
X13764566Y27307419D01*
X13735192Y27297086D01*
X13704257Y27287715D01*
X13675373Y27280541D01*
X13665325Y27278584D01*
X13633485Y27274374D01*
X13594633Y27271263D01*
X13552598Y27269358D01*
X13511213Y27268767D01*
X13474307Y27269598D01*
X13445712Y27271958D01*
X13443075Y27272340D01*
X13365130Y27289967D01*
X13294892Y27317494D01*
X13232596Y27354761D01*
X13178476Y27401607D01*
X13132769Y27457872D01*
X13106147Y27502315D01*
X13083732Y27548653D01*
X13066416Y27593729D01*
X13053560Y27640347D01*
X13044524Y27691313D01*
X13038668Y27749431D01*
X13035528Y27811957D01*
X13034685Y27884030D01*
X13037505Y27946557D01*
X13044336Y28002254D01*
X13055526Y28053835D01*
X13071421Y28104014D01*
X13073736Y28110270D01*
X13095182Y28161801D01*
X13118434Y28205007D01*
X13146252Y28244226D01*
X13181394Y28283797D01*
X13189153Y28291740D01*
X13217871Y28319366D01*
X13243248Y28340021D01*
X13269566Y28356892D01*
X13293928Y28369682D01*
X13368509Y28399892D01*
X13446627Y28418727D01*
X13529242Y28426338D01*
X13617315Y28422878D01*
G36*
X16405818Y28102139D02*
G01*
X16467345Y28088364D01*
X16520113Y28065409D01*
X16564154Y28033248D01*
X16599500Y27991859D01*
X16626184Y27941219D01*
X16644183Y27881560D01*
X16648359Y27851860D01*
X16650619Y27813565D01*
X16650992Y27770628D01*
X16649507Y27727002D01*
X16646193Y27686642D01*
X16642559Y27661088D01*
X16638858Y27640450D01*
X16162240Y27640450D01*
X16166331Y27601308D01*
X16171328Y27573262D01*
X16179636Y27544307D01*
X16185342Y27529871D01*
X16207104Y27492959D01*
X16234591Y27465536D01*
X16269233Y27446747D01*
X16312460Y27435735D01*
X16348509Y27432200D01*
X16400619Y27432406D01*
X16446590Y27439431D01*
X16491584Y27454301D01*
X16516409Y27465522D01*
X16537414Y27475558D01*
X16553310Y27482800D01*
X16561292Y27485980D01*
X16561717Y27485999D01*
X16564746Y27480227D01*
X16572279Y27465391D01*
X16583154Y27443791D01*
X16595160Y27419824D01*
X16627679Y27354773D01*
X16597477Y27335968D01*
X16548745Y27311297D01*
X16491275Y27291594D01*
X16428244Y27277429D01*
X16362830Y27269376D01*
X16298211Y27268007D01*
X16245774Y27272601D01*
X16181742Y27287661D01*
X16125385Y27312807D01*
X16076879Y27347875D01*
X16036400Y27392700D01*
X16004126Y27447118D01*
X15980234Y27510964D01*
X15977027Y27522709D01*
X15965710Y27581404D01*
X15959724Y27646874D01*
X15959073Y27714791D01*
X15963348Y27775043D01*
X16166079Y27775043D01*
X16168559Y27772354D01*
X16175226Y27770385D01*
X16187541Y27769024D01*
X16206966Y27768161D01*
X16234964Y27767685D01*
X16272996Y27767486D01*
X16312847Y27767450D01*
X16462500Y27767450D01*
X16462500Y27808000D01*
X16457248Y27851681D01*
X16442222Y27888021D01*
X16418512Y27916254D01*
X16387210Y27935616D01*
X16349405Y27945339D01*
X16306190Y27944659D01*
X16276588Y27938519D01*
X16246470Y27924118D01*
X16218728Y27899676D01*
X16195519Y27867849D01*
X16178997Y27831295D01*
X16173883Y27811900D01*
X16169968Y27793534D01*
X16166496Y27779189D01*
X16166323Y27778563D01*
X16166079Y27775043D01*
X15963348Y27775043D01*
X15963759Y27780827D01*
X15973785Y27840655D01*
X15976813Y27852956D01*
X15998834Y27914647D01*
X16030076Y27969088D01*
X16069693Y28015202D01*
X16116837Y28051912D01*
X16146062Y28067891D01*
X16185485Y28084829D01*
X16222165Y28096301D01*
X16260320Y28103172D01*
X16304166Y28106307D01*
X16335500Y28106755D01*
X16405818Y28102139D01*
G37*
X16405818Y28102139D02*
X16467345Y28088364D01*
X16520113Y28065409D01*
X16564154Y28033248D01*
X16599500Y27991859D01*
X16626184Y27941219D01*
X16644183Y27881560D01*
X16648359Y27851860D01*
X16650619Y27813565D01*
X16650992Y27770628D01*
X16649507Y27727002D01*
X16646193Y27686642D01*
X16642559Y27661088D01*
X16638858Y27640450D01*
X16162240Y27640450D01*
X16166331Y27601308D01*
X16171328Y27573262D01*
X16179636Y27544307D01*
X16185342Y27529871D01*
X16207104Y27492959D01*
X16234591Y27465536D01*
X16269233Y27446747D01*
X16312460Y27435735D01*
X16348509Y27432200D01*
X16400619Y27432406D01*
X16446590Y27439431D01*
X16491584Y27454301D01*
X16516409Y27465522D01*
X16537414Y27475558D01*
X16553310Y27482800D01*
X16561292Y27485980D01*
X16561717Y27485999D01*
X16564746Y27480227D01*
X16572279Y27465391D01*
X16583154Y27443791D01*
X16595160Y27419824D01*
X16627679Y27354773D01*
X16597477Y27335968D01*
X16548745Y27311297D01*
X16491275Y27291594D01*
X16428244Y27277429D01*
X16362830Y27269376D01*
X16298211Y27268007D01*
X16245774Y27272601D01*
X16181742Y27287661D01*
X16125385Y27312807D01*
X16076879Y27347875D01*
X16036400Y27392700D01*
X16004126Y27447118D01*
X15980234Y27510964D01*
X15977027Y27522709D01*
X15965710Y27581404D01*
X15959724Y27646874D01*
X15959073Y27714791D01*
X15963348Y27775043D01*
X16166079Y27775043D01*
X16168559Y27772354D01*
X16175226Y27770385D01*
X16187541Y27769024D01*
X16206966Y27768161D01*
X16234964Y27767685D01*
X16272996Y27767486D01*
X16312847Y27767450D01*
X16462500Y27767450D01*
X16462500Y27808000D01*
X16457248Y27851681D01*
X16442222Y27888021D01*
X16418512Y27916254D01*
X16387210Y27935616D01*
X16349405Y27945339D01*
X16306190Y27944659D01*
X16276588Y27938519D01*
X16246470Y27924118D01*
X16218728Y27899676D01*
X16195519Y27867849D01*
X16178997Y27831295D01*
X16173883Y27811900D01*
X16169968Y27793534D01*
X16166496Y27779189D01*
X16166323Y27778563D01*
X16166079Y27775043D01*
X15963348Y27775043D01*
X15963759Y27780827D01*
X15973785Y27840655D01*
X15976813Y27852956D01*
X15998834Y27914647D01*
X16030076Y27969088D01*
X16069693Y28015202D01*
X16116837Y28051912D01*
X16146062Y28067891D01*
X16185485Y28084829D01*
X16222165Y28096301D01*
X16260320Y28103172D01*
X16304166Y28106307D01*
X16335500Y28106755D01*
X16405818Y28102139D01*
G36*
X17747787Y28106212D02*
G01*
X17811403Y28093963D01*
X17870088Y28072708D01*
X17921994Y28042925D01*
X17957929Y28012749D01*
X17985323Y27979518D01*
X18011129Y27937452D01*
X18033367Y27890410D01*
X18050056Y27842251D01*
X18054500Y27824600D01*
X18060695Y27785749D01*
X18064309Y27739053D01*
X18065390Y27688290D01*
X18063985Y27637237D01*
X18060142Y27589671D01*
X18053906Y27549369D01*
X18050902Y27536679D01*
X18027637Y27469233D01*
X17996638Y27411764D01*
X17957616Y27363962D01*
X17910285Y27325518D01*
X17854357Y27296120D01*
X17815050Y27282246D01*
X17780256Y27274864D01*
X17737572Y27270268D01*
X17691533Y27268613D01*
X17646675Y27270055D01*
X17607532Y27274752D01*
X17605981Y27275041D01*
X17543724Y27292842D01*
X17488469Y27320869D01*
X17440559Y27358533D01*
X17400339Y27405247D01*
X17368153Y27460420D01*
X17344344Y27523465D01*
X17329257Y27593793D01*
X17323235Y27670816D01*
X17324058Y27691250D01*
X17539059Y27691250D01*
X17539226Y27651085D01*
X17539894Y27621103D01*
X17541317Y27598788D01*
X17543747Y27581626D01*
X17547437Y27567102D01*
X17552640Y27552702D01*
X17553100Y27551550D01*
X17573635Y27511710D01*
X17599369Y27479857D01*
X17628503Y27458134D01*
X17633625Y27455620D01*
X17665001Y27446611D01*
X17701467Y27444036D01*
X17737267Y27447902D01*
X17761129Y27455443D01*
X17781661Y27467876D01*
X17801826Y27484789D01*
X17806878Y27490121D01*
X17826844Y27521151D01*
X17841749Y27561302D01*
X17851613Y27608056D01*
X17856456Y27658895D01*
X17856297Y27711300D01*
X17851158Y27762754D01*
X17841057Y27810738D01*
X17826015Y27852734D01*
X17806052Y27886224D01*
X17803706Y27889103D01*
X17775463Y27912980D01*
X17739261Y27927520D01*
X17697575Y27932272D01*
X17653241Y27926682D01*
X17615154Y27910096D01*
X17583703Y27882787D01*
X17559282Y27845030D01*
X17553238Y27831341D01*
X17547864Y27816743D01*
X17544034Y27802311D01*
X17541495Y27785523D01*
X17539989Y27763856D01*
X17539263Y27734789D01*
X17539060Y27695799D01*
X17539059Y27691250D01*
X17324058Y27691250D01*
X17326559Y27753276D01*
X17338669Y27829638D01*
X17359620Y27897276D01*
X17389235Y27955976D01*
X17427337Y28005525D01*
X17473751Y28045706D01*
X17528301Y28076306D01*
X17590808Y28097110D01*
X17613151Y28101789D01*
X17681088Y28108980D01*
X17747787Y28106212D01*
G37*
X17747787Y28106212D02*
X17811403Y28093963D01*
X17870088Y28072708D01*
X17921994Y28042925D01*
X17957929Y28012749D01*
X17985323Y27979518D01*
X18011129Y27937452D01*
X18033367Y27890410D01*
X18050056Y27842251D01*
X18054500Y27824600D01*
X18060695Y27785749D01*
X18064309Y27739053D01*
X18065390Y27688290D01*
X18063985Y27637237D01*
X18060142Y27589671D01*
X18053906Y27549369D01*
X18050902Y27536679D01*
X18027637Y27469233D01*
X17996638Y27411764D01*
X17957616Y27363962D01*
X17910285Y27325518D01*
X17854357Y27296120D01*
X17815050Y27282246D01*
X17780256Y27274864D01*
X17737572Y27270268D01*
X17691533Y27268613D01*
X17646675Y27270055D01*
X17607532Y27274752D01*
X17605981Y27275041D01*
X17543724Y27292842D01*
X17488469Y27320869D01*
X17440559Y27358533D01*
X17400339Y27405247D01*
X17368153Y27460420D01*
X17344344Y27523465D01*
X17329257Y27593793D01*
X17323235Y27670816D01*
X17324058Y27691250D01*
X17539059Y27691250D01*
X17539226Y27651085D01*
X17539894Y27621103D01*
X17541317Y27598788D01*
X17543747Y27581626D01*
X17547437Y27567102D01*
X17552640Y27552702D01*
X17553100Y27551550D01*
X17573635Y27511710D01*
X17599369Y27479857D01*
X17628503Y27458134D01*
X17633625Y27455620D01*
X17665001Y27446611D01*
X17701467Y27444036D01*
X17737267Y27447902D01*
X17761129Y27455443D01*
X17781661Y27467876D01*
X17801826Y27484789D01*
X17806878Y27490121D01*
X17826844Y27521151D01*
X17841749Y27561302D01*
X17851613Y27608056D01*
X17856456Y27658895D01*
X17856297Y27711300D01*
X17851158Y27762754D01*
X17841057Y27810738D01*
X17826015Y27852734D01*
X17806052Y27886224D01*
X17803706Y27889103D01*
X17775463Y27912980D01*
X17739261Y27927520D01*
X17697575Y27932272D01*
X17653241Y27926682D01*
X17615154Y27910096D01*
X17583703Y27882787D01*
X17559282Y27845030D01*
X17553238Y27831341D01*
X17547864Y27816743D01*
X17544034Y27802311D01*
X17541495Y27785523D01*
X17539989Y27763856D01*
X17539263Y27734789D01*
X17539060Y27695799D01*
X17539059Y27691250D01*
X17324058Y27691250D01*
X17326559Y27753276D01*
X17338669Y27829638D01*
X17359620Y27897276D01*
X17389235Y27955976D01*
X17427337Y28005525D01*
X17473751Y28045706D01*
X17528301Y28076306D01*
X17590808Y28097110D01*
X17613151Y28101789D01*
X17681088Y28108980D01*
X17747787Y28106212D01*
G36*
X20395737Y28106212D02*
G01*
X20459353Y28093963D01*
X20518038Y28072708D01*
X20569944Y28042925D01*
X20605879Y28012749D01*
X20633273Y27979518D01*
X20659079Y27937452D01*
X20681317Y27890410D01*
X20698006Y27842251D01*
X20702450Y27824600D01*
X20708645Y27785749D01*
X20712259Y27739053D01*
X20713340Y27688290D01*
X20711935Y27637237D01*
X20708092Y27589671D01*
X20701856Y27549369D01*
X20698852Y27536679D01*
X20675587Y27469233D01*
X20644588Y27411764D01*
X20605566Y27363962D01*
X20558235Y27325518D01*
X20502307Y27296120D01*
X20463000Y27282246D01*
X20428206Y27274864D01*
X20385522Y27270268D01*
X20339483Y27268613D01*
X20294625Y27270055D01*
X20255482Y27274752D01*
X20253931Y27275041D01*
X20191674Y27292842D01*
X20136419Y27320869D01*
X20088509Y27358533D01*
X20048289Y27405247D01*
X20016103Y27460420D01*
X19992294Y27523465D01*
X19977207Y27593793D01*
X19971185Y27670816D01*
X19972008Y27691250D01*
X20187009Y27691250D01*
X20187176Y27651085D01*
X20187844Y27621103D01*
X20189267Y27598788D01*
X20191697Y27581626D01*
X20195387Y27567102D01*
X20200590Y27552702D01*
X20201050Y27551550D01*
X20221585Y27511710D01*
X20247319Y27479857D01*
X20276453Y27458134D01*
X20281575Y27455620D01*
X20312951Y27446611D01*
X20349417Y27444036D01*
X20385217Y27447902D01*
X20409079Y27455443D01*
X20429611Y27467876D01*
X20449776Y27484789D01*
X20454828Y27490121D01*
X20474794Y27521151D01*
X20489699Y27561302D01*
X20499563Y27608056D01*
X20504406Y27658895D01*
X20504247Y27711300D01*
X20499108Y27762754D01*
X20489007Y27810738D01*
X20473965Y27852734D01*
X20454002Y27886224D01*
X20451656Y27889103D01*
X20423413Y27912980D01*
X20387211Y27927520D01*
X20345525Y27932272D01*
X20301191Y27926682D01*
X20263104Y27910096D01*
X20231653Y27882787D01*
X20207232Y27845030D01*
X20201188Y27831341D01*
X20195814Y27816743D01*
X20191984Y27802311D01*
X20189445Y27785523D01*
X20187939Y27763856D01*
X20187213Y27734789D01*
X20187010Y27695799D01*
X20187009Y27691250D01*
X19972008Y27691250D01*
X19974509Y27753276D01*
X19986619Y27829638D01*
X20007570Y27897276D01*
X20037185Y27955976D01*
X20075287Y28005525D01*
X20121701Y28045706D01*
X20176251Y28076306D01*
X20238758Y28097110D01*
X20261101Y28101789D01*
X20329038Y28108980D01*
X20395737Y28106212D01*
G37*
X20395737Y28106212D02*
X20459353Y28093963D01*
X20518038Y28072708D01*
X20569944Y28042925D01*
X20605879Y28012749D01*
X20633273Y27979518D01*
X20659079Y27937452D01*
X20681317Y27890410D01*
X20698006Y27842251D01*
X20702450Y27824600D01*
X20708645Y27785749D01*
X20712259Y27739053D01*
X20713340Y27688290D01*
X20711935Y27637237D01*
X20708092Y27589671D01*
X20701856Y27549369D01*
X20698852Y27536679D01*
X20675587Y27469233D01*
X20644588Y27411764D01*
X20605566Y27363962D01*
X20558235Y27325518D01*
X20502307Y27296120D01*
X20463000Y27282246D01*
X20428206Y27274864D01*
X20385522Y27270268D01*
X20339483Y27268613D01*
X20294625Y27270055D01*
X20255482Y27274752D01*
X20253931Y27275041D01*
X20191674Y27292842D01*
X20136419Y27320869D01*
X20088509Y27358533D01*
X20048289Y27405247D01*
X20016103Y27460420D01*
X19992294Y27523465D01*
X19977207Y27593793D01*
X19971185Y27670816D01*
X19972008Y27691250D01*
X20187009Y27691250D01*
X20187176Y27651085D01*
X20187844Y27621103D01*
X20189267Y27598788D01*
X20191697Y27581626D01*
X20195387Y27567102D01*
X20200590Y27552702D01*
X20201050Y27551550D01*
X20221585Y27511710D01*
X20247319Y27479857D01*
X20276453Y27458134D01*
X20281575Y27455620D01*
X20312951Y27446611D01*
X20349417Y27444036D01*
X20385217Y27447902D01*
X20409079Y27455443D01*
X20429611Y27467876D01*
X20449776Y27484789D01*
X20454828Y27490121D01*
X20474794Y27521151D01*
X20489699Y27561302D01*
X20499563Y27608056D01*
X20504406Y27658895D01*
X20504247Y27711300D01*
X20499108Y27762754D01*
X20489007Y27810738D01*
X20473965Y27852734D01*
X20454002Y27886224D01*
X20451656Y27889103D01*
X20423413Y27912980D01*
X20387211Y27927520D01*
X20345525Y27932272D01*
X20301191Y27926682D01*
X20263104Y27910096D01*
X20231653Y27882787D01*
X20207232Y27845030D01*
X20201188Y27831341D01*
X20195814Y27816743D01*
X20191984Y27802311D01*
X20189445Y27785523D01*
X20187939Y27763856D01*
X20187213Y27734789D01*
X20187010Y27695799D01*
X20187009Y27691250D01*
X19972008Y27691250D01*
X19974509Y27753276D01*
X19986619Y27829638D01*
X20007570Y27897276D01*
X20037185Y27955976D01*
X20075287Y28005525D01*
X20121701Y28045706D01*
X20176251Y28076306D01*
X20238758Y28097110D01*
X20261101Y28101789D01*
X20329038Y28108980D01*
X20395737Y28106212D01*
G36*
X22133518Y28102139D02*
G01*
X22195045Y28088364D01*
X22247813Y28065409D01*
X22291854Y28033248D01*
X22327200Y27991859D01*
X22353884Y27941219D01*
X22371883Y27881560D01*
X22376059Y27851860D01*
X22378319Y27813565D01*
X22378692Y27770628D01*
X22377207Y27727002D01*
X22373893Y27686642D01*
X22370259Y27661088D01*
X22366558Y27640450D01*
X21889940Y27640450D01*
X21894031Y27601308D01*
X21899028Y27573262D01*
X21907336Y27544307D01*
X21913042Y27529871D01*
X21934804Y27492959D01*
X21962291Y27465536D01*
X21996933Y27446747D01*
X22040160Y27435735D01*
X22076209Y27432200D01*
X22128319Y27432406D01*
X22174290Y27439431D01*
X22219284Y27454301D01*
X22244109Y27465522D01*
X22265114Y27475558D01*
X22281010Y27482800D01*
X22288992Y27485980D01*
X22289417Y27485999D01*
X22292446Y27480227D01*
X22299979Y27465391D01*
X22310854Y27443791D01*
X22322860Y27419824D01*
X22355379Y27354773D01*
X22325177Y27335968D01*
X22276445Y27311297D01*
X22218975Y27291594D01*
X22155944Y27277429D01*
X22090530Y27269376D01*
X22025911Y27268007D01*
X21973474Y27272601D01*
X21909448Y27287672D01*
X21853068Y27312845D01*
X21804531Y27347939D01*
X21764032Y27392772D01*
X21731767Y27447161D01*
X21707934Y27510923D01*
X21704856Y27522216D01*
X21693055Y27583438D01*
X21687015Y27651091D01*
X21686741Y27720817D01*
X21691159Y27775043D01*
X21893779Y27775043D01*
X21896259Y27772354D01*
X21902926Y27770385D01*
X21915241Y27769024D01*
X21934666Y27768161D01*
X21962664Y27767685D01*
X22000696Y27767486D01*
X22040547Y27767450D01*
X22190200Y27767450D01*
X22190200Y27808000D01*
X22184948Y27851681D01*
X22169922Y27888021D01*
X22146212Y27916254D01*
X22114910Y27935616D01*
X22077105Y27945339D01*
X22033890Y27944659D01*
X22004288Y27938519D01*
X21974170Y27924118D01*
X21946428Y27899676D01*
X21923219Y27867849D01*
X21906697Y27831295D01*
X21901583Y27811900D01*
X21897668Y27793534D01*
X21894196Y27779189D01*
X21894023Y27778563D01*
X21893779Y27775043D01*
X21691159Y27775043D01*
X21692236Y27788257D01*
X21703505Y27849052D01*
X21704513Y27852956D01*
X21726534Y27914647D01*
X21757776Y27969088D01*
X21797393Y28015202D01*
X21844537Y28051912D01*
X21873762Y28067891D01*
X21913185Y28084829D01*
X21949865Y28096301D01*
X21988020Y28103172D01*
X22031866Y28106307D01*
X22063200Y28106755D01*
X22133518Y28102139D01*
G37*
X22133518Y28102139D02*
X22195045Y28088364D01*
X22247813Y28065409D01*
X22291854Y28033248D01*
X22327200Y27991859D01*
X22353884Y27941219D01*
X22371883Y27881560D01*
X22376059Y27851860D01*
X22378319Y27813565D01*
X22378692Y27770628D01*
X22377207Y27727002D01*
X22373893Y27686642D01*
X22370259Y27661088D01*
X22366558Y27640450D01*
X21889940Y27640450D01*
X21894031Y27601308D01*
X21899028Y27573262D01*
X21907336Y27544307D01*
X21913042Y27529871D01*
X21934804Y27492959D01*
X21962291Y27465536D01*
X21996933Y27446747D01*
X22040160Y27435735D01*
X22076209Y27432200D01*
X22128319Y27432406D01*
X22174290Y27439431D01*
X22219284Y27454301D01*
X22244109Y27465522D01*
X22265114Y27475558D01*
X22281010Y27482800D01*
X22288992Y27485980D01*
X22289417Y27485999D01*
X22292446Y27480227D01*
X22299979Y27465391D01*
X22310854Y27443791D01*
X22322860Y27419824D01*
X22355379Y27354773D01*
X22325177Y27335968D01*
X22276445Y27311297D01*
X22218975Y27291594D01*
X22155944Y27277429D01*
X22090530Y27269376D01*
X22025911Y27268007D01*
X21973474Y27272601D01*
X21909448Y27287672D01*
X21853068Y27312845D01*
X21804531Y27347939D01*
X21764032Y27392772D01*
X21731767Y27447161D01*
X21707934Y27510923D01*
X21704856Y27522216D01*
X21693055Y27583438D01*
X21687015Y27651091D01*
X21686741Y27720817D01*
X21691159Y27775043D01*
X21893779Y27775043D01*
X21896259Y27772354D01*
X21902926Y27770385D01*
X21915241Y27769024D01*
X21934666Y27768161D01*
X21962664Y27767685D01*
X22000696Y27767486D01*
X22040547Y27767450D01*
X22190200Y27767450D01*
X22190200Y27808000D01*
X22184948Y27851681D01*
X22169922Y27888021D01*
X22146212Y27916254D01*
X22114910Y27935616D01*
X22077105Y27945339D01*
X22033890Y27944659D01*
X22004288Y27938519D01*
X21974170Y27924118D01*
X21946428Y27899676D01*
X21923219Y27867849D01*
X21906697Y27831295D01*
X21901583Y27811900D01*
X21897668Y27793534D01*
X21894196Y27779189D01*
X21894023Y27778563D01*
X21893779Y27775043D01*
X21691159Y27775043D01*
X21692236Y27788257D01*
X21703505Y27849052D01*
X21704513Y27852956D01*
X21726534Y27914647D01*
X21757776Y27969088D01*
X21797393Y28015202D01*
X21844537Y28051912D01*
X21873762Y28067891D01*
X21913185Y28084829D01*
X21949865Y28096301D01*
X21988020Y28103172D01*
X22031866Y28106307D01*
X22063200Y28106755D01*
X22133518Y28102139D01*
G36*
X22841975Y28105174D02*
G01*
X22907165Y28094614D01*
X22967709Y28078071D01*
X22993721Y28069199D01*
X23015653Y28061265D01*
X23030342Y28055434D01*
X23034126Y28053586D01*
X23037228Y28049093D01*
X23037383Y28039824D01*
X23034249Y28023825D01*
X23027483Y27999143D01*
X23020548Y27976125D01*
X23009659Y27942939D01*
X23000536Y27919759D01*
X22993569Y27907499D01*
X22990524Y27905776D01*
X22981209Y27908298D01*
X22962976Y27913512D01*
X22939079Y27920481D01*
X22927748Y27923822D01*
X22884326Y27934542D01*
X22841061Y27941408D01*
X22800853Y27944221D01*
X22766603Y27942778D01*
X22741211Y27936882D01*
X22740833Y27936725D01*
X22718941Y27921273D01*
X22704725Y27898485D01*
X22700226Y27872246D01*
X22701535Y27861969D01*
X22707450Y27847776D01*
X22719594Y27834142D01*
X22739293Y27820213D01*
X22767870Y27805139D01*
X22806650Y27788068D01*
X22832926Y27777473D01*
X22865348Y27764501D01*
X22895317Y27752160D01*
X22919950Y27741660D01*
X22936364Y27734213D01*
X22938910Y27732936D01*
X22965957Y27714842D01*
X22994407Y27689379D01*
X23020193Y27660640D01*
X23039250Y27632716D01*
X23040146Y27631051D01*
X23047371Y27616402D01*
X23052163Y27602951D01*
X23055002Y27587558D01*
X23056370Y27567083D01*
X23056750Y27538383D01*
X23056730Y27522975D01*
X23056357Y27489257D01*
X23055155Y27464890D01*
X23052620Y27446530D01*
X23048245Y27430831D01*
X23041527Y27414450D01*
X23039762Y27410590D01*
X23015428Y27370788D01*
X22982429Y27335187D01*
X22944322Y27307363D01*
X22929410Y27299650D01*
X22881578Y27282933D01*
X22825555Y27272060D01*
X22764594Y27267366D01*
X22701948Y27269187D01*
X22669625Y27272844D01*
X22638610Y27278625D01*
X22605286Y27287014D01*
X22571924Y27297173D01*
X22540800Y27308261D01*
X22514186Y27319439D01*
X22494357Y27329867D01*
X22483586Y27338705D01*
X22482300Y27342022D01*
X22484391Y27349765D01*
X22489943Y27366313D01*
X22497874Y27388728D01*
X22507100Y27414072D01*
X22516539Y27439409D01*
X22525109Y27461801D01*
X22531725Y27478310D01*
X22535306Y27486001D01*
X22535426Y27486144D01*
X22541807Y27484829D01*
X22556285Y27479304D01*
X22572389Y27472267D01*
X22612704Y27456631D01*
X22657726Y27443746D01*
X22702471Y27434795D01*
X22741955Y27430962D01*
X22746712Y27430900D01*
X22789070Y27434611D01*
X22821324Y27445682D01*
X22843342Y27464019D01*
X22854991Y27489530D01*
X22856950Y27508547D01*
X22854797Y27526355D01*
X22847502Y27542215D01*
X22833811Y27557048D01*
X22812467Y27571774D01*
X22782215Y27587313D01*
X22741801Y27604585D01*
X22707946Y27617762D01*
X22647199Y27643645D01*
X22598185Y27671210D01*
X22559955Y27701468D01*
X22531557Y27735431D01*
X22512044Y27774109D01*
X22500465Y27818513D01*
X22497479Y27841803D01*
X22497387Y27893916D01*
X22506272Y27943917D01*
X22523276Y27989393D01*
X22547540Y28027932D01*
X22572600Y28052939D01*
X22612469Y28076979D01*
X22661280Y28094346D01*
X22717094Y28104917D01*
X22777972Y28108567D01*
X22841975Y28105174D01*
G37*
X22841975Y28105174D02*
X22907165Y28094614D01*
X22967709Y28078071D01*
X22993721Y28069199D01*
X23015653Y28061265D01*
X23030342Y28055434D01*
X23034126Y28053586D01*
X23037228Y28049093D01*
X23037383Y28039824D01*
X23034249Y28023825D01*
X23027483Y27999143D01*
X23020548Y27976125D01*
X23009659Y27942939D01*
X23000536Y27919759D01*
X22993569Y27907499D01*
X22990524Y27905776D01*
X22981209Y27908298D01*
X22962976Y27913512D01*
X22939079Y27920481D01*
X22927748Y27923822D01*
X22884326Y27934542D01*
X22841061Y27941408D01*
X22800853Y27944221D01*
X22766603Y27942778D01*
X22741211Y27936882D01*
X22740833Y27936725D01*
X22718941Y27921273D01*
X22704725Y27898485D01*
X22700226Y27872246D01*
X22701535Y27861969D01*
X22707450Y27847776D01*
X22719594Y27834142D01*
X22739293Y27820213D01*
X22767870Y27805139D01*
X22806650Y27788068D01*
X22832926Y27777473D01*
X22865348Y27764501D01*
X22895317Y27752160D01*
X22919950Y27741660D01*
X22936364Y27734213D01*
X22938910Y27732936D01*
X22965957Y27714842D01*
X22994407Y27689379D01*
X23020193Y27660640D01*
X23039250Y27632716D01*
X23040146Y27631051D01*
X23047371Y27616402D01*
X23052163Y27602951D01*
X23055002Y27587558D01*
X23056370Y27567083D01*
X23056750Y27538383D01*
X23056730Y27522975D01*
X23056357Y27489257D01*
X23055155Y27464890D01*
X23052620Y27446530D01*
X23048245Y27430831D01*
X23041527Y27414450D01*
X23039762Y27410590D01*
X23015428Y27370788D01*
X22982429Y27335187D01*
X22944322Y27307363D01*
X22929410Y27299650D01*
X22881578Y27282933D01*
X22825555Y27272060D01*
X22764594Y27267366D01*
X22701948Y27269187D01*
X22669625Y27272844D01*
X22638610Y27278625D01*
X22605286Y27287014D01*
X22571924Y27297173D01*
X22540800Y27308261D01*
X22514186Y27319439D01*
X22494357Y27329867D01*
X22483586Y27338705D01*
X22482300Y27342022D01*
X22484391Y27349765D01*
X22489943Y27366313D01*
X22497874Y27388728D01*
X22507100Y27414072D01*
X22516539Y27439409D01*
X22525109Y27461801D01*
X22531725Y27478310D01*
X22535306Y27486001D01*
X22535426Y27486144D01*
X22541807Y27484829D01*
X22556285Y27479304D01*
X22572389Y27472267D01*
X22612704Y27456631D01*
X22657726Y27443746D01*
X22702471Y27434795D01*
X22741955Y27430962D01*
X22746712Y27430900D01*
X22789070Y27434611D01*
X22821324Y27445682D01*
X22843342Y27464019D01*
X22854991Y27489530D01*
X22856950Y27508547D01*
X22854797Y27526355D01*
X22847502Y27542215D01*
X22833811Y27557048D01*
X22812467Y27571774D01*
X22782215Y27587313D01*
X22741801Y27604585D01*
X22707946Y27617762D01*
X22647199Y27643645D01*
X22598185Y27671210D01*
X22559955Y27701468D01*
X22531557Y27735431D01*
X22512044Y27774109D01*
X22500465Y27818513D01*
X22497479Y27841803D01*
X22497387Y27893916D01*
X22506272Y27943917D01*
X22523276Y27989393D01*
X22547540Y28027932D01*
X22572600Y28052939D01*
X22612469Y28076979D01*
X22661280Y28094346D01*
X22717094Y28104917D01*
X22777972Y28108567D01*
X22841975Y28105174D01*
G36*
X19808824Y27981763D02*
G01*
X19808751Y27891884D01*
X19808560Y27813719D01*
X19808206Y27746283D01*
X19807643Y27688590D01*
X19806827Y27639654D01*
X19805711Y27598490D01*
X19804250Y27564113D01*
X19802400Y27535536D01*
X19800115Y27511774D01*
X19797349Y27491842D01*
X19794058Y27474754D01*
X19790195Y27459525D01*
X19785716Y27445168D01*
X19783927Y27439973D01*
X19762313Y27394660D01*
X19731840Y27353638D01*
X19694891Y27319383D01*
X19653850Y27294374D01*
X19637500Y27287748D01*
X19610836Y27281368D01*
X19575892Y27277046D01*
X19536950Y27275002D01*
X19498296Y27275455D01*
X19464215Y27278626D01*
X19463122Y27278795D01*
X19429363Y27285080D01*
X19399155Y27292545D01*
X19374928Y27300429D01*
X19359112Y27307975D01*
X19354295Y27312777D01*
X19354820Y27321080D01*
X19357986Y27338864D01*
X19363145Y27363344D01*
X19369651Y27391732D01*
X19376856Y27421243D01*
X19384115Y27449092D01*
X19390779Y27472491D01*
X19393085Y27479832D01*
X19397932Y27483592D01*
X19409963Y27482092D01*
X19424821Y27477527D01*
X19463261Y27470218D01*
X19495815Y27470225D01*
X19519503Y27472389D01*
X19534845Y27476251D01*
X19546194Y27483462D01*
X19555395Y27492829D01*
X19561880Y27500205D01*
X19567483Y27507406D01*
X19572273Y27515375D01*
X19576319Y27525052D01*
X19579690Y27537382D01*
X19582457Y27553306D01*
X19584689Y27573767D01*
X19586456Y27599707D01*
X19587826Y27632069D01*
X19588870Y27671795D01*
X19589658Y27719827D01*
X19590257Y27777109D01*
X19590739Y27844583D01*
X19591172Y27923190D01*
X19591466Y27981763D01*
X19593561Y28402450D01*
X19808950Y28402450D01*
X19808824Y27981763D01*
G37*
X19808824Y27981763D02*
X19808751Y27891884D01*
X19808560Y27813719D01*
X19808206Y27746283D01*
X19807643Y27688590D01*
X19806827Y27639654D01*
X19805711Y27598490D01*
X19804250Y27564113D01*
X19802400Y27535536D01*
X19800115Y27511774D01*
X19797349Y27491842D01*
X19794058Y27474754D01*
X19790195Y27459525D01*
X19785716Y27445168D01*
X19783927Y27439973D01*
X19762313Y27394660D01*
X19731840Y27353638D01*
X19694891Y27319383D01*
X19653850Y27294374D01*
X19637500Y27287748D01*
X19610836Y27281368D01*
X19575892Y27277046D01*
X19536950Y27275002D01*
X19498296Y27275455D01*
X19464215Y27278626D01*
X19463122Y27278795D01*
X19429363Y27285080D01*
X19399155Y27292545D01*
X19374928Y27300429D01*
X19359112Y27307975D01*
X19354295Y27312777D01*
X19354820Y27321080D01*
X19357986Y27338864D01*
X19363145Y27363344D01*
X19369651Y27391732D01*
X19376856Y27421243D01*
X19384115Y27449092D01*
X19390779Y27472491D01*
X19393085Y27479832D01*
X19397932Y27483592D01*
X19409963Y27482092D01*
X19424821Y27477527D01*
X19463261Y27470218D01*
X19495815Y27470225D01*
X19519503Y27472389D01*
X19534845Y27476251D01*
X19546194Y27483462D01*
X19555395Y27492829D01*
X19561880Y27500205D01*
X19567483Y27507406D01*
X19572273Y27515375D01*
X19576319Y27525052D01*
X19579690Y27537382D01*
X19582457Y27553306D01*
X19584689Y27573767D01*
X19586456Y27599707D01*
X19587826Y27632069D01*
X19588870Y27671795D01*
X19589658Y27719827D01*
X19590257Y27777109D01*
X19590739Y27844583D01*
X19591172Y27923190D01*
X19591466Y27981763D01*
X19593561Y28402450D01*
X19808950Y28402450D01*
X19808824Y27981763D01*
G36*
X14285365Y28100195D02*
G01*
X14314855Y28099309D01*
X14337982Y28097257D01*
X14357911Y28093726D01*
X14377802Y28088405D01*
X14383256Y28086722D01*
X14432638Y28066064D01*
X14472144Y28037826D01*
X14502740Y28001039D01*
X14525394Y27954734D01*
X14530767Y27938900D01*
X14534400Y27925522D01*
X14537025Y27910860D01*
X14538729Y27892919D01*
X14539601Y27869702D01*
X14539729Y27839214D01*
X14539200Y27799458D01*
X14538470Y27764275D01*
X14536689Y27670951D01*
X14535849Y27589833D01*
X14535961Y27520465D01*
X14537034Y27462387D01*
X14539078Y27415142D01*
X14542102Y27378271D01*
X14546115Y27351316D01*
X14547203Y27346369D01*
X14552344Y27323969D01*
X14556035Y27306360D01*
X14557498Y27297259D01*
X14557500Y27297156D01*
X14551500Y27294829D01*
X14534895Y27292959D01*
X14509777Y27291700D01*
X14478237Y27291203D01*
X14475832Y27291200D01*
X14394164Y27291200D01*
X14379641Y27342207D01*
X14372431Y27365961D01*
X14365937Y27384604D01*
X14361258Y27395061D01*
X14360303Y27396190D01*
X14353983Y27393346D01*
X14341122Y27383229D01*
X14323997Y27367706D01*
X14315207Y27359159D01*
X14279378Y27327542D01*
X14244118Y27305611D01*
X14205440Y27291196D01*
X14179751Y27285402D01*
X14134006Y27279703D01*
X14091616Y27281106D01*
X14055850Y27287282D01*
X14004322Y27303740D01*
X13961930Y27328652D01*
X13927751Y27362720D01*
X13902129Y27404040D01*
X13892410Y27424744D01*
X13886277Y27441758D01*
X13882914Y27459234D01*
X13881502Y27481322D01*
X13881225Y27510247D01*
X13881541Y27540525D01*
X13881931Y27546202D01*
X14087600Y27546202D01*
X14093141Y27515646D01*
X14108240Y27488555D01*
X14130603Y27468927D01*
X14132441Y27467904D01*
X14157826Y27459566D01*
X14190133Y27456488D01*
X14224657Y27458824D01*
X14248788Y27464105D01*
X14270922Y27474696D01*
X14296150Y27493188D01*
X14308262Y27504152D01*
X14341600Y27536394D01*
X14341600Y27639672D01*
X14313901Y27643826D01*
X14287854Y27645208D01*
X14254545Y27643482D01*
X14218541Y27639237D01*
X14184412Y27633062D01*
X14156727Y27625547D01*
X14149093Y27622572D01*
X14119910Y27604825D01*
X14099140Y27582079D01*
X14088570Y27556555D01*
X14087600Y27546202D01*
X13881931Y27546202D01*
X13883035Y27562264D01*
X13886527Y27579619D01*
X13892836Y27596747D01*
X13902178Y27616583D01*
X13927748Y27656653D01*
X13962054Y27690158D01*
X14005590Y27717310D01*
X14058849Y27738322D01*
X14122326Y27753408D01*
X14196513Y27762781D01*
X14247937Y27765809D01*
X14341600Y27769295D01*
X14341600Y27813451D01*
X14338397Y27853742D01*
X14328520Y27883972D01*
X14311566Y27905120D01*
X14301056Y27912193D01*
X14281939Y27918301D01*
X14253131Y27922055D01*
X14217407Y27923526D01*
X14177543Y27922784D01*
X14136315Y27919900D01*
X14096498Y27914944D01*
X14060867Y27907987D01*
X14052675Y27905871D01*
X14026417Y27898487D01*
X14004121Y27891891D01*
X13989141Y27887091D01*
X13985548Y27885726D01*
X13980715Y27885850D01*
X13975614Y27891752D01*
X13969479Y27905076D01*
X13961544Y27927467D01*
X13951696Y27958462D01*
X13943081Y27987950D01*
X13936700Y28013050D01*
X13933108Y28031306D01*
X13932861Y28040265D01*
X13933097Y28040613D01*
X13943304Y28046054D01*
X13963146Y28053445D01*
X13989862Y28061972D01*
X14020690Y28070822D01*
X14052868Y28079181D01*
X14083637Y28086237D01*
X14097125Y28088927D01*
X14135925Y28094405D01*
X14183416Y28098233D01*
X14235662Y28100110D01*
X14246350Y28100226D01*
X14285365Y28100195D01*
G37*
X14285365Y28100195D02*
X14314855Y28099309D01*
X14337982Y28097257D01*
X14357911Y28093726D01*
X14377802Y28088405D01*
X14383256Y28086722D01*
X14432638Y28066064D01*
X14472144Y28037826D01*
X14502740Y28001039D01*
X14525394Y27954734D01*
X14530767Y27938900D01*
X14534400Y27925522D01*
X14537025Y27910860D01*
X14538729Y27892919D01*
X14539601Y27869702D01*
X14539729Y27839214D01*
X14539200Y27799458D01*
X14538470Y27764275D01*
X14536689Y27670951D01*
X14535849Y27589833D01*
X14535961Y27520465D01*
X14537034Y27462387D01*
X14539078Y27415142D01*
X14542102Y27378271D01*
X14546115Y27351316D01*
X14547203Y27346369D01*
X14552344Y27323969D01*
X14556035Y27306360D01*
X14557498Y27297259D01*
X14557500Y27297156D01*
X14551500Y27294829D01*
X14534895Y27292959D01*
X14509777Y27291700D01*
X14478237Y27291203D01*
X14475832Y27291200D01*
X14394164Y27291200D01*
X14379641Y27342207D01*
X14372431Y27365961D01*
X14365937Y27384604D01*
X14361258Y27395061D01*
X14360303Y27396190D01*
X14353983Y27393346D01*
X14341122Y27383229D01*
X14323997Y27367706D01*
X14315207Y27359159D01*
X14279378Y27327542D01*
X14244118Y27305611D01*
X14205440Y27291196D01*
X14179751Y27285402D01*
X14134006Y27279703D01*
X14091616Y27281106D01*
X14055850Y27287282D01*
X14004322Y27303740D01*
X13961930Y27328652D01*
X13927751Y27362720D01*
X13902129Y27404040D01*
X13892410Y27424744D01*
X13886277Y27441758D01*
X13882914Y27459234D01*
X13881502Y27481322D01*
X13881225Y27510247D01*
X13881541Y27540525D01*
X13881931Y27546202D01*
X14087600Y27546202D01*
X14093141Y27515646D01*
X14108240Y27488555D01*
X14130603Y27468927D01*
X14132441Y27467904D01*
X14157826Y27459566D01*
X14190133Y27456488D01*
X14224657Y27458824D01*
X14248788Y27464105D01*
X14270922Y27474696D01*
X14296150Y27493188D01*
X14308262Y27504152D01*
X14341600Y27536394D01*
X14341600Y27639672D01*
X14313901Y27643826D01*
X14287854Y27645208D01*
X14254545Y27643482D01*
X14218541Y27639237D01*
X14184412Y27633062D01*
X14156727Y27625547D01*
X14149093Y27622572D01*
X14119910Y27604825D01*
X14099140Y27582079D01*
X14088570Y27556555D01*
X14087600Y27546202D01*
X13881931Y27546202D01*
X13883035Y27562264D01*
X13886527Y27579619D01*
X13892836Y27596747D01*
X13902178Y27616583D01*
X13927748Y27656653D01*
X13962054Y27690158D01*
X14005590Y27717310D01*
X14058849Y27738322D01*
X14122326Y27753408D01*
X14196513Y27762781D01*
X14247937Y27765809D01*
X14341600Y27769295D01*
X14341600Y27813451D01*
X14338397Y27853742D01*
X14328520Y27883972D01*
X14311566Y27905120D01*
X14301056Y27912193D01*
X14281939Y27918301D01*
X14253131Y27922055D01*
X14217407Y27923526D01*
X14177543Y27922784D01*
X14136315Y27919900D01*
X14096498Y27914944D01*
X14060867Y27907987D01*
X14052675Y27905871D01*
X14026417Y27898487D01*
X14004121Y27891891D01*
X13989141Y27887091D01*
X13985548Y27885726D01*
X13980715Y27885850D01*
X13975614Y27891752D01*
X13969479Y27905076D01*
X13961544Y27927467D01*
X13951696Y27958462D01*
X13943081Y27987950D01*
X13936700Y28013050D01*
X13933108Y28031306D01*
X13932861Y28040265D01*
X13933097Y28040613D01*
X13943304Y28046054D01*
X13963146Y28053445D01*
X13989862Y28061972D01*
X14020690Y28070822D01*
X14052868Y28079181D01*
X14083637Y28086237D01*
X14097125Y28088927D01*
X14135925Y28094405D01*
X14183416Y28098233D01*
X14235662Y28100110D01*
X14246350Y28100226D01*
X14285365Y28100195D01*
G36*
X15211757Y28102137D02*
G01*
X15256177Y28085219D01*
X15293270Y28058520D01*
X15322407Y28022321D01*
X15332526Y28003496D01*
X15346488Y27973825D01*
X15356449Y27989700D01*
X15373726Y28012001D01*
X15397785Y28036503D01*
X15424617Y28059611D01*
X15450213Y28077727D01*
X15461429Y28083854D01*
X15513867Y28101688D01*
X15571451Y28108812D01*
X15609637Y28107619D01*
X15663402Y28099505D01*
X15706990Y28085253D01*
X15741726Y28064105D01*
X15768936Y28035302D01*
X15785883Y28006843D01*
X15793720Y27989973D01*
X15800360Y27973193D01*
X15805916Y27955287D01*
X15810503Y27935037D01*
X15814236Y27911227D01*
X15817229Y27882639D01*
X15819597Y27848056D01*
X15821455Y27806261D01*
X15822916Y27756037D01*
X15824096Y27696166D01*
X15825109Y27625431D01*
X15825597Y27584888D01*
X15828984Y27291200D01*
X15618569Y27291200D01*
X15616672Y27569013D01*
X15616194Y27635827D01*
X15615717Y27691171D01*
X15615180Y27736273D01*
X15614520Y27772363D01*
X15613676Y27800671D01*
X15612587Y27822424D01*
X15611192Y27838854D01*
X15609429Y27851188D01*
X15607237Y27860656D01*
X15604554Y27868488D01*
X15601344Y27875858D01*
X15584062Y27901619D01*
X15559797Y27917923D01*
X15527285Y27925472D01*
X15510423Y27926200D01*
X15469802Y27921128D01*
X15435874Y27905578D01*
X15407858Y27879055D01*
X15388697Y27848666D01*
X15385740Y27842218D01*
X15383309Y27834711D01*
X15381353Y27824912D01*
X15379820Y27811588D01*
X15378660Y27793507D01*
X15377821Y27769434D01*
X15377252Y27738138D01*
X15376902Y27698385D01*
X15376720Y27648941D01*
X15376654Y27588575D01*
X15376650Y27558153D01*
X15376650Y27291200D01*
X15167719Y27291200D01*
X15165822Y27569013D01*
X15165354Y27635660D01*
X15164900Y27690835D01*
X15164394Y27735767D01*
X15163771Y27771684D01*
X15162964Y27799815D01*
X15161909Y27821389D01*
X15160538Y27837632D01*
X15158787Y27849774D01*
X15156589Y27859043D01*
X15153879Y27866668D01*
X15150592Y27873876D01*
X15149356Y27876398D01*
X15130670Y27903115D01*
X15105512Y27919417D01*
X15072711Y27925991D01*
X15064498Y27926200D01*
X15029142Y27923401D01*
X15000298Y27913867D01*
X14974861Y27895897D01*
X14949723Y27867787D01*
X14943989Y27860160D01*
X14925800Y27835395D01*
X14925800Y27291200D01*
X14716250Y27291200D01*
X14716250Y28085330D01*
X14797068Y28083553D01*
X14877886Y28081775D01*
X14888724Y28035098D01*
X14894269Y28012349D01*
X14899012Y27994914D01*
X14902054Y27986062D01*
X14902333Y27985650D01*
X14907706Y27988591D01*
X14919790Y27998786D01*
X14936452Y28014375D01*
X14945792Y28023569D01*
X14984952Y28058151D01*
X15024053Y28082389D01*
X15066630Y28098120D01*
X15103446Y28105510D01*
X15160636Y28108994D01*
X15211757Y28102137D01*
G37*
X15211757Y28102137D02*
X15256177Y28085219D01*
X15293270Y28058520D01*
X15322407Y28022321D01*
X15332526Y28003496D01*
X15346488Y27973825D01*
X15356449Y27989700D01*
X15373726Y28012001D01*
X15397785Y28036503D01*
X15424617Y28059611D01*
X15450213Y28077727D01*
X15461429Y28083854D01*
X15513867Y28101688D01*
X15571451Y28108812D01*
X15609637Y28107619D01*
X15663402Y28099505D01*
X15706990Y28085253D01*
X15741726Y28064105D01*
X15768936Y28035302D01*
X15785883Y28006843D01*
X15793720Y27989973D01*
X15800360Y27973193D01*
X15805916Y27955287D01*
X15810503Y27935037D01*
X15814236Y27911227D01*
X15817229Y27882639D01*
X15819597Y27848056D01*
X15821455Y27806261D01*
X15822916Y27756037D01*
X15824096Y27696166D01*
X15825109Y27625431D01*
X15825597Y27584888D01*
X15828984Y27291200D01*
X15618569Y27291200D01*
X15616672Y27569013D01*
X15616194Y27635827D01*
X15615717Y27691171D01*
X15615180Y27736273D01*
X15614520Y27772363D01*
X15613676Y27800671D01*
X15612587Y27822424D01*
X15611192Y27838854D01*
X15609429Y27851188D01*
X15607237Y27860656D01*
X15604554Y27868488D01*
X15601344Y27875858D01*
X15584062Y27901619D01*
X15559797Y27917923D01*
X15527285Y27925472D01*
X15510423Y27926200D01*
X15469802Y27921128D01*
X15435874Y27905578D01*
X15407858Y27879055D01*
X15388697Y27848666D01*
X15385740Y27842218D01*
X15383309Y27834711D01*
X15381353Y27824912D01*
X15379820Y27811588D01*
X15378660Y27793507D01*
X15377821Y27769434D01*
X15377252Y27738138D01*
X15376902Y27698385D01*
X15376720Y27648941D01*
X15376654Y27588575D01*
X15376650Y27558153D01*
X15376650Y27291200D01*
X15167719Y27291200D01*
X15165822Y27569013D01*
X15165354Y27635660D01*
X15164900Y27690835D01*
X15164394Y27735767D01*
X15163771Y27771684D01*
X15162964Y27799815D01*
X15161909Y27821389D01*
X15160538Y27837632D01*
X15158787Y27849774D01*
X15156589Y27859043D01*
X15153879Y27866668D01*
X15150592Y27873876D01*
X15149356Y27876398D01*
X15130670Y27903115D01*
X15105512Y27919417D01*
X15072711Y27925991D01*
X15064498Y27926200D01*
X15029142Y27923401D01*
X15000298Y27913867D01*
X14974861Y27895897D01*
X14949723Y27867787D01*
X14943989Y27860160D01*
X14925800Y27835395D01*
X14925800Y27291200D01*
X14716250Y27291200D01*
X14716250Y28085330D01*
X14797068Y28083553D01*
X14877886Y28081775D01*
X14888724Y28035098D01*
X14894269Y28012349D01*
X14899012Y27994914D01*
X14902054Y27986062D01*
X14902333Y27985650D01*
X14907706Y27988591D01*
X14919790Y27998786D01*
X14936452Y28014375D01*
X14945792Y28023569D01*
X14984952Y28058151D01*
X15024053Y28082389D01*
X15066630Y28098120D01*
X15103446Y28105510D01*
X15160636Y28108994D01*
X15211757Y28102137D01*
G36*
X17189577Y28100806D02*
G01*
X17215041Y28097464D01*
X17237627Y28092689D01*
X17253906Y28087043D01*
X17260259Y28081889D01*
X17260476Y28073169D01*
X17259066Y28054912D01*
X17256406Y28029937D01*
X17252872Y28001065D01*
X17248843Y27971113D01*
X17244694Y27942901D01*
X17240803Y27919248D01*
X17237548Y27902973D01*
X17235538Y27897022D01*
X17227783Y27896348D01*
X17212769Y27898973D01*
X17207632Y27900302D01*
X17163366Y27907348D01*
X17120751Y27904307D01*
X17082005Y27891863D01*
X17049346Y27870700D01*
X17026918Y27844650D01*
X17008600Y27815764D01*
X17008600Y27291200D01*
X16799050Y27291200D01*
X16799050Y28085330D01*
X16879625Y28083553D01*
X16960200Y28081775D01*
X16967836Y28050025D01*
X16973176Y28027648D01*
X16977907Y28007527D01*
X16979457Y28000813D01*
X16984842Y27986592D01*
X16991578Y27984997D01*
X16999586Y27996036D01*
X17000939Y27998885D01*
X17021252Y28030103D01*
X17050936Y28058432D01*
X17086669Y28081498D01*
X17125134Y28096929D01*
X17143728Y28100948D01*
X17164663Y28102154D01*
X17189577Y28100806D01*
G37*
X17189577Y28100806D02*
X17215041Y28097464D01*
X17237627Y28092689D01*
X17253906Y28087043D01*
X17260259Y28081889D01*
X17260476Y28073169D01*
X17259066Y28054912D01*
X17256406Y28029937D01*
X17252872Y28001065D01*
X17248843Y27971113D01*
X17244694Y27942901D01*
X17240803Y27919248D01*
X17237548Y27902973D01*
X17235538Y27897022D01*
X17227783Y27896348D01*
X17212769Y27898973D01*
X17207632Y27900302D01*
X17163366Y27907348D01*
X17120751Y27904307D01*
X17082005Y27891863D01*
X17049346Y27870700D01*
X17026918Y27844650D01*
X17008600Y27815764D01*
X17008600Y27291200D01*
X16799050Y27291200D01*
X16799050Y28085330D01*
X16879625Y28083553D01*
X16960200Y28081775D01*
X16967836Y28050025D01*
X16973176Y28027648D01*
X16977907Y28007527D01*
X16979457Y28000813D01*
X16984842Y27986592D01*
X16991578Y27984997D01*
X16999586Y27996036D01*
X17000939Y27998885D01*
X17021252Y28030103D01*
X17050936Y28058432D01*
X17086669Y28081498D01*
X17125134Y28096929D01*
X17143728Y28100948D01*
X17164663Y28102154D01*
X17189577Y28100806D01*
G36*
X18680441Y28107611D02*
G01*
X18735506Y28099325D01*
X18780860Y28083672D01*
X18817550Y28060034D01*
X18846622Y28027794D01*
X18862856Y28000074D01*
X18871115Y27982370D01*
X18878081Y27964771D01*
X18883863Y27946044D01*
X18888570Y27924961D01*
X18892313Y27900291D01*
X18895199Y27870803D01*
X18897341Y27835268D01*
X18898845Y27792454D01*
X18899823Y27741133D01*
X18900384Y27680072D01*
X18900638Y27608043D01*
X18900678Y27575363D01*
X18900900Y27291200D01*
X18697700Y27291200D01*
X18697700Y27537984D01*
X18697582Y27608203D01*
X18697169Y27666987D01*
X18696370Y27715603D01*
X18695093Y27755313D01*
X18693247Y27787382D01*
X18690742Y27813075D01*
X18687485Y27833655D01*
X18683388Y27850389D01*
X18678357Y27864539D01*
X18673420Y27875204D01*
X18655144Y27897969D01*
X18627813Y27914887D01*
X18594282Y27924518D01*
X18572325Y27926200D01*
X18530747Y27921320D01*
X18494519Y27906119D01*
X18462141Y27879757D01*
X18439083Y27851598D01*
X18418300Y27822365D01*
X18418300Y27291200D01*
X18208750Y27291200D01*
X18208750Y28084950D01*
X18372983Y28084950D01*
X18383773Y28035738D01*
X18389106Y28012349D01*
X18393617Y27994254D01*
X18396505Y27984622D01*
X18396880Y27983906D01*
X18402154Y27986788D01*
X18414272Y27996722D01*
X18431025Y28011850D01*
X18438911Y28019303D01*
X18461502Y28039580D01*
X18485089Y28058589D01*
X18505164Y28072734D01*
X18508094Y28074507D01*
X18547247Y28091754D01*
X18593981Y28103324D01*
X18644151Y28108423D01*
X18680441Y28107611D01*
G37*
X18680441Y28107611D02*
X18735506Y28099325D01*
X18780860Y28083672D01*
X18817550Y28060034D01*
X18846622Y28027794D01*
X18862856Y28000074D01*
X18871115Y27982370D01*
X18878081Y27964771D01*
X18883863Y27946044D01*
X18888570Y27924961D01*
X18892313Y27900291D01*
X18895199Y27870803D01*
X18897341Y27835268D01*
X18898845Y27792454D01*
X18899823Y27741133D01*
X18900384Y27680072D01*
X18900638Y27608043D01*
X18900678Y27575363D01*
X18900900Y27291200D01*
X18697700Y27291200D01*
X18697700Y27537984D01*
X18697582Y27608203D01*
X18697169Y27666987D01*
X18696370Y27715603D01*
X18695093Y27755313D01*
X18693247Y27787382D01*
X18690742Y27813075D01*
X18687485Y27833655D01*
X18683388Y27850389D01*
X18678357Y27864539D01*
X18673420Y27875204D01*
X18655144Y27897969D01*
X18627813Y27914887D01*
X18594282Y27924518D01*
X18572325Y27926200D01*
X18530747Y27921320D01*
X18494519Y27906119D01*
X18462141Y27879757D01*
X18439083Y27851598D01*
X18418300Y27822365D01*
X18418300Y27291200D01*
X18208750Y27291200D01*
X18208750Y28084950D01*
X18372983Y28084950D01*
X18383773Y28035738D01*
X18389106Y28012349D01*
X18393617Y27994254D01*
X18396505Y27984622D01*
X18396880Y27983906D01*
X18402154Y27986788D01*
X18414272Y27996722D01*
X18431025Y28011850D01*
X18438911Y28019303D01*
X18461502Y28039580D01*
X18485089Y28058589D01*
X18505164Y28072734D01*
X18508094Y28074507D01*
X18547247Y28091754D01*
X18593981Y28103324D01*
X18644151Y28108423D01*
X18680441Y28107611D01*
G36*
X21328391Y28107611D02*
G01*
X21383456Y28099325D01*
X21428810Y28083672D01*
X21465500Y28060034D01*
X21494572Y28027794D01*
X21510806Y28000074D01*
X21519065Y27982370D01*
X21526031Y27964771D01*
X21531813Y27946044D01*
X21536520Y27924961D01*
X21540263Y27900291D01*
X21543149Y27870803D01*
X21545291Y27835268D01*
X21546795Y27792454D01*
X21547773Y27741133D01*
X21548334Y27680072D01*
X21548588Y27608043D01*
X21548628Y27575363D01*
X21548850Y27291200D01*
X21345650Y27291200D01*
X21345650Y27537984D01*
X21345532Y27608203D01*
X21345119Y27666987D01*
X21344320Y27715603D01*
X21343043Y27755313D01*
X21341197Y27787382D01*
X21338692Y27813075D01*
X21335435Y27833655D01*
X21331338Y27850389D01*
X21326307Y27864539D01*
X21321370Y27875204D01*
X21303094Y27897969D01*
X21275763Y27914887D01*
X21242232Y27924518D01*
X21220275Y27926200D01*
X21178697Y27921320D01*
X21142469Y27906119D01*
X21110091Y27879757D01*
X21087033Y27851598D01*
X21066250Y27822365D01*
X21066250Y27291200D01*
X20856700Y27291200D01*
X20856700Y28084950D01*
X21020933Y28084950D01*
X21031723Y28035738D01*
X21037056Y28012349D01*
X21041567Y27994254D01*
X21044455Y27984622D01*
X21044830Y27983906D01*
X21050104Y27986788D01*
X21062222Y27996722D01*
X21078975Y28011850D01*
X21086861Y28019303D01*
X21109452Y28039580D01*
X21133039Y28058589D01*
X21153114Y28072734D01*
X21156044Y28074507D01*
X21195197Y28091754D01*
X21241931Y28103324D01*
X21292101Y28108423D01*
X21328391Y28107611D01*
G37*
X21328391Y28107611D02*
X21383456Y28099325D01*
X21428810Y28083672D01*
X21465500Y28060034D01*
X21494572Y28027794D01*
X21510806Y28000074D01*
X21519065Y27982370D01*
X21526031Y27964771D01*
X21531813Y27946044D01*
X21536520Y27924961D01*
X21540263Y27900291D01*
X21543149Y27870803D01*
X21545291Y27835268D01*
X21546795Y27792454D01*
X21547773Y27741133D01*
X21548334Y27680072D01*
X21548588Y27608043D01*
X21548628Y27575363D01*
X21548850Y27291200D01*
X21345650Y27291200D01*
X21345650Y27537984D01*
X21345532Y27608203D01*
X21345119Y27666987D01*
X21344320Y27715603D01*
X21343043Y27755313D01*
X21341197Y27787382D01*
X21338692Y27813075D01*
X21335435Y27833655D01*
X21331338Y27850389D01*
X21326307Y27864539D01*
X21321370Y27875204D01*
X21303094Y27897969D01*
X21275763Y27914887D01*
X21242232Y27924518D01*
X21220275Y27926200D01*
X21178697Y27921320D01*
X21142469Y27906119D01*
X21110091Y27879757D01*
X21087033Y27851598D01*
X21066250Y27822365D01*
X21066250Y27291200D01*
X20856700Y27291200D01*
X20856700Y28084950D01*
X21020933Y28084950D01*
X21031723Y28035738D01*
X21037056Y28012349D01*
X21041567Y27994254D01*
X21044455Y27984622D01*
X21044830Y27983906D01*
X21050104Y27986788D01*
X21062222Y27996722D01*
X21078975Y28011850D01*
X21086861Y28019303D01*
X21109452Y28039580D01*
X21133039Y28058589D01*
X21153114Y28072734D01*
X21156044Y28074507D01*
X21195197Y28091754D01*
X21241931Y28103324D01*
X21292101Y28108423D01*
X21328391Y28107611D01*
D18*
X19900000Y33550000D02*
X18750000Y33550000D01*
X18750000Y33550000D02*
X18750000Y34700000D01*
X31100000Y33550000D02*
X32250000Y33550000D01*
X32250000Y33550000D02*
X32250000Y34700000D01*
X16300000Y25350000D02*
X17000000Y25350000D01*
X20000000Y25350000D02*
X20700000Y25350000D01*
X20000000Y20750000D02*
X20700000Y20750000D01*
X16300000Y20750000D02*
X17000000Y20750000D01*
X16300000Y20750000D02*
X16300000Y25350000D01*
X20700000Y25350000D02*
X20700000Y20750000D01*
X12162779Y39890000D02*
X11837221Y39890000D01*
X12162779Y40910000D02*
X11837221Y40910000D01*
X11837221Y39410000D02*
X12162779Y39410000D01*
X11837221Y38390000D02*
X12162779Y38390000D01*
X15830000Y11120000D02*
X13170000Y11120000D01*
X15830000Y5980000D02*
X15830000Y11120000D01*
X13170000Y5980000D02*
X13170000Y11120000D01*
X15830000Y5980000D02*
X13170000Y5980000D01*
X15830000Y4710000D02*
X15830000Y3380000D01*
X15830000Y3380000D02*
X14500000Y3380000D01*
X43587221Y33885000D02*
X43912779Y33885000D01*
X43587221Y32865000D02*
X43912779Y32865000D01*
X16237742Y42522500D02*
X16712258Y42522500D01*
X16237742Y41477500D02*
X16712258Y41477500D01*
X16615580Y40015000D02*
X16334420Y40015000D01*
X16615580Y41035000D02*
X16334420Y41035000D01*
X24987348Y18821555D02*
X25500000Y18308903D01*
X25500000Y25691097D02*
X24987348Y25178445D01*
X26012652Y25178445D02*
X25500000Y25691097D01*
X29191097Y22000000D02*
X28678445Y21487348D01*
X28678445Y22512652D02*
X29191097Y22000000D01*
X21808903Y22000000D02*
X22321555Y22512652D01*
X22321555Y21487348D02*
X21808903Y22000000D01*
X40740000Y26859420D02*
X40740000Y27140580D01*
X41760000Y26859420D02*
X41760000Y27140580D01*
X14210000Y19365000D02*
X14210000Y18890000D01*
X14210000Y18890000D02*
X13735000Y18890000D01*
X10990000Y21635000D02*
X10990000Y22110000D01*
X10990000Y22110000D02*
X11465000Y22110000D01*
X10990000Y19365000D02*
X10990000Y18890000D01*
X10990000Y18890000D02*
X11465000Y18890000D01*
X14210000Y21635000D02*
X14210000Y22110000D01*
X4420000Y31910000D02*
X5750000Y31910000D01*
X4420000Y30580000D02*
X4420000Y31910000D01*
X5750000Y31910000D02*
X9620000Y31910000D01*
X9620000Y31910000D02*
X9620000Y19090000D01*
X4420000Y30580000D02*
X4420000Y19090000D01*
X4420000Y19090000D02*
X9620000Y19090000D01*
X39090000Y41787221D02*
X39090000Y42112779D01*
X40110000Y41787221D02*
X40110000Y42112779D01*
X37590000Y41787221D02*
X37590000Y42112779D01*
X38610000Y41787221D02*
X38610000Y42112779D01*
X36090000Y41787221D02*
X36090000Y42112779D01*
X37110000Y41787221D02*
X37110000Y42112779D01*
X28254478Y24024273D02*
X28024273Y24254478D01*
X28975727Y24745522D02*
X28745522Y24975727D01*
X36660000Y11800000D02*
X36660000Y13700000D01*
X34340000Y13200000D02*
X34340000Y11800000D01*
X37450000Y10330000D02*
X37450000Y10450000D01*
X37450000Y8180000D02*
X37450000Y9320000D01*
X37450000Y7050000D02*
X37450000Y7170000D01*
X33050000Y7050000D02*
X37450000Y7050000D01*
X33050000Y7170000D02*
X33050000Y7050000D01*
X33050000Y9320000D02*
X33050000Y8180000D01*
X33050000Y10450000D02*
X33050000Y10330000D01*
X37450000Y10450000D02*
X33050000Y10450000D01*
X37450000Y6450000D02*
X33050000Y6450000D01*
X33050000Y6450000D02*
X33050000Y6330000D01*
X33050000Y5320000D02*
X33050000Y4180000D01*
X33050000Y3170000D02*
X33050000Y3050000D01*
X33050000Y3050000D02*
X37450000Y3050000D01*
X37450000Y3050000D02*
X37450000Y3170000D01*
X37450000Y4180000D02*
X37450000Y5320000D01*
X37450000Y6330000D02*
X37450000Y6450000D01*
X31161219Y23160030D02*
X31360030Y22961219D01*
X30439970Y22438781D02*
X30638781Y22239970D01*
D17*
G36*
X19885523Y31449986D02*
G01*
X20026147Y31425495D01*
X20163556Y31387561D01*
X20294895Y31336685D01*
X20298214Y31335189D01*
X20343986Y31311630D01*
X20395268Y31280602D01*
X20447433Y31245292D01*
X20495853Y31208886D01*
X20535901Y31174573D01*
X20546650Y31164089D01*
X20592207Y31117678D01*
X20402161Y30927755D01*
X20212114Y30737832D01*
X20165104Y30785026D01*
X20098083Y30841219D01*
X20020853Y30886085D01*
X19934856Y30919080D01*
X19841536Y30939660D01*
X19742335Y30947279D01*
X19735125Y30947313D01*
X19632132Y30939965D01*
X19535141Y30918519D01*
X19444937Y30883869D01*
X19362304Y30836910D01*
X19288027Y30778537D01*
X19222892Y30709644D01*
X19167682Y30631127D01*
X19123184Y30543880D01*
X19090182Y30448798D01*
X19069462Y30346776D01*
X19061807Y30238709D01*
X19063199Y30181344D01*
X19076169Y30069987D01*
X19101924Y29966342D01*
X19140009Y29871151D01*
X19189965Y29785157D01*
X19251335Y29709103D01*
X19323663Y29643731D01*
X19406492Y29589784D01*
X19436851Y29574231D01*
X19489075Y29551114D01*
X19537411Y29534601D01*
X19587037Y29523471D01*
X19643131Y29516501D01*
X19695687Y29513119D01*
X19798345Y29514346D01*
X19892082Y29528310D01*
X19977969Y29555409D01*
X20057078Y29596046D01*
X20130481Y29650620D01*
X20173744Y29691785D01*
X20225594Y29745492D01*
X20421222Y29562575D01*
X20616850Y29379657D01*
X20547065Y29311757D01*
X20449583Y29227857D01*
X20342832Y29156539D01*
X20227497Y29098016D01*
X20104262Y29052502D01*
X19973810Y29020208D01*
X19836826Y29001349D01*
X19693992Y28996139D01*
X19558660Y29003518D01*
X19417554Y29024548D01*
X19282363Y29059640D01*
X19153942Y29108402D01*
X19033149Y29170443D01*
X18920838Y29245369D01*
X18817866Y29332790D01*
X18798415Y29351791D01*
X18707697Y29453555D01*
X18630055Y29564270D01*
X18565599Y29683728D01*
X18514437Y29811721D01*
X18476680Y29948043D01*
X18471374Y29973161D01*
X18465059Y30006666D01*
X18460385Y30037911D01*
X18457117Y30070260D01*
X18455024Y30107080D01*
X18453873Y30151736D01*
X18453429Y30207595D01*
X18453398Y30232938D01*
X18453627Y30293939D01*
X18454470Y30342446D01*
X18456161Y30381834D01*
X18458936Y30415480D01*
X18463030Y30446759D01*
X18468677Y30479048D01*
X18471525Y30493506D01*
X18506496Y30630041D01*
X18554454Y30758077D01*
X18615016Y30877101D01*
X18687797Y30986600D01*
X18772412Y31086061D01*
X18868477Y31174970D01*
X18975607Y31252814D01*
X19088218Y31316517D01*
X19185121Y31360906D01*
X19278980Y31395755D01*
X19374170Y31422247D01*
X19475065Y31441565D01*
X19586040Y31454895D01*
X19606053Y31456636D01*
X19744540Y31460533D01*
X19885523Y31449986D01*
G37*
X19885523Y31449986D02*
X20026147Y31425495D01*
X20163556Y31387561D01*
X20294895Y31336685D01*
X20298214Y31335189D01*
X20343986Y31311630D01*
X20395268Y31280602D01*
X20447433Y31245292D01*
X20495853Y31208886D01*
X20535901Y31174573D01*
X20546650Y31164089D01*
X20592207Y31117678D01*
X20402161Y30927755D01*
X20212114Y30737832D01*
X20165104Y30785026D01*
X20098083Y30841219D01*
X20020853Y30886085D01*
X19934856Y30919080D01*
X19841536Y30939660D01*
X19742335Y30947279D01*
X19735125Y30947313D01*
X19632132Y30939965D01*
X19535141Y30918519D01*
X19444937Y30883869D01*
X19362304Y30836910D01*
X19288027Y30778537D01*
X19222892Y30709644D01*
X19167682Y30631127D01*
X19123184Y30543880D01*
X19090182Y30448798D01*
X19069462Y30346776D01*
X19061807Y30238709D01*
X19063199Y30181344D01*
X19076169Y30069987D01*
X19101924Y29966342D01*
X19140009Y29871151D01*
X19189965Y29785157D01*
X19251335Y29709103D01*
X19323663Y29643731D01*
X19406492Y29589784D01*
X19436851Y29574231D01*
X19489075Y29551114D01*
X19537411Y29534601D01*
X19587037Y29523471D01*
X19643131Y29516501D01*
X19695687Y29513119D01*
X19798345Y29514346D01*
X19892082Y29528310D01*
X19977969Y29555409D01*
X20057078Y29596046D01*
X20130481Y29650620D01*
X20173744Y29691785D01*
X20225594Y29745492D01*
X20421222Y29562575D01*
X20616850Y29379657D01*
X20547065Y29311757D01*
X20449583Y29227857D01*
X20342832Y29156539D01*
X20227497Y29098016D01*
X20104262Y29052502D01*
X19973810Y29020208D01*
X19836826Y29001349D01*
X19693992Y28996139D01*
X19558660Y29003518D01*
X19417554Y29024548D01*
X19282363Y29059640D01*
X19153942Y29108402D01*
X19033149Y29170443D01*
X18920838Y29245369D01*
X18817866Y29332790D01*
X18798415Y29351791D01*
X18707697Y29453555D01*
X18630055Y29564270D01*
X18565599Y29683728D01*
X18514437Y29811721D01*
X18476680Y29948043D01*
X18471374Y29973161D01*
X18465059Y30006666D01*
X18460385Y30037911D01*
X18457117Y30070260D01*
X18455024Y30107080D01*
X18453873Y30151736D01*
X18453429Y30207595D01*
X18453398Y30232938D01*
X18453627Y30293939D01*
X18454470Y30342446D01*
X18456161Y30381834D01*
X18458936Y30415480D01*
X18463030Y30446759D01*
X18468677Y30479048D01*
X18471525Y30493506D01*
X18506496Y30630041D01*
X18554454Y30758077D01*
X18615016Y30877101D01*
X18687797Y30986600D01*
X18772412Y31086061D01*
X18868477Y31174970D01*
X18975607Y31252814D01*
X19088218Y31316517D01*
X19185121Y31360906D01*
X19278980Y31395755D01*
X19374170Y31422247D01*
X19475065Y31441565D01*
X19586040Y31454895D01*
X19606053Y31456636D01*
X19744540Y31460533D01*
X19885523Y31449986D01*
G36*
X21115967Y31399750D02*
G01*
X21394062Y31399750D01*
X21394219Y30675454D01*
X21394331Y30556032D01*
X21394607Y30443368D01*
X21395037Y30338427D01*
X21395612Y30242175D01*
X21396321Y30155578D01*
X21397156Y30079602D01*
X21398105Y30015214D01*
X21399160Y29963378D01*
X21400311Y29925062D01*
X21401547Y29901230D01*
X21402114Y29895594D01*
X21420954Y29806435D01*
X21450963Y29727618D01*
X21491718Y29659660D01*
X21542794Y29603076D01*
X21603766Y29558382D01*
X21674210Y29526094D01*
X21716349Y29513925D01*
X21763332Y29506600D01*
X21818727Y29503778D01*
X21877189Y29505236D01*
X21933374Y29510753D01*
X21981937Y29520105D01*
X22000640Y29525773D01*
X22072480Y29559282D01*
X22134559Y29605154D01*
X22186495Y29662944D01*
X22227903Y29732204D01*
X22258401Y29812488D01*
X22263738Y29832094D01*
X22266120Y29842427D01*
X22268231Y29854214D01*
X22270093Y29868460D01*
X22271727Y29886171D01*
X22273154Y29908350D01*
X22274396Y29936003D01*
X22275474Y29970133D01*
X22276408Y30011747D01*
X22277221Y30061848D01*
X22277933Y30121441D01*
X22278567Y30191532D01*
X22279142Y30273123D01*
X22279681Y30367222D01*
X22280205Y30474831D01*
X22280734Y30596956D01*
X22280927Y30643704D01*
X22284005Y31399750D01*
X22838687Y31399750D01*
X22838655Y30615922D01*
X22838621Y30483492D01*
X22838519Y30365956D01*
X22838337Y30262335D01*
X22838060Y30171649D01*
X22837674Y30092917D01*
X22837166Y30025161D01*
X22836521Y29967400D01*
X22835726Y29918654D01*
X22834766Y29877943D01*
X22833627Y29844286D01*
X22832296Y29816705D01*
X22830759Y29794219D01*
X22829001Y29775847D01*
X22827010Y29760611D01*
X22826430Y29756906D01*
X22800170Y29641252D01*
X22760616Y29533537D01*
X22708484Y29434231D01*
X22644490Y29343809D01*
X22569349Y29262742D01*
X22483779Y29191502D01*
X22388494Y29130563D01*
X22284210Y29080396D01*
X22171645Y29041474D01*
X22051512Y29014270D01*
X21924530Y28999256D01*
X21791413Y28996904D01*
X21685429Y29003993D01*
X21618254Y29013849D01*
X21544511Y29029643D01*
X21470353Y29049768D01*
X21401935Y29072614D01*
X21363611Y29088094D01*
X21256796Y29143224D01*
X21161549Y29209221D01*
X21077905Y29286041D01*
X21005899Y29373643D01*
X20945567Y29471983D01*
X20896942Y29581019D01*
X20860060Y29700708D01*
X20859957Y29701125D01*
X20857258Y29712356D01*
X20854862Y29723615D01*
X20852747Y29735886D01*
X20850892Y29750148D01*
X20849276Y29767382D01*
X20847876Y29788571D01*
X20846672Y29814694D01*
X20845642Y29846733D01*
X20844764Y29885668D01*
X20844016Y29932481D01*
X20843378Y29988153D01*
X20842827Y30053665D01*
X20842342Y30129998D01*
X20841901Y30218132D01*
X20841484Y30319049D01*
X20841068Y30433731D01*
X20840632Y30563157D01*
X20840562Y30584172D01*
X20837873Y31399751D01*
X21115967Y31399750D01*
G37*
X21115967Y31399750D02*
X21394062Y31399750D01*
X21394219Y30675454D01*
X21394331Y30556032D01*
X21394607Y30443368D01*
X21395037Y30338427D01*
X21395612Y30242175D01*
X21396321Y30155578D01*
X21397156Y30079602D01*
X21398105Y30015214D01*
X21399160Y29963378D01*
X21400311Y29925062D01*
X21401547Y29901230D01*
X21402114Y29895594D01*
X21420954Y29806435D01*
X21450963Y29727618D01*
X21491718Y29659660D01*
X21542794Y29603076D01*
X21603766Y29558382D01*
X21674210Y29526094D01*
X21716349Y29513925D01*
X21763332Y29506600D01*
X21818727Y29503778D01*
X21877189Y29505236D01*
X21933374Y29510753D01*
X21981937Y29520105D01*
X22000640Y29525773D01*
X22072480Y29559282D01*
X22134559Y29605154D01*
X22186495Y29662944D01*
X22227903Y29732204D01*
X22258401Y29812488D01*
X22263738Y29832094D01*
X22266120Y29842427D01*
X22268231Y29854214D01*
X22270093Y29868460D01*
X22271727Y29886171D01*
X22273154Y29908350D01*
X22274396Y29936003D01*
X22275474Y29970133D01*
X22276408Y30011747D01*
X22277221Y30061848D01*
X22277933Y30121441D01*
X22278567Y30191532D01*
X22279142Y30273123D01*
X22279681Y30367222D01*
X22280205Y30474831D01*
X22280734Y30596956D01*
X22280927Y30643704D01*
X22284005Y31399750D01*
X22838687Y31399750D01*
X22838655Y30615922D01*
X22838621Y30483492D01*
X22838519Y30365956D01*
X22838337Y30262335D01*
X22838060Y30171649D01*
X22837674Y30092917D01*
X22837166Y30025161D01*
X22836521Y29967400D01*
X22835726Y29918654D01*
X22834766Y29877943D01*
X22833627Y29844286D01*
X22832296Y29816705D01*
X22830759Y29794219D01*
X22829001Y29775847D01*
X22827010Y29760611D01*
X22826430Y29756906D01*
X22800170Y29641252D01*
X22760616Y29533537D01*
X22708484Y29434231D01*
X22644490Y29343809D01*
X22569349Y29262742D01*
X22483779Y29191502D01*
X22388494Y29130563D01*
X22284210Y29080396D01*
X22171645Y29041474D01*
X22051512Y29014270D01*
X21924530Y28999256D01*
X21791413Y28996904D01*
X21685429Y29003993D01*
X21618254Y29013849D01*
X21544511Y29029643D01*
X21470353Y29049768D01*
X21401935Y29072614D01*
X21363611Y29088094D01*
X21256796Y29143224D01*
X21161549Y29209221D01*
X21077905Y29286041D01*
X21005899Y29373643D01*
X20945567Y29471983D01*
X20896942Y29581019D01*
X20860060Y29700708D01*
X20859957Y29701125D01*
X20857258Y29712356D01*
X20854862Y29723615D01*
X20852747Y29735886D01*
X20850892Y29750148D01*
X20849276Y29767382D01*
X20847876Y29788571D01*
X20846672Y29814694D01*
X20845642Y29846733D01*
X20844764Y29885668D01*
X20844016Y29932481D01*
X20843378Y29988153D01*
X20842827Y30053665D01*
X20842342Y30129998D01*
X20841901Y30218132D01*
X20841484Y30319049D01*
X20841068Y30433731D01*
X20840632Y30563157D01*
X20840562Y30584172D01*
X20837873Y31399751D01*
X21115967Y31399750D01*
G36*
X24283254Y31448643D02*
G01*
X24420047Y31421623D01*
X24554719Y31378967D01*
X24636057Y31345091D01*
X24666635Y31329679D01*
X24702206Y31309395D01*
X24740327Y31285914D01*
X24778555Y31260913D01*
X24814446Y31236065D01*
X24845556Y31213046D01*
X24869442Y31193532D01*
X24883661Y31179196D01*
X24886562Y31173366D01*
X24881302Y31166625D01*
X24866386Y31149793D01*
X24843107Y31124270D01*
X24812758Y31091459D01*
X24776633Y31052762D01*
X24736025Y31009580D01*
X24710749Y30982842D01*
X24534936Y30797214D01*
X24480783Y30847352D01*
X24407218Y30905020D01*
X24326657Y30948502D01*
X24239750Y30977524D01*
X24147145Y30991813D01*
X24136468Y30992482D01*
X24052125Y30991662D01*
X23978280Y30979659D01*
X23915221Y30956598D01*
X23863234Y30922603D01*
X23822607Y30877797D01*
X23805738Y30849632D01*
X23792838Y30810959D01*
X23787979Y30765269D01*
X23791175Y30719062D01*
X23802442Y30678839D01*
X23805337Y30672718D01*
X23821270Y30646511D01*
X23841633Y30622940D01*
X23868117Y30601024D01*
X23902411Y30579780D01*
X23946204Y30558229D01*
X24001186Y30535387D01*
X24069047Y30510274D01*
X24108948Y30496348D01*
X24194865Y30466700D01*
X24267397Y30441353D01*
X24328224Y30419609D01*
X24379028Y30400771D01*
X24421490Y30384142D01*
X24457293Y30369026D01*
X24488117Y30354723D01*
X24515645Y30340538D01*
X24541557Y30325773D01*
X24567536Y30309731D01*
X24582870Y30299845D01*
X24666317Y30237709D01*
X24735373Y30169282D01*
X24790229Y30094155D01*
X24831079Y30011919D01*
X24858117Y29922168D01*
X24871534Y29824492D01*
X24871525Y29718482D01*
X24869671Y29693188D01*
X24854628Y29589189D01*
X24827705Y29494310D01*
X24787986Y29406195D01*
X24734558Y29322487D01*
X24717127Y29299655D01*
X24649627Y29226867D01*
X24570123Y29163320D01*
X24479795Y29109411D01*
X24379824Y29065541D01*
X24271390Y29032106D01*
X24155674Y29009505D01*
X24033856Y28998137D01*
X23907117Y28998399D01*
X23839092Y29003319D01*
X23721879Y29020260D01*
X23605958Y29047872D01*
X23493773Y29085143D01*
X23387768Y29131060D01*
X23290387Y29184612D01*
X23204074Y29244785D01*
X23155648Y29286419D01*
X23104869Y29334147D01*
X23287294Y29520494D01*
X23469718Y29706840D01*
X23517343Y29661798D01*
X23593568Y29598590D01*
X23675819Y29546635D01*
X23762149Y29506560D01*
X23850613Y29478989D01*
X23939262Y29464547D01*
X24026150Y29463860D01*
X24099015Y29474990D01*
X24165331Y29496587D01*
X24218505Y29527061D01*
X24258625Y29566516D01*
X24285777Y29615051D01*
X24300046Y29672768D01*
X24302462Y29713032D01*
X24299369Y29762143D01*
X24288646Y29801574D01*
X24268066Y29836284D01*
X24235400Y29871230D01*
X24228574Y29877470D01*
X24204652Y29897083D01*
X24177092Y29915640D01*
X24144079Y29933967D01*
X24103796Y29952894D01*
X24054428Y29973246D01*
X23994157Y29995853D01*
X23921168Y30021542D01*
X23886437Y30033397D01*
X23800826Y30062819D01*
X23728510Y30088708D01*
X23667540Y30111973D01*
X23615970Y30133520D01*
X23571851Y30154258D01*
X23533237Y30175094D01*
X23498180Y30196935D01*
X23464732Y30220688D01*
X23435664Y30243422D01*
X23372727Y30303884D01*
X23318071Y30375486D01*
X23273947Y30454679D01*
X23242607Y30537918D01*
X23238100Y30554626D01*
X23230275Y30598861D01*
X23225505Y30653990D01*
X23223739Y30715338D01*
X23224929Y30778231D01*
X23229025Y30837995D01*
X23235977Y30889955D01*
X23241947Y30917123D01*
X23275475Y31011253D01*
X23322683Y31098076D01*
X23382872Y31177009D01*
X23455341Y31247471D01*
X23539391Y31308880D01*
X23634322Y31360656D01*
X23739436Y31402215D01*
X23854031Y31432977D01*
X23865266Y31435293D01*
X24005352Y31455538D01*
X24144852Y31459968D01*
X24283254Y31448643D01*
G37*
X24283254Y31448643D02*
X24420047Y31421623D01*
X24554719Y31378967D01*
X24636057Y31345091D01*
X24666635Y31329679D01*
X24702206Y31309395D01*
X24740327Y31285914D01*
X24778555Y31260913D01*
X24814446Y31236065D01*
X24845556Y31213046D01*
X24869442Y31193532D01*
X24883661Y31179196D01*
X24886562Y31173366D01*
X24881302Y31166625D01*
X24866386Y31149793D01*
X24843107Y31124270D01*
X24812758Y31091459D01*
X24776633Y31052762D01*
X24736025Y31009580D01*
X24710749Y30982842D01*
X24534936Y30797214D01*
X24480783Y30847352D01*
X24407218Y30905020D01*
X24326657Y30948502D01*
X24239750Y30977524D01*
X24147145Y30991813D01*
X24136468Y30992482D01*
X24052125Y30991662D01*
X23978280Y30979659D01*
X23915221Y30956598D01*
X23863234Y30922603D01*
X23822607Y30877797D01*
X23805738Y30849632D01*
X23792838Y30810959D01*
X23787979Y30765269D01*
X23791175Y30719062D01*
X23802442Y30678839D01*
X23805337Y30672718D01*
X23821270Y30646511D01*
X23841633Y30622940D01*
X23868117Y30601024D01*
X23902411Y30579780D01*
X23946204Y30558229D01*
X24001186Y30535387D01*
X24069047Y30510274D01*
X24108948Y30496348D01*
X24194865Y30466700D01*
X24267397Y30441353D01*
X24328224Y30419609D01*
X24379028Y30400771D01*
X24421490Y30384142D01*
X24457293Y30369026D01*
X24488117Y30354723D01*
X24515645Y30340538D01*
X24541557Y30325773D01*
X24567536Y30309731D01*
X24582870Y30299845D01*
X24666317Y30237709D01*
X24735373Y30169282D01*
X24790229Y30094155D01*
X24831079Y30011919D01*
X24858117Y29922168D01*
X24871534Y29824492D01*
X24871525Y29718482D01*
X24869671Y29693188D01*
X24854628Y29589189D01*
X24827705Y29494310D01*
X24787986Y29406195D01*
X24734558Y29322487D01*
X24717127Y29299655D01*
X24649627Y29226867D01*
X24570123Y29163320D01*
X24479795Y29109411D01*
X24379824Y29065541D01*
X24271390Y29032106D01*
X24155674Y29009505D01*
X24033856Y28998137D01*
X23907117Y28998399D01*
X23839092Y29003319D01*
X23721879Y29020260D01*
X23605958Y29047872D01*
X23493773Y29085143D01*
X23387768Y29131060D01*
X23290387Y29184612D01*
X23204074Y29244785D01*
X23155648Y29286419D01*
X23104869Y29334147D01*
X23287294Y29520494D01*
X23469718Y29706840D01*
X23517343Y29661798D01*
X23593568Y29598590D01*
X23675819Y29546635D01*
X23762149Y29506560D01*
X23850613Y29478989D01*
X23939262Y29464547D01*
X24026150Y29463860D01*
X24099015Y29474990D01*
X24165331Y29496587D01*
X24218505Y29527061D01*
X24258625Y29566516D01*
X24285777Y29615051D01*
X24300046Y29672768D01*
X24302462Y29713032D01*
X24299369Y29762143D01*
X24288646Y29801574D01*
X24268066Y29836284D01*
X24235400Y29871230D01*
X24228574Y29877470D01*
X24204652Y29897083D01*
X24177092Y29915640D01*
X24144079Y29933967D01*
X24103796Y29952894D01*
X24054428Y29973246D01*
X23994157Y29995853D01*
X23921168Y30021542D01*
X23886437Y30033397D01*
X23800826Y30062819D01*
X23728510Y30088708D01*
X23667540Y30111973D01*
X23615970Y30133520D01*
X23571851Y30154258D01*
X23533237Y30175094D01*
X23498180Y30196935D01*
X23464732Y30220688D01*
X23435664Y30243422D01*
X23372727Y30303884D01*
X23318071Y30375486D01*
X23273947Y30454679D01*
X23242607Y30537918D01*
X23238100Y30554626D01*
X23230275Y30598861D01*
X23225505Y30653990D01*
X23223739Y30715338D01*
X23224929Y30778231D01*
X23229025Y30837995D01*
X23235977Y30889955D01*
X23241947Y30917123D01*
X23275475Y31011253D01*
X23322683Y31098076D01*
X23382872Y31177009D01*
X23455341Y31247471D01*
X23539391Y31308880D01*
X23634322Y31360656D01*
X23739436Y31402215D01*
X23854031Y31432977D01*
X23865266Y31435293D01*
X24005352Y31455538D01*
X24144852Y31459968D01*
X24283254Y31448643D01*
G36*
X12565643Y31397868D02*
G01*
X12839495Y31395782D01*
X13322653Y30233204D01*
X13376430Y30103768D01*
X13428527Y29978297D01*
X13478620Y29857577D01*
X13526385Y29742392D01*
X13571498Y29633527D01*
X13613633Y29531766D01*
X13652468Y29437895D01*
X13687677Y29352697D01*
X13718936Y29276957D01*
X13745920Y29211461D01*
X13768307Y29156992D01*
X13785771Y29114335D01*
X13797987Y29084275D01*
X13804632Y29067596D01*
X13805812Y29064315D01*
X13798158Y29062977D01*
X13776326Y29061838D01*
X13742015Y29060924D01*
X13696920Y29060256D01*
X13642738Y29059858D01*
X13581166Y29059753D01*
X13513902Y29059963D01*
X13494551Y29060080D01*
X13183291Y29062157D01*
X13002933Y29518563D01*
X12093242Y29518563D01*
X12007014Y29288375D01*
X11920785Y29058188D01*
X11616185Y29058188D01*
X11538577Y29058224D01*
X11475394Y29058376D01*
X11425188Y29058712D01*
X11386510Y29059298D01*
X11357910Y29060201D01*
X11337939Y29061488D01*
X11325148Y29063227D01*
X11318088Y29065483D01*
X11315310Y29068324D01*
X11315364Y29071817D01*
X11315434Y29072079D01*
X11318742Y29080327D01*
X11327796Y29102251D01*
X11342192Y29136893D01*
X11361529Y29183292D01*
X11385404Y29240489D01*
X11413414Y29307524D01*
X11445157Y29383437D01*
X11480231Y29467269D01*
X11518234Y29558060D01*
X11558763Y29654850D01*
X11601415Y29756680D01*
X11645789Y29862591D01*
X11691482Y29971621D01*
X11692684Y29974490D01*
X12258000Y29974490D01*
X12265646Y29973701D01*
X12287423Y29972974D01*
X12321586Y29972331D01*
X12366391Y29971791D01*
X12420092Y29971376D01*
X12480946Y29971105D01*
X12547208Y29971001D01*
X12552536Y29971000D01*
X12631534Y29971105D01*
X12695889Y29971446D01*
X12746832Y29972067D01*
X12785595Y29973008D01*
X12813409Y29974312D01*
X12831505Y29976021D01*
X12841115Y29978177D01*
X12843468Y29980822D01*
X12843435Y29980922D01*
X12840106Y29990100D01*
X12831896Y30012780D01*
X12819320Y30047535D01*
X12802895Y30092937D01*
X12783138Y30147559D01*
X12760563Y30209974D01*
X12735688Y30278755D01*
X12709029Y30352474D01*
X12698282Y30382195D01*
X12664364Y30475461D01*
X12634536Y30556380D01*
X12608954Y30624543D01*
X12587779Y30679545D01*
X12571167Y30720978D01*
X12559276Y30748436D01*
X12552266Y30761511D01*
X12550505Y30762356D01*
X12546762Y30753242D01*
X12538212Y30731059D01*
X12525479Y30697496D01*
X12509191Y30654239D01*
X12489973Y30602975D01*
X12468453Y30545391D01*
X12445255Y30483175D01*
X12421007Y30418012D01*
X12396335Y30351590D01*
X12371866Y30285597D01*
X12348224Y30221718D01*
X12326038Y30161642D01*
X12305933Y30107056D01*
X12288536Y30059645D01*
X12274472Y30021098D01*
X12264369Y29993101D01*
X12258852Y29977341D01*
X12258000Y29974490D01*
X11692684Y29974490D01*
X11738091Y30082812D01*
X11785214Y30195205D01*
X11832449Y30307838D01*
X11879394Y30419753D01*
X11925646Y30529991D01*
X11970802Y30637590D01*
X12014461Y30741593D01*
X12056219Y30841038D01*
X12095675Y30934967D01*
X12132426Y31022419D01*
X12166070Y31102435D01*
X12196205Y31174056D01*
X12222427Y31236321D01*
X12244335Y31288272D01*
X12261527Y31328947D01*
X12273599Y31357388D01*
X12275631Y31362149D01*
X12291792Y31399954D01*
X12565643Y31397868D01*
G37*
X12565643Y31397868D02*
X12839495Y31395782D01*
X13322653Y30233204D01*
X13376430Y30103768D01*
X13428527Y29978297D01*
X13478620Y29857577D01*
X13526385Y29742392D01*
X13571498Y29633527D01*
X13613633Y29531766D01*
X13652468Y29437895D01*
X13687677Y29352697D01*
X13718936Y29276957D01*
X13745920Y29211461D01*
X13768307Y29156992D01*
X13785771Y29114335D01*
X13797987Y29084275D01*
X13804632Y29067596D01*
X13805812Y29064315D01*
X13798158Y29062977D01*
X13776326Y29061838D01*
X13742015Y29060924D01*
X13696920Y29060256D01*
X13642738Y29059858D01*
X13581166Y29059753D01*
X13513902Y29059963D01*
X13494551Y29060080D01*
X13183291Y29062157D01*
X13002933Y29518563D01*
X12093242Y29518563D01*
X12007014Y29288375D01*
X11920785Y29058188D01*
X11616185Y29058188D01*
X11538577Y29058224D01*
X11475394Y29058376D01*
X11425188Y29058712D01*
X11386510Y29059298D01*
X11357910Y29060201D01*
X11337939Y29061488D01*
X11325148Y29063227D01*
X11318088Y29065483D01*
X11315310Y29068324D01*
X11315364Y29071817D01*
X11315434Y29072079D01*
X11318742Y29080327D01*
X11327796Y29102251D01*
X11342192Y29136893D01*
X11361529Y29183292D01*
X11385404Y29240489D01*
X11413414Y29307524D01*
X11445157Y29383437D01*
X11480231Y29467269D01*
X11518234Y29558060D01*
X11558763Y29654850D01*
X11601415Y29756680D01*
X11645789Y29862591D01*
X11691482Y29971621D01*
X11692684Y29974490D01*
X12258000Y29974490D01*
X12265646Y29973701D01*
X12287423Y29972974D01*
X12321586Y29972331D01*
X12366391Y29971791D01*
X12420092Y29971376D01*
X12480946Y29971105D01*
X12547208Y29971001D01*
X12552536Y29971000D01*
X12631534Y29971105D01*
X12695889Y29971446D01*
X12746832Y29972067D01*
X12785595Y29973008D01*
X12813409Y29974312D01*
X12831505Y29976021D01*
X12841115Y29978177D01*
X12843468Y29980822D01*
X12843435Y29980922D01*
X12840106Y29990100D01*
X12831896Y30012780D01*
X12819320Y30047535D01*
X12802895Y30092937D01*
X12783138Y30147559D01*
X12760563Y30209974D01*
X12735688Y30278755D01*
X12709029Y30352474D01*
X12698282Y30382195D01*
X12664364Y30475461D01*
X12634536Y30556380D01*
X12608954Y30624543D01*
X12587779Y30679545D01*
X12571167Y30720978D01*
X12559276Y30748436D01*
X12552266Y30761511D01*
X12550505Y30762356D01*
X12546762Y30753242D01*
X12538212Y30731059D01*
X12525479Y30697496D01*
X12509191Y30654239D01*
X12489973Y30602975D01*
X12468453Y30545391D01*
X12445255Y30483175D01*
X12421007Y30418012D01*
X12396335Y30351590D01*
X12371866Y30285597D01*
X12348224Y30221718D01*
X12326038Y30161642D01*
X12305933Y30107056D01*
X12288536Y30059645D01*
X12274472Y30021098D01*
X12264369Y29993101D01*
X12258852Y29977341D01*
X12258000Y29974490D01*
X11692684Y29974490D01*
X11738091Y30082812D01*
X11785214Y30195205D01*
X11832449Y30307838D01*
X11879394Y30419753D01*
X11925646Y30529991D01*
X11970802Y30637590D01*
X12014461Y30741593D01*
X12056219Y30841038D01*
X12095675Y30934967D01*
X12132426Y31022419D01*
X12166070Y31102435D01*
X12196205Y31174056D01*
X12222427Y31236321D01*
X12244335Y31288272D01*
X12261527Y31328947D01*
X12273599Y31357388D01*
X12275631Y31362149D01*
X12291792Y31399954D01*
X12565643Y31397868D01*
G36*
X14553921Y31397507D02*
G01*
X14660613Y31396831D01*
X14752731Y31396179D01*
X14831576Y31395510D01*
X14898448Y31394782D01*
X14954649Y31393954D01*
X15001480Y31392985D01*
X15040241Y31391832D01*
X15072234Y31390455D01*
X15098759Y31388812D01*
X15121117Y31386862D01*
X15140609Y31384562D01*
X15158535Y31381873D01*
X15176198Y31378752D01*
X15182968Y31377472D01*
X15282339Y31354642D01*
X15368793Y31326225D01*
X15444643Y31291119D01*
X15512198Y31248219D01*
X15573772Y31196425D01*
X15584575Y31185896D01*
X15636695Y31128127D01*
X15676526Y31069689D01*
X15705033Y31007909D01*
X15723180Y30940116D01*
X15731931Y30863638D01*
X15732283Y30776657D01*
X15729070Y30719994D01*
X15723354Y30674083D01*
X15713912Y30633852D01*
X15699518Y30594227D01*
X15678949Y30550137D01*
X15676353Y30544987D01*
X15642918Y30492990D01*
X15596834Y30441678D01*
X15541206Y30393701D01*
X15479137Y30351704D01*
X15413733Y30318335D01*
X15407523Y30315737D01*
X15382169Y30304446D01*
X15364406Y30294817D01*
X15357625Y30288720D01*
X15357738Y30288266D01*
X15367060Y30283649D01*
X15386282Y30278796D01*
X15394628Y30277304D01*
X15434253Y30267443D01*
X15481485Y30250232D01*
X15531239Y30227861D01*
X15578434Y30202517D01*
X15600797Y30188544D01*
X15667469Y30135011D01*
X15725120Y30070066D01*
X15771841Y29996486D01*
X15805728Y29917050D01*
X15818244Y29871689D01*
X15824738Y29828297D01*
X15828061Y29774456D01*
X15828340Y29715170D01*
X15825701Y29655441D01*
X15820271Y29600271D01*
X15812176Y29554664D01*
X15810031Y29546344D01*
X15777706Y29459150D01*
X15731415Y29378617D01*
X15672030Y29305749D01*
X15600418Y29241552D01*
X15517448Y29187033D01*
X15484593Y29169785D01*
X15427538Y29143607D01*
X15372628Y29123004D01*
X15313827Y29105974D01*
X15246247Y29090750D01*
X15213124Y29084373D01*
X15180075Y29078868D01*
X15145696Y29074172D01*
X15108581Y29070225D01*
X15067326Y29066965D01*
X15020526Y29064329D01*
X14966776Y29062258D01*
X14904672Y29060689D01*
X14832809Y29059561D01*
X14749782Y29058812D01*
X14654187Y29058381D01*
X14544618Y29058206D01*
X14502328Y29058195D01*
X14012187Y29058188D01*
X14012187Y29518563D01*
X14551937Y29518563D01*
X14748390Y29518609D01*
X14805668Y29518934D01*
X14860343Y29519820D01*
X14909547Y29521178D01*
X14950410Y29522916D01*
X14980063Y29524943D01*
X14991634Y29526317D01*
X15065662Y29542572D01*
X15126608Y29565349D01*
X15176232Y29595538D01*
X15216294Y29634030D01*
X15224160Y29643912D01*
X15246024Y29678910D01*
X15259627Y29717237D01*
X15266165Y29763264D01*
X15267185Y29801247D01*
X15261467Y29860475D01*
X15244535Y29910582D01*
X15215716Y29952215D01*
X15174336Y29986023D01*
X15119722Y30012653D01*
X15051201Y30032754D01*
X15020250Y30039020D01*
X14985025Y30043460D01*
X14934461Y30046764D01*
X14868409Y30048941D01*
X14786718Y30049996D01*
X14756328Y30050099D01*
X14551937Y30050375D01*
X14551937Y29518563D01*
X14012187Y29518563D01*
X14012187Y30471063D01*
X14551937Y30471063D01*
X14735834Y30471063D01*
X14791655Y30471438D01*
X14845181Y30472488D01*
X14893341Y30474100D01*
X14933067Y30476161D01*
X14961288Y30478558D01*
X14969027Y30479648D01*
X15021805Y30493534D01*
X15071627Y30515274D01*
X15114180Y30542583D01*
X15144860Y30572793D01*
X15173326Y30621513D01*
X15189417Y30674463D01*
X15193291Y30728692D01*
X15185110Y30781249D01*
X15165034Y30829184D01*
X15133222Y30869547D01*
X15128524Y30873829D01*
X15101607Y30894122D01*
X15070523Y30910589D01*
X15033523Y30923553D01*
X14988864Y30933338D01*
X14934798Y30940269D01*
X14869581Y30944668D01*
X14791465Y30946859D01*
X14732515Y30947253D01*
X14551937Y30947313D01*
X14551937Y30471063D01*
X14012187Y30471063D01*
X14012187Y31400829D01*
X14553921Y31397507D01*
G37*
X14553921Y31397507D02*
X14660613Y31396831D01*
X14752731Y31396179D01*
X14831576Y31395510D01*
X14898448Y31394782D01*
X14954649Y31393954D01*
X15001480Y31392985D01*
X15040241Y31391832D01*
X15072234Y31390455D01*
X15098759Y31388812D01*
X15121117Y31386862D01*
X15140609Y31384562D01*
X15158535Y31381873D01*
X15176198Y31378752D01*
X15182968Y31377472D01*
X15282339Y31354642D01*
X15368793Y31326225D01*
X15444643Y31291119D01*
X15512198Y31248219D01*
X15573772Y31196425D01*
X15584575Y31185896D01*
X15636695Y31128127D01*
X15676526Y31069689D01*
X15705033Y31007909D01*
X15723180Y30940116D01*
X15731931Y30863638D01*
X15732283Y30776657D01*
X15729070Y30719994D01*
X15723354Y30674083D01*
X15713912Y30633852D01*
X15699518Y30594227D01*
X15678949Y30550137D01*
X15676353Y30544987D01*
X15642918Y30492990D01*
X15596834Y30441678D01*
X15541206Y30393701D01*
X15479137Y30351704D01*
X15413733Y30318335D01*
X15407523Y30315737D01*
X15382169Y30304446D01*
X15364406Y30294817D01*
X15357625Y30288720D01*
X15357738Y30288266D01*
X15367060Y30283649D01*
X15386282Y30278796D01*
X15394628Y30277304D01*
X15434253Y30267443D01*
X15481485Y30250232D01*
X15531239Y30227861D01*
X15578434Y30202517D01*
X15600797Y30188544D01*
X15667469Y30135011D01*
X15725120Y30070066D01*
X15771841Y29996486D01*
X15805728Y29917050D01*
X15818244Y29871689D01*
X15824738Y29828297D01*
X15828061Y29774456D01*
X15828340Y29715170D01*
X15825701Y29655441D01*
X15820271Y29600271D01*
X15812176Y29554664D01*
X15810031Y29546344D01*
X15777706Y29459150D01*
X15731415Y29378617D01*
X15672030Y29305749D01*
X15600418Y29241552D01*
X15517448Y29187033D01*
X15484593Y29169785D01*
X15427538Y29143607D01*
X15372628Y29123004D01*
X15313827Y29105974D01*
X15246247Y29090750D01*
X15213124Y29084373D01*
X15180075Y29078868D01*
X15145696Y29074172D01*
X15108581Y29070225D01*
X15067326Y29066965D01*
X15020526Y29064329D01*
X14966776Y29062258D01*
X14904672Y29060689D01*
X14832809Y29059561D01*
X14749782Y29058812D01*
X14654187Y29058381D01*
X14544618Y29058206D01*
X14502328Y29058195D01*
X14012187Y29058188D01*
X14012187Y29518563D01*
X14551937Y29518563D01*
X14748390Y29518609D01*
X14805668Y29518934D01*
X14860343Y29519820D01*
X14909547Y29521178D01*
X14950410Y29522916D01*
X14980063Y29524943D01*
X14991634Y29526317D01*
X15065662Y29542572D01*
X15126608Y29565349D01*
X15176232Y29595538D01*
X15216294Y29634030D01*
X15224160Y29643912D01*
X15246024Y29678910D01*
X15259627Y29717237D01*
X15266165Y29763264D01*
X15267185Y29801247D01*
X15261467Y29860475D01*
X15244535Y29910582D01*
X15215716Y29952215D01*
X15174336Y29986023D01*
X15119722Y30012653D01*
X15051201Y30032754D01*
X15020250Y30039020D01*
X14985025Y30043460D01*
X14934461Y30046764D01*
X14868409Y30048941D01*
X14786718Y30049996D01*
X14756328Y30050099D01*
X14551937Y30050375D01*
X14551937Y29518563D01*
X14012187Y29518563D01*
X14012187Y30471063D01*
X14551937Y30471063D01*
X14735834Y30471063D01*
X14791655Y30471438D01*
X14845181Y30472488D01*
X14893341Y30474100D01*
X14933067Y30476161D01*
X14961288Y30478558D01*
X14969027Y30479648D01*
X15021805Y30493534D01*
X15071627Y30515274D01*
X15114180Y30542583D01*
X15144860Y30572793D01*
X15173326Y30621513D01*
X15189417Y30674463D01*
X15193291Y30728692D01*
X15185110Y30781249D01*
X15165034Y30829184D01*
X15133222Y30869547D01*
X15128524Y30873829D01*
X15101607Y30894122D01*
X15070523Y30910589D01*
X15033523Y30923553D01*
X14988864Y30933338D01*
X14934798Y30940269D01*
X14869581Y30944668D01*
X14791465Y30946859D01*
X14732515Y30947253D01*
X14551937Y30947313D01*
X14551937Y30471063D01*
X14012187Y30471063D01*
X14012187Y31400829D01*
X14553921Y31397507D01*
G36*
X17177331Y31397868D02*
G01*
X17451182Y31395782D01*
X17934341Y30233204D01*
X17988118Y30103768D01*
X18040215Y29978297D01*
X18090308Y29857577D01*
X18138073Y29742392D01*
X18183185Y29633527D01*
X18225321Y29531766D01*
X18264155Y29437895D01*
X18299364Y29352697D01*
X18330623Y29276957D01*
X18357608Y29211461D01*
X18379994Y29156992D01*
X18397458Y29114335D01*
X18409675Y29084275D01*
X18416320Y29067596D01*
X18417500Y29064315D01*
X18409845Y29062977D01*
X18388014Y29061838D01*
X18353702Y29060924D01*
X18308607Y29060256D01*
X18254425Y29059858D01*
X18192854Y29059753D01*
X18125589Y29059963D01*
X18106239Y29060080D01*
X17794978Y29062157D01*
X17704799Y29290360D01*
X17614621Y29518563D01*
X16704930Y29518563D01*
X16618701Y29288375D01*
X16532472Y29058188D01*
X16227873Y29058188D01*
X16150264Y29058224D01*
X16087082Y29058376D01*
X16036876Y29058712D01*
X15998197Y29059298D01*
X15969597Y29060201D01*
X15949626Y29061488D01*
X15936835Y29063227D01*
X15929775Y29065483D01*
X15926997Y29068324D01*
X15927051Y29071817D01*
X15927121Y29072079D01*
X15930430Y29080327D01*
X15939483Y29102251D01*
X15953880Y29136893D01*
X15973216Y29183292D01*
X15997091Y29240489D01*
X16025101Y29307524D01*
X16056845Y29383437D01*
X16091919Y29467269D01*
X16129922Y29558060D01*
X16170450Y29654850D01*
X16213103Y29756680D01*
X16257476Y29862591D01*
X16303169Y29971621D01*
X16304371Y29974490D01*
X16869687Y29974490D01*
X16877334Y29973701D01*
X16899111Y29972974D01*
X16933274Y29972331D01*
X16978079Y29971791D01*
X17031780Y29971376D01*
X17092634Y29971105D01*
X17158896Y29971001D01*
X17164224Y29971000D01*
X17243221Y29971105D01*
X17307576Y29971446D01*
X17358519Y29972067D01*
X17397283Y29973008D01*
X17425097Y29974312D01*
X17443193Y29976021D01*
X17452802Y29978177D01*
X17455156Y29980822D01*
X17455122Y29980922D01*
X17451794Y29990100D01*
X17443584Y30012780D01*
X17431008Y30047535D01*
X17414583Y30092937D01*
X17394825Y30147559D01*
X17372251Y30209974D01*
X17347376Y30278755D01*
X17320717Y30352474D01*
X17309969Y30382195D01*
X17276052Y30475461D01*
X17246223Y30556380D01*
X17220642Y30624543D01*
X17199466Y30679545D01*
X17182854Y30720978D01*
X17170964Y30748436D01*
X17163954Y30761511D01*
X17162192Y30762356D01*
X17158450Y30753242D01*
X17149899Y30731059D01*
X17137167Y30697496D01*
X17120879Y30654239D01*
X17101661Y30602975D01*
X17080140Y30545391D01*
X17056943Y30483175D01*
X17032695Y30418012D01*
X17008023Y30351590D01*
X16983553Y30285597D01*
X16959912Y30221718D01*
X16937726Y30161642D01*
X16917621Y30107056D01*
X16900223Y30059645D01*
X16886160Y30021098D01*
X16876056Y29993101D01*
X16870540Y29977341D01*
X16869687Y29974490D01*
X16304371Y29974490D01*
X16349778Y30082812D01*
X16396902Y30195205D01*
X16444137Y30307838D01*
X16491081Y30419753D01*
X16537333Y30529991D01*
X16582489Y30637590D01*
X16626148Y30741593D01*
X16667907Y30841038D01*
X16707363Y30934967D01*
X16744114Y31022419D01*
X16777758Y31102435D01*
X16807892Y31174056D01*
X16834115Y31236321D01*
X16856023Y31288272D01*
X16873214Y31328947D01*
X16885287Y31357388D01*
X16887318Y31362149D01*
X16903479Y31399954D01*
X17177331Y31397868D01*
G37*
X17177331Y31397868D02*
X17451182Y31395782D01*
X17934341Y30233204D01*
X17988118Y30103768D01*
X18040215Y29978297D01*
X18090308Y29857577D01*
X18138073Y29742392D01*
X18183185Y29633527D01*
X18225321Y29531766D01*
X18264155Y29437895D01*
X18299364Y29352697D01*
X18330623Y29276957D01*
X18357608Y29211461D01*
X18379994Y29156992D01*
X18397458Y29114335D01*
X18409675Y29084275D01*
X18416320Y29067596D01*
X18417500Y29064315D01*
X18409845Y29062977D01*
X18388014Y29061838D01*
X18353702Y29060924D01*
X18308607Y29060256D01*
X18254425Y29059858D01*
X18192854Y29059753D01*
X18125589Y29059963D01*
X18106239Y29060080D01*
X17794978Y29062157D01*
X17704799Y29290360D01*
X17614621Y29518563D01*
X16704930Y29518563D01*
X16618701Y29288375D01*
X16532472Y29058188D01*
X16227873Y29058188D01*
X16150264Y29058224D01*
X16087082Y29058376D01*
X16036876Y29058712D01*
X15998197Y29059298D01*
X15969597Y29060201D01*
X15949626Y29061488D01*
X15936835Y29063227D01*
X15929775Y29065483D01*
X15926997Y29068324D01*
X15927051Y29071817D01*
X15927121Y29072079D01*
X15930430Y29080327D01*
X15939483Y29102251D01*
X15953880Y29136893D01*
X15973216Y29183292D01*
X15997091Y29240489D01*
X16025101Y29307524D01*
X16056845Y29383437D01*
X16091919Y29467269D01*
X16129922Y29558060D01*
X16170450Y29654850D01*
X16213103Y29756680D01*
X16257476Y29862591D01*
X16303169Y29971621D01*
X16304371Y29974490D01*
X16869687Y29974490D01*
X16877334Y29973701D01*
X16899111Y29972974D01*
X16933274Y29972331D01*
X16978079Y29971791D01*
X17031780Y29971376D01*
X17092634Y29971105D01*
X17158896Y29971001D01*
X17164224Y29971000D01*
X17243221Y29971105D01*
X17307576Y29971446D01*
X17358519Y29972067D01*
X17397283Y29973008D01*
X17425097Y29974312D01*
X17443193Y29976021D01*
X17452802Y29978177D01*
X17455156Y29980822D01*
X17455122Y29980922D01*
X17451794Y29990100D01*
X17443584Y30012780D01*
X17431008Y30047535D01*
X17414583Y30092937D01*
X17394825Y30147559D01*
X17372251Y30209974D01*
X17347376Y30278755D01*
X17320717Y30352474D01*
X17309969Y30382195D01*
X17276052Y30475461D01*
X17246223Y30556380D01*
X17220642Y30624543D01*
X17199466Y30679545D01*
X17182854Y30720978D01*
X17170964Y30748436D01*
X17163954Y30761511D01*
X17162192Y30762356D01*
X17158450Y30753242D01*
X17149899Y30731059D01*
X17137167Y30697496D01*
X17120879Y30654239D01*
X17101661Y30602975D01*
X17080140Y30545391D01*
X17056943Y30483175D01*
X17032695Y30418012D01*
X17008023Y30351590D01*
X16983553Y30285597D01*
X16959912Y30221718D01*
X16937726Y30161642D01*
X16917621Y30107056D01*
X16900223Y30059645D01*
X16886160Y30021098D01*
X16876056Y29993101D01*
X16870540Y29977341D01*
X16869687Y29974490D01*
X16304371Y29974490D01*
X16349778Y30082812D01*
X16396902Y30195205D01*
X16444137Y30307838D01*
X16491081Y30419753D01*
X16537333Y30529991D01*
X16582489Y30637590D01*
X16626148Y30741593D01*
X16667907Y30841038D01*
X16707363Y30934967D01*
X16744114Y31022419D01*
X16777758Y31102435D01*
X16807892Y31174056D01*
X16834115Y31236321D01*
X16856023Y31288272D01*
X16873214Y31328947D01*
X16885287Y31357388D01*
X16887318Y31362149D01*
X16903479Y31399954D01*
X17177331Y31397868D01*
D18*
X33450000Y29925000D02*
G75*
G03*
X33450000Y29925000I-950000J0D01*
G01*
X30925000Y29925000D02*
G75*
G03*
X30925000Y29925000I-950000J0D01*
G01*
X33550000Y12500000D02*
G75*
G03*
X33550000Y12500000I-950000J0D01*
G01*
X39350000Y12500000D02*
G75*
G03*
X39350000Y12500000I-950000J0D01*
G01*
X18750000Y8450000D02*
G75*
G03*
X18750000Y8450000I-950000J0D01*
G01*
X7950000Y14550000D02*
G75*
G03*
X7950000Y14550000I-950000J0D01*
G01*
X11562742Y45572500D02*
X12037258Y45572500D01*
X11562742Y44527500D02*
X12037258Y44527500D01*
X7737258Y11027500D02*
X7262742Y11027500D01*
X7737258Y12072500D02*
X7262742Y12072500D01*
X9320000Y10640000D02*
X10250000Y10640000D01*
X12480000Y10640000D02*
X11550000Y10640000D01*
X12480000Y10640000D02*
X12480000Y12800000D01*
X9320000Y10640000D02*
X9320000Y12100000D01*
X11000000Y45815000D02*
X13285000Y45815000D01*
X13285000Y45815000D02*
X13285000Y47285000D01*
X13285000Y47285000D02*
X11000000Y47285000D01*
X16715000Y44309420D02*
X16715000Y44590580D01*
X17735000Y44309420D02*
X17735000Y44590580D01*
X14215000Y44438748D02*
X14215000Y45861252D01*
X16035000Y44438748D02*
X16035000Y45861252D01*
X36635000Y17961252D02*
X36635000Y17438748D01*
X35165000Y17961252D02*
X35165000Y17438748D01*
X31310030Y19388781D02*
X31111219Y19189970D01*
X30588781Y20110030D02*
X30389970Y19911219D01*
X18361252Y18165000D02*
X17838748Y18165000D01*
X18361252Y19635000D02*
X17838748Y19635000D01*
X18361252Y16065000D02*
X17838748Y16065000D01*
X18361252Y17535000D02*
X17838748Y17535000D01*
X10359420Y17710000D02*
X10640580Y17710000D01*
X10359420Y16690000D02*
X10640580Y16690000D01*
X14238748Y15435000D02*
X14761252Y15435000D01*
X14238748Y13965000D02*
X14761252Y13965000D01*
X14238748Y17535000D02*
X14761252Y17535000D01*
X14238748Y16065000D02*
X14761252Y16065000D01*
X27110000Y12700000D02*
X27110000Y14500000D01*
X23890000Y14500000D02*
X23890000Y12050000D01*
X36540000Y31240000D02*
X36540000Y31500000D01*
X36540000Y31240000D02*
X36800000Y31240000D01*
X36540000Y35260000D02*
X36540000Y35000000D01*
X36540000Y35260000D02*
X36800000Y35260000D01*
X41960000Y31240000D02*
X41700000Y31240000D01*
X41960000Y35260000D02*
X41960000Y35000000D01*
X41960000Y35260000D02*
X41700000Y35260000D01*
X19400000Y14500000D02*
X17400000Y14500000D01*
X17400000Y14500000D02*
X17400000Y10650000D01*
X19400000Y14500000D02*
X19400000Y10650000D01*
X37450000Y46500000D02*
X37450000Y47100000D01*
X37450000Y47100000D02*
X40350000Y47100000D01*
X37450000Y44800000D02*
X40350000Y44800000D01*
X35050000Y22400001D02*
X35050000Y22900001D01*
X35050000Y22900001D02*
X35550000Y22900001D01*
X39750000Y22900001D02*
X40250000Y22900001D01*
X40250000Y22900001D02*
X40250000Y22400001D01*
X40250000Y20100001D02*
X40250000Y19600001D01*
X40250000Y19600001D02*
X39750000Y19600001D01*
X35050000Y19700001D02*
X35050000Y20650001D01*
D19*
X40507485Y30350000D02*
X39807485Y30350000D01*
X40507485Y28850000D02*
X39807485Y28850000D01*
D18*
X43587221Y32260000D02*
X43912779Y32260000D01*
X43587221Y31240000D02*
X43912779Y31240000D01*
X43587221Y30760000D02*
X43912779Y30760000D01*
X43587221Y29740000D02*
X43912779Y29740000D01*
X39990000Y37087221D02*
X39990000Y37412779D01*
X41010000Y37087221D02*
X41010000Y37412779D01*
X38490000Y26837221D02*
X38490000Y27162779D01*
X39510000Y26837221D02*
X39510000Y27162779D01*
X30225727Y20504478D02*
X29995522Y20274273D01*
X29504478Y21225727D02*
X29274273Y20995522D01*
X38160000Y18114682D02*
X38160000Y17789124D01*
X37140000Y18114682D02*
X37140000Y17789124D01*
X39660000Y18114682D02*
X39660000Y17789124D01*
X38640000Y18114682D02*
X38640000Y17789124D01*
X34660000Y20766333D02*
X34660000Y20440775D01*
X33640000Y20766333D02*
X33640000Y20440775D01*
X38490000Y4637221D02*
X38490000Y4962779D01*
X39510000Y4637221D02*
X39510000Y4962779D01*
X38490000Y8637221D02*
X38490000Y8962779D01*
X39510000Y8637221D02*
X39510000Y8962779D01*
X22490000Y12087221D02*
X22490000Y12412779D01*
X23510000Y12087221D02*
X23510000Y12412779D01*
X28510000Y12412779D02*
X28510000Y12087221D01*
X27490000Y12412779D02*
X27490000Y12087221D01*
X32010000Y8162779D02*
X32010000Y7837221D01*
X30990000Y8162779D02*
X30990000Y7837221D01*
X30637221Y17860000D02*
X30962779Y17860000D01*
X30637221Y16840000D02*
X30962779Y16840000D01*
X34740000Y34087221D02*
X34740000Y34412779D01*
X35760000Y34087221D02*
X35760000Y34412779D01*
X43587221Y36885000D02*
X43912779Y36885000D01*
X43587221Y35865000D02*
X43912779Y35865000D01*
X43912779Y34365000D02*
X43587221Y34365000D01*
X43912779Y35385000D02*
X43587221Y35385000D01*
X39510000Y37412779D02*
X39510000Y37087221D01*
X38490000Y37412779D02*
X38490000Y37087221D01*
X36510000Y37412779D02*
X36510000Y37087221D01*
X35490000Y37412779D02*
X35490000Y37087221D01*
X38010000Y37412779D02*
X38010000Y37087221D01*
X36990000Y37412779D02*
X36990000Y37087221D01*
X23710000Y17262779D02*
X23710000Y16937221D01*
X22690000Y17262779D02*
X22690000Y16937221D01*
X21090000Y16937221D02*
X21090000Y17262779D01*
X22110000Y16937221D02*
X22110000Y17262779D01*
X34590000Y41787221D02*
X34590000Y42112779D01*
X35610000Y41787221D02*
X35610000Y42112779D01*
X33090000Y41787221D02*
X33090000Y42112779D01*
X34110000Y41787221D02*
X34110000Y42112779D01*
X30000000Y15065000D02*
X32285000Y15065000D01*
X32285000Y15065000D02*
X32285000Y16535000D01*
X32285000Y16535000D02*
X30000000Y16535000D01*
X10840000Y5397936D02*
X10840000Y6602064D01*
X12660000Y5397936D02*
X12660000Y6602064D01*
D20*
X20710000Y7850000D02*
X20710000Y6600000D01*
X30290000Y7850000D02*
X30290000Y6600000D01*
D18*
X2203949Y7676955D02*
X323045Y5796051D01*
X5838478Y4042426D02*
X2203949Y7676955D01*
X3957574Y2161522D02*
X323045Y5796051D01*
X5838478Y4042426D02*
X3957574Y2161522D01*
X6736503Y3144401D02*
X7676955Y2203949D01*
X7676955Y2203949D02*
X6736503Y1263497D01*
X43323045Y2203949D02*
X45203949Y323045D01*
X46957574Y5838478D02*
X43323045Y2203949D01*
X48838478Y3957574D02*
X45203949Y323045D01*
X46957574Y5838478D02*
X48838478Y3957574D01*
X47855599Y6736503D02*
X48796051Y7676955D01*
X48796051Y7676955D02*
X49736503Y6736503D01*
X48796051Y43323045D02*
X50676955Y45203949D01*
X45161522Y46957574D02*
X48796051Y43323045D01*
X47042426Y48838478D02*
X50676955Y45203949D01*
X45161522Y46957574D02*
X47042426Y48838478D01*
X44263497Y47855599D02*
X43323045Y48796051D01*
X43323045Y48796051D02*
X44263497Y49736503D01*
X7676955Y48796051D02*
X5796051Y50676955D01*
X4042426Y45161522D02*
X7676955Y48796051D01*
X2161522Y47042426D02*
X5796051Y50676955D01*
X4042426Y45161522D02*
X2161522Y47042426D01*
X3144401Y44263497D02*
X2203949Y43323045D01*
X2203949Y43323045D02*
X1263497Y44263497D01*
D20*
X16890476Y37988096D02*
X16890476Y37340477D01*
X16928571Y37264286D01*
X16966666Y37226191D01*
X17042857Y37188096D01*
X17195238Y37188096D01*
X17271428Y37226191D01*
X17309523Y37264286D01*
X17347619Y37340477D01*
X17347619Y37988096D01*
X18071428Y37988096D02*
X17919047Y37988096D01*
X17842857Y37950000D01*
X17804761Y37911905D01*
X17728571Y37797620D01*
X17690476Y37645239D01*
X17690476Y37340477D01*
X17728571Y37264286D01*
X17766666Y37226191D01*
X17842857Y37188096D01*
X17995238Y37188096D01*
X18071428Y37226191D01*
X18109523Y37264286D01*
X18147619Y37340477D01*
X18147619Y37530953D01*
X18109523Y37607143D01*
X18071428Y37645239D01*
X17995238Y37683334D01*
X17842857Y37683334D01*
X17766666Y37645239D01*
X17728571Y37607143D01*
X17690476Y37530953D01*
D10*
X15316666Y24438096D02*
X14935714Y24438096D01*
X14935714Y25238096D01*
X16002380Y24438096D02*
X15545238Y24438096D01*
X15773809Y24438096D02*
X15773809Y25238096D01*
X15697619Y25123810D01*
X15621428Y25047620D01*
X15545238Y25009524D01*
X8685714Y39488096D02*
X8419047Y39869048D01*
X8228571Y39488096D02*
X8228571Y40288096D01*
X8533333Y40288096D01*
X8609523Y40250000D01*
X8647619Y40211905D01*
X8685714Y40135715D01*
X8685714Y40021429D01*
X8647619Y39945239D01*
X8609523Y39907143D01*
X8533333Y39869048D01*
X8228571Y39869048D01*
X8990476Y40211905D02*
X9028571Y40250000D01*
X9104761Y40288096D01*
X9295238Y40288096D01*
X9371428Y40250000D01*
X9409523Y40211905D01*
X9447619Y40135715D01*
X9447619Y40059524D01*
X9409523Y39945239D01*
X8952380Y39488096D01*
X9447619Y39488096D01*
X10133333Y40021429D02*
X10133333Y39488096D01*
X9942857Y40326191D02*
X9752380Y39754762D01*
X10247619Y39754762D01*
X8685714Y38188096D02*
X8419047Y38569048D01*
X8228571Y38188096D02*
X8228571Y38988096D01*
X8533333Y38988096D01*
X8609523Y38950000D01*
X8647619Y38911905D01*
X8685714Y38835715D01*
X8685714Y38721429D01*
X8647619Y38645239D01*
X8609523Y38607143D01*
X8533333Y38569048D01*
X8228571Y38569048D01*
X8990476Y38911905D02*
X9028571Y38950000D01*
X9104761Y38988096D01*
X9295238Y38988096D01*
X9371428Y38950000D01*
X9409523Y38911905D01*
X9447619Y38835715D01*
X9447619Y38759524D01*
X9409523Y38645239D01*
X8952380Y38188096D01*
X9447619Y38188096D01*
X9714285Y38988096D02*
X10209523Y38988096D01*
X9942857Y38683334D01*
X10057142Y38683334D01*
X10133333Y38645239D01*
X10171428Y38607143D01*
X10209523Y38530953D01*
X10209523Y38340477D01*
X10171428Y38264286D01*
X10133333Y38226191D01*
X10057142Y38188096D01*
X9828571Y38188096D01*
X9752380Y38226191D01*
X9714285Y38264286D01*
X46116666Y33013096D02*
X45850000Y33394048D01*
X45659523Y33013096D02*
X45659523Y33813096D01*
X45964285Y33813096D01*
X46040476Y33775000D01*
X46078571Y33736905D01*
X46116666Y33660715D01*
X46116666Y33546429D01*
X46078571Y33470239D01*
X46040476Y33432143D01*
X45964285Y33394048D01*
X45659523Y33394048D01*
X46383333Y33813096D02*
X46916666Y33813096D01*
X46573809Y33013096D01*
X13235714Y41538096D02*
X12969047Y41919048D01*
X12778571Y41538096D02*
X12778571Y42338096D01*
X13083333Y42338096D01*
X13159523Y42300000D01*
X13197619Y42261905D01*
X13235714Y42185715D01*
X13235714Y42071429D01*
X13197619Y41995239D01*
X13159523Y41957143D01*
X13083333Y41919048D01*
X12778571Y41919048D01*
X13540476Y42261905D02*
X13578571Y42300000D01*
X13654761Y42338096D01*
X13845238Y42338096D01*
X13921428Y42300000D01*
X13959523Y42261905D01*
X13997619Y42185715D01*
X13997619Y42109524D01*
X13959523Y41995239D01*
X13502380Y41538096D01*
X13997619Y41538096D01*
X14302380Y42261905D02*
X14340476Y42300000D01*
X14416666Y42338096D01*
X14607142Y42338096D01*
X14683333Y42300000D01*
X14721428Y42261905D01*
X14759523Y42185715D01*
X14759523Y42109524D01*
X14721428Y41995239D01*
X14264285Y41538096D01*
X14759523Y41538096D01*
X15960714Y38809286D02*
X15922619Y38771191D01*
X15808333Y38733096D01*
X15732142Y38733096D01*
X15617857Y38771191D01*
X15541666Y38847381D01*
X15503571Y38923572D01*
X15465476Y39075953D01*
X15465476Y39190239D01*
X15503571Y39342620D01*
X15541666Y39418810D01*
X15617857Y39495000D01*
X15732142Y39533096D01*
X15808333Y39533096D01*
X15922619Y39495000D01*
X15960714Y39456905D01*
X16265476Y39456905D02*
X16303571Y39495000D01*
X16379761Y39533096D01*
X16570238Y39533096D01*
X16646428Y39495000D01*
X16684523Y39456905D01*
X16722619Y39380715D01*
X16722619Y39304524D01*
X16684523Y39190239D01*
X16227380Y38733096D01*
X16722619Y38733096D01*
X17484523Y38733096D02*
X17027380Y38733096D01*
X17255952Y38733096D02*
X17255952Y39533096D01*
X17179761Y39418810D01*
X17103571Y39342620D01*
X17027380Y39304524D01*
X21490476Y24788096D02*
X21490476Y24140477D01*
X21528571Y24064286D01*
X21566666Y24026191D01*
X21642857Y23988096D01*
X21795238Y23988096D01*
X21871428Y24026191D01*
X21909523Y24064286D01*
X21947619Y24140477D01*
X21947619Y24788096D01*
X22671428Y24521429D02*
X22671428Y23988096D01*
X22480952Y24826191D02*
X22290476Y24254762D01*
X22785714Y24254762D01*
X40935714Y24614286D02*
X40897619Y24576191D01*
X40783333Y24538096D01*
X40707142Y24538096D01*
X40592857Y24576191D01*
X40516666Y24652381D01*
X40478571Y24728572D01*
X40440476Y24880953D01*
X40440476Y24995239D01*
X40478571Y25147620D01*
X40516666Y25223810D01*
X40592857Y25300000D01*
X40707142Y25338096D01*
X40783333Y25338096D01*
X40897619Y25300000D01*
X40935714Y25261905D01*
X41697619Y24538096D02*
X41240476Y24538096D01*
X41469047Y24538096D02*
X41469047Y25338096D01*
X41392857Y25223810D01*
X41316666Y25147620D01*
X41240476Y25109524D01*
X42002380Y25261905D02*
X42040476Y25300000D01*
X42116666Y25338096D01*
X42307142Y25338096D01*
X42383333Y25300000D01*
X42421428Y25261905D01*
X42459523Y25185715D01*
X42459523Y25109524D01*
X42421428Y24995239D01*
X41964285Y24538096D01*
X42459523Y24538096D01*
X13340476Y23538096D02*
X13340476Y22890477D01*
X13378571Y22814286D01*
X13416666Y22776191D01*
X13492857Y22738096D01*
X13645238Y22738096D01*
X13721428Y22776191D01*
X13759523Y22814286D01*
X13797619Y22890477D01*
X13797619Y23538096D01*
X14140476Y23461905D02*
X14178571Y23500000D01*
X14254761Y23538096D01*
X14445238Y23538096D01*
X14521428Y23500000D01*
X14559523Y23461905D01*
X14597619Y23385715D01*
X14597619Y23309524D01*
X14559523Y23195239D01*
X14102380Y22738096D01*
X14597619Y22738096D01*
X40680439Y40357750D02*
X40761251Y40815686D01*
X40357190Y40680999D02*
X40922876Y41246684D01*
X41138375Y41031185D01*
X41165312Y40950373D01*
X41165312Y40896498D01*
X41138375Y40815686D01*
X41057563Y40734874D01*
X40976751Y40707936D01*
X40922876Y40707936D01*
X40842064Y40734874D01*
X40626564Y40950373D01*
X41407749Y40654062D02*
X41461624Y40654062D01*
X41542436Y40627124D01*
X41677123Y40492437D01*
X41704061Y40411625D01*
X41704061Y40357750D01*
X41677123Y40276938D01*
X41623248Y40223063D01*
X41515499Y40169188D01*
X40869001Y40169188D01*
X41219187Y39819002D01*
X41757935Y39280254D02*
X41434687Y39603503D01*
X41596311Y39441878D02*
X42161996Y40007564D01*
X42027309Y39980626D01*
X41919560Y39980626D01*
X41838748Y40007564D01*
X37835714Y43688096D02*
X37569047Y44069048D01*
X37378571Y43688096D02*
X37378571Y44488096D01*
X37683333Y44488096D01*
X37759523Y44450000D01*
X37797619Y44411905D01*
X37835714Y44335715D01*
X37835714Y44221429D01*
X37797619Y44145239D01*
X37759523Y44107143D01*
X37683333Y44069048D01*
X37378571Y44069048D01*
X38140476Y44411905D02*
X38178571Y44450000D01*
X38254761Y44488096D01*
X38445238Y44488096D01*
X38521428Y44450000D01*
X38559523Y44411905D01*
X38597619Y44335715D01*
X38597619Y44259524D01*
X38559523Y44145239D01*
X38102380Y43688096D01*
X38597619Y43688096D01*
X39092857Y44488096D02*
X39169047Y44488096D01*
X39245238Y44450000D01*
X39283333Y44411905D01*
X39321428Y44335715D01*
X39359523Y44183334D01*
X39359523Y43992858D01*
X39321428Y43840477D01*
X39283333Y43764286D01*
X39245238Y43726191D01*
X39169047Y43688096D01*
X39092857Y43688096D01*
X39016666Y43726191D01*
X38978571Y43764286D01*
X38940476Y43840477D01*
X38902380Y43992858D01*
X38902380Y44183334D01*
X38940476Y44335715D01*
X38978571Y44411905D01*
X39016666Y44450000D01*
X39092857Y44488096D01*
X36961904Y44185715D02*
X36580952Y43919048D01*
X36961904Y43728572D02*
X36161904Y43728572D01*
X36161904Y44033334D01*
X36200000Y44109524D01*
X36238095Y44147620D01*
X36314285Y44185715D01*
X36428571Y44185715D01*
X36504761Y44147620D01*
X36542857Y44109524D01*
X36580952Y44033334D01*
X36580952Y43728572D01*
X36961904Y44947620D02*
X36961904Y44490477D01*
X36961904Y44719048D02*
X36161904Y44719048D01*
X36276190Y44642858D01*
X36352380Y44566667D01*
X36390476Y44490477D01*
X36961904Y45328572D02*
X36961904Y45480953D01*
X36923809Y45557143D01*
X36885714Y45595239D01*
X36771428Y45671429D01*
X36619047Y45709524D01*
X36314285Y45709524D01*
X36238095Y45671429D01*
X36200000Y45633334D01*
X36161904Y45557143D01*
X36161904Y45404762D01*
X36200000Y45328572D01*
X36238095Y45290477D01*
X36314285Y45252381D01*
X36504761Y45252381D01*
X36580952Y45290477D01*
X36619047Y45328572D01*
X36657142Y45404762D01*
X36657142Y45557143D01*
X36619047Y45633334D01*
X36580952Y45671429D01*
X36504761Y45709524D01*
X28880439Y25607750D02*
X28961251Y26065686D01*
X28557190Y25930999D02*
X29122876Y26496684D01*
X29338375Y26281185D01*
X29365312Y26200373D01*
X29365312Y26146498D01*
X29338375Y26065686D01*
X29257563Y25984874D01*
X29176751Y25957936D01*
X29122876Y25957936D01*
X29042064Y25984874D01*
X28826564Y26200373D01*
X29419187Y25069002D02*
X29095938Y25392251D01*
X29257563Y25230626D02*
X29823248Y25796312D01*
X29688561Y25769375D01*
X29580812Y25769375D01*
X29500000Y25796312D01*
X30335059Y25284501D02*
X30388934Y25230626D01*
X30415871Y25149814D01*
X30415871Y25095939D01*
X30388934Y25015127D01*
X30308122Y24880440D01*
X30173435Y24745753D01*
X30038748Y24664941D01*
X29957935Y24638004D01*
X29904061Y24638004D01*
X29823248Y24664941D01*
X29769374Y24718816D01*
X29742436Y24799628D01*
X29742436Y24853503D01*
X29769374Y24934315D01*
X29850186Y25069002D01*
X29984873Y25203689D01*
X30119560Y25284501D01*
X30200372Y25311439D01*
X30254247Y25311439D01*
X30335059Y25284501D01*
X32940476Y14588096D02*
X32940476Y13940477D01*
X32978571Y13864286D01*
X33016666Y13826191D01*
X33092857Y13788096D01*
X33245238Y13788096D01*
X33321428Y13826191D01*
X33359523Y13864286D01*
X33397619Y13940477D01*
X33397619Y14588096D01*
X34197619Y13788096D02*
X33740476Y13788096D01*
X33969047Y13788096D02*
X33969047Y14588096D01*
X33892857Y14473810D01*
X33816666Y14397620D01*
X33740476Y14359524D01*
X31284314Y23861625D02*
X31230439Y23861625D01*
X31122690Y23915500D01*
X31068815Y23969375D01*
X31014940Y24077124D01*
X31014940Y24184874D01*
X31041877Y24265686D01*
X31122690Y24400373D01*
X31203502Y24481185D01*
X31338189Y24561997D01*
X31419001Y24588935D01*
X31526751Y24588935D01*
X31634500Y24535060D01*
X31688375Y24481185D01*
X31742250Y24373436D01*
X31742250Y24319561D01*
X31957749Y24104062D02*
X32011624Y24104062D01*
X32092436Y24077124D01*
X32227123Y23942437D01*
X32254061Y23861625D01*
X32254061Y23807750D01*
X32227123Y23726938D01*
X32173248Y23673063D01*
X32065499Y23619188D01*
X31419001Y23619188D01*
X31769187Y23269002D01*
X32523435Y23646126D02*
X32873621Y23295939D01*
X32469560Y23269002D01*
X32550372Y23188190D01*
X32577309Y23107378D01*
X32577309Y23053503D01*
X32550372Y22972691D01*
X32415685Y22838004D01*
X32334873Y22811066D01*
X32280998Y22811066D01*
X32200186Y22838004D01*
X32038561Y22999628D01*
X32011624Y23080440D01*
X32011624Y23134315D01*
X32416666Y27838096D02*
X32150000Y28219048D01*
X31959523Y27838096D02*
X31959523Y28638096D01*
X32264285Y28638096D01*
X32340476Y28600000D01*
X32378571Y28561905D01*
X32416666Y28485715D01*
X32416666Y28371429D01*
X32378571Y28295239D01*
X32340476Y28257143D01*
X32264285Y28219048D01*
X31959523Y28219048D01*
X32683333Y28638096D02*
X33216666Y27838096D01*
X33216666Y28638096D02*
X32683333Y27838096D01*
X29390476Y28638096D02*
X29847619Y28638096D01*
X29619047Y27838096D02*
X29619047Y28638096D01*
X30038095Y28638096D02*
X30571428Y27838096D01*
X30571428Y28638096D02*
X30038095Y27838096D01*
X19161904Y7690477D02*
X19809523Y7690477D01*
X19885714Y7728572D01*
X19923809Y7766667D01*
X19961904Y7842858D01*
X19961904Y7995239D01*
X19923809Y8071429D01*
X19885714Y8109524D01*
X19809523Y8147620D01*
X19161904Y8147620D01*
X19923809Y8490477D02*
X19961904Y8604762D01*
X19961904Y8795239D01*
X19923809Y8871429D01*
X19885714Y8909524D01*
X19809523Y8947620D01*
X19733333Y8947620D01*
X19657142Y8909524D01*
X19619047Y8871429D01*
X19580952Y8795239D01*
X19542857Y8642858D01*
X19504761Y8566667D01*
X19466666Y8528572D01*
X19390476Y8490477D01*
X19314285Y8490477D01*
X19238095Y8528572D01*
X19200000Y8566667D01*
X19161904Y8642858D01*
X19161904Y8833334D01*
X19200000Y8947620D01*
X19542857Y9557143D02*
X19580952Y9671429D01*
X19619047Y9709524D01*
X19695238Y9747620D01*
X19809523Y9747620D01*
X19885714Y9709524D01*
X19923809Y9671429D01*
X19961904Y9595239D01*
X19961904Y9290477D01*
X19161904Y9290477D01*
X19161904Y9557143D01*
X19200000Y9633334D01*
X19238095Y9671429D01*
X19314285Y9709524D01*
X19390476Y9709524D01*
X19466666Y9671429D01*
X19504761Y9633334D01*
X19542857Y9557143D01*
X19542857Y9290477D01*
X6123809Y16688096D02*
X6390476Y15888096D01*
X6657142Y16688096D01*
X6923809Y15888096D02*
X6923809Y16688096D01*
X7304761Y15888096D02*
X7304761Y16688096D01*
X7761904Y15888096D01*
X7761904Y16688096D01*
X11085714Y42788096D02*
X10819047Y43169048D01*
X10628571Y42788096D02*
X10628571Y43588096D01*
X10933333Y43588096D01*
X11009523Y43550000D01*
X11047619Y43511905D01*
X11085714Y43435715D01*
X11085714Y43321429D01*
X11047619Y43245239D01*
X11009523Y43207143D01*
X10933333Y43169048D01*
X10628571Y43169048D01*
X11847619Y42788096D02*
X11390476Y42788096D01*
X11619047Y42788096D02*
X11619047Y43588096D01*
X11542857Y43473810D01*
X11466666Y43397620D01*
X11390476Y43359524D01*
X12304761Y43245239D02*
X12228571Y43283334D01*
X12190476Y43321429D01*
X12152380Y43397620D01*
X12152380Y43435715D01*
X12190476Y43511905D01*
X12228571Y43550000D01*
X12304761Y43588096D01*
X12457142Y43588096D01*
X12533333Y43550000D01*
X12571428Y43511905D01*
X12609523Y43435715D01*
X12609523Y43397620D01*
X12571428Y43321429D01*
X12533333Y43283334D01*
X12457142Y43245239D01*
X12304761Y43245239D01*
X12228571Y43207143D01*
X12190476Y43169048D01*
X12152380Y43092858D01*
X12152380Y42940477D01*
X12190476Y42864286D01*
X12228571Y42826191D01*
X12304761Y42788096D01*
X12457142Y42788096D01*
X12533333Y42826191D01*
X12571428Y42864286D01*
X12609523Y42940477D01*
X12609523Y43092858D01*
X12571428Y43169048D01*
X12533333Y43207143D01*
X12457142Y43245239D01*
X5166666Y11188096D02*
X4900000Y11569048D01*
X4709523Y11188096D02*
X4709523Y11988096D01*
X5014285Y11988096D01*
X5090476Y11950000D01*
X5128571Y11911905D01*
X5166666Y11835715D01*
X5166666Y11721429D01*
X5128571Y11645239D01*
X5090476Y11607143D01*
X5014285Y11569048D01*
X4709523Y11569048D01*
X5928571Y11188096D02*
X5471428Y11188096D01*
X5700000Y11188096D02*
X5700000Y11988096D01*
X5623809Y11873810D01*
X5547619Y11797620D01*
X5471428Y11759524D01*
X13473809Y12011905D02*
X13397619Y12050000D01*
X13321428Y12126191D01*
X13207142Y12240477D01*
X13130952Y12278572D01*
X13054761Y12278572D01*
X13092857Y12088096D02*
X13016666Y12126191D01*
X12940476Y12202381D01*
X12902380Y12354762D01*
X12902380Y12621429D01*
X12940476Y12773810D01*
X13016666Y12850000D01*
X13092857Y12888096D01*
X13245238Y12888096D01*
X13321428Y12850000D01*
X13397619Y12773810D01*
X13435714Y12621429D01*
X13435714Y12354762D01*
X13397619Y12202381D01*
X13321428Y12126191D01*
X13245238Y12088096D01*
X13092857Y12088096D01*
X14197619Y12088096D02*
X13740476Y12088096D01*
X13969047Y12088096D02*
X13969047Y12888096D01*
X13892857Y12773810D01*
X13816666Y12697620D01*
X13740476Y12659524D01*
X10409523Y47588096D02*
X10409523Y48388096D01*
X10600000Y48388096D01*
X10714285Y48350000D01*
X10790476Y48273810D01*
X10828571Y48197620D01*
X10866666Y48045239D01*
X10866666Y47930953D01*
X10828571Y47778572D01*
X10790476Y47702381D01*
X10714285Y47626191D01*
X10600000Y47588096D01*
X10409523Y47588096D01*
X11552380Y48121429D02*
X11552380Y47588096D01*
X11361904Y48426191D02*
X11171428Y47854762D01*
X11666666Y47854762D01*
X16785714Y46214286D02*
X16747619Y46176191D01*
X16633333Y46138096D01*
X16557142Y46138096D01*
X16442857Y46176191D01*
X16366666Y46252381D01*
X16328571Y46328572D01*
X16290476Y46480953D01*
X16290476Y46595239D01*
X16328571Y46747620D01*
X16366666Y46823810D01*
X16442857Y46900000D01*
X16557142Y46938096D01*
X16633333Y46938096D01*
X16747619Y46900000D01*
X16785714Y46861905D01*
X17547619Y46138096D02*
X17090476Y46138096D01*
X17319047Y46138096D02*
X17319047Y46938096D01*
X17242857Y46823810D01*
X17166666Y46747620D01*
X17090476Y46709524D01*
X17928571Y46138096D02*
X18080952Y46138096D01*
X18157142Y46176191D01*
X18195238Y46214286D01*
X18271428Y46328572D01*
X18309523Y46480953D01*
X18309523Y46785715D01*
X18271428Y46861905D01*
X18233333Y46900000D01*
X18157142Y46938096D01*
X18004761Y46938096D01*
X17928571Y46900000D01*
X17890476Y46861905D01*
X17852380Y46785715D01*
X17852380Y46595239D01*
X17890476Y46519048D01*
X17928571Y46480953D01*
X18004761Y46442858D01*
X18157142Y46442858D01*
X18233333Y46480953D01*
X18271428Y46519048D01*
X18309523Y46595239D01*
X14585714Y47614286D02*
X14547619Y47576191D01*
X14433333Y47538096D01*
X14357142Y47538096D01*
X14242857Y47576191D01*
X14166666Y47652381D01*
X14128571Y47728572D01*
X14090476Y47880953D01*
X14090476Y47995239D01*
X14128571Y48147620D01*
X14166666Y48223810D01*
X14242857Y48300000D01*
X14357142Y48338096D01*
X14433333Y48338096D01*
X14547619Y48300000D01*
X14585714Y48261905D01*
X15347619Y47538096D02*
X14890476Y47538096D01*
X15119047Y47538096D02*
X15119047Y48338096D01*
X15042857Y48223810D01*
X14966666Y48147620D01*
X14890476Y48109524D01*
X15804761Y47995239D02*
X15728571Y48033334D01*
X15690476Y48071429D01*
X15652380Y48147620D01*
X15652380Y48185715D01*
X15690476Y48261905D01*
X15728571Y48300000D01*
X15804761Y48338096D01*
X15957142Y48338096D01*
X16033333Y48300000D01*
X16071428Y48261905D01*
X16109523Y48185715D01*
X16109523Y48147620D01*
X16071428Y48071429D01*
X16033333Y48033334D01*
X15957142Y47995239D01*
X15804761Y47995239D01*
X15728571Y47957143D01*
X15690476Y47919048D01*
X15652380Y47842858D01*
X15652380Y47690477D01*
X15690476Y47614286D01*
X15728571Y47576191D01*
X15804761Y47538096D01*
X15957142Y47538096D01*
X16033333Y47576191D01*
X16071428Y47614286D01*
X16109523Y47690477D01*
X16109523Y47842858D01*
X16071428Y47919048D01*
X16033333Y47957143D01*
X15957142Y47995239D01*
X35784314Y15061625D02*
X35730439Y15061625D01*
X35622690Y15115500D01*
X35568815Y15169375D01*
X35514940Y15277124D01*
X35514940Y15384874D01*
X35541877Y15465686D01*
X35622690Y15600373D01*
X35703502Y15681185D01*
X35838189Y15761997D01*
X35919001Y15788935D01*
X36026751Y15788935D01*
X36134500Y15735060D01*
X36188375Y15681185D01*
X36242250Y15573436D01*
X36242250Y15519561D01*
X36269187Y14469002D02*
X35945938Y14792251D01*
X36107563Y14630626D02*
X36673248Y15196312D01*
X36538561Y15169375D01*
X36430812Y15169375D01*
X36350000Y15196312D01*
X37131184Y14361252D02*
X36754061Y13984129D01*
X37211996Y14711439D02*
X36673248Y14442065D01*
X37023435Y14091878D01*
X28788375Y17384315D02*
X28788375Y17330440D01*
X28734500Y17222691D01*
X28680625Y17168816D01*
X28572876Y17114941D01*
X28465126Y17114941D01*
X28384314Y17141878D01*
X28249627Y17222691D01*
X28168815Y17303503D01*
X28088003Y17438190D01*
X28061065Y17519002D01*
X28061065Y17626752D01*
X28114940Y17734501D01*
X28168815Y17788376D01*
X28276564Y17842251D01*
X28330439Y17842251D01*
X29380998Y17869188D02*
X29057749Y17545939D01*
X29219374Y17707564D02*
X28653688Y18273249D01*
X28680625Y18138562D01*
X28680625Y18030813D01*
X28653688Y17950000D01*
X29919746Y18407936D02*
X29596497Y18084688D01*
X29758122Y18246312D02*
X29192436Y18811997D01*
X29219374Y18677310D01*
X29219374Y18569561D01*
X29192436Y18488749D01*
X15516666Y19114286D02*
X15478571Y19076191D01*
X15364285Y19038096D01*
X15288095Y19038096D01*
X15173809Y19076191D01*
X15097619Y19152381D01*
X15059523Y19228572D01*
X15021428Y19380953D01*
X15021428Y19495239D01*
X15059523Y19647620D01*
X15097619Y19723810D01*
X15173809Y19800000D01*
X15288095Y19838096D01*
X15364285Y19838096D01*
X15478571Y19800000D01*
X15516666Y19761905D01*
X15973809Y19495239D02*
X15897619Y19533334D01*
X15859523Y19571429D01*
X15821428Y19647620D01*
X15821428Y19685715D01*
X15859523Y19761905D01*
X15897619Y19800000D01*
X15973809Y19838096D01*
X16126190Y19838096D01*
X16202380Y19800000D01*
X16240476Y19761905D01*
X16278571Y19685715D01*
X16278571Y19647620D01*
X16240476Y19571429D01*
X16202380Y19533334D01*
X16126190Y19495239D01*
X15973809Y19495239D01*
X15897619Y19457143D01*
X15859523Y19419048D01*
X15821428Y19342858D01*
X15821428Y19190477D01*
X15859523Y19114286D01*
X15897619Y19076191D01*
X15973809Y19038096D01*
X16126190Y19038096D01*
X16202380Y19076191D01*
X16240476Y19114286D01*
X16278571Y19190477D01*
X16278571Y19342858D01*
X16240476Y19419048D01*
X16202380Y19457143D01*
X16126190Y19495239D01*
X18841666Y14989286D02*
X18803571Y14951191D01*
X18689285Y14913096D01*
X18613095Y14913096D01*
X18498809Y14951191D01*
X18422619Y15027381D01*
X18384523Y15103572D01*
X18346428Y15255953D01*
X18346428Y15370239D01*
X18384523Y15522620D01*
X18422619Y15598810D01*
X18498809Y15675000D01*
X18613095Y15713096D01*
X18689285Y15713096D01*
X18803571Y15675000D01*
X18841666Y15636905D01*
X19565476Y15713096D02*
X19184523Y15713096D01*
X19146428Y15332143D01*
X19184523Y15370239D01*
X19260714Y15408334D01*
X19451190Y15408334D01*
X19527380Y15370239D01*
X19565476Y15332143D01*
X19603571Y15255953D01*
X19603571Y15065477D01*
X19565476Y14989286D01*
X19527380Y14951191D01*
X19451190Y14913096D01*
X19260714Y14913096D01*
X19184523Y14951191D01*
X19146428Y14989286D01*
X10366666Y15514286D02*
X10328571Y15476191D01*
X10214285Y15438096D01*
X10138095Y15438096D01*
X10023809Y15476191D01*
X9947619Y15552381D01*
X9909523Y15628572D01*
X9871428Y15780953D01*
X9871428Y15895239D01*
X9909523Y16047620D01*
X9947619Y16123810D01*
X10023809Y16200000D01*
X10138095Y16238096D01*
X10214285Y16238096D01*
X10328571Y16200000D01*
X10366666Y16161905D01*
X11052380Y15971429D02*
X11052380Y15438096D01*
X10861904Y16276191D02*
X10671428Y15704762D01*
X11166666Y15704762D01*
X11816666Y14414286D02*
X11778571Y14376191D01*
X11664285Y14338096D01*
X11588095Y14338096D01*
X11473809Y14376191D01*
X11397619Y14452381D01*
X11359523Y14528572D01*
X11321428Y14680953D01*
X11321428Y14795239D01*
X11359523Y14947620D01*
X11397619Y15023810D01*
X11473809Y15100000D01*
X11588095Y15138096D01*
X11664285Y15138096D01*
X11778571Y15100000D01*
X11816666Y15061905D01*
X12083333Y15138096D02*
X12578571Y15138096D01*
X12311904Y14833334D01*
X12426190Y14833334D01*
X12502380Y14795239D01*
X12540476Y14757143D01*
X12578571Y14680953D01*
X12578571Y14490477D01*
X12540476Y14414286D01*
X12502380Y14376191D01*
X12426190Y14338096D01*
X12197619Y14338096D01*
X12121428Y14376191D01*
X12083333Y14414286D01*
X14816666Y17914286D02*
X14778571Y17876191D01*
X14664285Y17838096D01*
X14588095Y17838096D01*
X14473809Y17876191D01*
X14397619Y17952381D01*
X14359523Y18028572D01*
X14321428Y18180953D01*
X14321428Y18295239D01*
X14359523Y18447620D01*
X14397619Y18523810D01*
X14473809Y18600000D01*
X14588095Y18638096D01*
X14664285Y18638096D01*
X14778571Y18600000D01*
X14816666Y18561905D01*
X15578571Y17838096D02*
X15121428Y17838096D01*
X15350000Y17838096D02*
X15350000Y18638096D01*
X15273809Y18523810D01*
X15197619Y18447620D01*
X15121428Y18409524D01*
X24909523Y15638096D02*
X24909523Y16438096D01*
X25100000Y16438096D01*
X25214285Y16400000D01*
X25290476Y16323810D01*
X25328571Y16247620D01*
X25366666Y16095239D01*
X25366666Y15980953D01*
X25328571Y15828572D01*
X25290476Y15752381D01*
X25214285Y15676191D01*
X25100000Y15638096D01*
X24909523Y15638096D01*
X25671428Y16361905D02*
X25709523Y16400000D01*
X25785714Y16438096D01*
X25976190Y16438096D01*
X26052380Y16400000D01*
X26090476Y16361905D01*
X26128571Y16285715D01*
X26128571Y16209524D01*
X26090476Y16095239D01*
X25633333Y15638096D01*
X26128571Y15638096D01*
X36390476Y30438096D02*
X36390476Y29790477D01*
X36428571Y29714286D01*
X36466666Y29676191D01*
X36542857Y29638096D01*
X36695238Y29638096D01*
X36771428Y29676191D01*
X36809523Y29714286D01*
X36847619Y29790477D01*
X36847619Y30438096D01*
X37152380Y30438096D02*
X37647619Y30438096D01*
X37380952Y30133334D01*
X37495238Y30133334D01*
X37571428Y30095239D01*
X37609523Y30057143D01*
X37647619Y29980953D01*
X37647619Y29790477D01*
X37609523Y29714286D01*
X37571428Y29676191D01*
X37495238Y29638096D01*
X37266666Y29638096D01*
X37190476Y29676191D01*
X37152380Y29714286D01*
X15759523Y12088096D02*
X15759523Y12888096D01*
X15950000Y12888096D01*
X16064285Y12850000D01*
X16140476Y12773810D01*
X16178571Y12697620D01*
X16216666Y12545239D01*
X16216666Y12430953D01*
X16178571Y12278572D01*
X16140476Y12202381D01*
X16064285Y12126191D01*
X15950000Y12088096D01*
X15759523Y12088096D01*
X16978571Y12088096D02*
X16521428Y12088096D01*
X16750000Y12088096D02*
X16750000Y12888096D01*
X16673809Y12773810D01*
X16597619Y12697620D01*
X16521428Y12659524D01*
X40959523Y45588096D02*
X40959523Y46388096D01*
X41150000Y46388096D01*
X41264285Y46350000D01*
X41340476Y46273810D01*
X41378571Y46197620D01*
X41416666Y46045239D01*
X41416666Y45930953D01*
X41378571Y45778572D01*
X41340476Y45702381D01*
X41264285Y45626191D01*
X41150000Y45588096D01*
X40959523Y45588096D01*
X42140476Y46388096D02*
X41759523Y46388096D01*
X41721428Y46007143D01*
X41759523Y46045239D01*
X41835714Y46083334D01*
X42026190Y46083334D01*
X42102380Y46045239D01*
X42140476Y46007143D01*
X42178571Y45930953D01*
X42178571Y45740477D01*
X42140476Y45664286D01*
X42102380Y45626191D01*
X42026190Y45588096D01*
X41835714Y45588096D01*
X41759523Y45626191D01*
X41721428Y45664286D01*
X40790476Y20438096D02*
X40790476Y19790477D01*
X40828571Y19714286D01*
X40866666Y19676191D01*
X40942857Y19638096D01*
X41095238Y19638096D01*
X41171428Y19676191D01*
X41209523Y19714286D01*
X41247619Y19790477D01*
X41247619Y20438096D01*
X42009523Y20438096D02*
X41628571Y20438096D01*
X41590476Y20057143D01*
X41628571Y20095239D01*
X41704761Y20133334D01*
X41895238Y20133334D01*
X41971428Y20095239D01*
X42009523Y20057143D01*
X42047619Y19980953D01*
X42047619Y19790477D01*
X42009523Y19714286D01*
X41971428Y19676191D01*
X41895238Y19638096D01*
X41704761Y19638096D01*
X41628571Y19676191D01*
X41590476Y19714286D01*
X42869047Y28369048D02*
X42869047Y27988096D01*
X42602380Y28788096D02*
X42869047Y28369048D01*
X43135714Y28788096D01*
X43821428Y27988096D02*
X43364285Y27988096D01*
X43592857Y27988096D02*
X43592857Y28788096D01*
X43516666Y28673810D01*
X43440476Y28597620D01*
X43364285Y28559524D01*
X46116666Y31464286D02*
X46078571Y31426191D01*
X45964285Y31388096D01*
X45888095Y31388096D01*
X45773809Y31426191D01*
X45697619Y31502381D01*
X45659523Y31578572D01*
X45621428Y31730953D01*
X45621428Y31845239D01*
X45659523Y31997620D01*
X45697619Y32073810D01*
X45773809Y32150000D01*
X45888095Y32188096D01*
X45964285Y32188096D01*
X46078571Y32150000D01*
X46116666Y32111905D01*
X46802380Y32188096D02*
X46650000Y32188096D01*
X46573809Y32150000D01*
X46535714Y32111905D01*
X46459523Y31997620D01*
X46421428Y31845239D01*
X46421428Y31540477D01*
X46459523Y31464286D01*
X46497619Y31426191D01*
X46573809Y31388096D01*
X46726190Y31388096D01*
X46802380Y31426191D01*
X46840476Y31464286D01*
X46878571Y31540477D01*
X46878571Y31730953D01*
X46840476Y31807143D01*
X46802380Y31845239D01*
X46726190Y31883334D01*
X46573809Y31883334D01*
X46497619Y31845239D01*
X46459523Y31807143D01*
X46421428Y31730953D01*
X46116666Y29964286D02*
X46078571Y29926191D01*
X45964285Y29888096D01*
X45888095Y29888096D01*
X45773809Y29926191D01*
X45697619Y30002381D01*
X45659523Y30078572D01*
X45621428Y30230953D01*
X45621428Y30345239D01*
X45659523Y30497620D01*
X45697619Y30573810D01*
X45773809Y30650000D01*
X45888095Y30688096D01*
X45964285Y30688096D01*
X46078571Y30650000D01*
X46116666Y30611905D01*
X46383333Y30688096D02*
X46916666Y30688096D01*
X46573809Y29888096D01*
X41966666Y37614286D02*
X41928571Y37576191D01*
X41814285Y37538096D01*
X41738095Y37538096D01*
X41623809Y37576191D01*
X41547619Y37652381D01*
X41509523Y37728572D01*
X41471428Y37880953D01*
X41471428Y37995239D01*
X41509523Y38147620D01*
X41547619Y38223810D01*
X41623809Y38300000D01*
X41738095Y38338096D01*
X41814285Y38338096D01*
X41928571Y38300000D01*
X41966666Y38261905D01*
X42347619Y37538096D02*
X42500000Y37538096D01*
X42576190Y37576191D01*
X42614285Y37614286D01*
X42690476Y37728572D01*
X42728571Y37880953D01*
X42728571Y38185715D01*
X42690476Y38261905D01*
X42652380Y38300000D01*
X42576190Y38338096D01*
X42423809Y38338096D01*
X42347619Y38300000D01*
X42309523Y38261905D01*
X42271428Y38185715D01*
X42271428Y37995239D01*
X42309523Y37919048D01*
X42347619Y37880953D01*
X42423809Y37842858D01*
X42576190Y37842858D01*
X42652380Y37880953D01*
X42690476Y37919048D01*
X42728571Y37995239D01*
X38335714Y24614286D02*
X38297619Y24576191D01*
X38183333Y24538096D01*
X38107142Y24538096D01*
X37992857Y24576191D01*
X37916666Y24652381D01*
X37878571Y24728572D01*
X37840476Y24880953D01*
X37840476Y24995239D01*
X37878571Y25147620D01*
X37916666Y25223810D01*
X37992857Y25300000D01*
X38107142Y25338096D01*
X38183333Y25338096D01*
X38297619Y25300000D01*
X38335714Y25261905D01*
X39097619Y24538096D02*
X38640476Y24538096D01*
X38869047Y24538096D02*
X38869047Y25338096D01*
X38792857Y25223810D01*
X38716666Y25147620D01*
X38640476Y25109524D01*
X39364285Y25338096D02*
X39859523Y25338096D01*
X39592857Y25033334D01*
X39707142Y25033334D01*
X39783333Y24995239D01*
X39821428Y24957143D01*
X39859523Y24880953D01*
X39859523Y24690477D01*
X39821428Y24614286D01*
X39783333Y24576191D01*
X39707142Y24538096D01*
X39478571Y24538096D01*
X39402380Y24576191D01*
X39364285Y24614286D01*
X27888375Y18184315D02*
X27888375Y18130440D01*
X27834500Y18022691D01*
X27780625Y17968816D01*
X27672876Y17914941D01*
X27565126Y17914941D01*
X27484314Y17941878D01*
X27349627Y18022691D01*
X27268815Y18103503D01*
X27188003Y18238190D01*
X27161065Y18319002D01*
X27161065Y18426752D01*
X27214940Y18534501D01*
X27268815Y18588376D01*
X27376564Y18642251D01*
X27430439Y18642251D01*
X28480998Y18669188D02*
X28157749Y18345939D01*
X28319374Y18507564D02*
X27753688Y19073249D01*
X27780625Y18938562D01*
X27780625Y18830813D01*
X27753688Y18750000D01*
X28265499Y19585060D02*
X28319374Y19638935D01*
X28400186Y19665872D01*
X28454061Y19665872D01*
X28534873Y19638935D01*
X28669560Y19558123D01*
X28804247Y19423436D01*
X28885059Y19288749D01*
X28911996Y19207936D01*
X28911996Y19154062D01*
X28885059Y19073249D01*
X28831184Y19019375D01*
X28750372Y18992437D01*
X28696497Y18992437D01*
X28615685Y19019375D01*
X28480998Y19100187D01*
X28346311Y19234874D01*
X28265499Y19369561D01*
X28238561Y19450373D01*
X28238561Y19504248D01*
X28265499Y19585060D01*
X37484314Y15561625D02*
X37430439Y15561625D01*
X37322690Y15615500D01*
X37268815Y15669375D01*
X37214940Y15777124D01*
X37214940Y15884874D01*
X37241877Y15965686D01*
X37322690Y16100373D01*
X37403502Y16181185D01*
X37538189Y16261997D01*
X37619001Y16288935D01*
X37726751Y16288935D01*
X37834500Y16235060D01*
X37888375Y16181185D01*
X37942250Y16073436D01*
X37942250Y16019561D01*
X37969187Y14969002D02*
X37645938Y15292251D01*
X37807563Y15130626D02*
X38373248Y15696312D01*
X38238561Y15669375D01*
X38130812Y15669375D01*
X38050000Y15696312D01*
X39046683Y15022877D02*
X38777309Y15292251D01*
X38480998Y15049814D01*
X38534873Y15049814D01*
X38615685Y15022877D01*
X38750372Y14888190D01*
X38777309Y14807378D01*
X38777309Y14753503D01*
X38750372Y14672691D01*
X38615685Y14538004D01*
X38534873Y14511066D01*
X38480998Y14511066D01*
X38400186Y14538004D01*
X38265499Y14672691D01*
X38238561Y14753503D01*
X38238561Y14807378D01*
X40885714Y17714286D02*
X40847619Y17676191D01*
X40733333Y17638096D01*
X40657142Y17638096D01*
X40542857Y17676191D01*
X40466666Y17752381D01*
X40428571Y17828572D01*
X40390476Y17980953D01*
X40390476Y18095239D01*
X40428571Y18247620D01*
X40466666Y18323810D01*
X40542857Y18400000D01*
X40657142Y18438096D01*
X40733333Y18438096D01*
X40847619Y18400000D01*
X40885714Y18361905D01*
X41647619Y17638096D02*
X41190476Y17638096D01*
X41419047Y17638096D02*
X41419047Y18438096D01*
X41342857Y18323810D01*
X41266666Y18247620D01*
X41190476Y18209524D01*
X42333333Y18438096D02*
X42180952Y18438096D01*
X42104761Y18400000D01*
X42066666Y18361905D01*
X41990476Y18247620D01*
X41952380Y18095239D01*
X41952380Y17790477D01*
X41990476Y17714286D01*
X42028571Y17676191D01*
X42104761Y17638096D01*
X42257142Y17638096D01*
X42333333Y17676191D01*
X42371428Y17714286D01*
X42409523Y17790477D01*
X42409523Y17980953D01*
X42371428Y18057143D01*
X42333333Y18095239D01*
X42257142Y18133334D01*
X42104761Y18133334D01*
X42028571Y18095239D01*
X41990476Y18057143D01*
X41952380Y17980953D01*
X33085714Y18314286D02*
X33047619Y18276191D01*
X32933333Y18238096D01*
X32857142Y18238096D01*
X32742857Y18276191D01*
X32666666Y18352381D01*
X32628571Y18428572D01*
X32590476Y18580953D01*
X32590476Y18695239D01*
X32628571Y18847620D01*
X32666666Y18923810D01*
X32742857Y19000000D01*
X32857142Y19038096D01*
X32933333Y19038096D01*
X33047619Y19000000D01*
X33085714Y18961905D01*
X33847619Y18238096D02*
X33390476Y18238096D01*
X33619047Y18238096D02*
X33619047Y19038096D01*
X33542857Y18923810D01*
X33466666Y18847620D01*
X33390476Y18809524D01*
X34114285Y19038096D02*
X34647619Y19038096D01*
X34304761Y18238096D01*
X38735714Y2464286D02*
X38697619Y2426191D01*
X38583333Y2388096D01*
X38507142Y2388096D01*
X38392857Y2426191D01*
X38316666Y2502381D01*
X38278571Y2578572D01*
X38240476Y2730953D01*
X38240476Y2845239D01*
X38278571Y2997620D01*
X38316666Y3073810D01*
X38392857Y3150000D01*
X38507142Y3188096D01*
X38583333Y3188096D01*
X38697619Y3150000D01*
X38735714Y3111905D01*
X39040476Y3111905D02*
X39078571Y3150000D01*
X39154761Y3188096D01*
X39345238Y3188096D01*
X39421428Y3150000D01*
X39459523Y3111905D01*
X39497619Y3035715D01*
X39497619Y2959524D01*
X39459523Y2845239D01*
X39002380Y2388096D01*
X39497619Y2388096D01*
X39992857Y3188096D02*
X40069047Y3188096D01*
X40145238Y3150000D01*
X40183333Y3111905D01*
X40221428Y3035715D01*
X40259523Y2883334D01*
X40259523Y2692858D01*
X40221428Y2540477D01*
X40183333Y2464286D01*
X40145238Y2426191D01*
X40069047Y2388096D01*
X39992857Y2388096D01*
X39916666Y2426191D01*
X39878571Y2464286D01*
X39840476Y2540477D01*
X39802380Y2692858D01*
X39802380Y2883334D01*
X39840476Y3035715D01*
X39878571Y3111905D01*
X39916666Y3150000D01*
X39992857Y3188096D01*
X38735714Y6464286D02*
X38697619Y6426191D01*
X38583333Y6388096D01*
X38507142Y6388096D01*
X38392857Y6426191D01*
X38316666Y6502381D01*
X38278571Y6578572D01*
X38240476Y6730953D01*
X38240476Y6845239D01*
X38278571Y6997620D01*
X38316666Y7073810D01*
X38392857Y7150000D01*
X38507142Y7188096D01*
X38583333Y7188096D01*
X38697619Y7150000D01*
X38735714Y7111905D01*
X39040476Y7111905D02*
X39078571Y7150000D01*
X39154761Y7188096D01*
X39345238Y7188096D01*
X39421428Y7150000D01*
X39459523Y7111905D01*
X39497619Y7035715D01*
X39497619Y6959524D01*
X39459523Y6845239D01*
X39002380Y6388096D01*
X39497619Y6388096D01*
X39802380Y7111905D02*
X39840476Y7150000D01*
X39916666Y7188096D01*
X40107142Y7188096D01*
X40183333Y7150000D01*
X40221428Y7111905D01*
X40259523Y7035715D01*
X40259523Y6959524D01*
X40221428Y6845239D01*
X39764285Y6388096D01*
X40259523Y6388096D01*
X21316666Y11888096D02*
X21050000Y12269048D01*
X20859523Y11888096D02*
X20859523Y12688096D01*
X21164285Y12688096D01*
X21240476Y12650000D01*
X21278571Y12611905D01*
X21316666Y12535715D01*
X21316666Y12421429D01*
X21278571Y12345239D01*
X21240476Y12307143D01*
X21164285Y12269048D01*
X20859523Y12269048D01*
X21621428Y12611905D02*
X21659523Y12650000D01*
X21735714Y12688096D01*
X21926190Y12688096D01*
X22002380Y12650000D01*
X22040476Y12611905D01*
X22078571Y12535715D01*
X22078571Y12459524D01*
X22040476Y12345239D01*
X21583333Y11888096D01*
X22078571Y11888096D01*
X29366666Y11888096D02*
X29100000Y12269048D01*
X28909523Y11888096D02*
X28909523Y12688096D01*
X29214285Y12688096D01*
X29290476Y12650000D01*
X29328571Y12611905D01*
X29366666Y12535715D01*
X29366666Y12421429D01*
X29328571Y12345239D01*
X29290476Y12307143D01*
X29214285Y12269048D01*
X28909523Y12269048D01*
X29633333Y12688096D02*
X30128571Y12688096D01*
X29861904Y12383334D01*
X29976190Y12383334D01*
X30052380Y12345239D01*
X30090476Y12307143D01*
X30128571Y12230953D01*
X30128571Y12040477D01*
X30090476Y11964286D01*
X30052380Y11926191D01*
X29976190Y11888096D01*
X29747619Y11888096D01*
X29671428Y11926191D01*
X29633333Y11964286D01*
X31366666Y9688096D02*
X31100000Y10069048D01*
X30909523Y9688096D02*
X30909523Y10488096D01*
X31214285Y10488096D01*
X31290476Y10450000D01*
X31328571Y10411905D01*
X31366666Y10335715D01*
X31366666Y10221429D01*
X31328571Y10145239D01*
X31290476Y10107143D01*
X31214285Y10069048D01*
X30909523Y10069048D01*
X32052380Y10221429D02*
X32052380Y9688096D01*
X31861904Y10526191D02*
X31671428Y9954762D01*
X32166666Y9954762D01*
X33016666Y16888096D02*
X32750000Y17269048D01*
X32559523Y16888096D02*
X32559523Y17688096D01*
X32864285Y17688096D01*
X32940476Y17650000D01*
X32978571Y17611905D01*
X33016666Y17535715D01*
X33016666Y17421429D01*
X32978571Y17345239D01*
X32940476Y17307143D01*
X32864285Y17269048D01*
X32559523Y17269048D01*
X33702380Y17688096D02*
X33550000Y17688096D01*
X33473809Y17650000D01*
X33435714Y17611905D01*
X33359523Y17497620D01*
X33321428Y17345239D01*
X33321428Y17040477D01*
X33359523Y16964286D01*
X33397619Y16926191D01*
X33473809Y16888096D01*
X33626190Y16888096D01*
X33702380Y16926191D01*
X33740476Y16964286D01*
X33778571Y17040477D01*
X33778571Y17230953D01*
X33740476Y17307143D01*
X33702380Y17345239D01*
X33626190Y17383334D01*
X33473809Y17383334D01*
X33397619Y17345239D01*
X33359523Y17307143D01*
X33321428Y17230953D01*
X35116666Y31688096D02*
X34850000Y32069048D01*
X34659523Y31688096D02*
X34659523Y32488096D01*
X34964285Y32488096D01*
X35040476Y32450000D01*
X35078571Y32411905D01*
X35116666Y32335715D01*
X35116666Y32221429D01*
X35078571Y32145239D01*
X35040476Y32107143D01*
X34964285Y32069048D01*
X34659523Y32069048D01*
X35840476Y32488096D02*
X35459523Y32488096D01*
X35421428Y32107143D01*
X35459523Y32145239D01*
X35535714Y32183334D01*
X35726190Y32183334D01*
X35802380Y32145239D01*
X35840476Y32107143D01*
X35878571Y32030953D01*
X35878571Y31840477D01*
X35840476Y31764286D01*
X35802380Y31726191D01*
X35726190Y31688096D01*
X35535714Y31688096D01*
X35459523Y31726191D01*
X35421428Y31764286D01*
X46116666Y36013096D02*
X45850000Y36394048D01*
X45659523Y36013096D02*
X45659523Y36813096D01*
X45964285Y36813096D01*
X46040476Y36775000D01*
X46078571Y36736905D01*
X46116666Y36660715D01*
X46116666Y36546429D01*
X46078571Y36470239D01*
X46040476Y36432143D01*
X45964285Y36394048D01*
X45659523Y36394048D01*
X46573809Y36470239D02*
X46497619Y36508334D01*
X46459523Y36546429D01*
X46421428Y36622620D01*
X46421428Y36660715D01*
X46459523Y36736905D01*
X46497619Y36775000D01*
X46573809Y36813096D01*
X46726190Y36813096D01*
X46802380Y36775000D01*
X46840476Y36736905D01*
X46878571Y36660715D01*
X46878571Y36622620D01*
X46840476Y36546429D01*
X46802380Y36508334D01*
X46726190Y36470239D01*
X46573809Y36470239D01*
X46497619Y36432143D01*
X46459523Y36394048D01*
X46421428Y36317858D01*
X46421428Y36165477D01*
X46459523Y36089286D01*
X46497619Y36051191D01*
X46573809Y36013096D01*
X46726190Y36013096D01*
X46802380Y36051191D01*
X46840476Y36089286D01*
X46878571Y36165477D01*
X46878571Y36317858D01*
X46840476Y36394048D01*
X46802380Y36432143D01*
X46726190Y36470239D01*
X46116666Y34513096D02*
X45850000Y34894048D01*
X45659523Y34513096D02*
X45659523Y35313096D01*
X45964285Y35313096D01*
X46040476Y35275000D01*
X46078571Y35236905D01*
X46116666Y35160715D01*
X46116666Y35046429D01*
X46078571Y34970239D01*
X46040476Y34932143D01*
X45964285Y34894048D01*
X45659523Y34894048D01*
X46497619Y34513096D02*
X46650000Y34513096D01*
X46726190Y34551191D01*
X46764285Y34589286D01*
X46840476Y34703572D01*
X46878571Y34855953D01*
X46878571Y35160715D01*
X46840476Y35236905D01*
X46802380Y35275000D01*
X46726190Y35313096D01*
X46573809Y35313096D01*
X46497619Y35275000D01*
X46459523Y35236905D01*
X46421428Y35160715D01*
X46421428Y34970239D01*
X46459523Y34894048D01*
X46497619Y34855953D01*
X46573809Y34817858D01*
X46726190Y34817858D01*
X46802380Y34855953D01*
X46840476Y34894048D01*
X46878571Y34970239D01*
X38935714Y38988096D02*
X38669047Y39369048D01*
X38478571Y38988096D02*
X38478571Y39788096D01*
X38783333Y39788096D01*
X38859523Y39750000D01*
X38897619Y39711905D01*
X38935714Y39635715D01*
X38935714Y39521429D01*
X38897619Y39445239D01*
X38859523Y39407143D01*
X38783333Y39369048D01*
X38478571Y39369048D01*
X39697619Y38988096D02*
X39240476Y38988096D01*
X39469047Y38988096D02*
X39469047Y39788096D01*
X39392857Y39673810D01*
X39316666Y39597620D01*
X39240476Y39559524D01*
X40459523Y38988096D02*
X40002380Y38988096D01*
X40230952Y38988096D02*
X40230952Y39788096D01*
X40154761Y39673810D01*
X40078571Y39597620D01*
X40002380Y39559524D01*
X33535714Y36888096D02*
X33269047Y37269048D01*
X33078571Y36888096D02*
X33078571Y37688096D01*
X33383333Y37688096D01*
X33459523Y37650000D01*
X33497619Y37611905D01*
X33535714Y37535715D01*
X33535714Y37421429D01*
X33497619Y37345239D01*
X33459523Y37307143D01*
X33383333Y37269048D01*
X33078571Y37269048D01*
X34297619Y36888096D02*
X33840476Y36888096D01*
X34069047Y36888096D02*
X34069047Y37688096D01*
X33992857Y37573810D01*
X33916666Y37497620D01*
X33840476Y37459524D01*
X34602380Y37611905D02*
X34640476Y37650000D01*
X34716666Y37688096D01*
X34907142Y37688096D01*
X34983333Y37650000D01*
X35021428Y37611905D01*
X35059523Y37535715D01*
X35059523Y37459524D01*
X35021428Y37345239D01*
X34564285Y36888096D01*
X35059523Y36888096D01*
X36435714Y38988096D02*
X36169047Y39369048D01*
X35978571Y38988096D02*
X35978571Y39788096D01*
X36283333Y39788096D01*
X36359523Y39750000D01*
X36397619Y39711905D01*
X36435714Y39635715D01*
X36435714Y39521429D01*
X36397619Y39445239D01*
X36359523Y39407143D01*
X36283333Y39369048D01*
X35978571Y39369048D01*
X37197619Y38988096D02*
X36740476Y38988096D01*
X36969047Y38988096D02*
X36969047Y39788096D01*
X36892857Y39673810D01*
X36816666Y39597620D01*
X36740476Y39559524D01*
X37464285Y39788096D02*
X37959523Y39788096D01*
X37692857Y39483334D01*
X37807142Y39483334D01*
X37883333Y39445239D01*
X37921428Y39407143D01*
X37959523Y39330953D01*
X37959523Y39140477D01*
X37921428Y39064286D01*
X37883333Y39026191D01*
X37807142Y38988096D01*
X37578571Y38988096D01*
X37502380Y39026191D01*
X37464285Y39064286D01*
X22135714Y14588096D02*
X21869047Y14969048D01*
X21678571Y14588096D02*
X21678571Y15388096D01*
X21983333Y15388096D01*
X22059523Y15350000D01*
X22097619Y15311905D01*
X22135714Y15235715D01*
X22135714Y15121429D01*
X22097619Y15045239D01*
X22059523Y15007143D01*
X21983333Y14969048D01*
X21678571Y14969048D01*
X22897619Y14588096D02*
X22440476Y14588096D01*
X22669047Y14588096D02*
X22669047Y15388096D01*
X22592857Y15273810D01*
X22516666Y15197620D01*
X22440476Y15159524D01*
X23583333Y15121429D02*
X23583333Y14588096D01*
X23392857Y15426191D02*
X23202380Y14854762D01*
X23697619Y14854762D01*
X21085714Y18838096D02*
X20819047Y19219048D01*
X20628571Y18838096D02*
X20628571Y19638096D01*
X20933333Y19638096D01*
X21009523Y19600000D01*
X21047619Y19561905D01*
X21085714Y19485715D01*
X21085714Y19371429D01*
X21047619Y19295239D01*
X21009523Y19257143D01*
X20933333Y19219048D01*
X20628571Y19219048D01*
X21847619Y18838096D02*
X21390476Y18838096D01*
X21619047Y18838096D02*
X21619047Y19638096D01*
X21542857Y19523810D01*
X21466666Y19447620D01*
X21390476Y19409524D01*
X22571428Y19638096D02*
X22190476Y19638096D01*
X22152380Y19257143D01*
X22190476Y19295239D01*
X22266666Y19333334D01*
X22457142Y19333334D01*
X22533333Y19295239D01*
X22571428Y19257143D01*
X22609523Y19180953D01*
X22609523Y18990477D01*
X22571428Y18914286D01*
X22533333Y18876191D01*
X22457142Y18838096D01*
X22266666Y18838096D01*
X22190476Y18876191D01*
X22152380Y18914286D01*
X35461904Y44135715D02*
X35080952Y43869048D01*
X35461904Y43678572D02*
X34661904Y43678572D01*
X34661904Y43983334D01*
X34700000Y44059524D01*
X34738095Y44097620D01*
X34814285Y44135715D01*
X34928571Y44135715D01*
X35004761Y44097620D01*
X35042857Y44059524D01*
X35080952Y43983334D01*
X35080952Y43678572D01*
X35461904Y44897620D02*
X35461904Y44440477D01*
X35461904Y44669048D02*
X34661904Y44669048D01*
X34776190Y44592858D01*
X34852380Y44516667D01*
X34890476Y44440477D01*
X34661904Y45583334D02*
X34661904Y45430953D01*
X34700000Y45354762D01*
X34738095Y45316667D01*
X34852380Y45240477D01*
X35004761Y45202381D01*
X35309523Y45202381D01*
X35385714Y45240477D01*
X35423809Y45278572D01*
X35461904Y45354762D01*
X35461904Y45507143D01*
X35423809Y45583334D01*
X35385714Y45621429D01*
X35309523Y45659524D01*
X35119047Y45659524D01*
X35042857Y45621429D01*
X35004761Y45583334D01*
X34966666Y45507143D01*
X34966666Y45354762D01*
X35004761Y45278572D01*
X35042857Y45240477D01*
X35119047Y45202381D01*
X33961904Y44135715D02*
X33580952Y43869048D01*
X33961904Y43678572D02*
X33161904Y43678572D01*
X33161904Y43983334D01*
X33200000Y44059524D01*
X33238095Y44097620D01*
X33314285Y44135715D01*
X33428571Y44135715D01*
X33504761Y44097620D01*
X33542857Y44059524D01*
X33580952Y43983334D01*
X33580952Y43678572D01*
X33961904Y44897620D02*
X33961904Y44440477D01*
X33961904Y44669048D02*
X33161904Y44669048D01*
X33276190Y44592858D01*
X33352380Y44516667D01*
X33390476Y44440477D01*
X33161904Y45164286D02*
X33161904Y45697620D01*
X33961904Y45354762D01*
X32559523Y15388096D02*
X32559523Y16188096D01*
X32750000Y16188096D01*
X32864285Y16150000D01*
X32940476Y16073810D01*
X32978571Y15997620D01*
X33016666Y15845239D01*
X33016666Y15730953D01*
X32978571Y15578572D01*
X32940476Y15502381D01*
X32864285Y15426191D01*
X32750000Y15388096D01*
X32559523Y15388096D01*
X33283333Y16188096D02*
X33778571Y16188096D01*
X33511904Y15883334D01*
X33626190Y15883334D01*
X33702380Y15845239D01*
X33740476Y15807143D01*
X33778571Y15730953D01*
X33778571Y15540477D01*
X33740476Y15464286D01*
X33702380Y15426191D01*
X33626190Y15388096D01*
X33397619Y15388096D01*
X33321428Y15426191D01*
X33283333Y15464286D01*
X9616666Y4714286D02*
X9578571Y4676191D01*
X9464285Y4638096D01*
X9388095Y4638096D01*
X9273809Y4676191D01*
X9197619Y4752381D01*
X9159523Y4828572D01*
X9121428Y4980953D01*
X9121428Y5095239D01*
X9159523Y5247620D01*
X9197619Y5323810D01*
X9273809Y5400000D01*
X9388095Y5438096D01*
X9464285Y5438096D01*
X9578571Y5400000D01*
X9616666Y5361905D01*
X9921428Y5361905D02*
X9959523Y5400000D01*
X10035714Y5438096D01*
X10226190Y5438096D01*
X10302380Y5400000D01*
X10340476Y5361905D01*
X10378571Y5285715D01*
X10378571Y5209524D01*
X10340476Y5095239D01*
X9883333Y4638096D01*
X10378571Y4638096D01*
M02*
