%TF.GenerationSoftware,KiCad,Pcbnew,(5.1.9-0-10_14)*%
%TF.CreationDate,2021-01-25T15:50:05-08:00*%
%TF.ProjectId,flight-computer-2,666c6967-6874-42d6-936f-6d7075746572,rev?*%
%TF.SameCoordinates,PX57bcf00PY58b1140*%
%TF.FileFunction,Soldermask,Bot*%
%TF.FilePolarity,Negative*%
%FSLAX46Y46*%
G04 Gerber Fmt 4.6, Leading zero omitted, Abs format (unit mm)*
G04 Created by KiCad (PCBNEW (5.1.9-0-10_14)) date 2021-01-25 15:50:05*
%MOMM*%
%LPD*%
G01*
G04 APERTURE LIST*
%ADD10C,0.250000*%
%ADD11O,1.800000X1.800000*%
%ADD12C,1.800000*%
%ADD13O,1.100000X2.100000*%
%ADD14O,1.150000X2.200000*%
%ADD15C,0.750000*%
%ADD16C,4.500000*%
G04 APERTURE END LIST*
D10*
X13290000Y19910000D02*
G75*
G03*
X13290000Y19910000I-100000J0D01*
G01*
X12110000Y19910000D02*
G75*
G03*
X12110000Y19910000I-100000J0D01*
G01*
X13290000Y21090000D02*
G75*
G03*
X13290000Y21090000I-100000J0D01*
G01*
X12110000Y21090000D02*
G75*
G03*
X12110000Y21090000I-100000J0D01*
G01*
D11*
X14500000Y9790000D03*
X14500000Y7250000D03*
G36*
G01*
X15400000Y5160000D02*
X15400000Y4260000D01*
G75*
G02*
X14950000Y3810000I-450000J0D01*
G01*
X14050000Y3810000D01*
G75*
G02*
X13600000Y4260000I0J450000D01*
G01*
X13600000Y5160000D01*
G75*
G02*
X14050000Y5610000I450000J0D01*
G01*
X14950000Y5610000D01*
G75*
G02*
X15400000Y5160000I0J-450000D01*
G01*
G37*
D12*
X5750000Y30580000D03*
D11*
X8290000Y30580000D03*
X5750000Y28040000D03*
X8290000Y28040000D03*
X5750000Y25500000D03*
X8290000Y25500000D03*
X5750000Y22960000D03*
X8290000Y22960000D03*
D12*
X5750000Y20420000D03*
G36*
G01*
X7390000Y19970000D02*
X7390000Y20870000D01*
G75*
G02*
X7840000Y21320000I450000J0D01*
G01*
X8740000Y21320000D01*
G75*
G02*
X9190000Y20870000I0J-450000D01*
G01*
X9190000Y19970000D01*
G75*
G02*
X8740000Y19520000I-450000J0D01*
G01*
X7840000Y19520000D01*
G75*
G02*
X7390000Y19970000I0J450000D01*
G01*
G37*
D13*
X21180000Y5200000D03*
X29820000Y5200000D03*
D14*
X21180000Y9380000D03*
X29820000Y9380000D03*
D15*
X28390000Y8880000D03*
X22610000Y8880000D03*
D16*
X8000000Y43000000D03*
X43000000Y43000000D03*
X43000000Y8000000D03*
X8000000Y8000000D03*
G36*
G01*
X2840345Y6432447D02*
X2840345Y6432447D01*
G75*
G02*
X2840345Y5159655I-636396J-636396D01*
G01*
X2840345Y5159655D01*
G75*
G02*
X1567553Y5159655I-636396J636396D01*
G01*
X1567553Y5159655D01*
G75*
G02*
X1567553Y6432447I636396J636396D01*
G01*
X1567553Y6432447D01*
G75*
G02*
X2840345Y6432447I636396J-636396D01*
G01*
G37*
G36*
G01*
X4636396Y4636396D02*
X4636396Y4636396D01*
G75*
G02*
X4636396Y3363604I-636396J-636396D01*
G01*
X4636396Y3363604D01*
G75*
G02*
X3363604Y3363604I-636396J636396D01*
G01*
X3363604Y3363604D01*
G75*
G02*
X3363604Y4636396I636396J636396D01*
G01*
X3363604Y4636396D01*
G75*
G02*
X4636396Y4636396I636396J-636396D01*
G01*
G37*
G36*
G01*
X6114249Y3158543D02*
X6750645Y2522147D01*
G75*
G02*
X6750645Y1885751I-318198J-318198D01*
G01*
X6114249Y1249355D01*
G75*
G02*
X5477853Y1249355I-318198J318198D01*
G01*
X4841457Y1885751D01*
G75*
G02*
X4841457Y2522147I318198J318198D01*
G01*
X5477853Y3158543D01*
G75*
G02*
X6114249Y3158543I318198J-318198D01*
G01*
G37*
G36*
G01*
X44567553Y2840345D02*
X44567553Y2840345D01*
G75*
G02*
X45840345Y2840345I636396J-636396D01*
G01*
X45840345Y2840345D01*
G75*
G02*
X45840345Y1567553I-636396J-636396D01*
G01*
X45840345Y1567553D01*
G75*
G02*
X44567553Y1567553I-636396J636396D01*
G01*
X44567553Y1567553D01*
G75*
G02*
X44567553Y2840345I636396J636396D01*
G01*
G37*
G36*
G01*
X46363604Y4636396D02*
X46363604Y4636396D01*
G75*
G02*
X47636396Y4636396I636396J-636396D01*
G01*
X47636396Y4636396D01*
G75*
G02*
X47636396Y3363604I-636396J-636396D01*
G01*
X47636396Y3363604D01*
G75*
G02*
X46363604Y3363604I-636396J636396D01*
G01*
X46363604Y3363604D01*
G75*
G02*
X46363604Y4636396I636396J636396D01*
G01*
G37*
G36*
G01*
X47841457Y6114249D02*
X48477853Y6750645D01*
G75*
G02*
X49114249Y6750645I318198J-318198D01*
G01*
X49750645Y6114249D01*
G75*
G02*
X49750645Y5477853I-318198J-318198D01*
G01*
X49114249Y4841457D01*
G75*
G02*
X48477853Y4841457I-318198J318198D01*
G01*
X47841457Y5477853D01*
G75*
G02*
X47841457Y6114249I318198J318198D01*
G01*
G37*
G36*
G01*
X48159655Y44567553D02*
X48159655Y44567553D01*
G75*
G02*
X48159655Y45840345I636396J636396D01*
G01*
X48159655Y45840345D01*
G75*
G02*
X49432447Y45840345I636396J-636396D01*
G01*
X49432447Y45840345D01*
G75*
G02*
X49432447Y44567553I-636396J-636396D01*
G01*
X49432447Y44567553D01*
G75*
G02*
X48159655Y44567553I-636396J636396D01*
G01*
G37*
G36*
G01*
X46363604Y46363604D02*
X46363604Y46363604D01*
G75*
G02*
X46363604Y47636396I636396J636396D01*
G01*
X46363604Y47636396D01*
G75*
G02*
X47636396Y47636396I636396J-636396D01*
G01*
X47636396Y47636396D01*
G75*
G02*
X47636396Y46363604I-636396J-636396D01*
G01*
X47636396Y46363604D01*
G75*
G02*
X46363604Y46363604I-636396J636396D01*
G01*
G37*
G36*
G01*
X44885751Y47841457D02*
X44249355Y48477853D01*
G75*
G02*
X44249355Y49114249I318198J318198D01*
G01*
X44885751Y49750645D01*
G75*
G02*
X45522147Y49750645I318198J-318198D01*
G01*
X46158543Y49114249D01*
G75*
G02*
X46158543Y48477853I-318198J-318198D01*
G01*
X45522147Y47841457D01*
G75*
G02*
X44885751Y47841457I-318198J318198D01*
G01*
G37*
G36*
G01*
X6432447Y48159655D02*
X6432447Y48159655D01*
G75*
G02*
X5159655Y48159655I-636396J636396D01*
G01*
X5159655Y48159655D01*
G75*
G02*
X5159655Y49432447I636396J636396D01*
G01*
X5159655Y49432447D01*
G75*
G02*
X6432447Y49432447I636396J-636396D01*
G01*
X6432447Y49432447D01*
G75*
G02*
X6432447Y48159655I-636396J-636396D01*
G01*
G37*
G36*
G01*
X4636396Y46363604D02*
X4636396Y46363604D01*
G75*
G02*
X3363604Y46363604I-636396J636396D01*
G01*
X3363604Y46363604D01*
G75*
G02*
X3363604Y47636396I636396J636396D01*
G01*
X3363604Y47636396D01*
G75*
G02*
X4636396Y47636396I636396J-636396D01*
G01*
X4636396Y47636396D01*
G75*
G02*
X4636396Y46363604I-636396J-636396D01*
G01*
G37*
G36*
G01*
X3158543Y44885751D02*
X2522147Y44249355D01*
G75*
G02*
X1885751Y44249355I-318198J318198D01*
G01*
X1249355Y44885751D01*
G75*
G02*
X1249355Y45522147I318198J318198D01*
G01*
X1885751Y46158543D01*
G75*
G02*
X2522147Y46158543I318198J-318198D01*
G01*
X3158543Y45522147D01*
G75*
G02*
X3158543Y44885751I-318198J-318198D01*
G01*
G37*
M02*
