%TF.GenerationSoftware,KiCad,Pcbnew,(5.1.6-0-10_14)*%
%TF.CreationDate,2020-08-05T09:35:40-10:00*%
%TF.ProjectId,flight-computer-2,666c6967-6874-42d6-936f-6d7075746572,rev?*%
%TF.SameCoordinates,Original*%
%TF.FileFunction,Soldermask,Top*%
%TF.FilePolarity,Negative*%
%FSLAX46Y46*%
G04 Gerber Fmt 4.6, Leading zero omitted, Abs format (unit mm)*
G04 Created by KiCad (PCBNEW (5.1.6-0-10_14)) date 2020-08-05 09:35:40*
%MOMM*%
%LPD*%
G01*
G04 APERTURE LIST*
%ADD10O,1.100000X2.100000*%
%ADD11O,1.150000X2.200000*%
%ADD12C,0.750000*%
%ADD13R,0.700000X1.250000*%
%ADD14R,0.400000X1.250000*%
%ADD15R,0.750000X1.160000*%
%ADD16R,3.900000X2.100000*%
%ADD17R,1.600000X2.100000*%
%ADD18R,0.775000X0.354000*%
%ADD19R,0.354000X0.775000*%
%ADD20R,1.900000X1.900000*%
%ADD21R,0.800000X0.350000*%
%ADD22R,0.350000X0.800000*%
%ADD23C,4.500000*%
%ADD24O,1.800000X1.800000*%
%ADD25R,2.140000X1.640000*%
%ADD26R,1.200000X1.200000*%
%ADD27R,1.100000X0.900000*%
%ADD28R,0.500000X0.750000*%
%ADD29C,0.100000*%
%ADD30R,0.650000X1.050000*%
%ADD31R,1.200000X2.000000*%
%ADD32C,1.800000*%
%ADD33R,1.150000X0.750000*%
G04 APERTURE END LIST*
G36*
G01*
X133531250Y-65950000D02*
X132968750Y-65950000D01*
G75*
G02*
X132725000Y-65706250I0J243750D01*
G01*
X132725000Y-65218750D01*
G75*
G02*
X132968750Y-64975000I243750J0D01*
G01*
X133531250Y-64975000D01*
G75*
G02*
X133775000Y-65218750I0J-243750D01*
G01*
X133775000Y-65706250D01*
G75*
G02*
X133531250Y-65950000I-243750J0D01*
G01*
G37*
G36*
G01*
X133531250Y-67525000D02*
X132968750Y-67525000D01*
G75*
G02*
X132725000Y-67281250I0J243750D01*
G01*
X132725000Y-66793750D01*
G75*
G02*
X132968750Y-66550000I243750J0D01*
G01*
X133531250Y-66550000D01*
G75*
G02*
X133775000Y-66793750I0J-243750D01*
G01*
X133775000Y-67281250D01*
G75*
G02*
X133531250Y-67525000I-243750J0D01*
G01*
G37*
D10*
X113180000Y-87800000D03*
X121820000Y-87800000D03*
D11*
X113180000Y-83620000D03*
X121820000Y-83620000D03*
D12*
X120390000Y-84120000D03*
X114610000Y-84120000D03*
D13*
X114300000Y-83045000D03*
X120700000Y-83045000D03*
X115100000Y-83045000D03*
X119900000Y-83045000D03*
D14*
X117750000Y-83045000D03*
X117250000Y-83045000D03*
X118250000Y-83045000D03*
X118750000Y-83045000D03*
X119250000Y-83045000D03*
X116750000Y-83045000D03*
X116250000Y-83045000D03*
X115750000Y-83045000D03*
D15*
X117500000Y-78300000D03*
X116550000Y-78300000D03*
X118450000Y-78300000D03*
X118450000Y-80500000D03*
X117500000Y-80500000D03*
X116550000Y-80500000D03*
G36*
G01*
X104050000Y-54031250D02*
X104050000Y-53468750D01*
G75*
G02*
X104293750Y-53225000I243750J0D01*
G01*
X104781250Y-53225000D01*
G75*
G02*
X105025000Y-53468750I0J-243750D01*
G01*
X105025000Y-54031250D01*
G75*
G02*
X104781250Y-54275000I-243750J0D01*
G01*
X104293750Y-54275000D01*
G75*
G02*
X104050000Y-54031250I0J243750D01*
G01*
G37*
G36*
G01*
X102475000Y-54031250D02*
X102475000Y-53468750D01*
G75*
G02*
X102718750Y-53225000I243750J0D01*
G01*
X103206250Y-53225000D01*
G75*
G02*
X103450000Y-53468750I0J-243750D01*
G01*
X103450000Y-54031250D01*
G75*
G02*
X103206250Y-54275000I-243750J0D01*
G01*
X102718750Y-54275000D01*
G75*
G02*
X102475000Y-54031250I0J243750D01*
G01*
G37*
D16*
X106000000Y-72850000D03*
D17*
X106000000Y-79150000D03*
X108300000Y-79150000D03*
X103700000Y-79150000D03*
G36*
G01*
X111218750Y-47300000D02*
X111781250Y-47300000D01*
G75*
G02*
X112025000Y-47543750I0J-243750D01*
G01*
X112025000Y-48031250D01*
G75*
G02*
X111781250Y-48275000I-243750J0D01*
G01*
X111218750Y-48275000D01*
G75*
G02*
X110975000Y-48031250I0J243750D01*
G01*
X110975000Y-47543750D01*
G75*
G02*
X111218750Y-47300000I243750J0D01*
G01*
G37*
G36*
G01*
X111218750Y-45725000D02*
X111781250Y-45725000D01*
G75*
G02*
X112025000Y-45968750I0J-243750D01*
G01*
X112025000Y-46456250D01*
G75*
G02*
X111781250Y-46700000I-243750J0D01*
G01*
X111218750Y-46700000D01*
G75*
G02*
X110975000Y-46456250I0J243750D01*
G01*
X110975000Y-45968750D01*
G75*
G02*
X111218750Y-45725000I243750J0D01*
G01*
G37*
D18*
X128862500Y-60500000D03*
D19*
X133500000Y-58087500D03*
D18*
X133637500Y-60500000D03*
D19*
X133500000Y-61412500D03*
D18*
X133637500Y-60000000D03*
X133637500Y-59500000D03*
X133637500Y-59000000D03*
D19*
X133000000Y-61412500D03*
X132500000Y-61412500D03*
X132000000Y-61412500D03*
X131500000Y-61412500D03*
X131000000Y-61412500D03*
X130500000Y-61412500D03*
X130000000Y-61412500D03*
X129500000Y-61412500D03*
X129000000Y-61412500D03*
X133000000Y-58087500D03*
X132500000Y-58087500D03*
X132000000Y-58087500D03*
X131500000Y-58087500D03*
X131000000Y-58087500D03*
X130500000Y-58087500D03*
X130000000Y-58087500D03*
X129500000Y-58087500D03*
X129000000Y-58087500D03*
D18*
X128862500Y-60000000D03*
X128862500Y-59500000D03*
X128862500Y-59000000D03*
D20*
X119300000Y-53950000D03*
X115700000Y-55750000D03*
X115700000Y-57550000D03*
X115700000Y-53950000D03*
X117500000Y-57550000D03*
X117500000Y-55750000D03*
X117500000Y-53950000D03*
X119300000Y-57550000D03*
X119300000Y-55750000D03*
D21*
X120900000Y-53000000D03*
X120900000Y-53500000D03*
X120900000Y-54000000D03*
X120900000Y-54500000D03*
X120900000Y-55000000D03*
X120900000Y-55500000D03*
X120900000Y-56000000D03*
X120900000Y-56500000D03*
X120900000Y-57000000D03*
X120900000Y-57500000D03*
X120900000Y-58000000D03*
X120900000Y-58500000D03*
D22*
X120250000Y-59150000D03*
X119750000Y-59150000D03*
X119250000Y-59150000D03*
X118750000Y-59150000D03*
X118250000Y-59150000D03*
X117750000Y-59150000D03*
X117250000Y-59150000D03*
X116750000Y-59150000D03*
X116250000Y-59150000D03*
X115750000Y-59150000D03*
X115250000Y-59150000D03*
X114750000Y-59150000D03*
D21*
X114100000Y-58500000D03*
X114100000Y-58000000D03*
X114100000Y-57500000D03*
X114100000Y-57000000D03*
X114100000Y-56500000D03*
X114100000Y-56000000D03*
X114100000Y-55500000D03*
X114100000Y-55000000D03*
X114100000Y-54500000D03*
X114100000Y-54000000D03*
X114100000Y-53500000D03*
X114100000Y-53000000D03*
D22*
X114750000Y-52350000D03*
X115250000Y-52350000D03*
X115750000Y-52350000D03*
X116250000Y-52350000D03*
X116750000Y-52350000D03*
X117250000Y-52350000D03*
X117750000Y-52350000D03*
X118250000Y-52350000D03*
X118750000Y-52350000D03*
X119250000Y-52350000D03*
X119750000Y-52350000D03*
X120250000Y-52350000D03*
D23*
X100000000Y-50000000D03*
X135000000Y-50000000D03*
X135000000Y-85000000D03*
X100000000Y-85000000D03*
G36*
G01*
X94840345Y-86567553D02*
X94840345Y-86567553D01*
G75*
G02*
X94840345Y-87840345I-636396J-636396D01*
G01*
X94840345Y-87840345D01*
G75*
G02*
X93567553Y-87840345I-636396J636396D01*
G01*
X93567553Y-87840345D01*
G75*
G02*
X93567553Y-86567553I636396J636396D01*
G01*
X93567553Y-86567553D01*
G75*
G02*
X94840345Y-86567553I636396J-636396D01*
G01*
G37*
G36*
G01*
X96636396Y-88363604D02*
X96636396Y-88363604D01*
G75*
G02*
X96636396Y-89636396I-636396J-636396D01*
G01*
X96636396Y-89636396D01*
G75*
G02*
X95363604Y-89636396I-636396J636396D01*
G01*
X95363604Y-89636396D01*
G75*
G02*
X95363604Y-88363604I636396J636396D01*
G01*
X95363604Y-88363604D01*
G75*
G02*
X96636396Y-88363604I636396J-636396D01*
G01*
G37*
G36*
G01*
X98114249Y-89841457D02*
X98750645Y-90477853D01*
G75*
G02*
X98750645Y-91114249I-318198J-318198D01*
G01*
X98114249Y-91750645D01*
G75*
G02*
X97477853Y-91750645I-318198J318198D01*
G01*
X96841457Y-91114249D01*
G75*
G02*
X96841457Y-90477853I318198J318198D01*
G01*
X97477853Y-89841457D01*
G75*
G02*
X98114249Y-89841457I318198J-318198D01*
G01*
G37*
G36*
G01*
X136567553Y-90159655D02*
X136567553Y-90159655D01*
G75*
G02*
X137840345Y-90159655I636396J-636396D01*
G01*
X137840345Y-90159655D01*
G75*
G02*
X137840345Y-91432447I-636396J-636396D01*
G01*
X137840345Y-91432447D01*
G75*
G02*
X136567553Y-91432447I-636396J636396D01*
G01*
X136567553Y-91432447D01*
G75*
G02*
X136567553Y-90159655I636396J636396D01*
G01*
G37*
G36*
G01*
X138363604Y-88363604D02*
X138363604Y-88363604D01*
G75*
G02*
X139636396Y-88363604I636396J-636396D01*
G01*
X139636396Y-88363604D01*
G75*
G02*
X139636396Y-89636396I-636396J-636396D01*
G01*
X139636396Y-89636396D01*
G75*
G02*
X138363604Y-89636396I-636396J636396D01*
G01*
X138363604Y-89636396D01*
G75*
G02*
X138363604Y-88363604I636396J636396D01*
G01*
G37*
G36*
G01*
X139841457Y-86885751D02*
X140477853Y-86249355D01*
G75*
G02*
X141114249Y-86249355I318198J-318198D01*
G01*
X141750645Y-86885751D01*
G75*
G02*
X141750645Y-87522147I-318198J-318198D01*
G01*
X141114249Y-88158543D01*
G75*
G02*
X140477853Y-88158543I-318198J318198D01*
G01*
X139841457Y-87522147D01*
G75*
G02*
X139841457Y-86885751I318198J318198D01*
G01*
G37*
G36*
G01*
X140159655Y-48432447D02*
X140159655Y-48432447D01*
G75*
G02*
X140159655Y-47159655I636396J636396D01*
G01*
X140159655Y-47159655D01*
G75*
G02*
X141432447Y-47159655I636396J-636396D01*
G01*
X141432447Y-47159655D01*
G75*
G02*
X141432447Y-48432447I-636396J-636396D01*
G01*
X141432447Y-48432447D01*
G75*
G02*
X140159655Y-48432447I-636396J636396D01*
G01*
G37*
G36*
G01*
X138363604Y-46636396D02*
X138363604Y-46636396D01*
G75*
G02*
X138363604Y-45363604I636396J636396D01*
G01*
X138363604Y-45363604D01*
G75*
G02*
X139636396Y-45363604I636396J-636396D01*
G01*
X139636396Y-45363604D01*
G75*
G02*
X139636396Y-46636396I-636396J-636396D01*
G01*
X139636396Y-46636396D01*
G75*
G02*
X138363604Y-46636396I-636396J636396D01*
G01*
G37*
G36*
G01*
X136885751Y-45158543D02*
X136249355Y-44522147D01*
G75*
G02*
X136249355Y-43885751I318198J318198D01*
G01*
X136885751Y-43249355D01*
G75*
G02*
X137522147Y-43249355I318198J-318198D01*
G01*
X138158543Y-43885751D01*
G75*
G02*
X138158543Y-44522147I-318198J-318198D01*
G01*
X137522147Y-45158543D01*
G75*
G02*
X136885751Y-45158543I-318198J318198D01*
G01*
G37*
G36*
G01*
X98432447Y-44840345D02*
X98432447Y-44840345D01*
G75*
G02*
X97159655Y-44840345I-636396J636396D01*
G01*
X97159655Y-44840345D01*
G75*
G02*
X97159655Y-43567553I636396J636396D01*
G01*
X97159655Y-43567553D01*
G75*
G02*
X98432447Y-43567553I636396J-636396D01*
G01*
X98432447Y-43567553D01*
G75*
G02*
X98432447Y-44840345I-636396J-636396D01*
G01*
G37*
G36*
G01*
X96636396Y-46636396D02*
X96636396Y-46636396D01*
G75*
G02*
X95363604Y-46636396I-636396J636396D01*
G01*
X95363604Y-46636396D01*
G75*
G02*
X95363604Y-45363604I636396J636396D01*
G01*
X95363604Y-45363604D01*
G75*
G02*
X96636396Y-45363604I636396J-636396D01*
G01*
X96636396Y-45363604D01*
G75*
G02*
X96636396Y-46636396I-636396J-636396D01*
G01*
G37*
G36*
G01*
X95158543Y-48114249D02*
X94522147Y-48750645D01*
G75*
G02*
X93885751Y-48750645I-318198J318198D01*
G01*
X93249355Y-48114249D01*
G75*
G02*
X93249355Y-47477853I318198J318198D01*
G01*
X93885751Y-46841457D01*
G75*
G02*
X94522147Y-46841457I318198J-318198D01*
G01*
X95158543Y-47477853D01*
G75*
G02*
X95158543Y-48114249I-318198J-318198D01*
G01*
G37*
D24*
X106500000Y-88290000D03*
X106500000Y-85750000D03*
G36*
G01*
X105600000Y-83660000D02*
X105600000Y-82760000D01*
G75*
G02*
X106050000Y-82310000I450000J0D01*
G01*
X106950000Y-82310000D01*
G75*
G02*
X107400000Y-82760000I0J-450000D01*
G01*
X107400000Y-83660000D01*
G75*
G02*
X106950000Y-84110000I-450000J0D01*
G01*
X106050000Y-84110000D01*
G75*
G02*
X105600000Y-83660000I0J450000D01*
G01*
G37*
D25*
X122535000Y-46285000D03*
X124965000Y-46285000D03*
X124965000Y-48215000D03*
X122535000Y-48215000D03*
D26*
X109750000Y-82850000D03*
X109750000Y-85650000D03*
X110600000Y-79250000D03*
X113400000Y-79250000D03*
D27*
X105000000Y-45950000D03*
X106500000Y-45950000D03*
X106500000Y-47050000D03*
X105000000Y-47050000D03*
D28*
X128150000Y-79550000D03*
X126850000Y-79550000D03*
X127500000Y-81450000D03*
X127500000Y-79550000D03*
X126850000Y-81450000D03*
X128150000Y-81450000D03*
D29*
G36*
X119939518Y-71000000D02*
G01*
X117500000Y-73439518D01*
X115060482Y-71000000D01*
X117500000Y-68560482D01*
X119939518Y-71000000D01*
G37*
G36*
G01*
X117208319Y-73660489D02*
X116695667Y-74173142D01*
G75*
G02*
X116571923Y-74173142I-61872J61872D01*
G01*
X116448179Y-74049398D01*
G75*
G02*
X116448179Y-73925654I61872J61872D01*
G01*
X116960831Y-73413002D01*
G75*
G02*
X117084575Y-73413002I61872J-61872D01*
G01*
X117208319Y-73536746D01*
G75*
G02*
X117208319Y-73660490I-61872J-61872D01*
G01*
G37*
G36*
G01*
X116854765Y-73306935D02*
X116342113Y-73819588D01*
G75*
G02*
X116218369Y-73819588I-61872J61872D01*
G01*
X116094625Y-73695844D01*
G75*
G02*
X116094625Y-73572100I61872J61872D01*
G01*
X116607277Y-73059448D01*
G75*
G02*
X116731021Y-73059448I61872J-61872D01*
G01*
X116854765Y-73183192D01*
G75*
G02*
X116854765Y-73306936I-61872J-61872D01*
G01*
G37*
G36*
G01*
X116501212Y-72953382D02*
X115988560Y-73466035D01*
G75*
G02*
X115864816Y-73466035I-61872J61872D01*
G01*
X115741072Y-73342291D01*
G75*
G02*
X115741072Y-73218547I61872J61872D01*
G01*
X116253724Y-72705895D01*
G75*
G02*
X116377468Y-72705895I61872J-61872D01*
G01*
X116501212Y-72829639D01*
G75*
G02*
X116501212Y-72953383I-61872J-61872D01*
G01*
G37*
G36*
G01*
X116147658Y-72599829D02*
X115635006Y-73112482D01*
G75*
G02*
X115511262Y-73112482I-61872J61872D01*
G01*
X115387518Y-72988738D01*
G75*
G02*
X115387518Y-72864994I61872J61872D01*
G01*
X115900170Y-72352342D01*
G75*
G02*
X116023914Y-72352342I61872J-61872D01*
G01*
X116147658Y-72476086D01*
G75*
G02*
X116147658Y-72599830I-61872J-61872D01*
G01*
G37*
G36*
G01*
X115794105Y-72246275D02*
X115281453Y-72758928D01*
G75*
G02*
X115157709Y-72758928I-61872J61872D01*
G01*
X115033965Y-72635184D01*
G75*
G02*
X115033965Y-72511440I61872J61872D01*
G01*
X115546617Y-71998788D01*
G75*
G02*
X115670361Y-71998788I61872J-61872D01*
G01*
X115794105Y-72122532D01*
G75*
G02*
X115794105Y-72246276I-61872J-61872D01*
G01*
G37*
G36*
G01*
X115440552Y-71892722D02*
X114927900Y-72405375D01*
G75*
G02*
X114804156Y-72405375I-61872J61872D01*
G01*
X114680412Y-72281631D01*
G75*
G02*
X114680412Y-72157887I61872J61872D01*
G01*
X115193064Y-71645235D01*
G75*
G02*
X115316808Y-71645235I61872J-61872D01*
G01*
X115440552Y-71768979D01*
G75*
G02*
X115440552Y-71892723I-61872J-61872D01*
G01*
G37*
G36*
G01*
X115086998Y-71539168D02*
X114574346Y-72051821D01*
G75*
G02*
X114450602Y-72051821I-61872J61872D01*
G01*
X114326858Y-71928077D01*
G75*
G02*
X114326858Y-71804333I61872J61872D01*
G01*
X114839510Y-71291681D01*
G75*
G02*
X114963254Y-71291681I61872J-61872D01*
G01*
X115086998Y-71415425D01*
G75*
G02*
X115086998Y-71539169I-61872J-61872D01*
G01*
G37*
G36*
G01*
X115086998Y-70584575D02*
X114963254Y-70708319D01*
G75*
G02*
X114839510Y-70708319I-61872J61872D01*
G01*
X114326858Y-70195667D01*
G75*
G02*
X114326858Y-70071923I61872J61872D01*
G01*
X114450602Y-69948179D01*
G75*
G02*
X114574346Y-69948179I61872J-61872D01*
G01*
X115086998Y-70460831D01*
G75*
G02*
X115086998Y-70584575I-61872J-61872D01*
G01*
G37*
G36*
G01*
X115440552Y-70231021D02*
X115316808Y-70354765D01*
G75*
G02*
X115193064Y-70354765I-61872J61872D01*
G01*
X114680412Y-69842113D01*
G75*
G02*
X114680412Y-69718369I61872J61872D01*
G01*
X114804156Y-69594625D01*
G75*
G02*
X114927900Y-69594625I61872J-61872D01*
G01*
X115440552Y-70107277D01*
G75*
G02*
X115440552Y-70231021I-61872J-61872D01*
G01*
G37*
G36*
G01*
X115794105Y-69877468D02*
X115670361Y-70001212D01*
G75*
G02*
X115546617Y-70001212I-61872J61872D01*
G01*
X115033965Y-69488560D01*
G75*
G02*
X115033965Y-69364816I61872J61872D01*
G01*
X115157709Y-69241072D01*
G75*
G02*
X115281453Y-69241072I61872J-61872D01*
G01*
X115794105Y-69753724D01*
G75*
G02*
X115794105Y-69877468I-61872J-61872D01*
G01*
G37*
G36*
G01*
X116147658Y-69523914D02*
X116023914Y-69647658D01*
G75*
G02*
X115900170Y-69647658I-61872J61872D01*
G01*
X115387518Y-69135006D01*
G75*
G02*
X115387518Y-69011262I61872J61872D01*
G01*
X115511262Y-68887518D01*
G75*
G02*
X115635006Y-68887518I61872J-61872D01*
G01*
X116147658Y-69400170D01*
G75*
G02*
X116147658Y-69523914I-61872J-61872D01*
G01*
G37*
G36*
G01*
X116501212Y-69170361D02*
X116377468Y-69294105D01*
G75*
G02*
X116253724Y-69294105I-61872J61872D01*
G01*
X115741072Y-68781453D01*
G75*
G02*
X115741072Y-68657709I61872J61872D01*
G01*
X115864816Y-68533965D01*
G75*
G02*
X115988560Y-68533965I61872J-61872D01*
G01*
X116501212Y-69046617D01*
G75*
G02*
X116501212Y-69170361I-61872J-61872D01*
G01*
G37*
G36*
G01*
X116854765Y-68816808D02*
X116731021Y-68940552D01*
G75*
G02*
X116607277Y-68940552I-61872J61872D01*
G01*
X116094625Y-68427900D01*
G75*
G02*
X116094625Y-68304156I61872J61872D01*
G01*
X116218369Y-68180412D01*
G75*
G02*
X116342113Y-68180412I61872J-61872D01*
G01*
X116854765Y-68693064D01*
G75*
G02*
X116854765Y-68816808I-61872J-61872D01*
G01*
G37*
G36*
G01*
X117208319Y-68463254D02*
X117084575Y-68586998D01*
G75*
G02*
X116960831Y-68586998I-61872J61872D01*
G01*
X116448179Y-68074346D01*
G75*
G02*
X116448179Y-67950602I61872J61872D01*
G01*
X116571923Y-67826858D01*
G75*
G02*
X116695667Y-67826858I61872J-61872D01*
G01*
X117208319Y-68339510D01*
G75*
G02*
X117208319Y-68463254I-61872J-61872D01*
G01*
G37*
G36*
G01*
X118551821Y-68074345D02*
X118039169Y-68586998D01*
G75*
G02*
X117915425Y-68586998I-61872J61872D01*
G01*
X117791681Y-68463254D01*
G75*
G02*
X117791681Y-68339510I61872J61872D01*
G01*
X118304333Y-67826858D01*
G75*
G02*
X118428077Y-67826858I61872J-61872D01*
G01*
X118551821Y-67950602D01*
G75*
G02*
X118551821Y-68074346I-61872J-61872D01*
G01*
G37*
G36*
G01*
X118905375Y-68427899D02*
X118392723Y-68940552D01*
G75*
G02*
X118268979Y-68940552I-61872J61872D01*
G01*
X118145235Y-68816808D01*
G75*
G02*
X118145235Y-68693064I61872J61872D01*
G01*
X118657887Y-68180412D01*
G75*
G02*
X118781631Y-68180412I61872J-61872D01*
G01*
X118905375Y-68304156D01*
G75*
G02*
X118905375Y-68427900I-61872J-61872D01*
G01*
G37*
G36*
G01*
X119258928Y-68781452D02*
X118746276Y-69294105D01*
G75*
G02*
X118622532Y-69294105I-61872J61872D01*
G01*
X118498788Y-69170361D01*
G75*
G02*
X118498788Y-69046617I61872J61872D01*
G01*
X119011440Y-68533965D01*
G75*
G02*
X119135184Y-68533965I61872J-61872D01*
G01*
X119258928Y-68657709D01*
G75*
G02*
X119258928Y-68781453I-61872J-61872D01*
G01*
G37*
G36*
G01*
X119612482Y-69135005D02*
X119099830Y-69647658D01*
G75*
G02*
X118976086Y-69647658I-61872J61872D01*
G01*
X118852342Y-69523914D01*
G75*
G02*
X118852342Y-69400170I61872J61872D01*
G01*
X119364994Y-68887518D01*
G75*
G02*
X119488738Y-68887518I61872J-61872D01*
G01*
X119612482Y-69011262D01*
G75*
G02*
X119612482Y-69135006I-61872J-61872D01*
G01*
G37*
G36*
G01*
X119966035Y-69488559D02*
X119453383Y-70001212D01*
G75*
G02*
X119329639Y-70001212I-61872J61872D01*
G01*
X119205895Y-69877468D01*
G75*
G02*
X119205895Y-69753724I61872J61872D01*
G01*
X119718547Y-69241072D01*
G75*
G02*
X119842291Y-69241072I61872J-61872D01*
G01*
X119966035Y-69364816D01*
G75*
G02*
X119966035Y-69488560I-61872J-61872D01*
G01*
G37*
G36*
G01*
X120319588Y-69842112D02*
X119806936Y-70354765D01*
G75*
G02*
X119683192Y-70354765I-61872J61872D01*
G01*
X119559448Y-70231021D01*
G75*
G02*
X119559448Y-70107277I61872J61872D01*
G01*
X120072100Y-69594625D01*
G75*
G02*
X120195844Y-69594625I61872J-61872D01*
G01*
X120319588Y-69718369D01*
G75*
G02*
X120319588Y-69842113I-61872J-61872D01*
G01*
G37*
G36*
G01*
X120673142Y-70195666D02*
X120160490Y-70708319D01*
G75*
G02*
X120036746Y-70708319I-61872J61872D01*
G01*
X119913002Y-70584575D01*
G75*
G02*
X119913002Y-70460831I61872J61872D01*
G01*
X120425654Y-69948179D01*
G75*
G02*
X120549398Y-69948179I61872J-61872D01*
G01*
X120673142Y-70071923D01*
G75*
G02*
X120673142Y-70195667I-61872J-61872D01*
G01*
G37*
G36*
G01*
X120673142Y-71928077D02*
X120549398Y-72051821D01*
G75*
G02*
X120425654Y-72051821I-61872J61872D01*
G01*
X119913002Y-71539169D01*
G75*
G02*
X119913002Y-71415425I61872J61872D01*
G01*
X120036746Y-71291681D01*
G75*
G02*
X120160490Y-71291681I61872J-61872D01*
G01*
X120673142Y-71804333D01*
G75*
G02*
X120673142Y-71928077I-61872J-61872D01*
G01*
G37*
G36*
G01*
X120319588Y-72281631D02*
X120195844Y-72405375D01*
G75*
G02*
X120072100Y-72405375I-61872J61872D01*
G01*
X119559448Y-71892723D01*
G75*
G02*
X119559448Y-71768979I61872J61872D01*
G01*
X119683192Y-71645235D01*
G75*
G02*
X119806936Y-71645235I61872J-61872D01*
G01*
X120319588Y-72157887D01*
G75*
G02*
X120319588Y-72281631I-61872J-61872D01*
G01*
G37*
G36*
G01*
X119966035Y-72635184D02*
X119842291Y-72758928D01*
G75*
G02*
X119718547Y-72758928I-61872J61872D01*
G01*
X119205895Y-72246276D01*
G75*
G02*
X119205895Y-72122532I61872J61872D01*
G01*
X119329639Y-71998788D01*
G75*
G02*
X119453383Y-71998788I61872J-61872D01*
G01*
X119966035Y-72511440D01*
G75*
G02*
X119966035Y-72635184I-61872J-61872D01*
G01*
G37*
G36*
G01*
X119612482Y-72988738D02*
X119488738Y-73112482D01*
G75*
G02*
X119364994Y-73112482I-61872J61872D01*
G01*
X118852342Y-72599830D01*
G75*
G02*
X118852342Y-72476086I61872J61872D01*
G01*
X118976086Y-72352342D01*
G75*
G02*
X119099830Y-72352342I61872J-61872D01*
G01*
X119612482Y-72864994D01*
G75*
G02*
X119612482Y-72988738I-61872J-61872D01*
G01*
G37*
G36*
G01*
X119258928Y-73342291D02*
X119135184Y-73466035D01*
G75*
G02*
X119011440Y-73466035I-61872J61872D01*
G01*
X118498788Y-72953383D01*
G75*
G02*
X118498788Y-72829639I61872J61872D01*
G01*
X118622532Y-72705895D01*
G75*
G02*
X118746276Y-72705895I61872J-61872D01*
G01*
X119258928Y-73218547D01*
G75*
G02*
X119258928Y-73342291I-61872J-61872D01*
G01*
G37*
G36*
G01*
X118905375Y-73695844D02*
X118781631Y-73819588D01*
G75*
G02*
X118657887Y-73819588I-61872J61872D01*
G01*
X118145235Y-73306936D01*
G75*
G02*
X118145235Y-73183192I61872J61872D01*
G01*
X118268979Y-73059448D01*
G75*
G02*
X118392723Y-73059448I61872J-61872D01*
G01*
X118905375Y-73572100D01*
G75*
G02*
X118905375Y-73695844I-61872J-61872D01*
G01*
G37*
G36*
G01*
X118551821Y-74049398D02*
X118428077Y-74173142D01*
G75*
G02*
X118304333Y-74173142I-61872J61872D01*
G01*
X117791681Y-73660490D01*
G75*
G02*
X117791681Y-73536746I61872J61872D01*
G01*
X117915425Y-73413002D01*
G75*
G02*
X118039169Y-73413002I61872J-61872D01*
G01*
X118551821Y-73925654D01*
G75*
G02*
X118551821Y-74049398I-61872J-61872D01*
G01*
G37*
D30*
X131375000Y-72824999D03*
X127625000Y-72824999D03*
X128875000Y-72824999D03*
X130125000Y-72824999D03*
X127625000Y-70674999D03*
X128875000Y-70674999D03*
X130125000Y-70674999D03*
X131375000Y-70674999D03*
D31*
X130907485Y-63500000D03*
X133407485Y-63500000D03*
D32*
X97750000Y-62420000D03*
D24*
X100290000Y-62420000D03*
X97750000Y-64960000D03*
X100290000Y-64960000D03*
X97750000Y-67500000D03*
X100290000Y-67500000D03*
X97750000Y-70040000D03*
X100290000Y-70040000D03*
G36*
G01*
X96850000Y-73030000D02*
X96850000Y-72130000D01*
G75*
G02*
X97300000Y-71680000I450000J0D01*
G01*
X98200000Y-71680000D01*
G75*
G02*
X98650000Y-72130000I0J-450000D01*
G01*
X98650000Y-73030000D01*
G75*
G02*
X98200000Y-73480000I-450000J0D01*
G01*
X97300000Y-73480000D01*
G75*
G02*
X96850000Y-73030000I0J450000D01*
G01*
G37*
G36*
G01*
X99390000Y-73030000D02*
X99390000Y-72130000D01*
G75*
G02*
X99840000Y-71680000I450000J0D01*
G01*
X100740000Y-71680000D01*
G75*
G02*
X101190000Y-72130000I0J-450000D01*
G01*
X101190000Y-73030000D01*
G75*
G02*
X100740000Y-73480000I-450000J0D01*
G01*
X99840000Y-73480000D01*
G75*
G02*
X99390000Y-73030000I0J450000D01*
G01*
G37*
G36*
G01*
X110800000Y-81531250D02*
X110800000Y-80968750D01*
G75*
G02*
X111043750Y-80725000I243750J0D01*
G01*
X111531250Y-80725000D01*
G75*
G02*
X111775000Y-80968750I0J-243750D01*
G01*
X111775000Y-81531250D01*
G75*
G02*
X111531250Y-81775000I-243750J0D01*
G01*
X111043750Y-81775000D01*
G75*
G02*
X110800000Y-81531250I0J243750D01*
G01*
G37*
G36*
G01*
X109225000Y-81531250D02*
X109225000Y-80968750D01*
G75*
G02*
X109468750Y-80725000I243750J0D01*
G01*
X109956250Y-80725000D01*
G75*
G02*
X110200000Y-80968750I0J-243750D01*
G01*
X110200000Y-81531250D01*
G75*
G02*
X109956250Y-81775000I-243750J0D01*
G01*
X109468750Y-81775000D01*
G75*
G02*
X109225000Y-81531250I0J243750D01*
G01*
G37*
G36*
G01*
X103200000Y-80968750D02*
X103200000Y-81531250D01*
G75*
G02*
X102956250Y-81775000I-243750J0D01*
G01*
X102468750Y-81775000D01*
G75*
G02*
X102225000Y-81531250I0J243750D01*
G01*
X102225000Y-80968750D01*
G75*
G02*
X102468750Y-80725000I243750J0D01*
G01*
X102956250Y-80725000D01*
G75*
G02*
X103200000Y-80968750I0J-243750D01*
G01*
G37*
G36*
G01*
X104775000Y-80968750D02*
X104775000Y-81531250D01*
G75*
G02*
X104531250Y-81775000I-243750J0D01*
G01*
X104043750Y-81775000D01*
G75*
G02*
X103800000Y-81531250I0J243750D01*
G01*
X103800000Y-80968750D01*
G75*
G02*
X104043750Y-80725000I243750J0D01*
G01*
X104531250Y-80725000D01*
G75*
G02*
X104775000Y-80968750I0J-243750D01*
G01*
G37*
G36*
G01*
X136050000Y-61531250D02*
X136050000Y-60968750D01*
G75*
G02*
X136293750Y-60725000I243750J0D01*
G01*
X136781250Y-60725000D01*
G75*
G02*
X137025000Y-60968750I0J-243750D01*
G01*
X137025000Y-61531250D01*
G75*
G02*
X136781250Y-61775000I-243750J0D01*
G01*
X136293750Y-61775000D01*
G75*
G02*
X136050000Y-61531250I0J243750D01*
G01*
G37*
G36*
G01*
X134475000Y-61531250D02*
X134475000Y-60968750D01*
G75*
G02*
X134718750Y-60725000I243750J0D01*
G01*
X135206250Y-60725000D01*
G75*
G02*
X135450000Y-60968750I0J-243750D01*
G01*
X135450000Y-61531250D01*
G75*
G02*
X135206250Y-61775000I-243750J0D01*
G01*
X134718750Y-61775000D01*
G75*
G02*
X134475000Y-61531250I0J243750D01*
G01*
G37*
G36*
G01*
X136050000Y-63031250D02*
X136050000Y-62468750D01*
G75*
G02*
X136293750Y-62225000I243750J0D01*
G01*
X136781250Y-62225000D01*
G75*
G02*
X137025000Y-62468750I0J-243750D01*
G01*
X137025000Y-63031250D01*
G75*
G02*
X136781250Y-63275000I-243750J0D01*
G01*
X136293750Y-63275000D01*
G75*
G02*
X136050000Y-63031250I0J243750D01*
G01*
G37*
G36*
G01*
X134475000Y-63031250D02*
X134475000Y-62468750D01*
G75*
G02*
X134718750Y-62225000I243750J0D01*
G01*
X135206250Y-62225000D01*
G75*
G02*
X135450000Y-62468750I0J-243750D01*
G01*
X135450000Y-63031250D01*
G75*
G02*
X135206250Y-63275000I-243750J0D01*
G01*
X134718750Y-63275000D01*
G75*
G02*
X134475000Y-63031250I0J243750D01*
G01*
G37*
G36*
G01*
X132781250Y-55450000D02*
X132218750Y-55450000D01*
G75*
G02*
X131975000Y-55206250I0J243750D01*
G01*
X131975000Y-54718750D01*
G75*
G02*
X132218750Y-54475000I243750J0D01*
G01*
X132781250Y-54475000D01*
G75*
G02*
X133025000Y-54718750I0J-243750D01*
G01*
X133025000Y-55206250D01*
G75*
G02*
X132781250Y-55450000I-243750J0D01*
G01*
G37*
G36*
G01*
X132781250Y-57025000D02*
X132218750Y-57025000D01*
G75*
G02*
X131975000Y-56781250I0J243750D01*
G01*
X131975000Y-56293750D01*
G75*
G02*
X132218750Y-56050000I243750J0D01*
G01*
X132781250Y-56050000D01*
G75*
G02*
X133025000Y-56293750I0J-243750D01*
G01*
X133025000Y-56781250D01*
G75*
G02*
X132781250Y-57025000I-243750J0D01*
G01*
G37*
G36*
G01*
X131281250Y-65950000D02*
X130718750Y-65950000D01*
G75*
G02*
X130475000Y-65706250I0J243750D01*
G01*
X130475000Y-65218750D01*
G75*
G02*
X130718750Y-64975000I243750J0D01*
G01*
X131281250Y-64975000D01*
G75*
G02*
X131525000Y-65218750I0J-243750D01*
G01*
X131525000Y-65706250D01*
G75*
G02*
X131281250Y-65950000I-243750J0D01*
G01*
G37*
G36*
G01*
X131281250Y-67525000D02*
X130718750Y-67525000D01*
G75*
G02*
X130475000Y-67281250I0J243750D01*
G01*
X130475000Y-66793750D01*
G75*
G02*
X130718750Y-66550000I243750J0D01*
G01*
X131281250Y-66550000D01*
G75*
G02*
X131525000Y-66793750I0J-243750D01*
G01*
X131525000Y-67281250D01*
G75*
G02*
X131281250Y-67525000I-243750J0D01*
G01*
G37*
G36*
G01*
X121338994Y-72263259D02*
X121736741Y-72661007D01*
G75*
G02*
X121736741Y-73005721I-172357J-172357D01*
G01*
X121392027Y-73350435D01*
G75*
G02*
X121047313Y-73350435I-172357J172357D01*
G01*
X120649565Y-72952687D01*
G75*
G02*
X120649565Y-72607973I172357J172357D01*
G01*
X120994279Y-72263259D01*
G75*
G02*
X121338993Y-72263259I172357J-172357D01*
G01*
G37*
G36*
G01*
X122452688Y-71149565D02*
X122850435Y-71547313D01*
G75*
G02*
X122850435Y-71892027I-172357J-172357D01*
G01*
X122505721Y-72236741D01*
G75*
G02*
X122161007Y-72236741I-172357J172357D01*
G01*
X121763259Y-71838993D01*
G75*
G02*
X121763259Y-71494279I172357J172357D01*
G01*
X122107973Y-71149565D01*
G75*
G02*
X122452687Y-71149565I172357J-172357D01*
G01*
G37*
G36*
G01*
X127718750Y-75348097D02*
X128281250Y-75348097D01*
G75*
G02*
X128525000Y-75591847I0J-243750D01*
G01*
X128525000Y-76079347D01*
G75*
G02*
X128281250Y-76323097I-243750J0D01*
G01*
X127718750Y-76323097D01*
G75*
G02*
X127475000Y-76079347I0J243750D01*
G01*
X127475000Y-75591847D01*
G75*
G02*
X127718750Y-75348097I243750J0D01*
G01*
G37*
G36*
G01*
X127718750Y-73773097D02*
X128281250Y-73773097D01*
G75*
G02*
X128525000Y-74016847I0J-243750D01*
G01*
X128525000Y-74504347D01*
G75*
G02*
X128281250Y-74748097I-243750J0D01*
G01*
X127718750Y-74748097D01*
G75*
G02*
X127475000Y-74504347I0J243750D01*
G01*
X127475000Y-74016847D01*
G75*
G02*
X127718750Y-73773097I243750J0D01*
G01*
G37*
G36*
G01*
X129218750Y-75348097D02*
X129781250Y-75348097D01*
G75*
G02*
X130025000Y-75591847I0J-243750D01*
G01*
X130025000Y-76079347D01*
G75*
G02*
X129781250Y-76323097I-243750J0D01*
G01*
X129218750Y-76323097D01*
G75*
G02*
X128975000Y-76079347I0J243750D01*
G01*
X128975000Y-75591847D01*
G75*
G02*
X129218750Y-75348097I243750J0D01*
G01*
G37*
G36*
G01*
X129218750Y-73773097D02*
X129781250Y-73773097D01*
G75*
G02*
X130025000Y-74016847I0J-243750D01*
G01*
X130025000Y-74504347D01*
G75*
G02*
X129781250Y-74748097I-243750J0D01*
G01*
X129218750Y-74748097D01*
G75*
G02*
X128975000Y-74504347I0J243750D01*
G01*
X128975000Y-74016847D01*
G75*
G02*
X129218750Y-73773097I243750J0D01*
G01*
G37*
G36*
G01*
X130718750Y-75348097D02*
X131281250Y-75348097D01*
G75*
G02*
X131525000Y-75591847I0J-243750D01*
G01*
X131525000Y-76079347D01*
G75*
G02*
X131281250Y-76323097I-243750J0D01*
G01*
X130718750Y-76323097D01*
G75*
G02*
X130475000Y-76079347I0J243750D01*
G01*
X130475000Y-75591847D01*
G75*
G02*
X130718750Y-75348097I243750J0D01*
G01*
G37*
G36*
G01*
X130718750Y-73773097D02*
X131281250Y-73773097D01*
G75*
G02*
X131525000Y-74016847I0J-243750D01*
G01*
X131525000Y-74504347D01*
G75*
G02*
X131281250Y-74748097I-243750J0D01*
G01*
X130718750Y-74748097D01*
G75*
G02*
X130475000Y-74504347I0J243750D01*
G01*
X130475000Y-74016847D01*
G75*
G02*
X130718750Y-73773097I243750J0D01*
G01*
G37*
G36*
G01*
X125718750Y-72696446D02*
X126281250Y-72696446D01*
G75*
G02*
X126525000Y-72940196I0J-243750D01*
G01*
X126525000Y-73427696D01*
G75*
G02*
X126281250Y-73671446I-243750J0D01*
G01*
X125718750Y-73671446D01*
G75*
G02*
X125475000Y-73427696I0J243750D01*
G01*
X125475000Y-72940196D01*
G75*
G02*
X125718750Y-72696446I243750J0D01*
G01*
G37*
G36*
G01*
X125718750Y-71121446D02*
X126281250Y-71121446D01*
G75*
G02*
X126525000Y-71365196I0J-243750D01*
G01*
X126525000Y-71852696D01*
G75*
G02*
X126281250Y-72096446I-243750J0D01*
G01*
X125718750Y-72096446D01*
G75*
G02*
X125475000Y-71852696I0J243750D01*
G01*
X125475000Y-71365196D01*
G75*
G02*
X125718750Y-71121446I243750J0D01*
G01*
G37*
G36*
G01*
X117031250Y-49450000D02*
X116468750Y-49450000D01*
G75*
G02*
X116225000Y-49206250I0J243750D01*
G01*
X116225000Y-48718750D01*
G75*
G02*
X116468750Y-48475000I243750J0D01*
G01*
X117031250Y-48475000D01*
G75*
G02*
X117275000Y-48718750I0J-243750D01*
G01*
X117275000Y-49206250D01*
G75*
G02*
X117031250Y-49450000I-243750J0D01*
G01*
G37*
G36*
G01*
X117031250Y-51025000D02*
X116468750Y-51025000D01*
G75*
G02*
X116225000Y-50781250I0J243750D01*
G01*
X116225000Y-50293750D01*
G75*
G02*
X116468750Y-50050000I243750J0D01*
G01*
X117031250Y-50050000D01*
G75*
G02*
X117275000Y-50293750I0J-243750D01*
G01*
X117275000Y-50781250D01*
G75*
G02*
X117031250Y-51025000I-243750J0D01*
G01*
G37*
G36*
G01*
X118531250Y-49450000D02*
X117968750Y-49450000D01*
G75*
G02*
X117725000Y-49206250I0J243750D01*
G01*
X117725000Y-48718750D01*
G75*
G02*
X117968750Y-48475000I243750J0D01*
G01*
X118531250Y-48475000D01*
G75*
G02*
X118775000Y-48718750I0J-243750D01*
G01*
X118775000Y-49206250D01*
G75*
G02*
X118531250Y-49450000I-243750J0D01*
G01*
G37*
G36*
G01*
X118531250Y-51025000D02*
X117968750Y-51025000D01*
G75*
G02*
X117725000Y-50781250I0J243750D01*
G01*
X117725000Y-50293750D01*
G75*
G02*
X117968750Y-50050000I243750J0D01*
G01*
X118531250Y-50050000D01*
G75*
G02*
X118775000Y-50293750I0J-243750D01*
G01*
X118775000Y-50781250D01*
G75*
G02*
X118531250Y-51025000I-243750J0D01*
G01*
G37*
G36*
G01*
X131281250Y-87900000D02*
X130718750Y-87900000D01*
G75*
G02*
X130475000Y-87656250I0J243750D01*
G01*
X130475000Y-87168750D01*
G75*
G02*
X130718750Y-86925000I243750J0D01*
G01*
X131281250Y-86925000D01*
G75*
G02*
X131525000Y-87168750I0J-243750D01*
G01*
X131525000Y-87656250D01*
G75*
G02*
X131281250Y-87900000I-243750J0D01*
G01*
G37*
G36*
G01*
X131281250Y-89475000D02*
X130718750Y-89475000D01*
G75*
G02*
X130475000Y-89231250I0J243750D01*
G01*
X130475000Y-88743750D01*
G75*
G02*
X130718750Y-88500000I243750J0D01*
G01*
X131281250Y-88500000D01*
G75*
G02*
X131525000Y-88743750I0J-243750D01*
G01*
X131525000Y-89231250D01*
G75*
G02*
X131281250Y-89475000I-243750J0D01*
G01*
G37*
G36*
G01*
X120390000Y-51197500D02*
X120390000Y-50802500D01*
G75*
G02*
X120562500Y-50630000I172500J0D01*
G01*
X120907500Y-50630000D01*
G75*
G02*
X121080000Y-50802500I0J-172500D01*
G01*
X121080000Y-51197500D01*
G75*
G02*
X120907500Y-51370000I-172500J0D01*
G01*
X120562500Y-51370000D01*
G75*
G02*
X120390000Y-51197500I0J172500D01*
G01*
G37*
G36*
G01*
X119420000Y-51197500D02*
X119420000Y-50802500D01*
G75*
G02*
X119592500Y-50630000I172500J0D01*
G01*
X119937500Y-50630000D01*
G75*
G02*
X120110000Y-50802500I0J-172500D01*
G01*
X120110000Y-51197500D01*
G75*
G02*
X119937500Y-51370000I-172500J0D01*
G01*
X119592500Y-51370000D01*
G75*
G02*
X119420000Y-51197500I0J172500D01*
G01*
G37*
G36*
G01*
X115531250Y-49450000D02*
X114968750Y-49450000D01*
G75*
G02*
X114725000Y-49206250I0J243750D01*
G01*
X114725000Y-48718750D01*
G75*
G02*
X114968750Y-48475000I243750J0D01*
G01*
X115531250Y-48475000D01*
G75*
G02*
X115775000Y-48718750I0J-243750D01*
G01*
X115775000Y-49206250D01*
G75*
G02*
X115531250Y-49450000I-243750J0D01*
G01*
G37*
G36*
G01*
X115531250Y-51025000D02*
X114968750Y-51025000D01*
G75*
G02*
X114725000Y-50781250I0J243750D01*
G01*
X114725000Y-50293750D01*
G75*
G02*
X114968750Y-50050000I243750J0D01*
G01*
X115531250Y-50050000D01*
G75*
G02*
X115775000Y-50293750I0J-243750D01*
G01*
X115775000Y-50781250D01*
G75*
G02*
X115531250Y-51025000I-243750J0D01*
G01*
G37*
G36*
G01*
X131281250Y-83900000D02*
X130718750Y-83900000D01*
G75*
G02*
X130475000Y-83656250I0J243750D01*
G01*
X130475000Y-83168750D01*
G75*
G02*
X130718750Y-82925000I243750J0D01*
G01*
X131281250Y-82925000D01*
G75*
G02*
X131525000Y-83168750I0J-243750D01*
G01*
X131525000Y-83656250D01*
G75*
G02*
X131281250Y-83900000I-243750J0D01*
G01*
G37*
G36*
G01*
X131281250Y-85475000D02*
X130718750Y-85475000D01*
G75*
G02*
X130475000Y-85231250I0J243750D01*
G01*
X130475000Y-84743750D01*
G75*
G02*
X130718750Y-84500000I243750J0D01*
G01*
X131281250Y-84500000D01*
G75*
G02*
X131525000Y-84743750I0J-243750D01*
G01*
X131525000Y-85231250D01*
G75*
G02*
X131281250Y-85475000I-243750J0D01*
G01*
G37*
G36*
G01*
X120390000Y-48197500D02*
X120390000Y-47802500D01*
G75*
G02*
X120562500Y-47630000I172500J0D01*
G01*
X120907500Y-47630000D01*
G75*
G02*
X121080000Y-47802500I0J-172500D01*
G01*
X121080000Y-48197500D01*
G75*
G02*
X120907500Y-48370000I-172500J0D01*
G01*
X120562500Y-48370000D01*
G75*
G02*
X120390000Y-48197500I0J172500D01*
G01*
G37*
G36*
G01*
X119420000Y-48197500D02*
X119420000Y-47802500D01*
G75*
G02*
X119592500Y-47630000I172500J0D01*
G01*
X119937500Y-47630000D01*
G75*
G02*
X120110000Y-47802500I0J-172500D01*
G01*
X120110000Y-48197500D01*
G75*
G02*
X119937500Y-48370000I-172500J0D01*
G01*
X119592500Y-48370000D01*
G75*
G02*
X119420000Y-48197500I0J172500D01*
G01*
G37*
G36*
G01*
X109718750Y-47300000D02*
X110281250Y-47300000D01*
G75*
G02*
X110525000Y-47543750I0J-243750D01*
G01*
X110525000Y-48031250D01*
G75*
G02*
X110281250Y-48275000I-243750J0D01*
G01*
X109718750Y-48275000D01*
G75*
G02*
X109475000Y-48031250I0J243750D01*
G01*
X109475000Y-47543750D01*
G75*
G02*
X109718750Y-47300000I243750J0D01*
G01*
G37*
G36*
G01*
X109718750Y-45725000D02*
X110281250Y-45725000D01*
G75*
G02*
X110525000Y-45968750I0J-243750D01*
G01*
X110525000Y-46456250D01*
G75*
G02*
X110281250Y-46700000I-243750J0D01*
G01*
X109718750Y-46700000D01*
G75*
G02*
X109475000Y-46456250I0J243750D01*
G01*
X109475000Y-45968750D01*
G75*
G02*
X109718750Y-45725000I243750J0D01*
G01*
G37*
G36*
G01*
X115281250Y-80450000D02*
X114718750Y-80450000D01*
G75*
G02*
X114475000Y-80206250I0J243750D01*
G01*
X114475000Y-79718750D01*
G75*
G02*
X114718750Y-79475000I243750J0D01*
G01*
X115281250Y-79475000D01*
G75*
G02*
X115525000Y-79718750I0J-243750D01*
G01*
X115525000Y-80206250D01*
G75*
G02*
X115281250Y-80450000I-243750J0D01*
G01*
G37*
G36*
G01*
X115281250Y-82025000D02*
X114718750Y-82025000D01*
G75*
G02*
X114475000Y-81781250I0J243750D01*
G01*
X114475000Y-81293750D01*
G75*
G02*
X114718750Y-81050000I243750J0D01*
G01*
X115281250Y-81050000D01*
G75*
G02*
X115525000Y-81293750I0J-243750D01*
G01*
X115525000Y-81781250D01*
G75*
G02*
X115281250Y-82025000I-243750J0D01*
G01*
G37*
G36*
G01*
X119718750Y-81050000D02*
X120281250Y-81050000D01*
G75*
G02*
X120525000Y-81293750I0J-243750D01*
G01*
X120525000Y-81781250D01*
G75*
G02*
X120281250Y-82025000I-243750J0D01*
G01*
X119718750Y-82025000D01*
G75*
G02*
X119475000Y-81781250I0J243750D01*
G01*
X119475000Y-81293750D01*
G75*
G02*
X119718750Y-81050000I243750J0D01*
G01*
G37*
G36*
G01*
X119718750Y-79475000D02*
X120281250Y-79475000D01*
G75*
G02*
X120525000Y-79718750I0J-243750D01*
G01*
X120525000Y-80206250D01*
G75*
G02*
X120281250Y-80450000I-243750J0D01*
G01*
X119718750Y-80450000D01*
G75*
G02*
X119475000Y-80206250I0J243750D01*
G01*
X119475000Y-79718750D01*
G75*
G02*
X119718750Y-79475000I243750J0D01*
G01*
G37*
G36*
G01*
X123218750Y-85300000D02*
X123781250Y-85300000D01*
G75*
G02*
X124025000Y-85543750I0J-243750D01*
G01*
X124025000Y-86031250D01*
G75*
G02*
X123781250Y-86275000I-243750J0D01*
G01*
X123218750Y-86275000D01*
G75*
G02*
X122975000Y-86031250I0J243750D01*
G01*
X122975000Y-85543750D01*
G75*
G02*
X123218750Y-85300000I243750J0D01*
G01*
G37*
G36*
G01*
X123218750Y-83725000D02*
X123781250Y-83725000D01*
G75*
G02*
X124025000Y-83968750I0J-243750D01*
G01*
X124025000Y-84456250D01*
G75*
G02*
X123781250Y-84700000I-243750J0D01*
G01*
X123218750Y-84700000D01*
G75*
G02*
X122975000Y-84456250I0J243750D01*
G01*
X122975000Y-83968750D01*
G75*
G02*
X123218750Y-83725000I243750J0D01*
G01*
G37*
G36*
G01*
X110300000Y-87531250D02*
X110300000Y-86968750D01*
G75*
G02*
X110543750Y-86725000I243750J0D01*
G01*
X111031250Y-86725000D01*
G75*
G02*
X111275000Y-86968750I0J-243750D01*
G01*
X111275000Y-87531250D01*
G75*
G02*
X111031250Y-87775000I-243750J0D01*
G01*
X110543750Y-87775000D01*
G75*
G02*
X110300000Y-87531250I0J243750D01*
G01*
G37*
G36*
G01*
X108725000Y-87531250D02*
X108725000Y-86968750D01*
G75*
G02*
X108968750Y-86725000I243750J0D01*
G01*
X109456250Y-86725000D01*
G75*
G02*
X109700000Y-86968750I0J-243750D01*
G01*
X109700000Y-87531250D01*
G75*
G02*
X109456250Y-87775000I-243750J0D01*
G01*
X108968750Y-87775000D01*
G75*
G02*
X108725000Y-87531250I0J243750D01*
G01*
G37*
G36*
G01*
X127531250Y-58450000D02*
X126968750Y-58450000D01*
G75*
G02*
X126725000Y-58206250I0J243750D01*
G01*
X126725000Y-57718750D01*
G75*
G02*
X126968750Y-57475000I243750J0D01*
G01*
X127531250Y-57475000D01*
G75*
G02*
X127775000Y-57718750I0J-243750D01*
G01*
X127775000Y-58206250D01*
G75*
G02*
X127531250Y-58450000I-243750J0D01*
G01*
G37*
G36*
G01*
X127531250Y-60025000D02*
X126968750Y-60025000D01*
G75*
G02*
X126725000Y-59781250I0J243750D01*
G01*
X126725000Y-59293750D01*
G75*
G02*
X126968750Y-59050000I243750J0D01*
G01*
X127531250Y-59050000D01*
G75*
G02*
X127775000Y-59293750I0J-243750D01*
G01*
X127775000Y-59781250D01*
G75*
G02*
X127531250Y-60025000I-243750J0D01*
G01*
G37*
G36*
G01*
X136050000Y-60031250D02*
X136050000Y-59468750D01*
G75*
G02*
X136293750Y-59225000I243750J0D01*
G01*
X136781250Y-59225000D01*
G75*
G02*
X137025000Y-59468750I0J-243750D01*
G01*
X137025000Y-60031250D01*
G75*
G02*
X136781250Y-60275000I-243750J0D01*
G01*
X136293750Y-60275000D01*
G75*
G02*
X136050000Y-60031250I0J243750D01*
G01*
G37*
G36*
G01*
X134475000Y-60031250D02*
X134475000Y-59468750D01*
G75*
G02*
X134718750Y-59225000I243750J0D01*
G01*
X135206250Y-59225000D01*
G75*
G02*
X135450000Y-59468750I0J-243750D01*
G01*
X135450000Y-60031250D01*
G75*
G02*
X135206250Y-60275000I-243750J0D01*
G01*
X134718750Y-60275000D01*
G75*
G02*
X134475000Y-60031250I0J243750D01*
G01*
G37*
G36*
G01*
X136050000Y-57031250D02*
X136050000Y-56468750D01*
G75*
G02*
X136293750Y-56225000I243750J0D01*
G01*
X136781250Y-56225000D01*
G75*
G02*
X137025000Y-56468750I0J-243750D01*
G01*
X137025000Y-57031250D01*
G75*
G02*
X136781250Y-57275000I-243750J0D01*
G01*
X136293750Y-57275000D01*
G75*
G02*
X136050000Y-57031250I0J243750D01*
G01*
G37*
G36*
G01*
X134475000Y-57031250D02*
X134475000Y-56468750D01*
G75*
G02*
X134718750Y-56225000I243750J0D01*
G01*
X135206250Y-56225000D01*
G75*
G02*
X135450000Y-56468750I0J-243750D01*
G01*
X135450000Y-57031250D01*
G75*
G02*
X135206250Y-57275000I-243750J0D01*
G01*
X134718750Y-57275000D01*
G75*
G02*
X134475000Y-57031250I0J243750D01*
G01*
G37*
G36*
G01*
X135450000Y-57968750D02*
X135450000Y-58531250D01*
G75*
G02*
X135206250Y-58775000I-243750J0D01*
G01*
X134718750Y-58775000D01*
G75*
G02*
X134475000Y-58531250I0J243750D01*
G01*
X134475000Y-57968750D01*
G75*
G02*
X134718750Y-57725000I243750J0D01*
G01*
X135206250Y-57725000D01*
G75*
G02*
X135450000Y-57968750I0J-243750D01*
G01*
G37*
G36*
G01*
X137025000Y-57968750D02*
X137025000Y-58531250D01*
G75*
G02*
X136781250Y-58775000I-243750J0D01*
G01*
X136293750Y-58775000D01*
G75*
G02*
X136050000Y-58531250I0J243750D01*
G01*
X136050000Y-57968750D01*
G75*
G02*
X136293750Y-57725000I243750J0D01*
G01*
X136781250Y-57725000D01*
G75*
G02*
X137025000Y-57968750I0J-243750D01*
G01*
G37*
G36*
G01*
X111031250Y-70450000D02*
X110468750Y-70450000D01*
G75*
G02*
X110225000Y-70206250I0J243750D01*
G01*
X110225000Y-69718750D01*
G75*
G02*
X110468750Y-69475000I243750J0D01*
G01*
X111031250Y-69475000D01*
G75*
G02*
X111275000Y-69718750I0J-243750D01*
G01*
X111275000Y-70206250D01*
G75*
G02*
X111031250Y-70450000I-243750J0D01*
G01*
G37*
G36*
G01*
X111031250Y-72025000D02*
X110468750Y-72025000D01*
G75*
G02*
X110225000Y-71781250I0J243750D01*
G01*
X110225000Y-71293750D01*
G75*
G02*
X110468750Y-71050000I243750J0D01*
G01*
X111031250Y-71050000D01*
G75*
G02*
X111275000Y-71293750I0J-243750D01*
G01*
X111275000Y-71781250D01*
G75*
G02*
X111031250Y-72025000I-243750J0D01*
G01*
G37*
G36*
G01*
X112531250Y-70450000D02*
X111968750Y-70450000D01*
G75*
G02*
X111725000Y-70206250I0J243750D01*
G01*
X111725000Y-69718750D01*
G75*
G02*
X111968750Y-69475000I243750J0D01*
G01*
X112531250Y-69475000D01*
G75*
G02*
X112775000Y-69718750I0J-243750D01*
G01*
X112775000Y-70206250D01*
G75*
G02*
X112531250Y-70450000I-243750J0D01*
G01*
G37*
G36*
G01*
X112531250Y-72025000D02*
X111968750Y-72025000D01*
G75*
G02*
X111725000Y-71781250I0J243750D01*
G01*
X111725000Y-71293750D01*
G75*
G02*
X111968750Y-71050000I243750J0D01*
G01*
X112531250Y-71050000D01*
G75*
G02*
X112775000Y-71293750I0J-243750D01*
G01*
X112775000Y-71781250D01*
G75*
G02*
X112531250Y-72025000I-243750J0D01*
G01*
G37*
G36*
G01*
X120486741Y-68088994D02*
X120088993Y-68486741D01*
G75*
G02*
X119744279Y-68486741I-172357J172357D01*
G01*
X119399565Y-68142027D01*
G75*
G02*
X119399565Y-67797313I172357J172357D01*
G01*
X119797313Y-67399565D01*
G75*
G02*
X120142027Y-67399565I172357J-172357D01*
G01*
X120486741Y-67744279D01*
G75*
G02*
X120486741Y-68088993I-172357J-172357D01*
G01*
G37*
G36*
G01*
X121600435Y-69202688D02*
X121202687Y-69600435D01*
G75*
G02*
X120857973Y-69600435I-172357J172357D01*
G01*
X120513259Y-69255721D01*
G75*
G02*
X120513259Y-68911007I172357J172357D01*
G01*
X120911007Y-68513259D01*
G75*
G02*
X121255721Y-68513259I172357J-172357D01*
G01*
X121600435Y-68857973D01*
G75*
G02*
X121600435Y-69202687I-172357J-172357D01*
G01*
G37*
G36*
G01*
X130718750Y-56050000D02*
X131281250Y-56050000D01*
G75*
G02*
X131525000Y-56293750I0J-243750D01*
G01*
X131525000Y-56781250D01*
G75*
G02*
X131281250Y-57025000I-243750J0D01*
G01*
X130718750Y-57025000D01*
G75*
G02*
X130475000Y-56781250I0J243750D01*
G01*
X130475000Y-56293750D01*
G75*
G02*
X130718750Y-56050000I243750J0D01*
G01*
G37*
G36*
G01*
X130718750Y-54475000D02*
X131281250Y-54475000D01*
G75*
G02*
X131525000Y-54718750I0J-243750D01*
G01*
X131525000Y-55206250D01*
G75*
G02*
X131281250Y-55450000I-243750J0D01*
G01*
X130718750Y-55450000D01*
G75*
G02*
X130475000Y-55206250I0J243750D01*
G01*
X130475000Y-54718750D01*
G75*
G02*
X130718750Y-54475000I243750J0D01*
G01*
G37*
G36*
G01*
X127718750Y-56050000D02*
X128281250Y-56050000D01*
G75*
G02*
X128525000Y-56293750I0J-243750D01*
G01*
X128525000Y-56781250D01*
G75*
G02*
X128281250Y-57025000I-243750J0D01*
G01*
X127718750Y-57025000D01*
G75*
G02*
X127475000Y-56781250I0J243750D01*
G01*
X127475000Y-56293750D01*
G75*
G02*
X127718750Y-56050000I243750J0D01*
G01*
G37*
G36*
G01*
X127718750Y-54475000D02*
X128281250Y-54475000D01*
G75*
G02*
X128525000Y-54718750I0J-243750D01*
G01*
X128525000Y-55206250D01*
G75*
G02*
X128281250Y-55450000I-243750J0D01*
G01*
X127718750Y-55450000D01*
G75*
G02*
X127475000Y-55206250I0J243750D01*
G01*
X127475000Y-54718750D01*
G75*
G02*
X127718750Y-54475000I243750J0D01*
G01*
G37*
G36*
G01*
X129218750Y-56050000D02*
X129781250Y-56050000D01*
G75*
G02*
X130025000Y-56293750I0J-243750D01*
G01*
X130025000Y-56781250D01*
G75*
G02*
X129781250Y-57025000I-243750J0D01*
G01*
X129218750Y-57025000D01*
G75*
G02*
X128975000Y-56781250I0J243750D01*
G01*
X128975000Y-56293750D01*
G75*
G02*
X129218750Y-56050000I243750J0D01*
G01*
G37*
G36*
G01*
X129218750Y-54475000D02*
X129781250Y-54475000D01*
G75*
G02*
X130025000Y-54718750I0J-243750D01*
G01*
X130025000Y-55206250D01*
G75*
G02*
X129781250Y-55450000I-243750J0D01*
G01*
X129218750Y-55450000D01*
G75*
G02*
X128975000Y-55206250I0J243750D01*
G01*
X128975000Y-54718750D01*
G75*
G02*
X129218750Y-54475000I243750J0D01*
G01*
G37*
G36*
G01*
X111800000Y-77281250D02*
X111800000Y-76718750D01*
G75*
G02*
X112043750Y-76475000I243750J0D01*
G01*
X112531250Y-76475000D01*
G75*
G02*
X112775000Y-76718750I0J-243750D01*
G01*
X112775000Y-77281250D01*
G75*
G02*
X112531250Y-77525000I-243750J0D01*
G01*
X112043750Y-77525000D01*
G75*
G02*
X111800000Y-77281250I0J243750D01*
G01*
G37*
G36*
G01*
X110225000Y-77281250D02*
X110225000Y-76718750D01*
G75*
G02*
X110468750Y-76475000I243750J0D01*
G01*
X110956250Y-76475000D01*
G75*
G02*
X111200000Y-76718750I0J-243750D01*
G01*
X111200000Y-77281250D01*
G75*
G02*
X110956250Y-77525000I-243750J0D01*
G01*
X110468750Y-77525000D01*
G75*
G02*
X110225000Y-77281250I0J243750D01*
G01*
G37*
G36*
G01*
X111200000Y-75218750D02*
X111200000Y-75781250D01*
G75*
G02*
X110956250Y-76025000I-243750J0D01*
G01*
X110468750Y-76025000D01*
G75*
G02*
X110225000Y-75781250I0J243750D01*
G01*
X110225000Y-75218750D01*
G75*
G02*
X110468750Y-74975000I243750J0D01*
G01*
X110956250Y-74975000D01*
G75*
G02*
X111200000Y-75218750I0J-243750D01*
G01*
G37*
G36*
G01*
X112775000Y-75218750D02*
X112775000Y-75781250D01*
G75*
G02*
X112531250Y-76025000I-243750J0D01*
G01*
X112043750Y-76025000D01*
G75*
G02*
X111800000Y-75781250I0J243750D01*
G01*
X111800000Y-75218750D01*
G75*
G02*
X112043750Y-74975000I243750J0D01*
G01*
X112531250Y-74975000D01*
G75*
G02*
X112775000Y-75218750I0J-243750D01*
G01*
G37*
G36*
G01*
X123468750Y-59050000D02*
X124031250Y-59050000D01*
G75*
G02*
X124275000Y-59293750I0J-243750D01*
G01*
X124275000Y-59781250D01*
G75*
G02*
X124031250Y-60025000I-243750J0D01*
G01*
X123468750Y-60025000D01*
G75*
G02*
X123225000Y-59781250I0J243750D01*
G01*
X123225000Y-59293750D01*
G75*
G02*
X123468750Y-59050000I243750J0D01*
G01*
G37*
G36*
G01*
X123468750Y-57475000D02*
X124031250Y-57475000D01*
G75*
G02*
X124275000Y-57718750I0J-243750D01*
G01*
X124275000Y-58206250D01*
G75*
G02*
X124031250Y-58450000I-243750J0D01*
G01*
X123468750Y-58450000D01*
G75*
G02*
X123225000Y-58206250I0J243750D01*
G01*
X123225000Y-57718750D01*
G75*
G02*
X123468750Y-57475000I243750J0D01*
G01*
G37*
G36*
G01*
X124031250Y-54450000D02*
X123468750Y-54450000D01*
G75*
G02*
X123225000Y-54206250I0J243750D01*
G01*
X123225000Y-53718750D01*
G75*
G02*
X123468750Y-53475000I243750J0D01*
G01*
X124031250Y-53475000D01*
G75*
G02*
X124275000Y-53718750I0J-243750D01*
G01*
X124275000Y-54206250D01*
G75*
G02*
X124031250Y-54450000I-243750J0D01*
G01*
G37*
G36*
G01*
X124031250Y-56025000D02*
X123468750Y-56025000D01*
G75*
G02*
X123225000Y-55781250I0J243750D01*
G01*
X123225000Y-55293750D01*
G75*
G02*
X123468750Y-55050000I243750J0D01*
G01*
X124031250Y-55050000D01*
G75*
G02*
X124275000Y-55293750I0J-243750D01*
G01*
X124275000Y-55781250D01*
G75*
G02*
X124031250Y-56025000I-243750J0D01*
G01*
G37*
G36*
G01*
X109718750Y-50300000D02*
X110281250Y-50300000D01*
G75*
G02*
X110525000Y-50543750I0J-243750D01*
G01*
X110525000Y-51031250D01*
G75*
G02*
X110281250Y-51275000I-243750J0D01*
G01*
X109718750Y-51275000D01*
G75*
G02*
X109475000Y-51031250I0J243750D01*
G01*
X109475000Y-50543750D01*
G75*
G02*
X109718750Y-50300000I243750J0D01*
G01*
G37*
G36*
G01*
X109718750Y-48725000D02*
X110281250Y-48725000D01*
G75*
G02*
X110525000Y-48968750I0J-243750D01*
G01*
X110525000Y-49456250D01*
G75*
G02*
X110281250Y-49700000I-243750J0D01*
G01*
X109718750Y-49700000D01*
G75*
G02*
X109475000Y-49456250I0J243750D01*
G01*
X109475000Y-48968750D01*
G75*
G02*
X109718750Y-48725000I243750J0D01*
G01*
G37*
G36*
G01*
X111218750Y-50300000D02*
X111781250Y-50300000D01*
G75*
G02*
X112025000Y-50543750I0J-243750D01*
G01*
X112025000Y-51031250D01*
G75*
G02*
X111781250Y-51275000I-243750J0D01*
G01*
X111218750Y-51275000D01*
G75*
G02*
X110975000Y-51031250I0J243750D01*
G01*
X110975000Y-50543750D01*
G75*
G02*
X111218750Y-50300000I243750J0D01*
G01*
G37*
G36*
G01*
X111218750Y-48725000D02*
X111781250Y-48725000D01*
G75*
G02*
X112025000Y-48968750I0J-243750D01*
G01*
X112025000Y-49456250D01*
G75*
G02*
X111781250Y-49700000I-243750J0D01*
G01*
X111218750Y-49700000D01*
G75*
G02*
X110975000Y-49456250I0J243750D01*
G01*
X110975000Y-48968750D01*
G75*
G02*
X111218750Y-48725000I243750J0D01*
G01*
G37*
G36*
G01*
X104531250Y-49200000D02*
X103968750Y-49200000D01*
G75*
G02*
X103725000Y-48956250I0J243750D01*
G01*
X103725000Y-48468750D01*
G75*
G02*
X103968750Y-48225000I243750J0D01*
G01*
X104531250Y-48225000D01*
G75*
G02*
X104775000Y-48468750I0J-243750D01*
G01*
X104775000Y-48956250D01*
G75*
G02*
X104531250Y-49200000I-243750J0D01*
G01*
G37*
G36*
G01*
X104531250Y-50775000D02*
X103968750Y-50775000D01*
G75*
G02*
X103725000Y-50531250I0J243750D01*
G01*
X103725000Y-50043750D01*
G75*
G02*
X103968750Y-49800000I243750J0D01*
G01*
X104531250Y-49800000D01*
G75*
G02*
X104775000Y-50043750I0J-243750D01*
G01*
X104775000Y-50531250D01*
G75*
G02*
X104531250Y-50775000I-243750J0D01*
G01*
G37*
G36*
G01*
X106031250Y-49200000D02*
X105468750Y-49200000D01*
G75*
G02*
X105225000Y-48956250I0J243750D01*
G01*
X105225000Y-48468750D01*
G75*
G02*
X105468750Y-48225000I243750J0D01*
G01*
X106031250Y-48225000D01*
G75*
G02*
X106275000Y-48468750I0J-243750D01*
G01*
X106275000Y-48956250D01*
G75*
G02*
X106031250Y-49200000I-243750J0D01*
G01*
G37*
G36*
G01*
X106031250Y-50775000D02*
X105468750Y-50775000D01*
G75*
G02*
X105225000Y-50531250I0J243750D01*
G01*
X105225000Y-50043750D01*
G75*
G02*
X105468750Y-49800000I243750J0D01*
G01*
X106031250Y-49800000D01*
G75*
G02*
X106275000Y-50043750I0J-243750D01*
G01*
X106275000Y-50531250D01*
G75*
G02*
X106031250Y-50775000I-243750J0D01*
G01*
G37*
G36*
G01*
X107531250Y-49200000D02*
X106968750Y-49200000D01*
G75*
G02*
X106725000Y-48956250I0J243750D01*
G01*
X106725000Y-48468750D01*
G75*
G02*
X106968750Y-48225000I243750J0D01*
G01*
X107531250Y-48225000D01*
G75*
G02*
X107775000Y-48468750I0J-243750D01*
G01*
X107775000Y-48956250D01*
G75*
G02*
X107531250Y-49200000I-243750J0D01*
G01*
G37*
G36*
G01*
X107531250Y-50775000D02*
X106968750Y-50775000D01*
G75*
G02*
X106725000Y-50531250I0J243750D01*
G01*
X106725000Y-50043750D01*
G75*
G02*
X106968750Y-49800000I243750J0D01*
G01*
X107531250Y-49800000D01*
G75*
G02*
X107775000Y-50043750I0J-243750D01*
G01*
X107775000Y-50531250D01*
G75*
G02*
X107531250Y-50775000I-243750J0D01*
G01*
G37*
G36*
G01*
X113468750Y-50050000D02*
X114031250Y-50050000D01*
G75*
G02*
X114275000Y-50293750I0J-243750D01*
G01*
X114275000Y-50781250D01*
G75*
G02*
X114031250Y-51025000I-243750J0D01*
G01*
X113468750Y-51025000D01*
G75*
G02*
X113225000Y-50781250I0J243750D01*
G01*
X113225000Y-50293750D01*
G75*
G02*
X113468750Y-50050000I243750J0D01*
G01*
G37*
G36*
G01*
X113468750Y-48475000D02*
X114031250Y-48475000D01*
G75*
G02*
X114275000Y-48718750I0J-243750D01*
G01*
X114275000Y-49206250D01*
G75*
G02*
X114031250Y-49450000I-243750J0D01*
G01*
X113468750Y-49450000D01*
G75*
G02*
X113225000Y-49206250I0J243750D01*
G01*
X113225000Y-48718750D01*
G75*
G02*
X113468750Y-48475000I243750J0D01*
G01*
G37*
G36*
G01*
X103450000Y-51968750D02*
X103450000Y-52531250D01*
G75*
G02*
X103206250Y-52775000I-243750J0D01*
G01*
X102718750Y-52775000D01*
G75*
G02*
X102475000Y-52531250I0J243750D01*
G01*
X102475000Y-51968750D01*
G75*
G02*
X102718750Y-51725000I243750J0D01*
G01*
X103206250Y-51725000D01*
G75*
G02*
X103450000Y-51968750I0J-243750D01*
G01*
G37*
G36*
G01*
X105025000Y-51968750D02*
X105025000Y-52531250D01*
G75*
G02*
X104781250Y-52775000I-243750J0D01*
G01*
X104293750Y-52775000D01*
G75*
G02*
X104050000Y-52531250I0J243750D01*
G01*
X104050000Y-51968750D01*
G75*
G02*
X104293750Y-51725000I243750J0D01*
G01*
X104781250Y-51725000D01*
G75*
G02*
X105025000Y-51968750I0J-243750D01*
G01*
G37*
G36*
G01*
X119552500Y-49640000D02*
X119947500Y-49640000D01*
G75*
G02*
X120120000Y-49812500I0J-172500D01*
G01*
X120120000Y-50157500D01*
G75*
G02*
X119947500Y-50330000I-172500J0D01*
G01*
X119552500Y-50330000D01*
G75*
G02*
X119380000Y-50157500I0J172500D01*
G01*
X119380000Y-49812500D01*
G75*
G02*
X119552500Y-49640000I172500J0D01*
G01*
G37*
G36*
G01*
X119552500Y-48670000D02*
X119947500Y-48670000D01*
G75*
G02*
X120120000Y-48842500I0J-172500D01*
G01*
X120120000Y-49187500D01*
G75*
G02*
X119947500Y-49360000I-172500J0D01*
G01*
X119552500Y-49360000D01*
G75*
G02*
X119380000Y-49187500I0J172500D01*
G01*
X119380000Y-48842500D01*
G75*
G02*
X119552500Y-48670000I172500J0D01*
G01*
G37*
G36*
G01*
X109700000Y-88518750D02*
X109700000Y-89081250D01*
G75*
G02*
X109456250Y-89325000I-243750J0D01*
G01*
X108968750Y-89325000D01*
G75*
G02*
X108725000Y-89081250I0J243750D01*
G01*
X108725000Y-88518750D01*
G75*
G02*
X108968750Y-88275000I243750J0D01*
G01*
X109456250Y-88275000D01*
G75*
G02*
X109700000Y-88518750I0J-243750D01*
G01*
G37*
G36*
G01*
X111275000Y-88518750D02*
X111275000Y-89081250D01*
G75*
G02*
X111031250Y-89325000I-243750J0D01*
G01*
X110543750Y-89325000D01*
G75*
G02*
X110300000Y-89081250I0J243750D01*
G01*
X110300000Y-88518750D01*
G75*
G02*
X110543750Y-88275000I243750J0D01*
G01*
X111031250Y-88275000D01*
G75*
G02*
X111275000Y-88518750I0J-243750D01*
G01*
G37*
G36*
G01*
X104405000Y-89075000D02*
X103095000Y-89075000D01*
G75*
G02*
X102825000Y-88805000I0J270000D01*
G01*
X102825000Y-87995000D01*
G75*
G02*
X103095000Y-87725000I270000J0D01*
G01*
X104405000Y-87725000D01*
G75*
G02*
X104675000Y-87995000I0J-270000D01*
G01*
X104675000Y-88805000D01*
G75*
G02*
X104405000Y-89075000I-270000J0D01*
G01*
G37*
G36*
G01*
X104405000Y-86275000D02*
X103095000Y-86275000D01*
G75*
G02*
X102825000Y-86005000I0J270000D01*
G01*
X102825000Y-85195000D01*
G75*
G02*
X103095000Y-84925000I270000J0D01*
G01*
X104405000Y-84925000D01*
G75*
G02*
X104675000Y-85195000I0J-270000D01*
G01*
X104675000Y-86005000D01*
G75*
G02*
X104405000Y-86275000I-270000J0D01*
G01*
G37*
G36*
G01*
X106475000Y-70318750D02*
X106475000Y-70881250D01*
G75*
G02*
X106231250Y-71125000I-243750J0D01*
G01*
X105743750Y-71125000D01*
G75*
G02*
X105500000Y-70881250I0J243750D01*
G01*
X105500000Y-70318750D01*
G75*
G02*
X105743750Y-70075000I243750J0D01*
G01*
X106231250Y-70075000D01*
G75*
G02*
X106475000Y-70318750I0J-243750D01*
G01*
G37*
G36*
G01*
X104900000Y-70318750D02*
X104900000Y-70881250D01*
G75*
G02*
X104656250Y-71125000I-243750J0D01*
G01*
X104168750Y-71125000D01*
G75*
G02*
X103925000Y-70881250I0J243750D01*
G01*
X103925000Y-70318750D01*
G75*
G02*
X104168750Y-70075000I243750J0D01*
G01*
X104656250Y-70075000D01*
G75*
G02*
X104900000Y-70318750I0J-243750D01*
G01*
G37*
D33*
X129325000Y-89325000D03*
X125175000Y-89325000D03*
X129325000Y-87175000D03*
X125175000Y-87175000D03*
X125175000Y-83175000D03*
X129325000Y-83175000D03*
X125175000Y-85325000D03*
X129325000Y-85325000D03*
M02*
