%TF.GenerationSoftware,KiCad,Pcbnew,(5.1.9-0-10_14)*%
%TF.CreationDate,2021-01-25T15:50:05-08:00*%
%TF.ProjectId,flight-computer-2,666c6967-6874-42d6-936f-6d7075746572,rev?*%
%TF.SameCoordinates,PX57bcf00PY58b1140*%
%TF.FileFunction,Legend,Bot*%
%TF.FilePolarity,Positive*%
%FSLAX46Y46*%
G04 Gerber Fmt 4.6, Leading zero omitted, Abs format (unit mm)*
G04 Created by KiCad (PCBNEW (5.1.9-0-10_14)) date 2021-01-25 15:50:05*
%MOMM*%
%LPD*%
G01*
G04 APERTURE LIST*
%ADD10C,0.264583*%
G04 APERTURE END LIST*
D10*
G36*
X21750000Y30700000D02*
G01*
X21697987Y31224971D01*
X21643072Y31689679D01*
X21581119Y32098226D01*
X21507993Y32454709D01*
X21465948Y32614708D01*
X21419558Y32763229D01*
X21368307Y32900785D01*
X21311678Y33027886D01*
X21249153Y33145048D01*
X21180217Y33252780D01*
X21104351Y33351597D01*
X21021040Y33442010D01*
X20929765Y33524532D01*
X20830010Y33599676D01*
X20721258Y33667954D01*
X20602992Y33729878D01*
X20474696Y33785961D01*
X20335851Y33836715D01*
X20185941Y33882653D01*
X20024449Y33924288D01*
X19664653Y33996695D01*
X19252325Y34058038D01*
X18783329Y34112415D01*
X18253531Y34163926D01*
X18783329Y34214752D01*
X19252325Y34268650D01*
X19664653Y34329702D01*
X20024449Y34401989D01*
X20185941Y34443622D01*
X20335851Y34489595D01*
X20474696Y34540418D01*
X20602992Y34596602D01*
X20721258Y34658656D01*
X20830010Y34727092D01*
X20929765Y34802418D01*
X21021040Y34885147D01*
X21104351Y34975787D01*
X21180217Y35074850D01*
X21249153Y35182845D01*
X21311678Y35300283D01*
X21368307Y35427673D01*
X21419558Y35565528D01*
X21465948Y35714356D01*
X21507993Y35874668D01*
X21581119Y36231784D01*
X21643072Y36640961D01*
X21697987Y37106278D01*
X21750000Y37631820D01*
X21801176Y37106235D01*
X21855364Y36640886D01*
X21916697Y36231687D01*
X21989312Y35874557D01*
X22031141Y35714242D01*
X22077340Y35565412D01*
X22128427Y35427557D01*
X22184918Y35300168D01*
X22247329Y35182732D01*
X22316178Y35074741D01*
X22391981Y34975683D01*
X22475256Y34885049D01*
X22566518Y34802327D01*
X22666285Y34727007D01*
X22775074Y34658579D01*
X22893400Y34596533D01*
X23021782Y34540357D01*
X23160736Y34489542D01*
X23310778Y34443578D01*
X23472425Y34401952D01*
X23832603Y34329679D01*
X24245404Y34268639D01*
X24714962Y34214750D01*
X25245411Y34163926D01*
X24714962Y34112415D01*
X24245404Y34058038D01*
X23832603Y33996695D01*
X23472425Y33924288D01*
X23310778Y33882653D01*
X23160736Y33836715D01*
X23021782Y33785961D01*
X22893400Y33729878D01*
X22775074Y33667954D01*
X22666285Y33599676D01*
X22566518Y33524532D01*
X22475256Y33442010D01*
X22391981Y33351597D01*
X22316178Y33252780D01*
X22247329Y33145048D01*
X22184918Y33027886D01*
X22128427Y32900785D01*
X22077340Y32763229D01*
X22031141Y32614708D01*
X21989312Y32454709D01*
X21916697Y32098226D01*
X21855364Y31689679D01*
X21801176Y31224971D01*
X21750000Y30700000D01*
G37*
X21750000Y30700000D02*
X21697987Y31224971D01*
X21643072Y31689679D01*
X21581119Y32098226D01*
X21507993Y32454709D01*
X21465948Y32614708D01*
X21419558Y32763229D01*
X21368307Y32900785D01*
X21311678Y33027886D01*
X21249153Y33145048D01*
X21180217Y33252780D01*
X21104351Y33351597D01*
X21021040Y33442010D01*
X20929765Y33524532D01*
X20830010Y33599676D01*
X20721258Y33667954D01*
X20602992Y33729878D01*
X20474696Y33785961D01*
X20335851Y33836715D01*
X20185941Y33882653D01*
X20024449Y33924288D01*
X19664653Y33996695D01*
X19252325Y34058038D01*
X18783329Y34112415D01*
X18253531Y34163926D01*
X18783329Y34214752D01*
X19252325Y34268650D01*
X19664653Y34329702D01*
X20024449Y34401989D01*
X20185941Y34443622D01*
X20335851Y34489595D01*
X20474696Y34540418D01*
X20602992Y34596602D01*
X20721258Y34658656D01*
X20830010Y34727092D01*
X20929765Y34802418D01*
X21021040Y34885147D01*
X21104351Y34975787D01*
X21180217Y35074850D01*
X21249153Y35182845D01*
X21311678Y35300283D01*
X21368307Y35427673D01*
X21419558Y35565528D01*
X21465948Y35714356D01*
X21507993Y35874668D01*
X21581119Y36231784D01*
X21643072Y36640961D01*
X21697987Y37106278D01*
X21750000Y37631820D01*
X21801176Y37106235D01*
X21855364Y36640886D01*
X21916697Y36231687D01*
X21989312Y35874557D01*
X22031141Y35714242D01*
X22077340Y35565412D01*
X22128427Y35427557D01*
X22184918Y35300168D01*
X22247329Y35182732D01*
X22316178Y35074741D01*
X22391981Y34975683D01*
X22475256Y34885049D01*
X22566518Y34802327D01*
X22666285Y34727007D01*
X22775074Y34658579D01*
X22893400Y34596533D01*
X23021782Y34540357D01*
X23160736Y34489542D01*
X23310778Y34443578D01*
X23472425Y34401952D01*
X23832603Y34329679D01*
X24245404Y34268639D01*
X24714962Y34214750D01*
X25245411Y34163926D01*
X24714962Y34112415D01*
X24245404Y34058038D01*
X23832603Y33996695D01*
X23472425Y33924288D01*
X23310778Y33882653D01*
X23160736Y33836715D01*
X23021782Y33785961D01*
X22893400Y33729878D01*
X22775074Y33667954D01*
X22666285Y33599676D01*
X22566518Y33524532D01*
X22475256Y33442010D01*
X22391981Y33351597D01*
X22316178Y33252780D01*
X22247329Y33145048D01*
X22184918Y33027886D01*
X22128427Y32900785D01*
X22077340Y32763229D01*
X22031141Y32614708D01*
X21989312Y32454709D01*
X21916697Y32098226D01*
X21855364Y31689679D01*
X21801176Y31224971D01*
X21750000Y30700000D01*
G36*
X32620142Y29541391D02*
G01*
X32654021Y29200277D01*
X32689782Y28898358D01*
X32730115Y28632959D01*
X32777709Y28401404D01*
X32805070Y28297482D01*
X32835253Y28201017D01*
X32868597Y28111676D01*
X32905436Y28029124D01*
X32946107Y27953026D01*
X32990946Y27883049D01*
X33040290Y27818857D01*
X33094474Y27760116D01*
X33153834Y27706491D01*
X33218707Y27657650D01*
X33289428Y27613256D01*
X33366334Y27572975D01*
X33449761Y27536474D01*
X33540045Y27503417D01*
X33637523Y27473470D01*
X33742529Y27446299D01*
X33976475Y27398947D01*
X34244571Y27358685D01*
X34549507Y27322837D01*
X34893971Y27288728D01*
X34549550Y27255463D01*
X34244647Y27220365D01*
X33976573Y27180762D01*
X33742641Y27133984D01*
X33637638Y27107069D01*
X33540163Y27077360D01*
X33449879Y27044521D01*
X33366451Y27008219D01*
X33289542Y26968120D01*
X33218817Y26923891D01*
X33153939Y26875197D01*
X33094573Y26821705D01*
X33040383Y26763080D01*
X32991032Y26698989D01*
X32946185Y26629099D01*
X32905506Y26553074D01*
X32868658Y26470582D01*
X32835307Y26381289D01*
X32805115Y26284860D01*
X32777747Y26180962D01*
X32730138Y25949423D01*
X32689793Y25684002D01*
X32654024Y25382026D01*
X32620142Y25040827D01*
X32586537Y25382026D01*
X32551003Y25684002D01*
X32510855Y25949423D01*
X32463409Y26180962D01*
X32436110Y26284860D01*
X32405979Y26381289D01*
X32372680Y26470582D01*
X32335879Y26553074D01*
X32295240Y26629099D01*
X32250426Y26698989D01*
X32201103Y26763080D01*
X32146934Y26821704D01*
X32087584Y26875197D01*
X32022717Y26923891D01*
X31951998Y26968120D01*
X31875091Y27008219D01*
X31791661Y27044521D01*
X31701371Y27077359D01*
X31603886Y27107069D01*
X31498871Y27133983D01*
X31264906Y27180761D01*
X30996791Y27220364D01*
X30691842Y27255463D01*
X30347372Y27288728D01*
X30691842Y27322837D01*
X30996791Y27358685D01*
X31264906Y27398947D01*
X31498871Y27446299D01*
X31603886Y27473470D01*
X31701371Y27503417D01*
X31791661Y27536474D01*
X31875091Y27572975D01*
X31951998Y27613256D01*
X32022717Y27657650D01*
X32087584Y27706492D01*
X32146934Y27760116D01*
X32201103Y27818857D01*
X32250426Y27883049D01*
X32295240Y27953027D01*
X32335879Y28029125D01*
X32372680Y28111677D01*
X32405979Y28201018D01*
X32436110Y28297482D01*
X32463409Y28401404D01*
X32510855Y28632959D01*
X32551003Y28898358D01*
X32586537Y29200277D01*
X32620142Y29541391D01*
G37*
X32620142Y29541391D02*
X32654021Y29200277D01*
X32689782Y28898358D01*
X32730115Y28632959D01*
X32777709Y28401404D01*
X32805070Y28297482D01*
X32835253Y28201017D01*
X32868597Y28111676D01*
X32905436Y28029124D01*
X32946107Y27953026D01*
X32990946Y27883049D01*
X33040290Y27818857D01*
X33094474Y27760116D01*
X33153834Y27706491D01*
X33218707Y27657650D01*
X33289428Y27613256D01*
X33366334Y27572975D01*
X33449761Y27536474D01*
X33540045Y27503417D01*
X33637523Y27473470D01*
X33742529Y27446299D01*
X33976475Y27398947D01*
X34244571Y27358685D01*
X34549507Y27322837D01*
X34893971Y27288728D01*
X34549550Y27255463D01*
X34244647Y27220365D01*
X33976573Y27180762D01*
X33742641Y27133984D01*
X33637638Y27107069D01*
X33540163Y27077360D01*
X33449879Y27044521D01*
X33366451Y27008219D01*
X33289542Y26968120D01*
X33218817Y26923891D01*
X33153939Y26875197D01*
X33094573Y26821705D01*
X33040383Y26763080D01*
X32991032Y26698989D01*
X32946185Y26629099D01*
X32905506Y26553074D01*
X32868658Y26470582D01*
X32835307Y26381289D01*
X32805115Y26284860D01*
X32777747Y26180962D01*
X32730138Y25949423D01*
X32689793Y25684002D01*
X32654024Y25382026D01*
X32620142Y25040827D01*
X32586537Y25382026D01*
X32551003Y25684002D01*
X32510855Y25949423D01*
X32463409Y26180962D01*
X32436110Y26284860D01*
X32405979Y26381289D01*
X32372680Y26470582D01*
X32335879Y26553074D01*
X32295240Y26629099D01*
X32250426Y26698989D01*
X32201103Y26763080D01*
X32146934Y26821704D01*
X32087584Y26875197D01*
X32022717Y26923891D01*
X31951998Y26968120D01*
X31875091Y27008219D01*
X31791661Y27044521D01*
X31701371Y27077359D01*
X31603886Y27107069D01*
X31498871Y27133983D01*
X31264906Y27180761D01*
X30996791Y27220364D01*
X30691842Y27255463D01*
X30347372Y27288728D01*
X30691842Y27322837D01*
X30996791Y27358685D01*
X31264906Y27398947D01*
X31498871Y27446299D01*
X31603886Y27473470D01*
X31701371Y27503417D01*
X31791661Y27536474D01*
X31875091Y27572975D01*
X31951998Y27613256D01*
X32022717Y27657650D01*
X32087584Y27706492D01*
X32146934Y27760116D01*
X32201103Y27818857D01*
X32250426Y27883049D01*
X32295240Y27953027D01*
X32335879Y28029125D01*
X32372680Y28111677D01*
X32405979Y28201018D01*
X32436110Y28297482D01*
X32463409Y28401404D01*
X32510855Y28632959D01*
X32551003Y28898358D01*
X32586537Y29200277D01*
X32620142Y29541391D01*
G36*
X34169012Y22808010D02*
G01*
X32777953Y22673174D01*
X31546611Y22530858D01*
X30464121Y22370285D01*
X29519618Y22180675D01*
X29095716Y22071613D01*
X28702237Y21951250D01*
X28337823Y21818239D01*
X28001114Y21671233D01*
X27690754Y21508884D01*
X27405384Y21329844D01*
X27143646Y21132767D01*
X26904182Y20916305D01*
X26685634Y20679111D01*
X26486643Y20419838D01*
X26305852Y20137138D01*
X26141903Y19829665D01*
X25993437Y19496069D01*
X25859096Y19135006D01*
X25737522Y18745126D01*
X25627357Y18325083D01*
X25435822Y17389119D01*
X25273626Y16316335D01*
X25129904Y15095952D01*
X24993792Y13717191D01*
X24857486Y15095954D01*
X24713579Y16316346D01*
X24551199Y17389142D01*
X24359478Y18325121D01*
X24249218Y18745171D01*
X24127546Y19135059D01*
X23993104Y19496131D01*
X23844532Y19829734D01*
X23680473Y20137216D01*
X23499567Y20419924D01*
X23300456Y20679204D01*
X23081781Y20916404D01*
X22842183Y21132872D01*
X22580304Y21329954D01*
X22294784Y21508997D01*
X21984266Y21671349D01*
X21647389Y21818357D01*
X21282797Y21951367D01*
X20889129Y22071728D01*
X20465027Y22180786D01*
X19520087Y22370383D01*
X18437107Y22530934D01*
X17205216Y22673217D01*
X15813545Y22808010D01*
X17205216Y22942283D01*
X18437106Y23084273D01*
X19520087Y23244726D01*
X20465027Y23434386D01*
X20889128Y23543526D01*
X21282796Y23663997D01*
X21647389Y23797141D01*
X21984265Y23944303D01*
X22294784Y24106824D01*
X22580303Y24286049D01*
X22842182Y24483319D01*
X23081780Y24699979D01*
X23300455Y24937370D01*
X23499567Y25196837D01*
X23680472Y25479722D01*
X23844532Y25787368D01*
X23993103Y26121118D01*
X24127545Y26482315D01*
X24249218Y26872303D01*
X24359478Y27292424D01*
X24551199Y28228439D01*
X24713578Y29301103D01*
X24857486Y30521161D01*
X24993792Y31899358D01*
X25129904Y30521161D01*
X25273626Y29301103D01*
X25435822Y28228439D01*
X25627357Y27292424D01*
X25737522Y26872303D01*
X25859096Y26482315D01*
X25993437Y26121118D01*
X26141903Y25787368D01*
X26305852Y25479722D01*
X26486643Y25196837D01*
X26685634Y24937370D01*
X26904182Y24699979D01*
X27143646Y24483319D01*
X27405384Y24286049D01*
X27690754Y24106824D01*
X28001114Y23944303D01*
X28337823Y23797141D01*
X28702237Y23663997D01*
X29095716Y23543526D01*
X29519618Y23434386D01*
X30464121Y23244726D01*
X31546611Y23084273D01*
X32777953Y22942283D01*
X34169012Y22808010D01*
G37*
X34169012Y22808010D02*
X32777953Y22673174D01*
X31546611Y22530858D01*
X30464121Y22370285D01*
X29519618Y22180675D01*
X29095716Y22071613D01*
X28702237Y21951250D01*
X28337823Y21818239D01*
X28001114Y21671233D01*
X27690754Y21508884D01*
X27405384Y21329844D01*
X27143646Y21132767D01*
X26904182Y20916305D01*
X26685634Y20679111D01*
X26486643Y20419838D01*
X26305852Y20137138D01*
X26141903Y19829665D01*
X25993437Y19496069D01*
X25859096Y19135006D01*
X25737522Y18745126D01*
X25627357Y18325083D01*
X25435822Y17389119D01*
X25273626Y16316335D01*
X25129904Y15095952D01*
X24993792Y13717191D01*
X24857486Y15095954D01*
X24713579Y16316346D01*
X24551199Y17389142D01*
X24359478Y18325121D01*
X24249218Y18745171D01*
X24127546Y19135059D01*
X23993104Y19496131D01*
X23844532Y19829734D01*
X23680473Y20137216D01*
X23499567Y20419924D01*
X23300456Y20679204D01*
X23081781Y20916404D01*
X22842183Y21132872D01*
X22580304Y21329954D01*
X22294784Y21508997D01*
X21984266Y21671349D01*
X21647389Y21818357D01*
X21282797Y21951367D01*
X20889129Y22071728D01*
X20465027Y22180786D01*
X19520087Y22370383D01*
X18437107Y22530934D01*
X17205216Y22673217D01*
X15813545Y22808010D01*
X17205216Y22942283D01*
X18437106Y23084273D01*
X19520087Y23244726D01*
X20465027Y23434386D01*
X20889128Y23543526D01*
X21282796Y23663997D01*
X21647389Y23797141D01*
X21984265Y23944303D01*
X22294784Y24106824D01*
X22580303Y24286049D01*
X22842182Y24483319D01*
X23081780Y24699979D01*
X23300455Y24937370D01*
X23499567Y25196837D01*
X23680472Y25479722D01*
X23844532Y25787368D01*
X23993103Y26121118D01*
X24127545Y26482315D01*
X24249218Y26872303D01*
X24359478Y27292424D01*
X24551199Y28228439D01*
X24713578Y29301103D01*
X24857486Y30521161D01*
X24993792Y31899358D01*
X25129904Y30521161D01*
X25273626Y29301103D01*
X25435822Y28228439D01*
X25627357Y27292424D01*
X25737522Y26872303D01*
X25859096Y26482315D01*
X25993437Y26121118D01*
X26141903Y25787368D01*
X26305852Y25479722D01*
X26486643Y25196837D01*
X26685634Y24937370D01*
X26904182Y24699979D01*
X27143646Y24483319D01*
X27405384Y24286049D01*
X27690754Y24106824D01*
X28001114Y23944303D01*
X28337823Y23797141D01*
X28702237Y23663997D01*
X29095716Y23543526D01*
X29519618Y23434386D01*
X30464121Y23244726D01*
X31546611Y23084273D01*
X32777953Y22942283D01*
X34169012Y22808010D01*
M02*
