%TF.GenerationSoftware,KiCad,Pcbnew,(5.1.6-0-10_14)*%
%TF.CreationDate,2020-08-06T16:36:50-10:00*%
%TF.ProjectId,flight-computer-2,666c6967-6874-42d6-936f-6d7075746572,rev?*%
%TF.SameCoordinates,Original*%
%TF.FileFunction,Legend,Bot*%
%TF.FilePolarity,Positive*%
%FSLAX46Y46*%
G04 Gerber Fmt 4.6, Leading zero omitted, Abs format (unit mm)*
G04 Created by KiCad (PCBNEW (5.1.6-0-10_14)) date 2020-08-06 16:36:50*
%MOMM*%
%LPD*%
G01*
G04 APERTURE LIST*
%ADD10C,0.264583*%
G04 APERTURE END LIST*
D10*
G36*
X113750000Y-62300000D02*
G01*
X113697987Y-61775029D01*
X113643072Y-61310321D01*
X113581119Y-60901774D01*
X113507993Y-60545291D01*
X113465948Y-60385292D01*
X113419558Y-60236771D01*
X113368307Y-60099215D01*
X113311678Y-59972114D01*
X113249153Y-59854952D01*
X113180217Y-59747220D01*
X113104351Y-59648403D01*
X113021040Y-59557990D01*
X112929765Y-59475468D01*
X112830010Y-59400324D01*
X112721258Y-59332046D01*
X112602992Y-59270122D01*
X112474696Y-59214039D01*
X112335851Y-59163285D01*
X112185941Y-59117347D01*
X112024449Y-59075712D01*
X111664653Y-59003305D01*
X111252325Y-58941962D01*
X110783329Y-58887585D01*
X110253531Y-58836074D01*
X110783329Y-58785248D01*
X111252325Y-58731350D01*
X111664653Y-58670298D01*
X112024449Y-58598011D01*
X112185941Y-58556378D01*
X112335851Y-58510405D01*
X112474696Y-58459582D01*
X112602992Y-58403398D01*
X112721258Y-58341344D01*
X112830010Y-58272908D01*
X112929765Y-58197582D01*
X113021040Y-58114853D01*
X113104351Y-58024213D01*
X113180217Y-57925150D01*
X113249153Y-57817155D01*
X113311678Y-57699717D01*
X113368307Y-57572327D01*
X113419558Y-57434472D01*
X113465948Y-57285644D01*
X113507993Y-57125332D01*
X113581119Y-56768216D01*
X113643072Y-56359039D01*
X113697987Y-55893722D01*
X113750000Y-55368180D01*
X113801176Y-55893765D01*
X113855364Y-56359114D01*
X113916697Y-56768313D01*
X113989312Y-57125443D01*
X114031141Y-57285758D01*
X114077340Y-57434588D01*
X114128427Y-57572443D01*
X114184918Y-57699832D01*
X114247329Y-57817268D01*
X114316178Y-57925259D01*
X114391981Y-58024317D01*
X114475256Y-58114951D01*
X114566518Y-58197673D01*
X114666285Y-58272993D01*
X114775074Y-58341421D01*
X114893400Y-58403467D01*
X115021782Y-58459643D01*
X115160736Y-58510458D01*
X115310778Y-58556422D01*
X115472425Y-58598048D01*
X115832603Y-58670321D01*
X116245404Y-58731361D01*
X116714962Y-58785250D01*
X117245411Y-58836074D01*
X116714962Y-58887585D01*
X116245404Y-58941962D01*
X115832603Y-59003305D01*
X115472425Y-59075712D01*
X115310778Y-59117347D01*
X115160736Y-59163285D01*
X115021782Y-59214039D01*
X114893400Y-59270122D01*
X114775074Y-59332046D01*
X114666285Y-59400324D01*
X114566518Y-59475468D01*
X114475256Y-59557990D01*
X114391981Y-59648403D01*
X114316178Y-59747220D01*
X114247329Y-59854952D01*
X114184918Y-59972114D01*
X114128427Y-60099215D01*
X114077340Y-60236771D01*
X114031141Y-60385292D01*
X113989312Y-60545291D01*
X113916697Y-60901774D01*
X113855364Y-61310321D01*
X113801176Y-61775029D01*
X113750000Y-62300000D01*
G37*
X113750000Y-62300000D02*
X113697987Y-61775029D01*
X113643072Y-61310321D01*
X113581119Y-60901774D01*
X113507993Y-60545291D01*
X113465948Y-60385292D01*
X113419558Y-60236771D01*
X113368307Y-60099215D01*
X113311678Y-59972114D01*
X113249153Y-59854952D01*
X113180217Y-59747220D01*
X113104351Y-59648403D01*
X113021040Y-59557990D01*
X112929765Y-59475468D01*
X112830010Y-59400324D01*
X112721258Y-59332046D01*
X112602992Y-59270122D01*
X112474696Y-59214039D01*
X112335851Y-59163285D01*
X112185941Y-59117347D01*
X112024449Y-59075712D01*
X111664653Y-59003305D01*
X111252325Y-58941962D01*
X110783329Y-58887585D01*
X110253531Y-58836074D01*
X110783329Y-58785248D01*
X111252325Y-58731350D01*
X111664653Y-58670298D01*
X112024449Y-58598011D01*
X112185941Y-58556378D01*
X112335851Y-58510405D01*
X112474696Y-58459582D01*
X112602992Y-58403398D01*
X112721258Y-58341344D01*
X112830010Y-58272908D01*
X112929765Y-58197582D01*
X113021040Y-58114853D01*
X113104351Y-58024213D01*
X113180217Y-57925150D01*
X113249153Y-57817155D01*
X113311678Y-57699717D01*
X113368307Y-57572327D01*
X113419558Y-57434472D01*
X113465948Y-57285644D01*
X113507993Y-57125332D01*
X113581119Y-56768216D01*
X113643072Y-56359039D01*
X113697987Y-55893722D01*
X113750000Y-55368180D01*
X113801176Y-55893765D01*
X113855364Y-56359114D01*
X113916697Y-56768313D01*
X113989312Y-57125443D01*
X114031141Y-57285758D01*
X114077340Y-57434588D01*
X114128427Y-57572443D01*
X114184918Y-57699832D01*
X114247329Y-57817268D01*
X114316178Y-57925259D01*
X114391981Y-58024317D01*
X114475256Y-58114951D01*
X114566518Y-58197673D01*
X114666285Y-58272993D01*
X114775074Y-58341421D01*
X114893400Y-58403467D01*
X115021782Y-58459643D01*
X115160736Y-58510458D01*
X115310778Y-58556422D01*
X115472425Y-58598048D01*
X115832603Y-58670321D01*
X116245404Y-58731361D01*
X116714962Y-58785250D01*
X117245411Y-58836074D01*
X116714962Y-58887585D01*
X116245404Y-58941962D01*
X115832603Y-59003305D01*
X115472425Y-59075712D01*
X115310778Y-59117347D01*
X115160736Y-59163285D01*
X115021782Y-59214039D01*
X114893400Y-59270122D01*
X114775074Y-59332046D01*
X114666285Y-59400324D01*
X114566518Y-59475468D01*
X114475256Y-59557990D01*
X114391981Y-59648403D01*
X114316178Y-59747220D01*
X114247329Y-59854952D01*
X114184918Y-59972114D01*
X114128427Y-60099215D01*
X114077340Y-60236771D01*
X114031141Y-60385292D01*
X113989312Y-60545291D01*
X113916697Y-60901774D01*
X113855364Y-61310321D01*
X113801176Y-61775029D01*
X113750000Y-62300000D01*
G36*
X124620142Y-63458609D02*
G01*
X124654021Y-63799723D01*
X124689782Y-64101642D01*
X124730115Y-64367041D01*
X124777709Y-64598596D01*
X124805070Y-64702518D01*
X124835253Y-64798983D01*
X124868597Y-64888324D01*
X124905436Y-64970876D01*
X124946107Y-65046974D01*
X124990946Y-65116951D01*
X125040290Y-65181143D01*
X125094474Y-65239884D01*
X125153834Y-65293509D01*
X125218707Y-65342350D01*
X125289428Y-65386744D01*
X125366334Y-65427025D01*
X125449761Y-65463526D01*
X125540045Y-65496583D01*
X125637523Y-65526530D01*
X125742529Y-65553701D01*
X125976475Y-65601053D01*
X126244571Y-65641315D01*
X126549507Y-65677163D01*
X126893971Y-65711272D01*
X126549550Y-65744537D01*
X126244647Y-65779635D01*
X125976573Y-65819238D01*
X125742641Y-65866016D01*
X125637638Y-65892931D01*
X125540163Y-65922640D01*
X125449879Y-65955479D01*
X125366451Y-65991781D01*
X125289542Y-66031880D01*
X125218817Y-66076109D01*
X125153939Y-66124803D01*
X125094573Y-66178295D01*
X125040383Y-66236920D01*
X124991032Y-66301011D01*
X124946185Y-66370901D01*
X124905506Y-66446926D01*
X124868658Y-66529418D01*
X124835307Y-66618711D01*
X124805115Y-66715140D01*
X124777747Y-66819038D01*
X124730138Y-67050577D01*
X124689793Y-67315998D01*
X124654024Y-67617974D01*
X124620142Y-67959173D01*
X124586537Y-67617974D01*
X124551003Y-67315998D01*
X124510855Y-67050577D01*
X124463409Y-66819038D01*
X124436110Y-66715140D01*
X124405979Y-66618711D01*
X124372680Y-66529418D01*
X124335879Y-66446926D01*
X124295240Y-66370901D01*
X124250426Y-66301011D01*
X124201103Y-66236920D01*
X124146934Y-66178296D01*
X124087584Y-66124803D01*
X124022717Y-66076109D01*
X123951998Y-66031880D01*
X123875091Y-65991781D01*
X123791661Y-65955479D01*
X123701371Y-65922641D01*
X123603886Y-65892931D01*
X123498871Y-65866017D01*
X123264906Y-65819239D01*
X122996791Y-65779636D01*
X122691842Y-65744537D01*
X122347372Y-65711272D01*
X122691842Y-65677163D01*
X122996791Y-65641315D01*
X123264906Y-65601053D01*
X123498871Y-65553701D01*
X123603886Y-65526530D01*
X123701371Y-65496583D01*
X123791661Y-65463526D01*
X123875091Y-65427025D01*
X123951998Y-65386744D01*
X124022717Y-65342350D01*
X124087584Y-65293508D01*
X124146934Y-65239884D01*
X124201103Y-65181143D01*
X124250426Y-65116951D01*
X124295240Y-65046973D01*
X124335879Y-64970875D01*
X124372680Y-64888323D01*
X124405979Y-64798982D01*
X124436110Y-64702518D01*
X124463409Y-64598596D01*
X124510855Y-64367041D01*
X124551003Y-64101642D01*
X124586537Y-63799723D01*
X124620142Y-63458609D01*
G37*
X124620142Y-63458609D02*
X124654021Y-63799723D01*
X124689782Y-64101642D01*
X124730115Y-64367041D01*
X124777709Y-64598596D01*
X124805070Y-64702518D01*
X124835253Y-64798983D01*
X124868597Y-64888324D01*
X124905436Y-64970876D01*
X124946107Y-65046974D01*
X124990946Y-65116951D01*
X125040290Y-65181143D01*
X125094474Y-65239884D01*
X125153834Y-65293509D01*
X125218707Y-65342350D01*
X125289428Y-65386744D01*
X125366334Y-65427025D01*
X125449761Y-65463526D01*
X125540045Y-65496583D01*
X125637523Y-65526530D01*
X125742529Y-65553701D01*
X125976475Y-65601053D01*
X126244571Y-65641315D01*
X126549507Y-65677163D01*
X126893971Y-65711272D01*
X126549550Y-65744537D01*
X126244647Y-65779635D01*
X125976573Y-65819238D01*
X125742641Y-65866016D01*
X125637638Y-65892931D01*
X125540163Y-65922640D01*
X125449879Y-65955479D01*
X125366451Y-65991781D01*
X125289542Y-66031880D01*
X125218817Y-66076109D01*
X125153939Y-66124803D01*
X125094573Y-66178295D01*
X125040383Y-66236920D01*
X124991032Y-66301011D01*
X124946185Y-66370901D01*
X124905506Y-66446926D01*
X124868658Y-66529418D01*
X124835307Y-66618711D01*
X124805115Y-66715140D01*
X124777747Y-66819038D01*
X124730138Y-67050577D01*
X124689793Y-67315998D01*
X124654024Y-67617974D01*
X124620142Y-67959173D01*
X124586537Y-67617974D01*
X124551003Y-67315998D01*
X124510855Y-67050577D01*
X124463409Y-66819038D01*
X124436110Y-66715140D01*
X124405979Y-66618711D01*
X124372680Y-66529418D01*
X124335879Y-66446926D01*
X124295240Y-66370901D01*
X124250426Y-66301011D01*
X124201103Y-66236920D01*
X124146934Y-66178296D01*
X124087584Y-66124803D01*
X124022717Y-66076109D01*
X123951998Y-66031880D01*
X123875091Y-65991781D01*
X123791661Y-65955479D01*
X123701371Y-65922641D01*
X123603886Y-65892931D01*
X123498871Y-65866017D01*
X123264906Y-65819239D01*
X122996791Y-65779636D01*
X122691842Y-65744537D01*
X122347372Y-65711272D01*
X122691842Y-65677163D01*
X122996791Y-65641315D01*
X123264906Y-65601053D01*
X123498871Y-65553701D01*
X123603886Y-65526530D01*
X123701371Y-65496583D01*
X123791661Y-65463526D01*
X123875091Y-65427025D01*
X123951998Y-65386744D01*
X124022717Y-65342350D01*
X124087584Y-65293508D01*
X124146934Y-65239884D01*
X124201103Y-65181143D01*
X124250426Y-65116951D01*
X124295240Y-65046973D01*
X124335879Y-64970875D01*
X124372680Y-64888323D01*
X124405979Y-64798982D01*
X124436110Y-64702518D01*
X124463409Y-64598596D01*
X124510855Y-64367041D01*
X124551003Y-64101642D01*
X124586537Y-63799723D01*
X124620142Y-63458609D01*
G36*
X126169012Y-70191990D02*
G01*
X124777953Y-70326826D01*
X123546611Y-70469142D01*
X122464121Y-70629715D01*
X121519618Y-70819325D01*
X121095716Y-70928387D01*
X120702237Y-71048750D01*
X120337823Y-71181761D01*
X120001114Y-71328767D01*
X119690754Y-71491116D01*
X119405384Y-71670156D01*
X119143646Y-71867233D01*
X118904182Y-72083695D01*
X118685634Y-72320889D01*
X118486643Y-72580162D01*
X118305852Y-72862862D01*
X118141903Y-73170335D01*
X117993437Y-73503931D01*
X117859096Y-73864994D01*
X117737522Y-74254874D01*
X117627357Y-74674917D01*
X117435822Y-75610881D01*
X117273626Y-76683665D01*
X117129904Y-77904048D01*
X116993792Y-79282809D01*
X116857486Y-77904046D01*
X116713579Y-76683654D01*
X116551199Y-75610858D01*
X116359478Y-74674879D01*
X116249218Y-74254829D01*
X116127546Y-73864941D01*
X115993104Y-73503869D01*
X115844532Y-73170266D01*
X115680473Y-72862784D01*
X115499567Y-72580076D01*
X115300456Y-72320796D01*
X115081781Y-72083596D01*
X114842183Y-71867128D01*
X114580304Y-71670046D01*
X114294784Y-71491003D01*
X113984266Y-71328651D01*
X113647389Y-71181643D01*
X113282797Y-71048633D01*
X112889129Y-70928272D01*
X112465027Y-70819214D01*
X111520087Y-70629617D01*
X110437107Y-70469066D01*
X109205216Y-70326783D01*
X107813545Y-70191990D01*
X109205216Y-70057717D01*
X110437106Y-69915727D01*
X111520087Y-69755274D01*
X112465027Y-69565614D01*
X112889128Y-69456474D01*
X113282796Y-69336003D01*
X113647389Y-69202859D01*
X113984265Y-69055697D01*
X114294784Y-68893176D01*
X114580303Y-68713951D01*
X114842182Y-68516681D01*
X115081780Y-68300021D01*
X115300455Y-68062630D01*
X115499567Y-67803163D01*
X115680472Y-67520278D01*
X115844532Y-67212632D01*
X115993103Y-66878882D01*
X116127545Y-66517685D01*
X116249218Y-66127697D01*
X116359478Y-65707576D01*
X116551199Y-64771561D01*
X116713578Y-63698897D01*
X116857486Y-62478839D01*
X116993792Y-61100642D01*
X117129904Y-62478839D01*
X117273626Y-63698897D01*
X117435822Y-64771561D01*
X117627357Y-65707576D01*
X117737522Y-66127697D01*
X117859096Y-66517685D01*
X117993437Y-66878882D01*
X118141903Y-67212632D01*
X118305852Y-67520278D01*
X118486643Y-67803163D01*
X118685634Y-68062630D01*
X118904182Y-68300021D01*
X119143646Y-68516681D01*
X119405384Y-68713951D01*
X119690754Y-68893176D01*
X120001114Y-69055697D01*
X120337823Y-69202859D01*
X120702237Y-69336003D01*
X121095716Y-69456474D01*
X121519618Y-69565614D01*
X122464121Y-69755274D01*
X123546611Y-69915727D01*
X124777953Y-70057717D01*
X126169012Y-70191990D01*
G37*
X126169012Y-70191990D02*
X124777953Y-70326826D01*
X123546611Y-70469142D01*
X122464121Y-70629715D01*
X121519618Y-70819325D01*
X121095716Y-70928387D01*
X120702237Y-71048750D01*
X120337823Y-71181761D01*
X120001114Y-71328767D01*
X119690754Y-71491116D01*
X119405384Y-71670156D01*
X119143646Y-71867233D01*
X118904182Y-72083695D01*
X118685634Y-72320889D01*
X118486643Y-72580162D01*
X118305852Y-72862862D01*
X118141903Y-73170335D01*
X117993437Y-73503931D01*
X117859096Y-73864994D01*
X117737522Y-74254874D01*
X117627357Y-74674917D01*
X117435822Y-75610881D01*
X117273626Y-76683665D01*
X117129904Y-77904048D01*
X116993792Y-79282809D01*
X116857486Y-77904046D01*
X116713579Y-76683654D01*
X116551199Y-75610858D01*
X116359478Y-74674879D01*
X116249218Y-74254829D01*
X116127546Y-73864941D01*
X115993104Y-73503869D01*
X115844532Y-73170266D01*
X115680473Y-72862784D01*
X115499567Y-72580076D01*
X115300456Y-72320796D01*
X115081781Y-72083596D01*
X114842183Y-71867128D01*
X114580304Y-71670046D01*
X114294784Y-71491003D01*
X113984266Y-71328651D01*
X113647389Y-71181643D01*
X113282797Y-71048633D01*
X112889129Y-70928272D01*
X112465027Y-70819214D01*
X111520087Y-70629617D01*
X110437107Y-70469066D01*
X109205216Y-70326783D01*
X107813545Y-70191990D01*
X109205216Y-70057717D01*
X110437106Y-69915727D01*
X111520087Y-69755274D01*
X112465027Y-69565614D01*
X112889128Y-69456474D01*
X113282796Y-69336003D01*
X113647389Y-69202859D01*
X113984265Y-69055697D01*
X114294784Y-68893176D01*
X114580303Y-68713951D01*
X114842182Y-68516681D01*
X115081780Y-68300021D01*
X115300455Y-68062630D01*
X115499567Y-67803163D01*
X115680472Y-67520278D01*
X115844532Y-67212632D01*
X115993103Y-66878882D01*
X116127545Y-66517685D01*
X116249218Y-66127697D01*
X116359478Y-65707576D01*
X116551199Y-64771561D01*
X116713578Y-63698897D01*
X116857486Y-62478839D01*
X116993792Y-61100642D01*
X117129904Y-62478839D01*
X117273626Y-63698897D01*
X117435822Y-64771561D01*
X117627357Y-65707576D01*
X117737522Y-66127697D01*
X117859096Y-66517685D01*
X117993437Y-66878882D01*
X118141903Y-67212632D01*
X118305852Y-67520278D01*
X118486643Y-67803163D01*
X118685634Y-68062630D01*
X118904182Y-68300021D01*
X119143646Y-68516681D01*
X119405384Y-68713951D01*
X119690754Y-68893176D01*
X120001114Y-69055697D01*
X120337823Y-69202859D01*
X120702237Y-69336003D01*
X121095716Y-69456474D01*
X121519618Y-69565614D01*
X122464121Y-69755274D01*
X123546611Y-69915727D01*
X124777953Y-70057717D01*
X126169012Y-70191990D01*
M02*
