%TF.GenerationSoftware,KiCad,Pcbnew,(5.1.6-0-10_14)*%
%TF.CreationDate,2020-08-05T09:35:40-10:00*%
%TF.ProjectId,flight-computer-2,666c6967-6874-42d6-936f-6d7075746572,rev?*%
%TF.SameCoordinates,Original*%
%TF.FileFunction,Paste,Top*%
%TF.FilePolarity,Positive*%
%FSLAX46Y46*%
G04 Gerber Fmt 4.6, Leading zero omitted, Abs format (unit mm)*
G04 Created by KiCad (PCBNEW (5.1.6-0-10_14)) date 2020-08-05 09:35:40*
%MOMM*%
%LPD*%
G01*
G04 APERTURE LIST*
%ADD10R,0.600000X1.150000*%
%ADD11R,0.300000X1.150000*%
%ADD12R,0.650000X1.060000*%
%ADD13R,3.800000X2.000000*%
%ADD14R,1.500000X2.000000*%
%ADD15R,0.675000X0.254000*%
%ADD16R,0.254000X0.675000*%
%ADD17R,1.080000X1.080000*%
%ADD18R,0.700000X0.250000*%
%ADD19R,0.250000X0.700000*%
%ADD20R,2.040000X1.540000*%
%ADD21R,1.100000X1.100000*%
%ADD22R,1.000000X0.800000*%
%ADD23R,0.400000X0.650000*%
%ADD24R,0.550000X0.950000*%
%ADD25R,1.100000X1.900000*%
%ADD26R,1.050000X0.650000*%
G04 APERTURE END LIST*
G36*
G01*
X133506250Y-65900000D02*
X132993750Y-65900000D01*
G75*
G02*
X132775000Y-65681250I0J218750D01*
G01*
X132775000Y-65243750D01*
G75*
G02*
X132993750Y-65025000I218750J0D01*
G01*
X133506250Y-65025000D01*
G75*
G02*
X133725000Y-65243750I0J-218750D01*
G01*
X133725000Y-65681250D01*
G75*
G02*
X133506250Y-65900000I-218750J0D01*
G01*
G37*
G36*
G01*
X133506250Y-67475000D02*
X132993750Y-67475000D01*
G75*
G02*
X132775000Y-67256250I0J218750D01*
G01*
X132775000Y-66818750D01*
G75*
G02*
X132993750Y-66600000I218750J0D01*
G01*
X133506250Y-66600000D01*
G75*
G02*
X133725000Y-66818750I0J-218750D01*
G01*
X133725000Y-67256250D01*
G75*
G02*
X133506250Y-67475000I-218750J0D01*
G01*
G37*
D10*
X114300000Y-83045000D03*
X120700000Y-83045000D03*
X115100000Y-83045000D03*
X119900000Y-83045000D03*
D11*
X117750000Y-83045000D03*
X117250000Y-83045000D03*
X118250000Y-83045000D03*
X118750000Y-83045000D03*
X119250000Y-83045000D03*
X116750000Y-83045000D03*
X116250000Y-83045000D03*
X115750000Y-83045000D03*
D12*
X117500000Y-78300000D03*
X116550000Y-78300000D03*
X118450000Y-78300000D03*
X118450000Y-80500000D03*
X117500000Y-80500000D03*
X116550000Y-80500000D03*
G36*
G01*
X104100000Y-54006250D02*
X104100000Y-53493750D01*
G75*
G02*
X104318750Y-53275000I218750J0D01*
G01*
X104756250Y-53275000D01*
G75*
G02*
X104975000Y-53493750I0J-218750D01*
G01*
X104975000Y-54006250D01*
G75*
G02*
X104756250Y-54225000I-218750J0D01*
G01*
X104318750Y-54225000D01*
G75*
G02*
X104100000Y-54006250I0J218750D01*
G01*
G37*
G36*
G01*
X102525000Y-54006250D02*
X102525000Y-53493750D01*
G75*
G02*
X102743750Y-53275000I218750J0D01*
G01*
X103181250Y-53275000D01*
G75*
G02*
X103400000Y-53493750I0J-218750D01*
G01*
X103400000Y-54006250D01*
G75*
G02*
X103181250Y-54225000I-218750J0D01*
G01*
X102743750Y-54225000D01*
G75*
G02*
X102525000Y-54006250I0J218750D01*
G01*
G37*
D13*
X106000000Y-72850000D03*
D14*
X106000000Y-79150000D03*
X108300000Y-79150000D03*
X103700000Y-79150000D03*
G36*
G01*
X111243750Y-47350000D02*
X111756250Y-47350000D01*
G75*
G02*
X111975000Y-47568750I0J-218750D01*
G01*
X111975000Y-48006250D01*
G75*
G02*
X111756250Y-48225000I-218750J0D01*
G01*
X111243750Y-48225000D01*
G75*
G02*
X111025000Y-48006250I0J218750D01*
G01*
X111025000Y-47568750D01*
G75*
G02*
X111243750Y-47350000I218750J0D01*
G01*
G37*
G36*
G01*
X111243750Y-45775000D02*
X111756250Y-45775000D01*
G75*
G02*
X111975000Y-45993750I0J-218750D01*
G01*
X111975000Y-46431250D01*
G75*
G02*
X111756250Y-46650000I-218750J0D01*
G01*
X111243750Y-46650000D01*
G75*
G02*
X111025000Y-46431250I0J218750D01*
G01*
X111025000Y-45993750D01*
G75*
G02*
X111243750Y-45775000I218750J0D01*
G01*
G37*
D15*
X128862500Y-60500000D03*
D16*
X133500000Y-58087500D03*
D15*
X133637500Y-60500000D03*
D16*
X133500000Y-61412500D03*
D15*
X133637500Y-60000000D03*
X133637500Y-59500000D03*
X133637500Y-59000000D03*
D16*
X133000000Y-61412500D03*
X132500000Y-61412500D03*
X132000000Y-61412500D03*
X131500000Y-61412500D03*
X131000000Y-61412500D03*
X130500000Y-61412500D03*
X130000000Y-61412500D03*
X129500000Y-61412500D03*
X129000000Y-61412500D03*
X133000000Y-58087500D03*
X132500000Y-58087500D03*
X132000000Y-58087500D03*
X131500000Y-58087500D03*
X131000000Y-58087500D03*
X130500000Y-58087500D03*
X130000000Y-58087500D03*
X129500000Y-58087500D03*
X129000000Y-58087500D03*
D15*
X128862500Y-60000000D03*
X128862500Y-59500000D03*
X128862500Y-59000000D03*
D17*
X119300000Y-53950000D03*
X115700000Y-55750000D03*
X115700000Y-57550000D03*
X115700000Y-53950000D03*
X117500000Y-57550000D03*
X117500000Y-55750000D03*
X117500000Y-53950000D03*
X119300000Y-57550000D03*
X119300000Y-55750000D03*
D18*
X120900000Y-53000000D03*
X120900000Y-53500000D03*
X120900000Y-54000000D03*
X120900000Y-54500000D03*
X120900000Y-55000000D03*
X120900000Y-55500000D03*
X120900000Y-56000000D03*
X120900000Y-56500000D03*
X120900000Y-57000000D03*
X120900000Y-57500000D03*
X120900000Y-58000000D03*
X120900000Y-58500000D03*
D19*
X120250000Y-59150000D03*
X119750000Y-59150000D03*
X119250000Y-59150000D03*
X118750000Y-59150000D03*
X118250000Y-59150000D03*
X117750000Y-59150000D03*
X117250000Y-59150000D03*
X116750000Y-59150000D03*
X116250000Y-59150000D03*
X115750000Y-59150000D03*
X115250000Y-59150000D03*
X114750000Y-59150000D03*
D18*
X114100000Y-58500000D03*
X114100000Y-58000000D03*
X114100000Y-57500000D03*
X114100000Y-57000000D03*
X114100000Y-56500000D03*
X114100000Y-56000000D03*
X114100000Y-55500000D03*
X114100000Y-55000000D03*
X114100000Y-54500000D03*
X114100000Y-54000000D03*
X114100000Y-53500000D03*
X114100000Y-53000000D03*
D19*
X114750000Y-52350000D03*
X115250000Y-52350000D03*
X115750000Y-52350000D03*
X116250000Y-52350000D03*
X116750000Y-52350000D03*
X117250000Y-52350000D03*
X117750000Y-52350000D03*
X118250000Y-52350000D03*
X118750000Y-52350000D03*
X119250000Y-52350000D03*
X119750000Y-52350000D03*
X120250000Y-52350000D03*
D20*
X122535000Y-46285000D03*
X124965000Y-46285000D03*
X124965000Y-48215000D03*
X122535000Y-48215000D03*
D21*
X109750000Y-82850000D03*
X109750000Y-85650000D03*
X110600000Y-79250000D03*
X113400000Y-79250000D03*
D22*
X105000000Y-45950000D03*
X106500000Y-45950000D03*
X106500000Y-47050000D03*
X105000000Y-47050000D03*
D23*
X128150000Y-79550000D03*
X126850000Y-79550000D03*
X127500000Y-81450000D03*
X127500000Y-79550000D03*
X126850000Y-81450000D03*
X128150000Y-81450000D03*
G36*
G01*
X117977297Y-69575180D02*
X117659099Y-69893378D01*
G75*
G02*
X117340901Y-69893378I-159099J159099D01*
G01*
X117022703Y-69575180D01*
G75*
G02*
X117022703Y-69256982I159099J159099D01*
G01*
X117340901Y-68938784D01*
G75*
G02*
X117659099Y-68938784I159099J-159099D01*
G01*
X117977297Y-69256982D01*
G75*
G02*
X117977297Y-69575180I-159099J-159099D01*
G01*
G37*
G36*
G01*
X117185337Y-70367139D02*
X116867139Y-70685337D01*
G75*
G02*
X116548941Y-70685337I-159099J159099D01*
G01*
X116230743Y-70367139D01*
G75*
G02*
X116230743Y-70048941I159099J159099D01*
G01*
X116548941Y-69730743D01*
G75*
G02*
X116867139Y-69730743I159099J-159099D01*
G01*
X117185337Y-70048941D01*
G75*
G02*
X117185337Y-70367139I-159099J-159099D01*
G01*
G37*
G36*
G01*
X116393378Y-71159099D02*
X116075180Y-71477297D01*
G75*
G02*
X115756982Y-71477297I-159099J159099D01*
G01*
X115438784Y-71159099D01*
G75*
G02*
X115438784Y-70840901I159099J159099D01*
G01*
X115756982Y-70522703D01*
G75*
G02*
X116075180Y-70522703I159099J-159099D01*
G01*
X116393378Y-70840901D01*
G75*
G02*
X116393378Y-71159099I-159099J-159099D01*
G01*
G37*
G36*
G01*
X118769257Y-70367139D02*
X118451059Y-70685337D01*
G75*
G02*
X118132861Y-70685337I-159099J159099D01*
G01*
X117814663Y-70367139D01*
G75*
G02*
X117814663Y-70048941I159099J159099D01*
G01*
X118132861Y-69730743D01*
G75*
G02*
X118451059Y-69730743I159099J-159099D01*
G01*
X118769257Y-70048941D01*
G75*
G02*
X118769257Y-70367139I-159099J-159099D01*
G01*
G37*
G36*
G01*
X117977297Y-71159099D02*
X117659099Y-71477297D01*
G75*
G02*
X117340901Y-71477297I-159099J159099D01*
G01*
X117022703Y-71159099D01*
G75*
G02*
X117022703Y-70840901I159099J159099D01*
G01*
X117340901Y-70522703D01*
G75*
G02*
X117659099Y-70522703I159099J-159099D01*
G01*
X117977297Y-70840901D01*
G75*
G02*
X117977297Y-71159099I-159099J-159099D01*
G01*
G37*
G36*
G01*
X117185337Y-71951059D02*
X116867139Y-72269257D01*
G75*
G02*
X116548941Y-72269257I-159099J159099D01*
G01*
X116230743Y-71951059D01*
G75*
G02*
X116230743Y-71632861I159099J159099D01*
G01*
X116548941Y-71314663D01*
G75*
G02*
X116867139Y-71314663I159099J-159099D01*
G01*
X117185337Y-71632861D01*
G75*
G02*
X117185337Y-71951059I-159099J-159099D01*
G01*
G37*
G36*
G01*
X119561216Y-71159099D02*
X119243018Y-71477297D01*
G75*
G02*
X118924820Y-71477297I-159099J159099D01*
G01*
X118606622Y-71159099D01*
G75*
G02*
X118606622Y-70840901I159099J159099D01*
G01*
X118924820Y-70522703D01*
G75*
G02*
X119243018Y-70522703I159099J-159099D01*
G01*
X119561216Y-70840901D01*
G75*
G02*
X119561216Y-71159099I-159099J-159099D01*
G01*
G37*
G36*
G01*
X118769257Y-71951059D02*
X118451059Y-72269257D01*
G75*
G02*
X118132861Y-72269257I-159099J159099D01*
G01*
X117814663Y-71951059D01*
G75*
G02*
X117814663Y-71632861I159099J159099D01*
G01*
X118132861Y-71314663D01*
G75*
G02*
X118451059Y-71314663I159099J-159099D01*
G01*
X118769257Y-71632861D01*
G75*
G02*
X118769257Y-71951059I-159099J-159099D01*
G01*
G37*
G36*
G01*
X117977297Y-72743018D02*
X117659099Y-73061216D01*
G75*
G02*
X117340901Y-73061216I-159099J159099D01*
G01*
X117022703Y-72743018D01*
G75*
G02*
X117022703Y-72424820I159099J159099D01*
G01*
X117340901Y-72106622D01*
G75*
G02*
X117659099Y-72106622I159099J-159099D01*
G01*
X117977297Y-72424820D01*
G75*
G02*
X117977297Y-72743018I-159099J-159099D01*
G01*
G37*
G36*
G01*
X117155286Y-73642812D02*
X116677989Y-74120109D01*
G75*
G02*
X116589601Y-74120109I-44194J44194D01*
G01*
X116501212Y-74031720D01*
G75*
G02*
X116501212Y-73943332I44194J44194D01*
G01*
X116978509Y-73466035D01*
G75*
G02*
X117066897Y-73466035I44194J-44194D01*
G01*
X117155286Y-73554424D01*
G75*
G02*
X117155286Y-73642812I-44194J-44194D01*
G01*
G37*
G36*
G01*
X116801732Y-73289258D02*
X116324435Y-73766555D01*
G75*
G02*
X116236047Y-73766555I-44194J44194D01*
G01*
X116147658Y-73678166D01*
G75*
G02*
X116147658Y-73589778I44194J44194D01*
G01*
X116624955Y-73112481D01*
G75*
G02*
X116713343Y-73112481I44194J-44194D01*
G01*
X116801732Y-73200870D01*
G75*
G02*
X116801732Y-73289258I-44194J-44194D01*
G01*
G37*
G36*
G01*
X116448179Y-72935705D02*
X115970882Y-73413002D01*
G75*
G02*
X115882494Y-73413002I-44194J44194D01*
G01*
X115794105Y-73324613D01*
G75*
G02*
X115794105Y-73236225I44194J44194D01*
G01*
X116271402Y-72758928D01*
G75*
G02*
X116359790Y-72758928I44194J-44194D01*
G01*
X116448179Y-72847317D01*
G75*
G02*
X116448179Y-72935705I-44194J-44194D01*
G01*
G37*
G36*
G01*
X116094625Y-72582152D02*
X115617328Y-73059449D01*
G75*
G02*
X115528940Y-73059449I-44194J44194D01*
G01*
X115440551Y-72971060D01*
G75*
G02*
X115440551Y-72882672I44194J44194D01*
G01*
X115917848Y-72405375D01*
G75*
G02*
X116006236Y-72405375I44194J-44194D01*
G01*
X116094625Y-72493764D01*
G75*
G02*
X116094625Y-72582152I-44194J-44194D01*
G01*
G37*
G36*
G01*
X115741072Y-72228598D02*
X115263775Y-72705895D01*
G75*
G02*
X115175387Y-72705895I-44194J44194D01*
G01*
X115086998Y-72617506D01*
G75*
G02*
X115086998Y-72529118I44194J44194D01*
G01*
X115564295Y-72051821D01*
G75*
G02*
X115652683Y-72051821I44194J-44194D01*
G01*
X115741072Y-72140210D01*
G75*
G02*
X115741072Y-72228598I-44194J-44194D01*
G01*
G37*
G36*
G01*
X115387519Y-71875045D02*
X114910222Y-72352342D01*
G75*
G02*
X114821834Y-72352342I-44194J44194D01*
G01*
X114733445Y-72263953D01*
G75*
G02*
X114733445Y-72175565I44194J44194D01*
G01*
X115210742Y-71698268D01*
G75*
G02*
X115299130Y-71698268I44194J-44194D01*
G01*
X115387519Y-71786657D01*
G75*
G02*
X115387519Y-71875045I-44194J-44194D01*
G01*
G37*
G36*
G01*
X115033965Y-71521491D02*
X114556668Y-71998788D01*
G75*
G02*
X114468280Y-71998788I-44194J44194D01*
G01*
X114379891Y-71910399D01*
G75*
G02*
X114379891Y-71822011I44194J44194D01*
G01*
X114857188Y-71344714D01*
G75*
G02*
X114945576Y-71344714I44194J-44194D01*
G01*
X115033965Y-71433103D01*
G75*
G02*
X115033965Y-71521491I-44194J-44194D01*
G01*
G37*
G36*
G01*
X115033965Y-70566898D02*
X114945576Y-70655286D01*
G75*
G02*
X114857188Y-70655286I-44194J44194D01*
G01*
X114379891Y-70177989D01*
G75*
G02*
X114379891Y-70089601I44194J44194D01*
G01*
X114468280Y-70001212D01*
G75*
G02*
X114556668Y-70001212I44194J-44194D01*
G01*
X115033965Y-70478509D01*
G75*
G02*
X115033965Y-70566897I-44194J-44194D01*
G01*
G37*
G36*
G01*
X115387519Y-70213344D02*
X115299130Y-70301732D01*
G75*
G02*
X115210742Y-70301732I-44194J44194D01*
G01*
X114733445Y-69824435D01*
G75*
G02*
X114733445Y-69736047I44194J44194D01*
G01*
X114821834Y-69647658D01*
G75*
G02*
X114910222Y-69647658I44194J-44194D01*
G01*
X115387519Y-70124955D01*
G75*
G02*
X115387519Y-70213343I-44194J-44194D01*
G01*
G37*
G36*
G01*
X115741072Y-69859791D02*
X115652683Y-69948179D01*
G75*
G02*
X115564295Y-69948179I-44194J44194D01*
G01*
X115086998Y-69470882D01*
G75*
G02*
X115086998Y-69382494I44194J44194D01*
G01*
X115175387Y-69294105D01*
G75*
G02*
X115263775Y-69294105I44194J-44194D01*
G01*
X115741072Y-69771402D01*
G75*
G02*
X115741072Y-69859790I-44194J-44194D01*
G01*
G37*
G36*
G01*
X116094625Y-69506237D02*
X116006236Y-69594625D01*
G75*
G02*
X115917848Y-69594625I-44194J44194D01*
G01*
X115440551Y-69117328D01*
G75*
G02*
X115440551Y-69028940I44194J44194D01*
G01*
X115528940Y-68940551D01*
G75*
G02*
X115617328Y-68940551I44194J-44194D01*
G01*
X116094625Y-69417848D01*
G75*
G02*
X116094625Y-69506236I-44194J-44194D01*
G01*
G37*
G36*
G01*
X116448179Y-69152684D02*
X116359790Y-69241072D01*
G75*
G02*
X116271402Y-69241072I-44194J44194D01*
G01*
X115794105Y-68763775D01*
G75*
G02*
X115794105Y-68675387I44194J44194D01*
G01*
X115882494Y-68586998D01*
G75*
G02*
X115970882Y-68586998I44194J-44194D01*
G01*
X116448179Y-69064295D01*
G75*
G02*
X116448179Y-69152683I-44194J-44194D01*
G01*
G37*
G36*
G01*
X116801732Y-68799131D02*
X116713343Y-68887519D01*
G75*
G02*
X116624955Y-68887519I-44194J44194D01*
G01*
X116147658Y-68410222D01*
G75*
G02*
X116147658Y-68321834I44194J44194D01*
G01*
X116236047Y-68233445D01*
G75*
G02*
X116324435Y-68233445I44194J-44194D01*
G01*
X116801732Y-68710742D01*
G75*
G02*
X116801732Y-68799130I-44194J-44194D01*
G01*
G37*
G36*
G01*
X117155286Y-68445577D02*
X117066897Y-68533965D01*
G75*
G02*
X116978509Y-68533965I-44194J44194D01*
G01*
X116501212Y-68056668D01*
G75*
G02*
X116501212Y-67968280I44194J44194D01*
G01*
X116589601Y-67879891D01*
G75*
G02*
X116677989Y-67879891I44194J-44194D01*
G01*
X117155286Y-68357188D01*
G75*
G02*
X117155286Y-68445576I-44194J-44194D01*
G01*
G37*
G36*
G01*
X118498788Y-68056668D02*
X118021491Y-68533965D01*
G75*
G02*
X117933103Y-68533965I-44194J44194D01*
G01*
X117844714Y-68445576D01*
G75*
G02*
X117844714Y-68357188I44194J44194D01*
G01*
X118322011Y-67879891D01*
G75*
G02*
X118410399Y-67879891I44194J-44194D01*
G01*
X118498788Y-67968280D01*
G75*
G02*
X118498788Y-68056668I-44194J-44194D01*
G01*
G37*
G36*
G01*
X118852342Y-68410222D02*
X118375045Y-68887519D01*
G75*
G02*
X118286657Y-68887519I-44194J44194D01*
G01*
X118198268Y-68799130D01*
G75*
G02*
X118198268Y-68710742I44194J44194D01*
G01*
X118675565Y-68233445D01*
G75*
G02*
X118763953Y-68233445I44194J-44194D01*
G01*
X118852342Y-68321834D01*
G75*
G02*
X118852342Y-68410222I-44194J-44194D01*
G01*
G37*
G36*
G01*
X119205895Y-68763775D02*
X118728598Y-69241072D01*
G75*
G02*
X118640210Y-69241072I-44194J44194D01*
G01*
X118551821Y-69152683D01*
G75*
G02*
X118551821Y-69064295I44194J44194D01*
G01*
X119029118Y-68586998D01*
G75*
G02*
X119117506Y-68586998I44194J-44194D01*
G01*
X119205895Y-68675387D01*
G75*
G02*
X119205895Y-68763775I-44194J-44194D01*
G01*
G37*
G36*
G01*
X119559449Y-69117328D02*
X119082152Y-69594625D01*
G75*
G02*
X118993764Y-69594625I-44194J44194D01*
G01*
X118905375Y-69506236D01*
G75*
G02*
X118905375Y-69417848I44194J44194D01*
G01*
X119382672Y-68940551D01*
G75*
G02*
X119471060Y-68940551I44194J-44194D01*
G01*
X119559449Y-69028940D01*
G75*
G02*
X119559449Y-69117328I-44194J-44194D01*
G01*
G37*
G36*
G01*
X119913002Y-69470882D02*
X119435705Y-69948179D01*
G75*
G02*
X119347317Y-69948179I-44194J44194D01*
G01*
X119258928Y-69859790D01*
G75*
G02*
X119258928Y-69771402I44194J44194D01*
G01*
X119736225Y-69294105D01*
G75*
G02*
X119824613Y-69294105I44194J-44194D01*
G01*
X119913002Y-69382494D01*
G75*
G02*
X119913002Y-69470882I-44194J-44194D01*
G01*
G37*
G36*
G01*
X120266555Y-69824435D02*
X119789258Y-70301732D01*
G75*
G02*
X119700870Y-70301732I-44194J44194D01*
G01*
X119612481Y-70213343D01*
G75*
G02*
X119612481Y-70124955I44194J44194D01*
G01*
X120089778Y-69647658D01*
G75*
G02*
X120178166Y-69647658I44194J-44194D01*
G01*
X120266555Y-69736047D01*
G75*
G02*
X120266555Y-69824435I-44194J-44194D01*
G01*
G37*
G36*
G01*
X120620109Y-70177989D02*
X120142812Y-70655286D01*
G75*
G02*
X120054424Y-70655286I-44194J44194D01*
G01*
X119966035Y-70566897D01*
G75*
G02*
X119966035Y-70478509I44194J44194D01*
G01*
X120443332Y-70001212D01*
G75*
G02*
X120531720Y-70001212I44194J-44194D01*
G01*
X120620109Y-70089601D01*
G75*
G02*
X120620109Y-70177989I-44194J-44194D01*
G01*
G37*
G36*
G01*
X120620109Y-71910400D02*
X120531720Y-71998788D01*
G75*
G02*
X120443332Y-71998788I-44194J44194D01*
G01*
X119966035Y-71521491D01*
G75*
G02*
X119966035Y-71433103I44194J44194D01*
G01*
X120054424Y-71344714D01*
G75*
G02*
X120142812Y-71344714I44194J-44194D01*
G01*
X120620109Y-71822011D01*
G75*
G02*
X120620109Y-71910399I-44194J-44194D01*
G01*
G37*
G36*
G01*
X120266555Y-72263954D02*
X120178166Y-72352342D01*
G75*
G02*
X120089778Y-72352342I-44194J44194D01*
G01*
X119612481Y-71875045D01*
G75*
G02*
X119612481Y-71786657I44194J44194D01*
G01*
X119700870Y-71698268D01*
G75*
G02*
X119789258Y-71698268I44194J-44194D01*
G01*
X120266555Y-72175565D01*
G75*
G02*
X120266555Y-72263953I-44194J-44194D01*
G01*
G37*
G36*
G01*
X119913002Y-72617507D02*
X119824613Y-72705895D01*
G75*
G02*
X119736225Y-72705895I-44194J44194D01*
G01*
X119258928Y-72228598D01*
G75*
G02*
X119258928Y-72140210I44194J44194D01*
G01*
X119347317Y-72051821D01*
G75*
G02*
X119435705Y-72051821I44194J-44194D01*
G01*
X119913002Y-72529118D01*
G75*
G02*
X119913002Y-72617506I-44194J-44194D01*
G01*
G37*
G36*
G01*
X119559449Y-72971061D02*
X119471060Y-73059449D01*
G75*
G02*
X119382672Y-73059449I-44194J44194D01*
G01*
X118905375Y-72582152D01*
G75*
G02*
X118905375Y-72493764I44194J44194D01*
G01*
X118993764Y-72405375D01*
G75*
G02*
X119082152Y-72405375I44194J-44194D01*
G01*
X119559449Y-72882672D01*
G75*
G02*
X119559449Y-72971060I-44194J-44194D01*
G01*
G37*
G36*
G01*
X119205895Y-73324614D02*
X119117506Y-73413002D01*
G75*
G02*
X119029118Y-73413002I-44194J44194D01*
G01*
X118551821Y-72935705D01*
G75*
G02*
X118551821Y-72847317I44194J44194D01*
G01*
X118640210Y-72758928D01*
G75*
G02*
X118728598Y-72758928I44194J-44194D01*
G01*
X119205895Y-73236225D01*
G75*
G02*
X119205895Y-73324613I-44194J-44194D01*
G01*
G37*
G36*
G01*
X118852342Y-73678167D02*
X118763953Y-73766555D01*
G75*
G02*
X118675565Y-73766555I-44194J44194D01*
G01*
X118198268Y-73289258D01*
G75*
G02*
X118198268Y-73200870I44194J44194D01*
G01*
X118286657Y-73112481D01*
G75*
G02*
X118375045Y-73112481I44194J-44194D01*
G01*
X118852342Y-73589778D01*
G75*
G02*
X118852342Y-73678166I-44194J-44194D01*
G01*
G37*
G36*
G01*
X118498788Y-74031721D02*
X118410399Y-74120109D01*
G75*
G02*
X118322011Y-74120109I-44194J44194D01*
G01*
X117844714Y-73642812D01*
G75*
G02*
X117844714Y-73554424I44194J44194D01*
G01*
X117933103Y-73466035D01*
G75*
G02*
X118021491Y-73466035I44194J-44194D01*
G01*
X118498788Y-73943332D01*
G75*
G02*
X118498788Y-74031720I-44194J-44194D01*
G01*
G37*
D24*
X131375000Y-72824999D03*
X127625000Y-72824999D03*
X128875000Y-72824999D03*
X130125000Y-72824999D03*
X127625000Y-70674999D03*
X128875000Y-70674999D03*
X130125000Y-70674999D03*
X131375000Y-70674999D03*
D25*
X130907485Y-63500000D03*
X133407485Y-63500000D03*
G36*
G01*
X110850000Y-81506250D02*
X110850000Y-80993750D01*
G75*
G02*
X111068750Y-80775000I218750J0D01*
G01*
X111506250Y-80775000D01*
G75*
G02*
X111725000Y-80993750I0J-218750D01*
G01*
X111725000Y-81506250D01*
G75*
G02*
X111506250Y-81725000I-218750J0D01*
G01*
X111068750Y-81725000D01*
G75*
G02*
X110850000Y-81506250I0J218750D01*
G01*
G37*
G36*
G01*
X109275000Y-81506250D02*
X109275000Y-80993750D01*
G75*
G02*
X109493750Y-80775000I218750J0D01*
G01*
X109931250Y-80775000D01*
G75*
G02*
X110150000Y-80993750I0J-218750D01*
G01*
X110150000Y-81506250D01*
G75*
G02*
X109931250Y-81725000I-218750J0D01*
G01*
X109493750Y-81725000D01*
G75*
G02*
X109275000Y-81506250I0J218750D01*
G01*
G37*
G36*
G01*
X103150000Y-80993750D02*
X103150000Y-81506250D01*
G75*
G02*
X102931250Y-81725000I-218750J0D01*
G01*
X102493750Y-81725000D01*
G75*
G02*
X102275000Y-81506250I0J218750D01*
G01*
X102275000Y-80993750D01*
G75*
G02*
X102493750Y-80775000I218750J0D01*
G01*
X102931250Y-80775000D01*
G75*
G02*
X103150000Y-80993750I0J-218750D01*
G01*
G37*
G36*
G01*
X104725000Y-80993750D02*
X104725000Y-81506250D01*
G75*
G02*
X104506250Y-81725000I-218750J0D01*
G01*
X104068750Y-81725000D01*
G75*
G02*
X103850000Y-81506250I0J218750D01*
G01*
X103850000Y-80993750D01*
G75*
G02*
X104068750Y-80775000I218750J0D01*
G01*
X104506250Y-80775000D01*
G75*
G02*
X104725000Y-80993750I0J-218750D01*
G01*
G37*
G36*
G01*
X136100000Y-61506250D02*
X136100000Y-60993750D01*
G75*
G02*
X136318750Y-60775000I218750J0D01*
G01*
X136756250Y-60775000D01*
G75*
G02*
X136975000Y-60993750I0J-218750D01*
G01*
X136975000Y-61506250D01*
G75*
G02*
X136756250Y-61725000I-218750J0D01*
G01*
X136318750Y-61725000D01*
G75*
G02*
X136100000Y-61506250I0J218750D01*
G01*
G37*
G36*
G01*
X134525000Y-61506250D02*
X134525000Y-60993750D01*
G75*
G02*
X134743750Y-60775000I218750J0D01*
G01*
X135181250Y-60775000D01*
G75*
G02*
X135400000Y-60993750I0J-218750D01*
G01*
X135400000Y-61506250D01*
G75*
G02*
X135181250Y-61725000I-218750J0D01*
G01*
X134743750Y-61725000D01*
G75*
G02*
X134525000Y-61506250I0J218750D01*
G01*
G37*
G36*
G01*
X136100000Y-63006250D02*
X136100000Y-62493750D01*
G75*
G02*
X136318750Y-62275000I218750J0D01*
G01*
X136756250Y-62275000D01*
G75*
G02*
X136975000Y-62493750I0J-218750D01*
G01*
X136975000Y-63006250D01*
G75*
G02*
X136756250Y-63225000I-218750J0D01*
G01*
X136318750Y-63225000D01*
G75*
G02*
X136100000Y-63006250I0J218750D01*
G01*
G37*
G36*
G01*
X134525000Y-63006250D02*
X134525000Y-62493750D01*
G75*
G02*
X134743750Y-62275000I218750J0D01*
G01*
X135181250Y-62275000D01*
G75*
G02*
X135400000Y-62493750I0J-218750D01*
G01*
X135400000Y-63006250D01*
G75*
G02*
X135181250Y-63225000I-218750J0D01*
G01*
X134743750Y-63225000D01*
G75*
G02*
X134525000Y-63006250I0J218750D01*
G01*
G37*
G36*
G01*
X132756250Y-55400000D02*
X132243750Y-55400000D01*
G75*
G02*
X132025000Y-55181250I0J218750D01*
G01*
X132025000Y-54743750D01*
G75*
G02*
X132243750Y-54525000I218750J0D01*
G01*
X132756250Y-54525000D01*
G75*
G02*
X132975000Y-54743750I0J-218750D01*
G01*
X132975000Y-55181250D01*
G75*
G02*
X132756250Y-55400000I-218750J0D01*
G01*
G37*
G36*
G01*
X132756250Y-56975000D02*
X132243750Y-56975000D01*
G75*
G02*
X132025000Y-56756250I0J218750D01*
G01*
X132025000Y-56318750D01*
G75*
G02*
X132243750Y-56100000I218750J0D01*
G01*
X132756250Y-56100000D01*
G75*
G02*
X132975000Y-56318750I0J-218750D01*
G01*
X132975000Y-56756250D01*
G75*
G02*
X132756250Y-56975000I-218750J0D01*
G01*
G37*
G36*
G01*
X131256250Y-65900000D02*
X130743750Y-65900000D01*
G75*
G02*
X130525000Y-65681250I0J218750D01*
G01*
X130525000Y-65243750D01*
G75*
G02*
X130743750Y-65025000I218750J0D01*
G01*
X131256250Y-65025000D01*
G75*
G02*
X131475000Y-65243750I0J-218750D01*
G01*
X131475000Y-65681250D01*
G75*
G02*
X131256250Y-65900000I-218750J0D01*
G01*
G37*
G36*
G01*
X131256250Y-67475000D02*
X130743750Y-67475000D01*
G75*
G02*
X130525000Y-67256250I0J218750D01*
G01*
X130525000Y-66818750D01*
G75*
G02*
X130743750Y-66600000I218750J0D01*
G01*
X131256250Y-66600000D01*
G75*
G02*
X131475000Y-66818750I0J-218750D01*
G01*
X131475000Y-67256250D01*
G75*
G02*
X131256250Y-67475000I-218750J0D01*
G01*
G37*
G36*
G01*
X121321316Y-72316292D02*
X121683709Y-72678684D01*
G75*
G02*
X121683709Y-72988044I-154680J-154680D01*
G01*
X121374350Y-73297403D01*
G75*
G02*
X121064990Y-73297403I-154680J154680D01*
G01*
X120702597Y-72935010D01*
G75*
G02*
X120702597Y-72625650I154680J154680D01*
G01*
X121011956Y-72316291D01*
G75*
G02*
X121321316Y-72316291I154680J-154680D01*
G01*
G37*
G36*
G01*
X122435010Y-71202598D02*
X122797403Y-71564990D01*
G75*
G02*
X122797403Y-71874350I-154680J-154680D01*
G01*
X122488044Y-72183709D01*
G75*
G02*
X122178684Y-72183709I-154680J154680D01*
G01*
X121816291Y-71821316D01*
G75*
G02*
X121816291Y-71511956I154680J154680D01*
G01*
X122125650Y-71202597D01*
G75*
G02*
X122435010Y-71202597I154680J-154680D01*
G01*
G37*
G36*
G01*
X127743750Y-75398097D02*
X128256250Y-75398097D01*
G75*
G02*
X128475000Y-75616847I0J-218750D01*
G01*
X128475000Y-76054347D01*
G75*
G02*
X128256250Y-76273097I-218750J0D01*
G01*
X127743750Y-76273097D01*
G75*
G02*
X127525000Y-76054347I0J218750D01*
G01*
X127525000Y-75616847D01*
G75*
G02*
X127743750Y-75398097I218750J0D01*
G01*
G37*
G36*
G01*
X127743750Y-73823097D02*
X128256250Y-73823097D01*
G75*
G02*
X128475000Y-74041847I0J-218750D01*
G01*
X128475000Y-74479347D01*
G75*
G02*
X128256250Y-74698097I-218750J0D01*
G01*
X127743750Y-74698097D01*
G75*
G02*
X127525000Y-74479347I0J218750D01*
G01*
X127525000Y-74041847D01*
G75*
G02*
X127743750Y-73823097I218750J0D01*
G01*
G37*
G36*
G01*
X129243750Y-75398097D02*
X129756250Y-75398097D01*
G75*
G02*
X129975000Y-75616847I0J-218750D01*
G01*
X129975000Y-76054347D01*
G75*
G02*
X129756250Y-76273097I-218750J0D01*
G01*
X129243750Y-76273097D01*
G75*
G02*
X129025000Y-76054347I0J218750D01*
G01*
X129025000Y-75616847D01*
G75*
G02*
X129243750Y-75398097I218750J0D01*
G01*
G37*
G36*
G01*
X129243750Y-73823097D02*
X129756250Y-73823097D01*
G75*
G02*
X129975000Y-74041847I0J-218750D01*
G01*
X129975000Y-74479347D01*
G75*
G02*
X129756250Y-74698097I-218750J0D01*
G01*
X129243750Y-74698097D01*
G75*
G02*
X129025000Y-74479347I0J218750D01*
G01*
X129025000Y-74041847D01*
G75*
G02*
X129243750Y-73823097I218750J0D01*
G01*
G37*
G36*
G01*
X130743750Y-75398097D02*
X131256250Y-75398097D01*
G75*
G02*
X131475000Y-75616847I0J-218750D01*
G01*
X131475000Y-76054347D01*
G75*
G02*
X131256250Y-76273097I-218750J0D01*
G01*
X130743750Y-76273097D01*
G75*
G02*
X130525000Y-76054347I0J218750D01*
G01*
X130525000Y-75616847D01*
G75*
G02*
X130743750Y-75398097I218750J0D01*
G01*
G37*
G36*
G01*
X130743750Y-73823097D02*
X131256250Y-73823097D01*
G75*
G02*
X131475000Y-74041847I0J-218750D01*
G01*
X131475000Y-74479347D01*
G75*
G02*
X131256250Y-74698097I-218750J0D01*
G01*
X130743750Y-74698097D01*
G75*
G02*
X130525000Y-74479347I0J218750D01*
G01*
X130525000Y-74041847D01*
G75*
G02*
X130743750Y-73823097I218750J0D01*
G01*
G37*
G36*
G01*
X125743750Y-72746446D02*
X126256250Y-72746446D01*
G75*
G02*
X126475000Y-72965196I0J-218750D01*
G01*
X126475000Y-73402696D01*
G75*
G02*
X126256250Y-73621446I-218750J0D01*
G01*
X125743750Y-73621446D01*
G75*
G02*
X125525000Y-73402696I0J218750D01*
G01*
X125525000Y-72965196D01*
G75*
G02*
X125743750Y-72746446I218750J0D01*
G01*
G37*
G36*
G01*
X125743750Y-71171446D02*
X126256250Y-71171446D01*
G75*
G02*
X126475000Y-71390196I0J-218750D01*
G01*
X126475000Y-71827696D01*
G75*
G02*
X126256250Y-72046446I-218750J0D01*
G01*
X125743750Y-72046446D01*
G75*
G02*
X125525000Y-71827696I0J218750D01*
G01*
X125525000Y-71390196D01*
G75*
G02*
X125743750Y-71171446I218750J0D01*
G01*
G37*
G36*
G01*
X117006250Y-49400000D02*
X116493750Y-49400000D01*
G75*
G02*
X116275000Y-49181250I0J218750D01*
G01*
X116275000Y-48743750D01*
G75*
G02*
X116493750Y-48525000I218750J0D01*
G01*
X117006250Y-48525000D01*
G75*
G02*
X117225000Y-48743750I0J-218750D01*
G01*
X117225000Y-49181250D01*
G75*
G02*
X117006250Y-49400000I-218750J0D01*
G01*
G37*
G36*
G01*
X117006250Y-50975000D02*
X116493750Y-50975000D01*
G75*
G02*
X116275000Y-50756250I0J218750D01*
G01*
X116275000Y-50318750D01*
G75*
G02*
X116493750Y-50100000I218750J0D01*
G01*
X117006250Y-50100000D01*
G75*
G02*
X117225000Y-50318750I0J-218750D01*
G01*
X117225000Y-50756250D01*
G75*
G02*
X117006250Y-50975000I-218750J0D01*
G01*
G37*
G36*
G01*
X118506250Y-49400000D02*
X117993750Y-49400000D01*
G75*
G02*
X117775000Y-49181250I0J218750D01*
G01*
X117775000Y-48743750D01*
G75*
G02*
X117993750Y-48525000I218750J0D01*
G01*
X118506250Y-48525000D01*
G75*
G02*
X118725000Y-48743750I0J-218750D01*
G01*
X118725000Y-49181250D01*
G75*
G02*
X118506250Y-49400000I-218750J0D01*
G01*
G37*
G36*
G01*
X118506250Y-50975000D02*
X117993750Y-50975000D01*
G75*
G02*
X117775000Y-50756250I0J218750D01*
G01*
X117775000Y-50318750D01*
G75*
G02*
X117993750Y-50100000I218750J0D01*
G01*
X118506250Y-50100000D01*
G75*
G02*
X118725000Y-50318750I0J-218750D01*
G01*
X118725000Y-50756250D01*
G75*
G02*
X118506250Y-50975000I-218750J0D01*
G01*
G37*
G36*
G01*
X131256250Y-87850000D02*
X130743750Y-87850000D01*
G75*
G02*
X130525000Y-87631250I0J218750D01*
G01*
X130525000Y-87193750D01*
G75*
G02*
X130743750Y-86975000I218750J0D01*
G01*
X131256250Y-86975000D01*
G75*
G02*
X131475000Y-87193750I0J-218750D01*
G01*
X131475000Y-87631250D01*
G75*
G02*
X131256250Y-87850000I-218750J0D01*
G01*
G37*
G36*
G01*
X131256250Y-89425000D02*
X130743750Y-89425000D01*
G75*
G02*
X130525000Y-89206250I0J218750D01*
G01*
X130525000Y-88768750D01*
G75*
G02*
X130743750Y-88550000I218750J0D01*
G01*
X131256250Y-88550000D01*
G75*
G02*
X131475000Y-88768750I0J-218750D01*
G01*
X131475000Y-89206250D01*
G75*
G02*
X131256250Y-89425000I-218750J0D01*
G01*
G37*
G36*
G01*
X120440000Y-51172500D02*
X120440000Y-50827500D01*
G75*
G02*
X120587500Y-50680000I147500J0D01*
G01*
X120882500Y-50680000D01*
G75*
G02*
X121030000Y-50827500I0J-147500D01*
G01*
X121030000Y-51172500D01*
G75*
G02*
X120882500Y-51320000I-147500J0D01*
G01*
X120587500Y-51320000D01*
G75*
G02*
X120440000Y-51172500I0J147500D01*
G01*
G37*
G36*
G01*
X119470000Y-51172500D02*
X119470000Y-50827500D01*
G75*
G02*
X119617500Y-50680000I147500J0D01*
G01*
X119912500Y-50680000D01*
G75*
G02*
X120060000Y-50827500I0J-147500D01*
G01*
X120060000Y-51172500D01*
G75*
G02*
X119912500Y-51320000I-147500J0D01*
G01*
X119617500Y-51320000D01*
G75*
G02*
X119470000Y-51172500I0J147500D01*
G01*
G37*
G36*
G01*
X115506250Y-49400000D02*
X114993750Y-49400000D01*
G75*
G02*
X114775000Y-49181250I0J218750D01*
G01*
X114775000Y-48743750D01*
G75*
G02*
X114993750Y-48525000I218750J0D01*
G01*
X115506250Y-48525000D01*
G75*
G02*
X115725000Y-48743750I0J-218750D01*
G01*
X115725000Y-49181250D01*
G75*
G02*
X115506250Y-49400000I-218750J0D01*
G01*
G37*
G36*
G01*
X115506250Y-50975000D02*
X114993750Y-50975000D01*
G75*
G02*
X114775000Y-50756250I0J218750D01*
G01*
X114775000Y-50318750D01*
G75*
G02*
X114993750Y-50100000I218750J0D01*
G01*
X115506250Y-50100000D01*
G75*
G02*
X115725000Y-50318750I0J-218750D01*
G01*
X115725000Y-50756250D01*
G75*
G02*
X115506250Y-50975000I-218750J0D01*
G01*
G37*
G36*
G01*
X131256250Y-83850000D02*
X130743750Y-83850000D01*
G75*
G02*
X130525000Y-83631250I0J218750D01*
G01*
X130525000Y-83193750D01*
G75*
G02*
X130743750Y-82975000I218750J0D01*
G01*
X131256250Y-82975000D01*
G75*
G02*
X131475000Y-83193750I0J-218750D01*
G01*
X131475000Y-83631250D01*
G75*
G02*
X131256250Y-83850000I-218750J0D01*
G01*
G37*
G36*
G01*
X131256250Y-85425000D02*
X130743750Y-85425000D01*
G75*
G02*
X130525000Y-85206250I0J218750D01*
G01*
X130525000Y-84768750D01*
G75*
G02*
X130743750Y-84550000I218750J0D01*
G01*
X131256250Y-84550000D01*
G75*
G02*
X131475000Y-84768750I0J-218750D01*
G01*
X131475000Y-85206250D01*
G75*
G02*
X131256250Y-85425000I-218750J0D01*
G01*
G37*
G36*
G01*
X120440000Y-48172500D02*
X120440000Y-47827500D01*
G75*
G02*
X120587500Y-47680000I147500J0D01*
G01*
X120882500Y-47680000D01*
G75*
G02*
X121030000Y-47827500I0J-147500D01*
G01*
X121030000Y-48172500D01*
G75*
G02*
X120882500Y-48320000I-147500J0D01*
G01*
X120587500Y-48320000D01*
G75*
G02*
X120440000Y-48172500I0J147500D01*
G01*
G37*
G36*
G01*
X119470000Y-48172500D02*
X119470000Y-47827500D01*
G75*
G02*
X119617500Y-47680000I147500J0D01*
G01*
X119912500Y-47680000D01*
G75*
G02*
X120060000Y-47827500I0J-147500D01*
G01*
X120060000Y-48172500D01*
G75*
G02*
X119912500Y-48320000I-147500J0D01*
G01*
X119617500Y-48320000D01*
G75*
G02*
X119470000Y-48172500I0J147500D01*
G01*
G37*
G36*
G01*
X109743750Y-47350000D02*
X110256250Y-47350000D01*
G75*
G02*
X110475000Y-47568750I0J-218750D01*
G01*
X110475000Y-48006250D01*
G75*
G02*
X110256250Y-48225000I-218750J0D01*
G01*
X109743750Y-48225000D01*
G75*
G02*
X109525000Y-48006250I0J218750D01*
G01*
X109525000Y-47568750D01*
G75*
G02*
X109743750Y-47350000I218750J0D01*
G01*
G37*
G36*
G01*
X109743750Y-45775000D02*
X110256250Y-45775000D01*
G75*
G02*
X110475000Y-45993750I0J-218750D01*
G01*
X110475000Y-46431250D01*
G75*
G02*
X110256250Y-46650000I-218750J0D01*
G01*
X109743750Y-46650000D01*
G75*
G02*
X109525000Y-46431250I0J218750D01*
G01*
X109525000Y-45993750D01*
G75*
G02*
X109743750Y-45775000I218750J0D01*
G01*
G37*
G36*
G01*
X115256250Y-80400000D02*
X114743750Y-80400000D01*
G75*
G02*
X114525000Y-80181250I0J218750D01*
G01*
X114525000Y-79743750D01*
G75*
G02*
X114743750Y-79525000I218750J0D01*
G01*
X115256250Y-79525000D01*
G75*
G02*
X115475000Y-79743750I0J-218750D01*
G01*
X115475000Y-80181250D01*
G75*
G02*
X115256250Y-80400000I-218750J0D01*
G01*
G37*
G36*
G01*
X115256250Y-81975000D02*
X114743750Y-81975000D01*
G75*
G02*
X114525000Y-81756250I0J218750D01*
G01*
X114525000Y-81318750D01*
G75*
G02*
X114743750Y-81100000I218750J0D01*
G01*
X115256250Y-81100000D01*
G75*
G02*
X115475000Y-81318750I0J-218750D01*
G01*
X115475000Y-81756250D01*
G75*
G02*
X115256250Y-81975000I-218750J0D01*
G01*
G37*
G36*
G01*
X119743750Y-81100000D02*
X120256250Y-81100000D01*
G75*
G02*
X120475000Y-81318750I0J-218750D01*
G01*
X120475000Y-81756250D01*
G75*
G02*
X120256250Y-81975000I-218750J0D01*
G01*
X119743750Y-81975000D01*
G75*
G02*
X119525000Y-81756250I0J218750D01*
G01*
X119525000Y-81318750D01*
G75*
G02*
X119743750Y-81100000I218750J0D01*
G01*
G37*
G36*
G01*
X119743750Y-79525000D02*
X120256250Y-79525000D01*
G75*
G02*
X120475000Y-79743750I0J-218750D01*
G01*
X120475000Y-80181250D01*
G75*
G02*
X120256250Y-80400000I-218750J0D01*
G01*
X119743750Y-80400000D01*
G75*
G02*
X119525000Y-80181250I0J218750D01*
G01*
X119525000Y-79743750D01*
G75*
G02*
X119743750Y-79525000I218750J0D01*
G01*
G37*
G36*
G01*
X123243750Y-85350000D02*
X123756250Y-85350000D01*
G75*
G02*
X123975000Y-85568750I0J-218750D01*
G01*
X123975000Y-86006250D01*
G75*
G02*
X123756250Y-86225000I-218750J0D01*
G01*
X123243750Y-86225000D01*
G75*
G02*
X123025000Y-86006250I0J218750D01*
G01*
X123025000Y-85568750D01*
G75*
G02*
X123243750Y-85350000I218750J0D01*
G01*
G37*
G36*
G01*
X123243750Y-83775000D02*
X123756250Y-83775000D01*
G75*
G02*
X123975000Y-83993750I0J-218750D01*
G01*
X123975000Y-84431250D01*
G75*
G02*
X123756250Y-84650000I-218750J0D01*
G01*
X123243750Y-84650000D01*
G75*
G02*
X123025000Y-84431250I0J218750D01*
G01*
X123025000Y-83993750D01*
G75*
G02*
X123243750Y-83775000I218750J0D01*
G01*
G37*
G36*
G01*
X110350000Y-87506250D02*
X110350000Y-86993750D01*
G75*
G02*
X110568750Y-86775000I218750J0D01*
G01*
X111006250Y-86775000D01*
G75*
G02*
X111225000Y-86993750I0J-218750D01*
G01*
X111225000Y-87506250D01*
G75*
G02*
X111006250Y-87725000I-218750J0D01*
G01*
X110568750Y-87725000D01*
G75*
G02*
X110350000Y-87506250I0J218750D01*
G01*
G37*
G36*
G01*
X108775000Y-87506250D02*
X108775000Y-86993750D01*
G75*
G02*
X108993750Y-86775000I218750J0D01*
G01*
X109431250Y-86775000D01*
G75*
G02*
X109650000Y-86993750I0J-218750D01*
G01*
X109650000Y-87506250D01*
G75*
G02*
X109431250Y-87725000I-218750J0D01*
G01*
X108993750Y-87725000D01*
G75*
G02*
X108775000Y-87506250I0J218750D01*
G01*
G37*
G36*
G01*
X127506250Y-58400000D02*
X126993750Y-58400000D01*
G75*
G02*
X126775000Y-58181250I0J218750D01*
G01*
X126775000Y-57743750D01*
G75*
G02*
X126993750Y-57525000I218750J0D01*
G01*
X127506250Y-57525000D01*
G75*
G02*
X127725000Y-57743750I0J-218750D01*
G01*
X127725000Y-58181250D01*
G75*
G02*
X127506250Y-58400000I-218750J0D01*
G01*
G37*
G36*
G01*
X127506250Y-59975000D02*
X126993750Y-59975000D01*
G75*
G02*
X126775000Y-59756250I0J218750D01*
G01*
X126775000Y-59318750D01*
G75*
G02*
X126993750Y-59100000I218750J0D01*
G01*
X127506250Y-59100000D01*
G75*
G02*
X127725000Y-59318750I0J-218750D01*
G01*
X127725000Y-59756250D01*
G75*
G02*
X127506250Y-59975000I-218750J0D01*
G01*
G37*
G36*
G01*
X136100000Y-60006250D02*
X136100000Y-59493750D01*
G75*
G02*
X136318750Y-59275000I218750J0D01*
G01*
X136756250Y-59275000D01*
G75*
G02*
X136975000Y-59493750I0J-218750D01*
G01*
X136975000Y-60006250D01*
G75*
G02*
X136756250Y-60225000I-218750J0D01*
G01*
X136318750Y-60225000D01*
G75*
G02*
X136100000Y-60006250I0J218750D01*
G01*
G37*
G36*
G01*
X134525000Y-60006250D02*
X134525000Y-59493750D01*
G75*
G02*
X134743750Y-59275000I218750J0D01*
G01*
X135181250Y-59275000D01*
G75*
G02*
X135400000Y-59493750I0J-218750D01*
G01*
X135400000Y-60006250D01*
G75*
G02*
X135181250Y-60225000I-218750J0D01*
G01*
X134743750Y-60225000D01*
G75*
G02*
X134525000Y-60006250I0J218750D01*
G01*
G37*
G36*
G01*
X136100000Y-57006250D02*
X136100000Y-56493750D01*
G75*
G02*
X136318750Y-56275000I218750J0D01*
G01*
X136756250Y-56275000D01*
G75*
G02*
X136975000Y-56493750I0J-218750D01*
G01*
X136975000Y-57006250D01*
G75*
G02*
X136756250Y-57225000I-218750J0D01*
G01*
X136318750Y-57225000D01*
G75*
G02*
X136100000Y-57006250I0J218750D01*
G01*
G37*
G36*
G01*
X134525000Y-57006250D02*
X134525000Y-56493750D01*
G75*
G02*
X134743750Y-56275000I218750J0D01*
G01*
X135181250Y-56275000D01*
G75*
G02*
X135400000Y-56493750I0J-218750D01*
G01*
X135400000Y-57006250D01*
G75*
G02*
X135181250Y-57225000I-218750J0D01*
G01*
X134743750Y-57225000D01*
G75*
G02*
X134525000Y-57006250I0J218750D01*
G01*
G37*
G36*
G01*
X135400000Y-57993750D02*
X135400000Y-58506250D01*
G75*
G02*
X135181250Y-58725000I-218750J0D01*
G01*
X134743750Y-58725000D01*
G75*
G02*
X134525000Y-58506250I0J218750D01*
G01*
X134525000Y-57993750D01*
G75*
G02*
X134743750Y-57775000I218750J0D01*
G01*
X135181250Y-57775000D01*
G75*
G02*
X135400000Y-57993750I0J-218750D01*
G01*
G37*
G36*
G01*
X136975000Y-57993750D02*
X136975000Y-58506250D01*
G75*
G02*
X136756250Y-58725000I-218750J0D01*
G01*
X136318750Y-58725000D01*
G75*
G02*
X136100000Y-58506250I0J218750D01*
G01*
X136100000Y-57993750D01*
G75*
G02*
X136318750Y-57775000I218750J0D01*
G01*
X136756250Y-57775000D01*
G75*
G02*
X136975000Y-57993750I0J-218750D01*
G01*
G37*
G36*
G01*
X111006250Y-70400000D02*
X110493750Y-70400000D01*
G75*
G02*
X110275000Y-70181250I0J218750D01*
G01*
X110275000Y-69743750D01*
G75*
G02*
X110493750Y-69525000I218750J0D01*
G01*
X111006250Y-69525000D01*
G75*
G02*
X111225000Y-69743750I0J-218750D01*
G01*
X111225000Y-70181250D01*
G75*
G02*
X111006250Y-70400000I-218750J0D01*
G01*
G37*
G36*
G01*
X111006250Y-71975000D02*
X110493750Y-71975000D01*
G75*
G02*
X110275000Y-71756250I0J218750D01*
G01*
X110275000Y-71318750D01*
G75*
G02*
X110493750Y-71100000I218750J0D01*
G01*
X111006250Y-71100000D01*
G75*
G02*
X111225000Y-71318750I0J-218750D01*
G01*
X111225000Y-71756250D01*
G75*
G02*
X111006250Y-71975000I-218750J0D01*
G01*
G37*
G36*
G01*
X112506250Y-70400000D02*
X111993750Y-70400000D01*
G75*
G02*
X111775000Y-70181250I0J218750D01*
G01*
X111775000Y-69743750D01*
G75*
G02*
X111993750Y-69525000I218750J0D01*
G01*
X112506250Y-69525000D01*
G75*
G02*
X112725000Y-69743750I0J-218750D01*
G01*
X112725000Y-70181250D01*
G75*
G02*
X112506250Y-70400000I-218750J0D01*
G01*
G37*
G36*
G01*
X112506250Y-71975000D02*
X111993750Y-71975000D01*
G75*
G02*
X111775000Y-71756250I0J218750D01*
G01*
X111775000Y-71318750D01*
G75*
G02*
X111993750Y-71100000I218750J0D01*
G01*
X112506250Y-71100000D01*
G75*
G02*
X112725000Y-71318750I0J-218750D01*
G01*
X112725000Y-71756250D01*
G75*
G02*
X112506250Y-71975000I-218750J0D01*
G01*
G37*
G36*
G01*
X120433708Y-68071316D02*
X120071316Y-68433709D01*
G75*
G02*
X119761956Y-68433709I-154680J154680D01*
G01*
X119452597Y-68124350D01*
G75*
G02*
X119452597Y-67814990I154680J154680D01*
G01*
X119814990Y-67452597D01*
G75*
G02*
X120124350Y-67452597I154680J-154680D01*
G01*
X120433709Y-67761956D01*
G75*
G02*
X120433709Y-68071316I-154680J-154680D01*
G01*
G37*
G36*
G01*
X121547402Y-69185010D02*
X121185010Y-69547403D01*
G75*
G02*
X120875650Y-69547403I-154680J154680D01*
G01*
X120566291Y-69238044D01*
G75*
G02*
X120566291Y-68928684I154680J154680D01*
G01*
X120928684Y-68566291D01*
G75*
G02*
X121238044Y-68566291I154680J-154680D01*
G01*
X121547403Y-68875650D01*
G75*
G02*
X121547403Y-69185010I-154680J-154680D01*
G01*
G37*
G36*
G01*
X130743750Y-56100000D02*
X131256250Y-56100000D01*
G75*
G02*
X131475000Y-56318750I0J-218750D01*
G01*
X131475000Y-56756250D01*
G75*
G02*
X131256250Y-56975000I-218750J0D01*
G01*
X130743750Y-56975000D01*
G75*
G02*
X130525000Y-56756250I0J218750D01*
G01*
X130525000Y-56318750D01*
G75*
G02*
X130743750Y-56100000I218750J0D01*
G01*
G37*
G36*
G01*
X130743750Y-54525000D02*
X131256250Y-54525000D01*
G75*
G02*
X131475000Y-54743750I0J-218750D01*
G01*
X131475000Y-55181250D01*
G75*
G02*
X131256250Y-55400000I-218750J0D01*
G01*
X130743750Y-55400000D01*
G75*
G02*
X130525000Y-55181250I0J218750D01*
G01*
X130525000Y-54743750D01*
G75*
G02*
X130743750Y-54525000I218750J0D01*
G01*
G37*
G36*
G01*
X127743750Y-56100000D02*
X128256250Y-56100000D01*
G75*
G02*
X128475000Y-56318750I0J-218750D01*
G01*
X128475000Y-56756250D01*
G75*
G02*
X128256250Y-56975000I-218750J0D01*
G01*
X127743750Y-56975000D01*
G75*
G02*
X127525000Y-56756250I0J218750D01*
G01*
X127525000Y-56318750D01*
G75*
G02*
X127743750Y-56100000I218750J0D01*
G01*
G37*
G36*
G01*
X127743750Y-54525000D02*
X128256250Y-54525000D01*
G75*
G02*
X128475000Y-54743750I0J-218750D01*
G01*
X128475000Y-55181250D01*
G75*
G02*
X128256250Y-55400000I-218750J0D01*
G01*
X127743750Y-55400000D01*
G75*
G02*
X127525000Y-55181250I0J218750D01*
G01*
X127525000Y-54743750D01*
G75*
G02*
X127743750Y-54525000I218750J0D01*
G01*
G37*
G36*
G01*
X129243750Y-56100000D02*
X129756250Y-56100000D01*
G75*
G02*
X129975000Y-56318750I0J-218750D01*
G01*
X129975000Y-56756250D01*
G75*
G02*
X129756250Y-56975000I-218750J0D01*
G01*
X129243750Y-56975000D01*
G75*
G02*
X129025000Y-56756250I0J218750D01*
G01*
X129025000Y-56318750D01*
G75*
G02*
X129243750Y-56100000I218750J0D01*
G01*
G37*
G36*
G01*
X129243750Y-54525000D02*
X129756250Y-54525000D01*
G75*
G02*
X129975000Y-54743750I0J-218750D01*
G01*
X129975000Y-55181250D01*
G75*
G02*
X129756250Y-55400000I-218750J0D01*
G01*
X129243750Y-55400000D01*
G75*
G02*
X129025000Y-55181250I0J218750D01*
G01*
X129025000Y-54743750D01*
G75*
G02*
X129243750Y-54525000I218750J0D01*
G01*
G37*
G36*
G01*
X111850000Y-77256250D02*
X111850000Y-76743750D01*
G75*
G02*
X112068750Y-76525000I218750J0D01*
G01*
X112506250Y-76525000D01*
G75*
G02*
X112725000Y-76743750I0J-218750D01*
G01*
X112725000Y-77256250D01*
G75*
G02*
X112506250Y-77475000I-218750J0D01*
G01*
X112068750Y-77475000D01*
G75*
G02*
X111850000Y-77256250I0J218750D01*
G01*
G37*
G36*
G01*
X110275000Y-77256250D02*
X110275000Y-76743750D01*
G75*
G02*
X110493750Y-76525000I218750J0D01*
G01*
X110931250Y-76525000D01*
G75*
G02*
X111150000Y-76743750I0J-218750D01*
G01*
X111150000Y-77256250D01*
G75*
G02*
X110931250Y-77475000I-218750J0D01*
G01*
X110493750Y-77475000D01*
G75*
G02*
X110275000Y-77256250I0J218750D01*
G01*
G37*
G36*
G01*
X111150000Y-75243750D02*
X111150000Y-75756250D01*
G75*
G02*
X110931250Y-75975000I-218750J0D01*
G01*
X110493750Y-75975000D01*
G75*
G02*
X110275000Y-75756250I0J218750D01*
G01*
X110275000Y-75243750D01*
G75*
G02*
X110493750Y-75025000I218750J0D01*
G01*
X110931250Y-75025000D01*
G75*
G02*
X111150000Y-75243750I0J-218750D01*
G01*
G37*
G36*
G01*
X112725000Y-75243750D02*
X112725000Y-75756250D01*
G75*
G02*
X112506250Y-75975000I-218750J0D01*
G01*
X112068750Y-75975000D01*
G75*
G02*
X111850000Y-75756250I0J218750D01*
G01*
X111850000Y-75243750D01*
G75*
G02*
X112068750Y-75025000I218750J0D01*
G01*
X112506250Y-75025000D01*
G75*
G02*
X112725000Y-75243750I0J-218750D01*
G01*
G37*
G36*
G01*
X123493750Y-59100000D02*
X124006250Y-59100000D01*
G75*
G02*
X124225000Y-59318750I0J-218750D01*
G01*
X124225000Y-59756250D01*
G75*
G02*
X124006250Y-59975000I-218750J0D01*
G01*
X123493750Y-59975000D01*
G75*
G02*
X123275000Y-59756250I0J218750D01*
G01*
X123275000Y-59318750D01*
G75*
G02*
X123493750Y-59100000I218750J0D01*
G01*
G37*
G36*
G01*
X123493750Y-57525000D02*
X124006250Y-57525000D01*
G75*
G02*
X124225000Y-57743750I0J-218750D01*
G01*
X124225000Y-58181250D01*
G75*
G02*
X124006250Y-58400000I-218750J0D01*
G01*
X123493750Y-58400000D01*
G75*
G02*
X123275000Y-58181250I0J218750D01*
G01*
X123275000Y-57743750D01*
G75*
G02*
X123493750Y-57525000I218750J0D01*
G01*
G37*
G36*
G01*
X124006250Y-54400000D02*
X123493750Y-54400000D01*
G75*
G02*
X123275000Y-54181250I0J218750D01*
G01*
X123275000Y-53743750D01*
G75*
G02*
X123493750Y-53525000I218750J0D01*
G01*
X124006250Y-53525000D01*
G75*
G02*
X124225000Y-53743750I0J-218750D01*
G01*
X124225000Y-54181250D01*
G75*
G02*
X124006250Y-54400000I-218750J0D01*
G01*
G37*
G36*
G01*
X124006250Y-55975000D02*
X123493750Y-55975000D01*
G75*
G02*
X123275000Y-55756250I0J218750D01*
G01*
X123275000Y-55318750D01*
G75*
G02*
X123493750Y-55100000I218750J0D01*
G01*
X124006250Y-55100000D01*
G75*
G02*
X124225000Y-55318750I0J-218750D01*
G01*
X124225000Y-55756250D01*
G75*
G02*
X124006250Y-55975000I-218750J0D01*
G01*
G37*
G36*
G01*
X109743750Y-50350000D02*
X110256250Y-50350000D01*
G75*
G02*
X110475000Y-50568750I0J-218750D01*
G01*
X110475000Y-51006250D01*
G75*
G02*
X110256250Y-51225000I-218750J0D01*
G01*
X109743750Y-51225000D01*
G75*
G02*
X109525000Y-51006250I0J218750D01*
G01*
X109525000Y-50568750D01*
G75*
G02*
X109743750Y-50350000I218750J0D01*
G01*
G37*
G36*
G01*
X109743750Y-48775000D02*
X110256250Y-48775000D01*
G75*
G02*
X110475000Y-48993750I0J-218750D01*
G01*
X110475000Y-49431250D01*
G75*
G02*
X110256250Y-49650000I-218750J0D01*
G01*
X109743750Y-49650000D01*
G75*
G02*
X109525000Y-49431250I0J218750D01*
G01*
X109525000Y-48993750D01*
G75*
G02*
X109743750Y-48775000I218750J0D01*
G01*
G37*
G36*
G01*
X111243750Y-50350000D02*
X111756250Y-50350000D01*
G75*
G02*
X111975000Y-50568750I0J-218750D01*
G01*
X111975000Y-51006250D01*
G75*
G02*
X111756250Y-51225000I-218750J0D01*
G01*
X111243750Y-51225000D01*
G75*
G02*
X111025000Y-51006250I0J218750D01*
G01*
X111025000Y-50568750D01*
G75*
G02*
X111243750Y-50350000I218750J0D01*
G01*
G37*
G36*
G01*
X111243750Y-48775000D02*
X111756250Y-48775000D01*
G75*
G02*
X111975000Y-48993750I0J-218750D01*
G01*
X111975000Y-49431250D01*
G75*
G02*
X111756250Y-49650000I-218750J0D01*
G01*
X111243750Y-49650000D01*
G75*
G02*
X111025000Y-49431250I0J218750D01*
G01*
X111025000Y-48993750D01*
G75*
G02*
X111243750Y-48775000I218750J0D01*
G01*
G37*
G36*
G01*
X104506250Y-49150000D02*
X103993750Y-49150000D01*
G75*
G02*
X103775000Y-48931250I0J218750D01*
G01*
X103775000Y-48493750D01*
G75*
G02*
X103993750Y-48275000I218750J0D01*
G01*
X104506250Y-48275000D01*
G75*
G02*
X104725000Y-48493750I0J-218750D01*
G01*
X104725000Y-48931250D01*
G75*
G02*
X104506250Y-49150000I-218750J0D01*
G01*
G37*
G36*
G01*
X104506250Y-50725000D02*
X103993750Y-50725000D01*
G75*
G02*
X103775000Y-50506250I0J218750D01*
G01*
X103775000Y-50068750D01*
G75*
G02*
X103993750Y-49850000I218750J0D01*
G01*
X104506250Y-49850000D01*
G75*
G02*
X104725000Y-50068750I0J-218750D01*
G01*
X104725000Y-50506250D01*
G75*
G02*
X104506250Y-50725000I-218750J0D01*
G01*
G37*
G36*
G01*
X106006250Y-49150000D02*
X105493750Y-49150000D01*
G75*
G02*
X105275000Y-48931250I0J218750D01*
G01*
X105275000Y-48493750D01*
G75*
G02*
X105493750Y-48275000I218750J0D01*
G01*
X106006250Y-48275000D01*
G75*
G02*
X106225000Y-48493750I0J-218750D01*
G01*
X106225000Y-48931250D01*
G75*
G02*
X106006250Y-49150000I-218750J0D01*
G01*
G37*
G36*
G01*
X106006250Y-50725000D02*
X105493750Y-50725000D01*
G75*
G02*
X105275000Y-50506250I0J218750D01*
G01*
X105275000Y-50068750D01*
G75*
G02*
X105493750Y-49850000I218750J0D01*
G01*
X106006250Y-49850000D01*
G75*
G02*
X106225000Y-50068750I0J-218750D01*
G01*
X106225000Y-50506250D01*
G75*
G02*
X106006250Y-50725000I-218750J0D01*
G01*
G37*
G36*
G01*
X107506250Y-49150000D02*
X106993750Y-49150000D01*
G75*
G02*
X106775000Y-48931250I0J218750D01*
G01*
X106775000Y-48493750D01*
G75*
G02*
X106993750Y-48275000I218750J0D01*
G01*
X107506250Y-48275000D01*
G75*
G02*
X107725000Y-48493750I0J-218750D01*
G01*
X107725000Y-48931250D01*
G75*
G02*
X107506250Y-49150000I-218750J0D01*
G01*
G37*
G36*
G01*
X107506250Y-50725000D02*
X106993750Y-50725000D01*
G75*
G02*
X106775000Y-50506250I0J218750D01*
G01*
X106775000Y-50068750D01*
G75*
G02*
X106993750Y-49850000I218750J0D01*
G01*
X107506250Y-49850000D01*
G75*
G02*
X107725000Y-50068750I0J-218750D01*
G01*
X107725000Y-50506250D01*
G75*
G02*
X107506250Y-50725000I-218750J0D01*
G01*
G37*
G36*
G01*
X113493750Y-50100000D02*
X114006250Y-50100000D01*
G75*
G02*
X114225000Y-50318750I0J-218750D01*
G01*
X114225000Y-50756250D01*
G75*
G02*
X114006250Y-50975000I-218750J0D01*
G01*
X113493750Y-50975000D01*
G75*
G02*
X113275000Y-50756250I0J218750D01*
G01*
X113275000Y-50318750D01*
G75*
G02*
X113493750Y-50100000I218750J0D01*
G01*
G37*
G36*
G01*
X113493750Y-48525000D02*
X114006250Y-48525000D01*
G75*
G02*
X114225000Y-48743750I0J-218750D01*
G01*
X114225000Y-49181250D01*
G75*
G02*
X114006250Y-49400000I-218750J0D01*
G01*
X113493750Y-49400000D01*
G75*
G02*
X113275000Y-49181250I0J218750D01*
G01*
X113275000Y-48743750D01*
G75*
G02*
X113493750Y-48525000I218750J0D01*
G01*
G37*
G36*
G01*
X103400000Y-51993750D02*
X103400000Y-52506250D01*
G75*
G02*
X103181250Y-52725000I-218750J0D01*
G01*
X102743750Y-52725000D01*
G75*
G02*
X102525000Y-52506250I0J218750D01*
G01*
X102525000Y-51993750D01*
G75*
G02*
X102743750Y-51775000I218750J0D01*
G01*
X103181250Y-51775000D01*
G75*
G02*
X103400000Y-51993750I0J-218750D01*
G01*
G37*
G36*
G01*
X104975000Y-51993750D02*
X104975000Y-52506250D01*
G75*
G02*
X104756250Y-52725000I-218750J0D01*
G01*
X104318750Y-52725000D01*
G75*
G02*
X104100000Y-52506250I0J218750D01*
G01*
X104100000Y-51993750D01*
G75*
G02*
X104318750Y-51775000I218750J0D01*
G01*
X104756250Y-51775000D01*
G75*
G02*
X104975000Y-51993750I0J-218750D01*
G01*
G37*
G36*
G01*
X119577500Y-49690000D02*
X119922500Y-49690000D01*
G75*
G02*
X120070000Y-49837500I0J-147500D01*
G01*
X120070000Y-50132500D01*
G75*
G02*
X119922500Y-50280000I-147500J0D01*
G01*
X119577500Y-50280000D01*
G75*
G02*
X119430000Y-50132500I0J147500D01*
G01*
X119430000Y-49837500D01*
G75*
G02*
X119577500Y-49690000I147500J0D01*
G01*
G37*
G36*
G01*
X119577500Y-48720000D02*
X119922500Y-48720000D01*
G75*
G02*
X120070000Y-48867500I0J-147500D01*
G01*
X120070000Y-49162500D01*
G75*
G02*
X119922500Y-49310000I-147500J0D01*
G01*
X119577500Y-49310000D01*
G75*
G02*
X119430000Y-49162500I0J147500D01*
G01*
X119430000Y-48867500D01*
G75*
G02*
X119577500Y-48720000I147500J0D01*
G01*
G37*
G36*
G01*
X109650000Y-88543750D02*
X109650000Y-89056250D01*
G75*
G02*
X109431250Y-89275000I-218750J0D01*
G01*
X108993750Y-89275000D01*
G75*
G02*
X108775000Y-89056250I0J218750D01*
G01*
X108775000Y-88543750D01*
G75*
G02*
X108993750Y-88325000I218750J0D01*
G01*
X109431250Y-88325000D01*
G75*
G02*
X109650000Y-88543750I0J-218750D01*
G01*
G37*
G36*
G01*
X111225000Y-88543750D02*
X111225000Y-89056250D01*
G75*
G02*
X111006250Y-89275000I-218750J0D01*
G01*
X110568750Y-89275000D01*
G75*
G02*
X110350000Y-89056250I0J218750D01*
G01*
X110350000Y-88543750D01*
G75*
G02*
X110568750Y-88325000I218750J0D01*
G01*
X111006250Y-88325000D01*
G75*
G02*
X111225000Y-88543750I0J-218750D01*
G01*
G37*
G36*
G01*
X104375000Y-89025000D02*
X103125000Y-89025000D01*
G75*
G02*
X102875000Y-88775000I0J250000D01*
G01*
X102875000Y-88025000D01*
G75*
G02*
X103125000Y-87775000I250000J0D01*
G01*
X104375000Y-87775000D01*
G75*
G02*
X104625000Y-88025000I0J-250000D01*
G01*
X104625000Y-88775000D01*
G75*
G02*
X104375000Y-89025000I-250000J0D01*
G01*
G37*
G36*
G01*
X104375000Y-86225000D02*
X103125000Y-86225000D01*
G75*
G02*
X102875000Y-85975000I0J250000D01*
G01*
X102875000Y-85225000D01*
G75*
G02*
X103125000Y-84975000I250000J0D01*
G01*
X104375000Y-84975000D01*
G75*
G02*
X104625000Y-85225000I0J-250000D01*
G01*
X104625000Y-85975000D01*
G75*
G02*
X104375000Y-86225000I-250000J0D01*
G01*
G37*
G36*
G01*
X106425000Y-70343750D02*
X106425000Y-70856250D01*
G75*
G02*
X106206250Y-71075000I-218750J0D01*
G01*
X105768750Y-71075000D01*
G75*
G02*
X105550000Y-70856250I0J218750D01*
G01*
X105550000Y-70343750D01*
G75*
G02*
X105768750Y-70125000I218750J0D01*
G01*
X106206250Y-70125000D01*
G75*
G02*
X106425000Y-70343750I0J-218750D01*
G01*
G37*
G36*
G01*
X104850000Y-70343750D02*
X104850000Y-70856250D01*
G75*
G02*
X104631250Y-71075000I-218750J0D01*
G01*
X104193750Y-71075000D01*
G75*
G02*
X103975000Y-70856250I0J218750D01*
G01*
X103975000Y-70343750D01*
G75*
G02*
X104193750Y-70125000I218750J0D01*
G01*
X104631250Y-70125000D01*
G75*
G02*
X104850000Y-70343750I0J-218750D01*
G01*
G37*
D26*
X129325000Y-89325000D03*
X125175000Y-89325000D03*
X129325000Y-87175000D03*
X125175000Y-87175000D03*
X125175000Y-83175000D03*
X129325000Y-83175000D03*
X125175000Y-85325000D03*
X129325000Y-85325000D03*
M02*
