%TF.GenerationSoftware,KiCad,Pcbnew,(5.1.9-0-10_14)*%
%TF.CreationDate,2021-01-25T15:50:05-08:00*%
%TF.ProjectId,flight-computer-2,666c6967-6874-42d6-936f-6d7075746572,rev?*%
%TF.SameCoordinates,PX57bcf00PY58b1140*%
%TF.FileFunction,Paste,Top*%
%TF.FilePolarity,Positive*%
%FSLAX46Y46*%
G04 Gerber Fmt 4.6, Leading zero omitted, Abs format (unit mm)*
G04 Created by KiCad (PCBNEW (5.1.9-0-10_14)) date 2021-01-25 15:50:05*
%MOMM*%
%LPD*%
G01*
G04 APERTURE LIST*
%ADD10C,0.100000*%
%ADD11R,0.800000X0.400000*%
%ADD12R,0.400000X0.800000*%
%ADD13R,1.000000X1.000000*%
%ADD14R,2.500000X1.500000*%
%ADD15R,0.400000X0.650000*%
%ADD16R,1.050000X0.650000*%
%ADD17R,0.800000X0.900000*%
%ADD18R,0.650000X1.060000*%
%ADD19R,0.675000X0.254000*%
%ADD20R,0.254000X0.675000*%
%ADD21R,1.100000X1.100000*%
%ADD22R,1.000000X0.800000*%
%ADD23R,0.550000X0.950000*%
%ADD24R,1.100000X1.900000*%
%ADD25R,0.600000X1.150000*%
%ADD26R,0.300000X1.150000*%
G04 APERTURE END LIST*
D10*
G36*
X24500975Y42504904D02*
G01*
X24501913Y42504619D01*
X24502778Y42504157D01*
X24503536Y42503536D01*
X24504157Y42502778D01*
X24504619Y42501913D01*
X24504904Y42500975D01*
X24505000Y42500000D01*
X24505000Y41500000D01*
X24504904Y41499025D01*
X24504619Y41498087D01*
X24504157Y41497222D01*
X24503536Y41496464D01*
X24502778Y41495843D01*
X24501913Y41495381D01*
X24500975Y41495096D01*
X24500000Y41495000D01*
X23500000Y41495000D01*
X23499025Y41495096D01*
X23498087Y41495381D01*
X23497222Y41495843D01*
X23496464Y41496464D01*
X23495843Y41497222D01*
X23495381Y41498087D01*
X23495096Y41499025D01*
X23495000Y41500000D01*
X23495000Y41900000D01*
X23495096Y41900975D01*
X23495381Y41901913D01*
X23495843Y41902778D01*
X23496464Y41903536D01*
X24096464Y42503536D01*
X24097222Y42504157D01*
X24098087Y42504619D01*
X24099025Y42504904D01*
X24100000Y42505000D01*
X24500000Y42505000D01*
X24500975Y42504904D01*
G37*
D11*
X19600000Y45300000D03*
X19600000Y44500000D03*
X19600000Y43700000D03*
X19600000Y42900000D03*
X19600000Y42100000D03*
X19600000Y41300000D03*
X19600000Y40500000D03*
X19600000Y39700000D03*
X19600000Y38900000D03*
X19600000Y38100000D03*
X19600000Y37300000D03*
X19600000Y36500000D03*
X19600000Y35700000D03*
D12*
X20300000Y34450000D03*
X21100000Y34450000D03*
X21900000Y34450000D03*
X22700000Y34450000D03*
X23500000Y34450000D03*
X24300000Y34450000D03*
X25100000Y34450000D03*
X25900000Y34450000D03*
X26700000Y34450000D03*
X27500000Y34450000D03*
X28300000Y34450000D03*
X29100000Y34450000D03*
X29900000Y34450000D03*
X30700000Y34450000D03*
D11*
X31400000Y35700000D03*
X31400000Y36500000D03*
X31400000Y37300000D03*
X31400000Y38100000D03*
X31400000Y38900000D03*
X31400000Y39700000D03*
X31400000Y40500000D03*
X31400000Y41300000D03*
X31400000Y42100000D03*
X31400000Y42900000D03*
X31400000Y43700000D03*
X31400000Y44500000D03*
X31400000Y45300000D03*
D12*
X30700000Y46550000D03*
X29900000Y46550000D03*
X29100000Y46550000D03*
X28300000Y46550000D03*
X27500000Y46550000D03*
X26700000Y46550000D03*
X25900000Y46550000D03*
X25100000Y46550000D03*
X24300000Y46550000D03*
X23500000Y46550000D03*
X22700000Y46550000D03*
X21900000Y46550000D03*
X21100000Y46550000D03*
X20300000Y46550000D03*
D13*
X25500000Y40500000D03*
X24000000Y40500000D03*
X27000000Y40500000D03*
X27000000Y39000000D03*
X24000000Y39000000D03*
X25500000Y39000000D03*
X27000000Y42000000D03*
X25500000Y42000000D03*
D14*
X18500000Y21200000D03*
X18500000Y24900000D03*
G36*
G01*
X11650000Y40656250D02*
X11650000Y40143750D01*
G75*
G02*
X11431250Y39925000I-218750J0D01*
G01*
X10993750Y39925000D01*
G75*
G02*
X10775000Y40143750I0J218750D01*
G01*
X10775000Y40656250D01*
G75*
G02*
X10993750Y40875000I218750J0D01*
G01*
X11431250Y40875000D01*
G75*
G02*
X11650000Y40656250I0J-218750D01*
G01*
G37*
G36*
G01*
X13225000Y40656250D02*
X13225000Y40143750D01*
G75*
G02*
X13006250Y39925000I-218750J0D01*
G01*
X12568750Y39925000D01*
G75*
G02*
X12350000Y40143750I0J218750D01*
G01*
X12350000Y40656250D01*
G75*
G02*
X12568750Y40875000I218750J0D01*
G01*
X13006250Y40875000D01*
G75*
G02*
X13225000Y40656250I0J-218750D01*
G01*
G37*
G36*
G01*
X12350000Y38643750D02*
X12350000Y39156250D01*
G75*
G02*
X12568750Y39375000I218750J0D01*
G01*
X13006250Y39375000D01*
G75*
G02*
X13225000Y39156250I0J-218750D01*
G01*
X13225000Y38643750D01*
G75*
G02*
X13006250Y38425000I-218750J0D01*
G01*
X12568750Y38425000D01*
G75*
G02*
X12350000Y38643750I0J218750D01*
G01*
G37*
G36*
G01*
X10775000Y38643750D02*
X10775000Y39156250D01*
G75*
G02*
X10993750Y39375000I218750J0D01*
G01*
X11431250Y39375000D01*
G75*
G02*
X11650000Y39156250I0J-218750D01*
G01*
X11650000Y38643750D01*
G75*
G02*
X11431250Y38425000I-218750J0D01*
G01*
X10993750Y38425000D01*
G75*
G02*
X10775000Y38643750I0J218750D01*
G01*
G37*
G36*
G01*
X44100000Y33118750D02*
X44100000Y33631250D01*
G75*
G02*
X44318750Y33850000I218750J0D01*
G01*
X44756250Y33850000D01*
G75*
G02*
X44975000Y33631250I0J-218750D01*
G01*
X44975000Y33118750D01*
G75*
G02*
X44756250Y32900000I-218750J0D01*
G01*
X44318750Y32900000D01*
G75*
G02*
X44100000Y33118750I0J218750D01*
G01*
G37*
G36*
G01*
X42525000Y33118750D02*
X42525000Y33631250D01*
G75*
G02*
X42743750Y33850000I218750J0D01*
G01*
X43181250Y33850000D01*
G75*
G02*
X43400000Y33631250I0J-218750D01*
G01*
X43400000Y33118750D01*
G75*
G02*
X43181250Y32900000I-218750J0D01*
G01*
X42743750Y32900000D01*
G75*
G02*
X42525000Y33118750I0J218750D01*
G01*
G37*
G36*
G01*
X16900000Y41725000D02*
X16900000Y42275000D01*
G75*
G02*
X17100000Y42475000I200000J0D01*
G01*
X17500000Y42475000D01*
G75*
G02*
X17700000Y42275000I0J-200000D01*
G01*
X17700000Y41725000D01*
G75*
G02*
X17500000Y41525000I-200000J0D01*
G01*
X17100000Y41525000D01*
G75*
G02*
X16900000Y41725000I0J200000D01*
G01*
G37*
G36*
G01*
X15250000Y41725000D02*
X15250000Y42275000D01*
G75*
G02*
X15450000Y42475000I200000J0D01*
G01*
X15850000Y42475000D01*
G75*
G02*
X16050000Y42275000I0J-200000D01*
G01*
X16050000Y41725000D01*
G75*
G02*
X15850000Y41525000I-200000J0D01*
G01*
X15450000Y41525000D01*
G75*
G02*
X15250000Y41725000I0J200000D01*
G01*
G37*
G36*
G01*
X16150000Y40775000D02*
X16150000Y40275000D01*
G75*
G02*
X15925000Y40050000I-225000J0D01*
G01*
X15475000Y40050000D01*
G75*
G02*
X15250000Y40275000I0J225000D01*
G01*
X15250000Y40775000D01*
G75*
G02*
X15475000Y41000000I225000J0D01*
G01*
X15925000Y41000000D01*
G75*
G02*
X16150000Y40775000I0J-225000D01*
G01*
G37*
G36*
G01*
X17700000Y40775000D02*
X17700000Y40275000D01*
G75*
G02*
X17475000Y40050000I-225000J0D01*
G01*
X17025000Y40050000D01*
G75*
G02*
X16800000Y40275000I0J225000D01*
G01*
X16800000Y40775000D01*
G75*
G02*
X17025000Y41000000I225000J0D01*
G01*
X17475000Y41000000D01*
G75*
G02*
X17700000Y40775000I0J-225000D01*
G01*
G37*
G36*
G01*
X25977297Y23424820D02*
X25659099Y23106622D01*
G75*
G02*
X25340901Y23106622I-159099J159099D01*
G01*
X25022703Y23424820D01*
G75*
G02*
X25022703Y23743018I159099J159099D01*
G01*
X25340901Y24061216D01*
G75*
G02*
X25659099Y24061216I159099J-159099D01*
G01*
X25977297Y23743018D01*
G75*
G02*
X25977297Y23424820I-159099J-159099D01*
G01*
G37*
G36*
G01*
X25185337Y22632861D02*
X24867139Y22314663D01*
G75*
G02*
X24548941Y22314663I-159099J159099D01*
G01*
X24230743Y22632861D01*
G75*
G02*
X24230743Y22951059I159099J159099D01*
G01*
X24548941Y23269257D01*
G75*
G02*
X24867139Y23269257I159099J-159099D01*
G01*
X25185337Y22951059D01*
G75*
G02*
X25185337Y22632861I-159099J-159099D01*
G01*
G37*
G36*
G01*
X24393378Y21840901D02*
X24075180Y21522703D01*
G75*
G02*
X23756982Y21522703I-159099J159099D01*
G01*
X23438784Y21840901D01*
G75*
G02*
X23438784Y22159099I159099J159099D01*
G01*
X23756982Y22477297D01*
G75*
G02*
X24075180Y22477297I159099J-159099D01*
G01*
X24393378Y22159099D01*
G75*
G02*
X24393378Y21840901I-159099J-159099D01*
G01*
G37*
G36*
G01*
X26769257Y22632861D02*
X26451059Y22314663D01*
G75*
G02*
X26132861Y22314663I-159099J159099D01*
G01*
X25814663Y22632861D01*
G75*
G02*
X25814663Y22951059I159099J159099D01*
G01*
X26132861Y23269257D01*
G75*
G02*
X26451059Y23269257I159099J-159099D01*
G01*
X26769257Y22951059D01*
G75*
G02*
X26769257Y22632861I-159099J-159099D01*
G01*
G37*
G36*
G01*
X25977297Y21840901D02*
X25659099Y21522703D01*
G75*
G02*
X25340901Y21522703I-159099J159099D01*
G01*
X25022703Y21840901D01*
G75*
G02*
X25022703Y22159099I159099J159099D01*
G01*
X25340901Y22477297D01*
G75*
G02*
X25659099Y22477297I159099J-159099D01*
G01*
X25977297Y22159099D01*
G75*
G02*
X25977297Y21840901I-159099J-159099D01*
G01*
G37*
G36*
G01*
X25185337Y21048941D02*
X24867139Y20730743D01*
G75*
G02*
X24548941Y20730743I-159099J159099D01*
G01*
X24230743Y21048941D01*
G75*
G02*
X24230743Y21367139I159099J159099D01*
G01*
X24548941Y21685337D01*
G75*
G02*
X24867139Y21685337I159099J-159099D01*
G01*
X25185337Y21367139D01*
G75*
G02*
X25185337Y21048941I-159099J-159099D01*
G01*
G37*
G36*
G01*
X27561216Y21840901D02*
X27243018Y21522703D01*
G75*
G02*
X26924820Y21522703I-159099J159099D01*
G01*
X26606622Y21840901D01*
G75*
G02*
X26606622Y22159099I159099J159099D01*
G01*
X26924820Y22477297D01*
G75*
G02*
X27243018Y22477297I159099J-159099D01*
G01*
X27561216Y22159099D01*
G75*
G02*
X27561216Y21840901I-159099J-159099D01*
G01*
G37*
G36*
G01*
X26769257Y21048941D02*
X26451059Y20730743D01*
G75*
G02*
X26132861Y20730743I-159099J159099D01*
G01*
X25814663Y21048941D01*
G75*
G02*
X25814663Y21367139I159099J159099D01*
G01*
X26132861Y21685337D01*
G75*
G02*
X26451059Y21685337I159099J-159099D01*
G01*
X26769257Y21367139D01*
G75*
G02*
X26769257Y21048941I-159099J-159099D01*
G01*
G37*
G36*
G01*
X25977297Y20256982D02*
X25659099Y19938784D01*
G75*
G02*
X25340901Y19938784I-159099J159099D01*
G01*
X25022703Y20256982D01*
G75*
G02*
X25022703Y20575180I159099J159099D01*
G01*
X25340901Y20893378D01*
G75*
G02*
X25659099Y20893378I159099J-159099D01*
G01*
X25977297Y20575180D01*
G75*
G02*
X25977297Y20256982I-159099J-159099D01*
G01*
G37*
G36*
G01*
X25155286Y19357188D02*
X24677989Y18879891D01*
G75*
G02*
X24589601Y18879891I-44194J44194D01*
G01*
X24501212Y18968280D01*
G75*
G02*
X24501212Y19056668I44194J44194D01*
G01*
X24978509Y19533965D01*
G75*
G02*
X25066897Y19533965I44194J-44194D01*
G01*
X25155286Y19445576D01*
G75*
G02*
X25155286Y19357188I-44194J-44194D01*
G01*
G37*
G36*
G01*
X24801732Y19710742D02*
X24324435Y19233445D01*
G75*
G02*
X24236047Y19233445I-44194J44194D01*
G01*
X24147658Y19321834D01*
G75*
G02*
X24147658Y19410222I44194J44194D01*
G01*
X24624955Y19887519D01*
G75*
G02*
X24713343Y19887519I44194J-44194D01*
G01*
X24801732Y19799130D01*
G75*
G02*
X24801732Y19710742I-44194J-44194D01*
G01*
G37*
G36*
G01*
X24448179Y20064295D02*
X23970882Y19586998D01*
G75*
G02*
X23882494Y19586998I-44194J44194D01*
G01*
X23794105Y19675387D01*
G75*
G02*
X23794105Y19763775I44194J44194D01*
G01*
X24271402Y20241072D01*
G75*
G02*
X24359790Y20241072I44194J-44194D01*
G01*
X24448179Y20152683D01*
G75*
G02*
X24448179Y20064295I-44194J-44194D01*
G01*
G37*
G36*
G01*
X24094625Y20417848D02*
X23617328Y19940551D01*
G75*
G02*
X23528940Y19940551I-44194J44194D01*
G01*
X23440551Y20028940D01*
G75*
G02*
X23440551Y20117328I44194J44194D01*
G01*
X23917848Y20594625D01*
G75*
G02*
X24006236Y20594625I44194J-44194D01*
G01*
X24094625Y20506236D01*
G75*
G02*
X24094625Y20417848I-44194J-44194D01*
G01*
G37*
G36*
G01*
X23741072Y20771402D02*
X23263775Y20294105D01*
G75*
G02*
X23175387Y20294105I-44194J44194D01*
G01*
X23086998Y20382494D01*
G75*
G02*
X23086998Y20470882I44194J44194D01*
G01*
X23564295Y20948179D01*
G75*
G02*
X23652683Y20948179I44194J-44194D01*
G01*
X23741072Y20859790D01*
G75*
G02*
X23741072Y20771402I-44194J-44194D01*
G01*
G37*
G36*
G01*
X23387519Y21124955D02*
X22910222Y20647658D01*
G75*
G02*
X22821834Y20647658I-44194J44194D01*
G01*
X22733445Y20736047D01*
G75*
G02*
X22733445Y20824435I44194J44194D01*
G01*
X23210742Y21301732D01*
G75*
G02*
X23299130Y21301732I44194J-44194D01*
G01*
X23387519Y21213343D01*
G75*
G02*
X23387519Y21124955I-44194J-44194D01*
G01*
G37*
G36*
G01*
X23033965Y21478509D02*
X22556668Y21001212D01*
G75*
G02*
X22468280Y21001212I-44194J44194D01*
G01*
X22379891Y21089601D01*
G75*
G02*
X22379891Y21177989I44194J44194D01*
G01*
X22857188Y21655286D01*
G75*
G02*
X22945576Y21655286I44194J-44194D01*
G01*
X23033965Y21566897D01*
G75*
G02*
X23033965Y21478509I-44194J-44194D01*
G01*
G37*
G36*
G01*
X23033965Y22433103D02*
X22945576Y22344714D01*
G75*
G02*
X22857188Y22344714I-44194J44194D01*
G01*
X22379891Y22822011D01*
G75*
G02*
X22379891Y22910399I44194J44194D01*
G01*
X22468280Y22998788D01*
G75*
G02*
X22556668Y22998788I44194J-44194D01*
G01*
X23033965Y22521491D01*
G75*
G02*
X23033965Y22433103I-44194J-44194D01*
G01*
G37*
G36*
G01*
X23387519Y22786657D02*
X23299130Y22698268D01*
G75*
G02*
X23210742Y22698268I-44194J44194D01*
G01*
X22733445Y23175565D01*
G75*
G02*
X22733445Y23263953I44194J44194D01*
G01*
X22821834Y23352342D01*
G75*
G02*
X22910222Y23352342I44194J-44194D01*
G01*
X23387519Y22875045D01*
G75*
G02*
X23387519Y22786657I-44194J-44194D01*
G01*
G37*
G36*
G01*
X23741072Y23140210D02*
X23652683Y23051821D01*
G75*
G02*
X23564295Y23051821I-44194J44194D01*
G01*
X23086998Y23529118D01*
G75*
G02*
X23086998Y23617506I44194J44194D01*
G01*
X23175387Y23705895D01*
G75*
G02*
X23263775Y23705895I44194J-44194D01*
G01*
X23741072Y23228598D01*
G75*
G02*
X23741072Y23140210I-44194J-44194D01*
G01*
G37*
G36*
G01*
X24094625Y23493764D02*
X24006236Y23405375D01*
G75*
G02*
X23917848Y23405375I-44194J44194D01*
G01*
X23440551Y23882672D01*
G75*
G02*
X23440551Y23971060I44194J44194D01*
G01*
X23528940Y24059449D01*
G75*
G02*
X23617328Y24059449I44194J-44194D01*
G01*
X24094625Y23582152D01*
G75*
G02*
X24094625Y23493764I-44194J-44194D01*
G01*
G37*
G36*
G01*
X24448179Y23847317D02*
X24359790Y23758928D01*
G75*
G02*
X24271402Y23758928I-44194J44194D01*
G01*
X23794105Y24236225D01*
G75*
G02*
X23794105Y24324613I44194J44194D01*
G01*
X23882494Y24413002D01*
G75*
G02*
X23970882Y24413002I44194J-44194D01*
G01*
X24448179Y23935705D01*
G75*
G02*
X24448179Y23847317I-44194J-44194D01*
G01*
G37*
G36*
G01*
X24801732Y24200870D02*
X24713343Y24112481D01*
G75*
G02*
X24624955Y24112481I-44194J44194D01*
G01*
X24147658Y24589778D01*
G75*
G02*
X24147658Y24678166I44194J44194D01*
G01*
X24236047Y24766555D01*
G75*
G02*
X24324435Y24766555I44194J-44194D01*
G01*
X24801732Y24289258D01*
G75*
G02*
X24801732Y24200870I-44194J-44194D01*
G01*
G37*
G36*
G01*
X25155286Y24554424D02*
X25066897Y24466035D01*
G75*
G02*
X24978509Y24466035I-44194J44194D01*
G01*
X24501212Y24943332D01*
G75*
G02*
X24501212Y25031720I44194J44194D01*
G01*
X24589601Y25120109D01*
G75*
G02*
X24677989Y25120109I44194J-44194D01*
G01*
X25155286Y24642812D01*
G75*
G02*
X25155286Y24554424I-44194J-44194D01*
G01*
G37*
G36*
G01*
X26498788Y24943332D02*
X26021491Y24466035D01*
G75*
G02*
X25933103Y24466035I-44194J44194D01*
G01*
X25844714Y24554424D01*
G75*
G02*
X25844714Y24642812I44194J44194D01*
G01*
X26322011Y25120109D01*
G75*
G02*
X26410399Y25120109I44194J-44194D01*
G01*
X26498788Y25031720D01*
G75*
G02*
X26498788Y24943332I-44194J-44194D01*
G01*
G37*
G36*
G01*
X26852342Y24589778D02*
X26375045Y24112481D01*
G75*
G02*
X26286657Y24112481I-44194J44194D01*
G01*
X26198268Y24200870D01*
G75*
G02*
X26198268Y24289258I44194J44194D01*
G01*
X26675565Y24766555D01*
G75*
G02*
X26763953Y24766555I44194J-44194D01*
G01*
X26852342Y24678166D01*
G75*
G02*
X26852342Y24589778I-44194J-44194D01*
G01*
G37*
G36*
G01*
X27205895Y24236225D02*
X26728598Y23758928D01*
G75*
G02*
X26640210Y23758928I-44194J44194D01*
G01*
X26551821Y23847317D01*
G75*
G02*
X26551821Y23935705I44194J44194D01*
G01*
X27029118Y24413002D01*
G75*
G02*
X27117506Y24413002I44194J-44194D01*
G01*
X27205895Y24324613D01*
G75*
G02*
X27205895Y24236225I-44194J-44194D01*
G01*
G37*
G36*
G01*
X27559449Y23882672D02*
X27082152Y23405375D01*
G75*
G02*
X26993764Y23405375I-44194J44194D01*
G01*
X26905375Y23493764D01*
G75*
G02*
X26905375Y23582152I44194J44194D01*
G01*
X27382672Y24059449D01*
G75*
G02*
X27471060Y24059449I44194J-44194D01*
G01*
X27559449Y23971060D01*
G75*
G02*
X27559449Y23882672I-44194J-44194D01*
G01*
G37*
G36*
G01*
X27913002Y23529118D02*
X27435705Y23051821D01*
G75*
G02*
X27347317Y23051821I-44194J44194D01*
G01*
X27258928Y23140210D01*
G75*
G02*
X27258928Y23228598I44194J44194D01*
G01*
X27736225Y23705895D01*
G75*
G02*
X27824613Y23705895I44194J-44194D01*
G01*
X27913002Y23617506D01*
G75*
G02*
X27913002Y23529118I-44194J-44194D01*
G01*
G37*
G36*
G01*
X28266555Y23175565D02*
X27789258Y22698268D01*
G75*
G02*
X27700870Y22698268I-44194J44194D01*
G01*
X27612481Y22786657D01*
G75*
G02*
X27612481Y22875045I44194J44194D01*
G01*
X28089778Y23352342D01*
G75*
G02*
X28178166Y23352342I44194J-44194D01*
G01*
X28266555Y23263953D01*
G75*
G02*
X28266555Y23175565I-44194J-44194D01*
G01*
G37*
G36*
G01*
X28620109Y22822011D02*
X28142812Y22344714D01*
G75*
G02*
X28054424Y22344714I-44194J44194D01*
G01*
X27966035Y22433103D01*
G75*
G02*
X27966035Y22521491I44194J44194D01*
G01*
X28443332Y22998788D01*
G75*
G02*
X28531720Y22998788I44194J-44194D01*
G01*
X28620109Y22910399D01*
G75*
G02*
X28620109Y22822011I-44194J-44194D01*
G01*
G37*
G36*
G01*
X28620109Y21089601D02*
X28531720Y21001212D01*
G75*
G02*
X28443332Y21001212I-44194J44194D01*
G01*
X27966035Y21478509D01*
G75*
G02*
X27966035Y21566897I44194J44194D01*
G01*
X28054424Y21655286D01*
G75*
G02*
X28142812Y21655286I44194J-44194D01*
G01*
X28620109Y21177989D01*
G75*
G02*
X28620109Y21089601I-44194J-44194D01*
G01*
G37*
G36*
G01*
X28266555Y20736047D02*
X28178166Y20647658D01*
G75*
G02*
X28089778Y20647658I-44194J44194D01*
G01*
X27612481Y21124955D01*
G75*
G02*
X27612481Y21213343I44194J44194D01*
G01*
X27700870Y21301732D01*
G75*
G02*
X27789258Y21301732I44194J-44194D01*
G01*
X28266555Y20824435D01*
G75*
G02*
X28266555Y20736047I-44194J-44194D01*
G01*
G37*
G36*
G01*
X27913002Y20382494D02*
X27824613Y20294105D01*
G75*
G02*
X27736225Y20294105I-44194J44194D01*
G01*
X27258928Y20771402D01*
G75*
G02*
X27258928Y20859790I44194J44194D01*
G01*
X27347317Y20948179D01*
G75*
G02*
X27435705Y20948179I44194J-44194D01*
G01*
X27913002Y20470882D01*
G75*
G02*
X27913002Y20382494I-44194J-44194D01*
G01*
G37*
G36*
G01*
X27559449Y20028940D02*
X27471060Y19940551D01*
G75*
G02*
X27382672Y19940551I-44194J44194D01*
G01*
X26905375Y20417848D01*
G75*
G02*
X26905375Y20506236I44194J44194D01*
G01*
X26993764Y20594625D01*
G75*
G02*
X27082152Y20594625I44194J-44194D01*
G01*
X27559449Y20117328D01*
G75*
G02*
X27559449Y20028940I-44194J-44194D01*
G01*
G37*
G36*
G01*
X27205895Y19675387D02*
X27117506Y19586998D01*
G75*
G02*
X27029118Y19586998I-44194J44194D01*
G01*
X26551821Y20064295D01*
G75*
G02*
X26551821Y20152683I44194J44194D01*
G01*
X26640210Y20241072D01*
G75*
G02*
X26728598Y20241072I44194J-44194D01*
G01*
X27205895Y19763775D01*
G75*
G02*
X27205895Y19675387I-44194J-44194D01*
G01*
G37*
G36*
G01*
X26852342Y19321834D02*
X26763953Y19233445D01*
G75*
G02*
X26675565Y19233445I-44194J44194D01*
G01*
X26198268Y19710742D01*
G75*
G02*
X26198268Y19799130I44194J44194D01*
G01*
X26286657Y19887519D01*
G75*
G02*
X26375045Y19887519I44194J-44194D01*
G01*
X26852342Y19410222D01*
G75*
G02*
X26852342Y19321834I-44194J-44194D01*
G01*
G37*
G36*
G01*
X26498788Y18968280D02*
X26410399Y18879891D01*
G75*
G02*
X26322011Y18879891I-44194J44194D01*
G01*
X25844714Y19357188D01*
G75*
G02*
X25844714Y19445576I44194J44194D01*
G01*
X25933103Y19533965D01*
G75*
G02*
X26021491Y19533965I44194J-44194D01*
G01*
X26498788Y19056668D01*
G75*
G02*
X26498788Y18968280I-44194J-44194D01*
G01*
G37*
G36*
G01*
X41500000Y27325000D02*
X41000000Y27325000D01*
G75*
G02*
X40775000Y27550000I0J225000D01*
G01*
X40775000Y28000000D01*
G75*
G02*
X41000000Y28225000I225000J0D01*
G01*
X41500000Y28225000D01*
G75*
G02*
X41725000Y28000000I0J-225000D01*
G01*
X41725000Y27550000D01*
G75*
G02*
X41500000Y27325000I-225000J0D01*
G01*
G37*
G36*
G01*
X41500000Y25775000D02*
X41000000Y25775000D01*
G75*
G02*
X40775000Y26000000I0J225000D01*
G01*
X40775000Y26450000D01*
G75*
G02*
X41000000Y26675000I225000J0D01*
G01*
X41500000Y26675000D01*
G75*
G02*
X41725000Y26450000I0J-225000D01*
G01*
X41725000Y26000000D01*
G75*
G02*
X41500000Y25775000I-225000J0D01*
G01*
G37*
G36*
G01*
X11997500Y20445000D02*
X12362500Y20445000D01*
G75*
G02*
X12545000Y20262500I0J-182500D01*
G01*
X12545000Y19897500D01*
G75*
G02*
X12362500Y19715000I-182500J0D01*
G01*
X11997500Y19715000D01*
G75*
G02*
X11815000Y19897500I0J182500D01*
G01*
X11815000Y20262500D01*
G75*
G02*
X11997500Y20445000I182500J0D01*
G01*
G37*
G36*
G01*
X12837500Y20445000D02*
X13202500Y20445000D01*
G75*
G02*
X13385000Y20262500I0J-182500D01*
G01*
X13385000Y19897500D01*
G75*
G02*
X13202500Y19715000I-182500J0D01*
G01*
X12837500Y19715000D01*
G75*
G02*
X12655000Y19897500I0J182500D01*
G01*
X12655000Y20262500D01*
G75*
G02*
X12837500Y20445000I182500J0D01*
G01*
G37*
G36*
G01*
X11997500Y21285000D02*
X12362500Y21285000D01*
G75*
G02*
X12545000Y21102500I0J-182500D01*
G01*
X12545000Y20737500D01*
G75*
G02*
X12362500Y20555000I-182500J0D01*
G01*
X11997500Y20555000D01*
G75*
G02*
X11815000Y20737500I0J182500D01*
G01*
X11815000Y21102500D01*
G75*
G02*
X11997500Y21285000I182500J0D01*
G01*
G37*
G36*
G01*
X12837500Y21285000D02*
X13202500Y21285000D01*
G75*
G02*
X13385000Y21102500I0J-182500D01*
G01*
X13385000Y20737500D01*
G75*
G02*
X13202500Y20555000I-182500J0D01*
G01*
X12837500Y20555000D01*
G75*
G02*
X12655000Y20737500I0J182500D01*
G01*
X12655000Y21102500D01*
G75*
G02*
X12837500Y21285000I182500J0D01*
G01*
G37*
G36*
G01*
X13712500Y21375000D02*
X14412500Y21375000D01*
G75*
G02*
X14475000Y21312500I0J-62500D01*
G01*
X14475000Y21187500D01*
G75*
G02*
X14412500Y21125000I-62500J0D01*
G01*
X13712500Y21125000D01*
G75*
G02*
X13650000Y21187500I0J62500D01*
G01*
X13650000Y21312500D01*
G75*
G02*
X13712500Y21375000I62500J0D01*
G01*
G37*
G36*
G01*
X13712500Y20875000D02*
X14412500Y20875000D01*
G75*
G02*
X14475000Y20812500I0J-62500D01*
G01*
X14475000Y20687500D01*
G75*
G02*
X14412500Y20625000I-62500J0D01*
G01*
X13712500Y20625000D01*
G75*
G02*
X13650000Y20687500I0J62500D01*
G01*
X13650000Y20812500D01*
G75*
G02*
X13712500Y20875000I62500J0D01*
G01*
G37*
G36*
G01*
X13712500Y20375000D02*
X14412500Y20375000D01*
G75*
G02*
X14475000Y20312500I0J-62500D01*
G01*
X14475000Y20187500D01*
G75*
G02*
X14412500Y20125000I-62500J0D01*
G01*
X13712500Y20125000D01*
G75*
G02*
X13650000Y20187500I0J62500D01*
G01*
X13650000Y20312500D01*
G75*
G02*
X13712500Y20375000I62500J0D01*
G01*
G37*
G36*
G01*
X13712500Y19875000D02*
X14412500Y19875000D01*
G75*
G02*
X14475000Y19812500I0J-62500D01*
G01*
X14475000Y19687500D01*
G75*
G02*
X14412500Y19625000I-62500J0D01*
G01*
X13712500Y19625000D01*
G75*
G02*
X13650000Y19687500I0J62500D01*
G01*
X13650000Y19812500D01*
G75*
G02*
X13712500Y19875000I62500J0D01*
G01*
G37*
G36*
G01*
X13287500Y19450000D02*
X13412500Y19450000D01*
G75*
G02*
X13475000Y19387500I0J-62500D01*
G01*
X13475000Y18687500D01*
G75*
G02*
X13412500Y18625000I-62500J0D01*
G01*
X13287500Y18625000D01*
G75*
G02*
X13225000Y18687500I0J62500D01*
G01*
X13225000Y19387500D01*
G75*
G02*
X13287500Y19450000I62500J0D01*
G01*
G37*
G36*
G01*
X12787500Y19450000D02*
X12912500Y19450000D01*
G75*
G02*
X12975000Y19387500I0J-62500D01*
G01*
X12975000Y18687500D01*
G75*
G02*
X12912500Y18625000I-62500J0D01*
G01*
X12787500Y18625000D01*
G75*
G02*
X12725000Y18687500I0J62500D01*
G01*
X12725000Y19387500D01*
G75*
G02*
X12787500Y19450000I62500J0D01*
G01*
G37*
G36*
G01*
X12287500Y19450000D02*
X12412500Y19450000D01*
G75*
G02*
X12475000Y19387500I0J-62500D01*
G01*
X12475000Y18687500D01*
G75*
G02*
X12412500Y18625000I-62500J0D01*
G01*
X12287500Y18625000D01*
G75*
G02*
X12225000Y18687500I0J62500D01*
G01*
X12225000Y19387500D01*
G75*
G02*
X12287500Y19450000I62500J0D01*
G01*
G37*
G36*
G01*
X11787500Y19450000D02*
X11912500Y19450000D01*
G75*
G02*
X11975000Y19387500I0J-62500D01*
G01*
X11975000Y18687500D01*
G75*
G02*
X11912500Y18625000I-62500J0D01*
G01*
X11787500Y18625000D01*
G75*
G02*
X11725000Y18687500I0J62500D01*
G01*
X11725000Y19387500D01*
G75*
G02*
X11787500Y19450000I62500J0D01*
G01*
G37*
G36*
G01*
X10787500Y19875000D02*
X11487500Y19875000D01*
G75*
G02*
X11550000Y19812500I0J-62500D01*
G01*
X11550000Y19687500D01*
G75*
G02*
X11487500Y19625000I-62500J0D01*
G01*
X10787500Y19625000D01*
G75*
G02*
X10725000Y19687500I0J62500D01*
G01*
X10725000Y19812500D01*
G75*
G02*
X10787500Y19875000I62500J0D01*
G01*
G37*
G36*
G01*
X10787500Y20375000D02*
X11487500Y20375000D01*
G75*
G02*
X11550000Y20312500I0J-62500D01*
G01*
X11550000Y20187500D01*
G75*
G02*
X11487500Y20125000I-62500J0D01*
G01*
X10787500Y20125000D01*
G75*
G02*
X10725000Y20187500I0J62500D01*
G01*
X10725000Y20312500D01*
G75*
G02*
X10787500Y20375000I62500J0D01*
G01*
G37*
G36*
G01*
X10787500Y20875000D02*
X11487500Y20875000D01*
G75*
G02*
X11550000Y20812500I0J-62500D01*
G01*
X11550000Y20687500D01*
G75*
G02*
X11487500Y20625000I-62500J0D01*
G01*
X10787500Y20625000D01*
G75*
G02*
X10725000Y20687500I0J62500D01*
G01*
X10725000Y20812500D01*
G75*
G02*
X10787500Y20875000I62500J0D01*
G01*
G37*
G36*
G01*
X10787500Y21375000D02*
X11487500Y21375000D01*
G75*
G02*
X11550000Y21312500I0J-62500D01*
G01*
X11550000Y21187500D01*
G75*
G02*
X11487500Y21125000I-62500J0D01*
G01*
X10787500Y21125000D01*
G75*
G02*
X10725000Y21187500I0J62500D01*
G01*
X10725000Y21312500D01*
G75*
G02*
X10787500Y21375000I62500J0D01*
G01*
G37*
G36*
G01*
X11787500Y22375000D02*
X11912500Y22375000D01*
G75*
G02*
X11975000Y22312500I0J-62500D01*
G01*
X11975000Y21612500D01*
G75*
G02*
X11912500Y21550000I-62500J0D01*
G01*
X11787500Y21550000D01*
G75*
G02*
X11725000Y21612500I0J62500D01*
G01*
X11725000Y22312500D01*
G75*
G02*
X11787500Y22375000I62500J0D01*
G01*
G37*
G36*
G01*
X12287500Y22375000D02*
X12412500Y22375000D01*
G75*
G02*
X12475000Y22312500I0J-62500D01*
G01*
X12475000Y21612500D01*
G75*
G02*
X12412500Y21550000I-62500J0D01*
G01*
X12287500Y21550000D01*
G75*
G02*
X12225000Y21612500I0J62500D01*
G01*
X12225000Y22312500D01*
G75*
G02*
X12287500Y22375000I62500J0D01*
G01*
G37*
G36*
G01*
X12787500Y22375000D02*
X12912500Y22375000D01*
G75*
G02*
X12975000Y22312500I0J-62500D01*
G01*
X12975000Y21612500D01*
G75*
G02*
X12912500Y21550000I-62500J0D01*
G01*
X12787500Y21550000D01*
G75*
G02*
X12725000Y21612500I0J62500D01*
G01*
X12725000Y22312500D01*
G75*
G02*
X12787500Y22375000I62500J0D01*
G01*
G37*
G36*
G01*
X13287500Y22375000D02*
X13412500Y22375000D01*
G75*
G02*
X13475000Y22312500I0J-62500D01*
G01*
X13475000Y21612500D01*
G75*
G02*
X13412500Y21550000I-62500J0D01*
G01*
X13287500Y21550000D01*
G75*
G02*
X13225000Y21612500I0J62500D01*
G01*
X13225000Y22312500D01*
G75*
G02*
X13287500Y22375000I62500J0D01*
G01*
G37*
G36*
G01*
X39856250Y42300000D02*
X39343750Y42300000D01*
G75*
G02*
X39125000Y42518750I0J218750D01*
G01*
X39125000Y42956250D01*
G75*
G02*
X39343750Y43175000I218750J0D01*
G01*
X39856250Y43175000D01*
G75*
G02*
X40075000Y42956250I0J-218750D01*
G01*
X40075000Y42518750D01*
G75*
G02*
X39856250Y42300000I-218750J0D01*
G01*
G37*
G36*
G01*
X39856250Y40725000D02*
X39343750Y40725000D01*
G75*
G02*
X39125000Y40943750I0J218750D01*
G01*
X39125000Y41381250D01*
G75*
G02*
X39343750Y41600000I218750J0D01*
G01*
X39856250Y41600000D01*
G75*
G02*
X40075000Y41381250I0J-218750D01*
G01*
X40075000Y40943750D01*
G75*
G02*
X39856250Y40725000I-218750J0D01*
G01*
G37*
G36*
G01*
X38356250Y42300000D02*
X37843750Y42300000D01*
G75*
G02*
X37625000Y42518750I0J218750D01*
G01*
X37625000Y42956250D01*
G75*
G02*
X37843750Y43175000I218750J0D01*
G01*
X38356250Y43175000D01*
G75*
G02*
X38575000Y42956250I0J-218750D01*
G01*
X38575000Y42518750D01*
G75*
G02*
X38356250Y42300000I-218750J0D01*
G01*
G37*
G36*
G01*
X38356250Y40725000D02*
X37843750Y40725000D01*
G75*
G02*
X37625000Y40943750I0J218750D01*
G01*
X37625000Y41381250D01*
G75*
G02*
X37843750Y41600000I218750J0D01*
G01*
X38356250Y41600000D01*
G75*
G02*
X38575000Y41381250I0J-218750D01*
G01*
X38575000Y40943750D01*
G75*
G02*
X38356250Y40725000I-218750J0D01*
G01*
G37*
G36*
G01*
X36856250Y42300000D02*
X36343750Y42300000D01*
G75*
G02*
X36125000Y42518750I0J218750D01*
G01*
X36125000Y42956250D01*
G75*
G02*
X36343750Y43175000I218750J0D01*
G01*
X36856250Y43175000D01*
G75*
G02*
X37075000Y42956250I0J-218750D01*
G01*
X37075000Y42518750D01*
G75*
G02*
X36856250Y42300000I-218750J0D01*
G01*
G37*
G36*
G01*
X36856250Y40725000D02*
X36343750Y40725000D01*
G75*
G02*
X36125000Y40943750I0J218750D01*
G01*
X36125000Y41381250D01*
G75*
G02*
X36343750Y41600000I218750J0D01*
G01*
X36856250Y41600000D01*
G75*
G02*
X37075000Y41381250I0J-218750D01*
G01*
X37075000Y40943750D01*
G75*
G02*
X36856250Y40725000I-218750J0D01*
G01*
G37*
G36*
G01*
X28433709Y24928684D02*
X28071316Y24566291D01*
G75*
G02*
X27761956Y24566291I-154680J154680D01*
G01*
X27452597Y24875650D01*
G75*
G02*
X27452597Y25185010I154680J154680D01*
G01*
X27814990Y25547403D01*
G75*
G02*
X28124350Y25547403I154680J-154680D01*
G01*
X28433709Y25238044D01*
G75*
G02*
X28433709Y24928684I-154680J-154680D01*
G01*
G37*
G36*
G01*
X29547403Y23814990D02*
X29185010Y23452597D01*
G75*
G02*
X28875650Y23452597I-154680J154680D01*
G01*
X28566291Y23761956D01*
G75*
G02*
X28566291Y24071316I154680J154680D01*
G01*
X28928684Y24433709D01*
G75*
G02*
X29238044Y24433709I154680J-154680D01*
G01*
X29547403Y24124350D01*
G75*
G02*
X29547403Y23814990I-154680J-154680D01*
G01*
G37*
D15*
X36150000Y13450000D03*
X34850000Y13450000D03*
X35500000Y11550000D03*
X35500000Y13450000D03*
X34850000Y11550000D03*
X36150000Y11550000D03*
D16*
X33175000Y9825000D03*
X37325000Y9825000D03*
X33175000Y7675000D03*
X37325000Y7675000D03*
X37325000Y3675000D03*
X33175000Y3675000D03*
X37325000Y5825000D03*
X33175000Y5825000D03*
G36*
G01*
X30953033Y22293413D02*
X31306587Y22646967D01*
G75*
G02*
X31624785Y22646967I159099J-159099D01*
G01*
X31942983Y22328769D01*
G75*
G02*
X31942983Y22010571I-159099J-159099D01*
G01*
X31589429Y21657017D01*
G75*
G02*
X31271231Y21657017I-159099J159099D01*
G01*
X30953033Y21975215D01*
G75*
G02*
X30953033Y22293413I159099J159099D01*
G01*
G37*
G36*
G01*
X29857017Y23389429D02*
X30210571Y23742983D01*
G75*
G02*
X30528769Y23742983I159099J-159099D01*
G01*
X30846967Y23424785D01*
G75*
G02*
X30846967Y23106587I-159099J-159099D01*
G01*
X30493413Y22753033D01*
G75*
G02*
X30175215Y22753033I-159099J159099D01*
G01*
X29857017Y23071231D01*
G75*
G02*
X29857017Y23389429I159099J159099D01*
G01*
G37*
G36*
G01*
X12225000Y44775000D02*
X12225000Y45325000D01*
G75*
G02*
X12425000Y45525000I200000J0D01*
G01*
X12825000Y45525000D01*
G75*
G02*
X13025000Y45325000I0J-200000D01*
G01*
X13025000Y44775000D01*
G75*
G02*
X12825000Y44575000I-200000J0D01*
G01*
X12425000Y44575000D01*
G75*
G02*
X12225000Y44775000I0J200000D01*
G01*
G37*
G36*
G01*
X10575000Y44775000D02*
X10575000Y45325000D01*
G75*
G02*
X10775000Y45525000I200000J0D01*
G01*
X11175000Y45525000D01*
G75*
G02*
X11375000Y45325000I0J-200000D01*
G01*
X11375000Y44775000D01*
G75*
G02*
X11175000Y44575000I-200000J0D01*
G01*
X10775000Y44575000D01*
G75*
G02*
X10575000Y44775000I0J200000D01*
G01*
G37*
G36*
G01*
X7075000Y11825000D02*
X7075000Y11275000D01*
G75*
G02*
X6875000Y11075000I-200000J0D01*
G01*
X6475000Y11075000D01*
G75*
G02*
X6275000Y11275000I0J200000D01*
G01*
X6275000Y11825000D01*
G75*
G02*
X6475000Y12025000I200000J0D01*
G01*
X6875000Y12025000D01*
G75*
G02*
X7075000Y11825000I0J-200000D01*
G01*
G37*
G36*
G01*
X8725000Y11825000D02*
X8725000Y11275000D01*
G75*
G02*
X8525000Y11075000I-200000J0D01*
G01*
X8125000Y11075000D01*
G75*
G02*
X7925000Y11275000I0J200000D01*
G01*
X7925000Y11825000D01*
G75*
G02*
X8125000Y12025000I200000J0D01*
G01*
X8525000Y12025000D01*
G75*
G02*
X8725000Y11825000I0J-200000D01*
G01*
G37*
D17*
X10900000Y10400000D03*
X9950000Y12400000D03*
X11850000Y12400000D03*
G36*
G01*
X11450000Y46806250D02*
X11450000Y46293750D01*
G75*
G02*
X11231250Y46075000I-218750J0D01*
G01*
X10793750Y46075000D01*
G75*
G02*
X10575000Y46293750I0J218750D01*
G01*
X10575000Y46806250D01*
G75*
G02*
X10793750Y47025000I218750J0D01*
G01*
X11231250Y47025000D01*
G75*
G02*
X11450000Y46806250I0J-218750D01*
G01*
G37*
G36*
G01*
X13025000Y46806250D02*
X13025000Y46293750D01*
G75*
G02*
X12806250Y46075000I-218750J0D01*
G01*
X12368750Y46075000D01*
G75*
G02*
X12150000Y46293750I0J218750D01*
G01*
X12150000Y46806250D01*
G75*
G02*
X12368750Y47025000I218750J0D01*
G01*
X12806250Y47025000D01*
G75*
G02*
X13025000Y46806250I0J-218750D01*
G01*
G37*
G36*
G01*
X17475000Y44775000D02*
X16975000Y44775000D01*
G75*
G02*
X16750000Y45000000I0J225000D01*
G01*
X16750000Y45450000D01*
G75*
G02*
X16975000Y45675000I225000J0D01*
G01*
X17475000Y45675000D01*
G75*
G02*
X17700000Y45450000I0J-225000D01*
G01*
X17700000Y45000000D01*
G75*
G02*
X17475000Y44775000I-225000J0D01*
G01*
G37*
G36*
G01*
X17475000Y43225000D02*
X16975000Y43225000D01*
G75*
G02*
X16750000Y43450000I0J225000D01*
G01*
X16750000Y43900000D01*
G75*
G02*
X16975000Y44125000I225000J0D01*
G01*
X17475000Y44125000D01*
G75*
G02*
X17700000Y43900000I0J-225000D01*
G01*
X17700000Y43450000D01*
G75*
G02*
X17475000Y43225000I-225000J0D01*
G01*
G37*
G36*
G01*
X15775001Y46050000D02*
X14474999Y46050000D01*
G75*
G02*
X14225000Y46299999I0J249999D01*
G01*
X14225000Y46950001D01*
G75*
G02*
X14474999Y47200000I249999J0D01*
G01*
X15775001Y47200000D01*
G75*
G02*
X16025000Y46950001I0J-249999D01*
G01*
X16025000Y46299999D01*
G75*
G02*
X15775001Y46050000I-249999J0D01*
G01*
G37*
G36*
G01*
X15775001Y43100000D02*
X14474999Y43100000D01*
G75*
G02*
X14225000Y43349999I0J249999D01*
G01*
X14225000Y44000001D01*
G75*
G02*
X14474999Y44250000I249999J0D01*
G01*
X15775001Y44250000D01*
G75*
G02*
X16025000Y44000001I0J-249999D01*
G01*
X16025000Y43349999D01*
G75*
G02*
X15775001Y43100000I-249999J0D01*
G01*
G37*
G36*
G01*
X35425000Y17250000D02*
X36375000Y17250000D01*
G75*
G02*
X36625000Y17000000I0J-250000D01*
G01*
X36625000Y16500000D01*
G75*
G02*
X36375000Y16250000I-250000J0D01*
G01*
X35425000Y16250000D01*
G75*
G02*
X35175000Y16500000I0J250000D01*
G01*
X35175000Y17000000D01*
G75*
G02*
X35425000Y17250000I250000J0D01*
G01*
G37*
G36*
G01*
X35425000Y19150000D02*
X36375000Y19150000D01*
G75*
G02*
X36625000Y18900000I0J-250000D01*
G01*
X36625000Y18400000D01*
G75*
G02*
X36375000Y18150000I-250000J0D01*
G01*
X35425000Y18150000D01*
G75*
G02*
X35175000Y18400000I0J250000D01*
G01*
X35175000Y18900000D01*
G75*
G02*
X35425000Y19150000I250000J0D01*
G01*
G37*
G36*
G01*
X30443413Y19596967D02*
X30796967Y19243413D01*
G75*
G02*
X30796967Y18925215I-159099J-159099D01*
G01*
X30478769Y18607017D01*
G75*
G02*
X30160571Y18607017I-159099J159099D01*
G01*
X29807017Y18960571D01*
G75*
G02*
X29807017Y19278769I159099J159099D01*
G01*
X30125215Y19596967D01*
G75*
G02*
X30443413Y19596967I159099J-159099D01*
G01*
G37*
G36*
G01*
X31539429Y20692983D02*
X31892983Y20339429D01*
G75*
G02*
X31892983Y20021231I-159099J-159099D01*
G01*
X31574785Y19703033D01*
G75*
G02*
X31256587Y19703033I-159099J159099D01*
G01*
X30903033Y20056587D01*
G75*
G02*
X30903033Y20374785I159099J159099D01*
G01*
X31221231Y20692983D01*
G75*
G02*
X31539429Y20692983I159099J-159099D01*
G01*
G37*
G36*
G01*
X17650000Y19375000D02*
X17650000Y18425000D01*
G75*
G02*
X17400000Y18175000I-250000J0D01*
G01*
X16900000Y18175000D01*
G75*
G02*
X16650000Y18425000I0J250000D01*
G01*
X16650000Y19375000D01*
G75*
G02*
X16900000Y19625000I250000J0D01*
G01*
X17400000Y19625000D01*
G75*
G02*
X17650000Y19375000I0J-250000D01*
G01*
G37*
G36*
G01*
X19550000Y19375000D02*
X19550000Y18425000D01*
G75*
G02*
X19300000Y18175000I-250000J0D01*
G01*
X18800000Y18175000D01*
G75*
G02*
X18550000Y18425000I0J250000D01*
G01*
X18550000Y19375000D01*
G75*
G02*
X18800000Y19625000I250000J0D01*
G01*
X19300000Y19625000D01*
G75*
G02*
X19550000Y19375000I0J-250000D01*
G01*
G37*
G36*
G01*
X17650000Y17275000D02*
X17650000Y16325000D01*
G75*
G02*
X17400000Y16075000I-250000J0D01*
G01*
X16900000Y16075000D01*
G75*
G02*
X16650000Y16325000I0J250000D01*
G01*
X16650000Y17275000D01*
G75*
G02*
X16900000Y17525000I250000J0D01*
G01*
X17400000Y17525000D01*
G75*
G02*
X17650000Y17275000I0J-250000D01*
G01*
G37*
G36*
G01*
X19550000Y17275000D02*
X19550000Y16325000D01*
G75*
G02*
X19300000Y16075000I-250000J0D01*
G01*
X18800000Y16075000D01*
G75*
G02*
X18550000Y16325000I0J250000D01*
G01*
X18550000Y17275000D01*
G75*
G02*
X18800000Y17525000I250000J0D01*
G01*
X19300000Y17525000D01*
G75*
G02*
X19550000Y17275000I0J-250000D01*
G01*
G37*
G36*
G01*
X10825000Y16950000D02*
X10825000Y17450000D01*
G75*
G02*
X11050000Y17675000I225000J0D01*
G01*
X11500000Y17675000D01*
G75*
G02*
X11725000Y17450000I0J-225000D01*
G01*
X11725000Y16950000D01*
G75*
G02*
X11500000Y16725000I-225000J0D01*
G01*
X11050000Y16725000D01*
G75*
G02*
X10825000Y16950000I0J225000D01*
G01*
G37*
G36*
G01*
X9275000Y16950000D02*
X9275000Y17450000D01*
G75*
G02*
X9500000Y17675000I225000J0D01*
G01*
X9950000Y17675000D01*
G75*
G02*
X10175000Y17450000I0J-225000D01*
G01*
X10175000Y16950000D01*
G75*
G02*
X9950000Y16725000I-225000J0D01*
G01*
X9500000Y16725000D01*
G75*
G02*
X9275000Y16950000I0J225000D01*
G01*
G37*
G36*
G01*
X14950000Y14225000D02*
X14950000Y15175000D01*
G75*
G02*
X15200000Y15425000I250000J0D01*
G01*
X15700000Y15425000D01*
G75*
G02*
X15950000Y15175000I0J-250000D01*
G01*
X15950000Y14225000D01*
G75*
G02*
X15700000Y13975000I-250000J0D01*
G01*
X15200000Y13975000D01*
G75*
G02*
X14950000Y14225000I0J250000D01*
G01*
G37*
G36*
G01*
X13050000Y14225000D02*
X13050000Y15175000D01*
G75*
G02*
X13300000Y15425000I250000J0D01*
G01*
X13800000Y15425000D01*
G75*
G02*
X14050000Y15175000I0J-250000D01*
G01*
X14050000Y14225000D01*
G75*
G02*
X13800000Y13975000I-250000J0D01*
G01*
X13300000Y13975000D01*
G75*
G02*
X13050000Y14225000I0J250000D01*
G01*
G37*
G36*
G01*
X14950000Y16325000D02*
X14950000Y17275000D01*
G75*
G02*
X15200000Y17525000I250000J0D01*
G01*
X15700000Y17525000D01*
G75*
G02*
X15950000Y17275000I0J-250000D01*
G01*
X15950000Y16325000D01*
G75*
G02*
X15700000Y16075000I-250000J0D01*
G01*
X15200000Y16075000D01*
G75*
G02*
X14950000Y16325000I0J250000D01*
G01*
G37*
G36*
G01*
X13050000Y16325000D02*
X13050000Y17275000D01*
G75*
G02*
X13300000Y17525000I250000J0D01*
G01*
X13800000Y17525000D01*
G75*
G02*
X14050000Y17275000I0J-250000D01*
G01*
X14050000Y16325000D01*
G75*
G02*
X13800000Y16075000I-250000J0D01*
G01*
X13300000Y16075000D01*
G75*
G02*
X13050000Y16325000I0J250000D01*
G01*
G37*
D18*
X25500000Y14700000D03*
X24550000Y14700000D03*
X26450000Y14700000D03*
X26450000Y12500000D03*
X25500000Y12500000D03*
X24550000Y12500000D03*
D19*
X36862500Y32500000D03*
D20*
X41500000Y34912500D03*
D19*
X41637500Y32500000D03*
D20*
X41500000Y31587500D03*
D19*
X41637500Y33000000D03*
X41637500Y33500000D03*
X41637500Y34000000D03*
D20*
X41000000Y31587500D03*
X40500000Y31587500D03*
X40000000Y31587500D03*
X39500000Y31587500D03*
X39000000Y31587500D03*
X38500000Y31587500D03*
X38000000Y31587500D03*
X37500000Y31587500D03*
X37000000Y31587500D03*
X41000000Y34912500D03*
X40500000Y34912500D03*
X40000000Y34912500D03*
X39500000Y34912500D03*
X39000000Y34912500D03*
X38500000Y34912500D03*
X38000000Y34912500D03*
X37500000Y34912500D03*
X37000000Y34912500D03*
D19*
X36862500Y33000000D03*
X36862500Y33500000D03*
X36862500Y34000000D03*
D21*
X18400000Y13700000D03*
X18400000Y10900000D03*
D22*
X38150000Y46500000D03*
X39650000Y46500000D03*
X39650000Y45400000D03*
X38150000Y45400000D03*
D23*
X39525000Y20175001D03*
X35775000Y20175001D03*
X37025000Y20175001D03*
X38275000Y20175001D03*
X35775000Y22325001D03*
X37025000Y22325001D03*
X38275000Y22325001D03*
X39525000Y22325001D03*
D24*
X38907485Y29600000D03*
X41407485Y29600000D03*
G36*
G01*
X44100000Y31493750D02*
X44100000Y32006250D01*
G75*
G02*
X44318750Y32225000I218750J0D01*
G01*
X44756250Y32225000D01*
G75*
G02*
X44975000Y32006250I0J-218750D01*
G01*
X44975000Y31493750D01*
G75*
G02*
X44756250Y31275000I-218750J0D01*
G01*
X44318750Y31275000D01*
G75*
G02*
X44100000Y31493750I0J218750D01*
G01*
G37*
G36*
G01*
X42525000Y31493750D02*
X42525000Y32006250D01*
G75*
G02*
X42743750Y32225000I218750J0D01*
G01*
X43181250Y32225000D01*
G75*
G02*
X43400000Y32006250I0J-218750D01*
G01*
X43400000Y31493750D01*
G75*
G02*
X43181250Y31275000I-218750J0D01*
G01*
X42743750Y31275000D01*
G75*
G02*
X42525000Y31493750I0J218750D01*
G01*
G37*
G36*
G01*
X44100000Y29993750D02*
X44100000Y30506250D01*
G75*
G02*
X44318750Y30725000I218750J0D01*
G01*
X44756250Y30725000D01*
G75*
G02*
X44975000Y30506250I0J-218750D01*
G01*
X44975000Y29993750D01*
G75*
G02*
X44756250Y29775000I-218750J0D01*
G01*
X44318750Y29775000D01*
G75*
G02*
X44100000Y29993750I0J218750D01*
G01*
G37*
G36*
G01*
X42525000Y29993750D02*
X42525000Y30506250D01*
G75*
G02*
X42743750Y30725000I218750J0D01*
G01*
X43181250Y30725000D01*
G75*
G02*
X43400000Y30506250I0J-218750D01*
G01*
X43400000Y29993750D01*
G75*
G02*
X43181250Y29775000I-218750J0D01*
G01*
X42743750Y29775000D01*
G75*
G02*
X42525000Y29993750I0J218750D01*
G01*
G37*
G36*
G01*
X40756250Y37600000D02*
X40243750Y37600000D01*
G75*
G02*
X40025000Y37818750I0J218750D01*
G01*
X40025000Y38256250D01*
G75*
G02*
X40243750Y38475000I218750J0D01*
G01*
X40756250Y38475000D01*
G75*
G02*
X40975000Y38256250I0J-218750D01*
G01*
X40975000Y37818750D01*
G75*
G02*
X40756250Y37600000I-218750J0D01*
G01*
G37*
G36*
G01*
X40756250Y36025000D02*
X40243750Y36025000D01*
G75*
G02*
X40025000Y36243750I0J218750D01*
G01*
X40025000Y36681250D01*
G75*
G02*
X40243750Y36900000I218750J0D01*
G01*
X40756250Y36900000D01*
G75*
G02*
X40975000Y36681250I0J-218750D01*
G01*
X40975000Y36243750D01*
G75*
G02*
X40756250Y36025000I-218750J0D01*
G01*
G37*
G36*
G01*
X39256250Y27350000D02*
X38743750Y27350000D01*
G75*
G02*
X38525000Y27568750I0J218750D01*
G01*
X38525000Y28006250D01*
G75*
G02*
X38743750Y28225000I218750J0D01*
G01*
X39256250Y28225000D01*
G75*
G02*
X39475000Y28006250I0J-218750D01*
G01*
X39475000Y27568750D01*
G75*
G02*
X39256250Y27350000I-218750J0D01*
G01*
G37*
G36*
G01*
X39256250Y25775000D02*
X38743750Y25775000D01*
G75*
G02*
X38525000Y25993750I0J218750D01*
G01*
X38525000Y26431250D01*
G75*
G02*
X38743750Y26650000I218750J0D01*
G01*
X39256250Y26650000D01*
G75*
G02*
X39475000Y26431250I0J-218750D01*
G01*
X39475000Y25993750D01*
G75*
G02*
X39256250Y25775000I-218750J0D01*
G01*
G37*
G36*
G01*
X29321316Y20683709D02*
X29683709Y20321316D01*
G75*
G02*
X29683709Y20011956I-154680J-154680D01*
G01*
X29374350Y19702597D01*
G75*
G02*
X29064990Y19702597I-154680J154680D01*
G01*
X28702597Y20064990D01*
G75*
G02*
X28702597Y20374350I154680J154680D01*
G01*
X29011956Y20683709D01*
G75*
G02*
X29321316Y20683709I154680J-154680D01*
G01*
G37*
G36*
G01*
X30435010Y21797403D02*
X30797403Y21435010D01*
G75*
G02*
X30797403Y21125650I-154680J-154680D01*
G01*
X30488044Y20816291D01*
G75*
G02*
X30178684Y20816291I-154680J154680D01*
G01*
X29816291Y21178684D01*
G75*
G02*
X29816291Y21488044I154680J154680D01*
G01*
X30125650Y21797403D01*
G75*
G02*
X30435010Y21797403I154680J-154680D01*
G01*
G37*
G36*
G01*
X37393750Y17601903D02*
X37906250Y17601903D01*
G75*
G02*
X38125000Y17383153I0J-218750D01*
G01*
X38125000Y16945653D01*
G75*
G02*
X37906250Y16726903I-218750J0D01*
G01*
X37393750Y16726903D01*
G75*
G02*
X37175000Y16945653I0J218750D01*
G01*
X37175000Y17383153D01*
G75*
G02*
X37393750Y17601903I218750J0D01*
G01*
G37*
G36*
G01*
X37393750Y19176903D02*
X37906250Y19176903D01*
G75*
G02*
X38125000Y18958153I0J-218750D01*
G01*
X38125000Y18520653D01*
G75*
G02*
X37906250Y18301903I-218750J0D01*
G01*
X37393750Y18301903D01*
G75*
G02*
X37175000Y18520653I0J218750D01*
G01*
X37175000Y18958153D01*
G75*
G02*
X37393750Y19176903I218750J0D01*
G01*
G37*
G36*
G01*
X38893750Y17601903D02*
X39406250Y17601903D01*
G75*
G02*
X39625000Y17383153I0J-218750D01*
G01*
X39625000Y16945653D01*
G75*
G02*
X39406250Y16726903I-218750J0D01*
G01*
X38893750Y16726903D01*
G75*
G02*
X38675000Y16945653I0J218750D01*
G01*
X38675000Y17383153D01*
G75*
G02*
X38893750Y17601903I218750J0D01*
G01*
G37*
G36*
G01*
X38893750Y19176903D02*
X39406250Y19176903D01*
G75*
G02*
X39625000Y18958153I0J-218750D01*
G01*
X39625000Y18520653D01*
G75*
G02*
X39406250Y18301903I-218750J0D01*
G01*
X38893750Y18301903D01*
G75*
G02*
X38675000Y18520653I0J218750D01*
G01*
X38675000Y18958153D01*
G75*
G02*
X38893750Y19176903I218750J0D01*
G01*
G37*
G36*
G01*
X33893750Y20253554D02*
X34406250Y20253554D01*
G75*
G02*
X34625000Y20034804I0J-218750D01*
G01*
X34625000Y19597304D01*
G75*
G02*
X34406250Y19378554I-218750J0D01*
G01*
X33893750Y19378554D01*
G75*
G02*
X33675000Y19597304I0J218750D01*
G01*
X33675000Y20034804D01*
G75*
G02*
X33893750Y20253554I218750J0D01*
G01*
G37*
G36*
G01*
X33893750Y21828554D02*
X34406250Y21828554D01*
G75*
G02*
X34625000Y21609804I0J-218750D01*
G01*
X34625000Y21172304D01*
G75*
G02*
X34406250Y20953554I-218750J0D01*
G01*
X33893750Y20953554D01*
G75*
G02*
X33675000Y21172304I0J218750D01*
G01*
X33675000Y21609804D01*
G75*
G02*
X33893750Y21828554I218750J0D01*
G01*
G37*
G36*
G01*
X39256250Y5150000D02*
X38743750Y5150000D01*
G75*
G02*
X38525000Y5368750I0J218750D01*
G01*
X38525000Y5806250D01*
G75*
G02*
X38743750Y6025000I218750J0D01*
G01*
X39256250Y6025000D01*
G75*
G02*
X39475000Y5806250I0J-218750D01*
G01*
X39475000Y5368750D01*
G75*
G02*
X39256250Y5150000I-218750J0D01*
G01*
G37*
G36*
G01*
X39256250Y3575000D02*
X38743750Y3575000D01*
G75*
G02*
X38525000Y3793750I0J218750D01*
G01*
X38525000Y4231250D01*
G75*
G02*
X38743750Y4450000I218750J0D01*
G01*
X39256250Y4450000D01*
G75*
G02*
X39475000Y4231250I0J-218750D01*
G01*
X39475000Y3793750D01*
G75*
G02*
X39256250Y3575000I-218750J0D01*
G01*
G37*
G36*
G01*
X39256250Y9150000D02*
X38743750Y9150000D01*
G75*
G02*
X38525000Y9368750I0J218750D01*
G01*
X38525000Y9806250D01*
G75*
G02*
X38743750Y10025000I218750J0D01*
G01*
X39256250Y10025000D01*
G75*
G02*
X39475000Y9806250I0J-218750D01*
G01*
X39475000Y9368750D01*
G75*
G02*
X39256250Y9150000I-218750J0D01*
G01*
G37*
G36*
G01*
X39256250Y7575000D02*
X38743750Y7575000D01*
G75*
G02*
X38525000Y7793750I0J218750D01*
G01*
X38525000Y8231250D01*
G75*
G02*
X38743750Y8450000I218750J0D01*
G01*
X39256250Y8450000D01*
G75*
G02*
X39475000Y8231250I0J-218750D01*
G01*
X39475000Y7793750D01*
G75*
G02*
X39256250Y7575000I-218750J0D01*
G01*
G37*
G36*
G01*
X23256250Y12600000D02*
X22743750Y12600000D01*
G75*
G02*
X22525000Y12818750I0J218750D01*
G01*
X22525000Y13256250D01*
G75*
G02*
X22743750Y13475000I218750J0D01*
G01*
X23256250Y13475000D01*
G75*
G02*
X23475000Y13256250I0J-218750D01*
G01*
X23475000Y12818750D01*
G75*
G02*
X23256250Y12600000I-218750J0D01*
G01*
G37*
G36*
G01*
X23256250Y11025000D02*
X22743750Y11025000D01*
G75*
G02*
X22525000Y11243750I0J218750D01*
G01*
X22525000Y11681250D01*
G75*
G02*
X22743750Y11900000I218750J0D01*
G01*
X23256250Y11900000D01*
G75*
G02*
X23475000Y11681250I0J-218750D01*
G01*
X23475000Y11243750D01*
G75*
G02*
X23256250Y11025000I-218750J0D01*
G01*
G37*
G36*
G01*
X27743750Y11900000D02*
X28256250Y11900000D01*
G75*
G02*
X28475000Y11681250I0J-218750D01*
G01*
X28475000Y11243750D01*
G75*
G02*
X28256250Y11025000I-218750J0D01*
G01*
X27743750Y11025000D01*
G75*
G02*
X27525000Y11243750I0J218750D01*
G01*
X27525000Y11681250D01*
G75*
G02*
X27743750Y11900000I218750J0D01*
G01*
G37*
G36*
G01*
X27743750Y13475000D02*
X28256250Y13475000D01*
G75*
G02*
X28475000Y13256250I0J-218750D01*
G01*
X28475000Y12818750D01*
G75*
G02*
X28256250Y12600000I-218750J0D01*
G01*
X27743750Y12600000D01*
G75*
G02*
X27525000Y12818750I0J218750D01*
G01*
X27525000Y13256250D01*
G75*
G02*
X27743750Y13475000I218750J0D01*
G01*
G37*
G36*
G01*
X31243750Y7650000D02*
X31756250Y7650000D01*
G75*
G02*
X31975000Y7431250I0J-218750D01*
G01*
X31975000Y6993750D01*
G75*
G02*
X31756250Y6775000I-218750J0D01*
G01*
X31243750Y6775000D01*
G75*
G02*
X31025000Y6993750I0J218750D01*
G01*
X31025000Y7431250D01*
G75*
G02*
X31243750Y7650000I218750J0D01*
G01*
G37*
G36*
G01*
X31243750Y9225000D02*
X31756250Y9225000D01*
G75*
G02*
X31975000Y9006250I0J-218750D01*
G01*
X31975000Y8568750D01*
G75*
G02*
X31756250Y8350000I-218750J0D01*
G01*
X31243750Y8350000D01*
G75*
G02*
X31025000Y8568750I0J218750D01*
G01*
X31025000Y9006250D01*
G75*
G02*
X31243750Y9225000I218750J0D01*
G01*
G37*
G36*
G01*
X31150000Y17093750D02*
X31150000Y17606250D01*
G75*
G02*
X31368750Y17825000I218750J0D01*
G01*
X31806250Y17825000D01*
G75*
G02*
X32025000Y17606250I0J-218750D01*
G01*
X32025000Y17093750D01*
G75*
G02*
X31806250Y16875000I-218750J0D01*
G01*
X31368750Y16875000D01*
G75*
G02*
X31150000Y17093750I0J218750D01*
G01*
G37*
G36*
G01*
X29575000Y17093750D02*
X29575000Y17606250D01*
G75*
G02*
X29793750Y17825000I218750J0D01*
G01*
X30231250Y17825000D01*
G75*
G02*
X30450000Y17606250I0J-218750D01*
G01*
X30450000Y17093750D01*
G75*
G02*
X30231250Y16875000I-218750J0D01*
G01*
X29793750Y16875000D01*
G75*
G02*
X29575000Y17093750I0J218750D01*
G01*
G37*
G36*
G01*
X35506250Y34600000D02*
X34993750Y34600000D01*
G75*
G02*
X34775000Y34818750I0J218750D01*
G01*
X34775000Y35256250D01*
G75*
G02*
X34993750Y35475000I218750J0D01*
G01*
X35506250Y35475000D01*
G75*
G02*
X35725000Y35256250I0J-218750D01*
G01*
X35725000Y34818750D01*
G75*
G02*
X35506250Y34600000I-218750J0D01*
G01*
G37*
G36*
G01*
X35506250Y33025000D02*
X34993750Y33025000D01*
G75*
G02*
X34775000Y33243750I0J218750D01*
G01*
X34775000Y33681250D01*
G75*
G02*
X34993750Y33900000I218750J0D01*
G01*
X35506250Y33900000D01*
G75*
G02*
X35725000Y33681250I0J-218750D01*
G01*
X35725000Y33243750D01*
G75*
G02*
X35506250Y33025000I-218750J0D01*
G01*
G37*
G36*
G01*
X44100000Y36118750D02*
X44100000Y36631250D01*
G75*
G02*
X44318750Y36850000I218750J0D01*
G01*
X44756250Y36850000D01*
G75*
G02*
X44975000Y36631250I0J-218750D01*
G01*
X44975000Y36118750D01*
G75*
G02*
X44756250Y35900000I-218750J0D01*
G01*
X44318750Y35900000D01*
G75*
G02*
X44100000Y36118750I0J218750D01*
G01*
G37*
G36*
G01*
X42525000Y36118750D02*
X42525000Y36631250D01*
G75*
G02*
X42743750Y36850000I218750J0D01*
G01*
X43181250Y36850000D01*
G75*
G02*
X43400000Y36631250I0J-218750D01*
G01*
X43400000Y36118750D01*
G75*
G02*
X43181250Y35900000I-218750J0D01*
G01*
X42743750Y35900000D01*
G75*
G02*
X42525000Y36118750I0J218750D01*
G01*
G37*
G36*
G01*
X43400000Y35131250D02*
X43400000Y34618750D01*
G75*
G02*
X43181250Y34400000I-218750J0D01*
G01*
X42743750Y34400000D01*
G75*
G02*
X42525000Y34618750I0J218750D01*
G01*
X42525000Y35131250D01*
G75*
G02*
X42743750Y35350000I218750J0D01*
G01*
X43181250Y35350000D01*
G75*
G02*
X43400000Y35131250I0J-218750D01*
G01*
G37*
G36*
G01*
X44975000Y35131250D02*
X44975000Y34618750D01*
G75*
G02*
X44756250Y34400000I-218750J0D01*
G01*
X44318750Y34400000D01*
G75*
G02*
X44100000Y34618750I0J218750D01*
G01*
X44100000Y35131250D01*
G75*
G02*
X44318750Y35350000I218750J0D01*
G01*
X44756250Y35350000D01*
G75*
G02*
X44975000Y35131250I0J-218750D01*
G01*
G37*
G36*
G01*
X38743750Y36900000D02*
X39256250Y36900000D01*
G75*
G02*
X39475000Y36681250I0J-218750D01*
G01*
X39475000Y36243750D01*
G75*
G02*
X39256250Y36025000I-218750J0D01*
G01*
X38743750Y36025000D01*
G75*
G02*
X38525000Y36243750I0J218750D01*
G01*
X38525000Y36681250D01*
G75*
G02*
X38743750Y36900000I218750J0D01*
G01*
G37*
G36*
G01*
X38743750Y38475000D02*
X39256250Y38475000D01*
G75*
G02*
X39475000Y38256250I0J-218750D01*
G01*
X39475000Y37818750D01*
G75*
G02*
X39256250Y37600000I-218750J0D01*
G01*
X38743750Y37600000D01*
G75*
G02*
X38525000Y37818750I0J218750D01*
G01*
X38525000Y38256250D01*
G75*
G02*
X38743750Y38475000I218750J0D01*
G01*
G37*
G36*
G01*
X35743750Y36900000D02*
X36256250Y36900000D01*
G75*
G02*
X36475000Y36681250I0J-218750D01*
G01*
X36475000Y36243750D01*
G75*
G02*
X36256250Y36025000I-218750J0D01*
G01*
X35743750Y36025000D01*
G75*
G02*
X35525000Y36243750I0J218750D01*
G01*
X35525000Y36681250D01*
G75*
G02*
X35743750Y36900000I218750J0D01*
G01*
G37*
G36*
G01*
X35743750Y38475000D02*
X36256250Y38475000D01*
G75*
G02*
X36475000Y38256250I0J-218750D01*
G01*
X36475000Y37818750D01*
G75*
G02*
X36256250Y37600000I-218750J0D01*
G01*
X35743750Y37600000D01*
G75*
G02*
X35525000Y37818750I0J218750D01*
G01*
X35525000Y38256250D01*
G75*
G02*
X35743750Y38475000I218750J0D01*
G01*
G37*
G36*
G01*
X37243750Y36900000D02*
X37756250Y36900000D01*
G75*
G02*
X37975000Y36681250I0J-218750D01*
G01*
X37975000Y36243750D01*
G75*
G02*
X37756250Y36025000I-218750J0D01*
G01*
X37243750Y36025000D01*
G75*
G02*
X37025000Y36243750I0J218750D01*
G01*
X37025000Y36681250D01*
G75*
G02*
X37243750Y36900000I218750J0D01*
G01*
G37*
G36*
G01*
X37243750Y38475000D02*
X37756250Y38475000D01*
G75*
G02*
X37975000Y38256250I0J-218750D01*
G01*
X37975000Y37818750D01*
G75*
G02*
X37756250Y37600000I-218750J0D01*
G01*
X37243750Y37600000D01*
G75*
G02*
X37025000Y37818750I0J218750D01*
G01*
X37025000Y38256250D01*
G75*
G02*
X37243750Y38475000I218750J0D01*
G01*
G37*
G36*
G01*
X22943750Y16750000D02*
X23456250Y16750000D01*
G75*
G02*
X23675000Y16531250I0J-218750D01*
G01*
X23675000Y16093750D01*
G75*
G02*
X23456250Y15875000I-218750J0D01*
G01*
X22943750Y15875000D01*
G75*
G02*
X22725000Y16093750I0J218750D01*
G01*
X22725000Y16531250D01*
G75*
G02*
X22943750Y16750000I218750J0D01*
G01*
G37*
G36*
G01*
X22943750Y18325000D02*
X23456250Y18325000D01*
G75*
G02*
X23675000Y18106250I0J-218750D01*
G01*
X23675000Y17668750D01*
G75*
G02*
X23456250Y17450000I-218750J0D01*
G01*
X22943750Y17450000D01*
G75*
G02*
X22725000Y17668750I0J218750D01*
G01*
X22725000Y18106250D01*
G75*
G02*
X22943750Y18325000I218750J0D01*
G01*
G37*
G36*
G01*
X21856250Y17450000D02*
X21343750Y17450000D01*
G75*
G02*
X21125000Y17668750I0J218750D01*
G01*
X21125000Y18106250D01*
G75*
G02*
X21343750Y18325000I218750J0D01*
G01*
X21856250Y18325000D01*
G75*
G02*
X22075000Y18106250I0J-218750D01*
G01*
X22075000Y17668750D01*
G75*
G02*
X21856250Y17450000I-218750J0D01*
G01*
G37*
G36*
G01*
X21856250Y15875000D02*
X21343750Y15875000D01*
G75*
G02*
X21125000Y16093750I0J218750D01*
G01*
X21125000Y16531250D01*
G75*
G02*
X21343750Y16750000I218750J0D01*
G01*
X21856250Y16750000D01*
G75*
G02*
X22075000Y16531250I0J-218750D01*
G01*
X22075000Y16093750D01*
G75*
G02*
X21856250Y15875000I-218750J0D01*
G01*
G37*
G36*
G01*
X35356250Y42300000D02*
X34843750Y42300000D01*
G75*
G02*
X34625000Y42518750I0J218750D01*
G01*
X34625000Y42956250D01*
G75*
G02*
X34843750Y43175000I218750J0D01*
G01*
X35356250Y43175000D01*
G75*
G02*
X35575000Y42956250I0J-218750D01*
G01*
X35575000Y42518750D01*
G75*
G02*
X35356250Y42300000I-218750J0D01*
G01*
G37*
G36*
G01*
X35356250Y40725000D02*
X34843750Y40725000D01*
G75*
G02*
X34625000Y40943750I0J218750D01*
G01*
X34625000Y41381250D01*
G75*
G02*
X34843750Y41600000I218750J0D01*
G01*
X35356250Y41600000D01*
G75*
G02*
X35575000Y41381250I0J-218750D01*
G01*
X35575000Y40943750D01*
G75*
G02*
X35356250Y40725000I-218750J0D01*
G01*
G37*
G36*
G01*
X33856250Y42300000D02*
X33343750Y42300000D01*
G75*
G02*
X33125000Y42518750I0J218750D01*
G01*
X33125000Y42956250D01*
G75*
G02*
X33343750Y43175000I218750J0D01*
G01*
X33856250Y43175000D01*
G75*
G02*
X34075000Y42956250I0J-218750D01*
G01*
X34075000Y42518750D01*
G75*
G02*
X33856250Y42300000I-218750J0D01*
G01*
G37*
G36*
G01*
X33856250Y40725000D02*
X33343750Y40725000D01*
G75*
G02*
X33125000Y40943750I0J218750D01*
G01*
X33125000Y41381250D01*
G75*
G02*
X33343750Y41600000I218750J0D01*
G01*
X33856250Y41600000D01*
G75*
G02*
X34075000Y41381250I0J-218750D01*
G01*
X34075000Y40943750D01*
G75*
G02*
X33856250Y40725000I-218750J0D01*
G01*
G37*
G36*
G01*
X30450000Y16056250D02*
X30450000Y15543750D01*
G75*
G02*
X30231250Y15325000I-218750J0D01*
G01*
X29793750Y15325000D01*
G75*
G02*
X29575000Y15543750I0J218750D01*
G01*
X29575000Y16056250D01*
G75*
G02*
X29793750Y16275000I218750J0D01*
G01*
X30231250Y16275000D01*
G75*
G02*
X30450000Y16056250I0J-218750D01*
G01*
G37*
G36*
G01*
X32025000Y16056250D02*
X32025000Y15543750D01*
G75*
G02*
X31806250Y15325000I-218750J0D01*
G01*
X31368750Y15325000D01*
G75*
G02*
X31150000Y15543750I0J218750D01*
G01*
X31150000Y16056250D01*
G75*
G02*
X31368750Y16275000I218750J0D01*
G01*
X31806250Y16275000D01*
G75*
G02*
X32025000Y16056250I0J-218750D01*
G01*
G37*
G36*
G01*
X12375000Y3975000D02*
X11125000Y3975000D01*
G75*
G02*
X10875000Y4225000I0J250000D01*
G01*
X10875000Y4975000D01*
G75*
G02*
X11125000Y5225000I250000J0D01*
G01*
X12375000Y5225000D01*
G75*
G02*
X12625000Y4975000I0J-250000D01*
G01*
X12625000Y4225000D01*
G75*
G02*
X12375000Y3975000I-250000J0D01*
G01*
G37*
G36*
G01*
X12375000Y6775000D02*
X11125000Y6775000D01*
G75*
G02*
X10875000Y7025000I0J250000D01*
G01*
X10875000Y7775000D01*
G75*
G02*
X11125000Y8025000I250000J0D01*
G01*
X12375000Y8025000D01*
G75*
G02*
X12625000Y7775000I0J-250000D01*
G01*
X12625000Y7025000D01*
G75*
G02*
X12375000Y6775000I-250000J0D01*
G01*
G37*
D25*
X22300000Y9955000D03*
X28700000Y9955000D03*
X23100000Y9955000D03*
X27900000Y9955000D03*
D26*
X25750000Y9955000D03*
X25250000Y9955000D03*
X26250000Y9955000D03*
X26750000Y9955000D03*
X27250000Y9955000D03*
X24750000Y9955000D03*
X24250000Y9955000D03*
X23750000Y9955000D03*
M02*
