%TF.GenerationSoftware,KiCad,Pcbnew,(5.1.9-0-10_14)*%
%TF.CreationDate,2021-01-25T23:13:15-08:00*%
%TF.ProjectId,flight-computer-2,666c6967-6874-42d6-936f-6d7075746572,rev?*%
%TF.SameCoordinates,PX57bcf00PY58b1140*%
%TF.FileFunction,Copper,L2,Bot*%
%TF.FilePolarity,Positive*%
%FSLAX46Y46*%
G04 Gerber Fmt 4.6, Leading zero omitted, Abs format (unit mm)*
G04 Created by KiCad (PCBNEW (5.1.9-0-10_14)) date 2021-01-25 23:13:15*
%MOMM*%
%LPD*%
G01*
G04 APERTURE LIST*
%TA.AperFunction,ComponentPad*%
%ADD10O,1.700000X1.700000*%
%TD*%
%TA.AperFunction,SMDPad,CuDef*%
%ADD11R,1.680000X1.680000*%
%TD*%
%TA.AperFunction,ComponentPad*%
%ADD12C,0.500000*%
%TD*%
%TA.AperFunction,ComponentPad*%
%ADD13C,1.700000*%
%TD*%
%TA.AperFunction,ComponentPad*%
%ADD14O,1.000000X2.000000*%
%TD*%
%TA.AperFunction,ComponentPad*%
%ADD15O,1.050000X2.100000*%
%TD*%
%TA.AperFunction,ComponentPad*%
%ADD16C,4.400000*%
%TD*%
%TA.AperFunction,ViaPad*%
%ADD17C,0.600000*%
%TD*%
%TA.AperFunction,ViaPad*%
%ADD18C,1.000000*%
%TD*%
%TA.AperFunction,Conductor*%
%ADD19C,1.000000*%
%TD*%
%TA.AperFunction,Conductor*%
%ADD20C,0.300000*%
%TD*%
%TA.AperFunction,Conductor*%
%ADD21C,0.750000*%
%TD*%
%TA.AperFunction,Conductor*%
%ADD22C,0.200000*%
%TD*%
%TA.AperFunction,Conductor*%
%ADD23C,0.100000*%
%TD*%
%TA.AperFunction,Conductor*%
%ADD24C,0.050000*%
%TD*%
G04 APERTURE END LIST*
D10*
X14500000Y9790000D03*
X14500000Y7250000D03*
%TA.AperFunction,ComponentPad*%
G36*
G01*
X15350000Y5135000D02*
X15350000Y4285000D01*
G75*
G02*
X14925000Y3860000I-425000J0D01*
G01*
X14075000Y3860000D01*
G75*
G02*
X13650000Y4285000I0J425000D01*
G01*
X13650000Y5135000D01*
G75*
G02*
X14075000Y5560000I425000J0D01*
G01*
X14925000Y5560000D01*
G75*
G02*
X15350000Y5135000I0J-425000D01*
G01*
G37*
%TD.AperFunction*%
D11*
X12600000Y20500000D03*
D12*
X12010000Y19910000D03*
X12010000Y21090000D03*
X13190000Y19910000D03*
X13190000Y21090000D03*
D13*
X5750000Y30580000D03*
D10*
X8290000Y30580000D03*
X5750000Y28040000D03*
X8290000Y28040000D03*
X5750000Y25500000D03*
X8290000Y25500000D03*
X5750000Y22960000D03*
X8290000Y22960000D03*
D13*
X5750000Y20420000D03*
%TA.AperFunction,ComponentPad*%
G36*
G01*
X7440000Y19995000D02*
X7440000Y20845000D01*
G75*
G02*
X7865000Y21270000I425000J0D01*
G01*
X8715000Y21270000D01*
G75*
G02*
X9140000Y20845000I0J-425000D01*
G01*
X9140000Y19995000D01*
G75*
G02*
X8715000Y19570000I-425000J0D01*
G01*
X7865000Y19570000D01*
G75*
G02*
X7440000Y19995000I0J425000D01*
G01*
G37*
%TD.AperFunction*%
D14*
X21180000Y5200000D03*
X29820000Y5200000D03*
D15*
X21180000Y9380000D03*
X29820000Y9380000D03*
D16*
X8000000Y43000000D03*
X43000000Y43000000D03*
X43000000Y8000000D03*
X8000000Y8000000D03*
%TA.AperFunction,ComponentPad*%
G36*
G01*
X2804990Y6397092D02*
X2804990Y6397092D01*
G75*
G02*
X2804990Y5195010I-601041J-601041D01*
G01*
X2804990Y5195010D01*
G75*
G02*
X1602908Y5195010I-601041J601041D01*
G01*
X1602908Y5195010D01*
G75*
G02*
X1602908Y6397092I601041J601041D01*
G01*
X1602908Y6397092D01*
G75*
G02*
X2804990Y6397092I601041J-601041D01*
G01*
G37*
%TD.AperFunction*%
%TA.AperFunction,ComponentPad*%
G36*
G01*
X4601041Y4601041D02*
X4601041Y4601041D01*
G75*
G02*
X4601041Y3398959I-601041J-601041D01*
G01*
X4601041Y3398959D01*
G75*
G02*
X3398959Y3398959I-601041J601041D01*
G01*
X3398959Y3398959D01*
G75*
G02*
X3398959Y4601041I601041J601041D01*
G01*
X3398959Y4601041D01*
G75*
G02*
X4601041Y4601041I601041J-601041D01*
G01*
G37*
%TD.AperFunction*%
%TA.AperFunction,ComponentPad*%
G36*
G01*
X6096571Y3105510D02*
X6697612Y2504469D01*
G75*
G02*
X6697612Y1903429I-300520J-300520D01*
G01*
X6096571Y1302388D01*
G75*
G02*
X5495531Y1302388I-300520J300520D01*
G01*
X4894490Y1903429D01*
G75*
G02*
X4894490Y2504469I300520J300520D01*
G01*
X5495531Y3105510D01*
G75*
G02*
X6096571Y3105510I300520J-300520D01*
G01*
G37*
%TD.AperFunction*%
%TA.AperFunction,ComponentPad*%
G36*
G01*
X44602908Y2804990D02*
X44602908Y2804990D01*
G75*
G02*
X45804990Y2804990I601041J-601041D01*
G01*
X45804990Y2804990D01*
G75*
G02*
X45804990Y1602908I-601041J-601041D01*
G01*
X45804990Y1602908D01*
G75*
G02*
X44602908Y1602908I-601041J601041D01*
G01*
X44602908Y1602908D01*
G75*
G02*
X44602908Y2804990I601041J601041D01*
G01*
G37*
%TD.AperFunction*%
%TA.AperFunction,ComponentPad*%
G36*
G01*
X46398959Y4601041D02*
X46398959Y4601041D01*
G75*
G02*
X47601041Y4601041I601041J-601041D01*
G01*
X47601041Y4601041D01*
G75*
G02*
X47601041Y3398959I-601041J-601041D01*
G01*
X47601041Y3398959D01*
G75*
G02*
X46398959Y3398959I-601041J601041D01*
G01*
X46398959Y3398959D01*
G75*
G02*
X46398959Y4601041I601041J601041D01*
G01*
G37*
%TD.AperFunction*%
%TA.AperFunction,ComponentPad*%
G36*
G01*
X47894490Y6096571D02*
X48495531Y6697612D01*
G75*
G02*
X49096571Y6697612I300520J-300520D01*
G01*
X49697612Y6096571D01*
G75*
G02*
X49697612Y5495531I-300520J-300520D01*
G01*
X49096571Y4894490D01*
G75*
G02*
X48495531Y4894490I-300520J300520D01*
G01*
X47894490Y5495531D01*
G75*
G02*
X47894490Y6096571I300520J300520D01*
G01*
G37*
%TD.AperFunction*%
%TA.AperFunction,ComponentPad*%
G36*
G01*
X48195010Y44602908D02*
X48195010Y44602908D01*
G75*
G02*
X48195010Y45804990I601041J601041D01*
G01*
X48195010Y45804990D01*
G75*
G02*
X49397092Y45804990I601041J-601041D01*
G01*
X49397092Y45804990D01*
G75*
G02*
X49397092Y44602908I-601041J-601041D01*
G01*
X49397092Y44602908D01*
G75*
G02*
X48195010Y44602908I-601041J601041D01*
G01*
G37*
%TD.AperFunction*%
%TA.AperFunction,ComponentPad*%
G36*
G01*
X46398959Y46398959D02*
X46398959Y46398959D01*
G75*
G02*
X46398959Y47601041I601041J601041D01*
G01*
X46398959Y47601041D01*
G75*
G02*
X47601041Y47601041I601041J-601041D01*
G01*
X47601041Y47601041D01*
G75*
G02*
X47601041Y46398959I-601041J-601041D01*
G01*
X47601041Y46398959D01*
G75*
G02*
X46398959Y46398959I-601041J601041D01*
G01*
G37*
%TD.AperFunction*%
%TA.AperFunction,ComponentPad*%
G36*
G01*
X44903429Y47894490D02*
X44302388Y48495531D01*
G75*
G02*
X44302388Y49096571I300520J300520D01*
G01*
X44903429Y49697612D01*
G75*
G02*
X45504469Y49697612I300520J-300520D01*
G01*
X46105510Y49096571D01*
G75*
G02*
X46105510Y48495531I-300520J-300520D01*
G01*
X45504469Y47894490D01*
G75*
G02*
X44903429Y47894490I-300520J300520D01*
G01*
G37*
%TD.AperFunction*%
%TA.AperFunction,ComponentPad*%
G36*
G01*
X6397092Y48195010D02*
X6397092Y48195010D01*
G75*
G02*
X5195010Y48195010I-601041J601041D01*
G01*
X5195010Y48195010D01*
G75*
G02*
X5195010Y49397092I601041J601041D01*
G01*
X5195010Y49397092D01*
G75*
G02*
X6397092Y49397092I601041J-601041D01*
G01*
X6397092Y49397092D01*
G75*
G02*
X6397092Y48195010I-601041J-601041D01*
G01*
G37*
%TD.AperFunction*%
%TA.AperFunction,ComponentPad*%
G36*
G01*
X4601041Y46398959D02*
X4601041Y46398959D01*
G75*
G02*
X3398959Y46398959I-601041J601041D01*
G01*
X3398959Y46398959D01*
G75*
G02*
X3398959Y47601041I601041J601041D01*
G01*
X3398959Y47601041D01*
G75*
G02*
X4601041Y47601041I601041J-601041D01*
G01*
X4601041Y47601041D01*
G75*
G02*
X4601041Y46398959I-601041J-601041D01*
G01*
G37*
%TD.AperFunction*%
%TA.AperFunction,ComponentPad*%
G36*
G01*
X3105510Y44903429D02*
X2504469Y44302388D01*
G75*
G02*
X1903429Y44302388I-300520J300520D01*
G01*
X1302388Y44903429D01*
G75*
G02*
X1302388Y45504469I300520J300520D01*
G01*
X1903429Y46105510D01*
G75*
G02*
X2504469Y46105510I300520J-300520D01*
G01*
X3105510Y45504469D01*
G75*
G02*
X3105510Y44903429I-300520J-300520D01*
G01*
G37*
%TD.AperFunction*%
D17*
X46100000Y45300000D03*
X45300000Y46100000D03*
X5700000Y46100000D03*
X4900000Y45300000D03*
X45300000Y4900000D03*
X46100000Y5700000D03*
X31500000Y5250000D03*
X5300000Y45700000D03*
X42700001Y2200000D03*
X48850000Y8350000D03*
X39000000Y10950000D03*
X37325000Y8725000D03*
X34100000Y22700000D03*
X31350000Y25275000D03*
X16500000Y15350000D03*
X17400000Y15350000D03*
X21175000Y11050000D03*
X29850000Y11050000D03*
X29250000Y11500000D03*
X21750000Y11500000D03*
X25400000Y11600000D03*
X21250000Y14500000D03*
X20350000Y14500000D03*
X39500000Y33350000D03*
X11200000Y23950000D03*
X11200000Y22750000D03*
X12700000Y9800000D03*
X18050000Y32000000D03*
X22150000Y32550000D03*
X26450000Y18200000D03*
X29750000Y26900000D03*
X26350000Y30800000D03*
X26350000Y29100000D03*
X24650000Y29100000D03*
X26900000Y25500000D03*
X33150000Y15800000D03*
X30000000Y13500000D03*
X15700000Y18900000D03*
X18500000Y22700000D03*
X16250000Y22050000D03*
X15100000Y27000000D03*
X18400000Y27000000D03*
X25500000Y25500000D03*
X27449038Y19199038D03*
X12300000Y26150000D03*
X2200000Y8300000D03*
X8350000Y2150000D03*
X8299999Y48800000D03*
X2150000Y42650000D03*
X48800000Y42700001D03*
X42650000Y48850000D03*
X23000000Y39000000D03*
X28000000Y39000000D03*
X23000000Y42000000D03*
X28000000Y42000000D03*
X20650000Y40500000D03*
X19200000Y47900000D03*
X31800000Y47900000D03*
X31800000Y46100000D03*
X19200000Y46100000D03*
X5300000Y11550000D03*
X7050000Y36100000D03*
X10900000Y36100000D03*
X44900000Y15500000D03*
X43450000Y25000000D03*
X34800000Y28150000D03*
X35250000Y31650000D03*
X31450000Y32600000D03*
X37700000Y39250000D03*
X42300000Y38050000D03*
X45500000Y39550000D03*
X45700000Y45700000D03*
X35950000Y46450000D03*
X17200000Y46650000D03*
X18500000Y42750000D03*
X12050000Y42050000D03*
X19500000Y5250000D03*
X45700000Y5300000D03*
X5300000Y5300000D03*
X4900000Y5700000D03*
X5700000Y4900000D03*
X44525000Y28975000D03*
X16300000Y9800000D03*
X11750000Y6000000D03*
X9900000Y40400000D03*
X7000000Y17200000D03*
X41450000Y14250000D03*
X15000000Y20100000D03*
X39825000Y39525000D03*
X28562500Y25687500D03*
X32525000Y18675000D03*
X34400000Y17750000D03*
D18*
X13350000Y43150000D03*
D17*
X20475000Y18400000D03*
X20475000Y19200000D03*
X20475000Y17600000D03*
X20475000Y16800000D03*
X21425000Y27715541D03*
D18*
X20645213Y30929991D03*
D17*
X35100000Y44250000D03*
X45900000Y33350000D03*
X45900000Y27950000D03*
X36200000Y6750000D03*
X36200000Y10700000D03*
X42100000Y22850000D03*
X20650000Y38900000D03*
X28350000Y35550000D03*
X42552400Y21400000D03*
X4000000Y38900000D03*
X26800000Y15800000D03*
X28100000Y17100000D03*
X24900000Y15800000D03*
X28750000Y19150000D03*
X7050000Y33692030D03*
X7025000Y21800000D03*
X20650000Y37300000D03*
X3150000Y31900000D03*
X21583897Y45189688D03*
X43004810Y19950000D03*
X25677410Y17644024D03*
X21450000Y19100000D03*
X30350000Y40500000D03*
X37000000Y23850000D03*
X29702400Y31792789D03*
X24300000Y33450000D03*
X32475000Y41300000D03*
X32450000Y42450000D03*
X21150000Y44575000D03*
X38208221Y35695051D03*
X20100000Y12500000D03*
X20800000Y12500000D03*
X26350090Y8550090D03*
X24280090Y8530090D03*
X21500000Y12500000D03*
X30154810Y32480460D03*
X30350000Y39700000D03*
X36397599Y25047599D03*
X25150000Y35500000D03*
X23250000Y19100000D03*
X23250000Y25672600D03*
X32967780Y31510251D03*
X22350000Y19100000D03*
X22377400Y25672600D03*
X32096617Y31530761D03*
X25550000Y33449999D03*
X24960668Y31339332D03*
X12650000Y44050000D03*
X24300000Y35500000D03*
X20650000Y42900000D03*
X20650000Y42100000D03*
X38250000Y23652400D03*
X39500000Y23652400D03*
X24550000Y16825000D03*
X28950000Y22000000D03*
D19*
X30975000Y23275000D02*
X30975000Y20225000D01*
X28562500Y25687500D02*
X30975000Y23275000D01*
X32525000Y18675000D02*
X33450000Y17750000D01*
X30975000Y20225000D02*
X32525000Y18675000D01*
X34400000Y17750000D02*
X42400000Y17750000D01*
X33450000Y17750000D02*
X34400000Y17750000D01*
X28562500Y25687500D02*
X27625000Y26625000D01*
D20*
X20225000Y19800000D02*
X20250000Y19825000D01*
D19*
X21425000Y26725000D02*
X21425000Y20825000D01*
X20475000Y19875000D02*
X20475000Y16725000D01*
X21425000Y20825000D02*
X20475000Y19875000D01*
X21525000Y26625000D02*
X21425000Y26725000D01*
X27625000Y26625000D02*
X21525000Y26625000D01*
X21425000Y30150204D02*
X20645213Y30929991D01*
X21425000Y26725000D02*
X21425000Y30150204D01*
X17925000Y33650204D02*
X20645213Y30929991D01*
X39825000Y39525000D02*
X35100000Y44250000D01*
X39825000Y39525000D02*
X42675000Y39525000D01*
X17925000Y33650204D02*
X17925000Y41075000D01*
X15850000Y43150000D02*
X13350000Y43150000D01*
X17925000Y41075000D02*
X15850000Y43150000D01*
X42400000Y17800000D02*
X45900000Y21300000D01*
X42400000Y17750000D02*
X42400000Y17800000D01*
X45900000Y36300000D02*
X42675000Y39525000D01*
X45900000Y33350000D02*
X45900000Y36300000D01*
X45900000Y27950000D02*
X45900000Y33350000D01*
X45900000Y21300000D02*
X45900000Y27950000D01*
D20*
X20250000Y20100000D02*
X20475000Y19875000D01*
X15000000Y20100000D02*
X20250000Y20100000D01*
X36200000Y6750000D02*
X36200000Y10700000D01*
X29100000Y30850000D02*
X29100000Y35691554D01*
X41900000Y23050000D02*
X36900000Y23050000D01*
X36900000Y23050000D02*
X29100000Y30850000D01*
X42100000Y22850000D02*
X41900000Y23050000D01*
X21797590Y37752410D02*
X20650000Y38900000D01*
X22597590Y37752410D02*
X21797590Y37752410D01*
X28639153Y36152401D02*
X27532584Y36152401D01*
X29100000Y35691554D02*
X28639153Y36152401D01*
X27532584Y36152401D02*
X25932575Y37752410D01*
X25932575Y37752410D02*
X25647590Y37752410D01*
X25647590Y37752410D02*
X22597590Y37752410D01*
X28350000Y35500000D02*
X28350000Y35550000D01*
X28647591Y30662605D02*
X28647590Y35202410D01*
X41354810Y22597590D02*
X36712606Y22597590D01*
X28647590Y35202410D02*
X28350000Y35500000D01*
X36712606Y22597590D02*
X28647591Y30662605D01*
X42552400Y21400000D02*
X41354810Y22597590D01*
D21*
X11250000Y4000000D02*
X14500000Y7250000D01*
X4000000Y4000000D02*
X11250000Y4000000D01*
X4070000Y30580000D02*
X4000000Y30650000D01*
X4000000Y4000000D02*
X4000000Y30650000D01*
X47000000Y47000000D02*
X47000000Y4000000D01*
X5750000Y30580000D02*
X4070000Y30580000D01*
X46672590Y3672590D02*
X47000000Y4000000D01*
X18077410Y3672590D02*
X46672590Y3672590D01*
X14500000Y7250000D02*
X18077410Y3672590D01*
X4000000Y38900000D02*
X4000000Y47000000D01*
X4000000Y30650000D02*
X4000000Y38900000D01*
D20*
X26800000Y15800000D02*
X28100000Y17100000D01*
X24900000Y15800000D02*
X25750000Y15800000D01*
X28750000Y18800000D02*
X28750000Y19150000D01*
X25750000Y15800000D02*
X28750000Y18800000D01*
X7025000Y32325000D02*
X7025000Y21800000D01*
X7025000Y32902400D02*
X7025000Y32325000D01*
X7025000Y32902400D02*
X7025000Y33667030D01*
X7025000Y33667030D02*
X7050000Y33692030D01*
X2203949Y45203949D02*
X3125000Y44282898D01*
X3125000Y44282898D02*
X3125000Y37524994D01*
X3125000Y37524994D02*
X3125000Y33197600D01*
X3125000Y33197600D02*
X3125000Y32875000D01*
X3125000Y31925000D02*
X3150000Y31900000D01*
X3125000Y32875000D02*
X3125000Y31925000D01*
X21583897Y45116103D02*
X21672590Y45027410D01*
X21583897Y45189688D02*
X21583897Y45116103D01*
X21746175Y45027410D02*
X21583897Y45189688D01*
X43757898Y47350000D02*
X35600000Y47350000D01*
X33277410Y45027410D02*
X21746175Y45027410D01*
X35600000Y47350000D02*
X33277410Y45027410D01*
X45203949Y48796051D02*
X43757898Y47350000D01*
X25745181Y37300000D02*
X20650000Y37300000D01*
X40915666Y22145180D02*
X36525212Y22145180D01*
X28195182Y34849999D02*
X25745181Y37300000D01*
X36525212Y22145180D02*
X28195182Y30475210D01*
X43004810Y20056036D02*
X40915666Y22145180D01*
X28195182Y30475210D02*
X28195182Y34849999D01*
X43004810Y19950000D02*
X43004810Y20056036D01*
X22905976Y17644024D02*
X21450000Y19100000D01*
X25677410Y17644024D02*
X22905976Y17644024D01*
X36739804Y23850000D02*
X37000000Y23850000D01*
X29702400Y31792789D02*
X29807211Y31792789D01*
X29850000Y30739804D02*
X36739804Y23850000D01*
X29850000Y31645189D02*
X29702400Y31792789D01*
X29850000Y30739804D02*
X29850000Y31645189D01*
X29552410Y31942779D02*
X29702400Y31792789D01*
X29925736Y40500000D02*
X29552410Y40126674D01*
X30350000Y40500000D02*
X29925736Y40500000D01*
X29552410Y40126674D02*
X29552410Y31942779D01*
X24300000Y33450000D02*
X25150000Y34300000D01*
X33275000Y44575000D02*
X21150000Y44575000D01*
X34475000Y43375000D02*
X33275000Y44575000D01*
X34475000Y37100000D02*
X34475000Y43375000D01*
X35879949Y35695051D02*
X34475000Y37100000D01*
X38208221Y35695051D02*
X35879949Y35695051D01*
D19*
X26350090Y8550090D02*
X24299910Y8550090D01*
X20100000Y12500000D02*
X20450000Y12500000D01*
X24280090Y8530090D02*
X22975000Y7225000D01*
X22975000Y7225000D02*
X20625000Y7225000D01*
X20625000Y7225000D02*
X19400000Y8450000D01*
X19400000Y11800000D02*
X20100000Y12500000D01*
X19400000Y8450000D02*
X19400000Y11800000D01*
X21500000Y12500000D02*
X20100000Y12500000D01*
D20*
X30350000Y39700000D02*
X30004820Y39354820D01*
X30004820Y32630450D02*
X30154810Y32480460D01*
X30004820Y39354820D02*
X30004820Y32630450D01*
X36182009Y25047599D02*
X36397599Y25047599D01*
X30304801Y30924807D02*
X36182009Y25047599D01*
X30304801Y32330469D02*
X30304801Y30924807D01*
X30154810Y32480460D02*
X30304801Y32330469D01*
X25150000Y35500000D02*
X25150000Y34300000D01*
X23250000Y19100000D02*
X23250000Y25672600D01*
X33117772Y40657228D02*
X32475000Y41300000D01*
X33117772Y31717771D02*
X33117772Y40657228D01*
X33117772Y31660243D02*
X32967780Y31510251D01*
X33117772Y31717771D02*
X33117772Y31660243D01*
X22350000Y25645200D02*
X22377400Y25672600D01*
X22350000Y19100000D02*
X22350000Y25645200D01*
X31872599Y41872599D02*
X32450000Y42450000D01*
X32665362Y40218084D02*
X31872599Y41010847D01*
X31872599Y41010847D02*
X31872599Y41872599D01*
X32665362Y32099506D02*
X32665362Y40218084D01*
X32096617Y31530761D02*
X32665362Y32099506D01*
X24960668Y32860667D02*
X25550000Y33449999D01*
X24960668Y31339332D02*
X24960668Y32860667D01*
X16234779Y44050000D02*
X12650000Y44050000D01*
X19600000Y40684778D02*
X16234779Y44050000D01*
X19600000Y37458446D02*
X19600000Y40684778D01*
X20360847Y36697599D02*
X19600000Y37458446D01*
X22302401Y36697599D02*
X20360847Y36697599D01*
X23102401Y36697599D02*
X24300000Y35500000D01*
X22302401Y36697599D02*
X23102401Y36697599D01*
X33570180Y42979820D02*
X32879820Y43670180D01*
X33570180Y42979820D02*
X33570181Y31290015D01*
X33570181Y31290015D02*
X37050000Y27810196D01*
X37050000Y27810196D02*
X37050000Y26275000D01*
X20741554Y42100000D02*
X20650000Y42100000D01*
X22311734Y43670180D02*
X20741554Y42100000D01*
X32879820Y43670180D02*
X22311734Y43670180D01*
X37050000Y26275000D02*
X37050000Y24750000D01*
X38147600Y23652400D02*
X38250000Y23652400D01*
X37050000Y24750000D02*
X38147600Y23652400D01*
X38897599Y24254801D02*
X39500000Y23652400D01*
X37502410Y24937394D02*
X38185003Y24254801D01*
X34022590Y31477410D02*
X37502410Y27997590D01*
X38185003Y24254801D02*
X38897599Y24254801D01*
X34022590Y43187606D02*
X34022590Y31477410D01*
X37502410Y27997590D02*
X37502410Y24937394D01*
X33087606Y44122590D02*
X34022590Y43187606D01*
X20650000Y42900000D02*
X20901750Y42900000D01*
X22124340Y44122590D02*
X22377410Y44122590D01*
X20901750Y42900000D02*
X22124340Y44122590D01*
X22377410Y44122590D02*
X33087606Y44122590D01*
X28147599Y18837403D02*
X28147599Y20993615D01*
X26135196Y16825000D02*
X28147599Y18837403D01*
X24550000Y16825000D02*
X26135196Y16825000D01*
X28147599Y21197599D02*
X28950000Y22000000D01*
X28147599Y20993615D02*
X28147599Y21197599D01*
D22*
X2974986Y31323058D02*
X3090905Y31300000D01*
X3209095Y31300000D01*
X3325000Y31323055D01*
X3325000Y30683152D01*
X3321735Y30650000D01*
X3325000Y30616848D01*
X3325000Y30616842D01*
X3325001Y30616832D01*
X3325000Y6485127D01*
X3169703Y6549673D01*
X2416081Y5796051D01*
X3170314Y5041818D01*
X3325000Y5106751D01*
X3325000Y4932072D01*
X3266918Y4893263D01*
X3106737Y4733082D01*
X2980884Y4544729D01*
X2894194Y4335443D01*
X2850000Y4113265D01*
X2850000Y3886735D01*
X2894194Y3664557D01*
X2980884Y3455271D01*
X3106737Y3266918D01*
X3266918Y3106737D01*
X3455271Y2980884D01*
X3664557Y2894194D01*
X3886735Y2850000D01*
X4113265Y2850000D01*
X4335443Y2894194D01*
X4544729Y2980884D01*
X4733082Y3106737D01*
X4893263Y3266918D01*
X4932072Y3325000D01*
X5290088Y3325000D01*
X5282373Y3318668D01*
X4681332Y2717627D01*
X4590988Y2607544D01*
X4523857Y2481950D01*
X4482518Y2345673D01*
X4468559Y2203949D01*
X4482518Y2062225D01*
X4523857Y1925948D01*
X4590988Y1800354D01*
X4681332Y1690271D01*
X5282373Y1089230D01*
X5392456Y998886D01*
X5518050Y931755D01*
X5654327Y890416D01*
X5796051Y876457D01*
X5937775Y890416D01*
X6074052Y931755D01*
X6199646Y998886D01*
X6309729Y1089230D01*
X6910770Y1690271D01*
X7001114Y1800354D01*
X7068245Y1925948D01*
X7109584Y2062225D01*
X7123543Y2203949D01*
X7109584Y2345673D01*
X7068245Y2481950D01*
X7001114Y2607544D01*
X6910770Y2717627D01*
X6309729Y3318668D01*
X6302014Y3325000D01*
X11216848Y3325000D01*
X11250000Y3321735D01*
X11283152Y3325000D01*
X11283159Y3325000D01*
X11382323Y3334767D01*
X11509561Y3373364D01*
X11626824Y3436042D01*
X11729606Y3520394D01*
X11750742Y3546148D01*
X13349527Y5144933D01*
X13348549Y5135000D01*
X13348549Y4285000D01*
X13362508Y4143276D01*
X13403847Y4006999D01*
X13470978Y3881405D01*
X13561322Y3771322D01*
X13671405Y3680978D01*
X13796999Y3613847D01*
X13933276Y3572508D01*
X14075000Y3558549D01*
X14925000Y3558549D01*
X15066724Y3572508D01*
X15203001Y3613847D01*
X15328595Y3680978D01*
X15438678Y3771322D01*
X15529022Y3881405D01*
X15596153Y4006999D01*
X15637492Y4143276D01*
X15651451Y4285000D01*
X15651451Y5135000D01*
X15650473Y5144933D01*
X17576668Y3218738D01*
X17597804Y3192984D01*
X17623558Y3171848D01*
X17623560Y3171846D01*
X17674410Y3130114D01*
X17700586Y3108632D01*
X17731955Y3091865D01*
X17817848Y3045954D01*
X17945086Y3007357D01*
X17957602Y3006124D01*
X18044251Y2997590D01*
X18044258Y2997590D01*
X18077410Y2994325D01*
X18110562Y2997590D01*
X21521668Y2997590D01*
X18673753Y2809222D01*
X18668124Y2808721D01*
X18662448Y2808276D01*
X18659064Y2807916D01*
X15196484Y2420494D01*
X15190817Y2419729D01*
X15185234Y2419035D01*
X15181870Y2418522D01*
X11740429Y1874426D01*
X11734813Y1873407D01*
X11729257Y1872459D01*
X11725919Y1871793D01*
X8312703Y1172143D01*
X8307184Y1170880D01*
X8301631Y1169671D01*
X8298327Y1168855D01*
X5099301Y360318D01*
X629322Y4830297D01*
X1450327Y4830297D01*
X1536705Y4622473D01*
X1598852Y4589247D01*
X1845915Y4494387D01*
X2106737Y4449549D01*
X2371294Y4456457D01*
X2629421Y4514844D01*
X2871197Y4622468D01*
X2958182Y4829686D01*
X2203949Y5583919D01*
X1450327Y4830297D01*
X629322Y4830297D01*
X360625Y5098993D01*
X513523Y5698839D01*
X857447Y5698839D01*
X902285Y5438017D01*
X997145Y5190954D01*
X1030371Y5128807D01*
X1238195Y5042429D01*
X1991817Y5796051D01*
X1237584Y6550284D01*
X1030366Y6463299D01*
X922742Y6221523D01*
X864355Y5963396D01*
X857447Y5698839D01*
X513523Y5698839D01*
X784625Y6762416D01*
X1449716Y6762416D01*
X2203949Y6008183D01*
X2957571Y6761805D01*
X2871193Y6969629D01*
X2809046Y7002855D01*
X2561983Y7097715D01*
X2301161Y7142553D01*
X2036604Y7135645D01*
X1778477Y7077258D01*
X1536701Y6969634D01*
X1449716Y6762416D01*
X784625Y6762416D01*
X1098853Y7995179D01*
X1100056Y8000390D01*
X1101322Y8005577D01*
X1102037Y8008904D01*
X1815482Y11419264D01*
X1816520Y11424860D01*
X1817610Y11430407D01*
X1818173Y11433763D01*
X2376179Y14872975D01*
X2376957Y14878576D01*
X2377800Y14884203D01*
X2378210Y14887581D01*
X2779629Y18348567D01*
X2780155Y18354226D01*
X2780739Y18359857D01*
X2780995Y18363251D01*
X3025000Y21838882D01*
X3025266Y21844505D01*
X3025597Y21850210D01*
X3025699Y21853612D01*
X3111787Y25336735D01*
X3111798Y25342400D01*
X3111869Y25348079D01*
X3111817Y25351482D01*
X3039812Y28834925D01*
X3039565Y28840617D01*
X3039379Y28846261D01*
X3039172Y28849658D01*
X2872775Y31365395D01*
X2974986Y31323058D01*
%TA.AperFunction,Conductor*%
D23*
G36*
X2974986Y31323058D02*
G01*
X3090905Y31300000D01*
X3209095Y31300000D01*
X3325000Y31323055D01*
X3325000Y30683152D01*
X3321735Y30650000D01*
X3325000Y30616848D01*
X3325000Y30616842D01*
X3325001Y30616832D01*
X3325000Y6485127D01*
X3169703Y6549673D01*
X2416081Y5796051D01*
X3170314Y5041818D01*
X3325000Y5106751D01*
X3325000Y4932072D01*
X3266918Y4893263D01*
X3106737Y4733082D01*
X2980884Y4544729D01*
X2894194Y4335443D01*
X2850000Y4113265D01*
X2850000Y3886735D01*
X2894194Y3664557D01*
X2980884Y3455271D01*
X3106737Y3266918D01*
X3266918Y3106737D01*
X3455271Y2980884D01*
X3664557Y2894194D01*
X3886735Y2850000D01*
X4113265Y2850000D01*
X4335443Y2894194D01*
X4544729Y2980884D01*
X4733082Y3106737D01*
X4893263Y3266918D01*
X4932072Y3325000D01*
X5290088Y3325000D01*
X5282373Y3318668D01*
X4681332Y2717627D01*
X4590988Y2607544D01*
X4523857Y2481950D01*
X4482518Y2345673D01*
X4468559Y2203949D01*
X4482518Y2062225D01*
X4523857Y1925948D01*
X4590988Y1800354D01*
X4681332Y1690271D01*
X5282373Y1089230D01*
X5392456Y998886D01*
X5518050Y931755D01*
X5654327Y890416D01*
X5796051Y876457D01*
X5937775Y890416D01*
X6074052Y931755D01*
X6199646Y998886D01*
X6309729Y1089230D01*
X6910770Y1690271D01*
X7001114Y1800354D01*
X7068245Y1925948D01*
X7109584Y2062225D01*
X7123543Y2203949D01*
X7109584Y2345673D01*
X7068245Y2481950D01*
X7001114Y2607544D01*
X6910770Y2717627D01*
X6309729Y3318668D01*
X6302014Y3325000D01*
X11216848Y3325000D01*
X11250000Y3321735D01*
X11283152Y3325000D01*
X11283159Y3325000D01*
X11382323Y3334767D01*
X11509561Y3373364D01*
X11626824Y3436042D01*
X11729606Y3520394D01*
X11750742Y3546148D01*
X13349527Y5144933D01*
X13348549Y5135000D01*
X13348549Y4285000D01*
X13362508Y4143276D01*
X13403847Y4006999D01*
X13470978Y3881405D01*
X13561322Y3771322D01*
X13671405Y3680978D01*
X13796999Y3613847D01*
X13933276Y3572508D01*
X14075000Y3558549D01*
X14925000Y3558549D01*
X15066724Y3572508D01*
X15203001Y3613847D01*
X15328595Y3680978D01*
X15438678Y3771322D01*
X15529022Y3881405D01*
X15596153Y4006999D01*
X15637492Y4143276D01*
X15651451Y4285000D01*
X15651451Y5135000D01*
X15650473Y5144933D01*
X17576668Y3218738D01*
X17597804Y3192984D01*
X17623558Y3171848D01*
X17623560Y3171846D01*
X17674410Y3130114D01*
X17700586Y3108632D01*
X17731955Y3091865D01*
X17817848Y3045954D01*
X17945086Y3007357D01*
X17957602Y3006124D01*
X18044251Y2997590D01*
X18044258Y2997590D01*
X18077410Y2994325D01*
X18110562Y2997590D01*
X21521668Y2997590D01*
X18673753Y2809222D01*
X18668124Y2808721D01*
X18662448Y2808276D01*
X18659064Y2807916D01*
X15196484Y2420494D01*
X15190817Y2419729D01*
X15185234Y2419035D01*
X15181870Y2418522D01*
X11740429Y1874426D01*
X11734813Y1873407D01*
X11729257Y1872459D01*
X11725919Y1871793D01*
X8312703Y1172143D01*
X8307184Y1170880D01*
X8301631Y1169671D01*
X8298327Y1168855D01*
X5099301Y360318D01*
X629322Y4830297D01*
X1450327Y4830297D01*
X1536705Y4622473D01*
X1598852Y4589247D01*
X1845915Y4494387D01*
X2106737Y4449549D01*
X2371294Y4456457D01*
X2629421Y4514844D01*
X2871197Y4622468D01*
X2958182Y4829686D01*
X2203949Y5583919D01*
X1450327Y4830297D01*
X629322Y4830297D01*
X360625Y5098993D01*
X513523Y5698839D01*
X857447Y5698839D01*
X902285Y5438017D01*
X997145Y5190954D01*
X1030371Y5128807D01*
X1238195Y5042429D01*
X1991817Y5796051D01*
X1237584Y6550284D01*
X1030366Y6463299D01*
X922742Y6221523D01*
X864355Y5963396D01*
X857447Y5698839D01*
X513523Y5698839D01*
X784625Y6762416D01*
X1449716Y6762416D01*
X2203949Y6008183D01*
X2957571Y6761805D01*
X2871193Y6969629D01*
X2809046Y7002855D01*
X2561983Y7097715D01*
X2301161Y7142553D01*
X2036604Y7135645D01*
X1778477Y7077258D01*
X1536701Y6969634D01*
X1449716Y6762416D01*
X784625Y6762416D01*
X1098853Y7995179D01*
X1100056Y8000390D01*
X1101322Y8005577D01*
X1102037Y8008904D01*
X1815482Y11419264D01*
X1816520Y11424860D01*
X1817610Y11430407D01*
X1818173Y11433763D01*
X2376179Y14872975D01*
X2376957Y14878576D01*
X2377800Y14884203D01*
X2378210Y14887581D01*
X2779629Y18348567D01*
X2780155Y18354226D01*
X2780739Y18359857D01*
X2780995Y18363251D01*
X3025000Y21838882D01*
X3025266Y21844505D01*
X3025597Y21850210D01*
X3025699Y21853612D01*
X3111787Y25336735D01*
X3111798Y25342400D01*
X3111869Y25348079D01*
X3111817Y25351482D01*
X3039812Y28834925D01*
X3039565Y28840617D01*
X3039379Y28846261D01*
X3039172Y28849658D01*
X2872775Y31365395D01*
X2974986Y31323058D01*
G37*
%TD.AperFunction*%
D22*
X50639375Y45901006D02*
X49901147Y43004822D01*
X49899940Y42999593D01*
X49898678Y42994423D01*
X49897963Y42991096D01*
X49184518Y39580736D01*
X49183482Y39575151D01*
X49182390Y39569594D01*
X49181827Y39566237D01*
X48623821Y36127025D01*
X48623041Y36121414D01*
X48622200Y36115797D01*
X48621790Y36112418D01*
X48220371Y32651433D01*
X48219845Y32645782D01*
X48219261Y32640143D01*
X48219005Y32636750D01*
X47975000Y29161118D01*
X47974734Y29155495D01*
X47974403Y29149790D01*
X47974301Y29146388D01*
X47888213Y25663265D01*
X47888202Y25657600D01*
X47888131Y25651921D01*
X47888183Y25648518D01*
X47960188Y22165076D01*
X47960435Y22159385D01*
X47960621Y22153739D01*
X47960828Y22150343D01*
X48190778Y18673753D01*
X48191279Y18668124D01*
X48191724Y18662448D01*
X48192084Y18659064D01*
X48579506Y15196483D01*
X48580272Y15190809D01*
X48580965Y15185234D01*
X48581478Y15181869D01*
X49125574Y11740429D01*
X49126594Y11734807D01*
X49127541Y11729257D01*
X49128207Y11725920D01*
X49827857Y8312703D01*
X49829120Y8307184D01*
X49830329Y8301631D01*
X49831145Y8298327D01*
X50639682Y5099301D01*
X45901007Y360625D01*
X43004822Y1098853D01*
X42999593Y1100060D01*
X42994423Y1101322D01*
X42991096Y1102037D01*
X42343164Y1237584D01*
X44449716Y1237584D01*
X44536701Y1030366D01*
X44778477Y922742D01*
X45036604Y864355D01*
X45301161Y857447D01*
X45561983Y902285D01*
X45809046Y997145D01*
X45871193Y1030371D01*
X45957571Y1238195D01*
X45203949Y1991817D01*
X44449716Y1237584D01*
X42343164Y1237584D01*
X39580736Y1815482D01*
X39575151Y1816518D01*
X39569594Y1817610D01*
X39566237Y1818173D01*
X36127025Y2376179D01*
X36121414Y2376959D01*
X36115797Y2377800D01*
X36112418Y2378210D01*
X32651433Y2779629D01*
X32645782Y2780155D01*
X32640143Y2780739D01*
X32636750Y2780995D01*
X29551549Y2997590D01*
X44198173Y2997590D01*
X44238193Y2957570D01*
X44030371Y2871193D01*
X43997145Y2809046D01*
X43902285Y2561983D01*
X43857447Y2301161D01*
X43864355Y2036604D01*
X43922742Y1778477D01*
X44030366Y1536701D01*
X44237584Y1449716D01*
X44991817Y2203949D01*
X44977675Y2218091D01*
X45189807Y2430223D01*
X45203949Y2416081D01*
X45218092Y2430223D01*
X45430224Y2218091D01*
X45416081Y2203949D01*
X46169703Y1450327D01*
X46377527Y1536705D01*
X46410753Y1598852D01*
X46505613Y1845915D01*
X46550451Y2106737D01*
X46543543Y2371294D01*
X46485156Y2629421D01*
X46377532Y2871197D01*
X46170316Y2958181D01*
X46209725Y2997590D01*
X46430269Y2997590D01*
X46455271Y2980884D01*
X46664557Y2894194D01*
X46886735Y2850000D01*
X47113265Y2850000D01*
X47335443Y2894194D01*
X47544729Y2980884D01*
X47733082Y3106737D01*
X47893263Y3266918D01*
X48019116Y3455271D01*
X48105806Y3664557D01*
X48150000Y3886735D01*
X48150000Y4113265D01*
X48105806Y4335443D01*
X48019116Y4544729D01*
X47893263Y4733082D01*
X47733082Y4893263D01*
X47675000Y4932072D01*
X47675000Y5290088D01*
X47681332Y5282373D01*
X48282373Y4681332D01*
X48392456Y4590988D01*
X48518050Y4523857D01*
X48654327Y4482518D01*
X48796051Y4468559D01*
X48937775Y4482518D01*
X49074052Y4523857D01*
X49199646Y4590988D01*
X49309729Y4681332D01*
X49910770Y5282373D01*
X50001114Y5392456D01*
X50068245Y5518050D01*
X50109584Y5654327D01*
X50123543Y5796051D01*
X50109584Y5937775D01*
X50068245Y6074052D01*
X50001114Y6199646D01*
X49910770Y6309729D01*
X49309729Y6910770D01*
X49199646Y7001114D01*
X49074052Y7068245D01*
X48937775Y7109584D01*
X48796051Y7123543D01*
X48654327Y7109584D01*
X48518050Y7068245D01*
X48392456Y7001114D01*
X48282373Y6910770D01*
X47681332Y6309729D01*
X47675000Y6302014D01*
X47675000Y44238195D01*
X48042429Y44238195D01*
X48128807Y44030371D01*
X48190954Y43997145D01*
X48438017Y43902285D01*
X48698839Y43857447D01*
X48963396Y43864355D01*
X49221523Y43922742D01*
X49463299Y44030366D01*
X49550284Y44237584D01*
X48796051Y44991817D01*
X48042429Y44238195D01*
X47675000Y44238195D01*
X47675000Y44514873D01*
X47830297Y44450327D01*
X48583919Y45203949D01*
X49008183Y45203949D01*
X49762416Y44449716D01*
X49969634Y44536701D01*
X50077258Y44778477D01*
X50135645Y45036604D01*
X50142553Y45301161D01*
X50097715Y45561983D01*
X50002855Y45809046D01*
X49969629Y45871193D01*
X49761805Y45957571D01*
X49008183Y45203949D01*
X48583919Y45203949D01*
X47829686Y45958182D01*
X47675000Y45893249D01*
X47675000Y46067928D01*
X47733082Y46106737D01*
X47796659Y46170314D01*
X48041818Y46170314D01*
X48796051Y45416081D01*
X49549673Y46169703D01*
X49463295Y46377527D01*
X49401148Y46410753D01*
X49154085Y46505613D01*
X48893263Y46550451D01*
X48628706Y46543543D01*
X48370579Y46485156D01*
X48128803Y46377532D01*
X48041818Y46170314D01*
X47796659Y46170314D01*
X47893263Y46266918D01*
X48019116Y46455271D01*
X48105806Y46664557D01*
X48150000Y46886735D01*
X48150000Y47113265D01*
X48105806Y47335443D01*
X48019116Y47544729D01*
X47893263Y47733082D01*
X47733082Y47893263D01*
X47544729Y48019116D01*
X47335443Y48105806D01*
X47113265Y48150000D01*
X46886735Y48150000D01*
X46664557Y48105806D01*
X46455271Y48019116D01*
X46266918Y47893263D01*
X46106737Y47733082D01*
X45980884Y47544729D01*
X45894194Y47335443D01*
X45850000Y47113265D01*
X45850000Y46886735D01*
X45894194Y46664557D01*
X45980884Y46455271D01*
X46106737Y46266918D01*
X46266918Y46106737D01*
X46325000Y46067928D01*
X46325000Y37006370D01*
X43268473Y40062897D01*
X43243422Y40093422D01*
X43121606Y40193393D01*
X42982628Y40267679D01*
X42831827Y40313424D01*
X42714293Y40325000D01*
X42714291Y40325000D01*
X42675000Y40328870D01*
X42635709Y40325000D01*
X40156371Y40325000D01*
X37235143Y43246228D01*
X40500000Y43246228D01*
X40500000Y42753772D01*
X40596074Y42270777D01*
X40784529Y41815806D01*
X41058124Y41406343D01*
X41406343Y41058124D01*
X41815806Y40784529D01*
X42270777Y40596074D01*
X42753772Y40500000D01*
X43246228Y40500000D01*
X43729223Y40596074D01*
X44184194Y40784529D01*
X44593657Y41058124D01*
X44941876Y41406343D01*
X45215471Y41815806D01*
X45403926Y42270777D01*
X45500000Y42753772D01*
X45500000Y43246228D01*
X45403926Y43729223D01*
X45215471Y44184194D01*
X44941876Y44593657D01*
X44593657Y44941876D01*
X44184194Y45215471D01*
X43729223Y45403926D01*
X43246228Y45500000D01*
X42753772Y45500000D01*
X42270777Y45403926D01*
X41815806Y45215471D01*
X41406343Y44941876D01*
X41058124Y44593657D01*
X40784529Y44184194D01*
X40596074Y43729223D01*
X40500000Y43246228D01*
X37235143Y43246228D01*
X35637901Y44843469D01*
X35546606Y44918393D01*
X35407627Y44992679D01*
X35256827Y45038423D01*
X35100000Y45053870D01*
X34943173Y45038423D01*
X34792373Y44992679D01*
X34653394Y44918393D01*
X34531579Y44818421D01*
X34431607Y44696606D01*
X34357321Y44557627D01*
X34311577Y44406827D01*
X34296130Y44250000D01*
X34302657Y44183739D01*
X33686395Y44800000D01*
X35786396Y46900000D01*
X43735804Y46900000D01*
X43757898Y46897824D01*
X43779992Y46900000D01*
X43780003Y46900000D01*
X43846113Y46906511D01*
X43930939Y46932243D01*
X44009114Y46974029D01*
X44077635Y47030263D01*
X44091727Y47047434D01*
X44709689Y47665396D01*
X44800354Y47590988D01*
X44925948Y47523857D01*
X45062225Y47482518D01*
X45203949Y47468559D01*
X45345673Y47482518D01*
X45481950Y47523857D01*
X45607544Y47590988D01*
X45717627Y47681332D01*
X46318668Y48282373D01*
X46409012Y48392456D01*
X46476143Y48518050D01*
X46517482Y48654327D01*
X46531441Y48796051D01*
X46517482Y48937775D01*
X46476143Y49074052D01*
X46409012Y49199646D01*
X46318668Y49309729D01*
X45717627Y49910770D01*
X45607544Y50001114D01*
X45481950Y50068245D01*
X45345673Y50109584D01*
X45203949Y50123543D01*
X45062225Y50109584D01*
X44925948Y50068245D01*
X44800354Y50001114D01*
X44690271Y49910770D01*
X44089230Y49309729D01*
X43998886Y49199646D01*
X43931755Y49074052D01*
X43890416Y48937775D01*
X43876457Y48796051D01*
X43890416Y48654327D01*
X43931755Y48518050D01*
X43998886Y48392456D01*
X44073294Y48301791D01*
X43571503Y47800000D01*
X35622091Y47800000D01*
X35599999Y47802176D01*
X35577907Y47800000D01*
X35577895Y47800000D01*
X35511785Y47793489D01*
X35426959Y47767757D01*
X35348783Y47725971D01*
X35297432Y47683828D01*
X35297428Y47683824D01*
X35280263Y47669737D01*
X35266176Y47652572D01*
X33091015Y45477410D01*
X22113261Y45477410D01*
X22049947Y45572166D01*
X21966375Y45655738D01*
X21868104Y45721401D01*
X21758911Y45766630D01*
X21642992Y45789688D01*
X21524802Y45789688D01*
X21408883Y45766630D01*
X21299690Y45721401D01*
X21201419Y45655738D01*
X21117847Y45572166D01*
X21052184Y45473895D01*
X21006955Y45364702D01*
X20983897Y45248783D01*
X20983897Y45153715D01*
X20974986Y45151942D01*
X20865793Y45106713D01*
X20767522Y45041050D01*
X20683950Y44957478D01*
X20618287Y44859207D01*
X20573058Y44750014D01*
X20550000Y44634095D01*
X20550000Y44515905D01*
X20573058Y44399986D01*
X20618287Y44290793D01*
X20683950Y44192522D01*
X20767522Y44108950D01*
X20865793Y44043287D01*
X20974986Y43998058D01*
X21090905Y43975000D01*
X21209095Y43975000D01*
X21325014Y43998058D01*
X21390564Y44025210D01*
X20837235Y43471880D01*
X20825014Y43476942D01*
X20709095Y43500000D01*
X20590905Y43500000D01*
X20474986Y43476942D01*
X20365793Y43431713D01*
X20267522Y43366050D01*
X20183950Y43282478D01*
X20118287Y43184207D01*
X20073058Y43075014D01*
X20050000Y42959095D01*
X20050000Y42840905D01*
X20073058Y42724986D01*
X20118287Y42615793D01*
X20183950Y42517522D01*
X20201472Y42500000D01*
X20183950Y42482478D01*
X20118287Y42384207D01*
X20073058Y42275014D01*
X20050000Y42159095D01*
X20050000Y42040905D01*
X20073058Y41924986D01*
X20118287Y41815793D01*
X20183950Y41717522D01*
X20267522Y41633950D01*
X20365793Y41568287D01*
X20474986Y41523058D01*
X20590905Y41500000D01*
X20709095Y41500000D01*
X20825014Y41523058D01*
X20934207Y41568287D01*
X21032478Y41633950D01*
X21116050Y41717522D01*
X21181713Y41815793D01*
X21226942Y41924986D01*
X21232903Y41954954D01*
X22498130Y43220180D01*
X32693425Y43220180D01*
X33120180Y42793424D01*
X33120180Y41291215D01*
X33075000Y41336395D01*
X33075000Y41359095D01*
X33051942Y41475014D01*
X33006713Y41584207D01*
X32941050Y41682478D01*
X32857478Y41766050D01*
X32759207Y41831713D01*
X32650014Y41876942D01*
X32639459Y41879041D01*
X32734207Y41918287D01*
X32832478Y41983950D01*
X32916050Y42067522D01*
X32981713Y42165793D01*
X33026942Y42274986D01*
X33050000Y42390905D01*
X33050000Y42509095D01*
X33026942Y42625014D01*
X32981713Y42734207D01*
X32916050Y42832478D01*
X32832478Y42916050D01*
X32734207Y42981713D01*
X32625014Y43026942D01*
X32509095Y43050000D01*
X32390905Y43050000D01*
X32274986Y43026942D01*
X32165793Y42981713D01*
X32067522Y42916050D01*
X31983950Y42832478D01*
X31918287Y42734207D01*
X31873058Y42625014D01*
X31850000Y42509095D01*
X31850000Y42486396D01*
X31570028Y42206423D01*
X31552863Y42192336D01*
X31538776Y42175171D01*
X31538771Y42175166D01*
X31496628Y42123815D01*
X31454842Y42045639D01*
X31429111Y41960814D01*
X31420423Y41872599D01*
X31422600Y41850495D01*
X31422599Y41032942D01*
X31420423Y41010847D01*
X31422599Y40988753D01*
X31422599Y40988743D01*
X31429110Y40922633D01*
X31454842Y40837807D01*
X31496628Y40759631D01*
X31508272Y40745443D01*
X31552862Y40691110D01*
X31570032Y40677018D01*
X32215363Y40031687D01*
X32215362Y32285902D01*
X32060222Y32130761D01*
X32037522Y32130761D01*
X31921603Y32107703D01*
X31812410Y32062474D01*
X31714139Y31996811D01*
X31630567Y31913239D01*
X31564904Y31814968D01*
X31519675Y31705775D01*
X31496617Y31589856D01*
X31496617Y31471666D01*
X31519675Y31355747D01*
X31564904Y31246554D01*
X31630567Y31148283D01*
X31714139Y31064711D01*
X31812410Y30999048D01*
X31921603Y30953819D01*
X32037522Y30930761D01*
X32155712Y30930761D01*
X32271631Y30953819D01*
X32380824Y30999048D01*
X32479095Y31064711D01*
X32521944Y31107559D01*
X32585302Y31044201D01*
X32683573Y30978538D01*
X32792766Y30933309D01*
X32908685Y30910251D01*
X33026875Y30910251D01*
X33142794Y30933309D01*
X33245777Y30975966D01*
X33250445Y30970278D01*
X33267610Y30956191D01*
X36600000Y27623800D01*
X36600001Y26297114D01*
X36600000Y26297104D01*
X36600000Y25613197D01*
X36572613Y25624541D01*
X36456694Y25647599D01*
X36338504Y25647599D01*
X36238331Y25627673D01*
X30754801Y31111202D01*
X30754801Y32308378D01*
X30756977Y32330470D01*
X30754801Y32352562D01*
X30754801Y32352574D01*
X30750273Y32398554D01*
X30754810Y32421365D01*
X30754810Y32539555D01*
X30731752Y32655474D01*
X30686523Y32764667D01*
X30620860Y32862938D01*
X30537288Y32946510D01*
X30454820Y33001614D01*
X30454820Y39109095D01*
X30525014Y39123058D01*
X30634207Y39168287D01*
X30732478Y39233950D01*
X30816050Y39317522D01*
X30881713Y39415793D01*
X30926942Y39524986D01*
X30950000Y39640905D01*
X30950000Y39759095D01*
X30926942Y39875014D01*
X30881713Y39984207D01*
X30816050Y40082478D01*
X30798528Y40100000D01*
X30816050Y40117522D01*
X30881713Y40215793D01*
X30926942Y40324986D01*
X30950000Y40440905D01*
X30950000Y40559095D01*
X30926942Y40675014D01*
X30881713Y40784207D01*
X30816050Y40882478D01*
X30732478Y40966050D01*
X30634207Y41031713D01*
X30525014Y41076942D01*
X30409095Y41100000D01*
X30290905Y41100000D01*
X30174986Y41076942D01*
X30065793Y41031713D01*
X29967522Y40966050D01*
X29951472Y40950000D01*
X29947830Y40950000D01*
X29925736Y40952176D01*
X29903642Y40950000D01*
X29903631Y40950000D01*
X29837521Y40943489D01*
X29768769Y40922633D01*
X29752695Y40917757D01*
X29674519Y40875971D01*
X29623168Y40833828D01*
X29623164Y40833824D01*
X29605999Y40819737D01*
X29591912Y40802571D01*
X29249843Y40460502D01*
X29232673Y40446411D01*
X29218582Y40429241D01*
X29176439Y40377890D01*
X29141981Y40313424D01*
X29134653Y40299714D01*
X29108921Y40214888D01*
X29102410Y40148778D01*
X29102410Y40148768D01*
X29100234Y40126674D01*
X29102410Y40104580D01*
X29102410Y36325539D01*
X28972980Y36454969D01*
X28958890Y36472138D01*
X28890369Y36528372D01*
X28812194Y36570158D01*
X28727368Y36595890D01*
X28661258Y36602401D01*
X28661247Y36602401D01*
X28639153Y36604577D01*
X28617059Y36602401D01*
X27718980Y36602401D01*
X26266402Y38054978D01*
X26252312Y38072147D01*
X26183791Y38128381D01*
X26105616Y38170167D01*
X26020790Y38195899D01*
X25954680Y38202410D01*
X25954669Y38202410D01*
X25932575Y38204586D01*
X25910481Y38202410D01*
X21983986Y38202410D01*
X21250000Y38936395D01*
X21250000Y38959095D01*
X21226942Y39075014D01*
X21181713Y39184207D01*
X21116050Y39282478D01*
X21032478Y39366050D01*
X20934207Y39431713D01*
X20825014Y39476942D01*
X20709095Y39500000D01*
X20590905Y39500000D01*
X20474986Y39476942D01*
X20365793Y39431713D01*
X20267522Y39366050D01*
X20183950Y39282478D01*
X20118287Y39184207D01*
X20073058Y39075014D01*
X20050000Y38959095D01*
X20050000Y40662684D01*
X20052176Y40684778D01*
X20050000Y40706872D01*
X20050000Y40706883D01*
X20043489Y40772993D01*
X20017757Y40857819D01*
X19975971Y40935995D01*
X19933828Y40987346D01*
X19933824Y40987350D01*
X19919737Y41004515D01*
X19902572Y41018602D01*
X16568608Y44352566D01*
X16554516Y44369737D01*
X16485995Y44425971D01*
X16407820Y44467757D01*
X16322994Y44493489D01*
X16256884Y44500000D01*
X16256873Y44500000D01*
X16234779Y44502176D01*
X16212685Y44500000D01*
X13048528Y44500000D01*
X13032478Y44516050D01*
X12934207Y44581713D01*
X12825014Y44626942D01*
X12709095Y44650000D01*
X12590905Y44650000D01*
X12474986Y44626942D01*
X12365793Y44581713D01*
X12267522Y44516050D01*
X12183950Y44432478D01*
X12118287Y44334207D01*
X12073058Y44225014D01*
X12050000Y44109095D01*
X12050000Y43990905D01*
X12073058Y43874986D01*
X12118287Y43765793D01*
X12183950Y43667522D01*
X12267522Y43583950D01*
X12365793Y43518287D01*
X12474986Y43473058D01*
X12590905Y43450000D01*
X12605007Y43450000D01*
X12595860Y43419848D01*
X12580743Y43383351D01*
X12573037Y43344607D01*
X12561576Y43306827D01*
X12557706Y43267535D01*
X12550000Y43228793D01*
X12550000Y43189293D01*
X12546130Y43150000D01*
X12550000Y43110707D01*
X12550000Y43071207D01*
X12557706Y43032465D01*
X12561576Y42993173D01*
X12573037Y42955393D01*
X12580743Y42916649D01*
X12595860Y42880152D01*
X12607321Y42842372D01*
X12625932Y42807554D01*
X12641049Y42771058D01*
X12662997Y42738210D01*
X12681607Y42703394D01*
X12706651Y42672878D01*
X12728599Y42640030D01*
X12756530Y42612099D01*
X12781578Y42581578D01*
X12812098Y42556531D01*
X12840030Y42528599D01*
X12872878Y42506651D01*
X12903394Y42481607D01*
X12938210Y42462997D01*
X12971058Y42441049D01*
X13007554Y42425932D01*
X13042372Y42407321D01*
X13080152Y42395860D01*
X13116649Y42380743D01*
X13155393Y42373037D01*
X13193173Y42361576D01*
X13232465Y42357706D01*
X13271207Y42350000D01*
X15518630Y42350000D01*
X17125001Y40743628D01*
X17125000Y33689495D01*
X17121130Y33650204D01*
X17125000Y33610913D01*
X17125000Y33610912D01*
X17136576Y33493378D01*
X17160105Y33415814D01*
X17182321Y33342577D01*
X17256607Y33203598D01*
X17287633Y33165793D01*
X17356578Y33081782D01*
X17387103Y33056731D01*
X20023812Y30420021D01*
X20135243Y30308590D01*
X20135246Y30308588D01*
X20625001Y29818832D01*
X20625000Y26764293D01*
X20621130Y26725000D01*
X20625000Y26685709D01*
X20625001Y21156371D01*
X20018630Y20550000D01*
X15398528Y20550000D01*
X15382478Y20566050D01*
X15284207Y20631713D01*
X15175014Y20676942D01*
X15059095Y20700000D01*
X14940905Y20700000D01*
X14824986Y20676942D01*
X14715793Y20631713D01*
X14617522Y20566050D01*
X14533950Y20482478D01*
X14468287Y20384207D01*
X14423058Y20275014D01*
X14400000Y20159095D01*
X14400000Y20040905D01*
X14423058Y19924986D01*
X14468287Y19815793D01*
X14533950Y19717522D01*
X14617522Y19633950D01*
X14715793Y19568287D01*
X14824986Y19523058D01*
X14940905Y19500000D01*
X15059095Y19500000D01*
X15175014Y19523058D01*
X15284207Y19568287D01*
X15382478Y19633950D01*
X15398528Y19650000D01*
X19675000Y19650000D01*
X19675001Y16685707D01*
X19686577Y16568173D01*
X19732322Y16417372D01*
X19806608Y16278394D01*
X19906579Y16156578D01*
X20028395Y16056607D01*
X20167373Y15982321D01*
X20318174Y15936576D01*
X20475000Y15921130D01*
X20631827Y15936576D01*
X20782628Y15982321D01*
X20921606Y16056607D01*
X21043422Y16156578D01*
X21143393Y16278394D01*
X21217679Y16417372D01*
X21263424Y16568173D01*
X21275000Y16685707D01*
X21275000Y18523055D01*
X21390905Y18500000D01*
X21413605Y18500000D01*
X22572152Y17341452D01*
X22586239Y17324287D01*
X22603404Y17310200D01*
X22603408Y17310196D01*
X22654759Y17268053D01*
X22722997Y17231579D01*
X22732935Y17226267D01*
X22817761Y17200535D01*
X22883871Y17194024D01*
X22883881Y17194024D01*
X22905975Y17191848D01*
X22928070Y17194024D01*
X24074960Y17194024D01*
X24018287Y17109207D01*
X23973058Y17000014D01*
X23950000Y16884095D01*
X23950000Y16765905D01*
X23973058Y16649986D01*
X24018287Y16540793D01*
X24083950Y16442522D01*
X24167522Y16358950D01*
X24265793Y16293287D01*
X24374986Y16248058D01*
X24478867Y16227395D01*
X24433950Y16182478D01*
X24368287Y16084207D01*
X24323058Y15975014D01*
X24300000Y15859095D01*
X24300000Y15740905D01*
X24323058Y15624986D01*
X24368287Y15515793D01*
X24433950Y15417522D01*
X24517522Y15333950D01*
X24615793Y15268287D01*
X24724986Y15223058D01*
X24840905Y15200000D01*
X24959095Y15200000D01*
X25075014Y15223058D01*
X25184207Y15268287D01*
X25282478Y15333950D01*
X25298528Y15350000D01*
X25727906Y15350000D01*
X25750000Y15347824D01*
X25772094Y15350000D01*
X25772105Y15350000D01*
X25838215Y15356511D01*
X25923041Y15382243D01*
X26001216Y15424029D01*
X26069737Y15480263D01*
X26083829Y15497434D01*
X26221121Y15634726D01*
X26223058Y15624986D01*
X26268287Y15515793D01*
X26333950Y15417522D01*
X26417522Y15333950D01*
X26515793Y15268287D01*
X26624986Y15223058D01*
X26740905Y15200000D01*
X26859095Y15200000D01*
X26975014Y15223058D01*
X27084207Y15268287D01*
X27182478Y15333950D01*
X27266050Y15417522D01*
X27331713Y15515793D01*
X27376942Y15624986D01*
X27400000Y15740905D01*
X27400000Y15763605D01*
X28136396Y16500000D01*
X28159095Y16500000D01*
X28275014Y16523058D01*
X28384207Y16568287D01*
X28482478Y16633950D01*
X28566050Y16717522D01*
X28631713Y16815793D01*
X28676942Y16924986D01*
X28700000Y17040905D01*
X28700000Y17159095D01*
X28676942Y17275014D01*
X28631713Y17384207D01*
X28566050Y17482478D01*
X28482478Y17566050D01*
X28384207Y17631713D01*
X28275014Y17676942D01*
X28265275Y17678879D01*
X29052573Y18466177D01*
X29069737Y18480263D01*
X29083824Y18497428D01*
X29083828Y18497432D01*
X29125971Y18548783D01*
X29167757Y18626959D01*
X29176075Y18654380D01*
X29193489Y18711785D01*
X29197113Y18748585D01*
X29216050Y18767522D01*
X29281713Y18865793D01*
X29326942Y18974986D01*
X29350000Y19090905D01*
X29350000Y19209095D01*
X29326942Y19325014D01*
X29281713Y19434207D01*
X29216050Y19532478D01*
X29132478Y19616050D01*
X29034207Y19681713D01*
X28925014Y19726942D01*
X28809095Y19750000D01*
X28690905Y19750000D01*
X28597599Y19731440D01*
X28597599Y21011204D01*
X28986396Y21400000D01*
X29009095Y21400000D01*
X29125014Y21423058D01*
X29234207Y21468287D01*
X29332478Y21533950D01*
X29416050Y21617522D01*
X29481713Y21715793D01*
X29526942Y21824986D01*
X29550000Y21940905D01*
X29550000Y22059095D01*
X29526942Y22175014D01*
X29481713Y22284207D01*
X29416050Y22382478D01*
X29332478Y22466050D01*
X29234207Y22531713D01*
X29125014Y22576942D01*
X29009095Y22600000D01*
X28890905Y22600000D01*
X28774986Y22576942D01*
X28665793Y22531713D01*
X28567522Y22466050D01*
X28483950Y22382478D01*
X28418287Y22284207D01*
X28373058Y22175014D01*
X28350000Y22059095D01*
X28350000Y22036396D01*
X27845028Y21531423D01*
X27827863Y21517336D01*
X27813774Y21500169D01*
X27813771Y21500166D01*
X27782668Y21462267D01*
X27771628Y21448815D01*
X27729842Y21370640D01*
X27704110Y21285814D01*
X27697599Y21219704D01*
X27697599Y21219693D01*
X27695423Y21197599D01*
X27697599Y21175505D01*
X27697599Y20971511D01*
X27697600Y20971501D01*
X27697599Y19023799D01*
X26277410Y17603609D01*
X26277410Y17703119D01*
X26254352Y17819038D01*
X26209123Y17928231D01*
X26143460Y18026502D01*
X26059888Y18110074D01*
X25961617Y18175737D01*
X25852424Y18220966D01*
X25736505Y18244024D01*
X25618315Y18244024D01*
X25502396Y18220966D01*
X25393203Y18175737D01*
X25294932Y18110074D01*
X25278882Y18094024D01*
X23092372Y18094024D01*
X22622824Y18563572D01*
X22634207Y18568287D01*
X22732478Y18633950D01*
X22800000Y18701472D01*
X22867522Y18633950D01*
X22965793Y18568287D01*
X23074986Y18523058D01*
X23190905Y18500000D01*
X23309095Y18500000D01*
X23425014Y18523058D01*
X23534207Y18568287D01*
X23632478Y18633950D01*
X23716050Y18717522D01*
X23781713Y18815793D01*
X23826942Y18924986D01*
X23850000Y19040905D01*
X23850000Y19159095D01*
X23826942Y19275014D01*
X23781713Y19384207D01*
X23716050Y19482478D01*
X23700000Y19498528D01*
X23700000Y25274072D01*
X23716050Y25290122D01*
X23781713Y25388393D01*
X23826942Y25497586D01*
X23850000Y25613505D01*
X23850000Y25731695D01*
X23831440Y25825000D01*
X27293630Y25825000D01*
X28024598Y25094031D01*
X28024603Y25094027D01*
X30175000Y22943629D01*
X30175001Y20264300D01*
X30171130Y20225000D01*
X30186577Y20068173D01*
X30232321Y19917373D01*
X30306607Y19778394D01*
X30372693Y19697868D01*
X30406579Y19656578D01*
X30437098Y19631532D01*
X31987098Y18081531D01*
X31987103Y18081527D01*
X32856531Y17212098D01*
X32881578Y17181578D01*
X32912098Y17156531D01*
X32912099Y17156530D01*
X33003393Y17081607D01*
X33134410Y17011577D01*
X33142372Y17007321D01*
X33293173Y16961576D01*
X33410707Y16950000D01*
X33410709Y16950000D01*
X33450000Y16946130D01*
X33489291Y16950000D01*
X42360707Y16950000D01*
X42400000Y16946130D01*
X42439293Y16950000D01*
X42556827Y16961576D01*
X42707628Y17007321D01*
X42846606Y17081607D01*
X42968422Y17181578D01*
X43068393Y17303394D01*
X43107009Y17375639D01*
X46325001Y20593630D01*
X46325001Y4932073D01*
X46266918Y4893263D01*
X46106737Y4733082D01*
X45980884Y4544729D01*
X45899226Y4347590D01*
X30538742Y4347590D01*
X30562679Y4392372D01*
X30608424Y4543173D01*
X30620000Y4660707D01*
X30620000Y5739293D01*
X30608424Y5856827D01*
X30562679Y6007628D01*
X30488393Y6146606D01*
X30388422Y6268422D01*
X30266605Y6368393D01*
X30127627Y6442679D01*
X29976826Y6488424D01*
X29820000Y6503870D01*
X29663173Y6488424D01*
X29512372Y6442679D01*
X29373394Y6368393D01*
X29251578Y6268422D01*
X29151607Y6146605D01*
X29077321Y6007627D01*
X29031576Y5856826D01*
X29020000Y5739292D01*
X29020001Y4660707D01*
X29031577Y4543173D01*
X29077322Y4392372D01*
X29101259Y4347590D01*
X21898742Y4347590D01*
X21922679Y4392372D01*
X21968424Y4543173D01*
X21980000Y4660707D01*
X21980000Y5739293D01*
X21968424Y5856827D01*
X21922679Y6007628D01*
X21848393Y6146606D01*
X21748422Y6268422D01*
X21626605Y6368393D01*
X21520702Y6425000D01*
X22935709Y6425000D01*
X22975000Y6421130D01*
X23014291Y6425000D01*
X23014293Y6425000D01*
X23131827Y6436576D01*
X23282628Y6482321D01*
X23421606Y6556607D01*
X23543422Y6656578D01*
X23568473Y6687103D01*
X24631461Y7750090D01*
X26389383Y7750090D01*
X26506917Y7761666D01*
X26657718Y7807411D01*
X26796696Y7881697D01*
X26918512Y7981668D01*
X27018483Y8103484D01*
X27092769Y8242462D01*
X27138514Y8393263D01*
X27153960Y8550090D01*
X27138514Y8706917D01*
X27092769Y8857718D01*
X27047956Y8941557D01*
X27765000Y8941557D01*
X27765000Y8818443D01*
X27789019Y8697694D01*
X27836132Y8583952D01*
X27904531Y8481586D01*
X27991586Y8394531D01*
X28093952Y8326132D01*
X28207694Y8279019D01*
X28328443Y8255000D01*
X28451557Y8255000D01*
X28572306Y8279019D01*
X28686048Y8326132D01*
X28788414Y8394531D01*
X28875469Y8481586D01*
X28943868Y8583952D01*
X28990981Y8697694D01*
X29001363Y8749886D01*
X29006939Y8693272D01*
X29054113Y8537759D01*
X29130720Y8394437D01*
X29233816Y8268815D01*
X29359438Y8165719D01*
X29502760Y8089112D01*
X29658273Y8041938D01*
X29820000Y8026009D01*
X29981728Y8041938D01*
X30137241Y8089112D01*
X30280563Y8165719D01*
X30406185Y8268815D01*
X30509281Y8394437D01*
X30585888Y8537759D01*
X30633062Y8693272D01*
X30645000Y8814479D01*
X30645000Y9945521D01*
X30633062Y10066728D01*
X30585888Y10222241D01*
X30509281Y10365563D01*
X30406185Y10491185D01*
X30280562Y10594281D01*
X30137240Y10670888D01*
X29981727Y10718062D01*
X29820000Y10733991D01*
X29658272Y10718062D01*
X29502759Y10670888D01*
X29359437Y10594281D01*
X29233815Y10491185D01*
X29130719Y10365562D01*
X29054112Y10222240D01*
X29006938Y10066727D01*
X28995000Y9945520D01*
X28995001Y9042098D01*
X28990981Y9062306D01*
X28943868Y9176048D01*
X28875469Y9278414D01*
X28788414Y9365469D01*
X28686048Y9433868D01*
X28572306Y9480981D01*
X28451557Y9505000D01*
X28328443Y9505000D01*
X28207694Y9480981D01*
X28093952Y9433868D01*
X27991586Y9365469D01*
X27904531Y9278414D01*
X27836132Y9176048D01*
X27789019Y9062306D01*
X27765000Y8941557D01*
X27047956Y8941557D01*
X27018483Y8996696D01*
X26918512Y9118512D01*
X26796696Y9218483D01*
X26657718Y9292769D01*
X26506917Y9338514D01*
X26389383Y9350090D01*
X24260617Y9350090D01*
X24143083Y9338514D01*
X23992282Y9292769D01*
X23853304Y9218483D01*
X23731488Y9118512D01*
X23705618Y9086989D01*
X22643630Y8025000D01*
X20956371Y8025000D01*
X20905103Y8076267D01*
X21018273Y8041938D01*
X21180000Y8026009D01*
X21341728Y8041938D01*
X21497241Y8089112D01*
X21640563Y8165719D01*
X21766185Y8268815D01*
X21869281Y8394437D01*
X21945888Y8537759D01*
X21993062Y8693272D01*
X21998638Y8749883D01*
X22009019Y8697694D01*
X22056132Y8583952D01*
X22124531Y8481586D01*
X22211586Y8394531D01*
X22313952Y8326132D01*
X22427694Y8279019D01*
X22548443Y8255000D01*
X22671557Y8255000D01*
X22792306Y8279019D01*
X22906048Y8326132D01*
X23008414Y8394531D01*
X23095469Y8481586D01*
X23163868Y8583952D01*
X23210981Y8697694D01*
X23235000Y8818443D01*
X23235000Y8941557D01*
X23210981Y9062306D01*
X23163868Y9176048D01*
X23095469Y9278414D01*
X23008414Y9365469D01*
X22906048Y9433868D01*
X22792306Y9480981D01*
X22671557Y9505000D01*
X22548443Y9505000D01*
X22427694Y9480981D01*
X22313952Y9433868D01*
X22211586Y9365469D01*
X22124531Y9278414D01*
X22056132Y9176048D01*
X22009019Y9062306D01*
X22005000Y9042102D01*
X22005000Y9945521D01*
X21993062Y10066728D01*
X21945888Y10222241D01*
X21869281Y10365563D01*
X21766185Y10491185D01*
X21640562Y10594281D01*
X21497240Y10670888D01*
X21341727Y10718062D01*
X21180000Y10733991D01*
X21018272Y10718062D01*
X20862759Y10670888D01*
X20719437Y10594281D01*
X20593815Y10491185D01*
X20490719Y10365562D01*
X20414112Y10222240D01*
X20366938Y10066727D01*
X20355000Y9945520D01*
X20355001Y8814479D01*
X20366939Y8693272D01*
X20401269Y8580102D01*
X20200000Y8781370D01*
X20200000Y10759095D01*
X35600000Y10759095D01*
X35600000Y10640905D01*
X35623058Y10524986D01*
X35668287Y10415793D01*
X35733950Y10317522D01*
X35750001Y10301471D01*
X35750000Y7148528D01*
X35733950Y7132478D01*
X35668287Y7034207D01*
X35623058Y6925014D01*
X35600000Y6809095D01*
X35600000Y6690905D01*
X35623058Y6574986D01*
X35668287Y6465793D01*
X35733950Y6367522D01*
X35817522Y6283950D01*
X35915793Y6218287D01*
X36024986Y6173058D01*
X36140905Y6150000D01*
X36259095Y6150000D01*
X36375014Y6173058D01*
X36484207Y6218287D01*
X36582478Y6283950D01*
X36666050Y6367522D01*
X36731713Y6465793D01*
X36776942Y6574986D01*
X36800000Y6690905D01*
X36800000Y6809095D01*
X36776942Y6925014D01*
X36731713Y7034207D01*
X36666050Y7132478D01*
X36650000Y7148528D01*
X36650000Y8246228D01*
X40500000Y8246228D01*
X40500000Y7753772D01*
X40596074Y7270777D01*
X40784529Y6815806D01*
X41058124Y6406343D01*
X41406343Y6058124D01*
X41815806Y5784529D01*
X42270777Y5596074D01*
X42753772Y5500000D01*
X43246228Y5500000D01*
X43729223Y5596074D01*
X44184194Y5784529D01*
X44593657Y6058124D01*
X44941876Y6406343D01*
X45215471Y6815806D01*
X45403926Y7270777D01*
X45500000Y7753772D01*
X45500000Y8246228D01*
X45403926Y8729223D01*
X45215471Y9184194D01*
X44941876Y9593657D01*
X44593657Y9941876D01*
X44184194Y10215471D01*
X43729223Y10403926D01*
X43246228Y10500000D01*
X42753772Y10500000D01*
X42270777Y10403926D01*
X41815806Y10215471D01*
X41406343Y9941876D01*
X41058124Y9593657D01*
X40784529Y9184194D01*
X40596074Y8729223D01*
X40500000Y8246228D01*
X36650000Y8246228D01*
X36650000Y10301472D01*
X36666050Y10317522D01*
X36731713Y10415793D01*
X36776942Y10524986D01*
X36800000Y10640905D01*
X36800000Y10759095D01*
X36776942Y10875014D01*
X36731713Y10984207D01*
X36666050Y11082478D01*
X36582478Y11166050D01*
X36484207Y11231713D01*
X36375014Y11276942D01*
X36259095Y11300000D01*
X36140905Y11300000D01*
X36024986Y11276942D01*
X35915793Y11231713D01*
X35817522Y11166050D01*
X35733950Y11082478D01*
X35668287Y10984207D01*
X35623058Y10875014D01*
X35600000Y10759095D01*
X20200000Y10759095D01*
X20200000Y11468630D01*
X20431371Y11700000D01*
X21539293Y11700000D01*
X21656827Y11711576D01*
X21807628Y11757321D01*
X21946606Y11831607D01*
X22068422Y11931578D01*
X22168393Y12053394D01*
X22242679Y12192372D01*
X22288424Y12343173D01*
X22303870Y12500000D01*
X22288424Y12656827D01*
X22242679Y12807628D01*
X22168393Y12946606D01*
X22068422Y13068422D01*
X21946606Y13168393D01*
X21807628Y13242679D01*
X21656827Y13288424D01*
X21539293Y13300000D01*
X20139282Y13300000D01*
X20099999Y13303869D01*
X20060716Y13300000D01*
X20060707Y13300000D01*
X19943173Y13288424D01*
X19792372Y13242679D01*
X19701803Y13194269D01*
X19653393Y13168393D01*
X19570056Y13100000D01*
X19531578Y13068422D01*
X19506531Y13037902D01*
X18862098Y12393468D01*
X18831579Y12368422D01*
X18806532Y12337902D01*
X18806531Y12337901D01*
X18731607Y12246606D01*
X18657321Y12107627D01*
X18611577Y11956827D01*
X18596130Y11800000D01*
X18600001Y11760700D01*
X18600000Y8489291D01*
X18596130Y8450000D01*
X18600000Y8410709D01*
X18600000Y8410708D01*
X18611576Y8293174D01*
X18645986Y8179739D01*
X18657321Y8142373D01*
X18731607Y8003394D01*
X18760918Y7967679D01*
X18831578Y7881578D01*
X18862103Y7856527D01*
X20031531Y6687098D01*
X20056578Y6656578D01*
X20087098Y6631531D01*
X20087099Y6631530D01*
X20178393Y6556607D01*
X20191366Y6549673D01*
X20317372Y6482321D01*
X20468173Y6436576D01*
X20585707Y6425000D01*
X20585709Y6425000D01*
X20625000Y6421130D01*
X20664291Y6425000D01*
X20839297Y6425000D01*
X20733394Y6368393D01*
X20611578Y6268422D01*
X20511607Y6146605D01*
X20437321Y6007627D01*
X20391576Y5856826D01*
X20380000Y5739292D01*
X20380001Y4660707D01*
X20391577Y4543173D01*
X20437322Y4392372D01*
X20461259Y4347590D01*
X18357004Y4347590D01*
X15636372Y7068222D01*
X15650000Y7136735D01*
X15650000Y7363265D01*
X15605806Y7585443D01*
X15519116Y7794729D01*
X15393263Y7983082D01*
X15233082Y8143263D01*
X15044729Y8269116D01*
X14835443Y8355806D01*
X14613265Y8400000D01*
X14386735Y8400000D01*
X14164557Y8355806D01*
X13955271Y8269116D01*
X13766918Y8143263D01*
X13606737Y7983082D01*
X13480884Y7794729D01*
X13394194Y7585443D01*
X13350000Y7363265D01*
X13350000Y7136735D01*
X13363628Y7068222D01*
X10970406Y4675000D01*
X4932072Y4675000D01*
X4893263Y4733082D01*
X4733082Y4893263D01*
X4675000Y4932072D01*
X4675000Y8246228D01*
X5500000Y8246228D01*
X5500000Y7753772D01*
X5596074Y7270777D01*
X5784529Y6815806D01*
X6058124Y6406343D01*
X6406343Y6058124D01*
X6815806Y5784529D01*
X7270777Y5596074D01*
X7753772Y5500000D01*
X8246228Y5500000D01*
X8729223Y5596074D01*
X9184194Y5784529D01*
X9593657Y6058124D01*
X9941876Y6406343D01*
X10215471Y6815806D01*
X10403926Y7270777D01*
X10500000Y7753772D01*
X10500000Y8246228D01*
X10403926Y8729223D01*
X10215471Y9184194D01*
X10049914Y9431968D01*
X13198342Y9431968D01*
X13218793Y9364529D01*
X13326416Y9122753D01*
X13479140Y8906619D01*
X13671095Y8724433D01*
X13894904Y8583196D01*
X14141967Y8488336D01*
X14350000Y8573353D01*
X14350000Y9640000D01*
X14650000Y9640000D01*
X14650000Y8573353D01*
X14858033Y8488336D01*
X15105096Y8583196D01*
X15328905Y8724433D01*
X15520860Y8906619D01*
X15673584Y9122753D01*
X15781207Y9364529D01*
X15801658Y9431968D01*
X15715782Y9640000D01*
X14650000Y9640000D01*
X14350000Y9640000D01*
X13284218Y9640000D01*
X13198342Y9431968D01*
X10049914Y9431968D01*
X9941876Y9593657D01*
X9593657Y9941876D01*
X9285124Y10148032D01*
X13198342Y10148032D01*
X13284218Y9940000D01*
X14350000Y9940000D01*
X14350000Y11006647D01*
X14650000Y11006647D01*
X14650000Y9940000D01*
X15715782Y9940000D01*
X15801658Y10148032D01*
X15781207Y10215471D01*
X15673584Y10457247D01*
X15520860Y10673381D01*
X15328905Y10855567D01*
X15105096Y10996804D01*
X14858033Y11091664D01*
X14650000Y11006647D01*
X14350000Y11006647D01*
X14141967Y11091664D01*
X13894904Y10996804D01*
X13671095Y10855567D01*
X13479140Y10673381D01*
X13326416Y10457247D01*
X13218793Y10215471D01*
X13198342Y10148032D01*
X9285124Y10148032D01*
X9184194Y10215471D01*
X8729223Y10403926D01*
X8246228Y10500000D01*
X7753772Y10500000D01*
X7270777Y10403926D01*
X6815806Y10215471D01*
X6406343Y9941876D01*
X6058124Y9593657D01*
X5784529Y9184194D01*
X5596074Y8729223D01*
X5500000Y8246228D01*
X4675000Y8246228D01*
X4675000Y20010186D01*
X4730884Y19875271D01*
X4856737Y19686918D01*
X5016918Y19526737D01*
X5205271Y19400884D01*
X5414557Y19314194D01*
X5636735Y19270000D01*
X5863265Y19270000D01*
X6085443Y19314194D01*
X6294729Y19400884D01*
X6483082Y19526737D01*
X6526345Y19570000D01*
X6937581Y19570000D01*
X6947235Y19471983D01*
X6975825Y19377733D01*
X7022254Y19290871D01*
X7084736Y19214736D01*
X7160871Y19152254D01*
X7247733Y19105825D01*
X7341983Y19077235D01*
X7440000Y19067581D01*
X8015000Y19070000D01*
X8140000Y19195000D01*
X8140000Y20270000D01*
X8440000Y20270000D01*
X8440000Y19195000D01*
X8565000Y19070000D01*
X9140000Y19067581D01*
X9238017Y19077235D01*
X9332267Y19105825D01*
X9419129Y19152254D01*
X9495264Y19214736D01*
X9557746Y19290871D01*
X9604175Y19377733D01*
X9632765Y19471983D01*
X9642419Y19570000D01*
X9640000Y20145000D01*
X9515000Y20270000D01*
X8440000Y20270000D01*
X8140000Y20270000D01*
X7065000Y20270000D01*
X6940000Y20145000D01*
X6937581Y19570000D01*
X6526345Y19570000D01*
X6643263Y19686918D01*
X6769116Y19875271D01*
X6855806Y20084557D01*
X6900000Y20306735D01*
X6900000Y20533265D01*
X6855806Y20755443D01*
X6769116Y20964729D01*
X6643263Y21153082D01*
X6483082Y21313263D01*
X6294729Y21439116D01*
X6085443Y21525806D01*
X5863265Y21570000D01*
X5636735Y21570000D01*
X5414557Y21525806D01*
X5205271Y21439116D01*
X5016918Y21313263D01*
X4856737Y21153082D01*
X4730884Y20964729D01*
X4675000Y20829814D01*
X4675000Y22550186D01*
X4730884Y22415271D01*
X4856737Y22226918D01*
X5016918Y22066737D01*
X5205271Y21940884D01*
X5414557Y21854194D01*
X5636735Y21810000D01*
X5863265Y21810000D01*
X6085443Y21854194D01*
X6294729Y21940884D01*
X6483082Y22066737D01*
X6488150Y22071805D01*
X6448058Y21975014D01*
X6425000Y21859095D01*
X6425000Y21740905D01*
X6448058Y21624986D01*
X6493287Y21515793D01*
X6558950Y21417522D01*
X6642522Y21333950D01*
X6740793Y21268287D01*
X6849986Y21223058D01*
X6937852Y21205580D01*
X6940000Y20695000D01*
X7065000Y20570000D01*
X8140000Y20570000D01*
X8140000Y21645000D01*
X8440000Y21645000D01*
X8440000Y20570000D01*
X9515000Y20570000D01*
X9640000Y20695000D01*
X9642419Y21270000D01*
X9632765Y21368017D01*
X9604175Y21462267D01*
X9557746Y21549129D01*
X9495264Y21625264D01*
X9419129Y21687746D01*
X9332267Y21734175D01*
X9238017Y21762765D01*
X9140000Y21772419D01*
X8565000Y21770000D01*
X8440000Y21645000D01*
X8140000Y21645000D01*
X8015000Y21770000D01*
X7625000Y21771641D01*
X7625000Y21859095D01*
X7601942Y21975014D01*
X7566640Y22060241D01*
X7745271Y21940884D01*
X7954557Y21854194D01*
X8176735Y21810000D01*
X8403265Y21810000D01*
X8625443Y21854194D01*
X8834729Y21940884D01*
X8923202Y22000000D01*
X11000000Y22000000D01*
X11000000Y19000000D01*
X11001921Y18980491D01*
X11007612Y18961732D01*
X11016853Y18944443D01*
X11029289Y18929289D01*
X11044443Y18916853D01*
X11061732Y18907612D01*
X11080491Y18901921D01*
X11100000Y18900000D01*
X14100000Y18900000D01*
X14119509Y18901921D01*
X14138268Y18907612D01*
X14155557Y18916853D01*
X14170711Y18929289D01*
X14183147Y18944443D01*
X14192388Y18961732D01*
X14198079Y18980491D01*
X14200000Y19000000D01*
X14200000Y22000000D01*
X14198079Y22019509D01*
X14192388Y22038268D01*
X14183147Y22055557D01*
X14170711Y22070711D01*
X14155557Y22083147D01*
X14138268Y22092388D01*
X14119509Y22098079D01*
X14100000Y22100000D01*
X11100000Y22100000D01*
X11080491Y22098079D01*
X11061732Y22092388D01*
X11044443Y22083147D01*
X11029289Y22070711D01*
X11016853Y22055557D01*
X11007612Y22038268D01*
X11001921Y22019509D01*
X11000000Y22000000D01*
X8923202Y22000000D01*
X9023082Y22066737D01*
X9183263Y22226918D01*
X9309116Y22415271D01*
X9395806Y22624557D01*
X9440000Y22846735D01*
X9440000Y23073265D01*
X9395806Y23295443D01*
X9309116Y23504729D01*
X9183263Y23693082D01*
X9023082Y23853263D01*
X8834729Y23979116D01*
X8625443Y24065806D01*
X8403265Y24110000D01*
X8176735Y24110000D01*
X7954557Y24065806D01*
X7745271Y23979116D01*
X7556918Y23853263D01*
X7475000Y23771345D01*
X7475000Y24688655D01*
X7556918Y24606737D01*
X7745271Y24480884D01*
X7954557Y24394194D01*
X8176735Y24350000D01*
X8403265Y24350000D01*
X8625443Y24394194D01*
X8834729Y24480884D01*
X9023082Y24606737D01*
X9183263Y24766918D01*
X9309116Y24955271D01*
X9395806Y25164557D01*
X9440000Y25386735D01*
X9440000Y25613265D01*
X9395806Y25835443D01*
X9309116Y26044729D01*
X9183263Y26233082D01*
X9023082Y26393263D01*
X8834729Y26519116D01*
X8625443Y26605806D01*
X8403265Y26650000D01*
X8176735Y26650000D01*
X7954557Y26605806D01*
X7745271Y26519116D01*
X7556918Y26393263D01*
X7475000Y26311345D01*
X7475000Y27228655D01*
X7556918Y27146737D01*
X7745271Y27020884D01*
X7954557Y26934194D01*
X8176735Y26890000D01*
X8403265Y26890000D01*
X8625443Y26934194D01*
X8834729Y27020884D01*
X9023082Y27146737D01*
X9183263Y27306918D01*
X9309116Y27495271D01*
X9395806Y27704557D01*
X9440000Y27926735D01*
X9440000Y28153265D01*
X9395806Y28375443D01*
X9309116Y28584729D01*
X9183263Y28773082D01*
X9023082Y28933263D01*
X8834729Y29059116D01*
X8625443Y29145806D01*
X8403265Y29190000D01*
X8176735Y29190000D01*
X7954557Y29145806D01*
X7745271Y29059116D01*
X7556918Y28933263D01*
X7475000Y28851345D01*
X7475000Y29768655D01*
X7556918Y29686737D01*
X7745271Y29560884D01*
X7954557Y29474194D01*
X8176735Y29430000D01*
X8403265Y29430000D01*
X8625443Y29474194D01*
X8834729Y29560884D01*
X9023082Y29686737D01*
X9183263Y29846918D01*
X9309116Y30035271D01*
X9395806Y30244557D01*
X9440000Y30466735D01*
X9440000Y30693265D01*
X9395806Y30915443D01*
X9309116Y31124729D01*
X9183263Y31313082D01*
X9023082Y31473263D01*
X8834729Y31599116D01*
X8625443Y31685806D01*
X8403265Y31730000D01*
X8176735Y31730000D01*
X7954557Y31685806D01*
X7745271Y31599116D01*
X7556918Y31473263D01*
X7475000Y31391345D01*
X7475000Y33268502D01*
X7516050Y33309552D01*
X7581713Y33407823D01*
X7626942Y33517016D01*
X7650000Y33632935D01*
X7650000Y33751125D01*
X7626942Y33867044D01*
X7581713Y33976237D01*
X7516050Y34074508D01*
X7432478Y34158080D01*
X7334207Y34223743D01*
X7225014Y34268972D01*
X7109095Y34292030D01*
X6990905Y34292030D01*
X6874986Y34268972D01*
X6765793Y34223743D01*
X6667522Y34158080D01*
X6583950Y34074508D01*
X6518287Y33976237D01*
X6473058Y33867044D01*
X6450000Y33751125D01*
X6450000Y33632935D01*
X6473058Y33517016D01*
X6518287Y33407823D01*
X6575001Y33322946D01*
X6575000Y32924505D01*
X6575000Y32924504D01*
X6575001Y32347113D01*
X6575000Y32347104D01*
X6575000Y31381345D01*
X6483082Y31473263D01*
X6294729Y31599116D01*
X6085443Y31685806D01*
X5863265Y31730000D01*
X5636735Y31730000D01*
X5414557Y31685806D01*
X5205271Y31599116D01*
X5016918Y31473263D01*
X4856737Y31313082D01*
X4817928Y31255000D01*
X4675000Y31255000D01*
X4675000Y43246228D01*
X5500000Y43246228D01*
X5500000Y42753772D01*
X5596074Y42270777D01*
X5784529Y41815806D01*
X6058124Y41406343D01*
X6406343Y41058124D01*
X6815806Y40784529D01*
X7270777Y40596074D01*
X7753772Y40500000D01*
X8246228Y40500000D01*
X8729223Y40596074D01*
X9184194Y40784529D01*
X9593657Y41058124D01*
X9941876Y41406343D01*
X10215471Y41815806D01*
X10403926Y42270777D01*
X10500000Y42753772D01*
X10500000Y43246228D01*
X10403926Y43729223D01*
X10215471Y44184194D01*
X9941876Y44593657D01*
X9593657Y44941876D01*
X9184194Y45215471D01*
X8729223Y45403926D01*
X8246228Y45500000D01*
X7753772Y45500000D01*
X7270777Y45403926D01*
X6815806Y45215471D01*
X6406343Y44941876D01*
X6058124Y44593657D01*
X5784529Y44184194D01*
X5596074Y43729223D01*
X5500000Y43246228D01*
X4675000Y43246228D01*
X4675000Y46067928D01*
X4733082Y46106737D01*
X4893263Y46266918D01*
X5019116Y46455271D01*
X5105806Y46664557D01*
X5150000Y46886735D01*
X5150000Y47113265D01*
X5105806Y47335443D01*
X5019116Y47544729D01*
X4893263Y47733082D01*
X4796659Y47829686D01*
X5041818Y47829686D01*
X5128803Y47622468D01*
X5370579Y47514844D01*
X5628706Y47456457D01*
X5893263Y47449549D01*
X6154085Y47494387D01*
X6401148Y47589247D01*
X6463295Y47622473D01*
X6549673Y47830297D01*
X5796051Y48583919D01*
X5041818Y47829686D01*
X4796659Y47829686D01*
X4733082Y47893263D01*
X4544729Y48019116D01*
X4335443Y48105806D01*
X4113265Y48150000D01*
X3886735Y48150000D01*
X3664557Y48105806D01*
X3455271Y48019116D01*
X3266918Y47893263D01*
X3106737Y47733082D01*
X2980884Y47544729D01*
X2894194Y47335443D01*
X2850000Y47113265D01*
X2850000Y46886735D01*
X2894194Y46664557D01*
X2980884Y46455271D01*
X3106737Y46266918D01*
X3266918Y46106737D01*
X3325001Y46067927D01*
X3325001Y45709911D01*
X3318668Y45717627D01*
X2717627Y46318668D01*
X2607544Y46409012D01*
X2481950Y46476143D01*
X2345673Y46517482D01*
X2203949Y46531441D01*
X2062225Y46517482D01*
X1925948Y46476143D01*
X1800354Y46409012D01*
X1690271Y46318668D01*
X1089230Y45717627D01*
X998886Y45607544D01*
X931755Y45481950D01*
X890416Y45345673D01*
X876457Y45203949D01*
X890416Y45062225D01*
X931755Y44925948D01*
X998886Y44800354D01*
X1089230Y44690271D01*
X1690271Y44089230D01*
X1800354Y43998886D01*
X1925948Y43931755D01*
X2062225Y43890416D01*
X2203949Y43876457D01*
X2345673Y43890416D01*
X2481950Y43931755D01*
X2607544Y43998886D01*
X2675000Y44054246D01*
X2675001Y37547108D01*
X2675000Y37547098D01*
X2675001Y33528863D01*
X2420494Y35803516D01*
X2419729Y35809183D01*
X2419035Y35814766D01*
X2418522Y35818130D01*
X1874426Y39259571D01*
X1873407Y39265187D01*
X1872459Y39270743D01*
X1871793Y39274081D01*
X1172143Y42687297D01*
X1170880Y42692816D01*
X1169671Y42698369D01*
X1168855Y42701673D01*
X360318Y45900700D01*
X3352881Y48893263D01*
X4449549Y48893263D01*
X4456457Y48628706D01*
X4514844Y48370579D01*
X4622468Y48128803D01*
X4829686Y48041818D01*
X5583919Y48796051D01*
X6008183Y48796051D01*
X6761805Y48042429D01*
X6969629Y48128807D01*
X7002855Y48190954D01*
X7097715Y48438017D01*
X7142553Y48698839D01*
X7135645Y48963396D01*
X7077258Y49221523D01*
X6969634Y49463299D01*
X6762416Y49550284D01*
X6008183Y48796051D01*
X5583919Y48796051D01*
X4830297Y49549673D01*
X4622473Y49463295D01*
X4589247Y49401148D01*
X4494387Y49154085D01*
X4449549Y48893263D01*
X3352881Y48893263D01*
X4221423Y49761805D01*
X5042429Y49761805D01*
X5796051Y49008183D01*
X6550284Y49762416D01*
X6463299Y49969634D01*
X6221523Y50077258D01*
X5963396Y50135645D01*
X5698839Y50142553D01*
X5438017Y50097715D01*
X5190954Y50002855D01*
X5128807Y49969629D01*
X5042429Y49761805D01*
X4221423Y49761805D01*
X5098995Y50639376D01*
X7995180Y49901148D01*
X8000391Y49899945D01*
X8005578Y49898679D01*
X8008905Y49897964D01*
X11419265Y49184519D01*
X11424861Y49183481D01*
X11430408Y49182391D01*
X11433764Y49181828D01*
X14872976Y48623822D01*
X14878577Y48623044D01*
X14884204Y48622201D01*
X14887582Y48621791D01*
X18348568Y48220372D01*
X18354227Y48219846D01*
X18359858Y48219262D01*
X18363247Y48219006D01*
X18363254Y48219006D01*
X21838883Y47975001D01*
X21844506Y47974735D01*
X21850211Y47974404D01*
X21853613Y47974302D01*
X25336736Y47888214D01*
X25342401Y47888203D01*
X25348080Y47888132D01*
X25351483Y47888184D01*
X28834925Y47960189D01*
X28840616Y47960436D01*
X28846262Y47960622D01*
X28849658Y47960829D01*
X32326248Y48190779D01*
X32331877Y48191280D01*
X32337553Y48191725D01*
X32340937Y48192085D01*
X35803518Y48579507D01*
X35809192Y48580273D01*
X35814767Y48580966D01*
X35818132Y48581479D01*
X39259572Y49125575D01*
X39265194Y49126595D01*
X39270744Y49127542D01*
X39274071Y49128206D01*
X39274082Y49128208D01*
X39274091Y49128210D01*
X42687298Y49827858D01*
X42692817Y49829121D01*
X42698370Y49830330D01*
X42701674Y49831146D01*
X45900699Y50639683D01*
X50639375Y45901006D01*
%TA.AperFunction,Conductor*%
D23*
G36*
X50639375Y45901006D02*
G01*
X49901147Y43004822D01*
X49899940Y42999593D01*
X49898678Y42994423D01*
X49897963Y42991096D01*
X49184518Y39580736D01*
X49183482Y39575151D01*
X49182390Y39569594D01*
X49181827Y39566237D01*
X48623821Y36127025D01*
X48623041Y36121414D01*
X48622200Y36115797D01*
X48621790Y36112418D01*
X48220371Y32651433D01*
X48219845Y32645782D01*
X48219261Y32640143D01*
X48219005Y32636750D01*
X47975000Y29161118D01*
X47974734Y29155495D01*
X47974403Y29149790D01*
X47974301Y29146388D01*
X47888213Y25663265D01*
X47888202Y25657600D01*
X47888131Y25651921D01*
X47888183Y25648518D01*
X47960188Y22165076D01*
X47960435Y22159385D01*
X47960621Y22153739D01*
X47960828Y22150343D01*
X48190778Y18673753D01*
X48191279Y18668124D01*
X48191724Y18662448D01*
X48192084Y18659064D01*
X48579506Y15196483D01*
X48580272Y15190809D01*
X48580965Y15185234D01*
X48581478Y15181869D01*
X49125574Y11740429D01*
X49126594Y11734807D01*
X49127541Y11729257D01*
X49128207Y11725920D01*
X49827857Y8312703D01*
X49829120Y8307184D01*
X49830329Y8301631D01*
X49831145Y8298327D01*
X50639682Y5099301D01*
X45901007Y360625D01*
X43004822Y1098853D01*
X42999593Y1100060D01*
X42994423Y1101322D01*
X42991096Y1102037D01*
X42343164Y1237584D01*
X44449716Y1237584D01*
X44536701Y1030366D01*
X44778477Y922742D01*
X45036604Y864355D01*
X45301161Y857447D01*
X45561983Y902285D01*
X45809046Y997145D01*
X45871193Y1030371D01*
X45957571Y1238195D01*
X45203949Y1991817D01*
X44449716Y1237584D01*
X42343164Y1237584D01*
X39580736Y1815482D01*
X39575151Y1816518D01*
X39569594Y1817610D01*
X39566237Y1818173D01*
X36127025Y2376179D01*
X36121414Y2376959D01*
X36115797Y2377800D01*
X36112418Y2378210D01*
X32651433Y2779629D01*
X32645782Y2780155D01*
X32640143Y2780739D01*
X32636750Y2780995D01*
X29551549Y2997590D01*
X44198173Y2997590D01*
X44238193Y2957570D01*
X44030371Y2871193D01*
X43997145Y2809046D01*
X43902285Y2561983D01*
X43857447Y2301161D01*
X43864355Y2036604D01*
X43922742Y1778477D01*
X44030366Y1536701D01*
X44237584Y1449716D01*
X44991817Y2203949D01*
X44977675Y2218091D01*
X45189807Y2430223D01*
X45203949Y2416081D01*
X45218092Y2430223D01*
X45430224Y2218091D01*
X45416081Y2203949D01*
X46169703Y1450327D01*
X46377527Y1536705D01*
X46410753Y1598852D01*
X46505613Y1845915D01*
X46550451Y2106737D01*
X46543543Y2371294D01*
X46485156Y2629421D01*
X46377532Y2871197D01*
X46170316Y2958181D01*
X46209725Y2997590D01*
X46430269Y2997590D01*
X46455271Y2980884D01*
X46664557Y2894194D01*
X46886735Y2850000D01*
X47113265Y2850000D01*
X47335443Y2894194D01*
X47544729Y2980884D01*
X47733082Y3106737D01*
X47893263Y3266918D01*
X48019116Y3455271D01*
X48105806Y3664557D01*
X48150000Y3886735D01*
X48150000Y4113265D01*
X48105806Y4335443D01*
X48019116Y4544729D01*
X47893263Y4733082D01*
X47733082Y4893263D01*
X47675000Y4932072D01*
X47675000Y5290088D01*
X47681332Y5282373D01*
X48282373Y4681332D01*
X48392456Y4590988D01*
X48518050Y4523857D01*
X48654327Y4482518D01*
X48796051Y4468559D01*
X48937775Y4482518D01*
X49074052Y4523857D01*
X49199646Y4590988D01*
X49309729Y4681332D01*
X49910770Y5282373D01*
X50001114Y5392456D01*
X50068245Y5518050D01*
X50109584Y5654327D01*
X50123543Y5796051D01*
X50109584Y5937775D01*
X50068245Y6074052D01*
X50001114Y6199646D01*
X49910770Y6309729D01*
X49309729Y6910770D01*
X49199646Y7001114D01*
X49074052Y7068245D01*
X48937775Y7109584D01*
X48796051Y7123543D01*
X48654327Y7109584D01*
X48518050Y7068245D01*
X48392456Y7001114D01*
X48282373Y6910770D01*
X47681332Y6309729D01*
X47675000Y6302014D01*
X47675000Y44238195D01*
X48042429Y44238195D01*
X48128807Y44030371D01*
X48190954Y43997145D01*
X48438017Y43902285D01*
X48698839Y43857447D01*
X48963396Y43864355D01*
X49221523Y43922742D01*
X49463299Y44030366D01*
X49550284Y44237584D01*
X48796051Y44991817D01*
X48042429Y44238195D01*
X47675000Y44238195D01*
X47675000Y44514873D01*
X47830297Y44450327D01*
X48583919Y45203949D01*
X49008183Y45203949D01*
X49762416Y44449716D01*
X49969634Y44536701D01*
X50077258Y44778477D01*
X50135645Y45036604D01*
X50142553Y45301161D01*
X50097715Y45561983D01*
X50002855Y45809046D01*
X49969629Y45871193D01*
X49761805Y45957571D01*
X49008183Y45203949D01*
X48583919Y45203949D01*
X47829686Y45958182D01*
X47675000Y45893249D01*
X47675000Y46067928D01*
X47733082Y46106737D01*
X47796659Y46170314D01*
X48041818Y46170314D01*
X48796051Y45416081D01*
X49549673Y46169703D01*
X49463295Y46377527D01*
X49401148Y46410753D01*
X49154085Y46505613D01*
X48893263Y46550451D01*
X48628706Y46543543D01*
X48370579Y46485156D01*
X48128803Y46377532D01*
X48041818Y46170314D01*
X47796659Y46170314D01*
X47893263Y46266918D01*
X48019116Y46455271D01*
X48105806Y46664557D01*
X48150000Y46886735D01*
X48150000Y47113265D01*
X48105806Y47335443D01*
X48019116Y47544729D01*
X47893263Y47733082D01*
X47733082Y47893263D01*
X47544729Y48019116D01*
X47335443Y48105806D01*
X47113265Y48150000D01*
X46886735Y48150000D01*
X46664557Y48105806D01*
X46455271Y48019116D01*
X46266918Y47893263D01*
X46106737Y47733082D01*
X45980884Y47544729D01*
X45894194Y47335443D01*
X45850000Y47113265D01*
X45850000Y46886735D01*
X45894194Y46664557D01*
X45980884Y46455271D01*
X46106737Y46266918D01*
X46266918Y46106737D01*
X46325000Y46067928D01*
X46325000Y37006370D01*
X43268473Y40062897D01*
X43243422Y40093422D01*
X43121606Y40193393D01*
X42982628Y40267679D01*
X42831827Y40313424D01*
X42714293Y40325000D01*
X42714291Y40325000D01*
X42675000Y40328870D01*
X42635709Y40325000D01*
X40156371Y40325000D01*
X37235143Y43246228D01*
X40500000Y43246228D01*
X40500000Y42753772D01*
X40596074Y42270777D01*
X40784529Y41815806D01*
X41058124Y41406343D01*
X41406343Y41058124D01*
X41815806Y40784529D01*
X42270777Y40596074D01*
X42753772Y40500000D01*
X43246228Y40500000D01*
X43729223Y40596074D01*
X44184194Y40784529D01*
X44593657Y41058124D01*
X44941876Y41406343D01*
X45215471Y41815806D01*
X45403926Y42270777D01*
X45500000Y42753772D01*
X45500000Y43246228D01*
X45403926Y43729223D01*
X45215471Y44184194D01*
X44941876Y44593657D01*
X44593657Y44941876D01*
X44184194Y45215471D01*
X43729223Y45403926D01*
X43246228Y45500000D01*
X42753772Y45500000D01*
X42270777Y45403926D01*
X41815806Y45215471D01*
X41406343Y44941876D01*
X41058124Y44593657D01*
X40784529Y44184194D01*
X40596074Y43729223D01*
X40500000Y43246228D01*
X37235143Y43246228D01*
X35637901Y44843469D01*
X35546606Y44918393D01*
X35407627Y44992679D01*
X35256827Y45038423D01*
X35100000Y45053870D01*
X34943173Y45038423D01*
X34792373Y44992679D01*
X34653394Y44918393D01*
X34531579Y44818421D01*
X34431607Y44696606D01*
X34357321Y44557627D01*
X34311577Y44406827D01*
X34296130Y44250000D01*
X34302657Y44183739D01*
X33686395Y44800000D01*
X35786396Y46900000D01*
X43735804Y46900000D01*
X43757898Y46897824D01*
X43779992Y46900000D01*
X43780003Y46900000D01*
X43846113Y46906511D01*
X43930939Y46932243D01*
X44009114Y46974029D01*
X44077635Y47030263D01*
X44091727Y47047434D01*
X44709689Y47665396D01*
X44800354Y47590988D01*
X44925948Y47523857D01*
X45062225Y47482518D01*
X45203949Y47468559D01*
X45345673Y47482518D01*
X45481950Y47523857D01*
X45607544Y47590988D01*
X45717627Y47681332D01*
X46318668Y48282373D01*
X46409012Y48392456D01*
X46476143Y48518050D01*
X46517482Y48654327D01*
X46531441Y48796051D01*
X46517482Y48937775D01*
X46476143Y49074052D01*
X46409012Y49199646D01*
X46318668Y49309729D01*
X45717627Y49910770D01*
X45607544Y50001114D01*
X45481950Y50068245D01*
X45345673Y50109584D01*
X45203949Y50123543D01*
X45062225Y50109584D01*
X44925948Y50068245D01*
X44800354Y50001114D01*
X44690271Y49910770D01*
X44089230Y49309729D01*
X43998886Y49199646D01*
X43931755Y49074052D01*
X43890416Y48937775D01*
X43876457Y48796051D01*
X43890416Y48654327D01*
X43931755Y48518050D01*
X43998886Y48392456D01*
X44073294Y48301791D01*
X43571503Y47800000D01*
X35622091Y47800000D01*
X35599999Y47802176D01*
X35577907Y47800000D01*
X35577895Y47800000D01*
X35511785Y47793489D01*
X35426959Y47767757D01*
X35348783Y47725971D01*
X35297432Y47683828D01*
X35297428Y47683824D01*
X35280263Y47669737D01*
X35266176Y47652572D01*
X33091015Y45477410D01*
X22113261Y45477410D01*
X22049947Y45572166D01*
X21966375Y45655738D01*
X21868104Y45721401D01*
X21758911Y45766630D01*
X21642992Y45789688D01*
X21524802Y45789688D01*
X21408883Y45766630D01*
X21299690Y45721401D01*
X21201419Y45655738D01*
X21117847Y45572166D01*
X21052184Y45473895D01*
X21006955Y45364702D01*
X20983897Y45248783D01*
X20983897Y45153715D01*
X20974986Y45151942D01*
X20865793Y45106713D01*
X20767522Y45041050D01*
X20683950Y44957478D01*
X20618287Y44859207D01*
X20573058Y44750014D01*
X20550000Y44634095D01*
X20550000Y44515905D01*
X20573058Y44399986D01*
X20618287Y44290793D01*
X20683950Y44192522D01*
X20767522Y44108950D01*
X20865793Y44043287D01*
X20974986Y43998058D01*
X21090905Y43975000D01*
X21209095Y43975000D01*
X21325014Y43998058D01*
X21390564Y44025210D01*
X20837235Y43471880D01*
X20825014Y43476942D01*
X20709095Y43500000D01*
X20590905Y43500000D01*
X20474986Y43476942D01*
X20365793Y43431713D01*
X20267522Y43366050D01*
X20183950Y43282478D01*
X20118287Y43184207D01*
X20073058Y43075014D01*
X20050000Y42959095D01*
X20050000Y42840905D01*
X20073058Y42724986D01*
X20118287Y42615793D01*
X20183950Y42517522D01*
X20201472Y42500000D01*
X20183950Y42482478D01*
X20118287Y42384207D01*
X20073058Y42275014D01*
X20050000Y42159095D01*
X20050000Y42040905D01*
X20073058Y41924986D01*
X20118287Y41815793D01*
X20183950Y41717522D01*
X20267522Y41633950D01*
X20365793Y41568287D01*
X20474986Y41523058D01*
X20590905Y41500000D01*
X20709095Y41500000D01*
X20825014Y41523058D01*
X20934207Y41568287D01*
X21032478Y41633950D01*
X21116050Y41717522D01*
X21181713Y41815793D01*
X21226942Y41924986D01*
X21232903Y41954954D01*
X22498130Y43220180D01*
X32693425Y43220180D01*
X33120180Y42793424D01*
X33120180Y41291215D01*
X33075000Y41336395D01*
X33075000Y41359095D01*
X33051942Y41475014D01*
X33006713Y41584207D01*
X32941050Y41682478D01*
X32857478Y41766050D01*
X32759207Y41831713D01*
X32650014Y41876942D01*
X32639459Y41879041D01*
X32734207Y41918287D01*
X32832478Y41983950D01*
X32916050Y42067522D01*
X32981713Y42165793D01*
X33026942Y42274986D01*
X33050000Y42390905D01*
X33050000Y42509095D01*
X33026942Y42625014D01*
X32981713Y42734207D01*
X32916050Y42832478D01*
X32832478Y42916050D01*
X32734207Y42981713D01*
X32625014Y43026942D01*
X32509095Y43050000D01*
X32390905Y43050000D01*
X32274986Y43026942D01*
X32165793Y42981713D01*
X32067522Y42916050D01*
X31983950Y42832478D01*
X31918287Y42734207D01*
X31873058Y42625014D01*
X31850000Y42509095D01*
X31850000Y42486396D01*
X31570028Y42206423D01*
X31552863Y42192336D01*
X31538776Y42175171D01*
X31538771Y42175166D01*
X31496628Y42123815D01*
X31454842Y42045639D01*
X31429111Y41960814D01*
X31420423Y41872599D01*
X31422600Y41850495D01*
X31422599Y41032942D01*
X31420423Y41010847D01*
X31422599Y40988753D01*
X31422599Y40988743D01*
X31429110Y40922633D01*
X31454842Y40837807D01*
X31496628Y40759631D01*
X31508272Y40745443D01*
X31552862Y40691110D01*
X31570032Y40677018D01*
X32215363Y40031687D01*
X32215362Y32285902D01*
X32060222Y32130761D01*
X32037522Y32130761D01*
X31921603Y32107703D01*
X31812410Y32062474D01*
X31714139Y31996811D01*
X31630567Y31913239D01*
X31564904Y31814968D01*
X31519675Y31705775D01*
X31496617Y31589856D01*
X31496617Y31471666D01*
X31519675Y31355747D01*
X31564904Y31246554D01*
X31630567Y31148283D01*
X31714139Y31064711D01*
X31812410Y30999048D01*
X31921603Y30953819D01*
X32037522Y30930761D01*
X32155712Y30930761D01*
X32271631Y30953819D01*
X32380824Y30999048D01*
X32479095Y31064711D01*
X32521944Y31107559D01*
X32585302Y31044201D01*
X32683573Y30978538D01*
X32792766Y30933309D01*
X32908685Y30910251D01*
X33026875Y30910251D01*
X33142794Y30933309D01*
X33245777Y30975966D01*
X33250445Y30970278D01*
X33267610Y30956191D01*
X36600000Y27623800D01*
X36600001Y26297114D01*
X36600000Y26297104D01*
X36600000Y25613197D01*
X36572613Y25624541D01*
X36456694Y25647599D01*
X36338504Y25647599D01*
X36238331Y25627673D01*
X30754801Y31111202D01*
X30754801Y32308378D01*
X30756977Y32330470D01*
X30754801Y32352562D01*
X30754801Y32352574D01*
X30750273Y32398554D01*
X30754810Y32421365D01*
X30754810Y32539555D01*
X30731752Y32655474D01*
X30686523Y32764667D01*
X30620860Y32862938D01*
X30537288Y32946510D01*
X30454820Y33001614D01*
X30454820Y39109095D01*
X30525014Y39123058D01*
X30634207Y39168287D01*
X30732478Y39233950D01*
X30816050Y39317522D01*
X30881713Y39415793D01*
X30926942Y39524986D01*
X30950000Y39640905D01*
X30950000Y39759095D01*
X30926942Y39875014D01*
X30881713Y39984207D01*
X30816050Y40082478D01*
X30798528Y40100000D01*
X30816050Y40117522D01*
X30881713Y40215793D01*
X30926942Y40324986D01*
X30950000Y40440905D01*
X30950000Y40559095D01*
X30926942Y40675014D01*
X30881713Y40784207D01*
X30816050Y40882478D01*
X30732478Y40966050D01*
X30634207Y41031713D01*
X30525014Y41076942D01*
X30409095Y41100000D01*
X30290905Y41100000D01*
X30174986Y41076942D01*
X30065793Y41031713D01*
X29967522Y40966050D01*
X29951472Y40950000D01*
X29947830Y40950000D01*
X29925736Y40952176D01*
X29903642Y40950000D01*
X29903631Y40950000D01*
X29837521Y40943489D01*
X29768769Y40922633D01*
X29752695Y40917757D01*
X29674519Y40875971D01*
X29623168Y40833828D01*
X29623164Y40833824D01*
X29605999Y40819737D01*
X29591912Y40802571D01*
X29249843Y40460502D01*
X29232673Y40446411D01*
X29218582Y40429241D01*
X29176439Y40377890D01*
X29141981Y40313424D01*
X29134653Y40299714D01*
X29108921Y40214888D01*
X29102410Y40148778D01*
X29102410Y40148768D01*
X29100234Y40126674D01*
X29102410Y40104580D01*
X29102410Y36325539D01*
X28972980Y36454969D01*
X28958890Y36472138D01*
X28890369Y36528372D01*
X28812194Y36570158D01*
X28727368Y36595890D01*
X28661258Y36602401D01*
X28661247Y36602401D01*
X28639153Y36604577D01*
X28617059Y36602401D01*
X27718980Y36602401D01*
X26266402Y38054978D01*
X26252312Y38072147D01*
X26183791Y38128381D01*
X26105616Y38170167D01*
X26020790Y38195899D01*
X25954680Y38202410D01*
X25954669Y38202410D01*
X25932575Y38204586D01*
X25910481Y38202410D01*
X21983986Y38202410D01*
X21250000Y38936395D01*
X21250000Y38959095D01*
X21226942Y39075014D01*
X21181713Y39184207D01*
X21116050Y39282478D01*
X21032478Y39366050D01*
X20934207Y39431713D01*
X20825014Y39476942D01*
X20709095Y39500000D01*
X20590905Y39500000D01*
X20474986Y39476942D01*
X20365793Y39431713D01*
X20267522Y39366050D01*
X20183950Y39282478D01*
X20118287Y39184207D01*
X20073058Y39075014D01*
X20050000Y38959095D01*
X20050000Y40662684D01*
X20052176Y40684778D01*
X20050000Y40706872D01*
X20050000Y40706883D01*
X20043489Y40772993D01*
X20017757Y40857819D01*
X19975971Y40935995D01*
X19933828Y40987346D01*
X19933824Y40987350D01*
X19919737Y41004515D01*
X19902572Y41018602D01*
X16568608Y44352566D01*
X16554516Y44369737D01*
X16485995Y44425971D01*
X16407820Y44467757D01*
X16322994Y44493489D01*
X16256884Y44500000D01*
X16256873Y44500000D01*
X16234779Y44502176D01*
X16212685Y44500000D01*
X13048528Y44500000D01*
X13032478Y44516050D01*
X12934207Y44581713D01*
X12825014Y44626942D01*
X12709095Y44650000D01*
X12590905Y44650000D01*
X12474986Y44626942D01*
X12365793Y44581713D01*
X12267522Y44516050D01*
X12183950Y44432478D01*
X12118287Y44334207D01*
X12073058Y44225014D01*
X12050000Y44109095D01*
X12050000Y43990905D01*
X12073058Y43874986D01*
X12118287Y43765793D01*
X12183950Y43667522D01*
X12267522Y43583950D01*
X12365793Y43518287D01*
X12474986Y43473058D01*
X12590905Y43450000D01*
X12605007Y43450000D01*
X12595860Y43419848D01*
X12580743Y43383351D01*
X12573037Y43344607D01*
X12561576Y43306827D01*
X12557706Y43267535D01*
X12550000Y43228793D01*
X12550000Y43189293D01*
X12546130Y43150000D01*
X12550000Y43110707D01*
X12550000Y43071207D01*
X12557706Y43032465D01*
X12561576Y42993173D01*
X12573037Y42955393D01*
X12580743Y42916649D01*
X12595860Y42880152D01*
X12607321Y42842372D01*
X12625932Y42807554D01*
X12641049Y42771058D01*
X12662997Y42738210D01*
X12681607Y42703394D01*
X12706651Y42672878D01*
X12728599Y42640030D01*
X12756530Y42612099D01*
X12781578Y42581578D01*
X12812098Y42556531D01*
X12840030Y42528599D01*
X12872878Y42506651D01*
X12903394Y42481607D01*
X12938210Y42462997D01*
X12971058Y42441049D01*
X13007554Y42425932D01*
X13042372Y42407321D01*
X13080152Y42395860D01*
X13116649Y42380743D01*
X13155393Y42373037D01*
X13193173Y42361576D01*
X13232465Y42357706D01*
X13271207Y42350000D01*
X15518630Y42350000D01*
X17125001Y40743628D01*
X17125000Y33689495D01*
X17121130Y33650204D01*
X17125000Y33610913D01*
X17125000Y33610912D01*
X17136576Y33493378D01*
X17160105Y33415814D01*
X17182321Y33342577D01*
X17256607Y33203598D01*
X17287633Y33165793D01*
X17356578Y33081782D01*
X17387103Y33056731D01*
X20023812Y30420021D01*
X20135243Y30308590D01*
X20135246Y30308588D01*
X20625001Y29818832D01*
X20625000Y26764293D01*
X20621130Y26725000D01*
X20625000Y26685709D01*
X20625001Y21156371D01*
X20018630Y20550000D01*
X15398528Y20550000D01*
X15382478Y20566050D01*
X15284207Y20631713D01*
X15175014Y20676942D01*
X15059095Y20700000D01*
X14940905Y20700000D01*
X14824986Y20676942D01*
X14715793Y20631713D01*
X14617522Y20566050D01*
X14533950Y20482478D01*
X14468287Y20384207D01*
X14423058Y20275014D01*
X14400000Y20159095D01*
X14400000Y20040905D01*
X14423058Y19924986D01*
X14468287Y19815793D01*
X14533950Y19717522D01*
X14617522Y19633950D01*
X14715793Y19568287D01*
X14824986Y19523058D01*
X14940905Y19500000D01*
X15059095Y19500000D01*
X15175014Y19523058D01*
X15284207Y19568287D01*
X15382478Y19633950D01*
X15398528Y19650000D01*
X19675000Y19650000D01*
X19675001Y16685707D01*
X19686577Y16568173D01*
X19732322Y16417372D01*
X19806608Y16278394D01*
X19906579Y16156578D01*
X20028395Y16056607D01*
X20167373Y15982321D01*
X20318174Y15936576D01*
X20475000Y15921130D01*
X20631827Y15936576D01*
X20782628Y15982321D01*
X20921606Y16056607D01*
X21043422Y16156578D01*
X21143393Y16278394D01*
X21217679Y16417372D01*
X21263424Y16568173D01*
X21275000Y16685707D01*
X21275000Y18523055D01*
X21390905Y18500000D01*
X21413605Y18500000D01*
X22572152Y17341452D01*
X22586239Y17324287D01*
X22603404Y17310200D01*
X22603408Y17310196D01*
X22654759Y17268053D01*
X22722997Y17231579D01*
X22732935Y17226267D01*
X22817761Y17200535D01*
X22883871Y17194024D01*
X22883881Y17194024D01*
X22905975Y17191848D01*
X22928070Y17194024D01*
X24074960Y17194024D01*
X24018287Y17109207D01*
X23973058Y17000014D01*
X23950000Y16884095D01*
X23950000Y16765905D01*
X23973058Y16649986D01*
X24018287Y16540793D01*
X24083950Y16442522D01*
X24167522Y16358950D01*
X24265793Y16293287D01*
X24374986Y16248058D01*
X24478867Y16227395D01*
X24433950Y16182478D01*
X24368287Y16084207D01*
X24323058Y15975014D01*
X24300000Y15859095D01*
X24300000Y15740905D01*
X24323058Y15624986D01*
X24368287Y15515793D01*
X24433950Y15417522D01*
X24517522Y15333950D01*
X24615793Y15268287D01*
X24724986Y15223058D01*
X24840905Y15200000D01*
X24959095Y15200000D01*
X25075014Y15223058D01*
X25184207Y15268287D01*
X25282478Y15333950D01*
X25298528Y15350000D01*
X25727906Y15350000D01*
X25750000Y15347824D01*
X25772094Y15350000D01*
X25772105Y15350000D01*
X25838215Y15356511D01*
X25923041Y15382243D01*
X26001216Y15424029D01*
X26069737Y15480263D01*
X26083829Y15497434D01*
X26221121Y15634726D01*
X26223058Y15624986D01*
X26268287Y15515793D01*
X26333950Y15417522D01*
X26417522Y15333950D01*
X26515793Y15268287D01*
X26624986Y15223058D01*
X26740905Y15200000D01*
X26859095Y15200000D01*
X26975014Y15223058D01*
X27084207Y15268287D01*
X27182478Y15333950D01*
X27266050Y15417522D01*
X27331713Y15515793D01*
X27376942Y15624986D01*
X27400000Y15740905D01*
X27400000Y15763605D01*
X28136396Y16500000D01*
X28159095Y16500000D01*
X28275014Y16523058D01*
X28384207Y16568287D01*
X28482478Y16633950D01*
X28566050Y16717522D01*
X28631713Y16815793D01*
X28676942Y16924986D01*
X28700000Y17040905D01*
X28700000Y17159095D01*
X28676942Y17275014D01*
X28631713Y17384207D01*
X28566050Y17482478D01*
X28482478Y17566050D01*
X28384207Y17631713D01*
X28275014Y17676942D01*
X28265275Y17678879D01*
X29052573Y18466177D01*
X29069737Y18480263D01*
X29083824Y18497428D01*
X29083828Y18497432D01*
X29125971Y18548783D01*
X29167757Y18626959D01*
X29176075Y18654380D01*
X29193489Y18711785D01*
X29197113Y18748585D01*
X29216050Y18767522D01*
X29281713Y18865793D01*
X29326942Y18974986D01*
X29350000Y19090905D01*
X29350000Y19209095D01*
X29326942Y19325014D01*
X29281713Y19434207D01*
X29216050Y19532478D01*
X29132478Y19616050D01*
X29034207Y19681713D01*
X28925014Y19726942D01*
X28809095Y19750000D01*
X28690905Y19750000D01*
X28597599Y19731440D01*
X28597599Y21011204D01*
X28986396Y21400000D01*
X29009095Y21400000D01*
X29125014Y21423058D01*
X29234207Y21468287D01*
X29332478Y21533950D01*
X29416050Y21617522D01*
X29481713Y21715793D01*
X29526942Y21824986D01*
X29550000Y21940905D01*
X29550000Y22059095D01*
X29526942Y22175014D01*
X29481713Y22284207D01*
X29416050Y22382478D01*
X29332478Y22466050D01*
X29234207Y22531713D01*
X29125014Y22576942D01*
X29009095Y22600000D01*
X28890905Y22600000D01*
X28774986Y22576942D01*
X28665793Y22531713D01*
X28567522Y22466050D01*
X28483950Y22382478D01*
X28418287Y22284207D01*
X28373058Y22175014D01*
X28350000Y22059095D01*
X28350000Y22036396D01*
X27845028Y21531423D01*
X27827863Y21517336D01*
X27813774Y21500169D01*
X27813771Y21500166D01*
X27782668Y21462267D01*
X27771628Y21448815D01*
X27729842Y21370640D01*
X27704110Y21285814D01*
X27697599Y21219704D01*
X27697599Y21219693D01*
X27695423Y21197599D01*
X27697599Y21175505D01*
X27697599Y20971511D01*
X27697600Y20971501D01*
X27697599Y19023799D01*
X26277410Y17603609D01*
X26277410Y17703119D01*
X26254352Y17819038D01*
X26209123Y17928231D01*
X26143460Y18026502D01*
X26059888Y18110074D01*
X25961617Y18175737D01*
X25852424Y18220966D01*
X25736505Y18244024D01*
X25618315Y18244024D01*
X25502396Y18220966D01*
X25393203Y18175737D01*
X25294932Y18110074D01*
X25278882Y18094024D01*
X23092372Y18094024D01*
X22622824Y18563572D01*
X22634207Y18568287D01*
X22732478Y18633950D01*
X22800000Y18701472D01*
X22867522Y18633950D01*
X22965793Y18568287D01*
X23074986Y18523058D01*
X23190905Y18500000D01*
X23309095Y18500000D01*
X23425014Y18523058D01*
X23534207Y18568287D01*
X23632478Y18633950D01*
X23716050Y18717522D01*
X23781713Y18815793D01*
X23826942Y18924986D01*
X23850000Y19040905D01*
X23850000Y19159095D01*
X23826942Y19275014D01*
X23781713Y19384207D01*
X23716050Y19482478D01*
X23700000Y19498528D01*
X23700000Y25274072D01*
X23716050Y25290122D01*
X23781713Y25388393D01*
X23826942Y25497586D01*
X23850000Y25613505D01*
X23850000Y25731695D01*
X23831440Y25825000D01*
X27293630Y25825000D01*
X28024598Y25094031D01*
X28024603Y25094027D01*
X30175000Y22943629D01*
X30175001Y20264300D01*
X30171130Y20225000D01*
X30186577Y20068173D01*
X30232321Y19917373D01*
X30306607Y19778394D01*
X30372693Y19697868D01*
X30406579Y19656578D01*
X30437098Y19631532D01*
X31987098Y18081531D01*
X31987103Y18081527D01*
X32856531Y17212098D01*
X32881578Y17181578D01*
X32912098Y17156531D01*
X32912099Y17156530D01*
X33003393Y17081607D01*
X33134410Y17011577D01*
X33142372Y17007321D01*
X33293173Y16961576D01*
X33410707Y16950000D01*
X33410709Y16950000D01*
X33450000Y16946130D01*
X33489291Y16950000D01*
X42360707Y16950000D01*
X42400000Y16946130D01*
X42439293Y16950000D01*
X42556827Y16961576D01*
X42707628Y17007321D01*
X42846606Y17081607D01*
X42968422Y17181578D01*
X43068393Y17303394D01*
X43107009Y17375639D01*
X46325001Y20593630D01*
X46325001Y4932073D01*
X46266918Y4893263D01*
X46106737Y4733082D01*
X45980884Y4544729D01*
X45899226Y4347590D01*
X30538742Y4347590D01*
X30562679Y4392372D01*
X30608424Y4543173D01*
X30620000Y4660707D01*
X30620000Y5739293D01*
X30608424Y5856827D01*
X30562679Y6007628D01*
X30488393Y6146606D01*
X30388422Y6268422D01*
X30266605Y6368393D01*
X30127627Y6442679D01*
X29976826Y6488424D01*
X29820000Y6503870D01*
X29663173Y6488424D01*
X29512372Y6442679D01*
X29373394Y6368393D01*
X29251578Y6268422D01*
X29151607Y6146605D01*
X29077321Y6007627D01*
X29031576Y5856826D01*
X29020000Y5739292D01*
X29020001Y4660707D01*
X29031577Y4543173D01*
X29077322Y4392372D01*
X29101259Y4347590D01*
X21898742Y4347590D01*
X21922679Y4392372D01*
X21968424Y4543173D01*
X21980000Y4660707D01*
X21980000Y5739293D01*
X21968424Y5856827D01*
X21922679Y6007628D01*
X21848393Y6146606D01*
X21748422Y6268422D01*
X21626605Y6368393D01*
X21520702Y6425000D01*
X22935709Y6425000D01*
X22975000Y6421130D01*
X23014291Y6425000D01*
X23014293Y6425000D01*
X23131827Y6436576D01*
X23282628Y6482321D01*
X23421606Y6556607D01*
X23543422Y6656578D01*
X23568473Y6687103D01*
X24631461Y7750090D01*
X26389383Y7750090D01*
X26506917Y7761666D01*
X26657718Y7807411D01*
X26796696Y7881697D01*
X26918512Y7981668D01*
X27018483Y8103484D01*
X27092769Y8242462D01*
X27138514Y8393263D01*
X27153960Y8550090D01*
X27138514Y8706917D01*
X27092769Y8857718D01*
X27047956Y8941557D01*
X27765000Y8941557D01*
X27765000Y8818443D01*
X27789019Y8697694D01*
X27836132Y8583952D01*
X27904531Y8481586D01*
X27991586Y8394531D01*
X28093952Y8326132D01*
X28207694Y8279019D01*
X28328443Y8255000D01*
X28451557Y8255000D01*
X28572306Y8279019D01*
X28686048Y8326132D01*
X28788414Y8394531D01*
X28875469Y8481586D01*
X28943868Y8583952D01*
X28990981Y8697694D01*
X29001363Y8749886D01*
X29006939Y8693272D01*
X29054113Y8537759D01*
X29130720Y8394437D01*
X29233816Y8268815D01*
X29359438Y8165719D01*
X29502760Y8089112D01*
X29658273Y8041938D01*
X29820000Y8026009D01*
X29981728Y8041938D01*
X30137241Y8089112D01*
X30280563Y8165719D01*
X30406185Y8268815D01*
X30509281Y8394437D01*
X30585888Y8537759D01*
X30633062Y8693272D01*
X30645000Y8814479D01*
X30645000Y9945521D01*
X30633062Y10066728D01*
X30585888Y10222241D01*
X30509281Y10365563D01*
X30406185Y10491185D01*
X30280562Y10594281D01*
X30137240Y10670888D01*
X29981727Y10718062D01*
X29820000Y10733991D01*
X29658272Y10718062D01*
X29502759Y10670888D01*
X29359437Y10594281D01*
X29233815Y10491185D01*
X29130719Y10365562D01*
X29054112Y10222240D01*
X29006938Y10066727D01*
X28995000Y9945520D01*
X28995001Y9042098D01*
X28990981Y9062306D01*
X28943868Y9176048D01*
X28875469Y9278414D01*
X28788414Y9365469D01*
X28686048Y9433868D01*
X28572306Y9480981D01*
X28451557Y9505000D01*
X28328443Y9505000D01*
X28207694Y9480981D01*
X28093952Y9433868D01*
X27991586Y9365469D01*
X27904531Y9278414D01*
X27836132Y9176048D01*
X27789019Y9062306D01*
X27765000Y8941557D01*
X27047956Y8941557D01*
X27018483Y8996696D01*
X26918512Y9118512D01*
X26796696Y9218483D01*
X26657718Y9292769D01*
X26506917Y9338514D01*
X26389383Y9350090D01*
X24260617Y9350090D01*
X24143083Y9338514D01*
X23992282Y9292769D01*
X23853304Y9218483D01*
X23731488Y9118512D01*
X23705618Y9086989D01*
X22643630Y8025000D01*
X20956371Y8025000D01*
X20905103Y8076267D01*
X21018273Y8041938D01*
X21180000Y8026009D01*
X21341728Y8041938D01*
X21497241Y8089112D01*
X21640563Y8165719D01*
X21766185Y8268815D01*
X21869281Y8394437D01*
X21945888Y8537759D01*
X21993062Y8693272D01*
X21998638Y8749883D01*
X22009019Y8697694D01*
X22056132Y8583952D01*
X22124531Y8481586D01*
X22211586Y8394531D01*
X22313952Y8326132D01*
X22427694Y8279019D01*
X22548443Y8255000D01*
X22671557Y8255000D01*
X22792306Y8279019D01*
X22906048Y8326132D01*
X23008414Y8394531D01*
X23095469Y8481586D01*
X23163868Y8583952D01*
X23210981Y8697694D01*
X23235000Y8818443D01*
X23235000Y8941557D01*
X23210981Y9062306D01*
X23163868Y9176048D01*
X23095469Y9278414D01*
X23008414Y9365469D01*
X22906048Y9433868D01*
X22792306Y9480981D01*
X22671557Y9505000D01*
X22548443Y9505000D01*
X22427694Y9480981D01*
X22313952Y9433868D01*
X22211586Y9365469D01*
X22124531Y9278414D01*
X22056132Y9176048D01*
X22009019Y9062306D01*
X22005000Y9042102D01*
X22005000Y9945521D01*
X21993062Y10066728D01*
X21945888Y10222241D01*
X21869281Y10365563D01*
X21766185Y10491185D01*
X21640562Y10594281D01*
X21497240Y10670888D01*
X21341727Y10718062D01*
X21180000Y10733991D01*
X21018272Y10718062D01*
X20862759Y10670888D01*
X20719437Y10594281D01*
X20593815Y10491185D01*
X20490719Y10365562D01*
X20414112Y10222240D01*
X20366938Y10066727D01*
X20355000Y9945520D01*
X20355001Y8814479D01*
X20366939Y8693272D01*
X20401269Y8580102D01*
X20200000Y8781370D01*
X20200000Y10759095D01*
X35600000Y10759095D01*
X35600000Y10640905D01*
X35623058Y10524986D01*
X35668287Y10415793D01*
X35733950Y10317522D01*
X35750001Y10301471D01*
X35750000Y7148528D01*
X35733950Y7132478D01*
X35668287Y7034207D01*
X35623058Y6925014D01*
X35600000Y6809095D01*
X35600000Y6690905D01*
X35623058Y6574986D01*
X35668287Y6465793D01*
X35733950Y6367522D01*
X35817522Y6283950D01*
X35915793Y6218287D01*
X36024986Y6173058D01*
X36140905Y6150000D01*
X36259095Y6150000D01*
X36375014Y6173058D01*
X36484207Y6218287D01*
X36582478Y6283950D01*
X36666050Y6367522D01*
X36731713Y6465793D01*
X36776942Y6574986D01*
X36800000Y6690905D01*
X36800000Y6809095D01*
X36776942Y6925014D01*
X36731713Y7034207D01*
X36666050Y7132478D01*
X36650000Y7148528D01*
X36650000Y8246228D01*
X40500000Y8246228D01*
X40500000Y7753772D01*
X40596074Y7270777D01*
X40784529Y6815806D01*
X41058124Y6406343D01*
X41406343Y6058124D01*
X41815806Y5784529D01*
X42270777Y5596074D01*
X42753772Y5500000D01*
X43246228Y5500000D01*
X43729223Y5596074D01*
X44184194Y5784529D01*
X44593657Y6058124D01*
X44941876Y6406343D01*
X45215471Y6815806D01*
X45403926Y7270777D01*
X45500000Y7753772D01*
X45500000Y8246228D01*
X45403926Y8729223D01*
X45215471Y9184194D01*
X44941876Y9593657D01*
X44593657Y9941876D01*
X44184194Y10215471D01*
X43729223Y10403926D01*
X43246228Y10500000D01*
X42753772Y10500000D01*
X42270777Y10403926D01*
X41815806Y10215471D01*
X41406343Y9941876D01*
X41058124Y9593657D01*
X40784529Y9184194D01*
X40596074Y8729223D01*
X40500000Y8246228D01*
X36650000Y8246228D01*
X36650000Y10301472D01*
X36666050Y10317522D01*
X36731713Y10415793D01*
X36776942Y10524986D01*
X36800000Y10640905D01*
X36800000Y10759095D01*
X36776942Y10875014D01*
X36731713Y10984207D01*
X36666050Y11082478D01*
X36582478Y11166050D01*
X36484207Y11231713D01*
X36375014Y11276942D01*
X36259095Y11300000D01*
X36140905Y11300000D01*
X36024986Y11276942D01*
X35915793Y11231713D01*
X35817522Y11166050D01*
X35733950Y11082478D01*
X35668287Y10984207D01*
X35623058Y10875014D01*
X35600000Y10759095D01*
X20200000Y10759095D01*
X20200000Y11468630D01*
X20431371Y11700000D01*
X21539293Y11700000D01*
X21656827Y11711576D01*
X21807628Y11757321D01*
X21946606Y11831607D01*
X22068422Y11931578D01*
X22168393Y12053394D01*
X22242679Y12192372D01*
X22288424Y12343173D01*
X22303870Y12500000D01*
X22288424Y12656827D01*
X22242679Y12807628D01*
X22168393Y12946606D01*
X22068422Y13068422D01*
X21946606Y13168393D01*
X21807628Y13242679D01*
X21656827Y13288424D01*
X21539293Y13300000D01*
X20139282Y13300000D01*
X20099999Y13303869D01*
X20060716Y13300000D01*
X20060707Y13300000D01*
X19943173Y13288424D01*
X19792372Y13242679D01*
X19701803Y13194269D01*
X19653393Y13168393D01*
X19570056Y13100000D01*
X19531578Y13068422D01*
X19506531Y13037902D01*
X18862098Y12393468D01*
X18831579Y12368422D01*
X18806532Y12337902D01*
X18806531Y12337901D01*
X18731607Y12246606D01*
X18657321Y12107627D01*
X18611577Y11956827D01*
X18596130Y11800000D01*
X18600001Y11760700D01*
X18600000Y8489291D01*
X18596130Y8450000D01*
X18600000Y8410709D01*
X18600000Y8410708D01*
X18611576Y8293174D01*
X18645986Y8179739D01*
X18657321Y8142373D01*
X18731607Y8003394D01*
X18760918Y7967679D01*
X18831578Y7881578D01*
X18862103Y7856527D01*
X20031531Y6687098D01*
X20056578Y6656578D01*
X20087098Y6631531D01*
X20087099Y6631530D01*
X20178393Y6556607D01*
X20191366Y6549673D01*
X20317372Y6482321D01*
X20468173Y6436576D01*
X20585707Y6425000D01*
X20585709Y6425000D01*
X20625000Y6421130D01*
X20664291Y6425000D01*
X20839297Y6425000D01*
X20733394Y6368393D01*
X20611578Y6268422D01*
X20511607Y6146605D01*
X20437321Y6007627D01*
X20391576Y5856826D01*
X20380000Y5739292D01*
X20380001Y4660707D01*
X20391577Y4543173D01*
X20437322Y4392372D01*
X20461259Y4347590D01*
X18357004Y4347590D01*
X15636372Y7068222D01*
X15650000Y7136735D01*
X15650000Y7363265D01*
X15605806Y7585443D01*
X15519116Y7794729D01*
X15393263Y7983082D01*
X15233082Y8143263D01*
X15044729Y8269116D01*
X14835443Y8355806D01*
X14613265Y8400000D01*
X14386735Y8400000D01*
X14164557Y8355806D01*
X13955271Y8269116D01*
X13766918Y8143263D01*
X13606737Y7983082D01*
X13480884Y7794729D01*
X13394194Y7585443D01*
X13350000Y7363265D01*
X13350000Y7136735D01*
X13363628Y7068222D01*
X10970406Y4675000D01*
X4932072Y4675000D01*
X4893263Y4733082D01*
X4733082Y4893263D01*
X4675000Y4932072D01*
X4675000Y8246228D01*
X5500000Y8246228D01*
X5500000Y7753772D01*
X5596074Y7270777D01*
X5784529Y6815806D01*
X6058124Y6406343D01*
X6406343Y6058124D01*
X6815806Y5784529D01*
X7270777Y5596074D01*
X7753772Y5500000D01*
X8246228Y5500000D01*
X8729223Y5596074D01*
X9184194Y5784529D01*
X9593657Y6058124D01*
X9941876Y6406343D01*
X10215471Y6815806D01*
X10403926Y7270777D01*
X10500000Y7753772D01*
X10500000Y8246228D01*
X10403926Y8729223D01*
X10215471Y9184194D01*
X10049914Y9431968D01*
X13198342Y9431968D01*
X13218793Y9364529D01*
X13326416Y9122753D01*
X13479140Y8906619D01*
X13671095Y8724433D01*
X13894904Y8583196D01*
X14141967Y8488336D01*
X14350000Y8573353D01*
X14350000Y9640000D01*
X14650000Y9640000D01*
X14650000Y8573353D01*
X14858033Y8488336D01*
X15105096Y8583196D01*
X15328905Y8724433D01*
X15520860Y8906619D01*
X15673584Y9122753D01*
X15781207Y9364529D01*
X15801658Y9431968D01*
X15715782Y9640000D01*
X14650000Y9640000D01*
X14350000Y9640000D01*
X13284218Y9640000D01*
X13198342Y9431968D01*
X10049914Y9431968D01*
X9941876Y9593657D01*
X9593657Y9941876D01*
X9285124Y10148032D01*
X13198342Y10148032D01*
X13284218Y9940000D01*
X14350000Y9940000D01*
X14350000Y11006647D01*
X14650000Y11006647D01*
X14650000Y9940000D01*
X15715782Y9940000D01*
X15801658Y10148032D01*
X15781207Y10215471D01*
X15673584Y10457247D01*
X15520860Y10673381D01*
X15328905Y10855567D01*
X15105096Y10996804D01*
X14858033Y11091664D01*
X14650000Y11006647D01*
X14350000Y11006647D01*
X14141967Y11091664D01*
X13894904Y10996804D01*
X13671095Y10855567D01*
X13479140Y10673381D01*
X13326416Y10457247D01*
X13218793Y10215471D01*
X13198342Y10148032D01*
X9285124Y10148032D01*
X9184194Y10215471D01*
X8729223Y10403926D01*
X8246228Y10500000D01*
X7753772Y10500000D01*
X7270777Y10403926D01*
X6815806Y10215471D01*
X6406343Y9941876D01*
X6058124Y9593657D01*
X5784529Y9184194D01*
X5596074Y8729223D01*
X5500000Y8246228D01*
X4675000Y8246228D01*
X4675000Y20010186D01*
X4730884Y19875271D01*
X4856737Y19686918D01*
X5016918Y19526737D01*
X5205271Y19400884D01*
X5414557Y19314194D01*
X5636735Y19270000D01*
X5863265Y19270000D01*
X6085443Y19314194D01*
X6294729Y19400884D01*
X6483082Y19526737D01*
X6526345Y19570000D01*
X6937581Y19570000D01*
X6947235Y19471983D01*
X6975825Y19377733D01*
X7022254Y19290871D01*
X7084736Y19214736D01*
X7160871Y19152254D01*
X7247733Y19105825D01*
X7341983Y19077235D01*
X7440000Y19067581D01*
X8015000Y19070000D01*
X8140000Y19195000D01*
X8140000Y20270000D01*
X8440000Y20270000D01*
X8440000Y19195000D01*
X8565000Y19070000D01*
X9140000Y19067581D01*
X9238017Y19077235D01*
X9332267Y19105825D01*
X9419129Y19152254D01*
X9495264Y19214736D01*
X9557746Y19290871D01*
X9604175Y19377733D01*
X9632765Y19471983D01*
X9642419Y19570000D01*
X9640000Y20145000D01*
X9515000Y20270000D01*
X8440000Y20270000D01*
X8140000Y20270000D01*
X7065000Y20270000D01*
X6940000Y20145000D01*
X6937581Y19570000D01*
X6526345Y19570000D01*
X6643263Y19686918D01*
X6769116Y19875271D01*
X6855806Y20084557D01*
X6900000Y20306735D01*
X6900000Y20533265D01*
X6855806Y20755443D01*
X6769116Y20964729D01*
X6643263Y21153082D01*
X6483082Y21313263D01*
X6294729Y21439116D01*
X6085443Y21525806D01*
X5863265Y21570000D01*
X5636735Y21570000D01*
X5414557Y21525806D01*
X5205271Y21439116D01*
X5016918Y21313263D01*
X4856737Y21153082D01*
X4730884Y20964729D01*
X4675000Y20829814D01*
X4675000Y22550186D01*
X4730884Y22415271D01*
X4856737Y22226918D01*
X5016918Y22066737D01*
X5205271Y21940884D01*
X5414557Y21854194D01*
X5636735Y21810000D01*
X5863265Y21810000D01*
X6085443Y21854194D01*
X6294729Y21940884D01*
X6483082Y22066737D01*
X6488150Y22071805D01*
X6448058Y21975014D01*
X6425000Y21859095D01*
X6425000Y21740905D01*
X6448058Y21624986D01*
X6493287Y21515793D01*
X6558950Y21417522D01*
X6642522Y21333950D01*
X6740793Y21268287D01*
X6849986Y21223058D01*
X6937852Y21205580D01*
X6940000Y20695000D01*
X7065000Y20570000D01*
X8140000Y20570000D01*
X8140000Y21645000D01*
X8440000Y21645000D01*
X8440000Y20570000D01*
X9515000Y20570000D01*
X9640000Y20695000D01*
X9642419Y21270000D01*
X9632765Y21368017D01*
X9604175Y21462267D01*
X9557746Y21549129D01*
X9495264Y21625264D01*
X9419129Y21687746D01*
X9332267Y21734175D01*
X9238017Y21762765D01*
X9140000Y21772419D01*
X8565000Y21770000D01*
X8440000Y21645000D01*
X8140000Y21645000D01*
X8015000Y21770000D01*
X7625000Y21771641D01*
X7625000Y21859095D01*
X7601942Y21975014D01*
X7566640Y22060241D01*
X7745271Y21940884D01*
X7954557Y21854194D01*
X8176735Y21810000D01*
X8403265Y21810000D01*
X8625443Y21854194D01*
X8834729Y21940884D01*
X8923202Y22000000D01*
X11000000Y22000000D01*
X11000000Y19000000D01*
X11001921Y18980491D01*
X11007612Y18961732D01*
X11016853Y18944443D01*
X11029289Y18929289D01*
X11044443Y18916853D01*
X11061732Y18907612D01*
X11080491Y18901921D01*
X11100000Y18900000D01*
X14100000Y18900000D01*
X14119509Y18901921D01*
X14138268Y18907612D01*
X14155557Y18916853D01*
X14170711Y18929289D01*
X14183147Y18944443D01*
X14192388Y18961732D01*
X14198079Y18980491D01*
X14200000Y19000000D01*
X14200000Y22000000D01*
X14198079Y22019509D01*
X14192388Y22038268D01*
X14183147Y22055557D01*
X14170711Y22070711D01*
X14155557Y22083147D01*
X14138268Y22092388D01*
X14119509Y22098079D01*
X14100000Y22100000D01*
X11100000Y22100000D01*
X11080491Y22098079D01*
X11061732Y22092388D01*
X11044443Y22083147D01*
X11029289Y22070711D01*
X11016853Y22055557D01*
X11007612Y22038268D01*
X11001921Y22019509D01*
X11000000Y22000000D01*
X8923202Y22000000D01*
X9023082Y22066737D01*
X9183263Y22226918D01*
X9309116Y22415271D01*
X9395806Y22624557D01*
X9440000Y22846735D01*
X9440000Y23073265D01*
X9395806Y23295443D01*
X9309116Y23504729D01*
X9183263Y23693082D01*
X9023082Y23853263D01*
X8834729Y23979116D01*
X8625443Y24065806D01*
X8403265Y24110000D01*
X8176735Y24110000D01*
X7954557Y24065806D01*
X7745271Y23979116D01*
X7556918Y23853263D01*
X7475000Y23771345D01*
X7475000Y24688655D01*
X7556918Y24606737D01*
X7745271Y24480884D01*
X7954557Y24394194D01*
X8176735Y24350000D01*
X8403265Y24350000D01*
X8625443Y24394194D01*
X8834729Y24480884D01*
X9023082Y24606737D01*
X9183263Y24766918D01*
X9309116Y24955271D01*
X9395806Y25164557D01*
X9440000Y25386735D01*
X9440000Y25613265D01*
X9395806Y25835443D01*
X9309116Y26044729D01*
X9183263Y26233082D01*
X9023082Y26393263D01*
X8834729Y26519116D01*
X8625443Y26605806D01*
X8403265Y26650000D01*
X8176735Y26650000D01*
X7954557Y26605806D01*
X7745271Y26519116D01*
X7556918Y26393263D01*
X7475000Y26311345D01*
X7475000Y27228655D01*
X7556918Y27146737D01*
X7745271Y27020884D01*
X7954557Y26934194D01*
X8176735Y26890000D01*
X8403265Y26890000D01*
X8625443Y26934194D01*
X8834729Y27020884D01*
X9023082Y27146737D01*
X9183263Y27306918D01*
X9309116Y27495271D01*
X9395806Y27704557D01*
X9440000Y27926735D01*
X9440000Y28153265D01*
X9395806Y28375443D01*
X9309116Y28584729D01*
X9183263Y28773082D01*
X9023082Y28933263D01*
X8834729Y29059116D01*
X8625443Y29145806D01*
X8403265Y29190000D01*
X8176735Y29190000D01*
X7954557Y29145806D01*
X7745271Y29059116D01*
X7556918Y28933263D01*
X7475000Y28851345D01*
X7475000Y29768655D01*
X7556918Y29686737D01*
X7745271Y29560884D01*
X7954557Y29474194D01*
X8176735Y29430000D01*
X8403265Y29430000D01*
X8625443Y29474194D01*
X8834729Y29560884D01*
X9023082Y29686737D01*
X9183263Y29846918D01*
X9309116Y30035271D01*
X9395806Y30244557D01*
X9440000Y30466735D01*
X9440000Y30693265D01*
X9395806Y30915443D01*
X9309116Y31124729D01*
X9183263Y31313082D01*
X9023082Y31473263D01*
X8834729Y31599116D01*
X8625443Y31685806D01*
X8403265Y31730000D01*
X8176735Y31730000D01*
X7954557Y31685806D01*
X7745271Y31599116D01*
X7556918Y31473263D01*
X7475000Y31391345D01*
X7475000Y33268502D01*
X7516050Y33309552D01*
X7581713Y33407823D01*
X7626942Y33517016D01*
X7650000Y33632935D01*
X7650000Y33751125D01*
X7626942Y33867044D01*
X7581713Y33976237D01*
X7516050Y34074508D01*
X7432478Y34158080D01*
X7334207Y34223743D01*
X7225014Y34268972D01*
X7109095Y34292030D01*
X6990905Y34292030D01*
X6874986Y34268972D01*
X6765793Y34223743D01*
X6667522Y34158080D01*
X6583950Y34074508D01*
X6518287Y33976237D01*
X6473058Y33867044D01*
X6450000Y33751125D01*
X6450000Y33632935D01*
X6473058Y33517016D01*
X6518287Y33407823D01*
X6575001Y33322946D01*
X6575000Y32924505D01*
X6575000Y32924504D01*
X6575001Y32347113D01*
X6575000Y32347104D01*
X6575000Y31381345D01*
X6483082Y31473263D01*
X6294729Y31599116D01*
X6085443Y31685806D01*
X5863265Y31730000D01*
X5636735Y31730000D01*
X5414557Y31685806D01*
X5205271Y31599116D01*
X5016918Y31473263D01*
X4856737Y31313082D01*
X4817928Y31255000D01*
X4675000Y31255000D01*
X4675000Y43246228D01*
X5500000Y43246228D01*
X5500000Y42753772D01*
X5596074Y42270777D01*
X5784529Y41815806D01*
X6058124Y41406343D01*
X6406343Y41058124D01*
X6815806Y40784529D01*
X7270777Y40596074D01*
X7753772Y40500000D01*
X8246228Y40500000D01*
X8729223Y40596074D01*
X9184194Y40784529D01*
X9593657Y41058124D01*
X9941876Y41406343D01*
X10215471Y41815806D01*
X10403926Y42270777D01*
X10500000Y42753772D01*
X10500000Y43246228D01*
X10403926Y43729223D01*
X10215471Y44184194D01*
X9941876Y44593657D01*
X9593657Y44941876D01*
X9184194Y45215471D01*
X8729223Y45403926D01*
X8246228Y45500000D01*
X7753772Y45500000D01*
X7270777Y45403926D01*
X6815806Y45215471D01*
X6406343Y44941876D01*
X6058124Y44593657D01*
X5784529Y44184194D01*
X5596074Y43729223D01*
X5500000Y43246228D01*
X4675000Y43246228D01*
X4675000Y46067928D01*
X4733082Y46106737D01*
X4893263Y46266918D01*
X5019116Y46455271D01*
X5105806Y46664557D01*
X5150000Y46886735D01*
X5150000Y47113265D01*
X5105806Y47335443D01*
X5019116Y47544729D01*
X4893263Y47733082D01*
X4796659Y47829686D01*
X5041818Y47829686D01*
X5128803Y47622468D01*
X5370579Y47514844D01*
X5628706Y47456457D01*
X5893263Y47449549D01*
X6154085Y47494387D01*
X6401148Y47589247D01*
X6463295Y47622473D01*
X6549673Y47830297D01*
X5796051Y48583919D01*
X5041818Y47829686D01*
X4796659Y47829686D01*
X4733082Y47893263D01*
X4544729Y48019116D01*
X4335443Y48105806D01*
X4113265Y48150000D01*
X3886735Y48150000D01*
X3664557Y48105806D01*
X3455271Y48019116D01*
X3266918Y47893263D01*
X3106737Y47733082D01*
X2980884Y47544729D01*
X2894194Y47335443D01*
X2850000Y47113265D01*
X2850000Y46886735D01*
X2894194Y46664557D01*
X2980884Y46455271D01*
X3106737Y46266918D01*
X3266918Y46106737D01*
X3325001Y46067927D01*
X3325001Y45709911D01*
X3318668Y45717627D01*
X2717627Y46318668D01*
X2607544Y46409012D01*
X2481950Y46476143D01*
X2345673Y46517482D01*
X2203949Y46531441D01*
X2062225Y46517482D01*
X1925948Y46476143D01*
X1800354Y46409012D01*
X1690271Y46318668D01*
X1089230Y45717627D01*
X998886Y45607544D01*
X931755Y45481950D01*
X890416Y45345673D01*
X876457Y45203949D01*
X890416Y45062225D01*
X931755Y44925948D01*
X998886Y44800354D01*
X1089230Y44690271D01*
X1690271Y44089230D01*
X1800354Y43998886D01*
X1925948Y43931755D01*
X2062225Y43890416D01*
X2203949Y43876457D01*
X2345673Y43890416D01*
X2481950Y43931755D01*
X2607544Y43998886D01*
X2675000Y44054246D01*
X2675001Y37547108D01*
X2675000Y37547098D01*
X2675001Y33528863D01*
X2420494Y35803516D01*
X2419729Y35809183D01*
X2419035Y35814766D01*
X2418522Y35818130D01*
X1874426Y39259571D01*
X1873407Y39265187D01*
X1872459Y39270743D01*
X1871793Y39274081D01*
X1172143Y42687297D01*
X1170880Y42692816D01*
X1169671Y42698369D01*
X1168855Y42701673D01*
X360318Y45900700D01*
X3352881Y48893263D01*
X4449549Y48893263D01*
X4456457Y48628706D01*
X4514844Y48370579D01*
X4622468Y48128803D01*
X4829686Y48041818D01*
X5583919Y48796051D01*
X6008183Y48796051D01*
X6761805Y48042429D01*
X6969629Y48128807D01*
X7002855Y48190954D01*
X7097715Y48438017D01*
X7142553Y48698839D01*
X7135645Y48963396D01*
X7077258Y49221523D01*
X6969634Y49463299D01*
X6762416Y49550284D01*
X6008183Y48796051D01*
X5583919Y48796051D01*
X4830297Y49549673D01*
X4622473Y49463295D01*
X4589247Y49401148D01*
X4494387Y49154085D01*
X4449549Y48893263D01*
X3352881Y48893263D01*
X4221423Y49761805D01*
X5042429Y49761805D01*
X5796051Y49008183D01*
X6550284Y49762416D01*
X6463299Y49969634D01*
X6221523Y50077258D01*
X5963396Y50135645D01*
X5698839Y50142553D01*
X5438017Y50097715D01*
X5190954Y50002855D01*
X5128807Y49969629D01*
X5042429Y49761805D01*
X4221423Y49761805D01*
X5098995Y50639376D01*
X7995180Y49901148D01*
X8000391Y49899945D01*
X8005578Y49898679D01*
X8008905Y49897964D01*
X11419265Y49184519D01*
X11424861Y49183481D01*
X11430408Y49182391D01*
X11433764Y49181828D01*
X14872976Y48623822D01*
X14878577Y48623044D01*
X14884204Y48622201D01*
X14887582Y48621791D01*
X18348568Y48220372D01*
X18354227Y48219846D01*
X18359858Y48219262D01*
X18363247Y48219006D01*
X18363254Y48219006D01*
X21838883Y47975001D01*
X21844506Y47974735D01*
X21850211Y47974404D01*
X21853613Y47974302D01*
X25336736Y47888214D01*
X25342401Y47888203D01*
X25348080Y47888132D01*
X25351483Y47888184D01*
X28834925Y47960189D01*
X28840616Y47960436D01*
X28846262Y47960622D01*
X28849658Y47960829D01*
X32326248Y48190779D01*
X32331877Y48191280D01*
X32337553Y48191725D01*
X32340937Y48192085D01*
X35803518Y48579507D01*
X35809192Y48580273D01*
X35814767Y48580966D01*
X35818132Y48581479D01*
X39259572Y49125575D01*
X39265194Y49126595D01*
X39270744Y49127542D01*
X39274071Y49128206D01*
X39274082Y49128208D01*
X39274091Y49128210D01*
X42687298Y49827858D01*
X42692817Y49829121D01*
X42698370Y49830330D01*
X42701674Y49831146D01*
X45900699Y50639683D01*
X50639375Y45901006D01*
G37*
%TD.AperFunction*%
D22*
X19150001Y40498381D02*
X19150000Y37480541D01*
X19147824Y37458446D01*
X19150000Y37436352D01*
X19150000Y37436342D01*
X19156511Y37370232D01*
X19162056Y37351953D01*
X19182243Y37285406D01*
X19224029Y37207230D01*
X19266172Y37155879D01*
X19280263Y37138709D01*
X19297433Y37124617D01*
X20027023Y36395027D01*
X20041110Y36377862D01*
X20058275Y36363775D01*
X20058279Y36363771D01*
X20109630Y36321628D01*
X20159352Y36295051D01*
X20187806Y36279842D01*
X20272632Y36254110D01*
X20338742Y36247599D01*
X20338752Y36247599D01*
X20360846Y36245423D01*
X20382941Y36247599D01*
X22916006Y36247599D01*
X23700000Y35463604D01*
X23700000Y35440905D01*
X23723058Y35324986D01*
X23768287Y35215793D01*
X23833950Y35117522D01*
X23917522Y35033950D01*
X24015793Y34968287D01*
X24124986Y34923058D01*
X24240905Y34900000D01*
X24359095Y34900000D01*
X24475014Y34923058D01*
X24584207Y34968287D01*
X24682478Y35033950D01*
X24700000Y35051472D01*
X24700001Y34486397D01*
X24263605Y34050000D01*
X24240905Y34050000D01*
X24124986Y34026942D01*
X24015793Y33981713D01*
X23917522Y33916050D01*
X23833950Y33832478D01*
X23768287Y33734207D01*
X23723058Y33625014D01*
X23700000Y33509095D01*
X23700000Y33390905D01*
X23723058Y33274986D01*
X23768287Y33165793D01*
X23833950Y33067522D01*
X23917522Y32983950D01*
X24015793Y32918287D01*
X24124986Y32873058D01*
X24240905Y32850000D01*
X24359095Y32850000D01*
X24475014Y32873058D01*
X24511188Y32888042D01*
X24508492Y32860667D01*
X24510669Y32838563D01*
X24510668Y31737860D01*
X24494618Y31721810D01*
X24428955Y31623539D01*
X24383726Y31514346D01*
X24360668Y31398427D01*
X24360668Y31280237D01*
X24383726Y31164318D01*
X24428955Y31055125D01*
X24494618Y30956854D01*
X24578190Y30873282D01*
X24676461Y30807619D01*
X24785654Y30762390D01*
X24901573Y30739332D01*
X25019763Y30739332D01*
X25135682Y30762390D01*
X25244875Y30807619D01*
X25343146Y30873282D01*
X25426718Y30956854D01*
X25492381Y31055125D01*
X25537610Y31164318D01*
X25560668Y31280237D01*
X25560668Y31398427D01*
X25537610Y31514346D01*
X25492381Y31623539D01*
X25426718Y31721810D01*
X25410668Y31737860D01*
X25410668Y32674272D01*
X25586396Y32849999D01*
X25609095Y32849999D01*
X25725014Y32873057D01*
X25834207Y32918286D01*
X25932478Y32983949D01*
X26016050Y33067521D01*
X26081713Y33165792D01*
X26126942Y33274985D01*
X26150000Y33390904D01*
X26150000Y33509094D01*
X26126942Y33625013D01*
X26081713Y33734206D01*
X26016050Y33832477D01*
X25932478Y33916049D01*
X25834207Y33981712D01*
X25725014Y34026941D01*
X25609095Y34049999D01*
X25526621Y34049999D01*
X25567757Y34126959D01*
X25575920Y34153870D01*
X25593489Y34211785D01*
X25600000Y34277895D01*
X25600000Y34277906D01*
X25602176Y34300000D01*
X25600000Y34322094D01*
X25600000Y35101472D01*
X25616050Y35117522D01*
X25681713Y35215793D01*
X25726942Y35324986D01*
X25750000Y35440905D01*
X25750000Y35559095D01*
X25726942Y35675014D01*
X25681713Y35784207D01*
X25616050Y35882478D01*
X25532478Y35966050D01*
X25434207Y36031713D01*
X25325014Y36076942D01*
X25209095Y36100000D01*
X25090905Y36100000D01*
X24974986Y36076942D01*
X24865793Y36031713D01*
X24767522Y35966050D01*
X24725000Y35923528D01*
X24682478Y35966050D01*
X24584207Y36031713D01*
X24475014Y36076942D01*
X24359095Y36100000D01*
X24336396Y36100000D01*
X23586395Y36850000D01*
X25558786Y36850000D01*
X27745183Y34663602D01*
X27745182Y30497304D01*
X27743006Y30475210D01*
X27745182Y30453116D01*
X27745182Y30453106D01*
X27751693Y30386996D01*
X27775950Y30307032D01*
X27777425Y30302170D01*
X27819211Y30223994D01*
X27861354Y30172643D01*
X27875445Y30155473D01*
X27892616Y30141381D01*
X36191388Y21842608D01*
X36205475Y21825443D01*
X36222640Y21811356D01*
X36222644Y21811352D01*
X36273995Y21769209D01*
X36295441Y21757746D01*
X36352171Y21727423D01*
X36436997Y21701691D01*
X36503107Y21695180D01*
X36503119Y21695180D01*
X36525211Y21693004D01*
X36547303Y21695180D01*
X40729271Y21695180D01*
X42406560Y20017891D01*
X42404810Y20009095D01*
X42404810Y19890905D01*
X42427868Y19774986D01*
X42473097Y19665793D01*
X42538760Y19567522D01*
X42622332Y19483950D01*
X42720603Y19418287D01*
X42829796Y19373058D01*
X42839715Y19371085D01*
X42018630Y18550000D01*
X33781371Y18550000D01*
X33118473Y19212897D01*
X33118469Y19212902D01*
X31775000Y20556370D01*
X31775000Y23235718D01*
X31778869Y23275001D01*
X31775000Y23314284D01*
X31775000Y23314293D01*
X31763424Y23431827D01*
X31717679Y23582628D01*
X31680385Y23652400D01*
X31643393Y23721607D01*
X31568469Y23812902D01*
X31543422Y23843422D01*
X31512903Y23868467D01*
X29155973Y26225397D01*
X29155969Y26225402D01*
X28218473Y27162897D01*
X28193422Y27193422D01*
X28071606Y27293393D01*
X27932628Y27367679D01*
X27781827Y27413424D01*
X27664293Y27425000D01*
X27664291Y27425000D01*
X27625000Y27428870D01*
X27585709Y27425000D01*
X22225000Y27425000D01*
X22225000Y30110922D01*
X22228869Y30150205D01*
X22225000Y30189488D01*
X22225000Y30189497D01*
X22213424Y30307031D01*
X22167679Y30457832D01*
X22105377Y30574390D01*
X22093393Y30596811D01*
X22018469Y30688106D01*
X21993422Y30718626D01*
X21962902Y30743673D01*
X21266616Y31439958D01*
X21266614Y31439961D01*
X21155183Y31551392D01*
X18725000Y33981574D01*
X18725000Y40923382D01*
X19150001Y40498381D01*
%TA.AperFunction,Conductor*%
D23*
G36*
X19150001Y40498381D02*
G01*
X19150000Y37480541D01*
X19147824Y37458446D01*
X19150000Y37436352D01*
X19150000Y37436342D01*
X19156511Y37370232D01*
X19162056Y37351953D01*
X19182243Y37285406D01*
X19224029Y37207230D01*
X19266172Y37155879D01*
X19280263Y37138709D01*
X19297433Y37124617D01*
X20027023Y36395027D01*
X20041110Y36377862D01*
X20058275Y36363775D01*
X20058279Y36363771D01*
X20109630Y36321628D01*
X20159352Y36295051D01*
X20187806Y36279842D01*
X20272632Y36254110D01*
X20338742Y36247599D01*
X20338752Y36247599D01*
X20360846Y36245423D01*
X20382941Y36247599D01*
X22916006Y36247599D01*
X23700000Y35463604D01*
X23700000Y35440905D01*
X23723058Y35324986D01*
X23768287Y35215793D01*
X23833950Y35117522D01*
X23917522Y35033950D01*
X24015793Y34968287D01*
X24124986Y34923058D01*
X24240905Y34900000D01*
X24359095Y34900000D01*
X24475014Y34923058D01*
X24584207Y34968287D01*
X24682478Y35033950D01*
X24700000Y35051472D01*
X24700001Y34486397D01*
X24263605Y34050000D01*
X24240905Y34050000D01*
X24124986Y34026942D01*
X24015793Y33981713D01*
X23917522Y33916050D01*
X23833950Y33832478D01*
X23768287Y33734207D01*
X23723058Y33625014D01*
X23700000Y33509095D01*
X23700000Y33390905D01*
X23723058Y33274986D01*
X23768287Y33165793D01*
X23833950Y33067522D01*
X23917522Y32983950D01*
X24015793Y32918287D01*
X24124986Y32873058D01*
X24240905Y32850000D01*
X24359095Y32850000D01*
X24475014Y32873058D01*
X24511188Y32888042D01*
X24508492Y32860667D01*
X24510669Y32838563D01*
X24510668Y31737860D01*
X24494618Y31721810D01*
X24428955Y31623539D01*
X24383726Y31514346D01*
X24360668Y31398427D01*
X24360668Y31280237D01*
X24383726Y31164318D01*
X24428955Y31055125D01*
X24494618Y30956854D01*
X24578190Y30873282D01*
X24676461Y30807619D01*
X24785654Y30762390D01*
X24901573Y30739332D01*
X25019763Y30739332D01*
X25135682Y30762390D01*
X25244875Y30807619D01*
X25343146Y30873282D01*
X25426718Y30956854D01*
X25492381Y31055125D01*
X25537610Y31164318D01*
X25560668Y31280237D01*
X25560668Y31398427D01*
X25537610Y31514346D01*
X25492381Y31623539D01*
X25426718Y31721810D01*
X25410668Y31737860D01*
X25410668Y32674272D01*
X25586396Y32849999D01*
X25609095Y32849999D01*
X25725014Y32873057D01*
X25834207Y32918286D01*
X25932478Y32983949D01*
X26016050Y33067521D01*
X26081713Y33165792D01*
X26126942Y33274985D01*
X26150000Y33390904D01*
X26150000Y33509094D01*
X26126942Y33625013D01*
X26081713Y33734206D01*
X26016050Y33832477D01*
X25932478Y33916049D01*
X25834207Y33981712D01*
X25725014Y34026941D01*
X25609095Y34049999D01*
X25526621Y34049999D01*
X25567757Y34126959D01*
X25575920Y34153870D01*
X25593489Y34211785D01*
X25600000Y34277895D01*
X25600000Y34277906D01*
X25602176Y34300000D01*
X25600000Y34322094D01*
X25600000Y35101472D01*
X25616050Y35117522D01*
X25681713Y35215793D01*
X25726942Y35324986D01*
X25750000Y35440905D01*
X25750000Y35559095D01*
X25726942Y35675014D01*
X25681713Y35784207D01*
X25616050Y35882478D01*
X25532478Y35966050D01*
X25434207Y36031713D01*
X25325014Y36076942D01*
X25209095Y36100000D01*
X25090905Y36100000D01*
X24974986Y36076942D01*
X24865793Y36031713D01*
X24767522Y35966050D01*
X24725000Y35923528D01*
X24682478Y35966050D01*
X24584207Y36031713D01*
X24475014Y36076942D01*
X24359095Y36100000D01*
X24336396Y36100000D01*
X23586395Y36850000D01*
X25558786Y36850000D01*
X27745183Y34663602D01*
X27745182Y30497304D01*
X27743006Y30475210D01*
X27745182Y30453116D01*
X27745182Y30453106D01*
X27751693Y30386996D01*
X27775950Y30307032D01*
X27777425Y30302170D01*
X27819211Y30223994D01*
X27861354Y30172643D01*
X27875445Y30155473D01*
X27892616Y30141381D01*
X36191388Y21842608D01*
X36205475Y21825443D01*
X36222640Y21811356D01*
X36222644Y21811352D01*
X36273995Y21769209D01*
X36295441Y21757746D01*
X36352171Y21727423D01*
X36436997Y21701691D01*
X36503107Y21695180D01*
X36503119Y21695180D01*
X36525211Y21693004D01*
X36547303Y21695180D01*
X40729271Y21695180D01*
X42406560Y20017891D01*
X42404810Y20009095D01*
X42404810Y19890905D01*
X42427868Y19774986D01*
X42473097Y19665793D01*
X42538760Y19567522D01*
X42622332Y19483950D01*
X42720603Y19418287D01*
X42829796Y19373058D01*
X42839715Y19371085D01*
X42018630Y18550000D01*
X33781371Y18550000D01*
X33118473Y19212897D01*
X33118469Y19212902D01*
X31775000Y20556370D01*
X31775000Y23235718D01*
X31778869Y23275001D01*
X31775000Y23314284D01*
X31775000Y23314293D01*
X31763424Y23431827D01*
X31717679Y23582628D01*
X31680385Y23652400D01*
X31643393Y23721607D01*
X31568469Y23812902D01*
X31543422Y23843422D01*
X31512903Y23868467D01*
X29155973Y26225397D01*
X29155969Y26225402D01*
X28218473Y27162897D01*
X28193422Y27193422D01*
X28071606Y27293393D01*
X27932628Y27367679D01*
X27781827Y27413424D01*
X27664293Y27425000D01*
X27664291Y27425000D01*
X27625000Y27428870D01*
X27585709Y27425000D01*
X22225000Y27425000D01*
X22225000Y30110922D01*
X22228869Y30150205D01*
X22225000Y30189488D01*
X22225000Y30189497D01*
X22213424Y30307031D01*
X22167679Y30457832D01*
X22105377Y30574390D01*
X22093393Y30596811D01*
X22018469Y30688106D01*
X21993422Y30718626D01*
X21962902Y30743673D01*
X21266616Y31439958D01*
X21266614Y31439961D01*
X21155183Y31551392D01*
X18725000Y33981574D01*
X18725000Y40923382D01*
X19150001Y40498381D01*
G37*
%TD.AperFunction*%
D22*
X39231530Y38987099D02*
X39256578Y38956578D01*
X39287098Y38931531D01*
X39378393Y38856607D01*
X39462249Y38811785D01*
X39517372Y38782321D01*
X39668173Y38736576D01*
X39785707Y38725000D01*
X39785708Y38725000D01*
X39824999Y38721130D01*
X39864290Y38725000D01*
X42343630Y38725000D01*
X45100001Y35968629D01*
X45100000Y33310708D01*
X45100001Y33310698D01*
X45100000Y27910708D01*
X45100001Y27910698D01*
X45100000Y21631371D01*
X43583725Y20115095D01*
X43581752Y20125014D01*
X43536523Y20234207D01*
X43470860Y20332478D01*
X43387288Y20416050D01*
X43289017Y20481713D01*
X43179824Y20526942D01*
X43167935Y20529307D01*
X42831196Y20866046D01*
X42836607Y20868287D01*
X42934878Y20933950D01*
X43018450Y21017522D01*
X43084113Y21115793D01*
X43129342Y21224986D01*
X43152400Y21340905D01*
X43152400Y21459095D01*
X43129342Y21575014D01*
X43084113Y21684207D01*
X43018450Y21782478D01*
X42934878Y21866050D01*
X42836607Y21931713D01*
X42727414Y21976942D01*
X42611495Y22000000D01*
X42588796Y22000000D01*
X42303810Y22284986D01*
X42384207Y22318287D01*
X42482478Y22383950D01*
X42566050Y22467522D01*
X42631713Y22565793D01*
X42676942Y22674986D01*
X42700000Y22790905D01*
X42700000Y22909095D01*
X42676942Y23025014D01*
X42631713Y23134207D01*
X42566050Y23232478D01*
X42482478Y23316050D01*
X42384207Y23381713D01*
X42275014Y23426942D01*
X42159095Y23450000D01*
X42106262Y23450000D01*
X42073041Y23467757D01*
X41988215Y23493489D01*
X41922105Y23500000D01*
X41922094Y23500000D01*
X41900000Y23502176D01*
X41877906Y23500000D01*
X40081440Y23500000D01*
X40100000Y23593305D01*
X40100000Y23711495D01*
X40076942Y23827414D01*
X40031713Y23936607D01*
X39966050Y24034878D01*
X39882478Y24118450D01*
X39784207Y24184113D01*
X39675014Y24229342D01*
X39559095Y24252400D01*
X39536396Y24252400D01*
X39231426Y24557369D01*
X39217336Y24574538D01*
X39148815Y24630772D01*
X39070640Y24672558D01*
X38985814Y24698290D01*
X38919704Y24704801D01*
X38919693Y24704801D01*
X38897599Y24706977D01*
X38875505Y24704801D01*
X38371399Y24704801D01*
X37952410Y25123789D01*
X37952410Y27975496D01*
X37954586Y27997590D01*
X37952410Y28019684D01*
X37952410Y28019695D01*
X37945899Y28085805D01*
X37920167Y28170631D01*
X37911863Y28186167D01*
X37878381Y28248807D01*
X37836238Y28300158D01*
X37836234Y28300162D01*
X37822147Y28317327D01*
X37804983Y28331413D01*
X34472590Y31663805D01*
X34472590Y36466015D01*
X35546125Y35392479D01*
X35560212Y35375314D01*
X35577377Y35361227D01*
X35577381Y35361223D01*
X35628732Y35319080D01*
X35706908Y35277294D01*
X35791734Y35251562D01*
X35857844Y35245051D01*
X35857854Y35245051D01*
X35879949Y35242875D01*
X35902043Y35245051D01*
X37809693Y35245051D01*
X37825743Y35229001D01*
X37924014Y35163338D01*
X38033207Y35118109D01*
X38149126Y35095051D01*
X38267316Y35095051D01*
X38383235Y35118109D01*
X38492428Y35163338D01*
X38590699Y35229001D01*
X38674271Y35312573D01*
X38739934Y35410844D01*
X38785163Y35520037D01*
X38808221Y35635956D01*
X38808221Y35754146D01*
X38785163Y35870065D01*
X38739934Y35979258D01*
X38674271Y36077529D01*
X38590699Y36161101D01*
X38492428Y36226764D01*
X38383235Y36271993D01*
X38267316Y36295051D01*
X38149126Y36295051D01*
X38033207Y36271993D01*
X37924014Y36226764D01*
X37825743Y36161101D01*
X37809693Y36145051D01*
X36066345Y36145051D01*
X34925000Y37286395D01*
X34925000Y43293630D01*
X39231530Y38987099D01*
%TA.AperFunction,Conductor*%
D23*
G36*
X39231530Y38987099D02*
G01*
X39256578Y38956578D01*
X39287098Y38931531D01*
X39378393Y38856607D01*
X39462249Y38811785D01*
X39517372Y38782321D01*
X39668173Y38736576D01*
X39785707Y38725000D01*
X39785708Y38725000D01*
X39824999Y38721130D01*
X39864290Y38725000D01*
X42343630Y38725000D01*
X45100001Y35968629D01*
X45100000Y33310708D01*
X45100001Y33310698D01*
X45100000Y27910708D01*
X45100001Y27910698D01*
X45100000Y21631371D01*
X43583725Y20115095D01*
X43581752Y20125014D01*
X43536523Y20234207D01*
X43470860Y20332478D01*
X43387288Y20416050D01*
X43289017Y20481713D01*
X43179824Y20526942D01*
X43167935Y20529307D01*
X42831196Y20866046D01*
X42836607Y20868287D01*
X42934878Y20933950D01*
X43018450Y21017522D01*
X43084113Y21115793D01*
X43129342Y21224986D01*
X43152400Y21340905D01*
X43152400Y21459095D01*
X43129342Y21575014D01*
X43084113Y21684207D01*
X43018450Y21782478D01*
X42934878Y21866050D01*
X42836607Y21931713D01*
X42727414Y21976942D01*
X42611495Y22000000D01*
X42588796Y22000000D01*
X42303810Y22284986D01*
X42384207Y22318287D01*
X42482478Y22383950D01*
X42566050Y22467522D01*
X42631713Y22565793D01*
X42676942Y22674986D01*
X42700000Y22790905D01*
X42700000Y22909095D01*
X42676942Y23025014D01*
X42631713Y23134207D01*
X42566050Y23232478D01*
X42482478Y23316050D01*
X42384207Y23381713D01*
X42275014Y23426942D01*
X42159095Y23450000D01*
X42106262Y23450000D01*
X42073041Y23467757D01*
X41988215Y23493489D01*
X41922105Y23500000D01*
X41922094Y23500000D01*
X41900000Y23502176D01*
X41877906Y23500000D01*
X40081440Y23500000D01*
X40100000Y23593305D01*
X40100000Y23711495D01*
X40076942Y23827414D01*
X40031713Y23936607D01*
X39966050Y24034878D01*
X39882478Y24118450D01*
X39784207Y24184113D01*
X39675014Y24229342D01*
X39559095Y24252400D01*
X39536396Y24252400D01*
X39231426Y24557369D01*
X39217336Y24574538D01*
X39148815Y24630772D01*
X39070640Y24672558D01*
X38985814Y24698290D01*
X38919704Y24704801D01*
X38919693Y24704801D01*
X38897599Y24706977D01*
X38875505Y24704801D01*
X38371399Y24704801D01*
X37952410Y25123789D01*
X37952410Y27975496D01*
X37954586Y27997590D01*
X37952410Y28019684D01*
X37952410Y28019695D01*
X37945899Y28085805D01*
X37920167Y28170631D01*
X37911863Y28186167D01*
X37878381Y28248807D01*
X37836238Y28300158D01*
X37836234Y28300162D01*
X37822147Y28317327D01*
X37804983Y28331413D01*
X34472590Y31663805D01*
X34472590Y36466015D01*
X35546125Y35392479D01*
X35560212Y35375314D01*
X35577377Y35361227D01*
X35577381Y35361223D01*
X35628732Y35319080D01*
X35706908Y35277294D01*
X35791734Y35251562D01*
X35857844Y35245051D01*
X35857854Y35245051D01*
X35879949Y35242875D01*
X35902043Y35245051D01*
X37809693Y35245051D01*
X37825743Y35229001D01*
X37924014Y35163338D01*
X38033207Y35118109D01*
X38149126Y35095051D01*
X38267316Y35095051D01*
X38383235Y35118109D01*
X38492428Y35163338D01*
X38590699Y35229001D01*
X38674271Y35312573D01*
X38739934Y35410844D01*
X38785163Y35520037D01*
X38808221Y35635956D01*
X38808221Y35754146D01*
X38785163Y35870065D01*
X38739934Y35979258D01*
X38674271Y36077529D01*
X38590699Y36161101D01*
X38492428Y36226764D01*
X38383235Y36271993D01*
X38267316Y36295051D01*
X38149126Y36295051D01*
X38033207Y36271993D01*
X37924014Y36226764D01*
X37825743Y36161101D01*
X37809693Y36145051D01*
X36066345Y36145051D01*
X34925000Y37286395D01*
X34925000Y43293630D01*
X39231530Y38987099D01*
G37*
%TD.AperFunction*%
D24*
X14075000Y19025000D02*
X11125000Y19025000D01*
X11125000Y21975000D01*
X14075000Y21975000D01*
X14075000Y19025000D01*
%TA.AperFunction,Conductor*%
D23*
G36*
X14075000Y19025000D02*
G01*
X11125000Y19025000D01*
X11125000Y21975000D01*
X14075000Y21975000D01*
X14075000Y19025000D01*
G37*
%TD.AperFunction*%
M02*
