M48
INCH,TZ
T1C0.0079
T2C0.0118
T3C0.0197
T4C0.0236
T5C0.0394
T6C0.0866
T7C0.0256
%
G90
G05
T1
X4728Y8303
X4728Y7839
X5193Y8303
X5193Y7839
T2
X846Y16791
X866Y3268
X1240Y12559
X1575Y15315
X1929Y17835
X1929Y2244
X2087Y17992
X2087Y4547
X2087Y2087
X2244Y18150
X2244Y1929
X2756Y6772
X2766Y8583
X2776Y14213
X2776Y13265
X3268Y19213
X3287Y846
X3898Y15906
X4291Y14213
X4409Y9429
X4409Y8957
X4626Y2362
X4744Y16555
X4843Y10295
X4980Y17343
X5000Y3858
X5906Y7913
X5945Y10630
X6181Y7441
X6398Y8681
X6417Y3858
X6496Y6043
X6772Y18366
X6850Y6043
X7106Y12598
X7244Y10630
X7283Y16831
X7283Y8937
X7559Y18858
X7559Y18150
X7677Y2067
X7913Y4921
X8012Y5709
X8061Y7559
X8061Y7244
X8061Y6929
X8061Y6614
X8130Y16890
X8130Y16575
X8130Y15945
X8130Y15315
X8130Y14685
X8189Y4921
X8327Y17549
X8337Y4350
X8366Y5709
X8435Y10912
X8445Y7520
X8465Y4921
X8498Y17791
X8563Y4528
X8720Y12815
X8799Y7520
X8810Y10107
X9055Y16535
X9055Y15354
X9154Y10107
X9154Y7520
X9559Y3358
X9567Y13976
X9567Y13169
X9665Y6624
X9705Y11457
X9803Y6220
X9827Y12338
X9902Y13976
X10000Y4567
X10039Y10039
X10059Y13169
X10109Y6946
X10374Y12126
X10374Y11457
X10374Y3366
X10413Y7165
X10551Y6220
X10591Y10039
X10807Y7559
X11024Y16535
X11024Y15354
X11063Y6732
X11161Y13996
X11245Y10113
X11319Y7539
X11398Y8661
X11516Y4528
X11694Y12517
X11713Y10591
X11752Y4350
X11811Y5315
X11872Y12788
X11949Y15945
X11949Y15630
X12343Y9951
X12382Y12835
X12402Y2067
X12520Y18858
X12520Y18150
X12636Y12414
X12776Y16713
X12785Y16260
X12805Y7352
X12979Y12406
X13051Y6220
X13425Y8937
X13543Y6988
X13701Y11083
X13819Y17421
X13878Y12461
X14154Y18287
X14252Y4213
X14252Y2657
X14330Y9861
X14567Y9390
X14695Y3435
X14843Y15453
X15043Y14053
X15059Y9312
X15354Y4311
X15551Y13130
X15551Y9312
X15679Y15561
X16319Y5610
X16575Y8996
X16654Y14980
X16753Y8425
X16791Y19232
X16811Y866
X16931Y7854
X17106Y9843
X17530Y11407
X17677Y6102
X17835Y18150
X17835Y1929
X17913Y15571
X17992Y17992
X17992Y2087
X18071Y13130
X18071Y11004
X18150Y17835
X18150Y2244
X19213Y16811
X19232Y3287
T3
X5256Y16988
X8128Y12177
T5
X868Y17797
X868Y2282
X1575Y18504
X1575Y1575
X2264Y12039
X2264Y11039
X2264Y10039
X2264Y9039
X2264Y8039
X2282Y19211
X2282Y868
X3264Y12039
X3264Y11039
X3264Y10039
X3264Y9039
X3264Y8039
X5709Y3854
X5709Y2854
X5709Y1854
X17797Y19211
X17797Y868
X18504Y18504
X18504Y1575
X19211Y17797
X19211Y2282
T6
X3150Y16929
X3150Y3150
X16929Y16929
X16929Y3150
T7
X8902Y3496
X11177Y3496
T4
G00X8339Y3909
M15
G01X8339Y3476
M16
G05
G00X8339Y2205
M15
G01X8339Y1890
M16
G05
G00X11740Y3909
M15
G01X11740Y3476
M16
G05
G00X11740Y2205
M15
G01X11740Y1890
M16
G05
T0
M30
