%TF.GenerationSoftware,KiCad,Pcbnew,(5.1.6-0-10_14)*%
%TF.CreationDate,2020-08-06T16:36:50-10:00*%
%TF.ProjectId,flight-computer-2,666c6967-6874-42d6-936f-6d7075746572,rev?*%
%TF.SameCoordinates,Original*%
%TF.FileFunction,Soldermask,Bot*%
%TF.FilePolarity,Negative*%
%FSLAX46Y46*%
G04 Gerber Fmt 4.6, Leading zero omitted, Abs format (unit mm)*
G04 Created by KiCad (PCBNEW (5.1.6-0-10_14)) date 2020-08-06 16:36:50*
%MOMM*%
%LPD*%
G01*
G04 APERTURE LIST*
%ADD10O,1.100000X2.100000*%
%ADD11O,1.150000X2.200000*%
%ADD12C,0.750000*%
%ADD13C,4.500000*%
%ADD14O,1.800000X1.800000*%
%ADD15C,1.800000*%
G04 APERTURE END LIST*
D10*
X113180000Y-87800000D03*
X121820000Y-87800000D03*
D11*
X113180000Y-83620000D03*
X121820000Y-83620000D03*
D12*
X120390000Y-84120000D03*
X114610000Y-84120000D03*
D13*
X100000000Y-50000000D03*
X135000000Y-50000000D03*
X135000000Y-85000000D03*
X100000000Y-85000000D03*
G36*
G01*
X94840345Y-86567553D02*
X94840345Y-86567553D01*
G75*
G02*
X94840345Y-87840345I-636396J-636396D01*
G01*
X94840345Y-87840345D01*
G75*
G02*
X93567553Y-87840345I-636396J636396D01*
G01*
X93567553Y-87840345D01*
G75*
G02*
X93567553Y-86567553I636396J636396D01*
G01*
X93567553Y-86567553D01*
G75*
G02*
X94840345Y-86567553I636396J-636396D01*
G01*
G37*
G36*
G01*
X96636396Y-88363604D02*
X96636396Y-88363604D01*
G75*
G02*
X96636396Y-89636396I-636396J-636396D01*
G01*
X96636396Y-89636396D01*
G75*
G02*
X95363604Y-89636396I-636396J636396D01*
G01*
X95363604Y-89636396D01*
G75*
G02*
X95363604Y-88363604I636396J636396D01*
G01*
X95363604Y-88363604D01*
G75*
G02*
X96636396Y-88363604I636396J-636396D01*
G01*
G37*
G36*
G01*
X98114249Y-89841457D02*
X98750645Y-90477853D01*
G75*
G02*
X98750645Y-91114249I-318198J-318198D01*
G01*
X98114249Y-91750645D01*
G75*
G02*
X97477853Y-91750645I-318198J318198D01*
G01*
X96841457Y-91114249D01*
G75*
G02*
X96841457Y-90477853I318198J318198D01*
G01*
X97477853Y-89841457D01*
G75*
G02*
X98114249Y-89841457I318198J-318198D01*
G01*
G37*
G36*
G01*
X136567553Y-90159655D02*
X136567553Y-90159655D01*
G75*
G02*
X137840345Y-90159655I636396J-636396D01*
G01*
X137840345Y-90159655D01*
G75*
G02*
X137840345Y-91432447I-636396J-636396D01*
G01*
X137840345Y-91432447D01*
G75*
G02*
X136567553Y-91432447I-636396J636396D01*
G01*
X136567553Y-91432447D01*
G75*
G02*
X136567553Y-90159655I636396J636396D01*
G01*
G37*
G36*
G01*
X138363604Y-88363604D02*
X138363604Y-88363604D01*
G75*
G02*
X139636396Y-88363604I636396J-636396D01*
G01*
X139636396Y-88363604D01*
G75*
G02*
X139636396Y-89636396I-636396J-636396D01*
G01*
X139636396Y-89636396D01*
G75*
G02*
X138363604Y-89636396I-636396J636396D01*
G01*
X138363604Y-89636396D01*
G75*
G02*
X138363604Y-88363604I636396J636396D01*
G01*
G37*
G36*
G01*
X139841457Y-86885751D02*
X140477853Y-86249355D01*
G75*
G02*
X141114249Y-86249355I318198J-318198D01*
G01*
X141750645Y-86885751D01*
G75*
G02*
X141750645Y-87522147I-318198J-318198D01*
G01*
X141114249Y-88158543D01*
G75*
G02*
X140477853Y-88158543I-318198J318198D01*
G01*
X139841457Y-87522147D01*
G75*
G02*
X139841457Y-86885751I318198J318198D01*
G01*
G37*
G36*
G01*
X140159655Y-48432447D02*
X140159655Y-48432447D01*
G75*
G02*
X140159655Y-47159655I636396J636396D01*
G01*
X140159655Y-47159655D01*
G75*
G02*
X141432447Y-47159655I636396J-636396D01*
G01*
X141432447Y-47159655D01*
G75*
G02*
X141432447Y-48432447I-636396J-636396D01*
G01*
X141432447Y-48432447D01*
G75*
G02*
X140159655Y-48432447I-636396J636396D01*
G01*
G37*
G36*
G01*
X138363604Y-46636396D02*
X138363604Y-46636396D01*
G75*
G02*
X138363604Y-45363604I636396J636396D01*
G01*
X138363604Y-45363604D01*
G75*
G02*
X139636396Y-45363604I636396J-636396D01*
G01*
X139636396Y-45363604D01*
G75*
G02*
X139636396Y-46636396I-636396J-636396D01*
G01*
X139636396Y-46636396D01*
G75*
G02*
X138363604Y-46636396I-636396J636396D01*
G01*
G37*
G36*
G01*
X136885751Y-45158543D02*
X136249355Y-44522147D01*
G75*
G02*
X136249355Y-43885751I318198J318198D01*
G01*
X136885751Y-43249355D01*
G75*
G02*
X137522147Y-43249355I318198J-318198D01*
G01*
X138158543Y-43885751D01*
G75*
G02*
X138158543Y-44522147I-318198J-318198D01*
G01*
X137522147Y-45158543D01*
G75*
G02*
X136885751Y-45158543I-318198J318198D01*
G01*
G37*
G36*
G01*
X98432447Y-44840345D02*
X98432447Y-44840345D01*
G75*
G02*
X97159655Y-44840345I-636396J636396D01*
G01*
X97159655Y-44840345D01*
G75*
G02*
X97159655Y-43567553I636396J636396D01*
G01*
X97159655Y-43567553D01*
G75*
G02*
X98432447Y-43567553I636396J-636396D01*
G01*
X98432447Y-43567553D01*
G75*
G02*
X98432447Y-44840345I-636396J-636396D01*
G01*
G37*
G36*
G01*
X96636396Y-46636396D02*
X96636396Y-46636396D01*
G75*
G02*
X95363604Y-46636396I-636396J636396D01*
G01*
X95363604Y-46636396D01*
G75*
G02*
X95363604Y-45363604I636396J636396D01*
G01*
X95363604Y-45363604D01*
G75*
G02*
X96636396Y-45363604I636396J-636396D01*
G01*
X96636396Y-45363604D01*
G75*
G02*
X96636396Y-46636396I-636396J-636396D01*
G01*
G37*
G36*
G01*
X95158543Y-48114249D02*
X94522147Y-48750645D01*
G75*
G02*
X93885751Y-48750645I-318198J318198D01*
G01*
X93249355Y-48114249D01*
G75*
G02*
X93249355Y-47477853I318198J318198D01*
G01*
X93885751Y-46841457D01*
G75*
G02*
X94522147Y-46841457I318198J-318198D01*
G01*
X95158543Y-47477853D01*
G75*
G02*
X95158543Y-48114249I-318198J-318198D01*
G01*
G37*
D14*
X106500000Y-88290000D03*
X106500000Y-85750000D03*
G36*
G01*
X105600000Y-83660000D02*
X105600000Y-82760000D01*
G75*
G02*
X106050000Y-82310000I450000J0D01*
G01*
X106950000Y-82310000D01*
G75*
G02*
X107400000Y-82760000I0J-450000D01*
G01*
X107400000Y-83660000D01*
G75*
G02*
X106950000Y-84110000I-450000J0D01*
G01*
X106050000Y-84110000D01*
G75*
G02*
X105600000Y-83660000I0J450000D01*
G01*
G37*
D15*
X97750000Y-62420000D03*
D14*
X100290000Y-62420000D03*
X97750000Y-64960000D03*
X100290000Y-64960000D03*
X97750000Y-67500000D03*
X100290000Y-67500000D03*
X97750000Y-70040000D03*
X100290000Y-70040000D03*
G36*
G01*
X96850000Y-73030000D02*
X96850000Y-72130000D01*
G75*
G02*
X97300000Y-71680000I450000J0D01*
G01*
X98200000Y-71680000D01*
G75*
G02*
X98650000Y-72130000I0J-450000D01*
G01*
X98650000Y-73030000D01*
G75*
G02*
X98200000Y-73480000I-450000J0D01*
G01*
X97300000Y-73480000D01*
G75*
G02*
X96850000Y-73030000I0J450000D01*
G01*
G37*
G36*
G01*
X99390000Y-73030000D02*
X99390000Y-72130000D01*
G75*
G02*
X99840000Y-71680000I450000J0D01*
G01*
X100740000Y-71680000D01*
G75*
G02*
X101190000Y-72130000I0J-450000D01*
G01*
X101190000Y-73030000D01*
G75*
G02*
X100740000Y-73480000I-450000J0D01*
G01*
X99840000Y-73480000D01*
G75*
G02*
X99390000Y-73030000I0J450000D01*
G01*
G37*
M02*
